<svg version="1.1" xmlns="http://www.w3.org/2000/svg" width="512px" height="512px" transform="rotate(0) scale(1, 1)">
<path d="M0 0 C0.97051306 -0.00453111 1.94102612 -0.00906223 2.94094867 -0.01373065 C6.1958441 -0.02639978 9.45057274 -0.02475264 12.70549011 -0.02310181 C15.03804744 -0.02908549 17.37060279 -0.03589066 19.70315552 -0.04345703 C26.04204797 -0.06114069 32.38088645 -0.06581342 38.71980119 -0.0670886 C44.01056766 -0.06898698 49.30132153 -0.07634383 54.59208316 -0.08343279 C66.36144436 -0.09907673 78.13078217 -0.10476991 89.90015284 -0.10342209 C90.60612898 -0.10334218 91.31210513 -0.10326227 92.03947449 -0.10317993 C92.74631481 -0.10309817 93.45315514 -0.10301641 94.18141486 -0.10293217 C105.63443388 -0.10211942 117.08732134 -0.12125475 128.54030231 -0.14945666 C140.30619773 -0.17819998 152.07202901 -0.19199615 163.83796042 -0.19026911 C170.44120559 -0.18975905 177.04430188 -0.19546683 183.64751625 -0.21662521 C189.85851182 -0.2359831 196.06921613 -0.23614854 202.28022194 -0.22159195 C204.55863876 -0.21949972 206.8370737 -0.22422929 209.11545944 -0.23631287 C212.22843851 -0.25175222 215.34041168 -0.24246511 218.45336914 -0.22705078 C219.80236769 -0.24248147 219.80236769 -0.24248147 221.17861873 -0.25822389 C227.98500139 -0.18386489 233.24114409 1.52673224 238.44059753 6.01351929 C238.88661316 6.57168335 239.33262878 7.12984741 239.79216003 7.70492554 C240.4843866 8.53830444 240.4843866 8.53830444 241.19059753 9.38851929 C244.41242211 14.32386203 244.71010537 18.91350031 244.69181824 24.68197632 C244.69948463 25.9340538 244.69948463 25.9340538 244.70730591 27.21142578 C244.72117154 29.96193672 244.72024803 32.71219638 244.71794128 35.46273804 C244.72182866 37.37654717 244.72616341 39.29035544 244.73092651 41.2041626 C244.73838129 45.21046754 244.73810192 49.21668434 244.73283386 53.22299194 C244.72702709 58.36249055 244.7440029 63.5016302 244.76717854 68.64106941 C244.78188903 72.59067908 244.78279147 76.54020163 244.77966881 80.48983383 C244.78018294 82.38530058 244.78543788 84.2807721 244.79548073 86.17621231 C244.80778174 88.82160285 244.80109291 91.4662851 244.78947449 94.11166382 C244.79711823 94.89718628 244.80476196 95.68270874 244.81263733 96.49203491 C244.76120086 101.77562754 244.76120086 101.77562754 243.02865601 104.2522583 C240.89774696 105.59463153 239.42457227 105.66749966 236.91716003 105.64242554 C235.75700378 105.6540271 235.75700378 105.6540271 234.57341003 105.66586304 C231.76560174 105.1470289 231.08236715 104.5966649 229.41716003 102.26742554 C229.11794985 99.68416173 229.00009798 97.33853034 229.01652527 94.75424194 C229.0095462 93.99130325 229.00256714 93.22836456 228.99537659 92.44230652 C228.97536574 89.91775527 228.97589989 87.39361163 228.97575378 84.86898804 C228.96398394 83.11404312 228.95062068 81.35910822 228.93572998 79.60418701 C228.89949769 74.97995781 228.8793312 70.35581737 228.86418152 65.73147583 C228.83938107 58.33664921 228.79965473 50.94201898 228.74228096 43.54737473 C228.72596839 40.96545572 228.72217529 38.38372198 228.7192688 35.80175781 C228.7094896 34.21430138 228.69922585 32.62684783 228.68840027 31.03939819 C228.69095322 30.32337936 228.69350616 29.60736053 228.69613647 28.86964417 C228.65582835 24.9305948 228.48183785 21.67669119 226.41716003 18.26742554 C221.87926109 15.74875692 217.38782824 15.9871045 212.34562683 16.01345825 C211.43016681 16.01033827 210.51470678 16.00721829 209.57150555 16.00400376 C206.50306452 15.99602462 203.4348213 16.00234714 200.36637878 16.00863647 C198.1668842 16.00592658 195.96739052 16.00236566 193.76789856 15.99801636 C187.79282028 15.98888995 181.81781098 15.99243768 175.84273148 15.99877453 C169.59369468 16.00383319 163.34466385 15.99914345 157.09562683 15.9960022 C145.92842259 15.99212892 134.7612437 15.99834963 123.59404552 16.00852087 C113.47028948 16.01745628 103.34657931 16.01590421 93.2228241 16.00668335 C81.46442122 15.99597864 69.70604068 15.99199719 57.94763279 15.99790788 C51.72403423 16.00102815 45.50046726 16.00143531 39.27687073 15.9948349 C33.42626674 15.98906364 27.57574948 15.99305439 21.72515488 16.00462341 C19.57610086 16.00727116 17.42703957 16.00650296 15.27798843 16.00209808 C12.34812433 15.99664582 9.41853947 16.00347304 6.48869324 16.01345825 C5.63509562 16.00899681 4.78149801 16.00453537 3.90203381 15.99993873 C-2.10924466 16.00378106 -2.10924466 16.00378106 -7.58283997 18.26742554 C-9.22204403 21.62699027 -9.83303622 24.35110262 -9.83452225 28.06977081 C-9.84234549 29.48562855 -9.84234549 29.48562855 -9.85032678 30.93008947 C-9.84586533 31.95877976 -9.84140389 32.98747005 -9.83680725 34.04733276 C-9.83992723 35.14655264 -9.84304721 36.24577252 -9.84626174 37.3783021 C-9.85425115 41.06861102 -9.84791431 44.75875595 -9.84162903 48.44906616 C-9.84433847 51.0919086 -9.84782668 53.73473967 -9.85224915 56.37757874 C-9.86114448 62.81489542 -9.85922052 69.25216548 -9.85342386 75.689484 C-9.84890793 80.92101955 -9.84829417 86.15254204 -9.8504715 91.38407898 C-9.8509312 92.50075564 -9.8509312 92.50075564 -9.85140018 93.63999143 C-9.85203963 95.15230811 -9.85268806 96.66462478 -9.85334536 98.17694145 C-9.85904907 112.35944612 -9.85249013 126.54192494 -9.84174463 140.72442538 C-9.83280908 152.89485895 -9.83436111 165.06525437 -9.84358215 177.23568726 C-9.85428407 191.36728783 -9.85849974 205.49886574 -9.85235763 219.6304698 C-9.85172052 221.13723723 -9.85109178 222.64400466 -9.8504715 224.15077209 C-9.85016295 224.89213926 -9.84985439 225.63350642 -9.84953649 226.39733925 C-9.84780932 231.62286447 -9.85072514 236.84837532 -9.8554306 242.07389832 C-9.86103856 248.44167002 -9.85952479 254.80939242 -9.84886912 261.17715847 C-9.84361124 264.42637258 -9.8426334 267.67548741 -9.84816742 270.9247036 C-9.85361247 274.4457245 -9.84680113 277.96651235 -9.83680725 281.48751831 C-9.84126869 282.5162086 -9.84573014 283.54489888 -9.85032678 284.6047616 C-9.84511128 285.54866676 -9.83989579 286.49257192 -9.83452225 287.46508026 C-9.83419754 288.27762945 -9.83387284 289.09017863 -9.83353829 289.92735052 C-9.538635 292.68004473 -8.79474671 294.78361083 -7.58283997 297.26742554 C-3.28876867 299.97283372 1.57942625 299.54705177 6.48869324 299.52139282 C7.40415326 299.5245128 8.31961329 299.52763278 9.26281452 299.53084731 C12.33125555 299.53882645 15.39949877 299.53250393 18.46794128 299.5262146 C20.66743587 299.52892449 22.86692955 299.53248542 25.06642151 299.53683472 C31.04149979 299.54596113 37.01650909 299.54241339 42.99158859 299.53607655 C49.24062538 299.53101788 55.48965622 299.53570763 61.73869324 299.53884888 C72.90589748 299.54272215 84.07307637 299.53650144 95.24027455 299.5263302 C105.36403059 299.51739479 115.48774076 299.51894687 125.61149597 299.52816772 C137.36989885 299.53887244 149.12827939 299.54285388 160.88668728 299.5369432 C167.11028584 299.53382292 173.3338528 299.53341576 179.55744934 299.54001617 C185.40805333 299.54578743 191.25857058 299.54179669 197.10916519 299.53022766 C199.25821921 299.52757991 201.4072805 299.52834812 203.55633163 299.53275299 C206.48619574 299.53820525 209.41578059 299.53137804 212.34562683 299.52139282 C213.19922444 299.52585427 214.05282206 299.53031571 214.93228626 299.53491235 C220.94356472 299.53107002 220.94356472 299.53107002 226.41716003 297.26742554 C228.71558574 293.38867945 228.66959167 289.70395724 228.67544556 285.27044678 C228.68095911 284.23203311 228.68095911 284.23203311 228.68658406 283.1726414 C228.69654154 280.85959673 228.69241786 278.54679352 228.68840027 276.23373413 C228.69278847 274.57285812 228.69809097 272.91198432 228.70423889 271.25111389 C228.7157302 267.67818227 228.72119765 264.10530988 228.72212029 260.53236008 C228.72406105 254.88545077 228.74211308 249.23866414 228.76287842 243.59179688 C228.81205988 229.56921757 228.84298294 215.54660506 228.86418152 201.5239563 C228.88068794 190.62021512 228.90344495 179.71657928 228.94720227 168.81290877 C228.96902299 163.19633382 228.97703245 157.57995877 228.97480953 151.96334434 C228.97647232 148.47454529 228.99049579 144.98587764 229.00802231 141.49712563 C229.01363704 139.87615855 229.01409312 138.25516439 229.0090847 136.63419533 C229.00297558 134.42597315 229.01511499 132.21858628 229.03189087 130.01043701 C229.0339022 128.77343237 229.03591352 127.53642773 229.0379858 126.2619381 C229.41716003 123.26742554 229.41716003 123.26742554 230.79182529 121.36979675 C233.11913807 119.79131415 234.869931 119.88631741 237.66716003 119.87924194 C239.27397644 119.86505722 239.27397644 119.86505722 240.91325378 119.85058594 C242.64768738 119.85969498 242.64768738 119.85969498 244.41716003 119.86898804 C245.6043866 119.86611786 246.79161316 119.86324768 248.01481628 119.86029053 C250.52653988 119.85824777 253.03827931 119.86379231 255.54997253 119.87631226 C259.40189575 119.89236194 263.25276958 119.87646966 267.10466003 119.85726929 C269.54216236 119.85925168 271.97966403 119.86309527 274.41716003 119.86898804 C275.5734491 119.86291534 276.72973816 119.85684265 277.92106628 119.85058594 C278.99227722 119.86004242 280.06348816 119.8694989 281.16716003 119.87924194 C282.58255066 119.88282211 282.58255066 119.88282211 284.02653503 119.88647461 C286.84323756 120.33532185 287.73457864 121.00317452 289.41716003 123.26742554 C289.81559753 125.42367554 289.81559753 125.42367554 289.79216003 127.76742554 C289.79989441 128.54086304 289.80762878 129.31430054 289.81559753 130.11117554 C289.31601318 132.81480849 288.54721109 133.56750415 286.41716003 135.26742554 C284.46191406 135.62818909 284.46191406 135.62818909 282.22111511 135.60800171 C280.96014763 135.60766182 280.96014763 135.60766182 279.67370605 135.60731506 C278.77049118 135.59183121 277.86727631 135.57634735 276.93669128 135.56039429 C276.00870224 135.55614944 275.0807132 135.5519046 274.12460327 135.54753113 C271.15932761 135.53073216 268.19473044 135.49307769 265.22966003 135.45492554 C263.21990422 135.43988028 261.21013776 135.4261916 259.20036316 135.41390991 C254.2721568 135.3833758 249.34541827 135.32465692 244.41716003 135.26742554 C244.41716003 145.16742554 244.41716003 155.06742554 244.41716003 165.26742554 C247.41423035 165.23262085 250.41130066 165.19781616 253.49919128 165.16195679 C256.39835151 165.13856802 259.29750128 165.12034755 262.19670105 165.10263062 C264.21335038 165.08753375 266.22996683 165.06705439 268.24650574 165.04110718 C271.14331674 165.00476342 274.0396941 164.98770834 276.93669128 164.97445679 C278.2915136 164.951231 278.2915136 164.951231 279.67370605 164.92753601 C280.51435104 164.92730942 281.35499603 164.92708282 282.22111511 164.92684937 C283.33031059 164.91685661 283.33031059 164.91685661 284.46191406 164.90666199 C286.97807534 165.37092034 287.85910994 166.27646765 289.41716003 168.26742554 C289.81559753 170.42367554 289.81559753 170.42367554 289.79216003 172.76742554 C289.79989441 173.54086304 289.80762878 174.31430054 289.81559753 175.11117554 C289.31601318 177.81480849 288.54721109 178.56750415 286.41716003 180.26742554 C284.46191406 180.62818909 284.46191406 180.62818909 282.22111511 180.60800171 C280.96014763 180.60766182 280.96014763 180.60766182 279.67370605 180.60731506 C278.77049118 180.59183121 277.86727631 180.57634735 276.93669128 180.56039429 C276.00870224 180.55614944 275.0807132 180.5519046 274.12460327 180.54753113 C271.15932761 180.53073216 268.19473044 180.49307769 265.22966003 180.45492554 C263.21990422 180.43988028 261.21013776 180.4261916 259.20036316 180.41390991 C254.2721568 180.3833758 249.34541827 180.32465692 244.41716003 180.26742554 C244.41716003 190.16742554 244.41716003 200.06742554 244.41716003 210.26742554 C247.41423035 210.23262085 250.41130066 210.19781616 253.49919128 210.16195679 C256.39835151 210.13856802 259.29750128 210.12034755 262.19670105 210.10263062 C264.21335038 210.08753375 266.22996683 210.06705439 268.24650574 210.04110718 C271.14331674 210.00476342 274.0396941 209.98770834 276.93669128 209.97445679 C278.2915136 209.951231 278.2915136 209.951231 279.67370605 209.92753601 C280.51435104 209.92730942 281.35499603 209.92708282 282.22111511 209.92684937 C283.33031059 209.91685661 283.33031059 209.91685661 284.46191406 209.90666199 C286.97807534 210.37092034 287.85910994 211.27646765 289.41716003 213.26742554 C289.81559753 215.42367554 289.81559753 215.42367554 289.79216003 217.76742554 C289.79989441 218.54086304 289.80762878 219.31430054 289.81559753 220.11117554 C289.31601318 222.81480849 288.54721109 223.56750415 286.41716003 225.26742554 C284.46191406 225.62818909 284.46191406 225.62818909 282.22111511 225.60800171 C280.96014763 225.60766182 280.96014763 225.60766182 279.67370605 225.60731506 C278.77049118 225.59183121 277.86727631 225.57634735 276.93669128 225.56039429 C276.00870224 225.55614944 275.0807132 225.5519046 274.12460327 225.54753113 C271.15932761 225.53073216 268.19473044 225.49307769 265.22966003 225.45492554 C263.21990422 225.43988028 261.21013776 225.4261916 259.20036316 225.41390991 C254.2721568 225.3833758 249.34541827 225.32465692 244.41716003 225.26742554 C244.41716003 235.16742554 244.41716003 245.06742554 244.41716003 255.26742554 C247.41423035 255.23262085 250.41130066 255.19781616 253.49919128 255.16195679 C256.39835151 255.13856802 259.29750128 255.12034755 262.19670105 255.10263062 C264.21335038 255.08753375 266.22996683 255.06705439 268.24650574 255.04110718 C271.14331674 255.00476342 274.0396941 254.98770834 276.93669128 254.97445679 C278.2915136 254.951231 278.2915136 254.951231 279.67370605 254.92753601 C280.51435104 254.92730942 281.35499603 254.92708282 282.22111511 254.92684937 C283.33031059 254.91685661 283.33031059 254.91685661 284.46191406 254.90666199 C286.97807534 255.37092034 287.85910994 256.27646765 289.41716003 258.26742554 C289.81559753 260.42367554 289.81559753 260.42367554 289.79216003 262.76742554 C289.79989441 263.54086304 289.80762878 264.31430054 289.81559753 265.11117554 C289.31601318 267.81480849 288.54721109 268.56750415 286.41716003 270.26742554 C284.46191406 270.62818909 284.46191406 270.62818909 282.22111511 270.60800171 C280.96014763 270.60766182 280.96014763 270.60766182 279.67370605 270.60731506 C278.77049118 270.59183121 277.86727631 270.57634735 276.93669128 270.56039429 C276.00870224 270.55614944 275.0807132 270.5519046 274.12460327 270.54753113 C271.15932761 270.53073216 268.19473044 270.49307769 265.22966003 270.45492554 C263.21990422 270.43988028 261.21013776 270.4261916 259.20036316 270.41390991 C254.2721568 270.3833758 249.34541827 270.32465692 244.41716003 270.26742554 C244.41716003 279.83742554 244.41716003 289.40742554 244.41716003 299.26742554 C247.41423035 299.30480835 250.41130066 299.34219116 253.49919128 299.38070679 C256.39843593 299.42690386 259.29755053 299.47814413 262.19670105 299.52987671 C264.21322238 299.56315264 266.22983745 299.59117622 268.24650574 299.61386108 C271.14364104 299.6473581 274.03991521 299.69967098 276.93669128 299.75570679 C277.83990616 299.76209671 278.74312103 299.76848663 279.67370605 299.77507019 C280.93467354 299.80476143 280.93467354 299.80476143 282.22111511 299.83505249 C282.96057877 299.84615555 283.70004242 299.85725861 284.46191406 299.86869812 C286.95720053 300.37755437 287.86150239 301.28659353 289.41716003 303.26742554 C289.81559753 305.42367554 289.81559753 305.42367554 289.79216003 307.76742554 C289.79989441 308.54086304 289.80762878 309.31430054 289.81559753 310.11117554 C289.31582377 312.81583357 288.54858281 313.56712673 286.41716003 315.26742554 C284.45504475 315.63656902 284.45504475 315.63656902 282.18408203 315.62818909 C281.32171432 315.63231308 280.45934662 315.63643707 279.57084656 315.64068604 C278.62785706 315.62990021 277.68486755 315.61911438 276.71330261 315.60800171 C275.71800034 315.60843979 274.72269806 315.60887787 273.69723511 315.60932922 C270.40185545 315.60723638 267.10698225 315.58388155 263.81169128 315.56039429 C261.5291166 315.55480011 259.24653831 315.55052917 256.96395874 315.54753113 C250.95181866 315.53606839 244.93989548 315.50658873 238.92784119 315.47341919 C232.79475336 315.4427492 226.66163054 315.42903235 220.52848816 315.41390991 C208.49126808 315.38172051 196.45426601 315.32894074 184.41716003 315.26742554 C184.41716003 325.16742554 184.41716003 335.06742554 184.41716003 345.26742554 C187.4913324 345.25171509 190.56550476 345.23600464 193.73283386 345.21981812 C203.87491414 345.17017204 214.01699971 345.13699649 224.1591692 345.11198902 C230.3100914 345.09631414 236.4608894 345.07504248 242.61174011 345.04110718 C248.54449374 345.00857894 254.4771277 344.99058626 260.40996361 344.98279381 C262.67665682 344.97723855 264.94334328 344.96639091 267.20998573 344.95023537 C270.37790351 344.9285482 273.54532289 344.92545499 276.71330261 344.92684937 C278.12778687 344.91067062 278.12778687 344.91067062 279.57084656 344.89416504 C280.43321426 344.89828903 281.29558197 344.90241302 282.18408203 344.90666199 C282.93349973 344.90389661 283.68291742 344.90113123 284.45504475 344.89828205 C286.97168075 345.37175055 287.85837176 346.27342678 289.41716003 348.26742554 C289.81559753 350.42367554 289.81559753 350.42367554 289.79216003 352.76742554 C289.79989441 353.54086304 289.80762878 354.31430054 289.81559753 355.11117554 C289.31582377 357.81583357 288.54858281 358.56712673 286.41716003 360.26742554 C284.45504475 360.63656902 284.45504475 360.63656902 282.18408203 360.62818909 C281.32171432 360.63231308 280.45934662 360.63643707 279.57084656 360.64068604 C278.62785706 360.62990021 277.68486755 360.61911438 276.71330261 360.60800171 C275.71800034 360.60843979 274.72269806 360.60887787 273.69723511 360.60932922 C270.40185545 360.60723638 267.10698225 360.58388155 263.81169128 360.56039429 C261.5291166 360.55480011 259.24653831 360.55052917 256.96395874 360.54753113 C250.95181866 360.53606839 244.93989548 360.50658873 238.92784119 360.47341919 C231.71672803 360.43735827 224.50554242 360.42356398 217.29436493 360.40605927 C206.33514571 360.37695245 195.37640254 360.31947471 184.41716003 360.26742554 C184.41716003 375.77742554 184.41716003 391.28742554 184.41716003 407.26742554 C200.88963471 407.18198415 217.36199446 407.08839552 233.83433056 406.97989845 C241.48276966 406.92978284 249.1311981 406.88333981 256.77970886 406.84555054 C263.44637486 406.81260298 270.11295787 406.77275649 276.77953225 406.72463548 C280.309227 406.69939792 283.83886689 406.67760859 287.36862755 406.66408157 C291.30962824 406.64884928 295.25042751 406.61821425 299.19132996 406.58627319 C300.36089737 406.58411301 301.53046478 406.58195282 302.73547363 406.57972717 C304.34867996 406.56298195 304.34867996 406.56298195 305.99447632 406.54589844 C306.92640903 406.54036768 307.85834173 406.53483692 308.81851482 406.52913857 C311.78135399 406.23074708 313.81868327 405.73949654 316.41716003 404.26742554 C318.27246205 400.60960622 318.66751407 397.59745524 318.66884232 393.52803802 C318.67405781 392.37512913 318.6792733 391.22222024 318.68464684 390.03437471 C318.6801854 388.77222753 318.67572396 387.51008035 318.67112732 386.20968628 C318.67343198 384.85187344 318.67660854 383.49406186 318.68058181 382.13625288 C318.68893771 378.40605099 318.68480094 374.67595132 318.67860937 370.94574904 C318.67408914 366.92252008 318.68106651 362.89930883 318.68656921 358.87608337 C318.69546944 350.99496135 318.6935384 343.11387739 318.68774393 335.23275387 C318.68322993 328.82844996 318.68261341 322.42415673 318.68479156 316.01985168 C318.68525126 314.65339251 318.68525126 314.65339251 318.68572025 313.2593281 C318.68635969 311.40879142 318.68700812 309.55825475 318.68766543 307.70771807 C318.69337057 290.34910784 318.68680795 272.99051871 318.6760647 255.63191193 C318.66712902 240.73257386 318.66868101 225.83326695 318.67790222 210.93392944 C318.68860161 193.63806727 318.69282123 176.34222361 318.68667769 159.04635859 C318.68604059 157.20257219 318.68541184 155.35878579 318.68479156 153.51499939 C318.68448301 152.60778561 318.68417446 151.70057183 318.68385656 150.76586673 C318.68212863 144.36814268 318.68504685 137.97043036 318.68975067 131.57270813 C318.69535581 123.77762549 318.69385078 115.98258314 318.68318918 108.18750513 C318.67792753 104.20920492 318.67588412 100.23097193 318.68248749 96.2526722 C318.68843885 92.61216427 318.68518532 88.97178597 318.67453238 85.33128983 C318.67123344 83.38768521 318.67777662 81.44407163 318.68464684 79.50047636 C318.67943135 78.34756747 318.67421586 77.19465858 318.66884232 76.00681305 C318.66851761 75.01199811 318.66819291 74.01718316 318.66785836 72.99222231 C318.3947134 70.02345694 317.78518359 67.91328276 316.41716003 65.26742554 C313.17636043 63.10689247 312.28979803 63.01746845 308.55021667 63.01205444 C307.56231644 63.00509552 306.5744162 62.9981366 305.55657959 62.9909668 C304.4909227 62.99196381 303.42526581 62.99296082 302.32731628 62.99398804 C300.07666025 62.9737017 297.82600924 62.95285097 295.57536316 62.93148804 C292.02234148 62.90886203 288.46951809 62.89240886 284.91642761 62.88656616 C281.49052477 62.87706362 278.06551895 62.84331391 274.63981628 62.80648804 C273.04436729 62.81405624 273.04436729 62.81405624 271.41668701 62.82177734 C264.05383149 62.72324032 264.05383149 62.72324032 260.75114441 60.35873413 C259.32313765 58.12002515 258.84950645 56.90606046 258.85466003 54.26742554 C258.83274597 53.60742554 258.81083191 52.94742554 258.78825378 52.26742554 C259.83459013 48.93994597 261.43209223 48.06297406 264.41716003 46.26742554 C268.19225974 45.67564221 271.93080119 45.73096353 275.74528503 45.77133179 C277.40065277 45.76914894 277.40065277 45.76914894 279.08946228 45.766922 C281.42284281 45.76858037 283.75623435 45.7801346 286.08952332 45.8008728 C289.64062147 45.82971003 293.19021498 45.82150235 296.74137878 45.80844116 C299.01352139 45.81468265 301.28565931 45.82307679 303.55778503 45.83383179 C305.13792389 45.82942833 305.13792389 45.82942833 306.74998474 45.82493591 C314.28010718 45.92004602 321.12849378 46.65144102 327.16716003 51.45492554 C327.90966003 52.38305054 328.65216003 53.31117554 329.41716003 54.26742554 C329.84331932 54.77351475 330.26947862 55.27960396 330.70855182 55.80102921 C335.44959412 62.20407963 335.11515389 68.51069297 335.04534912 76.23519897 C335.05039885 77.6553423 335.05763097 79.07547925 335.06684726 80.49560165 C335.08573632 84.38443896 335.07355514 88.27264545 335.05612433 92.1614666 C335.04273529 96.36059732 335.05819291 100.55963667 335.06994629 104.75875854 C335.08831581 112.97943948 335.07981519 121.19988257 335.06185807 129.42055607 C335.04782676 136.10223633 335.04394041 142.78385207 335.04730034 149.46554565 C335.04777778 150.41687622 335.04825522 151.36820678 335.04874713 152.34836555 C335.04977347 154.28103544 335.05082883 156.21370532 335.0519129 158.14637518 C335.06047857 175.23234577 335.04380928 192.31820162 335.01408386 209.40414429 C334.9852468 225.97971415 334.9781631 242.55511871 334.99357605 259.13070679 C335.01034078 277.18474456 335.01436963 295.23870386 334.99686569 313.29274368 C334.99502132 315.21826425 334.99318659 317.14378483 334.99136162 319.06930542 C334.99044953 320.01667375 334.98953744 320.96404209 334.98859771 321.94011855 C334.98299401 328.61299574 334.98629795 335.2858346 334.99290657 341.95870972 C335.00064169 350.09184772 334.99388073 358.22482304 334.96873153 366.35792828 C334.95624062 370.50680207 334.95008495 374.65542267 334.96127319 378.80430603 C334.97132658 382.60412911 334.96283301 386.40344763 334.93969201 390.2032094 C334.93210401 392.22497352 334.94407502 394.24678202 334.95679575 396.26852036 C334.88302622 404.34335269 334.10055065 409.99897735 328.67106628 416.29086304 C328.11290222 416.73687866 327.55473816 417.18289429 326.97966003 417.64242554 C326.4240741 418.10390991 325.86848816 418.56539429 325.29606628 419.04086304 C321.19068038 421.72088627 317.59473942 422.51705549 312.72872925 422.50793457 C311.0271743 422.51205856 311.0271743 422.51205856 309.29124451 422.51626587 C308.05622192 422.50907532 306.82119934 422.50188477 305.54875183 422.49447632 C303.58718895 422.4949144 303.58718895 422.4949144 301.58599854 422.49536133 C298.00784111 422.4959344 294.42981818 422.4841875 290.85169196 422.47021341 C287.10942758 422.45769846 283.36716001 422.45653495 279.62487793 422.4541626 C272.5418213 422.44795008 265.45882651 422.43154235 258.37579709 422.41146362 C250.31054705 422.38909753 242.24529403 422.3781094 234.18002069 422.36807275 C217.59235857 422.3471759 201.00478163 422.31050252 184.41716003 422.26742554 C184.41716003 437.11742554 184.41716003 451.96742554 184.41716003 467.26742554 C198.86941164 467.14758099 198.86941164 467.14758099 213.32145691 467.00961304 C219.21619832 466.949315 225.11090714 466.89113546 231.00578308 466.84555054 C235.7585821 466.80866445 240.51120282 466.7622953 245.26384926 466.70936203 C247.07668237 466.69083578 248.88955367 466.67572128 250.70244408 466.66408157 C253.24254472 466.64718889 255.78223859 466.6181466 258.32218933 466.58627319 C259.07097351 466.58411301 259.81975769 466.58195282 260.5912323 466.57972717 C264.61275676 466.51530118 267.84179702 466.17462595 271.41716003 464.26742554 C274.56683382 459.30836468 273.8060627 452.7248852 273.89567566 447.04086304 C273.92210144 446.21586304 273.94852722 445.39086304 273.97575378 444.54086304 C273.98920837 443.79240112 274.00266296 443.04393921 274.01652527 442.27279663 C274.52222489 439.74152503 275.40645559 438.84104688 277.41716003 437.26742554 C279.57341003 436.86898804 279.57341003 436.86898804 281.91716003 436.89242554 C282.69059753 436.88469116 283.46403503 436.87695679 284.26091003 436.86898804 C287.00716036 437.37644734 287.73353336 438.0529974 289.41716003 440.26742554 C290.06935863 444.46474713 289.88017349 448.71273415 289.85466003 452.95492554 C289.8746405 454.11443726 289.89462097 455.27394897 289.91520691 456.46859741 C289.91065717 464.47159166 288.96094935 470.16075247 283.67106628 476.29086304 C283.11290222 476.73687866 282.55473816 477.18289429 281.97966003 477.64242554 C281.4240741 478.10390991 280.86848816 478.56539429 280.29606628 479.04086304 C275.25325909 482.33284112 270.56863342 482.5464823 264.67961121 482.49447632 C263.81081329 482.49476837 262.94201538 482.49506042 262.04689026 482.49536133 C259.18453369 482.49397161 256.3224397 482.47842723 253.46012878 482.46273804 C251.47187441 482.45900664 249.4836182 482.45616026 247.49536133 482.4541626 C242.26912841 482.44653617 237.04300713 482.42689613 231.81681824 482.40475464 C226.48114024 482.38427491 221.14544416 482.37515633 215.80973816 482.36508179 C205.34549648 482.34364935 194.88133755 482.3095253 184.41716003 482.26742554 C184.43528748 483.22584351 184.45341492 484.18426147 184.47209167 485.17172241 C184.4861908 486.43049194 184.50028992 487.68926147 184.51481628 488.98617554 C184.53294373 490.23334351 184.55107117 491.48051147 184.56974792 492.76547241 C184.32344725 498.4181715 182.60968556 501.95020661 178.76872253 506.00961304 C172.14219686 512.05740284 166.4164928 512.56126116 157.69540405 512.53485107 C156.60238442 512.53938219 155.50936479 512.5439133 154.38322335 512.54858172 C150.71374739 512.56126113 147.04441918 512.55960304 143.37492371 512.55795288 C140.74680388 512.56393591 138.11868581 512.57074093 135.49057007 512.57830811 C129.0883511 512.5949146 122.68616897 512.6004175 116.28393026 512.60153286 C111.07911624 512.60248353 105.87431435 512.60659475 100.66950417 512.61293411 C85.90910644 512.63054578 71.14873778 512.63977313 56.38832947 512.63827316 C55.59274346 512.63819325 54.79715745 512.63811334 53.97746277 512.63803101 C53.180904 512.63794924 52.38434523 512.63786748 51.56364832 512.63778324 C38.65566723 512.63697043 25.74780285 512.65610721 12.83985551 512.68430774 C-0.41765522 512.71304314 -13.67510904 512.72684767 -26.9326517 512.72512019 C-34.37425744 512.7244565 -41.81574083 512.72993946 -49.2573185 512.75147629 C-55.5935663 512.76969678 -61.92963631 512.77402842 -68.26589898 512.76045744 C-71.49736849 512.75393192 -74.72842653 512.75597314 -77.95987701 512.77116394 C-81.46693392 512.78658239 -84.97309565 512.77732947 -88.48013306 512.76190186 C-89.49619387 512.77218898 -90.51225468 512.78247611 -91.55910522 512.79307497 C-98.72535042 512.72342941 -104.15515064 511.28485089 -109.60627747 506.48617554 C-110.05229309 505.91898804 -110.49830872 505.35180054 -110.95783997 504.76742554 C-111.41932434 504.20023804 -111.88080872 503.63305054 -112.35627747 503.04867554 C-115.25873707 498.83363866 -115.83475966 495.87890663 -115.8456955 490.71239281 C-115.84980076 490.05230766 -115.85390603 489.39222251 -115.8581357 488.71213478 C-115.86948392 486.49061211 -115.86656032 484.26933712 -115.86372375 482.04779053 C-115.86889059 480.44279018 -115.87491679 478.83779241 -115.88173056 477.23279822 C-115.89788291 472.81451501 -115.90145038 468.39629676 -115.90292549 463.97798753 C-115.90662452 459.21570479 -115.92171824 454.45345585 -115.93519592 449.69119263 C-115.96237327 439.27373961 -115.97441391 428.85630198 -115.98321724 418.43881941 C-115.98874078 411.93464932 -115.9972153 405.43048519 -116.00622559 398.92631912 C-116.03061327 380.92020478 -116.05121082 362.91409521 -116.05797577 344.90796471 C-116.0584149 343.75525242 -116.05885403 342.60254014 -116.05930647 341.41489718 C-116.05974303 340.25941446 -116.06017958 339.10393174 -116.06062937 337.91343439 C-116.0615163 335.57195878 -116.06240943 333.23048317 -116.06330872 330.88900757 C-116.06375158 329.72755292 -116.06419443 328.56609827 -116.06465071 327.36944802 C-116.07254567 308.55232786 -116.10744954 289.73536265 -116.15402776 270.91830234 C-116.20145673 251.60168926 -116.22637959 232.28515392 -116.22871161 212.96848166 C-116.23054513 202.12186029 -116.24204987 191.27544075 -116.27835083 180.42887497 C-116.30915569 171.19189843 -116.31939235 161.95518608 -116.30287462 152.71816795 C-116.29506209 148.00593212 -116.29691678 143.29422828 -116.32498932 138.58205795 C-116.35047273 134.26496351 -116.34806986 129.94880058 -116.3238079 125.63170739 C-116.31989457 124.07310401 -116.32604859 122.51443459 -116.34349662 120.95592396 C-116.44004906 111.74567779 -115.72613631 104.56738311 -109.58283997 97.26742554 C-102.3336168 91.0978739 -94.44144943 90.95131193 -85.35627747 90.93148804 C-84.29043427 90.92483124 -83.22459106 90.91817444 -82.12644958 90.91131592 C-79.88243834 90.90122655 -77.63839731 90.89649774 -75.3943634 90.89682007 C-71.96189866 90.89243073 -68.53070396 90.85602625 -65.09846497 90.81820679 C-62.91357351 90.81234112 -60.72867598 90.80837005 -58.54377747 90.80648804 C-57.51972809 90.792117 -56.49567871 90.77774597 -55.44059753 90.76293945 C-51.00950382 90.79139914 -48.33331615 90.82394633 -44.46028137 93.11264038 C-42.03071029 95.90111819 -41.58283997 97.57907637 -41.58283997 101.26742554 C-43.71327475 105.83264293 -43.71327475 105.83264293 -46.58283997 107.26742554 C-48.10353045 107.37052822 -49.62852852 107.4133009 -51.15266418 107.42514038 C-52.10059845 107.43540253 -53.04853271 107.44566467 -54.02519226 107.45623779 C-55.56579819 107.46718979 -55.56579819 107.46718979 -57.13752747 107.47836304 C-59.30029548 107.50642944 -61.4630558 107.53509389 -63.62580872 107.56430054 C-67.0449148 107.60559528 -70.4638769 107.64247201 -73.88313293 107.66879272 C-77.17656834 107.69636081 -80.46934483 107.74223186 -83.76252747 107.79086304 C-84.78554962 107.79411591 -85.80857178 107.79736877 -86.8625946 107.80072021 C-87.81683319 107.81728668 -88.77107178 107.83385315 -89.75422668 107.85092163 C-90.59202667 107.85900848 -91.42982666 107.86709534 -92.29301453 107.87542725 C-95.12976584 108.36105451 -96.50142981 109.30333484 -98.58283997 111.26742554 C-99.68354216 114.56953213 -99.70931634 117.00096769 -99.71147442 120.47911644 C-99.71469886 121.78827943 -99.71792331 123.09744242 -99.72124547 124.44627702 C-99.71977418 125.90784933 -99.71820645 127.36942154 -99.71655273 128.83099365 C-99.71841986 130.37682006 -99.72072017 131.92264599 -99.72341806 133.46847117 C-99.72955461 137.7276356 -99.72940029 141.98678046 -99.72822368 146.24594831 C-99.72802014 150.83499424 -99.73353395 155.4240338 -99.73828125 160.01307678 C-99.7465985 169.00806559 -99.74933657 178.00304785 -99.74989363 186.99804018 C-99.75036828 194.30723348 -99.75242046 201.61642461 -99.75559425 208.92561722 C-99.76440373 229.63413871 -99.76901317 250.34265501 -99.76826378 271.05117838 C-99.76822382 272.1682919 -99.76818387 273.28540541 -99.7681427 274.43637085 C-99.76810182 275.55484333 -99.76806094 276.67331582 -99.76801882 277.8256814 C-99.76761226 295.95749522 -99.77718362 314.08928827 -99.79128107 332.22109608 C-99.8056315 350.82461083 -99.81255199 369.42811545 -99.81168729 388.03163588 C-99.81135486 398.48176615 -99.81412202 408.93187467 -99.82486534 419.38199997 C-99.83395282 428.27871963 -99.83616006 437.17540767 -99.82935592 446.07212995 C-99.82608184 450.61343992 -99.82606591 455.15468916 -99.83470917 459.69599342 C-99.84253602 463.85098893 -99.84118204 468.00587516 -99.83242504 472.16086788 C-99.83088159 473.66624127 -99.83273775 475.17162266 -99.83828511 476.67698662 C-99.84531445 478.71933094 -99.83887476 480.76170844 -99.83172894 482.80405235 C-99.8319463 483.93968852 -99.83216367 485.0753247 -99.83238763 486.24537408 C-99.57701751 489.33793619 -98.98681994 491.51033304 -97.58283997 494.26742554 C-93.10018332 497.1928315 -87.53361368 496.54512351 -82.37239075 496.52139282 C-80.81544086 496.52607279 -80.81544086 496.52607279 -79.22703743 496.53084731 C-75.74401826 496.5388337 -72.26117299 496.53250107 -68.77815247 496.5262146 C-66.28309527 496.52892417 -63.78803888 496.53248491 -61.29298401 496.53683472 C-55.21661058 496.54501642 -49.14030557 496.5438068 -43.0639348 496.53800943 C-38.12559129 496.53349288 -33.18726162 496.53288001 -28.24891663 496.53505707 C-27.19468559 496.53551677 -27.19468559 496.53551677 -26.11915696 496.53598575 C-24.69139528 496.5366252 -23.2636336 496.53727363 -21.83587193 496.53793094 C-8.44739352 496.54363417 4.94105751 496.53707643 18.32953143 496.5263302 C29.81773906 496.51739469 41.30590626 496.51894674 52.79411316 496.52816772 C66.13464842 496.53887046 79.47515967 496.54308485 92.81569862 496.5369432 C94.23821131 496.5363061 95.660724 496.53567736 97.08323669 496.53505707 C97.7831422 496.53474852 98.48304771 496.53443997 99.20416248 496.53412206 C104.13663806 496.53239514 109.06909843 496.53531018 114.00157166 496.54001617 C120.64011103 496.54621066 127.27858582 496.54180109 133.91712189 496.53022766 C136.35643639 496.52757862 138.79575731 496.5283503 141.23506927 496.53275299 C144.55903728 496.53820016 147.88275862 496.53138415 151.20671082 496.52139282 C152.17703688 496.52585427 153.14736294 496.53031571 154.14709282 496.53491235 C160.57888949 496.62160999 160.57888949 496.62160999 166.41716003 494.26742554 C168.75496351 490.34207631 168.67620993 486.55039056 168.69563293 482.06044006 C168.70432154 480.98822471 168.70432154 480.98822471 168.71318567 479.89434844 C168.73015656 477.50523368 168.73305963 475.11631244 168.73600769 472.72714233 C168.74530788 471.01213611 168.75547669 469.2971344 168.76644897 467.58213806 C168.79375277 462.92969955 168.80889953 458.27729133 168.821877 453.62479377 C168.83750585 448.76139842 168.86429687 443.89806493 168.88990784 439.03471375 C168.93669995 429.82675202 168.97344199 420.61877867 169.00658071 411.41075879 C169.04479901 400.92712814 169.09420995 390.44355961 169.14456487 379.95998132 C169.24789117 358.39584193 169.33714933 336.83166321 169.41716003 315.26742554 C168.5020163 315.27111271 167.58687256 315.27479988 166.64399719 315.27859879 C144.36788478 315.36696853 122.09180261 315.43314431 99.81555176 315.47467422 C89.04287925 315.49529203 78.27032381 315.5233978 67.49772644 315.56918335 C58.10740581 315.60907491 48.71716998 315.63486403 39.32676697 315.64377952 C34.35542808 315.64899031 29.38433176 315.66122146 24.41307068 315.69034576 C19.7312503 315.71755143 15.04977178 315.7258601 10.36787987 315.71985626 C8.65223519 315.72095419 6.93657876 315.72887739 5.22100258 315.74424744 C-12.32753352 315.89371847 -12.32753352 315.89371847 -19.60627747 309.48617554 C-20.05229309 308.91898804 -20.49830872 308.35180054 -20.95783997 307.76742554 C-21.41932434 307.20023804 -21.88080872 306.63305054 -22.35627747 306.04867554 C-24.850223 302.42689476 -25.83285925 299.77324539 -25.84290218 295.3466301 C-25.84996777 294.35083175 -25.85703337 293.35503341 -25.86431307 292.32905936 C-25.86189798 291.23724742 -25.8594829 290.14543548 -25.85699463 289.02053833 C-25.86223131 287.85895273 -25.86746799 286.69736714 -25.87286335 285.50058198 C-25.88528346 282.27557727 -25.88870653 279.05070744 -25.88826644 275.82568336 C-25.88991413 272.34770192 -25.90297978 268.86976023 -25.91445923 265.39179993 C-25.93731264 257.78637087 -25.94523027 250.18096971 -25.95028567 242.57551098 C-25.95354243 237.82618736 -25.96006481 233.07687184 -25.96728706 228.3275528 C-25.98685379 215.17678463 -26.00325745 202.02602399 -26.0061636 188.87524033 C-26.00644495 187.61281599 -26.00644495 187.61281599 -26.00673199 186.32488813 C-26.00709824 184.61873865 -26.00746194 182.91258918 -26.0078231 181.2064397 C-26.00809732 179.9360442 -26.00809732 179.9360442 -26.00837708 178.63998413 C-26.00855762 177.79201941 -26.00873817 176.94405469 -26.00892419 176.07039407 C-26.01246557 162.33138053 -26.03948531 148.59252376 -26.07687496 134.85356459 C-26.11495948 120.74631611 -26.13432109 106.63914541 -26.13462311 92.53184438 C-26.13520766 84.61176553 -26.14369827 76.69187367 -26.17262077 68.77184296 C-26.1971367 62.02748551 -26.20441629 55.28338323 -26.18937325 48.53899327 C-26.18220491 45.09888498 -26.18305737 41.65928052 -26.20578384 38.21922874 C-26.22616581 34.48646047 -26.21573634 30.75499835 -26.1975708 27.02224731 C-26.21077077 25.93935826 -26.22397074 24.85646921 -26.2375707 23.74076533 C-26.1532799 16.16023008 -24.42099839 11.21447373 -19.10477251 5.74742484 C-13.05316742 0.35959033 -7.73158796 -0.02643008 0 0 Z " fill="#0f0" transform="translate(146.5828399658203,-0.267425537109375)"/>
<path d="M0 0 C0.61617187 0.43828125 1.23234375 0.8765625 1.8671875 1.328125 C13.18920648 9.98920865 20.50396178 25.27789915 23 39 C23.29846002 42.80421232 23.32767219 46.59541754 23.3359375 50.41015625 C23.3459227 52.03781166 23.3459227 52.03781166 23.35610962 53.698349 C23.36619915 55.98857947 23.37092779 58.27883912 23.37060547 60.5690918 C23.37495621 64.02769032 23.4112553 67.484988 23.44921875 70.94335938 C23.55522116 91.65529645 20.87084541 108.08468567 6.26171875 123.78515625 C4.22164536 125.78294832 2.13556639 127.5128382 -0.125 129.25 C-3.32901847 131.69163518 -3.32901847 131.69163518 -3.1875 135.0625 C-0.19583099 142.4629444 5.05909511 145.10711997 12.04394531 148.19091797 C15.79165952 149.74108333 19.61821742 151.07587563 23.4375 152.4375 C39.33741764 158.13741137 53.33227217 165.18005252 61 181 C65.58690118 191.56604063 65.58936207 201.85476894 65.46655273 213.1875 C65.4372112 216.15420031 65.44605773 219.11914976 65.45898438 222.0859375 C65.4527567 223.97657119 65.44437341 225.86719929 65.43359375 227.7578125 C65.43652939 228.64211945 65.43946503 229.52642639 65.44248962 230.43753052 C65.42346336 231.66558914 65.42346336 231.66558914 65.40405273 232.91845703 C65.39864975 233.63647491 65.39324677 234.3544928 65.38768005 235.0942688 C64.84795664 237.7474044 64.22791677 238.42028932 62 240 C59.230352 240.29481064 56.68539845 240.40463175 53.91479492 240.38095093 C53.08130366 240.3856309 52.2478124 240.39031087 51.38906384 240.39513266 C48.58603868 240.40713336 45.78349785 240.39760571 42.98046875 240.38818359 C40.97506423 240.39224704 38.96966194 240.39758764 36.96426392 240.40411377 C31.50981306 240.41782013 26.05553195 240.41247502 20.60107803 240.40297651 C14.90095807 240.3953971 9.20085294 240.40242073 3.50073242 240.40713501 C-6.07278053 240.41259758 -15.64622413 240.40538779 -25.21972656 240.39111328 C-36.29821614 240.37478584 -47.37654011 240.38007399 -58.45502567 240.3965925 C-67.95570579 240.41019308 -77.45633596 240.41213402 -86.95702267 240.40427649 C-92.63622186 240.39959211 -98.31534313 240.39899609 -103.99453735 240.40888596 C-109.33299157 240.41753257 -114.67123163 240.41157594 -120.00966263 240.39420319 C-121.97249622 240.390226 -123.93534775 240.39139333 -125.89817429 240.39799118 C-128.57062702 240.40614821 -131.24238675 240.39595624 -133.91479492 240.38095093 C-134.69776349 240.38764309 -135.48073206 240.39433526 -136.28742695 240.40123022 C-141.51482746 240.34401296 -141.51482746 240.34401296 -143.98109531 238.59529877 C-145.26897162 236.57887122 -145.3860866 235.30602763 -145.40405273 232.91845703 C-145.41673691 232.09975128 -145.42942108 231.28104553 -145.44248962 230.43753052 C-145.43955399 229.55322357 -145.43661835 228.66891663 -145.43359375 227.7578125 C-145.44145653 226.3787825 -145.44145653 226.3787825 -145.44947815 224.97189331 C-145.45590758 223.02000944 -145.45454948 221.06808687 -145.44604492 219.11621094 C-145.43762995 216.17049087 -145.46612714 213.2267736 -145.49804688 210.28125 C-145.5562577 194.81317971 -143.78514202 180.98479377 -133.140625 168.88671875 C-123.08578582 159.15318083 -109.90821721 154.25111922 -96.8527832 149.96484375 C-89.52774431 147.4852519 -82.25796836 144.48958747 -77.9375 137.8125 C-76.84188612 135.01976424 -76.84188612 135.01976424 -77 132 C-78.49623689 130.40072256 -78.49623689 130.40072256 -80.5 128.875 C-93.39909228 117.9323838 -101.61026798 104.11311344 -103.28959656 87.05906677 C-103.40754722 84.09026707 -103.44223196 81.13516343 -103.43359375 78.1640625 C-103.4388356 77.08224701 -103.44407745 76.00043152 -103.44947815 74.88583374 C-103.45585299 72.61530407 -103.45462087 70.34474117 -103.44604492 68.07421875 C-103.4375372 64.64001439 -103.46635937 61.20747827 -103.49804688 57.7734375 C-103.567516 36.16324991 -99.4828905 19.04280635 -84 3 C-59.46105698 -18.05900519 -25.82727728 -19.7863209 0 0 Z M-74 16 C-83.40405423 27.33639414 -87.12403134 37.56134819 -87.23828125 52.09375 C-87.246353 53.07686157 -87.25442474 54.05997314 -87.26274109 55.07287598 C-87.27655218 57.15403497 -87.28728759 59.23521634 -87.29516602 61.31640625 C-87.30664439 63.42454767 -87.32702982 65.53266098 -87.35668945 67.640625 C-87.62248601 86.55227273 -86.04346953 100.32303291 -72.6875 114.75 C-62.97811108 123.95980068 -51.21075016 127.95002238 -38 128 C-24.54463135 127.33884643 -13.07253903 121.29480113 -4.05078125 111.4609375 C6.82268783 98.4127746 7.65726251 84.44656505 7.52148438 68.08007812 C7.50003982 65.00570807 7.52137028 61.93367424 7.546875 58.859375 C7.56844323 44.04439952 6.30132754 32.11216828 -3 20 C-3.5775 19.13375 -4.155 18.2675 -4.75 17.375 C-13.23881067 8.41458873 -25.10802285 2.8544565 -37.3515625 1.796875 C-50.91814098 1.51715173 -64.31561388 6.31561388 -74 16 Z M-61 140 C-61.3403125 140.71285156 -61.680625 141.42570313 -62.03125 142.16015625 C-70.09577464 158.09617169 -83.83209974 162.85880368 -99.8125 168.5625 C-110.64254863 172.44756506 -120.9332429 176.61803439 -126.21484375 187.50390625 C-131.12649345 199.79177009 -130 211.70903151 -130 225 C-70.6 225 -11.2 225 50 225 C51.04333718 199.73409404 51.04333718 199.73409404 39.6875 178.3125 C31.41823321 171.7032924 20.3968139 168.48064344 10.5625 164.875 C-3.73992937 159.62430628 -12.25421846 153.88692023 -19 140 C-20.19625 140.309375 -21.3925 140.61875 -22.625 140.9375 C-35.80458266 143.80442017 -47.91177615 142.6810142 -61 140 Z " fill="#0f0" transform="translate(296,45)"/>
</svg>