<svg version="1.1" xmlns="http://www.w3.org/2000/svg" width="512px" height="512px" transform="rotate(0) scale(1, 1)">
<path d="M0 0 C1.35420228 -0.01041829 1.35420228 -0.01041829 2.73576218 -0.02104706 C5.74971905 -0.03928927 8.76288633 -0.02906038 11.77687073 -0.01878357 C13.94224129 -0.02584343 16.10760692 -0.03458872 18.27296448 -0.04489136 C24.14694764 -0.06738733 30.02066137 -0.06444503 35.8946712 -0.05556989 C40.80032493 -0.05045875 45.70592809 -0.05775361 50.61157662 -0.06504196 C62.18511157 -0.08204164 73.75851467 -0.07847433 85.33204651 -0.06175232 C97.26833494 -0.0448291 109.20425771 -0.06066842 121.14050621 -0.0929752 C131.39294433 -0.11967237 141.64526865 -0.12694677 151.89773804 -0.11846012 C158.01919263 -0.11353155 164.1404272 -0.11574308 170.26185417 -0.13624763 C176.01825749 -0.15460658 181.77413487 -0.1486428 187.53050995 -0.12404823 C189.64121552 -0.11904118 191.75196117 -0.1225273 193.86263466 -0.13519669 C196.74805618 -0.15114432 199.6317494 -0.13615984 202.51708984 -0.11352539 C203.34891185 -0.12536112 204.18073385 -0.13719685 205.03776258 -0.14939123 C211.01334906 -0.0544015 215.25119329 1.60800293 219.82203674 5.5146637 C223.44470858 10.18794529 224.95314614 14.98634238 224.93556213 20.82423401 C224.9354866 21.66480347 224.93541107 22.50537292 224.93533325 23.37141418 C224.93017197 24.26946777 224.92501068 25.16752136 224.91969299 26.0927887 C224.91757057 27.48264984 224.91757057 27.48264984 224.91540527 28.90058899 C224.90981498 31.85531362 224.89726425 34.80996203 224.88453674 37.7646637 C224.87952049 39.76987093 224.8749578 41.77507936 224.87086487 43.7802887 C224.85984873 48.69177632 224.84259074 53.60320709 224.82203674 58.5146637 C226.57580627 58.50378723 226.57580627 58.50378723 228.36500549 58.49269104 C229.91318195 58.48682674 231.46135909 58.48113944 233.00953674 58.4756012 C234.16292542 58.46774597 234.16292542 58.46774597 235.33961487 58.45973206 C245.14898904 58.43341936 252.16163582 60.01447883 259.82203674 66.5146637 C266.79660317 74.06620156 267.11645622 82.01517546 267.09619141 91.8997345 C267.10142808 93.15962307 267.10666476 94.41951164 267.11206013 95.71757865 C267.12621598 99.20782421 267.12790388 102.69798062 267.12746322 106.18825078 C267.12911356 109.95526161 267.14218408 113.72223595 267.15365601 117.48922729 C267.17648792 125.72275142 267.18442459 133.95624973 267.18948245 142.18980122 C267.19274141 147.33279872 267.19926507 152.47578876 267.20648384 157.61878204 C267.22604699 171.86422611 267.24245301 186.10966325 267.24536037 200.35512161 C267.24554794 201.26638714 267.24573551 202.17765267 267.24592877 203.11653231 C267.24629501 204.96380631 267.24665871 206.81108031 267.24701988 208.65835431 C267.24720269 209.57531629 267.2473855 210.49227827 267.24757385 211.43702698 C267.24784468 212.81415275 267.24784468 212.81415275 267.24812097 214.21909925 C267.25166249 229.09473778 267.27868474 243.97023154 267.31607174 258.84581986 C267.35416789 274.12609354 267.37351794 289.4062954 267.37381989 304.68661761 C267.37440414 313.262889 267.38287568 321.83898766 267.41181755 330.41521454 C267.43634889 337.71794311 267.44360252 345.02043594 267.42857002 352.32319459 C267.42140834 356.04708769 267.42222585 359.77051544 267.44498062 363.49435616 C267.46944695 367.53713098 267.45491448 371.57885034 267.43676758 375.62165833 C267.44996755 376.79074022 267.46316751 377.95982211 267.47676748 379.16433072 C267.39072534 387.56641317 265.65887828 394.37486015 259.83225054 400.66156602 C252.45074642 407.67260327 245.70743552 408.96102188 235.83790588 408.94703674 C234.75423737 408.95722839 233.67056885 408.96742004 232.55406189 408.97792053 C228.98838602 409.0080051 225.42297902 409.01730982 221.85719299 409.02638245 C219.37854116 409.04323244 216.89989786 409.06138311 214.42126465 409.08078003 C207.9095374 409.12825103 201.39784474 409.1580794 194.88600159 409.18421936 C188.23635144 409.21244424 181.58682406 409.26056482 174.93727112 409.30567932 C161.89892447 409.3916796 148.8605489 409.45960725 135.82203674 409.5146637 C137.24762148 411.10173779 138.67365255 412.68841097 140.09986877 414.2749176 C140.89394135 415.15853973 141.68801392 416.04216187 142.50614929 416.95256042 C145.532426 420.30057867 148.60714002 423.60047724 151.69703674 426.8896637 C156.86630536 432.4103366 162.00113757 437.95962101 167.09938049 443.5459137 C169.0155546 445.64214512 170.94731048 447.72277687 172.88844299 449.7959137 C177.53830441 454.76713059 182.16276982 459.76524828 186.57203674 464.9521637 C187.20625549 465.69337463 187.84047424 466.43458557 188.49391174 467.19825745 C190.24844457 470.25836911 190.34281425 472.03533121 189.82203674 475.5146637 C188.48646545 478.16419029 188.48646545 478.16419029 185.82203674 480.5146637 C182.13923179 481.28519932 178.48868534 481.18849331 174.73805237 481.14958191 C173.02206722 481.16128184 173.02206722 481.16128184 171.27141571 481.17321813 C168.09540942 481.1897291 164.92035608 481.18376387 161.74437332 481.16828704 C158.31960688 481.15698939 154.89497078 481.17442826 151.4702301 481.18818665 C144.76098652 481.21044077 138.05202233 481.20560834 131.34276772 481.19112344 C125.89092843 481.17983968 120.43916755 481.17829654 114.98731995 481.18374252 C114.21191565 481.18450869 113.43651135 481.18527485 112.63760996 481.18606424 C111.062479 481.18766283 109.48734806 481.1892839 107.91221714 481.19092719 C93.13596529 481.20519105 78.35986844 481.18878203 63.58364201 481.16192536 C50.90000845 481.13958596 38.21660367 481.14346591 25.53297424 481.16651917 C10.81025677 481.19326598 -3.9123248 481.2038177 -18.63506317 481.18845785 C-20.20445758 481.18686507 -21.77385201 481.18529322 -23.34324646 481.18374252 C-24.50155857 481.18258546 -24.50155857 481.18258546 -25.68327093 481.18140502 C-31.12969565 481.17708464 -36.57603429 481.18438179 -42.02244568 481.19614029 C-48.65825773 481.21015147 -55.293774 481.20639481 -61.92955208 481.17973657 C-65.31648669 481.16657932 -68.70292785 481.16147753 -72.08985901 481.17798233 C-75.75839663 481.19157597 -79.42553149 481.17459412 -83.09397888 481.14958191 C-84.16906456 481.16073552 -85.24415024 481.17188913 -86.35181427 481.18338072 C-93.53649335 481.08787243 -93.53649335 481.08787243 -96.82774353 478.14685631 C-98.58846787 474.71440342 -98.98609056 473.33490187 -98.17796326 469.5146637 C-94.73020955 463.91076189 -90.1125272 459.24126435 -85.36546326 454.72950745 C-82.80128776 452.13327975 -80.43830798 449.3949493 -78.04710388 446.63990784 C-75.08639 443.27352665 -72.00745301 440.02208851 -68.92796326 436.7646637 C-64.30087151 431.84805559 -59.68190524 426.92522879 -55.11546326 421.9521637 C-54.29948669 421.06399963 -53.48351013 420.17583557 -52.64280701 419.26075745 C-50.74107674 417.14203102 -48.87375489 415.0064478 -47.02391052 412.84303284 C-46.48927689 412.21812454 -45.95464325 411.59321625 -45.40380859 410.94937134 C-44.99927963 410.47591782 -44.59475067 410.00246429 -44.17796326 409.5146637 C-44.74080961 409.51411893 -45.30365597 409.51357416 -45.88355827 409.51301289 C-59.61509108 409.49800825 -73.34629654 409.45509947 -87.07765007 409.38257313 C-93.71827517 409.34833305 -100.35853446 409.32319774 -106.99925232 409.31910706 C-113.41205711 409.31481784 -119.82434479 409.28630192 -126.23698807 409.24123192 C-128.67926645 409.22827709 -131.12160678 409.22394204 -133.56391525 409.2285099 C-136.99425836 409.23342986 -140.42309827 409.20725839 -143.85325623 409.17408752 C-144.85523544 409.18271317 -145.85721466 409.19133881 -146.88955688 409.20022583 C-154.80288841 409.07257721 -161.43079212 406.97742106 -167.33099174 401.52505207 C-174.80735141 393.62588332 -175.61944416 386.52792846 -175.56564331 376.00260925 C-175.57102885 374.74116069 -175.57641439 373.47971213 -175.58196312 372.18003786 C-175.59639568 368.69006796 -175.59217996 365.20033467 -175.58479631 361.71035194 C-175.58006145 357.94201069 -175.59257733 354.17372038 -175.60281372 350.40539551 C-175.62000117 343.02719005 -175.62084181 335.64906976 -175.61560082 328.27084948 C-175.61155759 322.27280073 -175.6130045 316.27477713 -175.61834908 310.27672958 C-175.6190975 309.4226899 -175.61984592 308.56865021 -175.62061702 307.68873053 C-175.62214852 305.95367984 -175.62368686 304.21862916 -175.62523199 302.48357849 C-175.63895697 286.21596119 -175.63351948 269.948392 -175.62204678 253.68077581 C-175.61211559 238.80454242 -175.62505307 223.92843343 -175.64898097 209.05221923 C-175.67337511 193.77078352 -175.68297899 178.48940574 -175.67632824 163.20795095 C-175.67283657 154.63120302 -175.67506461 146.05455074 -175.69257927 137.47781754 C-175.70730524 130.1761957 -175.70793163 122.87473687 -175.69050836 115.57311822 C-175.68199895 111.84941253 -175.67984705 108.12599798 -175.69515991 104.40230751 C-175.71157066 100.3615311 -175.69685318 96.32145636 -175.6791687 92.28068542 C-175.68877371 91.10937281 -175.69837871 89.9380602 -175.70827478 88.73125327 C-175.6275567 79.76673069 -173.69124012 72.02794056 -167.17796326 65.5146637 C-157.0837835 57.46279473 -145.42338214 58.2411928 -133.17796326 58.5146637 C-133.13929138 57.5536676 -133.13929138 57.5536676 -133.09983826 56.57325745 C-132.69824869 50.44901656 -131.85277431 46.48062458 -128.17796326 41.5146637 C-123.91658753 38.20992334 -120.49370718 36.38749885 -115.09674072 36.39440918 C-113.85367409 36.39234718 -113.85367409 36.39234718 -112.585495 36.39024353 C-111.67990845 36.39383881 -110.7743219 36.39743408 -109.84129333 36.40113831 C-108.40686134 36.40091927 -108.40686134 36.40091927 -106.94345093 36.4006958 C-103.77810916 36.40139326 -100.61282601 36.40917789 -97.44749451 36.41700745 C-95.25459831 36.41887222 -93.06170169 36.42029584 -90.86880493 36.42129517 C-85.0934891 36.42511568 -79.31819836 36.43494202 -73.54289246 36.44599915 C-67.65107055 36.45622326 -61.7592446 36.46079493 -55.86741638 36.46583557 C-44.30425431 36.47656468 -32.74111087 36.49363554 -21.17796326 36.5146637 C-21.20414734 35.82952698 -21.23033142 35.14439026 -21.25730896 34.43849182 C-21.36202788 31.29745437 -21.42652474 28.15678528 -21.49046326 25.0146637 C-21.55330505 23.39817932 -21.55330505 23.39817932 -21.61741638 21.7490387 C-21.70985907 15.68479816 -21.28585289 11.34466602 -17.94432068 6.21583557 C-12.37273109 0.84985959 -7.43132172 -0.07342436 0 0 Z M-4.17796326 17.5146637 C-4.17796326 23.7846637 -4.17796326 30.0546637 -4.17796326 36.5146637 C-1.05891541 36.52924622 2.06013245 36.54382874 5.2736969 36.55885315 C15.57953522 36.60919222 25.88522235 36.67578625 36.19091225 36.75037861 C42.43919714 36.79510418 48.68741649 36.83435572 54.93580627 36.86109924 C60.96595496 36.88711005 66.99585174 36.92749727 73.02584457 36.97784996 C75.32629132 36.99453361 77.62678165 37.00603853 79.92728043 37.0122776 C83.14979199 37.0219021 86.37165691 37.04994278 89.5940094 37.08229065 C91.02036713 37.08013802 91.02036713 37.08013802 92.47554016 37.07794189 C98.39196222 37.16192162 102.91106551 37.85952604 107.46656799 42.0146637 C110.82156915 46.32342773 111.94177646 49.15247238 111.98025513 54.54498291 C111.99004395 55.58404785 111.99983276 56.62311279 112.00991821 57.69366455 C112.01567368 58.83301956 112.02142914 59.97237457 112.02735901 61.14625549 C112.03725861 62.34638275 112.0471582 63.54651001 112.05735779 64.78300476 C112.08355057 68.07403917 112.10541053 71.36504925 112.12535977 74.65612388 C112.14722714 78.09547266 112.17461216 81.53477736 112.20141602 84.97409058 C112.25133275 91.48696293 112.29627536 97.99985977 112.33943838 104.51278001 C112.38881946 111.92748968 112.44373436 119.34215511 112.49911797 126.75682199 C112.61292238 142.00939502 112.71976477 157.26200872 112.82203674 172.5146637 C113.84058746 172.56015854 114.85913818 172.60565338 115.90855408 172.65252686 C117.26434569 172.72478539 118.62010806 172.79759393 119.97584534 172.87086487 C120.97937294 172.91349079 120.97937294 172.91349079 122.00317383 172.95697784 C128.4958317 173.32848658 132.99833132 175.47941559 138.44703674 178.8271637 C139.36001526 179.35535706 140.27299377 179.88355042 141.21363831 180.42774963 C143.12231655 181.53476994 145.02402253 182.65389516 146.91871643 183.78468323 C150.83599022 186.11884082 154.79046977 188.3854149 158.74928284 190.64820862 C160.60297143 191.70972671 162.45242412 192.7786831 164.2971344 193.85572815 C165.12519592 194.33614563 165.95325745 194.81656311 166.80641174 195.3115387 C167.53569885 195.73789612 168.26498596 196.16425354 169.01637268 196.60353088 C170.7825433 197.66482834 170.7825433 197.66482834 172.82203674 197.5146637 C172.89551331 195.65261292 172.89551331 195.65261292 172.97047424 193.75294495 C173.04553473 192.11099675 173.12108114 190.46907072 173.19703674 188.8271637 C173.22797424 188.0105426 173.25891174 187.19392151 173.29078674 186.35255432 C173.49913676 182.0640165 173.71244063 178.36202064 175.82203674 174.5146637 C178.60374749 173.12380832 180.96332854 173.33326209 184.07203674 173.26856995 C185.94375549 173.21926331 185.94375549 173.21926331 187.85328674 173.16896057 C190.49903265 173.10776468 193.14487174 173.05047264 195.79078674 172.99708557 C197.03859924 172.96292542 198.28641174 172.92876526 199.57203674 172.89356995 C200.72188049 172.86851379 201.87172424 172.84345764 203.05641174 172.81764221 C205.96275564 172.79120978 205.96275564 172.79120978 207.82203674 170.5146637 C208.1303351 167.77688105 208.1303351 167.77688105 208.08273315 164.5171051 C208.08981796 163.23829468 208.09690277 161.95948425 208.10420227 160.641922 C208.10190824 159.21668971 208.09939852 157.79145776 208.09669495 156.3662262 C208.10104006 154.87165573 208.10622254 153.37708749 208.11218262 151.88252258 C208.12560458 147.81649572 208.12614782 143.75056162 208.12361932 139.68451691 C208.1225519 136.29460967 208.127427 132.90472138 208.13222474 129.51481819 C208.14333069 121.52061174 208.14375103 113.52645227 208.13771057 105.53224182 C208.1316668 97.27404819 208.14398948 89.01602477 208.16528064 80.75786018 C208.18286859 73.6767321 208.18890251 66.59565834 208.1856429 59.5145092 C208.18382561 55.28121694 208.18651041 51.04804613 208.20035744 46.81477356 C208.21288592 42.83552938 208.21103937 38.85655155 208.19794655 34.87731171 C208.19557039 33.41394717 208.19835239 31.95056416 208.20656967 30.48722076 C208.21695023 28.49557869 208.20718274 26.50386145 208.19625854 24.51222229 C208.19642629 23.39576324 208.19659403 22.2793042 208.19676685 21.12901306 C208.07310592 20.26627777 207.94944498 19.40354248 207.82203674 18.5146637 C204.02706966 15.98468564 201.01151269 16.23899998 196.61621094 16.26742554 C195.76976346 16.26501112 194.92331597 16.26259671 194.05121857 16.26010913 C191.20448335 16.25445681 188.357971 16.26314679 185.51124573 16.27174377 C183.4746647 16.27067128 181.43808398 16.26873309 179.40150452 16.26599121 C173.86243832 16.26113482 168.32345242 16.26880825 162.78439593 16.27894425 C156.99706278 16.2877109 151.20973224 16.28596759 145.4223938 16.2855835 C135.70346224 16.28652071 125.98456185 16.29521275 116.26564026 16.30885315 C105.0156321 16.32458368 93.76565809 16.32985113 82.51563972 16.3291176 C71.70930533 16.32850805 60.90298211 16.33360647 50.09665108 16.34190941 C45.49021887 16.34544756 40.88379061 16.34727342 36.2773571 16.34780312 C30.85771553 16.34880487 25.43810282 16.35488774 20.01847076 16.36496925 C18.02457671 16.3678994 16.03067934 16.36911859 14.03678322 16.36854172 C11.32478404 16.36805385 8.61286673 16.37367876 5.90087891 16.38095093 C4.70454752 16.37862802 4.70454752 16.37862802 3.48404783 16.37625819 C-0.47627209 16.30935186 -0.47627209 16.30935186 -4.17796326 17.5146637 Z M-116.17796326 54.5146637 C-116.27900996 56.47166504 -116.30873701 58.43236167 -116.31167603 60.39196777 C-116.31594101 61.66940353 -116.32020599 62.94683929 -116.32460022 64.26298523 C-116.32425066 65.69184879 -116.3237891 67.12071232 -116.32322693 68.54957581 C-116.32621679 70.04399704 -116.32961892 71.53841749 -116.33340454 73.03283691 C-116.34226632 77.10303422 -116.34458356 81.17321053 -116.34522033 85.24341655 C-116.34616762 88.63575355 -116.34984383 92.0280856 -116.35339242 95.42042071 C-116.36154525 103.4208317 -116.3639759 111.42123144 -116.36326599 119.42164612 C-116.36266497 127.68716419 -116.37321981 135.95261705 -116.38900965 144.21811861 C-116.40206498 151.30346483 -116.40745074 158.38878969 -116.40681058 165.47414786 C-116.406555 169.71078471 -116.40943902 173.94736365 -116.41998863 178.18398857 C-116.42963595 182.16726975 -116.4297721 186.15043724 -116.422472 190.13372231 C-116.42142195 191.59869934 -116.4238138 193.06368333 -116.42983246 194.52864838 C-116.43749586 196.52254345 -116.43173401 198.51647688 -116.42520142 200.51037598 C-116.42574618 201.62813384 -116.42629095 202.7458917 -116.42685223 203.89752102 C-116.44315908 206.67412609 -116.44315908 206.67412609 -114.17796326 208.5146637 C-111.31393879 208.83763497 -111.31393879 208.83763497 -107.96311951 208.82325745 C-106.71981873 208.84839417 -105.47651794 208.87353088 -104.19554138 208.89942932 C-101.56277744 208.93453284 -98.92995942 208.96579449 -96.29710388 208.99317932 C-95.05251404 209.0196051 -93.80792419 209.04603088 -92.52561951 209.07325745 C-91.38101257 209.08671204 -90.23640564 209.10016663 -89.05711365 209.11402893 C-86.17796326 209.5146637 -86.17796326 209.5146637 -84.34373474 210.79225159 C-82.21696114 213.93453175 -82.04718189 217.13029112 -81.86155701 220.8427887 C-81.81966248 221.64200745 -81.77776794 222.4412262 -81.73460388 223.2646637 C-81.69528748 224.0896637 -81.65597107 224.9146637 -81.61546326 225.7646637 C-81.55068787 227.02536682 -81.55068787 227.02536682 -81.48460388 228.3115387 C-81.37887783 230.3790704 -81.2779503 232.4468465 -81.17796326 234.5146637 C-73.49491848 230.34147102 -65.83868355 226.12150368 -58.19700623 221.87306213 C-56.41627321 220.88316528 -54.63503152 219.89418825 -52.85374451 218.9052887 C-51.70776794 218.26849182 -50.56179138 217.63169495 -49.38108826 216.9756012 C-47.84436462 216.12167786 -47.84436462 216.12167786 -46.27659607 215.25050354 C-43.14122151 213.56963776 -43.14122151 213.56963776 -40.28456116 211.43930054 C-34.99736002 208.44402977 -29.29350915 208.95202016 -23.37376404 208.9846344 C-22.0966304 208.97590302 -20.81949677 208.96717163 -19.50366211 208.95817566 C-16.01847825 208.93466412 -12.53367005 208.93528443 -9.04842615 208.94009042 C-5.39865174 208.9406853 -1.74902582 208.91797318 1.90068054 208.89752197 C8.80537804 208.86217075 15.70997039 208.84610374 22.61474812 208.8377468 C32.76673764 208.82475781 42.91864041 208.78654235 53.07054329 208.74364758 C54.18589402 208.73893954 54.18589402 208.73893954 55.32377708 208.7341364 C56.80562615 208.72785713 58.28747495 208.72151359 59.76932347 208.71510381 C64.11692164 208.69700677 68.46446781 208.68592422 72.81210017 208.68080676 C74.8600625 208.67790417 76.90800731 208.67289792 78.95596313 208.66703796 C81.45794931 208.66017484 83.95994923 208.65701863 86.46194458 208.65811157 C88.10221367 208.6520993 88.10221367 208.6520993 89.77561951 208.64596558 C90.73164503 208.6447083 91.68767056 208.64345102 92.67266655 208.64215565 C94.80357452 208.75445825 94.80357452 208.75445825 95.82203674 207.5146637 C95.91874474 205.52771518 95.94390726 203.53727356 95.94229126 201.54797363 C95.94366592 200.25081924 95.94504059 198.95366486 95.94645691 197.61720276 C95.94291729 196.1662748 95.93928247 194.71534707 95.93556213 193.26441956 C95.93528027 191.74704999 95.93543798 190.22968028 95.93600464 188.71231079 C95.93629265 184.58025854 95.93039532 180.44823506 95.92343068 176.31618953 C95.91719777 172.00267477 95.91659339 167.68915943 95.91540527 163.37564087 C95.91229177 155.20166253 95.90407813 147.02769749 95.89405578 138.85372502 C95.88289523 129.55037401 95.87738434 120.24702237 95.87236035 110.94366634 C95.86189554 91.8006579 95.84429573 72.65766187 95.82203674 53.5146637 C68.32832582 53.49133821 40.83461637 53.47368625 13.34089756 53.46285152 C0.57606234 53.45768782 -12.18876674 53.45064371 -24.95359802 53.43922424 C-36.07503913 53.42927967 -47.19647579 53.42281081 -58.31792122 53.4205752 C-64.21058423 53.41926771 -70.10323453 53.41617943 -75.99589348 53.40893364 C-81.53531742 53.402177 -87.07472333 53.400046 -92.614151 53.40155602 C-94.65361695 53.40127953 -96.69308346 53.3992723 -98.73254585 53.39545822 C-101.50416409 53.39052653 -104.27571312 53.39166346 -107.04733276 53.39440918 C-107.86541001 53.39149634 -108.68348726 53.3885835 -109.52635473 53.38558239 C-113.15035494 53.05327149 -113.15035494 53.05327149 -116.17796326 54.5146637 Z M-156.82191944 80.00005722 C-158.98444103 84.01017159 -158.57950602 88.00265314 -158.53872681 92.48664856 C-158.54129486 93.50848236 -158.54386292 94.53031616 -158.54650879 95.58311462 C-158.55148627 99.02822921 -158.53488485 102.4729092 -158.51853943 105.91798401 C-158.51762074 108.42154807 -158.51802036 110.9251129 -158.5196352 113.42867661 C-158.52024482 119.4636258 -158.50737309 125.49840596 -158.48813121 131.53331284 C-158.46654181 138.51326551 -158.46414756 145.49317127 -158.46177673 152.47315979 C-158.44602197 170.90368232 -158.40413867 189.33417501 -158.36546326 207.7646637 C-158.30358826 248.9321637 -158.24171326 290.0996637 -158.17796326 332.5146637 C-23.53796326 332.5146637 111.10203674 332.5146637 249.82203674 332.5146637 C249.90453674 291.3677887 249.98703674 250.2209137 250.07203674 207.8271637 C250.10845276 194.8209259 250.14486877 181.81468811 250.18238831 168.4143219 C250.19576362 156.78525755 250.19576362 156.78525755 250.20381165 145.15618896 C250.20754775 139.96466792 250.22224535 134.7733131 250.24433899 129.58184814 C250.27245145 122.96634589 250.28001416 116.35103457 250.27432585 109.73546064 C250.27551589 107.30348425 250.28348827 104.87149984 250.29889727 102.43957198 C250.31870665 99.16171218 250.31402949 95.88478292 250.30305481 92.60690308 C250.31470547 91.6490047 250.32635612 90.69110632 250.33835983 89.70418072 C250.29995569 85.4551534 250.2126967 83.14471318 247.93137741 79.4654417 C243.27042484 75.15486072 238.60664534 75.24799719 232.50953674 75.3896637 C231.76897034 75.39868713 231.02840393 75.40771057 230.26539612 75.41700745 C228.45080207 75.44042156 226.63637603 75.47628754 224.82203674 75.5146637 C224.8161705 76.71212219 224.81030426 77.90958069 224.80426025 79.14332581 C224.74698101 90.44296441 224.67419197 101.74241153 224.58632183 113.04185486 C224.5416454 118.85064805 224.50238306 124.65937154 224.4756012 130.46827698 C224.44954131 136.0769934 224.4091194 141.68544123 224.35885048 147.29399109 C224.34220002 149.43089958 224.33067443 151.56785451 224.32442284 153.70481873 C224.31476213 156.70421834 224.2866786 159.7029336 224.25440979 162.7021637 C224.25584488 163.58042313 224.25727997 164.45868256 224.25875854 165.36355591 C224.15485037 172.21861637 222.92553728 177.73061887 218.69703674 183.3271637 C210.29179332 189.72245761 199.94649658 189.17756917 189.82203674 189.5146637 C189.80801819 190.76340271 189.80801819 190.76340271 189.79371643 192.03736877 C189.74967309 195.12968658 189.688049 198.22101316 189.61451721 201.3127594 C189.57245026 203.30755501 189.5506581 205.30274451 189.52906799 207.29786682 C189.49684143 208.5514801 189.46461487 209.80509338 189.43141174 211.09669495 C189.39999084 212.83269958 189.39999084 212.83269958 189.36793518 214.60377502 C188.82203674 217.5146637 188.82203674 217.5146637 186.97364807 219.38014221 C183.77253367 221.06805537 181.28565592 221.29957027 177.82203674 220.5146637 C173.83174009 218.77437149 170.13127852 216.59849867 166.38453674 214.3896637 C165.30011292 213.76599915 164.21568909 213.14233459 163.09840393 212.49977112 C160.24195428 210.85275528 157.39358445 209.19287238 154.54914856 207.52522278 C151.7119784 205.86515187 148.86600121 204.2203022 146.02125549 202.57325745 C129.60067591 193.04660916 129.60067591 193.04660916 126.38160706 190.84742737 C123.35113241 189.26946466 121.40018745 189.20461006 118.00953674 189.3271637 C117.03371643 189.35423401 116.05789612 189.38130432 115.05250549 189.40919495 C114.31645081 189.44399963 113.58039612 189.47880432 112.82203674 189.5146637 C112.81792786 190.16950745 112.81381897 190.8243512 112.80958557 191.4990387 C112.7764146 194.50512507 112.70574649 197.5092473 112.63453674 200.5146637 C112.62583557 202.0596051 112.62583557 202.0596051 112.61695862 203.63575745 C112.42135939 210.45999731 111.36473793 215.27470678 106.82203674 220.5146637 C102.2690944 223.9571323 98.21798753 224.65053757 92.61190796 224.57867432 C91.55711243 224.5682309 90.50231689 224.55778748 89.41555786 224.54702759 C88.26296982 224.53078842 87.11038177 224.51454926 85.92286682 224.49781799 C83.3959209 224.47171469 80.86896835 224.44624766 78.3420105 224.42132568 C77.67667065 224.41413273 77.01133081 224.40693978 76.32582915 224.39952886 C67.74777719 224.30821463 59.16941542 224.29087209 50.59095538 224.26860178 C42.26086513 224.24639849 33.93240226 224.20240878 25.6030426 224.0861969 C18.97391946 223.99384649 12.34659358 223.9530637 5.71681899 223.96906215 C2.22066187 223.97570016 -1.27134935 223.95918179 -4.76669884 223.87981224 C-24.27965292 223.45803157 -37.44783279 226.94562449 -53.72024155 237.8771019 C-56.95021709 240.02921072 -60.27787428 241.9338113 -63.65843201 243.83888245 C-65.5622298 244.95750521 -67.46468197 246.07842288 -69.36546326 247.2021637 C-86.43246878 257.27651561 -86.43246878 257.27651561 -94.17796326 256.5146637 C-95.88426208 255.39234924 -95.88426208 255.39234924 -97.17796326 253.5146637 C-97.6103363 250.60377502 -97.6103363 250.60377502 -97.68968201 247.09669495 C-97.72513123 245.84308167 -97.76058044 244.58946838 -97.79710388 243.29786682 C-97.83094177 241.33236877 -97.83094177 241.33236877 -97.86546326 239.3271637 C-97.89863992 237.99184357 -97.93312992 236.65655538 -97.96897888 235.32130432 C-98.05158383 232.05250865 -98.12069555 228.78398558 -98.17796326 225.5146637 C-100.09608826 225.45858948 -100.09608826 225.45858948 -102.05296326 225.40138245 C-103.76132366 225.33567628 -105.46965573 225.26923058 -107.17796326 225.2021637 C-108.43673279 225.16832581 -108.43673279 225.16832581 -109.72093201 225.13380432 C-115.71826461 224.87810409 -121.94956437 224.28260019 -126.70481873 220.20558167 C-131.08390813 215.32212774 -132.42031589 210.12334659 -132.45643616 203.70597839 C-132.46759964 202.57023376 -132.47876312 201.43448914 -132.49026489 200.264328 C-132.49242508 199.0329007 -132.49458527 197.80147339 -132.49681091 196.5327301 C-132.50685654 195.22487549 -132.51690216 193.91702087 -132.5272522 192.5695343 C-132.55448261 188.99563577 -132.56968086 185.42177651 -132.58268023 181.84780169 C-132.59834133 178.10815983 -132.62512202 174.36859779 -132.65071106 170.62901306 C-132.69744619 163.55313271 -132.73421573 156.47723725 -132.76738393 149.40128171 C-132.80564259 141.34320539 -132.85504292 133.28520934 -132.90536809 125.22720075 C-133.0086096 108.65641277 -133.09789522 92.0855802 -133.17796326 75.5146637 C-135.72028668 75.43314026 -138.25995528 75.37392654 -140.80296326 75.3271637 C-141.8722406 75.28945862 -141.8722406 75.28945862 -142.96311951 75.25099182 C-148.52558813 75.17444409 -152.55338447 76.14323046 -156.82191944 80.00005722 Z M-158.17796326 349.5146637 C-161.92613354 381.89663821 -161.92613354 381.89663821 -154.17796326 390.5146637 C-151.33521297 391.93603884 -148.94159339 391.64414267 -145.7613554 391.64888477 C-145.09194971 391.651237 -144.42254403 391.65358923 -143.73285332 391.65601274 C-141.46768904 391.66272176 -139.20258186 391.66224395 -136.93740845 391.66183472 C-135.30582396 391.66513215 -133.67424029 391.66885746 -132.04265767 391.6729762 C-127.54180498 391.68301788 -123.04096563 391.68671646 -118.54010332 391.68936551 C-113.69268434 391.69326211 -108.84527598 391.70284082 -103.99786377 391.71157837 C-92.2833353 391.73136028 -80.56880594 391.74141084 -68.85426494 391.75030616 C-63.34245161 391.75468593 -57.83063924 391.76005352 -52.31882668 391.76529503 C-34.0048184 391.78230847 -15.69081073 391.79680396 2.62320423 391.80404377 C7.37803969 391.80595377 12.13287514 391.80787409 16.88771057 391.80982971 C18.06955147 391.81031345 19.25139236 391.81079719 20.46904662 391.81129559 C39.62588939 391.81960078 58.78266982 391.84494543 77.93948535 391.87741039 C97.59161973 391.91044424 117.24372239 391.92848917 136.89588469 391.93168801 C147.93627295 391.93385644 158.97657027 391.9426537 170.01693153 391.96814919 C179.41691584 391.98980599 188.81678715 391.9979314 198.21679357 391.9881824 C203.01537166 391.98362319 207.81371633 391.98561766 212.61226273 392.00494385 C217.00239841 392.02247296 221.39212863 392.02166187 225.78226801 392.00604656 C227.37313946 392.00365481 228.96403824 392.00807454 230.55486772 392.01987521 C232.71304431 392.03489683 234.86976602 392.02539147 237.02790546 392.00964832 C238.82786235 392.01111354 238.82786235 392.01111354 240.66418201 392.01260835 C244.45507465 391.41484345 246.10727031 390.17380655 248.82203674 387.5146637 C254.48870341 376.18133036 249.82203674 362.18571557 249.82203674 349.5146637 C115.18203674 349.5146637 -19.45796326 349.5146637 -158.17796326 349.5146637 Z M-27.17796326 416.5146637 C-28.35539929 417.85747857 -29.53704064 419.1966305 -30.72483826 420.5302887 C-31.29395935 421.19093323 -31.86308044 421.85157776 -32.44944763 422.53224182 C-35.35179314 425.86092056 -38.39441951 429.0559317 -41.42796326 432.2646637 C-47.73485891 438.96442493 -53.97828828 445.71562437 -60.17796326 452.5146637 C-61.1437422 453.5644805 -62.10989425 454.61395418 -63.07640076 455.6631012 C-64.00615791 456.6760581 -64.93584786 457.68907669 -65.86546326 458.7021637 C-66.69433044 459.60321838 -67.52319763 460.50427307 -68.37718201 461.43263245 C-70.28699224 463.18192835 -70.28699224 463.18192835 -70.17796326 464.5146637 C6.38203674 464.5146637 82.94203674 464.5146637 161.82203674 464.5146637 C154.12785745 455.53812119 146.20032902 446.8216192 138.12355042 438.19117737 C134.44069768 434.25443738 130.77352053 430.30449368 127.13453674 426.3271637 C125.89681015 425.03148216 125.89681015 425.03148216 124.63407898 423.70962524 C122.71870141 421.63369079 121.41036165 419.83305537 119.92462158 417.37312317 C116.69726273 412.57901245 113.80860103 409.25266431 108.0349617 407.82595825 C99.96798189 406.76589159 91.8391027 406.90701708 83.71937394 407.03448391 C80.13036286 407.08011774 76.54154988 407.06328425 72.95233154 407.05549622 C66.9306777 407.05197704 60.9108361 407.0960203 54.8896637 407.16993713 C47.94459392 407.25471178 41.00216983 407.26861864 34.05668718 407.2436893 C27.3495695 407.2208557 20.64337614 407.24355664 13.93639183 407.28838348 C11.09312904 407.30688015 8.25043559 407.31050214 5.40712929 407.3020401 C1.43352017 407.29305626 -2.53760684 407.35112656 -6.51072693 407.41603088 C-7.68027924 407.40612122 -8.84983154 407.39621155 -10.05482483 407.38600159 C-18.43422311 407.604072 -22.06400127 409.99916768 -27.17796326 416.5146637 Z " fill="#00ff00" transform="translate(210.17796325683594,15.485336303710938)"/>
<path d="M0 0 C7.85033359 6.44170518 13.14971894 13.8134559 14.54081726 24.05819702 C14.97934016 28.65301112 14.93464422 33.26679081 14.953125 37.87890625 C14.95882507 38.98676987 14.96452515 40.09463348 14.97039795 41.23606873 C14.97981243 43.57004857 14.98636774 45.90404148 14.99023438 48.23803711 C14.99997707 51.80410766 15.03104959 55.36961043 15.0625 58.93554688 C15.06902733 61.20832993 15.07427886 63.48111708 15.078125 65.75390625 C15.0904718 66.8165419 15.1028186 67.87917755 15.11553955 68.97401428 C15.09914539 74.4258713 15.02038825 78.63651803 11.75 83.25 C8.4375 84.8125 8.4375 84.8125 4.75 85.25 C-0.77272727 83.20454545 -0.77272727 83.20454545 -2.25 80.25 C-2.33471364 78.43658158 -2.35721083 76.62005839 -2.34765625 74.8046875 C-2.34515869 73.83515137 -2.34266113 72.86561523 -2.34008789 71.86669922 C-2.33098389 70.63193848 -2.32187988 69.39717773 -2.3125 68.125 C-2.291875 64.20625 -2.27125 60.2875 -2.25 56.25 C-13.47 56.25 -24.69 56.25 -36.25 56.25 C-36.13173549 63.26537143 -36.13173549 63.26537143 -35.97973633 70.2800293 C-35.90097514 79.53912648 -35.90097514 79.53912648 -39.25 83.25 C-42.92017231 84.81322154 -45.15690908 85.5172 -49.0625 84.5625 C-51.25 83.25 -51.25 83.25 -53.25 80.25 C-53.51742554 77.67869568 -53.51742554 77.67869568 -53.54052734 74.56030273 C-53.5596669 72.80719032 -53.5596669 72.80719032 -53.57919312 71.0186615 C-53.58141876 69.75308914 -53.58364441 68.48751678 -53.5859375 67.18359375 C-53.5959227 65.22789207 -53.5959227 65.22789207 -53.60610962 63.23268127 C-53.6180901 60.46783139 -53.62179017 57.70310643 -53.62060547 54.93823242 C-53.62040338 51.42013906 -53.64758581 47.90286356 -53.68214989 44.38496304 C-53.70995843 41.00533031 -53.70857401 37.62583906 -53.7109375 34.24609375 C-53.72530853 32.99469101 -53.73967957 31.74328827 -53.75448608 30.45396423 C-53.69431829 18.81001878 -50.81212692 10.90616786 -42.7578125 2.453125 C-31.00651126 -7.87044805 -12.84923713 -9.11881344 0 0 Z M-34.25 18.5 C-37.28481867 24.848714 -37.28481867 24.848714 -36.25 39.25 C-25.03 39.25 -13.81 39.25 -2.25 39.25 C-1.80472339 27.12008935 -1.80472339 27.12008935 -6.4375 17 C-10.48871177 13.03881516 -14.09314969 11.52450822 -19.6875 10.8125 C-25.71279764 11.55244883 -30.44212949 13.63797325 -34.25 18.5 Z " fill="#00ff00" transform="translate(203.25,106.75)"/>
<path d="M0 0 C0.7233842 -0.00694553 1.44676841 -0.01389106 2.19207335 -0.02104706 C4.61668421 -0.03934765 7.04031998 -0.02904492 9.46496582 -0.01878357 C11.20289341 -0.02584049 12.94081484 -0.03458455 14.6787262 -0.04489136 C19.39978218 -0.06741947 24.12050347 -0.06443785 28.84159279 -0.05556989 C32.78068497 -0.05046528 36.71971397 -0.05774818 40.65879965 -0.06504196 C49.94955038 -0.08205149 59.24013691 -0.0784641 68.53088379 -0.06175232 C78.12179647 -0.04482395 87.71225427 -0.06067297 97.30311728 -0.0929752 C105.53337524 -0.11964666 113.76349139 -0.1269539 121.99378824 -0.11846012 C126.91128033 -0.11352447 131.82849856 -0.11578106 136.74595642 -0.13624763 C141.36886188 -0.15456682 145.99111132 -0.14869249 150.61398125 -0.12404823 C152.31193652 -0.11902859 154.00994146 -0.12255994 155.70785713 -0.13519669 C158.02352718 -0.15106964 160.3370216 -0.13623466 162.65258789 -0.11352539 C164.59715252 -0.11264593 164.59715252 -0.11264593 166.58100128 -0.1117487 C169.82629395 0.5146637 169.82629395 0.5146637 172.24340057 2.86642551 C174.19306168 6.12827946 174.449858 7.77327939 173.82629395 11.5146637 C172.24340057 14.16290188 172.24340057 14.16290188 169.82629395 16.5146637 C166.58100128 17.14107609 166.58100128 17.14107609 162.65258789 17.14285278 C161.56751158 17.15349436 161.56751158 17.15349436 160.46051455 17.16435093 C158.03567714 17.18195852 155.61243691 17.16381391 153.18762207 17.14576721 C151.44969451 17.15090502 149.71177215 17.15818525 147.97386169 17.16744995 C143.25271053 17.18598995 138.53212292 17.17300909 133.8109951 17.15335965 C128.87342021 17.13699324 123.93588159 17.14578324 118.99829102 17.15087891 C110.70600363 17.15540211 102.41394165 17.13951596 94.1217041 17.11158752 C84.5308337 17.0795346 74.94036988 17.07955062 65.34947062 17.09680229 C56.12834983 17.11265877 46.90737829 17.10593948 37.68626404 17.08886528 C33.75967951 17.08198754 29.83321435 17.08303464 25.90663147 17.09041023 C21.28377569 17.09806393 16.66138335 17.08597705 12.03860664 17.05856133 C10.34066201 17.05166676 8.64267418 17.05159098 6.94473076 17.05877686 C4.62930102 17.0674478 2.3153093 17.05155769 0 17.02932739 C-1.94456463 17.02511701 -1.94456463 17.02511701 -3.92841339 17.02082157 C-7.71167541 16.43075834 -8.89198004 15.52774584 -11.17370605 12.5146637 C-11.70495605 10.5146637 -11.70495605 10.5146637 -11.67370605 8.5146637 C-11.6891748 7.5246637 -11.6891748 7.5246637 -11.70495605 6.5146637 C-10.0909769 0.43850686 -5.55389164 0.01202532 0 0 Z " fill="#00ff00" transform="translate(226.1737060546875,281.48533630371094)"/>
<path d="M0 0 C0.95815613 -0.00861557 1.91631226 -0.01723114 2.90350342 -0.02610779 C6.07209252 -0.04881806 9.23980078 -0.04201918 12.40844727 -0.03295898 C14.61035933 -0.03819252 16.81226915 -0.044468 19.01417542 -0.05174255 C23.63016301 -0.0621563 28.24584253 -0.05757145 32.86181641 -0.04296875 C38.7782222 -0.02578468 44.69365652 -0.04926719 50.60995388 -0.08445835 C55.15760234 -0.10641615 59.70501781 -0.10499464 64.25270271 -0.09669304 C66.43400195 -0.09587254 68.61531812 -0.10275466 70.79656792 -0.11746407 C73.84675714 -0.13487834 76.8951939 -0.1203923 79.9453125 -0.09765625 C81.29750633 -0.11519455 81.29750633 -0.11519455 82.67701721 -0.13308716 C87.12022512 -0.06567967 88.97190969 0.0994584 92.60169983 2.88539124 C94.53735352 5.53344727 94.53735352 5.53344727 95.09985352 8.53344727 C94.41377695 12.19252231 93.11001038 13.88512402 90.53735352 16.53344727 C87.1516302 18.22630892 83.30209391 17.68986237 79.57714844 17.69458008 C78.18424339 17.70202744 78.18424339 17.70202744 76.76319885 17.70962524 C73.6813992 17.72426826 70.59965104 17.73105267 67.51782227 17.73657227 C65.38031512 17.74232226 63.242808 17.74808001 61.1053009 17.75384521 C56.61870075 17.7643615 52.13211856 17.77019996 47.64550781 17.77368164 C41.89520922 17.77916556 36.14514751 17.80318889 30.39492321 17.83165359 C25.9777202 17.85027414 21.56057429 17.85548528 17.14333534 17.85701752 C15.02343769 17.86004624 12.90354109 17.86808212 10.78368187 17.8812027 C7.8175186 17.89824967 4.85193451 17.89638606 1.88574219 17.88989258 C1.00918976 17.89910736 0.13263733 17.90832214 -0.77047729 17.91781616 C-5.48244223 17.88548858 -8.64841542 17.62366728 -12.46264648 14.53344727 C-14.02735881 11.40402261 -14.15966606 7.92262503 -13.46264648 4.53344727 C-9.94055107 -0.61045144 -5.69061827 -0.0411033 0 0 Z " fill="#00ff00" transform="translate(305.462646484375,250.466552734375)"/>
<path d="M0 0 C1.68734001 -0.01925285 1.68734001 -0.01925285 3.4087677 -0.03889465 C5.23996407 -0.04997505 5.23996407 -0.04997505 7.1081543 -0.0612793 C8.35864059 -0.06935104 9.60912689 -0.07742279 10.89750671 -0.08573914 C13.54808263 -0.09959 16.19853374 -0.11060341 18.84912109 -0.11816406 C22.23878054 -0.12922017 25.62778197 -0.16361025 29.01720905 -0.20333576 C32.25579215 -0.2358211 35.4944331 -0.24028268 38.7331543 -0.2487793 C40.55524162 -0.27504143 40.55524162 -0.27504143 42.41413879 -0.30183411 C43.54848862 -0.29890854 44.68283844 -0.29598297 45.8515625 -0.29296875 C47.34475761 -0.30176811 47.34475761 -0.30176811 48.86811829 -0.31074524 C52.38289607 0.31224741 54.06092535 1.74164922 56.61987305 4.17700195 C58.06418159 7.06561905 57.9967581 8.97347897 57.61987305 12.17700195 C55.96944745 14.76137091 55.23741634 15.74746812 52.61987305 17.17700195 C48.21923771 17.9407001 43.85820177 17.8771802 39.40112305 17.84106445 C37.46517273 17.8482399 37.46517273 17.8482399 35.4901123 17.8555603 C32.76304075 17.86291625 30.03679024 17.8522698 27.30981445 17.82885742 C23.82234598 17.80036753 20.33680133 17.81677878 16.84940338 17.84671974 C13.51232428 17.86918096 10.17575674 17.85343327 6.83862305 17.84106445 C5.58956177 17.85118561 4.34050049 17.86130676 3.05358887 17.87173462 C-6.57099391 17.741495 -6.57099391 17.741495 -9.67114258 14.8581543 C-11.92323071 11.32494974 -12.05338363 9.29134828 -11.38012695 5.17700195 C-7.92164986 0.79626431 -5.41396718 0.05366778 0 0 Z " fill="#00ff00" transform="translate(342.380126953125,311.822998046875)"/>
<path d="M0 0 C3.31739946 2.95113454 4.26496525 5.31405401 4.51757812 9.61914062 C4.54388868 11.46466184 4.54710019 13.31060931 4.53125 15.15625 C4.5350769 16.13613892 4.53890381 17.11602783 4.54284668 18.12561035 C4.54556352 20.19328847 4.53821836 22.26100109 4.52148438 24.32861328 C4.50007189 27.48938794 4.5212942 30.6478896 4.546875 33.80859375 C4.54423168 35.82031751 4.53910663 37.83203985 4.53125 39.84375 C4.53934692 40.78657837 4.54744385 41.72940674 4.55578613 42.70080566 C4.494945 46.96843215 4.38550096 49.36950777 2.11914062 53.07617188 C-0.37418758 55.33970025 -1.64290309 55.91811959 -5 56 C-9.03917648 54.94212045 -10.80628827 53.50462413 -13 50 C-13.38768005 47.84425354 -13.38768005 47.84425354 -13.40405273 45.49438477 C-13.41673691 44.60989151 -13.42942108 43.72539825 -13.44248962 42.81410217 C-13.43955399 41.86611252 -13.43661835 40.91812286 -13.43359375 39.94140625 C-13.4388356 38.96010239 -13.44407745 37.97879852 -13.44947815 36.96775818 C-13.45589648 34.89412379 -13.45456381 32.82045299 -13.44604492 30.74682617 C-13.43753972 27.57730112 -13.46629187 24.40958119 -13.49804688 21.24023438 C-13.49965913 19.22395887 -13.49908088 17.20768018 -13.49609375 15.19140625 C-13.50732773 14.24544083 -13.51856171 13.2994754 -13.53013611 12.32484436 C-13.485175 8.07052895 -13.38198832 5.6370519 -11.15649414 1.92553711 C-7.43865213 -1.39413004 -4.64531446 -1.3272327 0 0 Z " fill="#00ff00" transform="translate(247,136)"/>
<path d="M0 0 C2.9375 1.875 2.9375 1.875 5 5 C5.90259652 9.82968312 5.6770835 13.67291634 3.4375 18.0625 C0.19122799 20.64287006 -1.86623523 21.07252219 -6 21 C-8.80189446 19.23358828 -10.51524911 17.96950178 -12 15 C-12.62694897 9.93962616 -12.79621574 6.20638749 -9.9375 1.875 C-6.21389337 -0.50177019 -4.34189423 -0.77533825 0 0 Z " fill="#00ff00" transform="translate(246,106)"/>
<path d="M0 0 C3.32635764 2.18839318 3.90585122 3.62340488 4.875 7.5 C5.04878049 12.36585366 5.04878049 12.36585366 3 15 C0.378587 17.11729512 -1.82290179 17.11871289 -5.0625 16.875 C-7.76558207 16.43203683 -8.83293346 16.13574157 -11 14.375 C-12.43348212 10.97047997 -12.51361669 8.65951893 -12 5 C-8.59008657 0.14345663 -5.84624621 -0.95665847 0 0 Z " fill="#00ff00" transform="translate(115,377)"/>
<path d="M0 0 C2.9375 2.0625 2.9375 2.0625 5 5 C5.62601538 8.96476406 5.65946039 10.99762021 3.4375 14.375 C0.17160572 16.55226285 -2.07983866 17 -6 17 C-8.875 15.5 -8.875 15.5 -11 13 C-12.1659741 8.99196403 -12.43240501 6.94717289 -10.6875 3.125 C-7.63595781 -0.71768276 -4.73184339 -0.48120441 0 0 Z " fill="#00ff00" transform="translate(144,377)"/>
<path d="M0 0 C3.41639845 1.9739191 4.72268412 3.18538459 6 6.9375 C6 10.60292141 5.23178648 12.13056023 3 15 C-0.51824511 17.34549674 -1.85775694 17.57991403 -6 17 C-8.87459336 15.00028288 -10.62907801 13.51060972 -11.484375 10.02734375 C-11.73645855 6.28110213 -11.30563428 4.35956975 -8.875 1.5 C-5.48749667 -0.26739304 -3.7664742 -0.6277457 0 0 Z " fill="#00ff00" transform="translate(85,377)"/>
</svg>