<svg version="1.1" xmlns="http://www.w3.org/2000/svg" width="512px" height="512px" transform="rotate(0) scale(1, 1)">
<path d="M0 0 C1.46310112 -0.00543209 2.92619676 -0.0125608 4.38928223 -0.02124023 C8.32899524 -0.03933641 12.26828515 -0.03246652 16.20800471 -0.01972389 C20.34209561 -0.00953802 24.4761523 -0.01900374 28.61024475 -0.02526855 C35.54247498 -0.03252309 42.47453409 -0.02300919 49.40673828 -0.00390625 C57.41919201 0.01791858 65.43123945 0.0107619 73.44368356 -0.01121187 C80.33651518 -0.02935695 87.2292245 -0.03193041 94.12207228 -0.0214572 C98.23347204 -0.01522504 102.34468059 -0.01438012 106.45606804 -0.02760315 C110.31488765 -0.03915027 114.17318152 -0.03115752 118.03194427 -0.00802612 C119.44770242 -0.00273543 120.8635048 -0.00425905 122.27924538 -0.01307678 C124.21059722 -0.02399812 126.14204575 -0.0078772 128.073349 0.00964355 C129.69455359 0.01190571 129.69455359 0.01190571 131.34850979 0.01421356 C134.80692422 0.63851786 135.98589721 1.79562622 138.13696289 4.51757812 C138.66821289 6.51757813 138.66821289 6.51757813 138.63696289 8.51757812 C138.65243164 9.50757812 138.65243164 9.50757812 138.66821289 10.51757812 C137.8908871 13.44398109 136.4606183 14.61229793 134.13696289 16.51757812 C131.4834795 17.01980019 131.4834795 17.01980019 128.40156555 17.02310181 C127.23109177 17.0341243 126.06061798 17.04514679 124.85467529 17.0565033 C123.57409241 17.04833084 122.29350952 17.04015839 120.97412109 17.03173828 C119.6088329 17.03719987 118.24355083 17.04444175 116.87828064 17.05332947 C113.93931473 17.06866851 111.00069793 17.07146778 108.06170082 17.06456375 C103.40868641 17.05377153 98.756036 17.0711681 94.10307312 17.09237671 C86.73676522 17.12264805 79.37056509 17.13433175 72.00420016 17.13795316 C58.83130817 17.14459217 45.65849213 17.17374797 32.48569173 17.22304952 C27.86681599 17.23948803 23.24809699 17.24497557 18.62919486 17.24145913 C15.74542487 17.24101977 12.8617132 17.24862136 9.97796059 17.25813484 C8.01760676 17.26206503 6.05724075 17.25607349 4.09689331 17.24971008 C-5.50768672 17.29335446 -13.01829355 17.77752186 -20.86303711 23.51757812 C-21.52303711 23.51757812 -22.18303711 23.51757812 -22.86303711 23.51757812 C-27.65869044 32.73998838 -29.0136149 40.34334628 -28.99674988 50.5801239 C-28.99901543 51.59021021 -29.00128099 52.60029652 -29.0036152 53.64099151 C-29.00994272 57.02393762 -29.00912663 60.40684355 -29.00830078 63.78979492 C-29.01129309 66.21615145 -29.01469578 68.64250749 -29.01847839 71.06886292 C-29.0263982 76.97530431 -29.02953279 82.8817363 -29.03009077 88.78818192 C-29.03056651 93.5920079 -29.03262417 98.39583059 -29.0357914 103.19965553 C-29.04459598 116.83219306 -29.0492112 130.46472273 -29.04846092 144.09726312 C-29.04840099 145.19900191 -29.04840099 145.19900191 -29.04833984 146.32299805 C-29.04829896 147.05839209 -29.04825808 147.79378613 -29.04821596 148.55146483 C-29.04780978 160.46147403 -29.05737294 172.37145156 -29.07147821 184.28145161 C-29.08586134 196.52312126 -29.0927473 208.7647755 -29.09188443 221.00645381 C-29.09155308 227.87409954 -29.09427282 234.74171211 -29.10506248 241.6093502 C-29.11515021 248.07144799 -29.11481234 254.53349393 -29.10754585 260.99559593 C-29.10650181 263.36305341 -29.10885216 265.73051527 -29.11490631 268.09796524 C-29.12265484 271.33876312 -29.1179624 274.5793212 -29.11027527 277.82011414 C-29.11541883 278.74893534 -29.12056239 279.67775654 -29.12586182 280.63472384 C-29.06982694 291.38263427 -27.67891669 300.92233175 -20.86303711 309.51757812 C-12.4433265 317.76332777 -2.38727659 319.63937682 9.09516716 319.64621258 C9.76239019 319.64796562 10.42961321 319.64971865 11.11705512 319.65152481 C13.34473059 319.65616331 15.57234018 319.65372489 17.80001831 319.65129089 C19.41656775 319.65315994 21.03311673 319.65546102 22.649665 319.65815622 C27.08589613 319.66426888 31.52210841 319.66414125 35.95834279 319.66296184 C40.74507897 319.6627577 45.53180912 319.66827781 50.31854248 319.67301941 C59.6939933 319.68132335 69.06943784 319.68407413 78.44489203 319.68463179 C86.06526346 319.68510702 93.6856328 319.68716214 101.30600357 319.69033241 C122.91136775 319.6991379 144.51672696 319.7037519 166.12209295 319.70300194 C167.28667288 319.70296198 168.45125281 319.70292203 169.65112305 319.70288086 C170.81712473 319.70283998 171.98312642 319.7027991 173.18446149 319.70275698 C192.08606829 319.70235043 210.98765518 319.71192256 229.88925622 319.72601923 C249.29748569 319.74037954 268.70570544 319.74728962 288.11394036 319.74642545 C299.01015128 319.74609339 309.90634132 319.74884469 320.80254745 319.7596035 C330.07857459 319.7687039 339.35457137 319.77088749 348.63060103 319.76409408 C353.36280857 319.7608267 358.09495786 319.7607801 362.82715988 319.76944733 C367.16107768 319.77730344 371.49489095 319.77588997 375.82880618 319.76716319 C377.39469603 319.76562627 378.96059365 319.76745164 380.52647434 319.77302327 C395.779806 320.07213536 395.779806 320.07213536 409.13696289 313.51757812 C416.48783345 306.10545031 417.28583434 298.25625439 417.27880859 288.18896484 C417.28228302 287.37521393 417.28575745 286.56146301 417.28933716 285.72305298 C417.2966603 283.96504262 417.30202391 282.20702323 417.30562782 280.44900131 C417.31282361 277.66653781 417.32851042 274.88424754 417.3469696 272.10183716 C417.39931421 264.19405384 417.44746235 256.28637112 417.46289062 248.37841797 C417.47295923 243.53431994 417.50224476 238.6906669 417.54421043 233.84674454 C417.55653088 232.00238531 417.56163979 230.15796333 417.559412 228.3135643 C417.55706467 225.7376909 417.57917731 223.16310231 417.60693359 220.58740234 C417.60033218 219.82574768 417.59373077 219.06409302 417.58692932 218.27935791 C417.64920456 214.76483131 417.86725373 212.8668708 420.04508972 210.04641724 C422.31377516 208.38835542 423.36085171 207.97420139 426.13696289 208.01757812 C427.12696289 208.00210938 427.12696289 208.00210938 428.13696289 207.98632812 C431.18297054 208.79542391 432.22936133 209.99940671 434.13696289 212.51757812 C434.53159037 215.57683019 434.68409757 218.27540129 434.65454102 221.33422852 C434.66505493 222.66922394 434.66505493 222.66922394 434.67578125 224.03118896 C434.69339653 226.97618762 434.68171892 229.92022573 434.66821289 232.86523438 C434.67090846 234.91825036 434.67479142 236.97126511 434.67980957 239.02427673 C434.6857108 243.33263269 434.67712761 247.64065718 434.65844727 251.94897461 C434.63575796 257.44768755 434.6487132 262.9456152 434.67273712 268.44429874 C434.68726413 272.68851011 434.68255586 276.93253871 434.67222595 281.17675591 C434.66957246 283.20236747 434.67277949 285.22799607 434.68214417 287.25358772 C434.73604129 302.20068513 433.96903499 314.17071448 423.13696289 325.51757812 C413.87051651 334.36361862 403.82798065 337.14489391 391.23974609 336.97167969 C390.10672562 336.97226379 388.97370514 336.9728479 387.80635071 336.97344971 C384.09982554 336.97068599 380.39412703 336.93967406 376.68774414 336.90820312 C374.10272155 336.90073468 371.51769326 336.8950446 368.93266296 336.89105225 C362.84841218 336.87739406 356.7644973 336.84594104 350.68037242 336.80565429 C343.74679609 336.76075161 336.81320492 336.73890335 329.8795191 336.71887255 C315.63184451 336.67720195 301.3844141 336.60696626 287.13696289 336.51757812 C288.08713247 338.28485731 289.04035806 340.05049368 289.99487305 341.81542969 C290.52537262 342.79884338 291.05587219 343.78225708 291.60244751 344.79547119 C302.8881274 364.81536011 323.95492409 375.48786203 344.93334961 382.63525391 C350.651552 384.21013452 356.32889593 384.48890784 362.23657227 384.32006836 C369.22767951 384.14472276 374.08229843 385.84075543 379.37915039 390.48242188 C379.91797852 391.13339844 380.45680664 391.784375 381.01196289 392.45507812 C381.56625977 393.10347656 382.12055664 393.751875 382.69165039 394.41992188 C387.11787991 400.84393607 386.50407097 407.56301909 386.51196289 415.08007812 C386.53645508 416.31177734 386.56094727 417.54347656 386.58618164 418.8125 C386.59004883 419.99521484 386.59391602 421.17792969 386.59790039 422.39648438 C386.60611816 423.47486572 386.61433594 424.55324707 386.62280273 425.66430664 C385.99265069 429.36510412 385.15305942 430.29092236 382.13696289 432.51757812 C379.12979751 432.9103013 376.4894529 433.05799103 373.48266602 433.0255127 C372.1587019 433.03487264 372.1587019 433.03487264 370.80799103 433.04442167 C367.84446153 433.06040209 364.88174878 433.04772765 361.91821289 433.03515625 C359.79605631 433.04057512 357.67390348 433.04769645 355.55175781 433.05639648 C349.78322154 433.07466063 344.01497083 433.06754945 338.24642944 433.05488014 C332.21579201 433.04476853 326.18517939 433.0541407 320.15454102 433.0604248 C310.02624105 433.06770656 299.89805767 433.05809959 289.76977539 433.0390625 C278.05220446 433.01729283 266.3349119 433.02434383 254.61734772 433.04636812 C244.56545881 433.06450701 234.51365382 433.06708782 224.46175385 433.05661345 C218.4544366 433.05037023 212.44725029 433.0495657 206.43994141 433.0627594 C200.79280536 433.07429522 195.14602899 433.06633344 189.49893188 433.04318237 C187.42364093 433.03788317 185.34831982 433.03942964 183.27304077 433.04823303 C180.44536869 433.0591242 177.61885738 433.04550278 174.79125977 433.0255127 C173.55216228 433.03889703 173.55216228 433.03889703 172.28803253 433.05255175 C168.65098961 433.00249579 166.56824537 432.8455078 163.62927246 430.61083221 C162.01314479 428.34389919 161.59394605 427.27065621 161.63696289 424.51757812 C161.62665039 423.85757812 161.61633789 423.19757813 161.60571289 422.51757812 C162.40834654 419.49589849 163.65709518 418.42184921 166.13696289 416.51757812 C169.00860975 416.13330738 171.49330361 415.99381457 174.36260986 416.03656006 C175.19907224 416.03314236 176.03553463 416.02972466 176.89734435 416.02620339 C179.70445217 416.01960676 182.51060701 416.04162977 185.31762695 416.06347656 C187.32804339 416.06460466 189.33846148 416.06397193 191.34887695 416.06170654 C196.81141962 416.06055698 202.2736123 416.08410563 207.73607349 416.11200237 C213.44290718 416.13697562 219.14974852 416.13935481 224.85662842 416.144104 C235.66552597 416.15654576 246.47426206 416.18938368 257.28308845 416.22950196 C269.58764017 416.27418229 281.89219953 416.29619732 294.19681215 416.3162837 C319.51028531 416.35811519 344.82361506 416.42849064 370.13696289 416.51757812 C369.88108884 414.74452148 369.6066855 412.97413205 369.32446289 411.20507812 C369.17364258 410.21894531 369.02282227 409.2328125 368.86743164 408.21679688 C368.08925047 405.3412718 367.49194945 404.27954143 365.13696289 402.51757812 C362.002071 401.47261416 359.82410129 401.39122268 356.53434944 401.38894367 C355.36103888 401.38571923 354.18772831 401.38249478 352.97886288 401.37917262 C351.68365338 401.38072123 350.38844387 401.38226983 349.0539856 401.38386536 C347.66902634 401.38199805 346.28406761 401.37969766 344.89910972 401.37700003 C341.08460603 401.37086572 337.27012421 401.37101754 333.45561671 401.37219441 C329.3451025 401.37239801 325.2345954 401.3668836 321.12408447 401.36213684 C313.0675708 401.3538208 305.01106443 401.35108157 296.95454682 401.35052446 C290.40765331 401.35004975 283.86076222 401.34799727 277.31386948 401.34482384 C258.76351147 401.33601467 240.21315925 401.33140487 221.66279913 401.33215431 C220.1618681 401.33221425 220.1618681 401.33221425 218.63061523 401.33227539 C217.12785747 401.33233671 217.12785747 401.33233671 215.59474097 401.33239927 C199.35438511 401.33280582 183.11405242 401.32323478 166.87370326 401.30913702 C150.20928961 401.29478498 133.54488728 401.28786619 116.8804673 401.2887308 C107.5202174 401.28906318 98.1599918 401.28629839 88.79974747 401.27555275 C80.83078096 401.26646314 72.86184977 401.26425979 64.89288034 401.27106217 C60.82548014 401.27433519 56.75814775 401.27435601 52.69075394 401.26570892 C48.96875306 401.25787736 45.24687412 401.2592409 41.52487634 401.26799306 C39.53743053 401.27026728 37.54998104 401.26267322 35.56254971 401.25475341 C34.38402365 401.25935221 33.20549759 401.263951 31.99125862 401.26868916 C30.97409519 401.26847179 29.95693177 401.26825442 28.9089452 401.26803046 C25.93915594 401.53538569 23.79357993 402.17589042 21.13696289 403.51757812 C19.39211872 406.48381322 18.98894602 409.33447898 18.59008789 412.69726562 C18.44055664 413.95796875 18.29102539 415.21867187 18.13696289 416.51757812 C18.77233852 416.51389095 19.40771416 416.51020378 20.0623436 416.50640488 C35.5190255 416.41808587 50.9756197 416.35188427 66.4324913 416.31032944 C73.90731617 416.28969992 81.38197266 416.26157211 88.85668945 416.21582031 C95.37130159 416.17596418 101.8857918 416.15014814 108.40052247 416.14122415 C111.85041793 416.13600722 115.29996453 416.12373819 118.74974823 416.0946579 C122.59991518 416.06246549 126.44974015 416.06161793 130.30004883 416.06347656 C132.01771454 416.04190491 132.01771454 416.04190491 133.77008057 416.01989746 C134.81893433 416.02539612 135.86778809 416.03089478 136.94842529 416.03656006 C137.85915676 416.03287289 138.76988823 416.02918571 139.70821762 416.02538681 C142.90455013 416.6731316 144.10479402 418.02637569 146.13696289 420.51757812 C146.66821289 422.51757812 146.66821289 422.51757812 146.63696289 424.51757812 C146.64727539 425.17757813 146.65758789 425.83757812 146.66821289 426.51757812 C145.89197468 429.43988668 144.4536522 430.61180439 142.13696289 432.51757812 C139.53198242 433.02094269 139.53198242 433.02094269 136.51977539 433.0255127 C135.37573242 433.03679199 134.23168945 433.04807129 133.05297852 433.05969238 C131.80194336 433.05159546 130.5509082 433.04349854 129.26196289 433.03515625 C127.92797074 433.04057781 126.59398459 433.04770067 125.26000977 433.05639648 C121.64010941 433.07462926 118.02066515 433.06756286 114.40075684 433.05488014 C110.6122922 433.04475208 106.82386657 433.05414527 103.03540039 433.0604248 C96.67334991 433.06770181 90.31148517 433.05811225 83.94946289 433.0390625 C76.59436152 433.01729349 69.23970366 433.02434484 61.88461304 433.04636812 C55.56940922 433.06452074 49.25433891 433.06708117 42.93911743 433.05661345 C39.16742686 433.05037769 35.39594475 433.04954494 31.62426758 433.0627594 C28.07823936 433.07431547 24.53278286 433.06629756 20.98681641 433.04318237 C19.06486802 433.03537126 17.14287127 433.04725335 15.22094727 433.05969238 C14.0769043 433.04841309 12.93286133 433.03713379 11.75415039 433.0255127 C10.76012207 433.02400459 9.76609375 433.02249649 8.74194336 433.02094269 C5.40234729 432.37562717 4.21175272 431.16291445 2.13696289 428.51757812 C1.61938477 425.71191406 1.61938477 425.71191406 1.60571289 422.50195312 C1.59797852 420.74818359 1.59797852 420.74818359 1.59008789 418.95898438 C1.60555664 417.74082031 1.62102539 416.52265625 1.63696289 415.26757812 C1.62149414 414.06488281 1.60602539 412.8621875 1.59008789 411.62304688 C1.62651128 403.32762106 2.58162292 397.57476529 8.10180664 391.27539062 C8.7527832 390.7365625 9.40375977 390.19773437 10.07446289 389.64257812 C10.72286133 389.08828125 11.37125977 388.53398437 12.03930664 387.96289062 C16.6701957 384.7721477 20.20651333 384.41832974 25.67236328 384.54663086 C36.0673177 384.68089208 44.61001658 382.40652495 54.19946289 378.45507812 C55.30370605 378.00205322 56.40794922 377.54902832 57.5456543 377.08227539 C77.16108532 368.56183174 91.70603269 355.681295 101.13696289 336.51757812 C100.58626759 336.5212653 100.03557228 336.52495247 99.46818924 336.52875137 C86.01992012 336.61739116 72.57170273 336.6831713 59.12320328 336.72482681 C52.61937785 336.74565214 46.11576415 336.77387769 39.61206055 336.81933594 C33.32912887 336.8629735 27.04640015 336.88675321 20.76332855 336.8970871 C18.37287962 336.90444633 15.9824411 336.91881682 13.59207916 336.94049835 C-5.61263208 337.1076776 -18.97149916 335.78934966 -33.61303711 322.20507812 C-43.07129475 312.21144741 -46.33151313 300.72645445 -46.25071716 287.25270081 C-46.25879547 285.61606355 -46.25879547 285.61606355 -46.26703697 283.94636291 C-46.28127285 280.31316482 -46.27422345 276.68033332 -46.26708984 273.04711914 C-46.27279565 270.43298043 -46.27976073 267.81884422 -46.28788757 265.20471191 C-46.30503314 258.85495589 -46.30592449 252.50529902 -46.30067467 246.15552587 C-46.29662403 240.9918516 -46.29808711 235.8282065 -46.30342293 230.66453362 C-46.30417135 229.92804302 -46.30491977 229.19155242 -46.30569087 228.43274392 C-46.30722244 226.9363033 -46.30876078 225.43986268 -46.31030584 223.94342207 C-46.32401537 209.9285708 -46.31860395 195.91377545 -46.30712063 181.89892548 C-46.29718847 169.09351468 -46.31013134 156.28824837 -46.33405482 143.48285986 C-46.35847004 130.31444063 -46.36804783 117.14608864 -46.36140209 103.97764724 C-46.35791543 96.59247791 -46.36010539 89.20741968 -46.37765312 81.82226753 C-46.3939509 74.87742058 -46.38915585 67.93285361 -46.37034798 60.98801422 C-46.36666484 58.44317362 -46.36976246 55.89831255 -46.38023376 53.35349083 C-46.39346335 49.87182399 -46.38187737 46.39106734 -46.36424255 42.90943909 C-46.37384756 41.90941835 -46.38345257 40.9093976 -46.39334863 39.8790732 C-46.27771408 28.73539476 -42.56359141 19.58409936 -34.86303711 11.51757812 C-24.60915794 1.7289033 -13.7845707 -0.08680124 0 0 Z M120.13696289 336.51757812 C117.49696289 342.12757813 114.85696289 347.73757813 112.13696289 353.51757812 C104.5553947 364.77843677 95.43627745 375.46533054 83.68383789 382.52929688 C82.91813477 383.01849609 82.91813477 383.01849609 82.13696289 383.51757812 C82.13696289 383.84757812 82.13696289 384.17757812 82.13696289 384.51757812 C156.05696289 384.51757812 229.97696289 384.51757812 306.13696289 384.51757812 C304.48696289 383.19757813 302.83696289 381.87757813 301.13696289 380.51757812 C286.08811047 367.36034123 276.306307 354.89860237 268.13696289 336.51757812 C219.29696289 336.51757812 170.45696289 336.51757812 120.13696289 336.51757812 Z " fill="#0f0" transform="translate(61.863037109375,63.482421875)"/>
<path d="M0 0 C1.9500293 -0.02320313 1.9500293 -0.02320313 3.93945312 -0.046875 C5.18533203 -0.04171875 6.43121094 -0.0365625 7.71484375 -0.03125 C9.40081665 -0.02448242 9.40081665 -0.02448242 11.12084961 -0.01757812 C14.80965874 0.63146124 15.78159076 1.56385542 18.0625 4.5 C18.56370544 7.50872803 18.56370544 7.50872803 18.56420898 11.06933594 C18.57231346 12.04580078 18.57231346 12.04580078 18.58058167 13.04199219 C18.59306777 15.18991871 18.57657371 17.33650364 18.55859375 19.484375 C18.55874882 20.98407054 18.5602391 22.48376648 18.56300354 23.98345947 C18.56438772 27.1274995 18.55183287 30.27108349 18.52905273 33.41503906 C18.50076554 37.42756205 18.50337825 41.43932191 18.51614285 45.45190048 C18.52313183 48.55078539 18.51527264 51.64949692 18.50288582 54.74835968 C18.49839555 56.22659895 18.49801314 57.704857 18.50195122 59.18309784 C18.51275172 66.80945617 18.45539526 73.51962276 15.0625 80.5 C16.031875 80.355625 17.00125 80.21125 18 80.0625 C23.63589949 80.10740757 26.9787623 84.01947319 31.0625 87.5 C33.33947995 89.31055168 35.64036357 91.09013214 37.9375 92.875 C43.27055118 97.05460876 48.53554711 101.30750399 53.7578125 105.625 C54.51835937 106.24375 55.27890625 106.8625 56.0625 107.5 C56.6503125 108.09167969 57.238125 108.68335937 57.84375 109.29296875 C61.3274256 111.18813734 64.6647109 110.36409581 68.4375 109.8125 C69.23752441 109.71018066 70.03754883 109.60786133 70.86181641 109.50244141 C75.73179911 108.86882939 80.58305457 108.11725338 85.4375 107.375 C95.1427286 105.98373024 104.56423152 104.72574464 113.0625 110.5 C118.86437226 115.40840655 121.96908196 120.98275099 123.0625 128.5 C123.40928302 135.65239975 121.65403589 141.01370327 117.0625 146.5 C110.45755927 153.28589801 104.15532706 154.82556994 94.96875 156.0078125 C93.98563843 156.13815887 93.00252686 156.26850525 91.98962402 156.40280151 C89.90888168 156.67664085 87.82768943 156.94708013 85.74609375 157.21435547 C82.60000092 157.62016284 79.45630913 158.0417526 76.3125 158.46484375 C46.92104105 162.35103267 46.92104105 162.35103267 35.75 155 C34.90244141 154.47535156 34.05488281 153.95070312 33.18164062 153.41015625 C31.12428511 152.13157373 29.08720345 150.8294449 27.0625 149.5 C25.64661894 154.29641278 24.97292671 158.8445248 27.0625 163.5 C32.85096536 169.91846085 41.01506487 174.15338017 48.3125 178.625 C51.34465291 180.54890848 54.36786971 182.48629364 57.39056396 184.42501831 C59.27054755 185.62347043 61.1578998 186.81046102 63.05328369 187.98440552 C63.9138739 188.51951752 64.77446411 189.05462952 65.66113281 189.60595703 C66.41614075 190.0700296 67.17114868 190.53410217 67.94903564 191.01223755 C70.97303306 193.14096511 73.61017396 195.14062068 74.79833984 198.71142578 C74.97163818 200.00282471 74.97163818 200.00282471 75.1484375 201.3203125 C75.36838379 202.91214355 75.36838379 202.91214355 75.59277344 204.53613281 C75.7477832 205.84420898 75.90279297 207.15228516 76.0625 208.5 C76.1603479 209.30497925 76.2581958 210.1099585 76.35900879 210.93933105 C77.05907295 216.72289719 77.71421584 222.51075885 78.34960938 228.30175781 C78.68906594 231.38924282 79.03561629 234.47587681 79.3828125 237.5625 C79.60198521 239.53901567 79.82074976 241.51557666 80.0390625 243.4921875 C80.19370468 244.86574905 80.19370468 244.86574905 80.35147095 246.26705933 C80.8335682 250.70329762 81.1829415 255.02895407 81.0625 259.5 C81.79726563 259.603125 82.53203125 259.70625 83.2890625 259.8125 C91.37669725 261.81732214 97.83779516 269.67042533 102.0625 276.5 C105.90280394 283.95337097 107.61763014 292.16404505 106.0625 300.5 C103.9013086 303.32475173 102.7200086 304.38419009 99.17871094 305.00793457 C97.50470215 305.01270813 97.50470215 305.01270813 95.796875 305.01757812 C94.52875977 305.03018677 93.26064453 305.04279541 91.95410156 305.05578613 C90.57356205 305.0486263 89.19302761 305.04042231 87.8125 305.03125 C86.39290094 305.03394562 84.97330369 305.03782863 83.55371094 305.04284668 C80.58120106 305.04873858 77.60917259 305.04018954 74.63671875 305.02148438 C70.82991213 304.998694 67.02423351 305.01181888 63.21746826 305.03577423 C60.28686044 305.05024114 57.35651926 305.04562235 54.42590332 305.03526306 C53.02250026 305.03259819 51.61907285 305.03585717 50.21569824 305.04518127 C48.25317865 305.05535941 46.29057398 305.0370904 44.328125 305.01757812 C43.21211914 305.01439575 42.09611328 305.01121338 40.94628906 305.00793457 C37.42044367 304.38691177 36.24414196 303.28107437 34.0625 300.5 C33.53125 298.5 33.53125 298.5 33.5625 296.5 C33.5521875 295.84 33.541875 295.18 33.53125 294.5 C34.36774203 291.35085353 35.38176636 290.42717696 38.0625 288.5 C41.75604708 287.86430408 45.43105332 287.89499738 49.171875 287.890625 C50.25382141 287.87408875 51.33576782 287.85755249 52.45050049 287.84051514 C55.90455758 287.79194899 59.35817411 287.77064434 62.8125 287.75 C65.15497018 287.72184764 67.49741977 287.69192126 69.83984375 287.66015625 C75.58064896 287.58618776 81.32132982 287.53459573 87.0625 287.5 C83.0377572 281.37285662 79.3699051 276.69222153 72.0625 274.5 C67.83010257 273.67391852 63.80088705 273.36744881 59.4921875 273.32421875 C58.26628906 273.30037109 57.04039062 273.27652344 55.77734375 273.25195312 C53.20980694 273.20885612 50.6420434 273.17767601 48.07421875 273.15820312 C46.23923828 273.11663086 46.23923828 273.11663086 44.3671875 273.07421875 C42.6963208 273.05234497 42.6963208 273.05234497 40.99169922 273.0300293 C37.39876071 272.37989848 36.24310503 271.3859828 34.0625 268.5 C33.3046875 266.53076172 33.3046875 266.53076172 32.9375 264.4296875 C32.71658691 263.22638794 32.71658691 263.22638794 32.49121094 261.9987793 C32.27899902 260.70000854 32.27899902 260.70000854 32.0625 259.375 C31.90297852 258.47370361 31.74345703 257.57240723 31.57910156 256.64379883 C29.54849821 244.96189213 27.79722572 233.22892125 26.0625 221.5 C25.23492187 221.24476563 24.40734375 220.98953125 23.5546875 220.7265625 C19.62809849 219.34742497 15.93992537 217.66394698 12.1875 215.875 C11.49914062 215.55015625 10.81078125 215.2253125 10.1015625 214.890625 C8.42044781 214.09676528 6.74127079 213.29880442 5.0625 212.5 C4.81338867 213.31766846 4.56427734 214.13533691 4.30761719 214.9777832 C1.95933345 221.62066349 -1.33228091 227.85875736 -4.44921875 234.16870117 C-5.27548132 235.84940917 -6.09384435 237.53402355 -6.90429688 239.22241211 C-8.08016829 241.67158837 -9.27936533 244.10802176 -10.484375 246.54296875 C-10.84086121 247.29611862 -11.19734741 248.04926849 -11.56463623 248.82524109 C-11.9181012 249.52639542 -12.27156616 250.22754974 -12.63574219 250.94995117 C-12.93615417 251.56472824 -13.23656616 252.17950531 -13.54608154 252.81291199 C-16.96526107 256.9586503 -21.89195891 257.8950864 -26.99951172 258.39135742 C-28.17448212 258.51125534 -29.34945251 258.63115326 -30.56002808 258.75468445 C-31.81639069 258.87044327 -33.0727533 258.98620209 -34.3671875 259.10546875 C-35.67148712 259.23440018 -36.97578674 259.3633316 -38.3196106 259.49617004 C-41.0742456 259.76796313 -43.82946998 260.03199454 -46.58544922 260.28979492 C-50.09882156 260.61854518 -53.61068149 260.9609507 -57.12223625 261.30852795 C-60.49507661 261.64166398 -63.86860888 261.96738823 -67.2421875 262.29296875 C-68.49450165 262.41480026 -69.7468158 262.53663177 -71.03707886 262.66215515 C-77.03305443 263.22273953 -82.91528694 263.64449944 -88.9375 263.5 C-89.040625 264.23476563 -89.14375 264.96953125 -89.25 265.7265625 C-91.25482214 273.81419725 -99.10792533 280.27529516 -105.9375 284.5 C-113.39087097 288.34030394 -121.60154505 290.05513014 -129.9375 288.5 C-132.76225173 286.3388086 -133.82169009 285.1575086 -134.44543457 281.61621094 C-134.44861694 280.50020508 -134.45179932 279.38419922 -134.45507812 278.234375 C-134.46768677 276.96625977 -134.48029541 275.69814453 -134.49328613 274.39160156 C-134.4861263 273.01106205 -134.47792231 271.63052761 -134.46875 270.25 C-134.47144562 268.83040094 -134.47532863 267.41080369 -134.48034668 265.99121094 C-134.48623858 263.01870106 -134.47768954 260.04667259 -134.45898438 257.07421875 C-134.436194 253.26741213 -134.44931888 249.46173351 -134.47327423 245.65496826 C-134.48774114 242.72436044 -134.48312235 239.79401926 -134.47276306 236.86340332 C-134.47009819 235.46000026 -134.47335717 234.05657285 -134.48268127 232.65319824 C-134.49285941 230.69067865 -134.4745904 228.72807398 -134.45507812 226.765625 C-134.45189575 225.64961914 -134.44871338 224.53361328 -134.44543457 223.38378906 C-133.82097448 219.83842852 -132.77770888 218.65158646 -129.9375 216.5 C-126.85424805 216.04931641 -126.85424805 216.04931641 -123.19921875 216.1015625 C-121.8217767 216.10119778 -120.44433462 216.09976695 -119.06689453 216.09741211 C-117.98048676 216.10537308 -117.98048676 216.10537308 -116.87213135 216.11349487 C-99.92730915 216.20025096 -84.17329541 213.83801836 -67.69775391 210.03491211 C-64.9375 209.5 -64.9375 209.5 -60.9375 209.5 C-60.87054932 208.46818604 -60.87054932 208.46818604 -60.80224609 207.41552734 C-60.22805104 199.57251539 -59.18418688 191.86253005 -57.890625 184.10693359 C-57.55968782 182.10801396 -57.24451036 180.1069819 -56.9296875 178.10546875 C-56.71828125 176.82542969 -56.506875 175.54539063 -56.2890625 174.2265625 C-56.10166504 173.07752441 -55.91426758 171.92848633 -55.72119141 170.74462891 C-54.88922579 167.30013575 -53.72006095 164.55719091 -51.9375 161.5 C-49.25650947 160.15950473 -47.20438794 160.3801948 -44.20263672 160.38647461 C-42.40099564 160.38658791 -42.40099564 160.38658791 -40.56295776 160.38670349 C-39.26085358 160.39186478 -37.95874939 160.39702606 -36.6171875 160.40234375 C-35.27483167 160.40420862 -33.93247516 160.4056322 -32.59011841 160.40663147 C-29.05554325 160.41045122 -25.52100913 160.42027688 -21.9864502 160.43133545 C-18.38029536 160.44156122 -14.7741339 160.44613159 -11.16796875 160.45117188 C-4.09112904 160.46189962 2.9856828 160.47896955 10.0625 160.5 C10.03893433 159.12279785 10.03893433 159.12279785 10.01489258 157.71777344 C9.9636913 154.30349051 9.92611521 150.88961696 9.89770508 147.47509766 C9.88264077 145.99879509 9.86218518 144.52253712 9.83618164 143.04638672 C9.79969261 140.92143742 9.78275067 138.79708099 9.76953125 136.671875 C9.74596558 134.7552002 9.74596558 134.7552002 9.72192383 132.79980469 C10.08417509 129.28999244 10.55981894 127.93203349 13.0625 125.5 C16.696912 124.1370955 18.64307222 123.94281787 22.26171875 125.36328125 C26.93699382 127.85137897 31.32630149 130.67116464 35.7265625 133.609375 C36.57259033 134.1556958 37.41861816 134.7020166 38.2902832 135.26489258 C39.97311278 136.35387581 41.63729541 137.47241561 43.27807617 138.6237793 C50.68231214 143.37859522 56.57731197 142.70499389 65.0625 141.5 C66.40152723 141.34593406 67.741157 141.1970276 69.08129883 141.05297852 C72.54568679 140.67673089 76.00347243 140.26045525 79.4609375 139.82543945 C81.58771939 139.55934465 83.71562137 139.30390204 85.84375 139.04882812 C87.21882937 138.87824271 88.59383253 138.70704164 89.96875 138.53515625 C91.18884766 138.3844165 92.40894531 138.23367676 93.66601562 138.07836914 C96.98623983 137.51298594 99.94124423 136.76357325 103.0625 135.5 C104.20602916 133.21294169 104.16584439 131.90735238 104.125 129.375 C104.0940625 127.456875 104.0940625 127.456875 104.0625 125.5 C96.50521745 122.98090582 86.95615166 125.47048673 79.18139648 126.64892578 C75.5935016 127.18971179 72.00048572 127.68743436 68.40478516 128.17333984 C66.44646105 128.44645196 64.49375064 128.75942692 62.54296875 129.08203125 C56.06119261 129.73281199 52.30382226 127.80750049 47.3125 123.8125 C45.50592119 122.28742663 43.72870072 120.73498867 41.96142578 119.16455078 C38.64300762 116.25570853 35.18583323 113.51802453 31.75 110.75 C30.48282212 109.71384831 29.21589011 108.67739584 27.94921875 107.640625 C27.35077148 107.16569107 26.75232422 106.69075714 26.13574219 106.20143127 C24.76870859 105.07955862 23.43914993 103.91018149 22.15460205 102.69473267 C15.85140776 97.06467775 10.80295092 96.46968697 2.53515625 96.5703125 C1.32860886 96.5601712 0.12206146 96.55002991 -1.12104797 96.5395813 C-4.3697649 96.52666703 -7.61533112 96.54809843 -10.86366272 96.59596252 C-12.88064663 96.62508152 -14.89756718 96.64530705 -16.91467285 96.66394043 C-54.96443798 94.84221668 -54.96443798 94.84221668 -89.30322266 106.40771484 C-92.82049363 111.01537098 -93.66653979 115.89855488 -94.40283203 121.53955078 C-95.40501109 127.08860251 -97.80478528 132.17966086 -99.9375 137.375 C-103.40239771 145.66138015 -103.40239771 145.66138015 -103.9375 154.5 C-102.2875 155.16 -100.6375 155.82 -98.9375 156.5 C-95.40317428 153.30414648 -93.0770881 149.7047929 -90.71484375 145.6171875 C-90.13471275 144.63397018 -90.13471275 144.63397018 -89.54286194 143.63088989 C-87.89745511 140.84218233 -86.26606265 138.04537112 -84.63452148 135.24853516 C-83.43759723 133.20148351 -82.23276358 131.15924424 -81.02734375 129.1171875 C-80.6616478 128.48384491 -80.29595184 127.85050232 -79.91917419 127.19796753 C-78.12178281 124.15658915 -76.93053153 122.49535435 -73.9375 120.5 C-69.38658945 120.08870027 -64.82625177 120.12839678 -60.2590332 120.12939453 C-58.0111107 120.12502161 -55.76515321 120.08869631 -53.51757812 120.05078125 C-52.0859442 120.04491263 -50.65430097 120.04094354 -49.22265625 120.0390625 C-47.27178101 120.02673584 -47.27178101 120.02673584 -45.28149414 120.01416016 C-41.9375 120.5 -41.9375 120.5 -39.51538086 122.29443359 C-37.19760226 125.5342312 -37.35419897 128.66815261 -37.4375 132.5 C-37.42203125 133.2115625 -37.4065625 133.923125 -37.390625 134.65625 C-37.41634813 138.10314984 -37.68318064 140.14752229 -39.71875 142.96875 C-42.70653382 145.03074165 -44.50216636 145.07498012 -48.03125 144.890625 C-51.01775688 144.27863588 -52.27589634 142.99240549 -53.9375 140.5 C-53.9375 139.18 -53.9375 137.86 -53.9375 136.5 C-57.90778453 136.04470895 -61.14672557 136.17110771 -64.9375 137.5 C-68.51849858 141.40252654 -70.79853448 145.94339822 -73.1875 150.625 C-83.35800461 169.79248945 -83.35800461 169.79248945 -92.1875 173.5 C-98.42999981 175.18802291 -104.59762207 175.07050748 -110.49609375 172.296875 C-116.24274247 168.71111718 -119.77104825 164.99935525 -121.9375 158.5 C-123.86437152 146.04246237 -118.70495241 135.28782639 -114.25 123.9375 C-113.51955071 122.02743106 -112.79102126 120.11662678 -112.06445312 118.20507812 C-110.35642076 113.727004 -108.60646838 109.26696092 -106.83990479 104.81170654 C-106.03452653 102.74855461 -105.26557827 100.67714461 -104.51318359 98.59423828 C-104.1105127 97.52286621 -103.7078418 96.45149414 -103.29296875 95.34765625 C-102.97352295 94.46215088 -102.65407715 93.57664551 -102.32495117 92.66430664 C-100.02597486 89.07809777 -96.89911536 87.98922524 -92.84867859 86.97904968 C-90.41112799 86.48687306 -87.97084453 86.07037938 -85.515625 85.67578125 C-84.61559753 85.52465378 -83.71557007 85.37352631 -82.78826904 85.21781921 C-80.88957589 84.90146968 -78.99007385 84.58994154 -77.08984375 84.28295898 C-74.2085491 83.81591198 -71.33089427 83.33004264 -68.453125 82.84179688 C-66.59914585 82.53532183 -64.74498428 82.22994783 -62.890625 81.92578125 C-62.04236145 81.78207596 -61.1940979 81.63837067 -60.32012939 81.49031067 C-54.48619616 80.56297886 -48.84028319 80.33898559 -42.9375 80.5 C-43.66658569 78.80967651 -43.66658569 78.80967651 -44.41040039 77.08520508 C-46.16748633 72.37706202 -46.38892238 68.12295591 -46.37109375 63.13671875 C-46.3763356 62.2640889 -46.38157745 61.39145905 -46.38697815 60.49238586 C-46.39336604 58.65614886 -46.39210354 56.81987075 -46.38354492 54.98364258 C-46.37505389 52.20513322 -46.40381027 49.42869659 -46.43554688 46.65039062 C-46.49147117 32.7566741 -44.89958765 21.9355334 -34.9375 11.5 C-24.67460137 1.70271492 -13.83703278 -0.16814622 0 0 Z M-20.9375 22.5 C-23.99290006 25.64146767 -26.53907083 28.30471248 -27.9375 32.5 C-18.0375 32.5 -8.1375 32.5 2.0625 32.5 C2.0625 27.22 2.0625 21.94 2.0625 16.5 C-6.92436393 16.5 -13.81233628 16.64153205 -20.9375 22.5 Z M-29.9375 48.5 C-30.95517138 62.63852582 -30.95517138 62.63852582 -25.47265625 75.11328125 C-20.76162074 79.20232185 -17.52546666 79.85578775 -11.4765625 79.77734375 C-7.71289598 79.36623556 -5.71959813 78.0171364 -2.9375 75.5 C3.81651347 66.92057748 2.0625 59.97416509 2.0625 48.5 C-8.4975 48.5 -19.0575 48.5 -29.9375 48.5 Z M-38.9375 176.5 C-39.23986572 178.32374146 -39.23986572 178.32374146 -39.54833984 180.18432617 C-40.29931936 184.70465714 -41.05772718 189.22371577 -41.81835938 193.74243164 C-42.14622773 195.69652054 -42.47209375 197.65094651 -42.79589844 199.60571289 C-43.26228392 202.41904743 -43.73591035 205.2310821 -44.2109375 208.04296875 C-44.35373138 208.91398727 -44.49652527 209.7850058 -44.64364624 210.68241882 C-46.47773284 221.43157013 -46.47773284 221.43157013 -49.60498047 223.72045898 C-52.77227048 224.77898494 -55.97648516 225.39842028 -59.2578125 225.97265625 C-59.9576828 226.10063095 -60.6575531 226.22860565 -61.37863159 226.36045837 C-63.60558568 226.76691656 -65.83388855 227.16523834 -68.0625 227.5625 C-70.29803532 227.96439669 -72.53321538 228.36805765 -74.76779175 228.7752533 C-76.1561248 229.02790968 -77.54505043 229.27733552 -78.93460083 229.52320862 C-82.5433727 230.16621885 -82.5433727 230.16621885 -85.9375 231.5 C-85.9375 236.45 -85.9375 241.4 -85.9375 246.5 C-72.52884218 245.43879338 -59.13484978 244.26371468 -45.75 242.9375 C-44.45626465 242.81076904 -43.1625293 242.68403809 -41.82958984 242.5534668 C-40.61352051 242.43140869 -39.39745117 242.30935059 -38.14453125 242.18359375 C-37.0666333 242.07587646 -35.98873535 241.96815918 -34.87817383 241.85717773 C-33.90775146 241.73930908 -32.9373291 241.62144043 -31.9375 241.5 C-30.69092117 241.37510948 -30.69092117 241.37510948 -29.41915894 241.24769592 C-26.8269247 240.72598714 -26.8269247 240.72598714 -25.47651672 238.64013672 C-25.08505966 237.82818848 -24.6936026 237.01624023 -24.2902832 236.1796875 C-23.83663895 235.26203613 -23.38299469 234.34438477 -22.91560364 233.39892578 C-22.44458725 232.40103027 -21.97357086 231.40313477 -21.48828125 230.375 C-20.74024483 228.84915283 -20.74024483 228.84915283 -19.97709656 227.29248047 C-18.38420558 224.03636537 -16.81614178 220.76905402 -15.25 217.5 C-13.66907709 214.23312699 -12.0831111 210.96884142 -10.49076843 207.70751953 C-9.50042806 205.67572613 -8.51750094 203.64030013 -7.54255676 201.60107422 C-6.8762751 200.22459717 -6.8762751 200.22459717 -6.1965332 198.8203125 C-5.80746292 198.00836426 -5.41839264 197.19641602 -5.01753235 196.35986328 C-3.9375 194.5 -3.9375 194.5 -1.9375 193.5 C4.47762593 192.99623285 8.5396006 194.1413364 14.2109375 197.04296875 C14.9495401 197.40844315 15.6881427 197.77391754 16.4491272 198.15046692 C17.99753112 198.92196256 19.54197407 199.70145493 21.08251953 200.48852539 C23.44081765 201.68918909 25.81435962 202.85455645 28.19140625 204.01757812 C29.69894754 204.7739906 31.20549559 205.53238659 32.7109375 206.29296875 C33.41922699 206.63901657 34.12751648 206.98506439 34.85726929 207.34159851 C37.65748724 208.79563321 39.72592565 209.95914642 41.4140625 212.671875 C42.34871978 216.74833206 43.11250471 220.83014324 43.7890625 224.95703125 C44.01787613 226.31147591 44.01787613 226.31147591 44.25131226 227.69328308 C44.73529616 230.56550206 45.21149963 233.43894829 45.6875 236.3125 C46.01511185 238.26506013 46.34323115 240.21753518 46.671875 242.16992188 C47.47463262 246.94564894 48.27041687 251.7224914 49.0625 256.5 C54.0125 256.5 58.9625 256.5 64.0625 256.5 C63.39564777 250.05782644 62.71994924 243.61666454 62.03613281 237.17626953 C61.80487221 234.98641952 61.57600637 232.79631521 61.34960938 230.60595703 C61.02326709 227.45274631 60.68824732 224.30055859 60.3515625 221.1484375 C60.20299301 219.6855983 60.20299301 219.6855983 60.05142212 218.19320679 C59.16799664 210.05741446 58.26060108 204.95477024 51.81149292 199.55160522 C47.7089803 196.31395965 43.56336695 193.16610211 39.3125 190.125 C37.95889374 189.15306702 37.95889374 189.15306702 36.57794189 188.16149902 C13.15832891 171.9031792 -11.60509294 173.58624223 -38.9375 176.5 Z M-117.9375 232.5 C-117.9375 245.04 -117.9375 257.58 -117.9375 270.5 C-111.22992658 267.14621329 -107.04785334 263.52885639 -103.5625 256.875 C-102.08128808 251.2463947 -101.80765045 245.90037276 -101.875 240.125 C-101.895625 237.60875 -101.91625 235.0925 -101.9375 232.5 C-107.2175 232.5 -112.4975 232.5 -117.9375 232.5 Z " fill="#0f0" transform="translate(261.9375,15.5)"/>
<path d="M0 0 C4.59335674 2.77185321 9.69288863 7.33698398 11.14672852 12.625 C11.3525354 13.553125 11.3525354 13.553125 11.5625 14.5 C13.32727629 14.49446924 13.32727629 14.49446924 15.12770462 14.48882675 C43.04443073 14.40222943 70.96114638 14.33625505 98.87797858 14.29573868 C102.31269559 14.29073575 105.74741232 14.28555847 109.18212891 14.28027344 C109.86593045 14.2792242 110.54973199 14.27817495 111.25425479 14.27709392 C122.33198963 14.25968003 133.4096416 14.22813697 144.48732725 14.19138882 C155.85074997 14.15400667 167.2141112 14.13206943 178.57759929 14.12364602 C184.96172009 14.11842212 191.3456528 14.10610761 197.72971344 14.07707977 C203.73459216 14.04999641 209.73920472 14.04154073 215.74413872 14.04756927 C217.95167676 14.04646587 220.1592234 14.03847016 222.36670876 14.0231781 C225.374055 14.0033613 228.38038807 14.00803071 231.38775635 14.01898193 C232.26713214 14.00733057 233.14650794 13.9956792 234.05253148 13.98367476 C239.95178868 14.04199059 239.95178868 14.04199059 243.10271835 16.40506363 C244.68129224 18.67047905 245.10519844 19.7672998 245.0625 22.5 C245.07796875 23.49 245.07796875 23.49 245.09375 24.5 C244.28034092 27.56224594 243.10706034 28.59168005 240.5625 30.5 C237.50821196 31.09631564 234.49106134 31.02213557 231.38775635 30.98101807 C230.44920516 30.98443577 229.51065397 30.98785347 228.54366183 30.99137473 C225.39110425 30.99797607 222.23939352 30.97593994 219.08691406 30.95410156 C216.83019531 30.95297357 214.5734751 30.95360599 212.3167572 30.95587158 C206.18276418 30.95702155 200.04908259 30.93346622 193.91516209 30.90557575 C187.50764599 30.8806093 181.10012315 30.87822385 174.69256592 30.87347412 C163.93544082 30.86244511 153.17845218 30.83744237 142.42138672 30.80175781 C131.34163994 30.76504104 120.26192424 30.73672767 109.18212891 30.71972656 C108.15767227 30.71815022 108.15767227 30.71815022 107.11251953 30.71654204 C103.68624995 30.71132188 100.25998014 30.70626705 96.83371019 30.70129442 C68.40989464 30.65982836 39.98620345 30.58907907 11.5625 30.5 C11.113302 31.67151611 11.113302 31.67151611 10.6550293 32.86669922 C8.40666903 38.28587549 4.36334484 42.32393807 -0.5 45.5 C-7.24031398 47.83318561 -16.32693456 47.87756782 -22.875 45 C-27.46835674 42.22814679 -32.56788863 37.66301602 -34.02172852 32.375 C-34.15893311 31.75625 -34.2961377 31.1375 -34.4375 30.5 C-35.09260559 30.50888245 -35.74771118 30.51776489 -36.42266846 30.5269165 C-43.23562909 30.6153505 -50.04842693 30.6757181 -56.86181641 30.71972656 C-59.40517803 30.73985272 -61.94849333 30.76715637 -64.49169922 30.80175781 C-68.14562404 30.8502297 -71.79893756 30.87295916 -75.453125 30.890625 C-76.59179016 30.91127014 -77.73045532 30.93191528 -78.90362549 30.95318604 C-79.96442322 30.95348816 -81.02522095 30.95379028 -82.11816406 30.95410156 C-83.05082092 30.96298401 -83.98347778 30.97186646 -84.94439697 30.98101807 C-88.19549901 30.35375205 -89.38118862 29.03494894 -91.4375 26.5 C-91.96875 24.5 -91.96875 24.5 -91.9375 22.5 C-91.95296875 21.51 -91.95296875 21.51 -91.96875 20.5 C-91.19495274 17.58688089 -89.73930902 16.40549532 -87.4375 14.5 C-84.94439697 14.01898193 -84.94439697 14.01898193 -82.11816406 14.04589844 C-81.05736633 14.04620056 -79.9965686 14.04650269 -78.90362549 14.04681396 C-77.76496033 14.06745911 -76.62629517 14.08810425 -75.453125 14.109375 C-74.28239441 14.11503479 -73.11166382 14.12069458 -71.90545654 14.12652588 C-68.165722 14.14891875 -64.42694503 14.1991232 -60.6875 14.25 C-58.15235758 14.27006111 -55.61720015 14.28831256 -53.08203125 14.3046875 C-46.86686071 14.34879322 -40.65224876 14.41573546 -34.4375 14.5 C-34.13279785 13.71375244 -33.8280957 12.92750488 -33.51416016 12.11743164 C-31.12158742 6.30092999 -26.6615857 1.71685346 -20.90625 -0.83984375 C-14.26214251 -2.61651173 -6.38219195 -2.78676607 0 0 Z M-16.8125 17.125 C-18.92456506 20.21186432 -19.04945145 21.8282913 -18.4375 25.5 C-16.9375 28 -16.9375 28 -14.4375 29.5 C-10.7657913 30.11195145 -9.14936432 29.98706506 -6.0625 27.875 C-3.95043494 24.78813568 -3.82554855 23.1717087 -4.4375 19.5 C-5.9375 17 -5.9375 17 -8.4375 15.5 C-12.1092087 14.88804855 -13.72563568 15.01293494 -16.8125 17.125 Z " fill="#0f0" transform="translate(187.4375,321.5)"/>
<path d="M0 0 C1.18142578 -0.01891296 1.18142578 -0.01891296 2.38671875 -0.03820801 C3.22847656 -0.03011108 4.07023437 -0.02201416 4.9375 -0.01367188 C5.81019531 -0.01749878 6.68289063 -0.02132568 7.58203125 -0.02526855 C9.42449092 -0.02798678 11.26698924 -0.02063182 13.109375 -0.00390625 C15.92795934 0.01750565 18.74399485 -0.00370989 21.5625 -0.02929688 C23.35417229 -0.02665358 25.14584299 -0.02152857 26.9375 -0.01367188 C27.77925781 -0.0217688 28.62101562 -0.02986572 29.48828125 -0.03820801 C30.27589844 -0.02559937 31.06351562 -0.01299072 31.875 0 C32.90947266 0.00477356 32.90947266 0.00477356 33.96484375 0.00964355 C36.8788226 0.75995704 38.04253338 2.214642 39.9375 4.51757812 C40.44086456 7.12255859 40.44086456 7.12255859 40.44543457 10.13476562 C40.45671387 11.27880859 40.46799316 12.42285156 40.47961426 13.6015625 C40.47151733 14.85259766 40.46342041 16.10363281 40.45507812 17.39257812 C40.46049968 18.72657027 40.46762254 20.06055643 40.47631836 21.39453125 C40.49455113 25.0144316 40.48748474 28.63387587 40.47480202 32.25378418 C40.46467395 36.04224882 40.47406715 39.83067445 40.48034668 43.61914062 C40.48762368 49.98119111 40.47803413 56.34305584 40.45898438 62.70507812 C40.43721536 70.0601795 40.44426671 77.41483736 40.46629 84.76992798 C40.48444262 91.0851318 40.48700305 97.40020211 40.47653532 103.71542358 C40.47029956 107.48711415 40.46946682 111.25859626 40.48268127 115.03027344 C40.49423735 118.57630165 40.48621944 122.12175815 40.46310425 125.66772461 C40.45529314 127.589673 40.46717522 129.51166974 40.47961426 131.43359375 C40.46833496 132.57763672 40.45705566 133.72167969 40.44543457 134.90039062 C40.44392647 135.89441895 40.44241837 136.88844727 40.44086456 137.91259766 C39.79894336 141.23462767 38.53997666 142.42634478 35.9375 144.51757812 C33.96484375 145.0255127 33.96484375 145.0255127 31.875 145.03515625 C31.08738281 145.04776489 30.29976563 145.06037354 29.48828125 145.07336426 C28.64652344 145.06526733 27.80476563 145.05717041 26.9375 145.04882812 C26.06480469 145.05265503 25.19210937 145.05648193 24.29296875 145.0604248 C22.45050908 145.06314303 20.60801076 145.05578807 18.765625 145.0390625 C15.94704066 145.0176506 13.13100515 145.03886614 10.3125 145.06445312 C8.52082771 145.06180983 6.72915701 145.05668482 4.9375 145.04882812 C4.09574219 145.05692505 3.25398438 145.06502197 2.38671875 145.07336426 C1.59910156 145.06075562 0.81148438 145.04814697 0 145.03515625 C-1.03447266 145.03038269 -1.03447266 145.03038269 -2.08984375 145.0255127 C-5.0038226 144.27519921 -6.16753338 142.82051425 -8.0625 140.51757812 C-8.56586456 137.91259766 -8.56586456 137.91259766 -8.57043457 134.90039062 C-8.58171387 133.75634766 -8.59299316 132.61230469 -8.60461426 131.43359375 C-8.59651733 130.18255859 -8.58842041 128.93152344 -8.58007812 127.64257812 C-8.58549968 126.30858598 -8.59262254 124.97459982 -8.60131836 123.640625 C-8.61955113 120.02072465 -8.61248474 116.40128038 -8.59980202 112.78137207 C-8.58967395 108.99290743 -8.59906715 105.2044818 -8.60534668 101.41601562 C-8.61262368 95.05396514 -8.60303413 88.69210041 -8.58398438 82.33007812 C-8.56221536 74.97497675 -8.56926671 67.62031889 -8.59129 60.26522827 C-8.60944262 53.95002445 -8.61200305 47.63495414 -8.60153532 41.31973267 C-8.59529956 37.5480421 -8.59446682 33.77655999 -8.60768127 30.00488281 C-8.61923735 26.4588546 -8.61121944 22.9133981 -8.58810425 19.36743164 C-8.58029314 17.44548325 -8.59217522 15.52348651 -8.60461426 13.6015625 C-8.59333496 12.45751953 -8.58205566 11.31347656 -8.57043457 10.13476562 C-8.56892647 9.1407373 -8.56741837 8.14670898 -8.56586456 7.12255859 C-7.65943733 2.43167366 -4.70902096 0.02172971 0 0 Z M7.9375 16.51757812 C7.9375 21.79757813 7.9375 27.07757813 7.9375 32.51757812 C13.2175 32.51757812 18.4975 32.51757812 23.9375 32.51757812 C23.9375 27.23757812 23.9375 21.95757812 23.9375 16.51757812 C18.6575 16.51757812 13.3775 16.51757812 7.9375 16.51757812 Z M7.9375 48.51757812 C7.9375 53.79757813 7.9375 59.07757813 7.9375 64.51757812 C13.2175 64.51757812 18.4975 64.51757812 23.9375 64.51757812 C23.9375 59.23757812 23.9375 53.95757812 23.9375 48.51757812 C18.6575 48.51757812 13.3775 48.51757812 7.9375 48.51757812 Z M7.9375 80.51757812 C7.9375 85.79757813 7.9375 91.07757813 7.9375 96.51757812 C13.2175 96.51757812 18.4975 96.51757812 23.9375 96.51757812 C23.9375 91.23757813 23.9375 85.95757812 23.9375 80.51757812 C18.6575 80.51757812 13.3775 80.51757812 7.9375 80.51757812 Z M7.9375 112.51757812 C7.9375 117.79757812 7.9375 123.07757813 7.9375 128.51757812 C13.2175 128.51757812 18.4975 128.51757812 23.9375 128.51757812 C23.9375 123.23757813 23.9375 117.95757812 23.9375 112.51757812 C18.6575 112.51757812 13.3775 112.51757812 7.9375 112.51757812 Z " fill="#0f0" transform="translate(424.0625,167.482421875)"/>
<path d="M0 0 C0.66944261 -0.00623996 1.33888523 -0.01247993 2.02861398 -0.01890898 C4.27109788 -0.03485917 6.51249774 -0.02222758 8.75498962 -0.00964355 C10.36333348 -0.01506418 11.97167236 -0.02218651 13.58000183 -0.03088379 C17.95032242 -0.04913757 22.32026572 -0.04203853 26.690593 -0.02936745 C31.26988442 -0.01923818 35.84914359 -0.02863406 40.42843628 -0.03491211 C48.12637622 -0.04219388 55.82416281 -0.03259233 63.52207947 -0.0135498 C72.40276388 0.00816591 81.28308018 0.00120843 90.16375548 -0.02085543 C97.79794703 -0.03905908 105.43202826 -0.04154194 113.06623453 -0.03110075 C117.62117338 -0.02488605 122.17593983 -0.02397305 126.73086739 -0.0372467 C131.02132319 -0.04887504 135.31130954 -0.04065319 139.60171509 -0.01766968 C141.16933351 -0.01241729 142.73699199 -0.01383629 144.30459404 -0.02272034 C157.75878741 -0.09188664 168.34979886 1.98151016 178.32896423 11.50793457 C188.31005847 21.96337784 189.92976408 33.15499064 189.84654236 47.10534668 C189.85197354 48.64726418 189.85910175 50.18917648 189.86778259 51.7310791 C189.88589006 55.88565399 189.87900388 60.03982797 189.86626625 64.19440913 C189.85608567 68.55271725 189.86554471 72.91099279 189.87181091 77.26930237 C189.87906725 84.57815679 189.86954703 91.88684896 189.85044861 99.19567871 C189.82862658 107.64437789 189.83577777 116.09269172 189.85775423 124.54138178 C189.87589779 131.80788152 189.87847341 139.07426525 189.86799955 146.34078032 C189.86176618 150.675742 189.86092581 155.01052232 189.87414551 159.34547234 C189.88569027 163.41440058 189.87770401 167.48283011 189.85456848 171.55170441 C189.84927642 173.04486576 189.85080372 174.53806905 189.85961914 176.03121376 C189.87053518 178.06766391 189.8544242 180.10420574 189.8368988 182.14060974 C189.8353907 183.28040755 189.8338826 184.42020536 189.8323288 185.5945425 C189.21907169 189.14397473 188.13152166 190.3185831 185.32896423 192.50793457 C183.32896423 193.03918457 183.32896423 193.03918457 181.32896423 193.00793457 C180.33896423 193.02340332 180.33896423 193.02340332 179.32896423 193.03918457 C176.39194772 192.25903956 175.23332647 190.84943015 173.32896423 188.50793457 C172.82674217 185.72951221 172.82674217 185.72951221 172.82344055 182.46882629 C172.81241806 181.23103928 172.80139557 179.99325226 172.79003906 178.71795654 C172.79794182 177.34887487 172.80620908 175.97979527 172.81480408 174.61071777 C172.80934289 173.16661328 172.80210125 171.72251459 172.79321289 170.27842712 C172.77787083 167.16921962 172.77507586 164.06034213 172.78197861 160.95110512 C172.79276751 156.02925867 172.77537826 151.10775657 172.75416565 146.18595886 C172.72389161 138.39466028 172.71221029 130.6034636 172.7085892 122.81211108 C172.70195014 108.87766362 172.67281079 94.94328788 172.62349284 81.00892705 C172.60704727 76.12244123 172.60156816 71.2361036 172.60508323 66.3495928 C172.60552235 63.29975259 172.59792451 60.24996759 172.58840752 57.20014381 C172.58573975 55.79293543 172.58645071 54.38571564 172.59091759 52.97851181 C172.62127027 42.69984577 172.55561203 34.01768656 166.32896423 25.50793457 C166.32896423 24.84793457 166.32896423 24.18793457 166.32896423 23.50793457 C165.79271423 23.23980957 165.25646423 22.97168457 164.70396423 22.69543457 C162.95346827 21.82018659 161.22728966 20.89589314 159.51646423 19.94543457 C154.07259459 17.4903561 148.49706199 17.38315267 142.59173584 17.37663269 C140.61706078 17.37062042 140.61706078 17.37062042 138.60249329 17.36448669 C137.16081236 17.36496167 135.71913145 17.36549776 134.27745056 17.36608887 C132.74598084 17.36305397 131.21451202 17.3595316 129.68304443 17.3555603 C126.39554559 17.34769942 123.10805746 17.34253718 119.82055092 17.33926964 C114.6226942 17.33334125 109.42490526 17.31678612 104.2270813 17.29792786 C102.44546608 17.29159153 100.66385082 17.28526589 98.88223553 17.27895069 C97.99038693 17.27578488 97.09853833 17.27261907 96.17966402 17.26935732 C84.08531806 17.22730901 71.99100547 17.19427501 59.89659119 17.18200684 C51.72756485 17.17363554 43.55870827 17.15118656 35.38976687 17.11265117 C31.06927323 17.09287249 26.74903342 17.08049223 22.42849159 17.08548546 C18.36945658 17.09012019 14.31090415 17.07639164 10.25196648 17.04847336 C8.76204131 17.04154388 7.27206643 17.04145389 5.78214264 17.04867363 C3.74983943 17.05752814 1.71747188 17.03955842 -0.3147583 17.02018738 C-1.45237704 17.01779902 -2.58999578 17.01541067 -3.76208782 17.01294994 C-7.30743116 16.39745151 -8.48310856 15.30712579 -10.67103577 12.50793457 C-11.20228577 10.50793457 -11.20228577 10.50793457 -11.17103577 8.50793457 C-11.18650452 7.51793457 -11.18650452 7.51793457 -11.20228577 6.50793457 C-9.65307117 0.67559728 -5.38363294 0.00677271 0 0 Z " fill="#0f0" transform="translate(306.67103576660156,63.4920654296875)"/>
<path d="M0 0 C0.87269531 -0.0038269 1.74539062 -0.00765381 2.64453125 -0.01159668 C4.48699092 -0.0143149 6.32948924 -0.00695994 8.171875 0.00976562 C10.99045934 0.03117752 13.80649485 0.00996199 16.625 -0.015625 C18.41667229 -0.01298171 20.20834299 -0.00785669 22 0 C22.84175781 -0.00809692 23.68351562 -0.01619385 24.55078125 -0.02453613 C30.38715618 0.06889601 30.38715618 0.06889601 33.52929688 2.43945312 C35.12144695 4.7039853 35.542797 5.7922417 35.5 8.53125 C35.5103125 9.19125 35.520625 9.85125 35.53125 10.53125 C34.72011424 13.58493756 33.53019712 14.62236769 31 16.53125 C28.00263779 17.13239553 25.04890723 17.09182764 22 17.0625 C21.12730469 17.0663269 20.25460938 17.07015381 19.35546875 17.07409668 C17.51300908 17.0768149 15.67051076 17.06945994 13.828125 17.05273438 C11.00954066 17.03132248 8.19350515 17.05253801 5.375 17.078125 C3.58332771 17.07548171 1.79165701 17.07035669 0 17.0625 C-0.84175781 17.07059692 -1.68351562 17.07869385 -2.55078125 17.08703613 C-8.38715618 16.99360399 -8.38715618 16.99360399 -11.52929688 14.62304688 C-13.12144695 12.3585147 -13.542797 11.2702583 -13.5 8.53125 C-13.51546875 7.54125 -13.51546875 7.54125 -13.53125 6.53125 C-11.69061453 -0.39820116 -5.94975317 -0.05723107 0 0 Z " fill="#0f0" transform="translate(61,215.46875)"/>
<path d="M0 0 C0.87269531 -0.0038269 1.74539062 -0.00765381 2.64453125 -0.01159668 C4.48699092 -0.0143149 6.32948924 -0.00695994 8.171875 0.00976562 C10.99045934 0.03117752 13.80649485 0.00996199 16.625 -0.015625 C18.41667229 -0.01298171 20.20834299 -0.00785669 22 0 C22.84175781 -0.00809692 23.68351562 -0.01619385 24.55078125 -0.02453613 C30.38715618 0.06889601 30.38715618 0.06889601 33.52929688 2.43945312 C35.12144695 4.7039853 35.542797 5.7922417 35.5 8.53125 C35.5103125 9.19125 35.520625 9.85125 35.53125 10.53125 C34.72011424 13.58493756 33.53019712 14.62236769 31 16.53125 C28.00263779 17.13239553 25.04890723 17.09182764 22 17.0625 C21.12730469 17.0663269 20.25460938 17.07015381 19.35546875 17.07409668 C17.51300908 17.0768149 15.67051076 17.06945994 13.828125 17.05273438 C11.00954066 17.03132248 8.19350515 17.05253801 5.375 17.078125 C3.58332771 17.07548171 1.79165701 17.07035669 0 17.0625 C-0.84175781 17.07059692 -1.68351562 17.07869385 -2.55078125 17.08703613 C-8.38715618 16.99360399 -8.38715618 16.99360399 -11.52929688 14.62304688 C-13.12144695 12.3585147 -13.542797 11.2702583 -13.5 8.53125 C-13.51546875 7.54125 -13.51546875 7.54125 -13.53125 6.53125 C-11.69061453 -0.39820116 -5.94975317 -0.05723107 0 0 Z " fill="#0f0" transform="translate(61,183.46875)"/>
<path d="M0 0 C0.87269531 -0.0038269 1.74539062 -0.00765381 2.64453125 -0.01159668 C4.48699092 -0.0143149 6.32948924 -0.00695994 8.171875 0.00976562 C10.99045934 0.03117752 13.80649485 0.00996199 16.625 -0.015625 C18.41667229 -0.01298171 20.20834299 -0.00785669 22 0 C22.84175781 -0.00809692 23.68351562 -0.01619385 24.55078125 -0.02453613 C30.38715618 0.06889601 30.38715618 0.06889601 33.52929688 2.43945312 C35.12144695 4.7039853 35.542797 5.7922417 35.5 8.53125 C35.5103125 9.19125 35.520625 9.85125 35.53125 10.53125 C34.72011424 13.58493756 33.53019712 14.62236769 31 16.53125 C28.00263779 17.13239553 25.04890723 17.09182764 22 17.0625 C21.12730469 17.0663269 20.25460938 17.07015381 19.35546875 17.07409668 C17.51300908 17.0768149 15.67051076 17.06945994 13.828125 17.05273438 C11.00954066 17.03132248 8.19350515 17.05253801 5.375 17.078125 C3.58332771 17.07548171 1.79165701 17.07035669 0 17.0625 C-0.84175781 17.07059692 -1.68351562 17.07869385 -2.55078125 17.08703613 C-8.38715618 16.99360399 -8.38715618 16.99360399 -11.52929688 14.62304688 C-13.12144695 12.3585147 -13.542797 11.2702583 -13.5 8.53125 C-13.51546875 7.54125 -13.51546875 7.54125 -13.53125 6.53125 C-11.69061453 -0.39820116 -5.94975317 -0.05723107 0 0 Z " fill="#0f0" transform="translate(61,151.46875)"/>
<path d="M0 0 C1.04269043 -0.00574036 1.04269043 -0.00574036 2.10644531 -0.01159668 C3.57228041 -0.0143118 5.03816428 -0.00697835 6.50390625 0.00976562 C8.74328975 0.03118581 10.97946587 0.00995557 13.21875 -0.015625 C14.64584039 -0.01298165 16.07292879 -0.0078565 17.5 0 C19.44132812 0.00676758 19.44132812 0.00676758 21.421875 0.01367188 C25.25919979 0.61043894 26.44070951 1.47408051 28.75 4.53125 C29.28125 6.53125 29.28125 6.53125 29.25 8.53125 C29.2603125 9.19125 29.270625 9.85125 29.28125 10.53125 C28.48927074 13.51281897 27.16446325 14.62735121 24.75 16.53125 C21.421875 17.04882812 21.421875 17.04882812 17.5 17.0625 C16.80487305 17.0663269 16.10974609 17.07015381 15.39355469 17.07409668 C13.92771959 17.0768118 12.46183572 17.06947835 10.99609375 17.05273438 C8.75671025 17.03131419 6.52053413 17.05254443 4.28125 17.078125 C2.85415961 17.07548165 1.42707121 17.0703565 0 17.0625 C-1.29421875 17.05798828 -2.5884375 17.05347656 -3.921875 17.04882812 C-7.75919979 16.45206106 -8.94070951 15.58841949 -11.25 12.53125 C-11.78125 10.53125 -11.78125 10.53125 -11.75 8.53125 C-11.76546875 7.54125 -11.76546875 7.54125 -11.78125 6.53125 C-10.16044839 0.42940865 -5.57509951 0.01943511 0 0 Z " fill="#0f0" transform="translate(59.25,247.46875)"/>
<path d="M0 0 C1.051875 -0.00515625 2.10375 -0.0103125 3.1875 -0.015625 C4.280625 -0.00015625 5.37375 0.0153125 6.5 0.03125 C8.1396875 0.00804687 8.1396875 0.00804687 9.8125 -0.015625 C10.864375 -0.01046875 11.91625 -0.0053125 13 0 C14.43859375 0.00676758 14.43859375 0.00676758 15.90625 0.01367188 C19.21298564 0.673525 20.40908706 1.94238555 22.5 4.53125 C23.03125 6.53125 23.03125 6.53125 23 8.53125 C23.0103125 9.19125 23.020625 9.85125 23.03125 10.53125 C22.2561666 13.44921104 20.80895833 14.6243588 18.5 16.53125 C15.90625 17.04882812 15.90625 17.04882812 13 17.0625 C11.948125 17.06765625 10.89625 17.0728125 9.8125 17.078125 C8.719375 17.06265625 7.62625 17.0471875 6.5 17.03125 C4.8603125 17.05445313 4.8603125 17.05445313 3.1875 17.078125 C2.135625 17.07296875 1.08375 17.0678125 0 17.0625 C-0.9590625 17.05798828 -1.918125 17.05347656 -2.90625 17.04882812 C-6.21298564 16.388975 -7.40908706 15.12011445 -9.5 12.53125 C-10.03125 10.53125 -10.03125 10.53125 -10 8.53125 C-10.01546875 7.54125 -10.01546875 7.54125 -10.03125 6.53125 C-8.65240655 1.34030994 -4.94094259 0.02324368 0 0 Z " fill="#0f0" transform="translate(57.5,279.46875)"/>
</svg>