<svg version="1.1" xmlns="http://www.w3.org/2000/svg" width="512px" height="512px" transform="rotate(0) scale(1, 1)">
<path d="M0 0 C1.42672122 -0.00524466 2.85343897 -0.0115242 4.28015137 -0.01878357 C7.25903735 -0.02914796 10.23744446 -0.0246835 13.21630859 -0.01000977 C17.01605017 0.00718456 20.81428034 -0.01634341 24.61385345 -0.05149937 C27.55663898 -0.07355626 30.4990673 -0.07201235 33.44190979 -0.06373405 C34.84202229 -0.06291927 36.24216228 -0.06969144 37.64219666 -0.08450508 C45.73553577 -0.15703731 52.06082362 -0.02242416 58.28125 5.56640625 C63.22482698 10.77017149 64.54987832 15.2693042 64.40625 22.37890625 C64.38820313 23.54035156 64.37015625 24.70179687 64.3515625 25.8984375 C64.32835937 26.77886719 64.30515625 27.65929687 64.28125 28.56640625 C65.35439453 28.53498535 65.35439453 28.53498535 66.44921875 28.50292969 C69.72641652 28.41919792 73.00338841 28.36756574 76.28125 28.31640625 C77.40660156 28.28289063 78.53195312 28.249375 79.69140625 28.21484375 C86.74598924 28.13233401 91.30763112 28.72372744 97.28125 32.56640625 C99.40015939 34.84830867 100.89798269 36.79987164 102.28125 39.56640625 C103.21117767 39.57227249 104.14110535 39.57813873 105.09921265 39.58418274 C113.89651824 39.6422748 122.69357439 39.71444539 131.49063683 39.80212116 C136.01245693 39.84669954 140.53418952 39.88598271 145.05615234 39.9128418 C149.4265 39.93900055 153.79650864 39.9794902 158.16664505 40.02959251 C159.82740664 40.04617671 161.48822676 40.05774326 163.1490593 40.06402016 C174.55885022 40.11147335 185.25409917 40.24836914 194.5234375 47.75390625 C200.65889367 54.08024328 202.40060442 61.01477891 202.42651367 69.56640625 C202.43155159 70.61103027 202.43155159 70.61103027 202.43669128 71.67675781 C202.44617183 73.97332555 202.44814274 76.26982018 202.44921875 78.56640625 C202.45243266 80.16536489 202.45579684 81.76432323 202.45930481 83.36328125 C202.46528833 86.71224652 202.46714544 90.06118601 202.46655273 93.41015625 C202.466451 97.70091443 202.48011829 101.99150754 202.49732494 106.28222656 C202.5084422 109.58334106 202.51047205 112.88441557 202.50994301 116.18554688 C202.51112296 117.76758393 202.51554557 119.34962202 202.52327538 120.93164062 C202.53307251 123.14334711 202.53019878 125.35469398 202.52416992 127.56640625 C202.52559494 128.82453125 202.52701996 130.08265625 202.52848816 131.37890625 C202.2937214 134.40561958 201.9392207 136.06560921 200.28125 138.56640625 C197.60491974 140.64799645 196.16371332 140.56228216 192.71875 140.44140625 C189.28125 139.56640625 189.28125 139.56640625 187.59144592 137.9357605 C185.83521084 134.75979041 185.89571914 132.40550584 185.88061523 128.78173828 C185.87363617 128.10804199 185.8666571 127.4343457 185.85946655 126.74023438 C185.83950841 124.51810137 185.83999004 122.29643338 185.83984375 120.07421875 C185.82806772 118.52487948 185.81470294 116.97555155 185.79981995 115.42623901 C185.76363524 111.34821442 185.74343635 107.2702902 185.72827148 103.19213867 C185.70344684 96.67216853 185.66362937 90.15242043 185.60637093 83.6326561 C185.59010313 81.36044826 185.58626945 79.08845139 185.58335876 76.81619263 C185.57357621 75.41407922 185.56331191 74.01196906 185.55249023 72.60986328 C185.54821518 71.39170929 185.54394012 70.1735553 185.53953552 68.91848755 C185.26249018 65.32293757 184.97497253 62.76748125 183.28125 59.56640625 C178.52582818 57.52863385 174.0055146 57.30163575 168.87719727 57.24755859 C168.173918 57.23751297 167.47063873 57.22746735 166.74604797 57.21711731 C164.44659157 57.18649451 162.14725042 57.16930916 159.84765625 57.15234375 C158.24339317 57.13361521 156.63913977 57.11404056 155.03489685 57.09365845 C150.83136724 57.04250914 146.62780576 57.00279184 142.4241333 56.96551514 C138.12707749 56.92536714 133.83015232 56.87432425 129.53320312 56.82421875 C121.11596843 56.72766328 112.69867901 56.64420193 104.28125 56.56640625 C104.28125 61.18640625 104.28125 65.80640625 104.28125 70.56640625 C105.8804126 70.55593262 107.4795752 70.54545898 109.12719727 70.53466797 C115.0741145 70.49840093 121.02102199 70.47548124 126.96801758 70.45654297 C129.53932338 70.4465007 132.1106178 70.4328643 134.68188477 70.41552734 C138.38300387 70.39120141 142.08397164 70.37990516 145.78515625 70.37109375 C146.93021133 70.36077118 148.07526642 70.35044861 149.25502014 70.33981323 C162.57096747 70.33795172 162.57096747 70.33795172 168.09375 74.87890625 C172.82400866 80.69036689 172.58483017 86.11477654 172.60009766 93.32348633 C172.61014328 94.40686279 172.6201889 95.49023926 172.63053894 96.60644531 C172.66139899 100.18293738 172.67841418 103.75935448 172.6953125 107.3359375 C172.71402185 109.81744533 172.73359508 112.29894679 172.7539978 114.78044128 C172.80534949 121.30862674 172.84495913 127.83683282 172.88214111 134.3651123 C172.92110445 141.02797037 172.97326291 147.69073433 173.0234375 154.35351562 C173.12023283 167.42441766 173.20500251 180.49536903 173.28125 193.56640625 C173.77939209 192.77768127 173.77939209 192.77768127 174.28759766 191.97302246 C182.0703125 179.65039063 182.0703125 179.65039063 183.67280579 177.11312866 C184.75305942 175.40271426 185.8332898 173.69228518 186.91349792 171.98184204 C187.43470718 171.15654999 187.95591644 170.33125793 188.49291992 169.48095703 C189.1899427 168.37725266 189.1899427 168.37725266 189.90104675 167.25125122 C191.35662899 164.94708222 192.8130316 162.64343292 194.26953125 160.33984375 C196.31635961 157.09986585 198.35431395 153.85451224 200.38671875 150.60546875 C202.87599331 146.62883497 205.3867296 142.66659062 207.91455078 138.71435547 C208.79031442 137.33797667 209.65914768 135.95714873 210.51904297 134.57080078 C215.64883946 126.30935495 220.89401628 119.398809 230.78515625 116.9453125 C245.2279021 114.7529082 255.99928159 121.26923045 267.28125 129.56640625 C273.06450351 134.79061192 276.77301526 140.11675928 277.6640625 147.91796875 C278.10034436 157.231638 276.26917419 163.68646087 271.28125 171.56640625 C270.79785156 172.34371094 270.31445312 173.12101563 269.81640625 173.921875 C266.28775124 179.58295462 262.68734542 185.19563138 259.06542969 190.79736328 C256.44194319 194.86900858 253.86066012 198.96675357 251.28125 203.06640625 C246.96555432 209.91102163 242.62846254 216.74176915 238.28125 223.56640625 C232.41487387 232.77685753 226.57451967 242.00339653 220.74902344 251.23974609 C217.76026427 255.97741657 214.76796078 260.7128495 211.77636719 265.44873047 C209.30030673 269.36875731 206.8250165 273.28926544 204.3515625 277.2109375 C200.14425677 283.87972675 195.93426569 290.54657453 191.6953125 297.1953125 C191.0854248 298.15203857 190.47553711 299.10876465 189.84716797 300.09448242 C188.68309007 301.91947737 187.51813068 303.74391054 186.35205078 305.56762695 C185.27489035 307.25609268 184.20670302 308.95032573 183.14877605 310.65090847 C181.89455951 312.608935 180.58678761 314.5335813 179.23056507 316.42238712 C173.57295285 324.66329888 172.14256652 331.22130644 172.32885742 341.25756836 C172.32615491 342.67831484 172.31988336 344.09905823 172.31036377 345.51977539 C172.29761236 348.55071693 172.30963403 351.58012076 172.34190941 354.61091423 C172.39291626 359.40678161 172.38749459 364.20163281 172.37532043 368.99769592 C172.36271289 376.58002271 172.38795853 384.16167247 172.42934066 391.7438789 C172.50249775 405.33609847 172.51519627 418.92841822 172.50718576 432.52081114 C172.50594302 437.28536699 172.52279812 442.04941599 172.55483377 446.81386077 C172.57231655 449.7750322 172.57784217 452.73614681 172.58062744 455.69736481 C172.5864904 457.71910108 172.60755761 459.74077544 172.62910461 461.7624054 C172.62812775 462.97191864 172.62715088 464.18143188 172.62614441 465.42759705 C172.63192599 466.47446151 172.63770758 467.52132597 172.64366436 468.5999136 C172.03316517 473.59707031 170.0902626 476.63172091 166.82678986 480.40214443 C162.31424731 483.84994525 156.98920646 483.25252842 151.5526123 483.19459534 C150.36340541 483.20168972 149.17419852 483.20878411 147.94895506 483.21609348 C144.65572132 483.23063724 141.36392839 483.22279145 138.07080054 483.20537055 C134.51652614 483.19199205 130.96236023 483.20743531 127.40809631 483.2191925 C120.44845598 483.23756999 113.48909643 483.2290562 106.52946484 483.21110428 C100.87317429 483.19707763 95.21695996 483.19318561 89.56065369 483.19654655 C88.75556884 483.197024 87.950484 483.19750144 87.12100264 483.19799335 C85.48547922 483.19901968 83.84995581 483.20007504 82.21443242 483.20115911 C67.75276205 483.20972639 53.29122723 483.19305032 38.82958984 483.16333008 C24.79730536 483.13449259 10.76521614 483.12740908 -3.26708984 483.14282227 C-18.54797369 483.15958392 -33.82876483 483.16361901 -49.10965109 483.14611191 C-50.73915194 483.14426752 -52.36865281 483.14243279 -53.99815369 483.14060783 C-54.79989558 483.13969574 -55.60163746 483.13878365 -56.42767456 483.13784393 C-62.07704817 483.1322383 -67.72637652 483.13554595 -73.37574768 483.14215279 C-80.26065216 483.1498849 -87.14536442 483.1431379 -94.03023016 483.11797775 C-97.54292334 483.10547971 -101.05531724 483.09933959 -104.56802177 483.11051941 C-108.37557015 483.1224088 -112.182602 483.1033076 -115.9901123 483.08106995 C-117.10080849 483.08931071 -118.21150468 483.09755148 -119.35585833 483.10604197 C-125.27511425 483.0420502 -129.1795114 482.78361791 -133.71875 478.56640625 C-136.64710321 474.57522147 -137.09426247 471.7375806 -137.09627342 466.82750702 C-137.10281391 465.82580387 -137.10281391 465.82580387 -137.10948652 464.8038643 C-137.12045094 462.56202994 -137.11001568 460.32080956 -137.09970093 458.07897949 C-137.10315703 456.45717793 -137.10792128 454.83537871 -137.11388266 453.21358442 C-137.12642885 448.75365198 -137.12020586 444.29391163 -137.11092401 439.83397841 C-137.10414865 435.02545974 -137.11460722 430.21697458 -137.12286377 425.40846252 C-137.13621949 415.98726781 -137.13331518 406.56614471 -137.12462585 397.14494717 C-137.11785694 389.48968678 -137.11692914 381.83444649 -137.1201973 374.17918396 C-137.12088684 372.54629011 -137.12088684 372.54629011 -137.12159032 370.8804085 C-137.12254948 368.66910382 -137.12352212 366.45779914 -137.1245081 364.24649447 C-137.13306738 343.50002911 -137.12321942 322.75360348 -137.107107 302.00714463 C-137.09370334 284.19696323 -137.09603128 266.38684049 -137.10986328 248.57666016 C-137.12590959 227.90557975 -137.13224335 207.23453419 -137.12302649 186.56344843 C-137.12207082 184.36017514 -137.12112771 182.15690184 -137.1201973 179.95362854 C-137.11973447 178.8695117 -137.11927164 177.78539487 -137.11879479 176.66842601 C-137.11620205 169.02035148 -137.12058201 161.37229902 -137.12763596 153.72422791 C-137.13604061 144.40666349 -137.13379262 135.08917491 -137.11779372 125.7716192 C-137.10989707 121.01559675 -137.10684312 116.25970085 -137.11674118 111.50367928 C-137.12565976 107.15256726 -137.12080224 102.8016995 -137.10480852 98.45060974 C-137.10144866 96.87396711 -137.10318175 95.29730398 -137.11043589 93.72067446 C-137.11952391 91.5819224 -137.11023782 89.44401315 -137.09627342 87.30530548 C-137.09578637 86.11607373 -137.09529931 84.92684197 -137.09479749 83.7015729 C-136.53490657 79.03367484 -134.70572566 76.50143582 -131.34375 73.31640625 C-127.15846224 70.52621441 -123.13005496 70.44132123 -118.1940918 70.45288086 C-117.11334885 70.45295639 -116.0326059 70.45303192 -114.91911316 70.45310974 C-113.18604668 70.46085167 -113.18604668 70.46085167 -111.41796875 70.46875 C-109.63070122 70.47087242 -109.63070122 70.47087242 -107.80732727 70.47303772 C-104.00694249 70.47862897 -100.20661693 70.49117993 -96.40625 70.50390625 C-93.82747481 70.50892238 -91.2486987 70.51348509 -88.66992188 70.51757812 C-82.35284182 70.52859555 -76.03580594 70.54585424 -69.71875 70.56640625 C-69.71875 65.94640625 -69.71875 61.32640625 -69.71875 56.56640625 C-79.00296807 56.62938667 -88.28685642 56.70484947 -97.5707798 56.80212116 C-101.88196559 56.8467958 -106.19305752 56.88605823 -110.50439453 56.9128418 C-114.66725242 56.93890394 -118.82974854 56.97932665 -122.99238205 57.02959251 C-124.57829657 57.04624161 -126.16427363 57.05776807 -127.75026321 57.06402016 C-129.97663294 57.07368287 -132.20208126 57.10176613 -134.42822266 57.1340332 C-136.32684555 57.15068779 -136.32684555 57.15068779 -138.26382446 57.16767883 C-142.06620231 57.60650516 -144.47951335 58.55142396 -147.71875 60.56640625 C-150.19595774 64.28221785 -149.9721141 66.14999139 -149.97881222 70.59020042 C-149.98261789 71.31309954 -149.98642356 72.03599865 -149.99034455 72.7808038 C-150.00071465 75.22197238 -149.99674427 77.66291078 -149.99290466 80.10409546 C-149.99735413 81.86441324 -150.00266721 83.62472902 -150.00877339 85.38504183 C-150.02299869 90.23709807 -150.02461582 95.08909039 -150.02417648 99.94116449 C-150.02582069 105.16826366 -150.0388797 110.39533619 -150.05036926 115.62242126 C-150.07324837 127.05816465 -150.08114286 138.49388952 -150.08619571 149.92965269 C-150.08944906 157.06579205 -150.0959693 164.20192599 -150.1031971 171.33806229 C-150.12276608 191.08383956 -150.13916879 210.8296118 -150.14207363 230.5753994 C-150.1422612 231.83970623 -150.14244877 233.10401306 -150.14264202 234.40663222 C-150.14300828 236.96984744 -150.14337198 239.53306266 -150.14373314 242.09627788 C-150.14391595 243.36871516 -150.14409876 244.64115245 -150.14428711 245.95214844 C-150.14446766 247.22613289 -150.14464821 248.50011734 -150.14483423 249.81270738 C-150.14837761 270.46650435 -150.17540895 291.12019718 -150.212785 311.77395801 C-150.25082381 332.96294526 -150.27023078 354.15188076 -150.27053314 375.34090292 C-150.27111868 387.24425156 -150.27967258 399.14747594 -150.30853081 411.05079269 C-150.33298544 421.18455776 -150.34036766 431.31815325 -150.32528328 441.45193981 C-150.31809033 446.6252349 -150.31907416 451.79819474 -150.34169388 456.97145271 C-150.36218873 461.70394352 -150.35977297 466.43583931 -150.33881903 471.168323 C-150.33530587 472.88365853 -150.3403108 474.59903618 -150.35452347 476.31431644 C-150.37256199 478.64058325 -150.35998647 480.9647292 -150.33957577 483.29092979 C-150.34039022 484.58452962 -150.34120468 485.87812945 -150.34204382 487.21092927 C-149.55025241 491.47350619 -148.1039602 492.93462261 -144.71875 495.56640625 C-141.64875084 496.81729997 -138.60145464 496.69261197 -135.30822945 496.6950407 C-134.20321244 496.69826515 -133.09819544 496.7014896 -131.95969307 496.70481175 C-130.7458975 496.70326315 -129.53210192 496.70171455 -128.28152466 496.70011902 C-126.99193781 496.70238458 -125.70235096 496.70465013 -124.37368572 496.70698434 C-120.79140307 496.71310962 -117.20914373 496.71296789 -113.62685704 496.71178997 C-109.76446881 496.71158614 -105.90208811 496.71710294 -102.03970337 496.72184753 C-94.4716132 496.73015857 -86.90353083 496.73290258 -79.33543648 496.73345991 C-73.18474252 496.73393485 -67.03405114 496.73598846 -60.883358 496.73916054 C-43.45072429 496.74796825 -26.01809675 496.75257972 -8.5854608 496.75183006 C-7.64540815 496.75179011 -6.7053555 496.75175015 -5.73681641 496.75170898 C-4.79561801 496.7516681 -3.85441961 496.75162722 -2.88470004 496.7515851 C12.3720053 496.75117857 27.62868598 496.76074962 42.88538419 496.77484735 C58.5452534 496.78920363 74.20511058 496.79611795 89.86498654 496.79525357 C98.65907465 496.79492135 107.45313689 496.7976795 116.24721909 496.80843163 C123.7341404 496.81752677 131.22102411 496.81971999 138.70794855 496.8129222 C142.52839869 496.80965204 146.34877665 496.80961816 150.16921997 496.81827545 C154.30955402 496.82756121 158.44972019 496.8213774 162.59005737 496.81364441 C163.79939151 496.81878797 165.00872564 496.82393154 166.25470626 496.82923096 C167.36493876 496.82463217 168.47517126 496.82003337 169.61904716 496.81529522 C170.57453355 496.81551259 171.53001993 496.81572996 172.51446044 496.81595391 C176.44084126 496.46181814 179.97408585 495.60312265 183.09375 493.12890625 C185.79134712 489.57943636 185.40596195 485.89958437 185.40582275 481.62684631 C185.4072329 480.91656719 185.40864305 480.20628807 185.41009593 479.47448534 C185.41375317 477.08852057 185.4104106 474.70261509 185.40722656 472.31665039 C185.40862113 470.60843357 185.41052031 468.90021709 185.41288757 467.19200134 C185.41738679 463.51046025 185.41924071 459.82893032 185.41934967 456.14738655 C185.42048876 450.32816356 185.43331725 444.50900419 185.44891357 438.68980408 C185.45148643 437.70828198 185.45405928 436.72675988 185.4567101 435.71549469 C185.46197665 433.70836444 185.46726214 431.70123423 185.47256613 429.69410408 C185.50770187 416.14412263 185.53422513 402.59422022 185.53173828 389.04418945 C185.53015143 379.90685872 185.54614331 370.76974465 185.58244491 361.63248342 C185.60093363 356.79545134 185.61022239 351.95878116 185.59796906 347.12172127 C185.58655896 342.57350509 185.59817311 338.0259377 185.62760353 333.477808 C185.6342611 331.80727564 185.6323483 330.13668421 185.62130547 328.46617508 C185.6074912 326.18765175 185.62425693 323.91133636 185.64874268 321.63294983 C185.65094252 319.71962152 185.65094252 319.71962152 185.6531868 317.76764011 C186.28125 314.56640625 186.28125 314.56640625 188.63328171 312.15990353 C191.91348478 310.18593931 193.5166267 309.86053938 197.28125 310.56640625 C200.60975613 313.18799852 202.11373103 314.67373176 202.90486908 318.88954544 C202.90380032 320.80086321 202.90380032 320.80086321 202.90270996 322.75079346 C202.90909878 323.46333715 202.9154876 324.17588085 202.92207003 324.91001678 C202.93730403 327.29247451 202.91687121 329.67326483 202.89648438 332.05566406 C202.89998621 333.76592052 202.90564549 335.47617371 202.91329956 337.18641663 C202.92755265 341.82935492 202.91047828 346.47170129 202.88701439 351.11458302 C202.8669012 355.97773323 202.87278542 360.84085895 202.87512207 365.70404053 C202.87506848 373.87522125 202.85530727 382.04617087 202.82324219 390.21728516 C202.78639808 399.65182104 202.77755977 409.08605363 202.7845397 418.52065206 C202.79085664 427.60559369 202.7800652 436.69043176 202.76057434 445.77535248 C202.75241906 449.63637523 202.74968737 453.49734491 202.75126648 457.35837555 C202.75214877 461.91225462 202.73783692 466.46584781 202.71203995 471.01965141 C202.70490779 472.68647055 202.70278023 474.35332017 202.70615768 476.02015114 C202.7244803 487.19909328 202.55468711 498.0602126 194.28125 506.56640625 C188.957619 510.58777917 184.50526774 512.68857082 177.76789665 512.70062733 C176.61446986 512.70508517 175.46104307 512.70954301 174.27266395 512.71413594 C172.99963767 512.71395158 171.72661138 512.71376722 170.41500854 512.71357727 C169.05352362 512.71687612 167.69203968 512.72060173 166.33055699 512.72471875 C162.58078814 512.73474467 158.83103531 512.7384565 155.08125496 512.74110806 C151.04019108 512.74500939 146.99913989 512.7545879 142.95808411 512.76332092 C133.19428508 512.78309088 123.43048502 512.79315253 113.66667098 512.80204871 C109.06938687 512.80643102 104.47210391 512.81179801 99.87482071 512.81703758 C84.59323045 512.83405091 69.31164092 512.84854501 54.03004265 512.85578632 C50.06364821 512.85769624 46.09725379 512.85961657 42.13085938 512.86157227 C41.14502318 512.86205601 40.15918699 512.86253975 39.14347698 512.86303815 C23.17415831 512.87133814 7.20491455 512.89667408 -8.76437141 512.92915294 C-25.15760125 512.96222233 -41.55079302 512.980235 -57.94405639 512.98343056 C-67.14909311 512.98559585 -76.3540206 512.99434709 -85.55902481 513.01989174 C-93.39871227 513.04159714 -101.23826399 513.04964998 -109.07797809 513.03992496 C-113.07709626 513.03537968 -117.07593434 513.03727946 -121.07501411 513.0566864 C-124.73936252 513.07431512 -128.40322644 513.07332312 -132.06757997 513.05778911 C-134.01430969 513.05429056 -135.96104447 513.07044164 -137.90770352 513.08739358 C-146.26582763 513.0260457 -152.80111181 511.90985625 -159.27734375 506.3828125 C-160.20740234 505.26712891 -160.20740234 505.26712891 -161.15625 504.12890625 C-161.79433594 503.38769531 -162.43242187 502.64648438 -163.08984375 501.8828125 C-166.48736046 497.0513319 -166.96974079 493.04071018 -166.97601891 487.17995739 C-166.97952498 486.44214239 -166.98303105 485.70432738 -166.98664337 484.94415435 C-166.99596994 482.46425627 -166.99103085 479.98459238 -166.98617554 477.50468445 C-166.98991116 475.7117806 -166.99451233 473.91887839 -166.99990618 472.12597877 C-167.01216241 467.1930172 -167.01187263 462.26012332 -167.00951743 457.32714999 C-167.00910993 452.00936942 -167.02014205 446.69161075 -167.02963257 441.37384033 C-167.04625786 430.95302442 -167.0517428 420.53223113 -167.05285732 410.11140307 C-167.05380706 401.64238385 -167.05791364 393.1733721 -167.06425858 384.70435524 C-167.08187506 360.70259264 -167.09109679 336.70084793 -167.08959763 312.69907882 C-167.08951772 311.40466455 -167.0894378 310.11025028 -167.08935547 308.77661133 C-167.08927371 307.48061989 -167.08919195 306.18462846 -167.08910771 304.84936456 C-167.08829466 283.84207843 -167.1074359 262.83486398 -167.1356322 241.82759859 C-167.16434359 220.26675995 -167.17817346 198.70595628 -167.17644465 177.14509803 C-167.17578015 165.03658352 -167.18129869 152.92814415 -167.20280075 140.81964684 C-167.22098956 130.51072855 -167.22537879 120.20191946 -167.2117819 109.8929921 C-167.20524069 104.63227259 -167.20517672 99.37176272 -167.2224884 94.111063 C-167.23817307 89.29529797 -167.23540264 84.47990962 -167.21792014 79.66415403 C-167.21484008 77.92190991 -167.21852035 76.179638 -167.22964029 74.43742665 C-167.33494419 56.76891491 -167.33494419 56.76891491 -160.53515625 49.10546875 C-159.79136719 48.47382812 -159.04757813 47.8421875 -158.28125 47.19140625 C-157.16943359 46.22074219 -157.16943359 46.22074219 -156.03515625 45.23046875 C-149.72992272 40.70090807 -142.81783091 40.43807057 -135.26391602 40.48803711 C-133.77047291 40.49414786 -132.27702905 40.50007516 -130.78358459 40.50584412 C-129.99985033 40.51051634 -129.21611607 40.51518856 -128.40863228 40.52000237 C-124.23008444 40.53929598 -120.05160833 40.52396231 -115.87304688 40.51367188 C-110.56861804 40.50142448 -105.26499756 40.49981945 -99.96069336 40.54223633 C-95.66090156 40.5757035 -91.36269788 40.57015804 -87.06291008 40.53866768 C-85.43030804 40.53375536 -83.79759738 40.54296801 -82.16516304 40.56687737 C-73.24420107 40.97059872 -73.24420107 40.97059872 -65.23118591 37.7908783 C-63.34042396 35.7065186 -63.34042396 35.7065186 -61.96520996 33.47665405 C-59.82464058 30.1961492 -57.41881435 29.54129604 -53.71875 28.56640625 C-49.56143613 28.24527459 -45.44753923 28.28247582 -41.28125 28.37890625 C-40.16814453 28.39244141 -39.05503906 28.40597656 -37.90820312 28.41992188 C-35.17787788 28.45507628 -32.44857256 28.50428519 -29.71875 28.56640625 C-29.73325195 27.82310059 -29.74775391 27.07979492 -29.76269531 26.31396484 C-29.77397461 25.33250488 -29.78525391 24.35104492 -29.796875 23.33984375 C-29.81137695 22.36966309 -29.82587891 21.39948242 -29.84082031 20.39990234 C-29.57527119 14.23597617 -27.14367695 8.87174058 -22.71875 4.56640625 C-15.41801722 -0.19996404 -8.51529412 -0.0382437 0 0 Z M-13.71875 19.56640625 C-13.92267201 22.87447445 -14.0650154 26.17523213 -14.1484375 29.48828125 C-14.3468864 33.98645636 -14.71772126 37.13313057 -17.71875 40.56640625 C-24.91057686 45.05638559 -33.34943263 44.00139028 -41.5546875 44.00585938 C-42.68648437 44.02455078 -43.81828125 44.04324219 -44.984375 44.0625 C-46.01336914 44.06435303 -47.04236328 44.06620605 -48.10253906 44.06811523 C-51.27104336 44.36722365 -51.27104336 44.36722365 -53.71875 48.56640625 C-53.71875 55.82640625 -53.71875 63.08640625 -53.71875 70.56640625 C-6.85875 70.56640625 40.00125 70.56640625 88.28125 70.56640625 C88.28125 62.97640625 88.28125 55.38640625 88.28125 47.56640625 C84.79617939 44.08133564 84.20559117 44.19229856 79.51171875 44.16015625 C77.80725586 44.12728516 77.80725586 44.12728516 76.06835938 44.09375 C74.88048828 44.08472656 73.69261719 44.07570313 72.46875 44.06640625 C57.73744167 43.95339895 57.73744167 43.95339895 53.28125 40.56640625 C48.64328652 35.28020827 48.76657907 30.85888203 48.88085938 24.22460938 C48.89204226 21.88591799 48.89204226 21.88591799 48.28125 18.56640625 C43.71228457 14.2979903 37.66933071 15.1348548 31.8125 15.16796875 C30.69943481 15.16509857 29.58636963 15.16222839 28.4395752 15.15927124 C26.08943167 15.1572324 23.7392711 15.16274961 21.38916016 15.17529297 C17.79420994 15.19134837 14.20038404 15.17543731 10.60546875 15.15625 C8.32031002 15.15823246 6.03515199 15.1620762 3.75 15.16796875 C2.67592896 15.16189606 1.60185791 15.15582336 0.49523926 15.14956665 C-5.24341353 15.20358874 -9.44530879 15.29296504 -13.71875 19.56640625 Z M-120.71875 86.56640625 C-120.71875 212.29640625 -120.71875 338.02640625 -120.71875 467.56640625 C-72.20875 467.56640625 -23.69875 467.56640625 26.28125 467.56640625 C33.21125 438.85640625 33.21125 438.85640625 40.28125 409.56640625 C44.30364281 400.18082302 48.03421798 392.1333862 53.53125 383.75390625 C54.15515625 382.77615234 54.7790625 381.79839844 55.421875 380.79101562 C59.9950379 373.7095123 59.9950379 373.7095123 62.28125 372.56640625 C65.47325721 372.28884041 67.6883408 372.31676027 70.65625 373.56640625 C72.70379896 376.08646651 72.77160691 378.04958945 72.70458984 381.23974609 C71.85973102 385.88305898 69.02478403 389.54098623 66.40625 393.37890625 C65.85066406 394.22388672 65.29507813 395.06886719 64.72265625 395.93945312 C63.25866277 398.16013722 61.77482465 400.36556555 60.28125 402.56640625 C59.62125 403.55640625 58.96125 404.54640625 58.28125 405.56640625 C58.61125 406.88640625 58.94125 408.20640625 59.28125 409.56640625 C62.25125 410.22640625 65.22125 410.88640625 68.28125 411.56640625 C68.85286865 410.64867432 68.85286865 410.64867432 69.43603516 409.71240234 C77.54475699 396.700169 85.70460248 383.72344666 93.94921875 370.796875 C97.07444477 365.89584995 100.18096167 360.98323351 103.28125 356.06640625 C107.59768649 349.22225533 111.93403494 342.3910473 116.28125 335.56640625 C122.64024493 325.58252325 128.96705878 315.57866797 135.28125 305.56640625 C142.18600588 294.61770031 149.11174386 283.68284214 156.06542969 272.76513672 C161.82820587 263.71411345 167.55762549 254.64222048 173.28125 245.56640625 C180.81360484 233.62253167 188.3713039 221.69521713 195.95703125 209.78515625 C196.49279785 208.93824219 197.02856445 208.09132813 197.58056641 207.21875 C198.79646361 205.32246702 200.03586711 203.44117403 201.29052734 201.5703125 C201.94102051 200.58933594 202.59151367 199.60835938 203.26171875 198.59765625 C203.86266357 197.70626953 204.4636084 196.81488281 205.08276367 195.89648438 C205.47826416 195.12755859 205.87376465 194.35863281 206.28125 193.56640625 C204.93242186 189.51992182 202.93298931 188.61138026 199.28125 186.56640625 C195.86502009 187.70514955 195.58806364 188.2115213 193.78515625 191.15234375 C193.31529297 191.90837891 192.84542969 192.66441406 192.36132812 193.44335938 C191.61012695 194.67989258 191.61012695 194.67989258 190.84375 195.94140625 C189.76194287 197.68894084 188.67990531 199.43633281 187.59765625 201.18359375 C187.04609863 202.08045898 186.49454102 202.97732422 185.92626953 203.90136719 C183.41051227 207.97705823 180.84527231 212.02097702 178.28125 216.06640625 C177.28097397 217.64956522 176.2809749 219.2328992 175.28125 220.81640625 C173.28125 223.98307292 171.28125 227.14973958 169.28125 230.31640625 C168.78641113 231.09991455 168.29157227 231.88342285 167.78173828 232.69067383 C166.78015965 234.2764795 165.77853192 235.86225416 164.77685547 237.44799805 C162.30060816 241.36825382 159.82517299 245.28901732 157.3515625 249.2109375 C151.42171007 258.61038443 145.467405 267.99389085 139.49707031 277.36767578 C134.22678363 285.64519445 128.98391097 293.93980918 123.74902344 302.23974609 C120.76482056 306.9701941 117.7775806 311.69872634 114.78955078 316.42675781 C112.23529247 320.46912017 109.68477667 324.51376793 107.140625 328.5625 C91.64592627 353.20172998 91.64592627 353.20172998 88.28125 356.56640625 C81.17465102 357.2432252 81.17465102 357.2432252 78.21875 355.00390625 C76.86170057 351.47557774 77.46905366 349.25310391 78.28125 345.56640625 C79.59125791 342.7466206 81.22339397 340.17708164 82.90625 337.56640625 C83.38771484 336.79876953 83.86917969 336.03113281 84.36523438 335.24023438 C89.05888189 327.80024078 93.90124269 320.45338993 98.72875977 313.09985352 C102.99808753 306.58396745 107.1250617 300.00080196 111.1550293 293.33496094 C116.44923454 284.59587614 121.9701364 276.00192388 127.47412109 267.39404297 C130.45739144 262.72608335 133.43205024 258.05264872 136.40625 253.37890625 C137.26573242 252.02829102 137.26573242 252.02829102 138.14257812 250.65039062 C142.13322902 244.3767794 146.11807103 238.09951691 150.09375 231.81640625 C150.60373535 231.01178955 151.1137207 230.20717285 151.63916016 229.37817383 C152.3379126 228.27252075 152.3379126 228.27252075 153.05078125 227.14453125 C153.45917236 226.4990332 153.86756348 225.85353516 154.28833008 225.18847656 C178.41491479 185.77440505 156.28125 132.77853802 156.28125 86.56640625 C64.87125 86.56640625 -26.53875 86.56640625 -120.71875 86.56640625 Z M224.734375 142.21484375 C223.18172612 144.72746371 222.78228739 146.68514228 222.28125 149.56640625 C222.79921143 149.89326416 223.31717285 150.22012207 223.85083008 150.55688477 C242.88281993 162.56830706 242.88281993 162.56830706 252.28125 168.56640625 C257.42360907 163.8525771 261.40860925 159.19581582 261.84375 152.00390625 C261.9654205 148.10329313 260.40242189 145.93112178 257.83911133 143.05395508 C255.12309168 140.46052023 252.07143993 138.58361132 248.84375 136.69140625 C248.20115234 136.28921875 247.55855469 135.88703125 246.89648438 135.47265625 C236.87464337 129.49007502 231.29862067 133.90964597 224.734375 142.21484375 Z M212.28125 162.56640625 C210.68729084 164.81523936 210.68729084 164.81523936 209.15625 167.56640625 C208.61742187 168.49453125 208.07859375 169.42265625 207.5234375 170.37890625 C207.11351562 171.10078125 206.70359375 171.82265625 206.28125 172.56640625 C212.5413866 177.17499928 219.02540606 181.32909332 225.65625 185.37890625 C226.44112793 185.85884033 227.22600586 186.33877441 228.03466797 186.83325195 C231.40079453 188.87617002 234.73875221 190.84157425 238.28125 192.56640625 C239.2868261 191.11191224 240.28555435 189.65268182 241.28125 188.19140625 C241.838125 187.37929687 242.395 186.5671875 242.96875 185.73046875 C244.45410844 183.70322438 244.45410844 183.70322438 244.28125 181.56640625 C242.42415417 180.1433738 242.42415417 180.1433738 240.00390625 178.73828125 C239.09705078 178.18527344 238.19019531 177.63226563 237.25585938 177.0625 C236.29486328 176.48628906 235.33386719 175.91007813 234.34375 175.31640625 C232.47952632 174.18775308 230.61623679 173.05755546 228.75390625 171.92578125 C227.38322998 171.09530273 227.38322998 171.09530273 225.98486328 170.24804688 C222.60472054 168.14560664 219.32275096 165.91596851 216.05639648 163.64160156 C214.3420339 162.39371549 214.3420339 162.39371549 212.28125 162.56640625 Z M220.28125 200.56640625 C213.03005438 211.71440582 205.87346909 222.91800892 198.78857422 234.17236328 C196.33059377 238.07630826 193.86893238 241.97792602 191.40625 245.87890625 C190.67160522 247.04268799 190.67160522 247.04268799 189.92211914 248.22998047 C185.4641776 255.28676408 180.98111246 262.32745963 176.49707031 269.36767578 C170.73429413 278.41869905 165.00487451 287.49059202 159.28125 296.56640625 C152.37649412 307.51511219 145.45075614 318.44997036 138.49707031 329.36767578 C132.73429413 338.41869905 127.00487451 347.49059202 121.28125 356.56640625 C114.9670577 366.57866967 108.63991367 376.58231102 102.28125 386.56640625 C99.94739353 390.23274021 97.61415988 393.89946991 95.28125 397.56640625 C94.70181641 398.47680664 94.12238281 399.38720703 93.52539062 400.32519531 C91.85858357 402.94594336 90.19451486 405.5684091 88.53125 408.19140625 C88.02980469 408.97902344 87.52835938 409.76664063 87.01171875 410.578125 C86.54894531 411.30902344 86.08617187 412.03992188 85.609375 412.79296875 C85.2062207 413.42799316 84.80306641 414.06301758 84.38769531 414.71728516 C83.2541662 416.61166942 82.26852706 418.59185212 81.28125 420.56640625 C84.25125 424.03140625 84.25125 424.03140625 87.28125 427.56640625 C91.45351038 425.48027606 92.15765232 424.69348405 94.4609375 420.89453125 C95.05285889 419.93119873 95.64478027 418.96786621 96.25463867 417.9753418 C97.19593628 416.4116687 97.19593628 416.4116687 98.15625 414.81640625 C99.50299881 412.6192352 100.85067555 410.42263268 102.19921875 408.2265625 C102.88032715 407.11168457 103.56143555 405.99680664 104.26318359 404.84814453 C107.27650526 399.94794252 110.36881908 395.0996106 113.46875 390.25390625 C114.62659507 388.43898896 115.78415068 386.62388698 116.94140625 384.80859375 C117.49973145 383.93299805 118.05805664 383.05740234 118.63330078 382.15527344 C121.23417695 378.06939331 123.82130315 373.97487704 126.40625 369.87890625 C126.89520752 369.10417969 127.38416504 368.32945312 127.88793945 367.53125 C129.35268118 365.20982757 130.81704219 362.88816548 132.28125 360.56640625 C139.18600588 349.61770031 146.11174386 338.68284214 153.06542969 327.76513672 C158.33571637 319.48761805 163.57858903 311.19300332 168.81347656 302.89306641 C171.80223573 298.15539593 174.79453922 293.419963 177.78613281 288.68408203 C180.26219327 284.76405519 182.7374835 280.84354706 185.2109375 276.921875 C191.13851096 267.52604048 197.08982771 258.14569005 203.05883789 248.77612305 C207.41377117 241.93747453 211.74898979 235.08663407 216.06738281 228.22485352 C218.363269 224.58163643 220.67374336 220.95000483 223.02734375 217.34375 C223.66385864 216.36631836 223.66385864 216.36631836 224.31323242 215.36914062 C225.10231786 214.16075964 225.895217 212.95485702 226.69262695 211.75195312 C228.68752683 208.89878919 228.68752683 208.89878919 229.28125 205.56640625 C226.31125 203.91640625 223.34125 202.26640625 220.28125 200.56640625 Z M155.28125 353.56640625 C153.6326165 355.98213376 152.03994685 358.41319082 150.46875 360.87890625 C149.97737549 361.64436768 149.48600098 362.4098291 148.97973633 363.19848633 C144.43446142 370.29233868 139.93983769 377.41834968 135.44921875 384.546875 C131.49060339 390.82678567 127.50117061 397.08704294 123.50830078 403.34521484 C120.6427156 407.8401103 117.79070172 412.34230792 114.97265625 416.8671875 C104.16565762 434.20428054 92.52627785 447.18376556 76.28125 459.56640625 C74.48790156 460.93921207 72.69594901 462.31384613 70.90625 463.69140625 C70.19726562 464.23023438 69.48828125 464.7690625 68.7578125 465.32421875 C68.27054688 465.73414063 67.78328125 466.1440625 67.28125 466.56640625 C67.28125 466.89640625 67.28125 467.22640625 67.28125 467.56640625 C96.65125 467.56640625 126.02125 467.56640625 156.28125 467.56640625 C156.28125 429.94640625 156.28125 392.32640625 156.28125 353.56640625 C155.95125 353.56640625 155.62125 353.56640625 155.28125 353.56640625 Z M52.28125 424.56640625 C50.96925382 429.75961349 49.66954303 434.95568329 48.38110352 440.15478516 C47.94110753 441.92287815 47.49777065 443.69014325 47.05102539 445.45654297 C46.40931353 447.99626578 45.77969059 450.5387273 45.15234375 453.08203125 C44.95031845 453.87071594 44.74829315 454.65940063 44.54014587 455.47198486 C43.62551177 459.22903883 43.13737661 461.87070187 44.28125 465.56640625 C45.05726563 464.89996094 45.83328125 464.23351562 46.6328125 463.546875 C53.14053291 457.98599126 59.72157192 452.56103101 66.52197266 447.36010742 C70.05527243 444.63218454 73.1975207 441.77670653 76.28125 438.56640625 C71.27198596 431.77966142 64.64260449 426.51090729 56.28125 424.56640625 C54.96125 424.56640625 53.64125 424.56640625 52.28125 424.56640625 Z " fill="#0f0" transform="translate(200.71875,-0.56640625)"/>
<path d="M0 0 C1.38330716 -0.00389384 2.76661314 -0.00822991 4.1499176 -0.01298523 C7.04049567 -0.02041948 9.93095154 -0.02017643 12.8215332 -0.01489258 C16.5077175 -0.00909925 20.19339912 -0.02603874 23.87950039 -0.04923725 C26.73386002 -0.06403828 29.58810031 -0.06483773 32.44249153 -0.06172752 C34.45642946 -0.06248364 36.47034901 -0.07630167 38.48423767 -0.09040833 C46.67134034 -0.04921992 53.1456547 0.20103549 59.62890625 5.67578125 C64.55089779 11.5821711 65.93055719 15.90697186 65.97753906 23.50292969 C65.98714661 24.75813416 65.99675415 26.01333862 66.00665283 27.30657959 C66.01150198 28.67443662 66.01578052 30.04229577 66.01953125 31.41015625 C66.02528871 32.82017009 66.03104636 34.23018392 66.0368042 35.64019775 C66.04729809 38.5957475 66.05315091 41.55127019 66.05664062 44.50683594 C66.06211424 48.27714534 66.08612444 52.0470916 66.11461258 55.81728745 C66.13332377 58.73082492 66.1384491 61.6442765 66.1399765 64.55786896 C66.14298576 65.94682037 66.15095536 67.3357709 66.16416168 68.72466278 C66.30955956 85.19491758 66.30955956 85.19491758 60.87890625 91.578125 C60.19828125 92.12597656 59.51765625 92.67382812 58.81640625 93.23828125 C58.13578125 93.80417969 57.45515625 94.37007813 56.75390625 94.953125 C52.99757701 97.56589433 49.6238364 97.44649664 45.17700195 97.49365234 C44.50666428 97.50182983 43.8363266 97.51000732 43.14567566 97.51843262 C40.92785522 97.54323663 38.71009873 97.55979244 36.4921875 97.57421875 C35.35287309 97.58220427 35.35287309 97.58220427 34.19054222 97.5903511 C30.16780991 97.61706495 26.14510839 97.63644277 22.12231445 97.65087891 C18.80204609 97.66419994 15.48239496 97.69201992 12.16235352 97.73291016 C8.14526312 97.78237953 4.12873107 97.80701747 0.11134911 97.81410599 C-1.41440744 97.82079514 -2.94015268 97.83595618 -4.46573448 97.8599968 C-19.33237447 98.08084657 -19.33237447 98.08084657 -24.63499451 93.86514282 C-25.14603226 93.3489035 -25.65707001 92.83266418 -26.18359375 92.30078125 C-26.69797501 91.78752289 -27.21235626 91.27426453 -27.74232483 90.74545288 C-32.79243729 84.36359931 -31.90743748 76.20366184 -31.84765625 68.48828125 C-31.85103041 66.949459 -31.85588801 65.41063937 -31.8621521 63.87182617 C-31.86949535 60.65745499 -31.85890163 57.44378177 -31.83544922 54.22949219 C-31.80696162 50.12707453 -31.82337952 46.0262927 -31.85331154 41.92393494 C-31.87145449 38.74951037 -31.86559484 35.57546813 -31.85267258 32.40103149 C-31.8493578 30.88929038 -31.85335721 29.37751357 -31.86507034 27.86581421 C-31.95728343 12.62281924 -31.95728343 12.62281924 -26.18359375 6.30078125 C-18.91921682 -0.96359568 -9.60808924 -0.00665001 0 0 Z M-15.18359375 18.30078125 C-15.6302282 20.99976076 -15.6302282 20.99976076 -15.54003906 24.20336914 C-15.54304016 25.44127701 -15.54604126 26.67918488 -15.5491333 27.9546051 C-15.5371285 29.31088678 -15.52464555 30.6671643 -15.51171875 32.0234375 C-15.50866201 33.40823665 -15.50678524 34.79303886 -15.50604248 36.17784119 C-15.50143707 39.08067582 -15.4870013 41.98323338 -15.46484375 44.88598633 C-15.43653472 48.6143264 -15.42562999 52.34244832 -15.42116165 56.07088566 C-15.41701313 58.93011169 -15.40720088 61.78929324 -15.39528656 64.64849663 C-15.38957379 66.02367228 -15.38481843 67.39885223 -15.38101959 68.7740345 C-15.37417574 70.69191157 -15.35964907 72.60975666 -15.34472656 74.52758789 C-15.33789856 75.62075821 -15.33107056 76.71392853 -15.32403564 77.84022522 C-15.46061364 80.24564923 -15.46061364 80.24564923 -14.18359375 81.30078125 C-12.26157481 81.4104849 -10.33551003 81.44988972 -8.41040039 81.46191406 C-7.17564468 81.47152161 -5.94088898 81.48112915 -4.66871643 81.49102783 C-3.31039615 81.49587493 -1.95207374 81.50015398 -0.59375 81.50390625 C0.79008488 81.50965499 2.17391971 81.51541275 3.55775452 81.5211792 C6.46225355 81.53169715 9.36672483 81.53753471 12.27124023 81.54101562 C15.99850887 81.54650453 19.72541294 81.57053713 23.4525671 81.59898758 C26.31182436 81.61758292 29.17099323 81.62281786 32.03030586 81.6243515 C33.40467893 81.62738523 34.77905019 81.63543793 36.15336418 81.64853668 C38.07344255 81.6655318 39.99367042 81.66188164 41.91381836 81.65722656 C43.00778427 81.66087219 44.10175018 81.66451782 45.22886658 81.66827393 C46.08275467 81.54700134 46.93664276 81.42572876 47.81640625 81.30078125 C50.0990297 77.87684607 50.07309404 76.61858255 50.09106445 72.59179688 C50.10059647 71.42048218 50.11012848 70.24916748 50.11994934 69.0423584 C50.11903793 67.77670044 50.11812653 66.51104248 50.1171875 65.20703125 C50.12361519 63.25972107 50.12361519 63.25972107 50.13017273 61.27307129 C50.1376318 58.52591874 50.13734568 55.77889472 50.13208008 53.03173828 C50.12628094 49.51084585 50.1432279 45.99047871 50.16642475 42.46967316 C50.18469382 39.11127016 50.18097713 35.75298373 50.1796875 32.39453125 C50.18889725 31.12887329 50.19810699 29.86321533 50.20759583 28.5592041 C50.20136703 27.3878894 50.19513824 26.21657471 50.1887207 25.00976562 C50.18935013 23.97734741 50.18997955 22.9449292 50.19062805 21.88122559 C49.99768769 19.30900577 49.99768769 19.30900577 48.64994812 17.46723938 C46.06766563 15.82444929 44.15831402 15.92660679 41.10742188 15.9284668 C39.35044983 15.91912361 39.35044983 15.91912361 37.5579834 15.90959167 C36.29232544 15.91880142 35.02666748 15.92801117 33.72265625 15.9375 C31.77534607 15.93675224 31.77534607 15.93675224 29.78869629 15.93598938 C27.04146707 15.93607906 24.29453156 15.94649987 21.54736328 15.96459961 C18.02654953 15.98728697 14.50616488 15.98783058 10.98529816 15.98108196 C7.62686857 15.97693638 4.26857106 15.98891453 0.91015625 16 C-0.35550171 15.99908859 -1.62115967 15.99817719 -2.9251709 15.99723816 C-4.0964856 16.00677017 -5.26780029 16.01630219 -6.47460938 16.02612305 C-7.50702759 16.03073044 -8.5394458 16.03533783 -9.60314941 16.04008484 C-12.42181075 16.12140736 -12.42181075 16.12140736 -15.18359375 18.30078125 Z " fill="#0f0" transform="translate(133.18359375,347.69921875)"/>
<path d="M0 0 C0.65083054 -0.0065712 1.30166107 -0.0131424 1.97221375 -0.01991272 C4.12511316 -0.03961353 6.2779428 -0.05130314 8.4309082 -0.0612793 C9.16838602 -0.06535482 9.90586384 -0.06943035 10.66568947 -0.07362938 C14.5717198 -0.0944798 18.47771514 -0.10878402 22.38378906 -0.11816406 C26.40420302 -0.12920609 30.42406009 -0.1635827 34.44427776 -0.20333576 C37.54739865 -0.22957626 40.65038856 -0.2378626 43.75361061 -0.24144554 C45.23468586 -0.24629502 46.71575591 -0.25786202 48.19672203 -0.27648354 C64.33333736 -0.46671707 64.33333736 -0.46671707 71.04936218 5.51835632 C77.82575478 12.79596027 76.85139966 22.07188371 76.8449707 31.3605957 C76.84886454 32.74390286 76.85320061 34.12720884 76.85795593 35.51051331 C76.86539018 38.40109138 76.86514714 41.29154724 76.85986328 44.18212891 C76.85406995 47.86831321 76.87100944 51.55399482 76.89420795 55.24009609 C76.90900898 58.09445572 76.90980844 60.94869602 76.90669823 63.80308723 C76.90745434 65.81702516 76.92127237 67.83094471 76.93537903 69.84483337 C76.88950377 78.96355225 76.19447609 86.33111865 69.54418945 93.17700195 C64.41735743 96.76578437 60.33847364 97.30061293 54.15844727 97.35400391 C52.86320129 97.36683914 51.56795532 97.37967438 50.23345947 97.39289856 C48.82141505 97.40106749 47.40936627 97.40851093 45.99731445 97.4152832 C45.28281883 97.41935873 44.56832321 97.42343426 43.83217621 97.42763329 C40.04933465 97.44846114 36.26652899 97.46277628 32.48364258 97.47216797 C28.59216492 97.48321812 24.70126129 97.51761058 20.80998611 97.55733967 C17.80380243 97.58358325 14.7977539 97.59186666 11.79146576 97.59544945 C10.35783771 97.60029645 8.92421494 97.61185629 7.49069977 97.63048744 C-1.61711866 97.74149179 -8.43129034 97.61040213 -15.5144043 91.3605957 C-15.96944336 90.78438477 -16.42448242 90.20817383 -16.89331055 89.61450195 C-17.36639648 89.03571289 -17.83948242 88.45692383 -18.3269043 87.8605957 C-20.75445194 84.24027378 -20.59799551 80.8558213 -20.6328125 76.62939453 C-20.6393837 75.96881042 -20.6459549 75.30822632 -20.65272522 74.62762451 C-20.6724276 72.4422595 -20.68411594 70.25696323 -20.6940918 68.0715332 C-20.69816732 67.32302282 -20.70224285 66.57451244 -20.70644188 65.80331993 C-20.72729287 61.83893486 -20.74159691 57.87458427 -20.75097656 53.91015625 C-20.76201928 49.8292119 -20.79639659 45.74881607 -20.83614826 41.66806507 C-20.86238567 38.51862118 -20.87067482 35.36930636 -20.87425804 32.2197628 C-20.87910823 30.71635942 -20.89067729 29.2129612 -20.90929604 27.7096653 C-21.00277534 19.65956488 -21.0528078 13.07034669 -16.45581055 6.17700195 C-14.6394043 4.3371582 -14.6394043 4.3371582 -12.89331055 3.23950195 C-12.02512695 2.6690918 -12.02512695 2.6690918 -11.1394043 2.0871582 C-7.38891466 0.05963132 -4.1856322 0.03500127 0 0 Z M-4.45581055 18.17700195 C-4.76301201 20.83326269 -4.76301201 20.83326269 -4.71459961 23.97192383 C-4.72090393 25.18658325 -4.72720825 26.40124268 -4.73370361 27.65270996 C-4.72965515 28.97041382 -4.72560669 30.28811768 -4.72143555 31.64575195 C-4.72278231 33.00573801 -4.72472294 34.3657236 -4.72723389 35.72570801 C-4.73018464 38.57719503 -4.72588919 41.42855682 -4.71655273 44.2800293 C-4.70515809 47.93882972 -4.71171784 51.59733675 -4.72369766 55.2561264 C-4.73091766 58.06478087 -4.72862772 60.87336555 -4.72344208 63.68202209 C-4.72145516 65.68844798 -4.72753917 67.69487655 -4.73370361 69.70129395 C-4.72739929 70.91595337 -4.72109497 72.13061279 -4.71459961 73.38208008 C-4.71300842 74.45526489 -4.71141724 75.52844971 -4.70977783 76.63415527 C-4.71013031 79.34490448 -4.71013031 79.34490448 -2.45581055 81.17700195 C0.15237863 81.49103343 0.15237863 81.49103343 3.23144531 81.45166016 C4.42285629 81.46119217 5.61426727 81.47072418 6.84178162 81.48054504 C8.13447464 81.47963364 9.42716766 81.47872223 10.7590332 81.4777832 C12.09420404 81.48166907 13.42937364 81.48600351 14.76454163 81.49076843 C17.56474817 81.49823569 20.36482866 81.49793591 23.16503906 81.49267578 C26.75433788 81.48688216 30.34312049 81.50380635 33.93233395 81.52702045 C36.6904248 81.54175 39.44839114 81.54263057 42.20651436 81.53951073 C44.17358291 81.54027429 46.14063214 81.55415559 48.10765076 81.56819153 C49.3022139 81.56196274 50.49677704 81.55573395 51.72753906 81.54931641 C52.78073837 81.54994583 53.83393768 81.55057526 54.91905212 81.55122375 C57.53041332 81.36235608 57.53041332 81.36235608 59.38446045 80.01054382 C61.0180756 77.42778375 60.91836132 75.51465766 60.91650391 72.46801758 C60.9227327 71.29670288 60.92896149 70.12538818 60.93537903 68.9185791 C60.92616928 67.65292114 60.91695953 66.38726318 60.9074707 65.08325195 C60.90796921 63.78504517 60.90846771 62.48683838 60.90898132 61.14929199 C60.90889164 58.40206278 60.89847083 55.65512726 60.88037109 52.90795898 C60.85768373 49.38714524 60.85714013 45.86676059 60.86388874 42.34589386 C60.86803432 38.98746427 60.85605617 35.62916676 60.8449707 32.27075195 C60.84588211 31.00509399 60.84679352 29.73943604 60.84773254 28.4354248 C60.83820053 27.26411011 60.82866852 26.09279541 60.81884766 24.88598633 C60.81424026 23.85356812 60.80963287 22.8211499 60.80488586 21.75744629 C60.72356335 18.93878496 60.72356335 18.93878496 58.54418945 16.17700195 C55.89347848 15.72361282 55.89347848 15.72361282 52.74926758 15.8046875 C51.53460815 15.79845871 50.31994873 15.79222992 49.06848145 15.78581238 C47.09192566 15.799627 47.09192566 15.799627 45.07543945 15.8137207 C43.71545411 15.81423918 42.355468 15.81372196 40.9954834 15.81221008 C38.1439293 15.81229986 35.29265763 15.82273919 32.44116211 15.84082031 C28.78234245 15.86350799 25.12393564 15.86405226 21.465065 15.85730267 C18.65639565 15.85396433 15.84782076 15.86059015 13.03916931 15.8704319 C11.0327533 15.8761641 9.02632118 15.87484663 7.01989746 15.87345886 C5.19790833 15.88775688 5.19790833 15.88775688 3.33911133 15.90234375 C2.26592651 15.90695114 1.1927417 15.91155853 0.08703613 15.91630554 C-2.6235089 15.9238309 -2.6235089 15.9238309 -4.45581055 18.17700195 Z " fill="#0f0" transform="translate(122.455810546875,227.822998046875)"/>
<path d="M0 0 C1.54360867 0.00171369 3.08722025 0.0016428 4.63082886 -0.00012207 C7.85361875 0.00152501 11.07570784 0.02011248 14.29833984 0.05175781 C18.41857799 0.09150091 22.53790302 0.09579157 26.65829659 0.08829498 C29.84117931 0.08521893 33.02385866 0.09736715 36.20669174 0.11442566 C37.72565307 0.12142952 39.24463742 0.12458338 40.76361465 0.12373352 C42.88856589 0.12554108 45.01244284 0.14699981 47.13720703 0.17382812 C48.3432962 0.18224731 49.54938538 0.1906665 50.79202271 0.19934082 C56.0214524 0.81962138 59.99101161 2.8715343 63.3671875 6.90625 C63.84671875 7.45925781 64.32625 8.01226562 64.8203125 8.58203125 C67.75466528 13.13381342 68.36953682 17.69919712 68.3918457 23.02294922 C68.40137772 24.27800262 68.41090973 25.53305603 68.42073059 26.82614136 C68.42046911 28.18357369 68.41953178 29.54100604 68.41796875 30.8984375 C68.42186118 32.30559413 68.42619697 33.71274959 68.43095398 35.11990356 C68.43839641 38.06353571 68.43813961 41.00704789 68.43286133 43.95068359 C68.42707316 47.70527458 68.44399102 51.4593712 68.467206 55.21388054 C68.48200708 58.11885402 68.48280637 61.02371024 68.47969627 63.92871475 C68.48020642 65.3120738 68.485386 66.69543995 68.49550819 68.07876205 C68.60138014 84.57140483 68.60138014 84.57140483 63.14453125 90.87109375 C62.45488281 91.41894531 61.76523438 91.96679688 61.0546875 92.53125 C60.36246094 93.09714844 59.67023438 93.66304688 58.95703125 94.24609375 C55.38184585 96.86486013 52.89665973 96.73559714 48.48364258 96.77075195 C47.80209106 96.77732315 47.12053955 96.78389435 46.41833496 96.79066467 C44.15779512 96.8104089 41.89732186 96.82206493 39.63671875 96.83203125 C38.47760766 96.83814454 38.47760766 96.83814454 37.29508018 96.84438133 C33.20217531 96.8652505 29.10930401 96.87954646 25.01635742 96.88891602 C20.79741057 96.89996038 16.57899409 96.93433445 12.36023426 96.97408772 C9.10960441 97.00029587 5.85909985 97.00861172 2.60837364 97.01219749 C1.05390544 97.01705551 -0.50055746 97.02864716 -2.0549221 97.04723549 C-4.23779998 97.0717097 -6.41932049 97.07064739 -8.60229492 97.0637207 C-9.8420256 97.06958694 -11.08175629 97.07545319 -12.35905457 97.08149719 C-17.75668785 96.33437423 -21.45709697 94.13506409 -25.1953125 90.09375 C-28.33332423 85.44484373 -29.13912306 82.53928564 -29.18920898 76.84082031 C-29.1975325 76.17033661 -29.20585602 75.49985291 -29.21443176 74.80905151 C-29.23848805 72.59659986 -29.24729956 70.3844435 -29.25390625 68.171875 C-29.26287795 66.62733881 -29.27199989 65.08280349 -29.28126526 63.53826904 C-29.29774735 60.30023084 -29.30545357 57.0622959 -29.30834961 53.82421875 C-29.31372394 49.69044389 -29.35136663 45.55765065 -29.39709377 41.42415237 C-29.42695548 38.23265106 -29.43407517 35.04138316 -29.43507576 31.84975433 C-29.43926226 30.3268053 -29.45163324 28.80385455 -29.47259331 27.28104401 C-29.66043263 12.44996426 -29.66043263 12.44996426 -25.44566345 7.14385986 C-24.92992264 6.63232361 -24.41418182 6.12078735 -23.8828125 5.59375 C-23.37041519 5.07850769 -22.85801788 4.56326538 -22.33009338 4.03240967 C-15.93224091 -1.0419416 -7.73294547 -0.09113777 0 0 Z M-12.8828125 17.59375 C-12.99251615 19.51576894 -13.03192097 21.44183372 -13.04394531 23.36694336 C-13.05355286 24.60169907 -13.0631604 25.83645477 -13.07305908 27.10862732 C-13.07790618 28.4669476 -13.08218523 29.82527001 -13.0859375 31.18359375 C-13.09168624 32.56742863 -13.097444 33.95126346 -13.10321045 35.33509827 C-13.1137284 38.2395973 -13.11956596 41.14406858 -13.12304688 44.04858398 C-13.12853578 47.77585262 -13.15256838 51.50275669 -13.18101883 55.22991085 C-13.19961417 58.08916811 -13.20484911 60.94833698 -13.20638275 63.80764961 C-13.20941648 65.18202268 -13.21746918 66.55639394 -13.23056793 67.93070793 C-13.24756305 69.8507863 -13.24391289 71.77101417 -13.23925781 73.69116211 C-13.24290344 74.78512802 -13.24654907 75.87909393 -13.25030518 77.00621033 C-13.12903259 77.86009842 -13.00776001 78.71398651 -12.8828125 79.59375 C-9.48259009 81.86056494 -8.27268542 81.85023076 -4.28149414 81.8684082 C-3.13342789 81.87794022 -1.98536163 81.88747223 -0.80250549 81.89729309 C0.43814163 81.89638168 1.67878876 81.89547028 2.95703125 81.89453125 C4.23067032 81.89881638 5.50430939 81.9031015 6.81654358 81.90751648 C9.51251992 81.9132647 12.20811401 81.91468958 14.90405273 81.90942383 C18.35534892 81.9036305 21.80610821 81.92055731 25.25731564 81.9437685 C28.5530502 81.9620613 31.84875505 81.95832025 35.14453125 81.95703125 C37.00246559 81.97084587 37.00246559 81.97084587 38.89793396 81.98493958 C40.04915237 81.97871078 41.20037079 81.97248199 42.38647461 81.96606445 C43.39890732 81.96669388 44.41134003 81.9673233 45.45445251 81.9679718 C48.61766343 81.52341292 49.96621429 80.96092164 52.1171875 78.59375 C52.7113308 75.89109965 52.7113308 75.89109965 52.60302734 72.77709961 C52.6091806 71.58253647 52.61533386 70.38797333 52.62167358 69.1572113 C52.60730255 67.86654251 52.59293152 66.57587372 52.578125 65.24609375 C52.57574047 63.90995969 52.57483527 62.57382224 52.5753479 61.23768616 C52.57222079 58.43908667 52.55566199 55.64099983 52.52880859 52.8425293 C52.4947954 49.25210013 52.48718094 45.66223336 52.48869896 42.07166195 C52.48815565 39.31358961 52.47719551 36.55564067 52.46269608 33.79760933 C52.45322256 31.82886889 52.44977026 29.86010248 52.44638062 27.89134216 C52.43362091 26.69993118 52.42086121 25.5085202 52.40771484 24.28100586 C52.40009125 23.22860214 52.39246765 22.17619843 52.38461304 21.09190369 C52.36310301 18.42111586 52.36310301 18.42111586 50.1171875 16.59375 C47.4128647 16.29339495 47.4128647 16.29339495 44.21459961 16.35083008 C42.97669174 16.34775345 41.73878387 16.34467682 40.46336365 16.34150696 C39.1070843 16.34840417 37.75080679 16.3556711 36.39453125 16.36328125 C35.00973046 16.36447297 33.62492885 16.36492623 32.24012756 16.3646698 C29.33736108 16.36623482 26.43471789 16.37452661 23.53198242 16.38793945 C19.80364893 16.40494521 16.07545082 16.40875336 12.34708309 16.40799427 C9.48786619 16.40826563 6.62867913 16.41374113 3.76947212 16.42099571 C2.39429513 16.42418657 1.01911475 16.42615076 -0.35606575 16.42688942 C-2.27392918 16.42904765 -4.1917801 16.43857706 -6.10961914 16.44848633 C-7.74937462 16.45420403 -7.74937462 16.45420403 -9.42225647 16.46003723 C-11.82776034 16.31613262 -11.82776034 16.31613262 -12.8828125 17.59375 Z " fill="#0f0" transform="translate(130.8828125,107.40625)"/>
<path d="M0 0 C0.91899582 -0.0049649 1.83799164 -0.00992981 2.78483582 -0.01504517 C5.82873276 -0.02966503 8.8725776 -0.03646822 11.91650391 -0.04199219 C14.03016156 -0.04774341 16.14381919 -0.05350115 18.25747681 -0.05926514 C22.69102217 -0.06977437 27.1245494 -0.07561767 31.55810547 -0.07910156 C37.23999524 -0.08458866 42.92164565 -0.10862173 48.60346031 -0.13707352 C52.97004905 -0.15569303 57.33658002 -0.16090512 61.70320511 -0.16243744 C63.79798314 -0.16546562 65.89276012 -0.17349969 67.98749924 -0.18662262 C70.91763302 -0.20366991 73.84718055 -0.2018061 76.77734375 -0.1953125 C77.6429744 -0.20452728 78.50860504 -0.21374207 79.40046692 -0.22323608 C84.09130345 -0.19065776 87.23138027 0.08137076 91.01806641 3.16113281 C93.01806641 6.16113281 93.01806641 6.16113281 92.83056641 9.66113281 C92.01415743 13.17797147 91.76292793 14.0645948 89.01806641 16.16113281 C87.08274174 16.54424286 87.08274174 16.54424286 84.84986877 16.55554199 C84.00169586 16.56689178 83.15352295 16.57824158 82.27964783 16.5899353 C80.88861595 16.5855394 80.88861595 16.5855394 79.46948242 16.58105469 C78.49035889 16.58952423 77.51123535 16.59799377 76.50244141 16.60671997 C73.25882048 16.63016069 70.01567195 16.63111043 66.77197266 16.62988281 C64.52139596 16.63698009 62.27082108 16.64467845 60.02024841 16.6529541 C55.29998751 16.66641519 50.5798939 16.66796033 45.85961914 16.66210938 C39.8052438 16.65621179 33.75166994 16.68680045 27.69744968 16.72722626 C23.04863649 16.75305277 18.40001755 16.75598524 13.7511425 16.75233459 C11.51876753 16.75403057 9.28638403 16.76371866 7.05407906 16.78147888 C3.93418588 16.80356829 0.8159316 16.79401701 -2.30395508 16.77636719 C-3.22928543 16.78963043 -4.15461578 16.80289368 -5.10798645 16.81655884 C-11.35343734 16.73429725 -11.35343734 16.73429725 -14.55555725 13.81408691 C-16.29930852 10.57083902 -16.59976551 8.79089532 -15.98193359 5.16113281 C-11.58532557 -0.44833259 -6.63364004 0.00852668 0 0 Z " fill="#0f0" transform="translate(235.98193359375,131.8388671875)"/>
<path d="M0 0 C1.01536331 -0.01073296 1.01536331 -0.01073296 2.05123901 -0.02168274 C4.28354879 -0.03855946 6.51384706 -0.019177 8.74609375 0.00219727 C10.30021328 0.00136845 11.85433272 -0.0010914 13.40844727 -0.00511169 C16.66351753 -0.00796895 19.91789942 0.00672321 23.17285156 0.03417969 C27.34286397 0.06826338 31.51164559 0.06224416 35.68171692 0.04351711 C38.89028155 0.03294261 42.09856033 0.04188882 45.30709839 0.05690193 C46.84446361 0.06208097 48.38185872 0.06160528 49.91921997 0.05535698 C52.06919409 0.0498989 54.21741344 0.07029433 56.3671875 0.09765625 C57.58978271 0.10385483 58.81237793 0.11005341 60.07202148 0.11643982 C63.78165096 0.73002403 64.981688 1.62603846 67.18359375 4.63110352 C67.65278058 8.38459813 67.71495756 10.66958805 65.87109375 14.00610352 C62.62675795 17.13027874 59.13730132 16.766879 54.86376953 16.79223633 C53.55876495 16.80184387 52.25376038 16.81145142 50.90921021 16.8213501 C49.482444 16.82619797 48.05567576 16.83047683 46.62890625 16.83422852 C45.16543578 16.83998217 43.70196532 16.84573988 42.23849487 16.85150146 C39.17022348 16.86200318 36.10197824 16.86785132 33.03369141 16.87133789 C29.1072452 16.87682204 25.18114587 16.90085151 21.25480843 16.92930984 C18.23158771 16.94795774 15.20845022 16.95314295 12.18517685 16.95467377 C10.73792499 16.9576958 9.29067443 16.9657092 7.84347916 16.97885895 C5.81645854 16.99596306 3.7892945 16.99218808 1.76220703 16.98754883 C0.60987579 16.99119446 -0.54245544 16.99484009 -1.72970581 16.99859619 C-5.17319724 16.58862512 -7.05218085 15.69042105 -9.81640625 13.63110352 C-11.24302844 10.77785914 -11.12674493 8.79655803 -10.81640625 5.63110352 C-7.82834818 0.64363425 -5.70219108 0.00448566 0 0 Z " fill="#0f0" transform="translate(230.81640625,252.368896484375)"/>
<path d="M0 0 C2.4375 1.5625 2.4375 1.5625 4 4 C4.5722666 9.6553405 3.60304895 12.41326197 0.25 16.9375 C-0.14469482 17.47673096 -0.53938965 18.01596191 -0.94604492 18.5715332 C-1.81200175 19.74908119 -2.68565737 20.92099656 -3.56591797 22.08789062 C-5.1125901 24.15012014 -6.62164364 26.23694284 -8.12890625 28.328125 C-9.18889448 29.78213265 -10.2500769 31.23527053 -11.3125 32.6875 C-11.81555664 33.38286865 -12.31861328 34.0782373 -12.83691406 34.79467773 C-13.31999023 35.44380127 -13.80306641 36.0929248 -14.30078125 36.76171875 C-14.72528564 37.33881592 -15.14979004 37.91591309 -15.5871582 38.51049805 C-18.81766286 41.91628842 -22.22981757 42.27150677 -26.8046875 42.55859375 C-33.8050563 40.77736112 -38.53233561 32.95818898 -42.2578125 27.23828125 C-43.88061934 24.22189813 -44.59851361 22.72633341 -44.3125 19.375 C-43 16 -43 16 -41.3125 14 C-38.2481637 12.6748816 -36.3125739 12.52677516 -33 13 C-29.58726112 15.27515925 -26.88467576 18.10315261 -24 21 C-23.59160889 20.43490723 -23.18321777 19.86981445 -22.76245117 19.28759766 C-20.90932836 16.72958829 -19.04852615 14.17726443 -17.1875 11.625 C-16.54490234 10.73554688 -15.90230469 9.84609375 -15.24023438 8.9296875 C-14.61826172 8.07890625 -13.99628906 7.228125 -13.35546875 6.3515625 C-12.49924927 5.17327881 -12.49924927 5.17327881 -11.62573242 3.97119141 C-8.14753874 -0.24609884 -5.24710757 -0.55232711 0 0 Z " fill="#0f0" transform="translate(170,258)"/>
<path d="M0 0 C2.4375 1.5625 2.4375 1.5625 4 4 C4.79360305 9.69693619 3.41824224 12.5982098 0.18945312 17.05249023 C-0.34744141 17.75704346 -0.88433594 18.46159668 -1.4375 19.1875 C-1.98083984 19.92492432 -2.52417969 20.66234863 -3.08398438 21.42211914 C-4.18682867 22.91487916 -5.29665022 24.40251099 -6.41357422 25.88476562 C-7.8552534 27.80700453 -9.26417949 29.7475795 -10.66015625 31.703125 C-17.10320794 40.60938009 -17.10320794 40.60938009 -21 42 C-25.74999478 42.53628973 -27.89389782 42.66827007 -32 40.1875 C-36.91614543 35.43387177 -42.83147777 28.99551263 -44.1875 22.125 C-43.9728055 18.54675837 -43.21769888 16.79265785 -41 14 C-38.14675563 12.57337781 -36.16545451 12.68966132 -33 13 C-29.58726112 15.27515925 -26.88467576 18.10315261 -24 21 C-23.59160889 20.43490723 -23.18321777 19.86981445 -22.76245117 19.28759766 C-20.90932836 16.72958829 -19.04852615 14.17726443 -17.1875 11.625 C-16.54490234 10.73554688 -15.90230469 9.84609375 -15.24023438 8.9296875 C-14.61826172 8.07890625 -13.99628906 7.228125 -13.35546875 6.3515625 C-12.49924927 5.17327881 -12.49924927 5.17327881 -11.62573242 3.97119141 C-8.14753874 -0.24609884 -5.24710757 -0.55232711 0 0 Z " fill="#0f0" transform="translate(170,135)"/>
<path d="M0 0 C1.94140625 0.34375 1.94140625 0.34375 4.44140625 1.90625 C6.52874092 5.29816884 6.33037664 7.39672414 5.94140625 11.34375 C4.54461403 13.82531614 3.23950962 15.82327884 1.50390625 18.03125 C1.05450684 18.62921387 0.60510742 19.22717773 0.14208984 19.84326172 C-0.78791443 21.07793944 -1.72482089 22.30744753 -2.66845703 23.53173828 C-3.99763566 25.26429251 -5.29665773 27.01497121 -6.5859375 28.77734375 C-15.11522492 40.37206559 -15.11522492 40.37206559 -19.05859375 42.34375 C-24.86906087 42.90244876 -27.4880935 41.88370433 -32.05859375 38.34375 C-33.82321724 36.25082446 -35.35316529 34.28071025 -36.87109375 32.03125 C-37.26490234 31.48791016 -37.65871094 30.94457031 -38.06445312 30.38476562 C-40.7854974 26.43155036 -41.89246121 23.13294999 -42.05859375 18.34375 C-39.57868463 14.70138348 -37.96686722 13.56240843 -33.68359375 12.53125 C-28.37673513 13.72071831 -26.1865247 17.08443976 -23.05859375 21.34375 C-19.45573327 18.00838728 -16.77481006 14.29309979 -13.99609375 10.28125 C-6.65127525 -0.29397902 -6.65127525 -0.29397902 0 0 Z " fill="#0f0" transform="translate(168.05859375,375.65625)"/>
<path d="M0 0 C1.70289185 -0.00361794 1.70289185 -0.00361794 3.44018555 -0.00730896 C5.83743792 -0.00633063 8.23471292 0.00705929 10.63183594 0.03198242 C14.29960945 0.06628569 17.96497311 0.05263962 21.6328125 0.03320312 C23.96355192 0.04010171 26.29428512 0.04977419 28.625 0.0625 C29.72094482 0.05754013 30.81688965 0.05258026 31.94604492 0.04747009 C39.53725813 0.16480499 39.53725813 0.16480499 43.50366211 2.53930664 C45.45867438 4.79776932 45.97280805 5.68315786 45.875 8.62890625 C45.87693359 9.61890625 45.87693359 9.61890625 45.87890625 10.62890625 C45.06066419 13.51814718 43.60261262 14.7222196 41.3125 16.62890625 C38.8530426 17.14356995 38.8530426 17.14356995 36.07250977 17.16235352 C35.02785049 17.17818985 33.98319122 17.19402618 32.90687561 17.21034241 C31.78389572 17.20538254 30.66091583 17.20042267 29.50390625 17.1953125 C28.34503403 17.20151108 27.1861618 17.20770966 25.99217224 17.21409607 C23.54190918 17.22119858 21.09159791 17.21801282 18.64135742 17.20532227 C14.89216221 17.19146966 11.14546824 17.22550989 7.39648438 17.26367188 C5.01562439 17.26462317 2.63476128 17.26276368 0.25390625 17.2578125 C-0.86704941 17.27107071 -1.98800507 17.28432892 -3.14292908 17.29798889 C-10.90159917 17.20518567 -10.90159917 17.20518567 -14.89477539 14.27709961 C-16.6875 11.62890625 -16.6875 11.62890625 -17.3125 8.62890625 C-15.3788219 -0.65274865 -7.7812279 -0.09413352 0 0 Z " fill="#0f0" transform="translate(236.6875,283.37109375)"/>
<path d="M0 0 C1.18343994 -0.00241196 2.36687988 -0.00482391 3.58618164 -0.00730896 C6.08776196 -0.00632965 8.58936372 0.00708352 11.09082031 0.03198242 C14.92327379 0.06627894 18.75342117 0.05264628 22.5859375 0.03320312 C25.01563483 0.04010158 27.4453262 0.04977394 29.875 0.0625 C31.02299072 0.05754013 32.17098145 0.05258026 33.35375977 0.04747009 C34.95562134 0.07122459 34.95562134 0.07122459 36.58984375 0.09545898 C37.52820068 0.10165756 38.46655762 0.10785614 39.43334961 0.11424255 C42.67480442 0.78044021 43.8817512 2.09207156 45.9375 4.62890625 C46.64632303 7.53675506 46.27721789 9.57144525 45.9375 12.62890625 C44.12586733 15.30322114 43.05988923 15.58810984 39.9375 16.62890625 C38.32279598 16.73081203 36.70429207 16.77729033 35.08642578 16.79003906 C34.10175323 16.79964661 33.11708069 16.80925415 32.10256958 16.81915283 C31.04004974 16.82340271 29.97752991 16.82765259 28.8828125 16.83203125 C27.24226395 16.84058136 27.24226395 16.84058136 25.568573 16.8493042 C23.25357023 16.85875412 20.93855401 16.86528815 18.62353516 16.86914062 C15.08342016 16.87884888 11.54388503 16.90987408 8.00390625 16.94140625 C5.75521178 16.94793611 3.50651316 16.95318665 1.2578125 16.95703125 C0.19934113 16.96937805 -0.85913025 16.98172485 -1.94967651 16.9944458 C-11.20394414 16.96641995 -11.20394414 16.96641995 -15.0625 13.62890625 C-16.48912219 10.77566188 -16.37283868 8.79436076 -16.0625 5.62890625 C-12.78141398 -1.26681755 -6.68588433 -0.07721565 0 0 Z " fill="#0f0" transform="translate(236.0625,163.37109375)"/>
</svg>