<svg version="1.1" xmlns="http://www.w3.org/2000/svg" width="512px" height="512px" transform="rotate(0) scale(1, 1)">
<path d="M0 0 C0.87624023 0.16097168 1.75248047 0.32194336 2.65527344 0.48779297 C57.4322292 10.87446163 110.1153871 41.14762483 144 86 C144.47614746 86.62148926 144.95229492 87.24297852 145.44287109 87.88330078 C176.94953805 129.21557629 194.57461476 179.49487554 194.3125 231.5625 C194.31034485 232.34203033 194.3081897 233.12156067 194.30596924 233.92471313 C194.07395182 286.59065536 176.41266742 338.08005604 143 379 C142.1853125 380.01835937 141.370625 381.03671875 140.53125 382.0859375 C128.9470585 396.34272322 115.82181337 409.15581613 101 420 C99.87216154 420.84604192 98.74455819 421.69239736 97.6171875 422.5390625 C67.08506681 445.18699466 31.42551688 459.05976728 -6 465 C-6.74942871 465.12842285 -7.49885742 465.2568457 -8.27099609 465.38916016 C-32.0466866 469.37126808 -58.3777351 468.2531058 -82 464 C-82.89477051 463.83902832 -83.78954102 463.67805664 -84.71142578 463.51220703 C-129.91184566 454.99879341 -171.35401482 433.74054643 -204.265625 401.6875 C-205.90547243 400.09197277 -207.56040286 398.51375075 -209.21875 396.9375 C-216.09008891 390.32733317 -222.07260707 383.24020003 -227.78759766 375.61376953 C-228.85830727 374.18860026 -229.94916093 372.77861319 -231.04296875 371.37109375 C-261.02199477 331.87295432 -276.56098631 281.79790951 -276.3125 232.4375 C-276.31034485 231.65796967 -276.3081897 230.87843933 -276.30596924 230.07528687 C-276.10522829 184.50883115 -263.06526406 138.68471913 -237 101 C-236.35297119 100.06220703 -236.35297119 100.06220703 -235.69287109 99.10546875 C-221.55740428 78.83379527 -204.66943071 59.87206215 -184.6796875 45.23095703 C-183.0029241 44.00214293 -181.34512847 42.75055492 -179.6875 41.49609375 C-149.58364685 19.03223364 -113.92309939 5.1046753 -77 -1 C-76.27683594 -1.12842285 -75.55367187 -1.2568457 -74.80859375 -1.38916016 C-50.87427926 -5.51079668 -23.77381288 -4.49497363 0 0 Z M-132.55859375 142.41796875 C-137.16082557 147.4691988 -137.36483635 152.24181752 -137.49609375 158.8046875 C-136.34892468 166.19354026 -132.17016116 171.419054 -126.94628906 176.5078125 C-126.35073715 177.10394852 -125.75518524 177.70008453 -125.1415863 178.31428528 C-123.19227195 180.26083739 -121.22923012 182.19287414 -119.265625 184.125 C-117.90283299 185.48032304 -116.54092784 186.83653836 -115.17987061 188.19360352 C-111.61139034 191.74687933 -108.03105913 195.28797307 -104.44805908 198.82659912 C-100.78751456 202.44607903 -97.13839817 206.07704106 -93.48828125 209.70703125 C-86.33661091 216.81592231 -79.17235831 223.91198637 -72 231 C-73.60218938 235.01463188 -76.43095116 237.66542667 -79.47192383 240.61962891 C-80.02989151 241.16985718 -80.58785919 241.72008545 -81.16273499 242.2869873 C-82.37305219 243.47967369 -83.58556023 244.67014004 -84.79999733 245.85863113 C-86.72703968 247.74616066 -88.64639082 249.64119705 -90.56364441 251.53866577 C-96.015243 256.93233033 -101.47614861 262.31641404 -106.95239258 267.68505859 C-110.30477049 270.97263699 -113.64454547 274.27259283 -116.97693443 277.58042526 C-118.24361673 278.83293228 -119.51494149 280.08076363 -120.79111671 281.32359695 C-132.55823024 292.32967451 -132.55823024 292.32967451 -137.5 307.1875 C-136.57657574 314.22860997 -133.79816958 318.97334615 -129 324 C-123.6991447 327.74938546 -118.47415324 328.91366069 -112 328 C-101.89647932 324.89225977 -95.0572211 316.69504553 -87.8984375 309.38671875 C-86.5686159 308.04755604 -85.2376744 306.70950458 -83.90567017 305.37251282 C-80.42576512 301.87364046 -76.9611483 298.36001139 -73.49963379 294.84295654 C-69.95558398 291.24749205 -66.3970967 287.66637803 -62.83984375 284.08398438 C-55.8791263 277.06986067 -48.93449556 270.04004235 -42 263 C-37.93697859 264.61246959 -35.24902277 267.51056763 -32.25683594 270.57958984 C-31.69364151 271.14891739 -31.13044708 271.71824493 -30.55018616 272.30482483 C-29.32963589 273.53966256 -28.11133744 274.77672922 -26.89504242 276.01575851 C-24.96568511 277.97996498 -23.02926221 279.93694081 -21.09063721 281.89199829 C-15.58032293 287.45114837 -10.0811829 293.02125107 -4.59130859 298.60058594 C-1.23013854 302.01551763 2.14086796 305.42048386 5.51799774 308.81962967 C6.79915228 310.11315171 8.07650595 311.41045034 9.34986115 312.71165085 C11.13714475 314.53765295 12.93667939 316.35073329 14.73925781 318.16162109 C15.255905 318.69579147 15.77255219 319.22996185 16.30485535 319.78031921 C21.39068858 324.83970867 27.68310013 328.69512917 35 329 C41.68257322 328.12425956 46.69032164 325.56630928 51.25 320.5 C54.1983499 316.28807157 55.30759942 313.45332469 55.375 308.25 C55.40335938 307.26515625 55.43171875 306.2803125 55.4609375 305.265625 C54.41178791 297.83266692 50.18337923 292.59382219 44.94628906 287.4921875 C44.35073715 286.89605148 43.75518524 286.29991547 43.1415863 285.68571472 C41.19227195 283.73916261 39.22923012 281.80712586 37.265625 279.875 C35.90283299 278.51967696 34.54092784 277.16346164 33.17987061 275.80639648 C29.61139034 272.25312067 26.03105913 268.71202693 22.44805908 265.17340088 C18.78751456 261.55392097 15.13839817 257.92295894 11.48828125 254.29296875 C4.33661091 247.18407769 -2.82764169 240.08801363 -10 233 C-8.38753041 228.93697859 -5.48943237 226.24902277 -2.42041016 223.25683594 C-1.85108261 222.69364151 -1.28175507 222.13044708 -0.69517517 221.55018616 C0.53966256 220.32963589 1.77672922 219.11133744 3.01575851 217.89504242 C4.97996498 215.96568511 6.93694081 214.02926221 8.89199829 212.09063721 C14.45114837 206.58032293 20.02125107 201.0811829 25.60058594 195.59130859 C29.01551763 192.23013854 32.42048386 188.85913204 35.81962967 185.48200226 C37.11315171 184.20084772 38.41045034 182.92349405 39.71165085 181.65013885 C41.53765295 179.86285525 43.35073329 178.06332061 45.16162109 176.26074219 C45.69579147 175.744095 46.22996185 175.22744781 46.78031921 174.69514465 C51.9714266 169.47690504 55.5727283 163.52802615 55.5625 156 C55.30772504 148.79350817 52.65655316 144.7303463 47.75 139.6875 C41.32336667 135.74388409 36.09871115 134.45819327 28.65234375 135.87109375 C19.04215303 139.96144002 11.7487905 148.99395536 4.53125 156.2734375 C3.24274896 157.56567467 1.9538012 158.85746657 0.66442871 160.14883423 C-2.70681232 163.52766446 -6.07200031 166.9124599 -9.43591309 170.29858398 C-12.87808037 173.76131185 -16.32600767 177.21829406 -19.7734375 180.67578125 C-26.52123688 187.44494727 -33.26264804 194.22043669 -40 201 C-44.06302141 199.38753041 -46.75097723 196.48943237 -49.74316406 193.42041016 C-50.30635849 192.85108261 -50.86955292 192.28175507 -51.44981384 191.69517517 C-52.67036411 190.46033744 -53.88866256 189.22327078 -55.10495758 187.98424149 C-57.03431489 186.02003502 -58.97073779 184.06305919 -60.90936279 182.10800171 C-66.41967707 176.54885163 -71.9188171 170.97874893 -77.40869141 165.39941406 C-80.76986146 161.98448237 -84.14086796 158.57951614 -87.51799774 155.18037033 C-88.79915228 153.88684829 -90.07650595 152.58954966 -91.34986115 151.28834915 C-93.13714475 149.46234705 -94.93667939 147.64926671 -96.73925781 145.83837891 C-97.255905 145.30420853 -97.77255219 144.77003815 -98.30485535 144.21968079 C-108.50609704 134.07148043 -121.68080668 132.04495139 -132.55859375 142.41796875 Z " fill="#ffffff" transform="translate(297,24)"/>
</svg>