<svg version="1.1" xmlns="http://www.w3.org/2000/svg" width="512px" height="512px" transform="rotate(0) scale(1, 1)">
<path d="M0 0 C0.68487623 -0.00205263 1.36975245 -0.00410527 2.0753825 -0.0062201 C4.37515973 -0.01188405 6.67487695 -0.0104336 8.97465992 -0.00901413 C10.63826832 -0.01159811 12.30187609 -0.01461136 13.96548301 -0.01801753 C18.54111906 -0.02608688 23.11673942 -0.02787707 27.69238174 -0.028615 C32.62573249 -0.03046566 37.5590751 -0.03801306 42.49242115 -0.04475021 C53.2817075 -0.05833355 64.07099014 -0.06435824 74.86028361 -0.06876087 C81.59679255 -0.07152326 88.33330004 -0.07576061 95.06980801 -0.08026505 C113.72020058 -0.09245765 132.370592 -0.10275702 151.02098846 -0.10614014 C152.21471218 -0.1063597 153.4084359 -0.10657927 154.63833307 -0.10680549 C155.83491697 -0.10702377 157.03150086 -0.10724204 158.26434487 -0.10746694 C160.68908958 -0.1079104 163.11383428 -0.10835697 165.53857899 -0.10880661 C167.34271562 -0.10913875 167.34271562 -0.10913875 169.18329946 -0.10947761 C188.67282047 -0.11342573 208.1623041 -0.13088022 227.65181067 -0.15416613 C247.6600183 -0.17787888 267.66820718 -0.19034195 287.67642909 -0.19150805 C298.91085649 -0.19242485 310.14523518 -0.19817836 321.37964916 -0.21632767 C330.94592539 -0.23172759 340.51213785 -0.23684973 350.07842412 -0.22858956 C354.95861293 -0.22468272 359.83867331 -0.22561444 364.71884632 -0.23964691 C369.18925014 -0.2523835 373.65942899 -0.2511904 378.12983248 -0.2390562 C379.74425349 -0.23709879 381.35869042 -0.24017966 382.97308906 -0.24890056 C395.5459607 -0.31250083 406.2229353 0.7274596 416.10327625 9.13142776 C422.87027502 16.40078015 426.22130821 24.56957251 426.23470402 34.51326656 C426.23854516 35.58645726 426.24238631 36.65964795 426.24634385 37.76535958 C426.24547737 38.9384953 426.24461089 40.11163103 426.24371815 41.32031631 C426.24817483 43.19661688 426.24817483 43.19661688 426.25272155 45.1108225 C426.26077844 48.5805069 426.26258039 52.0501706 426.26331902 55.51986325 C426.26517186 59.26302018 426.27272037 63.00616643 426.27945423 66.74931717 C426.29302886 74.93331434 426.29906095 83.11730661 426.30346489 91.30131316 C426.30622884 96.41297811 426.31046648 101.52464118 426.31496906 106.63630486 C426.3271607 120.79335251 426.33746015 134.95039865 426.34084415 149.10745144 C426.34106372 150.01331687 426.34128329 150.9191823 426.34150951 151.85249819 C426.34172778 152.76051213 426.34194606 153.66852607 426.34217095 154.60405558 C426.34261442 156.44399019 426.34306098 158.2839248 426.34351063 160.12385941 C426.34373206 161.03652753 426.34395349 161.94919565 426.34418163 162.88952038 C426.34812879 177.67464891 426.36558079 192.45972812 426.38887015 207.2448376 C426.41259652 222.43015279 426.42504659 237.61544324 426.42621207 252.80077726 C426.42712812 261.32448056 426.43286275 269.84811961 426.45103168 278.37180519 C426.46645004 285.6305957 426.47154292 292.8893021 426.46329358 300.14810588 C426.45939318 303.84960493 426.46028668 307.55093469 426.47435093 311.2524128 C426.48947977 315.27093712 426.48120534 319.28908181 426.47076893 323.307621 C426.48285354 325.05059417 426.48285354 325.05059417 426.49518228 326.82877892 C426.42183231 338.91933643 423.65658158 347.37460363 415.2165575 356.07674026 C407.01894044 363.77509185 398.35203051 365.26050394 387.26320362 365.25168228 C386.28643025 365.25296392 386.28643025 365.25296392 385.28992409 365.25427145 C383.12815132 365.25590639 380.96645777 365.25043772 378.80469227 365.24495316 C377.24702932 365.24467083 375.68936624 365.24482991 374.13170338 365.24539566 C369.91736453 365.24568186 365.7030543 365.23981383 361.48872209 365.2328217 C357.0791493 365.2265586 352.66957582 365.22598203 348.25999928 365.2247963 C339.91622419 365.22169169 331.57246225 365.21349005 323.22869295 365.20344681 C313.72689942 365.19225861 304.22510525 365.1867684 294.72330678 365.18175137 C275.18328764 365.1713067 255.64328652 365.15297206 236.10327625 365.13142776 C236.10327625 381.63142776 236.10327625 398.13142776 236.10327625 415.13142776 C240.42550282 415.08502151 244.74772938 415.03861526 249.2009325 414.99080276 C252.66041318 414.96505529 256.11986657 414.94337254 259.57938862 414.92442703 C263.22418607 414.90335701 266.86860777 414.87522978 270.51318836 414.82966995 C274.0275075 414.78601642 277.54146366 414.76225001 281.05603313 414.75191879 C283.0407392 414.74099644 285.02530046 414.70980149 287.00978565 414.67824173 C298.79733932 414.67532439 298.79733932 414.67532439 304.10327625 419.13142776 C307.86134184 423.66659578 308.69623295 428.09707535 308.59937 433.92830276 C308.60082523 434.64375259 308.60228046 435.35920242 308.60377979 436.09633255 C308.60213139 437.59554021 308.59068974 439.09476668 308.56982899 440.59383011 C308.54067195 442.88964028 308.54927965 445.18316511 308.56226063 447.47908401 C308.55602802 448.94133481 308.54764082 450.40357836 308.53687 451.86580276 C308.53980564 452.55019424 308.54274128 453.23458572 308.54576588 453.93971634 C308.45156102 458.67711017 308.45156102 458.67711017 306.81530952 460.81150687 C303.81210926 463.12687472 300.05361608 462.54122234 296.4106493 462.51237869 C295.5118212 462.51705866 294.61299311 462.52173864 293.6869278 462.52656043 C290.66280191 462.53856546 287.63912458 462.52903168 284.614995 462.51961136 C282.45195723 462.52367461 280.28892152 462.5290151 278.12588978 462.53554153 C272.24170463 462.54925021 266.3576768 462.54390181 260.47348881 462.53440428 C254.32493372 462.52682607 248.1763924 462.53384816 242.0278368 462.53856277 C231.70107058 462.54402569 221.37436866 462.53681463 211.04761219 462.52254105 C199.09662155 462.50621355 187.14578443 462.51150167 175.19479752 462.52802026 C164.94677857 462.54161984 154.69880592 462.54356227 144.45078087 462.53570426 C138.32445286 462.53101933 132.19819708 462.53042536 126.07187366 462.54031372 C120.31318799 462.54895887 114.55470087 462.54300636 108.79603672 462.52563095 C106.67839736 462.52165298 104.56074138 462.52282241 102.44310856 462.52941895 C99.56047864 462.53757281 96.67849175 462.52738761 93.79590321 462.51237869 C92.95067946 462.51907086 92.10545572 462.52576302 91.23461914 462.53265798 C85.54821698 462.47491907 85.54821698 462.47491907 83.3922348 460.81051505 C80.35210154 456.85022549 81.58769581 450.12157248 81.60229969 445.24544144 C81.60326583 442.96849492 81.56178628 440.69499146 81.51733875 438.41853714 C81.40496428 425.33825647 81.40496428 425.33825647 85.44116688 419.58333206 C89.68065941 415.88000332 93.85863943 414.75646115 99.38403797 414.79085159 C100.60485065 414.79107819 101.82566334 414.79130478 103.08347034 414.79153824 C105.03846958 414.81476402 105.03846958 414.81476402 107.03296375 414.83845901 C108.39201862 414.84406073 109.75107959 414.84832811 111.11014271 414.85132217 C114.6711168 414.86272582 118.23171841 414.89215348 121.79254627 414.92543411 C125.4325291 414.95623233 129.07257445 414.97001311 132.71265125 414.98494339 C139.84318756 415.01543314 146.97270366 415.07416261 154.10327625 415.13142776 C154.10327625 398.63142776 154.10327625 382.13142776 154.10327625 365.13142776 C149.36935535 365.1419014 144.63543446 365.15237503 139.75806141 365.16316605 C124.11187416 365.19631532 108.46568551 365.21850323 92.81947231 365.23505211 C83.3338145 365.24535229 73.84819001 365.25938853 64.3625536 365.28230667 C56.0921582 365.30227911 47.82178696 365.31515334 39.55136812 365.31960475 C35.17472586 365.32220561 30.79815269 365.32829246 26.42153263 365.34288788 C22.29625658 365.35653274 18.17107761 365.36063653 14.04578114 365.35764313 C12.53739741 365.35819022 11.0290102 365.36212634 9.5206461 365.36983871 C-3.82121222 365.43467052 -15.88845186 364.95895647 -26.08422375 355.50642776 C-32.78855025 348.44576895 -36.01510823 340.43160198 -36.02815151 330.74958897 C-36.03199266 329.67639827 -36.0358338 328.60320758 -36.03979135 327.49749595 C-36.03892486 326.32436023 -36.03805838 325.1512245 -36.03716564 323.94253922 C-36.04013676 322.69167217 -36.04310789 321.44080513 -36.04616904 320.15203303 C-36.05422593 316.68234863 -36.05602788 313.21268493 -36.05676651 309.74299228 C-36.05861936 305.99983535 -36.06616787 302.2566891 -36.07290173 298.51353836 C-36.08647636 290.32954119 -36.09250844 282.14554892 -36.09691238 273.96154237 C-36.09967633 268.84987742 -36.10391397 263.73821435 -36.10841656 258.62655067 C-36.1206082 244.46950302 -36.13090765 230.31245688 -36.13429165 216.15540409 C-36.13451121 215.24953866 -36.13473078 214.34367323 -36.134957 213.41035734 C-36.13517528 212.5023434 -36.13539356 211.59432946 -36.13561845 210.65879995 C-36.13606191 208.81886534 -36.13650848 206.97893073 -36.13695812 205.13899612 C-36.13717955 204.226328 -36.13740098 203.31365988 -36.13762912 202.37333515 C-36.14157628 187.58820662 -36.15902829 172.80312741 -36.18231764 158.01801793 C-36.20604401 142.83270274 -36.21849409 127.64741229 -36.21965957 112.46207827 C-36.22057562 103.93837497 -36.22631024 95.41473592 -36.24447918 86.89105034 C-36.25989753 79.63225983 -36.26499041 72.37355343 -36.25674108 65.11474965 C-36.25284067 61.4132506 -36.25373418 57.71192084 -36.26779842 54.01044273 C-36.28292727 49.99191841 -36.27465283 45.97377372 -36.26421642 41.95523453 C-36.27227283 40.79325241 -36.28032923 39.6312703 -36.28862977 38.43407661 C-36.22309597 27.63188709 -33.99997026 18.48254191 -26.89672375 10.13142776 C-19.05288105 2.82963923 -10.63231369 0.0108638 0 0 Z M-18.83422375 18.81892776 C-19.35887218 19.42091995 -19.88352062 20.02291214 -20.4240675 20.64314651 C-24.4264684 27.40582391 -25.3356402 34.17478238 -25.2574873 41.907444 C-25.26005535 42.84801147 -25.26262341 43.78857895 -25.26526928 44.75764847 C-25.27020681 47.89682325 -25.25371077 51.03551027 -25.23729992 54.17464066 C-25.23638031 56.46855498 -25.23678242 58.76247015 -25.23839569 61.05638409 C-25.23907159 67.1865815 -25.22171309 73.31660242 -25.20056438 79.44675827 C-25.18345046 85.20391762 -25.18267344 90.96103453 -25.18053722 96.71821976 C-25.16480964 113.54347904 -25.12292604 130.36870565 -25.08422375 147.19392776 C-25.02234875 184.79330276 -24.96047375 222.39267776 -24.89672375 261.13142776 C120.30327625 261.13142776 265.50327625 261.13142776 415.10327625 261.13142776 C415.16515125 223.53205276 415.22702625 185.93267776 415.29077625 147.19392776 C415.31808826 135.32045364 415.34540028 123.44697952 415.37353992 111.21370316 C415.38357303 100.57331597 415.38357303 100.57331597 415.38960743 89.93292618 C415.39240312 85.19244553 415.40364863 80.45206561 415.42000294 75.7116127 C415.44059409 69.66285605 415.4467471 63.61424567 415.44249308 57.56545722 C415.44338251 55.34682137 415.44932314 53.12818035 415.46092165 50.90957463 C415.47587969 47.90868035 415.47223325 44.90835172 415.4640398 41.907444 C415.4727778 41.04288306 415.48151579 40.17832212 415.49051857 39.28756237 C415.42476199 30.30511961 413.13038889 23.35184915 406.9353075 16.79158401 C401.153904 11.55257231 394.76677641 11.00831468 387.28463936 10.99720669 C386.608205 10.99485446 385.93177064 10.99250223 385.23483828 10.99007872 C382.96377997 10.98341143 380.69277918 10.98384625 378.42171192 10.98425674 C376.77872734 10.98095672 375.13574357 10.97723086 373.49276084 10.97311527 C368.97413454 10.96310317 364.45552153 10.95937975 359.93688571 10.95672596 C355.06488378 10.95282064 350.19289233 10.94324255 345.3208971 10.93451309 C333.55420183 10.91475659 321.78750571 10.90468415 310.020798 10.8957853 C304.47974961 10.89140164 298.93870217 10.88603509 293.39765453 10.88079643 C274.97887877 10.86378605 256.5601036 10.84929129 238.14132118 10.84204769 C233.36228211 10.8401378 228.58324304 10.83821747 223.80420399 10.83626175 C222.61639931 10.83577801 221.42859462 10.83529427 220.20479586 10.83479587 C200.95775712 10.82649331 181.71078049 10.80115172 162.46376888 10.76868107 C142.70416421 10.7356173 122.94459112 10.7175996 103.18495864 10.71440345 C92.09024115 10.71223788 80.99561426 10.70348213 69.90092373 10.67794228 C60.45357809 10.65624475 51.00634507 10.64818028 41.55897734 10.65790906 C36.73950652 10.66245628 31.92026812 10.6605428 27.10082912 10.64114761 C22.68588039 10.62353376 18.27133393 10.62449922 13.85638102 10.64004491 C12.26214556 10.64242365 10.66788238 10.63808355 9.07368932 10.62621626 C-0.82869807 10.55708815 -11.97017611 10.48775544 -18.83422375 18.81892776 Z M-24.89672375 272.13142776 C-29.49789429 308.82960735 -29.49789429 308.82960735 -17.885005 347.52595901 C-9.74758958 354.09664219 -1.54130725 353.69894194 8.42480946 353.63936234 C10.10068681 353.64397384 11.77656012 353.65032843 13.452425 353.65827131 C18.04805475 353.67495357 22.64335181 353.66672328 27.23898268 353.65432644 C32.19884611 353.64527377 37.15865245 353.65924676 42.11850452 353.67024612 C51.83107831 353.68803359 61.54352846 353.68419033 71.25610709 353.67259556 C79.14964198 353.66356242 87.04314222 353.66233673 94.93668079 353.66669083 C96.06008375 353.66730376 97.18348672 353.66791669 98.34093219 353.6685482 C100.62309608 353.6698271 102.90525996 353.67112395 105.18742383 353.67243856 C126.58782483 353.68384503 147.9881573 353.67072959 169.38854706 353.6492371 C187.75149893 353.63136607 206.11434965 353.63447016 224.47729969 353.65291214 C245.80106713 353.67431765 267.1247745 353.68274639 288.44855118 353.67046309 C290.72232468 353.66918889 292.99609819 353.6679314 295.26987171 353.66669083 C296.38861488 353.66607372 297.50735805 353.66545662 298.66000253 353.66482082 C306.54415409 353.66136697 314.42826755 353.66719704 322.31241322 353.67660904 C331.92042606 353.68782683 341.52830818 353.68479353 351.13630605 353.66348606 C356.03857095 353.65297276 360.9406179 353.64885868 365.8428812 353.66208267 C370.33102562 353.67400648 374.81875015 353.66744418 379.30685651 353.64617246 C380.92989416 353.64170636 382.55296732 353.64397288 384.17598212 353.65367562 C393.46149929 353.70492583 400.58781846 353.58497031 408.0915575 347.52595901 C424.30561733 328.15517958 415.10327625 289.50403512 415.10327625 272.13142776 C269.90327625 272.13142776 124.70327625 272.13142776 -24.89672375 272.13142776 Z M165.10327625 365.13142776 C165.10327625 381.63142776 165.10327625 398.13142776 165.10327625 415.13142776 C184.90327625 415.13142776 204.70327625 415.13142776 225.10327625 415.13142776 C225.10327625 398.63142776 225.10327625 382.13142776 225.10327625 365.13142776 C205.30327625 365.13142776 185.50327625 365.13142776 165.10327625 365.13142776 Z M93.10327625 429.13142776 C93.10327625 436.39142776 93.10327625 443.65142776 93.10327625 451.13142776 C160.42327625 451.13142776 227.74327625 451.13142776 297.10327625 451.13142776 C297.10327625 443.87142776 297.10327625 436.61142776 297.10327625 429.13142776 C293.82793696 425.85608848 292.95481542 425.77988888 288.54774189 425.73019755 C287.40830757 425.7402358 287.40830757 425.7402358 286.24585438 425.75047684 C285.43686443 425.74579687 284.62787449 425.74111689 283.7943697 425.7362951 C281.07425681 425.72429621 278.35464319 425.73382131 275.63452625 425.74324417 C273.68823419 425.73918064 271.74194443 425.73384 269.79565907 425.727314 C264.5023584 425.7136086 259.20923266 425.71895234 253.91592884 425.72845125 C248.38397204 425.73603117 242.8520305 425.72900689 237.32007313 425.72429276 C228.02903006 425.71883033 218.73805847 425.72603959 209.44702625 425.74031448 C198.6957244 425.7566419 187.9445932 425.75135374 177.19329548 425.73483527 C167.97286738 425.72123427 158.75249074 425.71929395 149.53205585 425.72715127 C144.02052989 425.73183542 138.50908421 425.73243231 132.99756336 425.72254181 C127.81669571 425.71389458 122.63604871 425.71985293 117.45520496 425.73722458 C115.55042354 425.74120144 113.64562364 425.74003498 111.74084949 425.73343658 C109.14721247 425.72527824 106.55428926 425.73547302 103.96069813 425.75047684 C103.20107525 425.74378467 102.44145237 425.73709251 101.65881062 425.73019755 C97.25173708 425.77988888 96.37861554 425.85608848 93.10327625 429.13142776 Z " fill="#00ff00" transform="translate(60.89672374725342,24.868572235107422)"/>
<path d="M0 0 C1.00522375 -0.00701996 1.00522375 -0.00701996 2.03075504 -0.01418173 C4.28103871 -0.02616795 6.53071744 -0.01666083 8.78100586 -0.00723267 C10.39232744 -0.01129678 12.00364623 -0.01663775 13.61495972 -0.02316284 C17.99507835 -0.03686144 22.37498545 -0.03152736 26.75510788 -0.02202559 C31.33414032 -0.01444213 35.91315437 -0.02147093 40.4921875 -0.02618408 C48.18256896 -0.03164548 55.87286406 -0.02443997 63.56323242 -0.01016235 C72.4604729 0.00616491 81.35750715 0.00087667 90.25474262 -0.01564157 C97.88707656 -0.02924552 105.51934834 -0.03118145 113.15169048 -0.02332556 C117.71306935 -0.01864303 122.27435121 -0.01804007 126.83572388 -0.02793503 C131.12360435 -0.03658658 135.41121836 -0.03061612 139.69906998 -0.01325226 C141.27488894 -0.00927769 142.85073023 -0.01043799 144.42654037 -0.01704025 C146.57356508 -0.02520795 148.7197297 -0.01499331 150.86669922 0 C152.06942978 0.00113108 153.27216034 0.00226215 154.51133728 0.00342751 C157.43334961 0.38095093 157.43334961 0.38095093 159.31995583 1.78619194 C160.72528065 3.79909557 160.81334547 4.9928796 160.8215332 7.43759155 C160.83098969 8.24853271 160.84044617 9.05947388 160.85018921 9.89498901 C160.84108017 11.20288391 160.84108017 11.20288391 160.83178711 12.53720093 C160.83609238 13.8852179 160.83609238 13.8852179 160.84048462 15.26046753 C160.84252576 17.16017283 160.83699239 19.05989913 160.82446289 20.95956421 C160.80840982 23.87003502 160.82430974 26.77911714 160.84350586 29.68954468 C160.84152344 31.53459983 160.83767978 33.37965412 160.83178711 35.22470093 C160.8378598 36.09663086 160.8439325 36.96856079 160.85018921 37.86691284 C160.83600449 39.08332458 160.83600449 39.08332458 160.8215332 40.3243103 C160.81914642 41.03696045 160.81675964 41.7496106 160.81430054 42.4838562 C160.29427537 45.07352573 159.55519605 45.80049094 157.43334961 47.38095093 C154.51133728 47.75847435 154.51133728 47.75847435 150.86669922 47.76190186 C149.86147547 47.76892181 149.86147547 47.76892181 148.83594418 47.77608359 C146.58566051 47.78806981 144.33598178 47.77856269 142.08569336 47.76913452 C140.47437178 47.77319863 138.86305299 47.77853961 137.2517395 47.7850647 C132.87162087 47.79876329 128.49171376 47.79342921 124.11159134 47.78392744 C119.5325589 47.77634399 114.95354485 47.78337279 110.37451172 47.78808594 C102.68413025 47.79354733 94.99383516 47.78634183 87.3034668 47.77206421 C78.40622632 47.75573695 69.50919207 47.76102519 60.6119566 47.77754343 C52.97962266 47.79114738 45.34735088 47.7930833 37.71500874 47.78522742 C33.15362987 47.78054489 28.59234801 47.77994193 24.03097534 47.78983688 C19.74309487 47.79848844 15.45548086 47.79251798 11.16762924 47.77515411 C9.59181028 47.77117955 8.01596898 47.77233984 6.44015884 47.77894211 C4.29313414 47.78710981 2.14696952 47.77689517 0 47.76190186 C-1.20273056 47.76077078 -2.40546112 47.7596397 -3.64463806 47.75847435 C-6.56665039 47.38095093 -6.56665039 47.38095093 -8.45325661 45.97570992 C-9.85858143 43.96280629 -9.94664625 42.76902225 -9.95483398 40.3243103 C-9.96429047 39.51336914 -9.97374695 38.70242798 -9.98348999 37.86691284 C-9.9774173 36.99498291 -9.9713446 36.12305298 -9.96508789 35.22470093 C-9.96795807 34.32602295 -9.97082825 33.42734497 -9.9737854 32.50143433 C-9.97582654 30.60172902 -9.97029317 28.70200273 -9.95776367 26.80233765 C-9.9417106 23.89186683 -9.95761052 20.98278472 -9.97680664 18.07235718 C-9.97482422 16.22730202 -9.97098056 14.38224774 -9.96508789 12.53720093 C-9.97116058 11.665271 -9.97723328 10.79334106 -9.98348999 9.89498901 C-9.97403351 9.08404785 -9.96457703 8.27310669 -9.95483398 7.43759155 C-9.9524472 6.72494141 -9.95006042 6.01229126 -9.94760132 5.27804565 C-8.86104966 -0.13286498 -4.77165538 0.00448738 0 0 Z M1.43334961 11.38095093 C1.43334961 19.63095093 1.43334961 27.88095093 1.43334961 36.38095093 C50.27334961 36.38095093 99.11334961 36.38095093 149.43334961 36.38095093 C149.43334961 28.13095093 149.43334961 19.88095093 149.43334961 11.38095093 C100.59334961 11.38095093 51.75334961 11.38095093 1.43334961 11.38095093 Z " fill="#00ff00" transform="translate(70.566650390625,60.619049072265625)"/>
<path d="M0 0 C0.81482346 -0.00960754 1.62964691 -0.01921509 2.46916199 -0.02911377 C3.34728043 -0.03336365 4.22539886 -0.03761353 5.13012695 -0.04199219 C6.03914261 -0.04769226 6.94815826 -0.05339233 7.88471985 -0.05926514 C9.81050453 -0.0687132 11.73630537 -0.07524835 13.66210938 -0.07910156 C16.58989232 -0.08877299 19.51696289 -0.11978396 22.44458008 -0.15136719 C24.31892488 -0.15790104 26.1932747 -0.16315001 28.06762695 -0.16699219 C28.93562424 -0.17933899 29.80362152 -0.19168579 30.69792175 -0.20440674 C39.35826859 -0.17311484 45.7719482 2.25150495 52.16918945 8.19628906 C58.2560618 14.98497374 59.08417242 22.56712954 59.1340332 31.39160156 C59.13973328 32.18206375 59.14543335 32.97252594 59.15130615 33.78694153 C59.16072709 35.45698725 59.16727854 37.12705132 59.17114258 38.79711914 C59.18081046 41.32309374 59.21184517 43.84824075 59.2434082 46.37402344 C59.31996395 57.80154123 59.19457578 67.7706075 50.8996582 76.46972656 C44.06798513 82.33900125 36.88760363 83.32090934 28.1418457 83.39941406 C27.28338043 83.40748581 26.42491516 83.41555756 25.54043579 83.4238739 C23.72318525 83.43768918 21.90590904 83.44842274 20.08862305 83.45629883 C18.24414378 83.46778839 16.39969697 83.48819204 14.55541992 83.51782227 C3.12538855 83.70131784 -6.08388983 83.71669931 -15.9440918 77.28613281 C-22.14937045 71.08085416 -24.2748068 64.69629499 -24.37263489 56.13052368 C-24.37172348 55.24601532 -24.37081207 54.36150696 -24.36987305 53.45019531 C-24.37415817 52.52322845 -24.3784433 51.5962616 -24.38285828 50.64120483 C-24.38858385 48.68626723 -24.38911495 46.73130833 -24.38476562 44.77636719 C-24.38160937 41.80268578 -24.4050743 38.83000367 -24.43041992 35.85644531 C-24.43269363 33.95019656 -24.43339608 32.04394515 -24.43237305 30.13769531 C-24.44158279 29.25723541 -24.45079254 28.37677551 -24.46028137 27.46963501 C-24.40443311 19.92980334 -22.87028983 13.35469525 -17.6628418 7.54394531 C-12.74570781 3.27760847 -6.55443679 0.06256338 0 0 Z M-8.49487305 15.59082031 C-13.30913602 21.04246458 -13.0690918 23.52554486 -13.0690918 31.16113281 C-4.8190918 31.16113281 3.4309082 31.16113281 11.9309082 31.16113281 C11.9309082 24.56113281 11.9309082 17.96113281 11.9309082 11.16113281 C0.78252787 10.34835245 0.78252787 10.34835245 -8.49487305 15.59082031 Z M22.9309082 11.16113281 C22.9309082 17.76113281 22.9309082 24.36113281 22.9309082 31.16113281 C30.8509082 31.16113281 38.7709082 31.16113281 46.9309082 31.16113281 C47.52498751 21.66728 47.52498751 21.66728 42.9309082 15.16113281 C36.71230609 10.37759272 30.51806486 10.81626206 22.9309082 11.16113281 Z M-13.0690918 42.16113281 C-14.38820952 56.66933974 -14.38820952 56.66933974 -8.60424805 67.80566406 C-3.20731784 72.08598802 0.78528392 72.32347682 7.51293945 72.36425781 C8.24534348 72.36995789 8.9777475 72.37565796 9.73234558 72.38153076 C11.27971971 72.39095762 12.8271137 72.39750553 14.37451172 72.40136719 C16.7250529 72.41105714 19.07471318 72.4420946 21.42504883 72.47363281 C22.93350722 72.48016541 24.44197182 72.48541487 25.95043945 72.48925781 C26.64547073 72.50160461 27.34050201 72.51395142 28.05659485 72.52667236 C34.48117136 72.49777716 38.93604675 70.89579495 43.8059082 66.66113281 C49.9835608 59.39330623 46.9309082 53.15483748 46.9309082 42.16113281 C27.1309082 42.16113281 7.3309082 42.16113281 -13.0690918 42.16113281 Z " fill="#00ff00" transform="translate(418.069091796875,403.8388671875)"/>
<path d="M0 0 C2 3 2 3 1.86230469 5.66552734 C0.78128498 9.84575589 -0.90537163 13.48274018 -2.796875 17.3515625 C-3.18173065 18.15453766 -3.5665863 18.95751282 -3.96310425 19.78482056 C-4.78909121 21.50612818 -5.61849385 23.22580017 -6.45098877 24.94396973 C-8.2090875 28.57251103 -9.95089042 32.20879188 -11.69363403 35.84472656 C-12.5696362 37.67195686 -13.44648756 39.49878028 -14.32418823 41.32519531 C-17.82081778 48.60502122 -21.24369898 55.91580229 -24.625 63.25 C-29.52656699 73.86061756 -34.50048807 84.43526989 -39.5 95 C-44.59826759 105.7753346 -49.67457123 116.55962554 -54.6875 127.375 C-55.19845215 128.47577881 -55.7094043 129.57655762 -56.23583984 130.71069336 C-58.7787632 136.19284501 -61.31315689 141.67875892 -63.83375549 147.17120361 C-65.11521023 149.96032884 -66.40196606 152.74698977 -67.68960571 155.53326416 C-68.30743107 156.87356885 -68.92285613 158.21498288 -69.53573608 159.55755615 C-70.38499646 161.41751165 -71.24235336 163.2735302 -72.1015625 165.12890625 C-72.58963379 166.19181885 -73.07770508 167.25473145 -73.58056641 168.34985352 C-74.87206143 170.76113293 -75.83805951 172.35006126 -78 174 C-81.0625 174.3125 -81.0625 174.3125 -84 174 C-86 172 -86 172 -86.48046875 169.13671875 C-86.28919376 163.19189201 -82.94695981 157.99540404 -80.3125 152.8125 C-79.41053073 150.99733775 -78.51394478 149.17957851 -77.61756897 147.36164856 C-76.99908783 146.10795564 -76.37906379 144.85502278 -75.7575531 143.60282898 C-72.6177249 137.26806094 -69.64408564 130.85961449 -66.6875 124.4375 C-65.60744005 122.09995109 -64.52669488 119.76271868 -63.4453125 117.42578125 C-63.17017822 116.83115585 -62.89504395 116.23653046 -62.61157227 115.62388611 C-59.12975551 108.10805118 -55.59449327 100.61734654 -52.0625 93.125 C-47.02008871 82.42663326 -41.9951382 71.72052102 -37 61 C-32.19757463 50.69713742 -27.38370886 40.39969355 -22.55029297 30.11132812 C-21.86259618 28.64705509 -21.17540227 27.18254574 -20.48876953 25.71777344 C-18.34139723 21.13770619 -16.18112144 16.56409708 -14 12 C-13.71141113 11.39482544 -13.42282227 10.78965088 -13.12548828 10.1661377 C-12.30981947 8.46395832 -11.48330971 6.76698644 -10.65625 5.0703125 C-10.19025391 4.11141113 -9.72425781 3.15250977 -9.24414062 2.16455078 C-6.86480076 -1.97501501 -4.23711184 -1.05927796 0 0 Z " fill="#00ff00" transform="translate(388,72)"/>
<path d="M0 0 C1.5159375 0.433125 1.5159375 0.433125 3.0625 0.875 C4.25 3.0625 4.25 3.0625 5.0625 5.875 C2.76038889 11.23700046 -1.91642742 14.87796848 -6.125 18.75 C-7.22038086 19.77287109 -7.22038086 19.77287109 -8.33789062 20.81640625 C-12.51531415 24.70152113 -16.76347076 28.49321611 -21.06860352 32.23583984 C-24.43481262 35.18825368 -27.70113989 38.24723103 -30.9753418 41.30078125 C-33.61092153 43.75113331 -36.25774042 46.17239468 -38.99609375 48.5078125 C-40.35927734 49.67957031 -40.35927734 49.67957031 -41.75 50.875 C-42.56082031 51.555625 -43.37164062 52.23625 -44.20703125 52.9375 C-46.38159019 54.93925833 -46.38159019 54.93925833 -45.9375 58.875 C-44.70229322 60.58559448 -44.70229322 60.58559448 -42.9375 62.08203125 C-41.98399658 62.95625732 -41.98399658 62.95625732 -41.01123047 63.84814453 C-40.32689941 64.45513184 -39.64256836 65.06211914 -38.9375 65.6875 C-38.24414551 66.31769043 -37.55079102 66.94788086 -36.83642578 67.59716797 C-32.93887507 71.12849358 -29.00152789 74.61553251 -25.015625 78.046875 C-21.57553847 81.07311654 -18.22975626 84.20173024 -14.87255859 87.31933594 C-11.43339229 90.50920023 -7.95290078 93.64385483 -4.4375 96.75 C-0.90165145 99.91153233 2.1721974 103.11760662 5.0625 106.875 C3.81273244 110.52816671 3.39151247 111.65565836 0.0625 113.875 C-3.99204258 113.60018446 -6.00058224 112.32040665 -8.86328125 109.5234375 C-9.57806641 108.83636719 -10.29285156 108.14929688 -11.02929688 107.44140625 C-11.76212891 106.71824219 -12.49496094 105.99507813 -13.25 105.25 C-14.70308786 103.8397646 -16.15750898 102.43090164 -17.61328125 101.0234375 C-18.69029297 99.97905518 -18.69029297 99.97905518 -19.7890625 98.91357422 C-22.47876701 96.36141142 -25.25953838 93.9297064 -28.06420898 91.50537109 C-30.86979629 89.06359968 -33.59060479 86.53420771 -36.3125 84 C-40.2278225 80.37062483 -44.15507587 76.75730579 -48.125 73.1875 C-49.30255859 72.12015625 -49.30255859 72.12015625 -50.50390625 71.03125 C-52.23348572 69.49878152 -53.99510713 68.0021468 -55.77734375 66.53125 C-56.69644531 65.7578125 -57.61554688 64.984375 -58.5625 64.1875 C-59.40039062 63.50300781 -60.23828125 62.81851563 -61.1015625 62.11328125 C-62.9375 59.875 -62.9375 59.875 -63.4609375 56.8828125 C-62.81160699 53.15158492 -61.70180701 51.98234344 -58.9375 49.4375 C-58.10734375 48.66148437 -57.2771875 47.88546875 -56.421875 47.0859375 C-55.60203125 46.35632813 -54.7821875 45.62671875 -53.9375 44.875 C-53.30328125 44.31039062 -52.6690625 43.74578125 -52.015625 43.1640625 C-50.75825806 42.06252309 -49.49486962 40.96783129 -48.2265625 39.87890625 C-45.28787429 37.30630036 -42.42613478 34.65557349 -39.5625 32 C-34.90232931 27.68104542 -30.20937056 23.40354855 -25.4765625 19.1640625 C-23.07895636 17.00252835 -20.69889458 14.82366478 -18.32519531 12.63598633 C-16.78707656 11.22159412 -15.24163784 9.81556403 -13.6953125 8.41015625 C-12.05856062 6.90555006 -10.44073943 5.37917671 -8.8671875 3.80859375 C-5.71221112 0.75972644 -4.49227792 -0.142612 0 0 Z " fill="#00ff00" transform="translate(292.9375,107.125)"/>
<path d="M0 0 C2.09837589 1.58787992 3.84035003 3.09761274 5.6875 4.9375 C6.75342396 5.95753548 7.81983703 6.97706006 8.88671875 7.99609375 C9.41313965 8.50640137 9.93956055 9.01670898 10.48193359 9.54248047 C12.60682688 11.58262407 14.79986568 13.54156056 17 15.5 C21.20684327 19.27537217 25.37674853 23.08980448 29.5390625 26.9140625 C32.67667086 29.79422607 35.83020941 32.65531614 39 35.5 C42.83025874 38.93916263 46.64041343 42.39931133 50.4375 45.875 C50.94603516 46.33970703 51.45457031 46.80441406 51.97851562 47.28320312 C53.3240003 48.51671458 54.66232753 49.75802099 56 51 C56.89332031 51.81791016 56.89332031 51.81791016 57.8046875 52.65234375 C59 54 59 54 59.6875 56.6875 C58.59605514 61.94627976 54.93102409 64.54422925 51 68 C50.38769531 68.54269531 49.77539062 69.08539063 49.14453125 69.64453125 C47.87627756 70.75594333 46.60244531 71.86100973 45.32421875 72.9609375 C42.37589578 75.54753345 39.50085394 78.20836714 36.625 80.875 C31.96273396 85.19584759 27.26920791 89.4768327 22.53125 93.71484375 C20.68453257 95.38201921 18.85263746 97.05952427 17.03125 98.75390625 C12.45571273 103.00862 7.86196894 107.24778503 3.0625 111.25 C2.39347656 111.81203125 1.72445313 112.3740625 1.03515625 112.953125 C-1 114 -1 114 -3.62890625 113.796875 C-6 113 -6 113 -8 111 C-8.47402668 107.40035987 -8.4827887 105.66048176 -6.3125 102.69140625 C-5.549375 101.98886719 -4.78625 101.28632813 -4 100.5625 C-3.16984375 99.78648437 -2.3396875 99.01046875 -1.484375 98.2109375 C-0.66453125 97.48132813 0.1553125 96.75171875 1 96 C1.63421875 95.43539062 2.2684375 94.87078125 2.921875 94.2890625 C4.17924194 93.18752309 5.44263038 92.09283129 6.7109375 91.00390625 C9.64962571 88.43130036 12.51136522 85.78057349 15.375 83.125 C20.02636092 78.81421014 24.71078562 74.545132 29.43359375 70.3125 C34.3202853 65.90927108 39.15736526 61.45156286 44 57 C39.6616807 52.6017828 35.18612395 48.35853353 30.6875 44.125 C29.96626953 43.44308594 29.24503906 42.76117188 28.50195312 42.05859375 C24.36666311 38.16437446 20.16764187 34.36641441 15.87768555 30.64355469 C12.48051865 27.6699846 9.18841734 24.58363442 5.8918457 21.49951172 C1.90673748 17.7870231 -2.20504367 14.28220983 -6.48828125 10.9140625 C-8.61035096 8.22720421 -8.35103922 6.33037206 -8 3 C-5.87522891 -0.35490171 -3.79604142 -0.52452424 0 0 Z " fill="#00ff00" transform="translate(402,107)"/>
<path d="M0 0 C1.85706573 -0.01052147 1.85706573 -0.01052147 3.75164795 -0.02125549 C5.12080546 -0.01382807 6.48996134 -0.00609694 7.8591156 0.00190735 C9.30309817 -0.000521 10.74707905 -0.00424073 12.1910553 -0.00915527 C16.11040614 -0.0185613 20.02950714 -0.00914182 23.94883847 0.00417686 C28.04872759 0.01549055 32.1486044 0.01138396 36.24850464 0.00942993 C43.13258448 0.00854703 50.01656583 0.01962736 56.90061951 0.03804016 C64.86342977 0.05921614 72.82609584 0.06271586 80.78892857 0.0564782 C88.44558784 0.05078713 96.10219625 0.05642662 103.75884819 0.06765175 C107.0191587 0.07230029 110.27943813 0.0731705 113.53975105 0.0710659 C117.37700064 0.06918471 121.21410308 0.07727379 125.05131912 0.0931263 C126.46104384 0.09737497 127.87078348 0.09821579 129.28051186 0.0954361 C131.20166312 0.09222219 133.12282296 0.10250651 135.04394531 0.11352539 C136.12001321 0.11557826 137.1960811 0.11763113 138.30475712 0.11974621 C140.95848083 0.3742218 140.95848083 0.3742218 143.95848083 2.3742218 C144.83348083 4.7492218 144.83348083 4.7492218 144.95848083 7.3742218 C143.22483252 10.49478876 142.3985271 11.22753971 138.95848083 12.3742218 C137.02906437 12.4715994 135.09643055 12.50920446 133.16456604 12.5146637 C131.95602966 12.52037384 130.74749329 12.52608398 129.50233459 12.53196716 C128.16105662 12.53321249 126.81977853 12.5343376 125.47850037 12.53535461 C124.06746796 12.53998337 122.6564368 12.54500811 121.2454071 12.55039978 C117.41066106 12.56351931 113.57593252 12.56996774 109.74116755 12.57441044 C107.34555354 12.57734159 104.94994433 12.58144646 102.55433273 12.58591461 C95.05947362 12.59958771 87.56462544 12.60925556 80.06975472 12.6131165 C71.4169685 12.61759842 62.76434016 12.63515325 54.11160195 12.6641171 C47.42361728 12.68572752 40.73567706 12.69582042 34.04765785 12.69715762 C30.05292624 12.69820602 26.05834308 12.70412113 22.06364822 12.72197723 C18.30600214 12.73844718 14.54861626 12.74061879 10.79094696 12.73183823 C9.41268848 12.7310673 8.03441607 12.73541801 6.65619278 12.74529648 C4.77295864 12.75800189 2.8896201 12.75035256 1.00636292 12.74171448 C-0.04703718 12.74318104 -1.10043728 12.7446476 -2.18575859 12.7461586 C-5.50752852 12.31352833 -7.39789478 11.41412113 -10.04151917 9.3742218 C-10.60401917 6.3742218 -10.60401917 6.3742218 -10.04151917 3.3742218 C-6.87824597 0.19844897 -4.37905123 -0.00068238 0 0 Z " fill="#00ff00" transform="translate(71.04151916503906,203.6257781982422)"/>
<path d="M0 0 C1.88874344 -0.0129007 1.88874344 -0.0129007 3.81564331 -0.02606201 C5.22402913 -0.03049761 6.63241539 -0.03479593 8.040802 -0.03897095 C9.51389766 -0.04686852 10.98699137 -0.05513725 12.46008301 -0.06375122 C17.31004987 -0.09000903 22.16002554 -0.10528155 27.01004028 -0.11953735 C28.67693208 -0.12489529 30.34382381 -0.1302728 32.01071548 -0.13566971 C38.94205666 -0.15730303 45.87339547 -0.17604158 52.80476189 -0.1872921 C62.75277929 -0.20354292 72.70040679 -0.23674259 82.64827716 -0.29369295 C89.63512305 -0.33233417 96.62186439 -0.35191779 103.60881436 -0.35721266 C107.78583297 -0.36087389 111.96243609 -0.37297599 116.13933945 -0.4053154 C120.06778824 -0.43529467 123.99556797 -0.44174476 127.9241066 -0.42993164 C129.36772398 -0.42971005 130.81137149 -0.43808537 132.25488281 -0.45558548 C134.22203874 -0.47813998 136.18949561 -0.46703993 138.15673828 -0.45410156 C139.25882566 -0.45741171 140.36091305 -0.46072186 141.49639702 -0.46413231 C144.20535278 0.15390015 144.20535278 0.15390015 146.12635994 2.52002525 C147.20535278 5.15390015 147.20535278 5.15390015 146.51785278 7.90390015 C145.20535278 10.15390015 145.20535278 10.15390015 143.20535278 11.15390015 C141.26104777 11.25414612 139.31325906 11.28900768 137.36637878 11.29434204 C135.50081581 11.30290726 135.50081581 11.30290726 133.5975647 11.31164551 C132.21170054 11.31289091 130.82583627 11.314016 129.43997192 11.31503296 C127.98643365 11.31966014 126.53289659 11.32468466 125.07936096 11.33007812 C121.12485909 11.34321226 117.17037421 11.34964884 113.21585393 11.35408878 C110.74705923 11.35701738 108.2782692 11.36112173 105.80947685 11.36559296 C98.09036533 11.37926945 90.37126444 11.38893583 82.65214163 11.39279485 C73.73161505 11.39727863 64.81124148 11.41484064 55.89076144 11.44379544 C49.00155606 11.46538349 42.11239382 11.47549756 35.22315496 11.47683597 C31.10551321 11.4778859 26.98801525 11.48383374 22.87040901 11.50165558 C18.99869681 11.51808709 15.12723726 11.52031594 11.2555027 11.51151657 C9.83286616 11.51074359 8.41021631 11.51512316 6.98761368 11.52497482 C5.04888677 11.53761561 3.11005919 11.53005463 1.17131042 11.52139282 C0.08527055 11.52285938 -1.00076933 11.52432594 -2.11971951 11.52583694 C-4.79464722 11.15390015 -4.79464722 11.15390015 -6.68314457 9.85749435 C-7.79464722 8.15390015 -7.79464722 8.15390015 -7.54464722 4.52890015 C-6.36267745 -0.78996381 -5.14973989 0.0260556 0 0 Z " fill="#00ff00" transform="translate(68.79464721679688,132.84609985351563)"/>
<path d="M0 0 C1.05744415 -0.00365067 2.11488831 -0.00730133 3.20437622 -0.01106262 C6.69688007 -0.01916327 10.18891931 -0.00556248 13.68139648 0.0090332 C16.10847473 0.00955183 18.5355534 0.00903404 20.96263123 0.00752258 C26.04757971 0.00761228 31.13236958 0.01803807 36.21728516 0.03613281 C42.73993103 0.05883178 49.26234536 0.05936159 55.78501987 0.05261517 C60.79581262 0.04927633 65.80655242 0.05590351 70.81733513 0.0657444 C73.22273418 0.06959723 75.62813911 0.07074427 78.03354073 0.06915855 C81.39226665 0.06878834 84.75069388 0.08139583 88.109375 0.09765625 C89.10636917 0.09517883 90.10336334 0.09270142 91.13056946 0.09014893 C92.50369293 0.10077614 92.50369293 0.10077614 93.90455627 0.11161804 C95.0949896 0.11469735 95.0949896 0.11469735 96.30947208 0.11783886 C98.80396859 0.40895704 100.39093189 0.99722714 102.48999023 2.37231445 C103.48999023 5.24731445 103.48999023 5.24731445 103.48999023 8.37231445 C102.15124512 10.53627014 102.15124512 10.53627014 99.48999023 12.37231445 C95.96791466 12.97615045 92.4757143 12.90791235 88.90991211 12.87402344 C87.29470421 12.88212791 87.29470421 12.88212791 85.64686584 12.89039612 C82.08387859 12.90291367 78.52169456 12.8863714 74.95874023 12.8684082 C72.48539182 12.86856312 70.01204316 12.87005087 67.53869629 12.87281799 C62.3535693 12.87420335 57.16871847 12.86162058 51.98364258 12.83886719 C45.33191964 12.81048232 38.68086311 12.81321809 32.02907562 12.8259573 C26.92132638 12.83290701 21.81368353 12.82513321 16.70594788 12.81270027 C14.25310168 12.80817891 11.80024409 12.80785492 9.34739685 12.81176567 C5.9213819 12.81467086 2.49600302 12.79820312 -0.92993164 12.77636719 C-1.94719833 12.78086884 -2.96446503 12.78537048 -4.01255798 12.79000854 C-4.9462471 12.78010391 -5.87993622 12.77019928 -6.84191895 12.75999451 C-7.65158867 12.75756461 -8.46125839 12.75513472 -9.29546356 12.75263119 C-12.0893335 12.27282386 -13.47037206 11.31820587 -15.51000977 9.37231445 C-16.07250977 6.37231445 -16.07250977 6.37231445 -15.51000977 3.37231445 C-10.9660309 -0.65382911 -5.72461281 -0.04397865 0 0 Z " fill="#00ff00" transform="translate(76.510009765625,167.627685546875)"/>
<path d="M0 0 C5.49584077 5.13026378 8.20362831 10.2656653 8.95703125 17.828125 C9.11137752 25.62962736 6.34583403 31.41404576 1 37 C-5.95118902 42.79544916 -13.29376463 42.67640008 -22 42 C-28.30485599 40.3569763 -32.37511383 36.26386111 -36 31 C-39.41366522 24.66033602 -39.49073239 17.91626655 -37.72265625 11.1015625 C-35.79892785 5.50715233 -32.04096677 1.05480427 -27 -2 C-17.65133469 -6.12487958 -8.50325844 -5.96123171 0 0 Z M-26.375 12.75 C-27.66468814 17.39287732 -27.66450886 21.42616322 -25.8125 25.8125 C-23.27924909 28.86987179 -21.09689007 30.68950715 -17.07421875 31.28515625 C-12.58385262 31.47965422 -9.56336997 30.95250655 -6 28 C-3.13276746 24.53954693 -2.46582371 21.49782179 -2.64453125 16.99609375 C-3.36523519 12.94906396 -5.57578729 10.11902427 -8.75 7.625 C-15.92884361 5.63087677 -21.61827049 6.69598063 -26.375 12.75 Z " fill="#00ff00" transform="translate(271,319)"/>
<path d="M0 0 C0.94072861 -0.00990463 1.88145721 -0.01980927 2.85069275 -0.03001404 C3.88090546 -0.02551239 4.91111816 -0.02101074 5.97254944 -0.01637268 C7.60216866 -0.02666756 7.60216866 -0.02666756 9.26470947 -0.03717041 C12.8654528 -0.05551144 16.46576345 -0.05159035 20.06654358 -0.0459137 C22.5637425 -0.05047202 25.06094016 -0.05577654 27.55813599 -0.0617981 C32.79624896 -0.07074359 38.03424907 -0.06852257 43.27235413 -0.05836487 C49.32607707 -0.04688489 55.37935694 -0.06095533 61.43302149 -0.08776134 C67.25776499 -0.11258749 73.08233598 -0.11509679 78.90712166 -0.10864449 C81.38509928 -0.10849083 83.86308525 -0.11457138 86.34103203 -0.12693596 C89.80317731 -0.14177617 93.26434158 -0.13121911 96.72645569 -0.11402893 C97.75464417 -0.1236969 98.78283264 -0.13336487 99.84217834 -0.14332581 C106.75654652 -0.07126078 106.75654652 -0.07126078 110.08999634 2.25497437 C111.41419983 4.38768005 111.41419983 4.38768005 111.28919983 7.01268005 C110.41419983 9.38768005 110.41419983 9.38768005 108.41419983 11.38768005 C106.39331055 11.64215565 106.39331055 11.64215565 103.85926819 11.64837646 C102.42065933 11.65900368 102.42065933 11.65900368 100.95298767 11.66984558 C99.89733612 11.66736816 98.84168457 11.66489075 97.75404358 11.66233826 C96.64505707 11.66744919 95.53607056 11.67256012 94.39347839 11.67782593 C90.71283127 11.69177247 87.0323703 11.69076148 83.35169983 11.6884613 C80.80344065 11.69234516 78.25518212 11.69667918 75.70692444 11.70144653 C70.36030209 11.70891945 65.01374864 11.70874701 59.66712952 11.70335388 C53.48111346 11.69731018 47.29532463 11.70963321 41.10934734 11.73092395 C35.1644949 11.75063475 29.21971317 11.75371729 23.27482605 11.75018883 C20.74216681 11.75070393 18.20950408 11.75597676 15.67686462 11.76600075 C12.14251453 11.7782727 8.60869701 11.77162918 5.07435608 11.75999451 C4.01870453 11.76763824 2.96305298 11.77528198 1.87541199 11.78315735 C0.91633942 11.77614304 -0.04273315 11.76912872 -1.03086853 11.76190186 C-1.86710251 11.7620696 -2.70333649 11.76223734 -3.56491089 11.76241016 C-4.23180435 11.63874923 -4.89869781 11.51508829 -5.58580017 11.38768005 C-7.74082548 8.15514209 -8.05436152 7.13617082 -7.58580017 3.38768005 C-5.31880466 0.38684805 -3.68414919 0.01094434 0 0 Z " fill="#00ff00" transform="translate(68.58580017089844,239.61231994628906)"/>
</svg>