<svg version="1.1" xmlns="http://www.w3.org/2000/svg" width="512px" height="512px" transform="rotate(0) scale(1, 1)">
<path d="M0 0 C1.90788811 -0.00542567 3.81577203 -0.01255082 5.72364807 -0.02124023 C10.88688306 -0.03942351 16.04979713 -0.03242667 21.21303749 -0.01972389 C26.62604234 -0.00957033 32.0390204 -0.01899611 37.45202637 -0.02526855 C46.54082147 -0.03253809 55.6294864 -0.02297543 64.71826172 -0.00390625 C75.21400049 0.0178611 85.70942842 0.01080924 96.20515966 -0.01121187 C105.22963791 -0.0293856 114.25402279 -0.03191453 123.27851343 -0.0214572 C128.66273243 -0.01523313 134.04680549 -0.01435674 139.43101501 -0.02760315 C144.49385509 -0.0391897 149.55629583 -0.0310846 154.61909294 -0.00802612 C156.47297949 -0.00275402 158.32689986 -0.00422704 160.18077278 -0.01307678 C172.06709866 -0.06457047 181.55920666 0.45254191 190.71679688 8.80273438 C195.93380988 14.75148426 197.36944859 21.51782694 197.37460327 29.21400452 C197.38117665 30.40170501 197.38117665 30.40170501 197.38788283 31.61339945 C197.40127311 34.27555319 197.40745027 36.93767383 197.41357422 39.59985352 C197.42147515 41.5052302 197.4297441 43.41060539 197.43835449 45.315979 C197.46458077 51.58238291 197.4798851 57.84879351 197.49414062 64.11523438 C197.4995005 66.27292828 197.50487801 68.43062214 197.51027298 70.58831596 C197.53190469 79.56566444 197.55064021 88.54301112 197.56189537 97.52037907 C197.57812581 110.38142296 197.61127847 123.24216432 197.66829622 136.10309416 C197.70702576 145.14782211 197.72653178 154.19246924 197.73181593 163.23727793 C197.73546591 168.63791225 197.74744944 174.03822393 197.77991867 179.43876839 C197.81005125 184.52369448 197.8162925 189.60810359 197.80453491 194.69309998 C197.8043146 196.55465054 197.81258468 198.41622545 197.83018875 200.27769279 C197.9313858 211.59901307 197.53225986 220.01382891 190.08007812 229.13867188 C189.38398438 229.73808594 188.68789063 230.3375 187.97070312 230.95507812 C187.28492188 231.57253906 186.59914063 232.19 185.89257812 232.82617188 C178.55642616 237.47025638 171.13642647 237.94599495 162.64233398 237.8581543 C161.51935913 237.85859238 160.39638428 237.85903046 159.23937988 237.85948181 C155.5545875 237.857404 151.87025906 237.83411995 148.18554688 237.81054688 C145.62008411 237.80494736 143.05461813 237.80067894 140.489151 237.79768372 C134.44385325 237.78742822 128.3987524 237.76382212 122.35353333 237.73363525 C114.78910599 237.6966896 107.22465142 237.68036439 99.66015625 237.6640625 C86.18021066 237.63492221 72.70062366 237.5748132 59.22070312 237.51757812 C59.22070312 254.34757813 59.22070312 271.17757813 59.22070312 288.51757812 C60.87070312 287.85757812 62.52070313 287.19757813 64.22070312 286.51757812 C76.01743962 284.62276553 84.12975006 285.68897752 94.05664062 292.27539062 C96.23846974 293.76649008 96.23846974 293.76649008 99.22070312 293.51757812 C101.05460307 292.57910351 102.8641544 291.59265543 104.65820312 290.58007812 C113.97664711 285.84796818 122.40418083 285.53838274 132.39648438 288.45117188 C140.13879257 291.37461605 144.80370789 295.48568867 149.02929688 302.56445312 C150.19656853 304.65039503 150.19656853 304.65039503 152.22070312 306.51757812 C153.70570313 305.77507812 153.70570313 305.77507812 155.22070312 305.01757812 C162.56899898 302.29792414 171.8297856 302.16524231 179.30273438 304.46679688 C187.15150165 308.1970206 192.26283442 313.86062443 196.22070312 321.51757812 C197.07505049 324.36767476 197.35103861 326.92796001 197.36787415 329.89732361 C197.3786071 331.20262024 197.3786071 331.20262024 197.38955688 332.5342865 C197.39224579 333.48130936 197.39493469 334.42833221 197.39770508 335.40405273 C197.40427628 336.40787994 197.41084747 337.41170715 197.4176178 338.44595337 C197.4373375 341.77061034 197.44901362 345.09522204 197.45898438 348.41992188 C197.4630599 349.55844667 197.46713543 350.69697147 197.47133446 351.86999702 C197.49219456 357.90201765 197.50649373 363.93401556 197.51586914 369.96606445 C197.52690297 376.17294552 197.56126838 382.37946507 197.60104084 388.58621883 C197.62729428 393.37775806 197.63556897 398.16921252 197.63915062 402.96081734 C197.64399797 405.24716176 197.65555856 407.53350288 197.67418861 409.81977654 C197.84933455 432.74808031 197.84933455 432.74808031 193.22070312 443.51757812 C192.89987259 444.31065872 192.57904205 445.10373932 192.24848938 445.92085266 C191.3251468 448.11233021 190.33678608 450.25741919 189.31445312 452.40429688 C188.77191391 453.57091858 188.77191391 453.57091858 188.21841431 454.7611084 C187.0605359 457.24627761 185.89104817 459.72575899 184.72070312 462.20507812 C183.91250899 463.93105031 183.10506133 465.65737221 182.29833984 467.3840332 C181.08735015 469.97533239 179.87562524 472.56626159 178.66036987 475.15556335 C176.23724087 480.32138874 173.852747 485.5024471 171.50976562 490.70507812 C170.96771484 491.90302002 170.42566406 493.10096191 169.8671875 494.33520508 C168.88032398 496.52096843 167.89948012 498.7094635 166.92578125 500.90112305 C166.48943359 501.86123291 166.05308594 502.82134277 165.60351562 503.81054688 C165.23629395 504.63063232 164.86907227 505.45071777 164.49072266 506.2956543 C162.99234078 508.91710247 161.54331858 510.57675067 159.22070312 512.51757812 C156.63527584 513.04049587 156.63527584 513.04049587 153.65061951 513.07261658 C152.51669266 513.09401199 151.38276581 513.11540741 150.21447754 513.13745117 C148.35442078 513.14180176 148.35442078 513.14180176 146.45678711 513.14624023 C145.14738663 513.16449356 143.83798615 513.18274689 142.48890686 513.20155334 C138.89759721 513.24970209 135.3066074 513.27142808 131.71501803 513.28540111 C129.46755953 513.29491865 127.22018578 513.30937202 124.97276497 513.32541084 C117.1210577 513.38040144 109.26960903 513.41137779 101.41772461 513.42358398 C94.11771013 513.43566718 86.81966897 513.50413173 79.52029556 513.59831041 C73.24063233 513.6764843 66.96162235 513.71187055 60.68147713 513.71523291 C56.93614998 513.71811083 53.19293387 513.73833566 49.44811821 513.8028698 C23.63250569 514.22199405 23.63250569 514.22199405 17.38584232 508.69253635 C15.36824035 506.46626547 13.77968493 504.08031925 12.22070312 501.51757812 C11.05833824 500.16227672 9.87582348 498.82346277 8.65820312 497.51757812 C8.12066406 496.88851563 7.583125 496.25945312 7.02929688 495.61132812 C4.80561295 493.03704177 2.51493258 490.52915564 0.22070312 488.01757812 C-3.21702703 484.24850048 -6.60757525 480.44769232 -9.94726562 476.59179688 C-12.12035199 474.13143683 -14.35907236 471.73642041 -16.59179688 469.33007812 C-33.40035412 450.83041604 -40.28406449 434.63623728 -40.17773438 409.53710938 C-40.17976119 407.83086524 -40.18267766 406.12462195 -40.18643188 404.41838074 C-40.19082309 400.86583092 -40.18452623 397.31350935 -40.17041016 393.76098633 C-40.15328072 389.23218882 -40.16320352 384.70392342 -40.18112755 380.17514515 C-40.19201912 376.66017212 -40.1884952 373.14532327 -40.18074417 369.6303463 C-40.17875902 367.96116763 -40.1811414 366.29197727 -40.18818283 364.62281227 C-40.23051234 351.77870916 -39.40229385 340.70129853 -30.77929688 330.51757812 C-23.35715185 323.34596964 -15.79605436 321.44508509 -5.77929688 321.51757812 C-5.78151749 320.70119873 -5.7837381 319.88481934 -5.786026 319.04370117 C-5.80622103 311.27856154 -5.82136767 303.51343498 -5.83110905 295.74827576 C-5.83628582 291.75795352 -5.84328652 287.76765331 -5.85473633 283.77734375 C-5.86575321 279.91289052 -5.87161268 276.04845823 -5.87417412 272.18399048 C-5.87599504 270.72351757 -5.87954887 269.26304556 -5.88502693 267.80258179 C-5.92147456 257.66479516 -5.5241308 247.62591039 -4.77929688 237.51757812 C-5.87649048 237.57969482 -5.87649048 237.57969482 -6.99584961 237.64306641 C-15.74666431 238.06278948 -23.58935332 236.27539226 -30.65429688 230.89257812 C-36.31036156 225.56282486 -39.61632835 217.77612482 -39.91072464 210.0832262 C-39.9188187 208.68350012 -39.92141982 207.2837359 -39.91973877 205.88398743 C-39.92270989 205.11104487 -39.92568101 204.33810232 -39.92874217 203.54173726 C-39.93741976 200.94944474 -39.93893663 198.35719847 -39.94042969 195.76489258 C-39.94505858 193.90700685 -39.95008333 192.04912207 -39.95547485 190.1912384 C-39.96859522 185.1414456 -39.97504327 180.0916661 -39.97948551 175.04185891 C-39.98241721 171.88588231 -39.98652223 168.72990933 -39.99098969 165.57393456 C-40.00466451 155.69664823 -40.01433088 145.81937021 -40.01819158 135.94207507 C-40.0226705 124.54602076 -40.04021083 113.15008649 -40.06919217 101.75406867 C-40.09082295 92.9420282 -40.10089663 84.13002146 -40.10223269 75.31795472 C-40.10327985 70.05662718 -40.10916844 64.79541249 -40.12705231 59.53411293 C-40.14355676 54.5822314 -40.14567693 49.63054726 -40.1369133 44.67864799 C-40.13614416 42.8650675 -40.14046934 41.05147629 -40.15037155 39.23792267 C-40.26188342 17.53524906 -40.26188342 17.53524906 -32.65429688 9.20507812 C-31.95046875 8.40457031 -31.24664062 7.6040625 -30.52148438 6.77929688 C-21.37533412 -0.76432278 -11.27469414 -0.05382147 0 0 Z M-19.59179688 20.95507812 C-23.09989304 25.0645622 -22.92780976 28.7154881 -22.9264679 33.86128235 C-22.93014458 34.61506941 -22.93382127 35.36885648 -22.93760937 36.14548558 C-22.94864851 38.67878435 -22.95249042 41.2120421 -22.95629883 43.74536133 C-22.96256324 45.55870698 -22.96921002 47.37205134 -22.97621155 49.18539429 C-22.99362162 54.11727593 -23.00417305 59.04914788 -23.01241708 63.98105264 C-23.01756658 67.06145347 -23.02364229 70.14185128 -23.02992821 73.22224998 C-23.04897919 82.85765819 -23.06321127 92.49305874 -23.07154018 102.12848216 C-23.08131722 113.25577154 -23.10764935 124.38286224 -23.14804107 135.51008159 C-23.1781822 144.10804328 -23.19300709 152.70594795 -23.19632119 161.30396146 C-23.19867369 166.44061321 -23.20766031 171.57705269 -23.23278236 176.71364784 C-23.25603345 181.54571731 -23.26030825 186.37743427 -23.25002098 191.20954514 C-23.24952481 192.98246494 -23.25586913 194.75540193 -23.26957703 196.52826881 C-23.28725531 198.95024354 -23.28021069 201.37094756 -23.26704407 203.79292297 C-23.27801331 204.493225 -23.28898256 205.19352703 -23.30028421 205.91505033 C-23.23513514 210.88442298 -21.85474244 213.67092999 -18.77929688 217.51757812 C-14.46014024 221.21971238 -10.18046894 220.83529413 -4.77929688 220.51757812 C-4.70453125 219.69515625 -4.62976563 218.87273437 -4.55273438 218.02539062 C-3.38905952 208.14556296 -0.8392371 200.41591427 7.15820312 194.08007812 C14.0919828 189.39580713 21.75076732 186.48502411 30.22070312 187.51757812 C40.13680794 189.5289844 47.53009914 193.03876734 53.55273438 201.35742188 C55.85141379 205.42961424 56.80363991 209.74881885 57.82226562 214.28710938 C58.08604004 215.4547583 58.34981445 216.62240723 58.62158203 217.82543945 C58.91814697 219.1580481 58.91814697 219.1580481 59.22070312 220.51757812 C73.72002925 220.5877146 88.21932901 220.64038943 102.71879005 220.67301464 C109.45141909 220.68847183 116.18394261 220.70953922 122.91650391 220.74389648 C129.41335021 220.77703501 135.91012806 220.79443001 142.4070549 220.80220985 C144.88618063 220.80775442 147.36530034 220.81858148 149.84437943 220.8347683 C153.31581861 220.85653385 156.78680437 220.85954534 160.25830078 220.8581543 C161.79686737 220.87433304 161.79686737 220.87433304 163.36651611 220.89083862 C168.74739275 220.86749555 172.58060962 220.56730313 177.22070312 217.51757812 C181.71147851 212.87194841 181.34651137 207.32938875 181.35441589 201.1678772 C181.35781423 200.07244364 181.35781423 200.07244364 181.36128122 198.95488012 C181.3676005 196.51303541 181.36679319 194.0712465 181.3659668 191.62939453 C181.36895957 189.87648955 181.37236237 188.12358522 181.37614441 186.37068176 C181.38497631 181.6123916 181.38732218 176.85411942 181.3879602 172.09582186 C181.38867113 169.12227345 181.39080626 166.14872961 181.39345741 163.17518234 C181.40270795 152.79940246 181.40679264 142.42363543 181.40600586 132.04785156 C181.40540505 122.37930149 181.41595833 112.71080721 181.43174952 103.04227126 C181.4448286 94.73809313 181.45018961 86.43393323 181.44955045 78.12974489 C181.44929558 73.17145411 181.45214062 68.21321292 181.4627285 63.2549324 C181.4724157 58.59116489 181.47248437 53.92749432 181.46521187 49.26372337 C181.46416682 47.55412212 181.46652416 45.84451481 181.47257233 44.13492393 C181.4803066 41.79691787 181.47563808 39.45924539 181.46794128 37.12124634 C181.46848605 35.81418543 181.46903082 34.50712452 181.46959209 33.1604557 C181.16832212 28.75090052 180.64527742 24.3328928 177.85351562 20.77539062 C172.34499172 16.63686231 168.76708887 16.39255152 161.94656372 16.38386536 C161.21233999 16.3815998 160.47811626 16.37933424 159.72164333 16.37700003 C157.26053921 16.37066819 154.79949027 16.37148887 152.33837891 16.37231445 C150.57414682 16.36932246 148.80991538 16.36591983 147.04568481 16.36213684 C142.25227976 16.35329684 137.45889255 16.35095873 132.66548014 16.35032105 C128.66446458 16.34937174 124.66345318 16.34569318 120.66243923 16.34214896 C111.22303677 16.33400442 101.78364385 16.33156473 92.34423828 16.33227539 C82.60582077 16.33287622 72.86745864 16.32232334 63.12905514 16.30653173 C54.76886234 16.2934579 46.40868764 16.28809143 38.04848468 16.2887308 C33.0549995 16.28898583 28.06156354 16.28613183 23.06808853 16.27555275 C18.37150656 16.26587443 13.67502088 16.26579079 8.97843552 16.27306938 C7.25551462 16.27411555 5.53258774 16.27175045 3.80967712 16.26570892 C1.45594141 16.25799049 -0.89746163 16.26263273 -3.25119019 16.27033997 C-4.56784605 16.2697952 -5.88450191 16.26925043 -7.24105644 16.26868916 C-12.37773577 16.63001645 -15.68757312 17.57141754 -19.59179688 20.95507812 Z M15.34570312 209.01757812 C12.11949909 212.81311228 12.06485486 215.81040621 11.91967773 220.63793945 C11.90007303 221.28258589 11.88046833 221.92723232 11.86026955 222.5914135 C11.79567258 224.82318642 11.73992188 227.05506479 11.68554688 229.28710938 C11.664886 230.0874592 11.64422512 230.88780903 11.62293816 231.71241188 C11.16644915 249.83602197 11.0744647 267.96354559 10.97460938 286.09179688 C10.96613233 287.60117723 10.95765225 289.11055757 10.94916916 290.6199379 C10.870783 304.69522834 10.80038735 318.77055158 10.74389648 332.84594727 C10.71563301 339.87177046 10.68034116 346.89752227 10.63724273 353.92327052 C10.61059888 358.33137919 10.59262336 362.73940839 10.58120549 367.14758146 C10.56997321 370.49973051 10.54585833 373.85176331 10.52368164 377.20385742 C10.5230925 378.41442307 10.52250336 379.62498871 10.52189636 380.87223816 C10.51217804 381.97418518 10.50245972 383.0761322 10.4924469 384.21147156 C10.48821496 385.16963618 10.48398302 386.12780081 10.47962284 387.11500072 C10.22070312 389.51757812 10.22070312 389.51757812 8.22070312 392.51757812 C0.30580951 394.04949302 0.30580951 394.04949302 -3.77929688 392.51757812 C-4.66646396 389.44951999 -4.92824645 386.66271633 -4.98461914 383.47363281 C-5.00456436 382.47289734 -5.02450958 381.47216187 -5.0450592 380.44110107 C-5.0617717 379.36805725 -5.07848419 378.29501343 -5.09570312 377.18945312 C-5.11648422 376.08531067 -5.13726532 374.98116821 -5.15867615 373.84356689 C-5.22403333 370.31830029 -5.28299251 366.79295953 -5.34179688 363.26757812 C-5.38499523 360.87694547 -5.42860995 358.4863203 -5.47265625 356.09570312 C-5.5797006 350.23640639 -5.68149272 344.37703598 -5.77929688 338.51757812 C-7.05305176 338.65784424 -8.32680664 338.79811035 -9.63916016 338.94262695 C-10.71389084 339.06097649 -10.71389084 339.06097649 -11.81033325 339.18171692 C-14.34484958 339.61404878 -15.76218112 340.4804463 -17.65429688 342.20507812 C-18.48574219 342.92244141 -18.48574219 342.92244141 -19.33398438 343.65429688 C-22.86665294 348.20857499 -23.03404357 353.35471813 -23.05395508 358.92480469 C-23.05906601 359.64113571 -23.06417694 360.35746674 -23.06944275 361.09550476 C-23.08327491 363.44982399 -23.08238626 365.80384822 -23.08007812 368.15820312 C-23.0839697 369.80719103 -23.08830532 371.45617794 -23.09306335 373.10516357 C-23.10051273 376.5582606 -23.10024446 380.01125538 -23.0949707 383.46435547 C-23.08919007 387.86666118 -23.10607907 392.26854424 -23.12931538 396.67078018 C-23.14412709 400.07680669 -23.14491415 403.4827333 -23.14180565 406.88878632 C-23.14231554 408.51052433 -23.14749016 410.13226844 -23.15761757 411.75397491 C-23.30278 438.25774731 -9.22550477 451.77727826 8.09570312 470.17773438 C10.99524116 473.26320614 13.81094421 476.40927969 16.57226562 479.61914062 C19.364257 482.83456197 22.24224447 485.97287847 25.10742188 489.12304688 C27.22070312 491.51757812 27.22070312 491.51757812 28.6473999 494.13175964 C32.76200653 497.94658584 37.09524492 497.17453499 42.50683594 497.08520508 C43.65834137 497.08593521 44.8098468 497.08666534 45.99624634 497.0874176 C49.80591787 497.08393159 53.61436993 497.04501924 57.42382812 497.00585938 C60.06369356 496.99653494 62.70356765 496.98941709 65.34344482 496.98442078 C71.5838155 496.96888499 77.8237478 496.9278608 84.0639255 496.87767333 C91.16902057 496.82177106 98.27413665 496.79429126 105.37939692 496.76919615 C119.99339171 496.71694425 134.60704129 496.62900751 149.22070312 496.51757812 C153.57638632 487.85614179 157.92338262 479.19724027 162.01757812 470.40820312 C162.4184967 469.54926453 162.81941528 468.69032593 163.23248291 467.80535889 C164.0636507 466.02171071 164.89355267 464.23747211 165.72216797 462.45263672 C166.97708998 459.75384276 168.24140823 457.05957432 169.50585938 454.36523438 C170.32284503 452.60899338 171.13927102 450.85249189 171.95507812 449.09570312 C172.32493835 448.31100647 172.69479858 447.52630981 173.0758667 446.71783447 C174.17398346 444.33636515 175.20562206 441.93553545 176.22070312 439.51757812 C176.59377594 438.68607239 176.96684875 437.85456665 177.35122681 436.99786377 C181.30756626 427.04270461 180.8635381 416.82598858 180.90039062 406.28320312 C180.92049151 404.23442189 180.94201088 402.18565413 180.96487427 400.13690186 C181.00848467 395.86388971 181.03911362 391.59105557 181.05957031 387.31787109 C181.08619001 381.85491842 181.13917337 376.39262078 181.20106316 370.92996597 C181.24707024 366.70745208 181.28232016 362.48490387 181.31402969 358.26226044 C181.3298307 356.24810365 181.34819509 354.23396521 181.36922836 352.21985626 C181.39638372 349.40400739 181.40981553 346.58841753 181.41943359 343.77246094 C181.4296907 342.950457 181.43994781 342.12845306 181.45051575 341.28153992 C181.44954107 334.74935646 181.10449773 328.73103678 176.72070312 323.58007812 C172.33023594 319.9579427 168.75814709 320.0039872 163.22070312 320.51757812 C158.52143215 322.20222244 155.78073072 324.22038895 153.22070312 328.51757812 C152.61040784 331.07754158 152.1632723 333.60510042 151.81054688 336.21289062 C151.12353636 338.89723633 150.45903455 339.90473885 148.22070312 341.51757812 C144.77554517 342.22605819 141.38713163 342.15723247 138.28320312 340.45507812 C135.13652988 334.71702691 135.93917794 326.45873244 135.79101562 320.01367188 C135.60381227 315.388189 135.17310392 312.28930546 132.22070312 308.51757812 C128.00822794 305.07100752 124.68090952 303.61171961 119.22070312 303.51757812 C113.03864829 304.74455084 109.70269376 307.34734961 106.22070312 312.51757812 C105.36573362 315.2130034 105.08339845 317.70350897 105.00976562 320.52148438 C104.98140625 321.26205078 104.95304687 322.00261719 104.92382812 322.765625 C104.87162129 324.3122525 104.82738696 325.8591691 104.79101562 327.40625 C104.55715483 332.99454866 104.55715483 332.99454866 102.93164062 335.52148438 C99.8271884 337.32887094 96.69111367 337.06096182 93.22070312 336.51757812 C90.54638823 334.70594546 90.26149954 333.63996736 89.22070312 330.51757812 C89.10953502 329.16876135 89.04339709 327.8158629 89.00976562 326.46289062 C88.98140625 325.68300781 88.95304687 324.903125 88.92382812 324.09960938 C88.87200028 322.46962379 88.82765378 320.83938211 88.79101562 319.20898438 C88.56763747 313.55937847 87.4147638 310.33851327 83.90820312 305.83007812 C80.19995862 302.94588795 76.37449065 302.29857293 71.78320312 302.51757812 C66.79221142 303.23419011 63.2604954 305.50101049 60.22070312 309.51757812 C57.57884668 315.40211455 57.86829484 321.46332613 57.83007812 327.79296875 C57.65384345 334.02482279 57.65384345 334.02482279 55.40429688 336.58398438 C51.28006346 338.34729705 47.39025141 337.90742755 43.22070312 336.51757812 C42.0998683 333.61706903 42.10282884 330.80671712 42.12063599 327.72454834 C42.12507721 326.2822007 42.12507721 326.2822007 42.12960815 324.81071472 C42.13791656 323.76232925 42.14622498 322.71394379 42.15478516 321.63378906 C42.16179443 319.96969749 42.16179443 319.96969749 42.16894531 318.27198792 C42.17944975 315.86186499 42.19211305 313.45175073 42.20666885 311.04164886 C42.22867118 307.22496898 42.24276396 303.40833863 42.25436401 299.59161377 C42.28797552 288.73922661 42.32930289 277.88692727 42.39208984 267.03466797 C42.43040096 260.39705201 42.45277476 253.75949216 42.46639633 247.12177277 C42.47444246 244.59405405 42.48803978 242.06634659 42.50732803 239.53868866 C42.53386504 235.99866846 42.54170576 232.4590528 42.54541016 228.91894531 C42.55776703 227.87865677 42.5701239 226.83836823 42.58285522 225.76655579 C42.56341472 218.70654641 42.08670791 212.38358291 36.84570312 207.14257812 C28.91113263 202.23070115 22.54454704 202.75771385 15.34570312 209.01757812 Z " fill="#00ff00" transform="translate(314.779296875,-0.517578125)"/>
<path d="M0 0 C0.79265475 -0.00438225 1.5853095 -0.00876451 2.4019841 -0.01327956 C5.06103179 -0.02664593 7.72004635 -0.03284158 10.37911987 -0.03897095 C12.28464405 -0.04687366 14.19016674 -0.05514272 16.09568787 -0.06375122 C22.35665461 -0.08995328 28.61762797 -0.10527778 34.87863159 -0.11953735 C37.03539916 -0.12489791 39.19216669 -0.13027543 41.34893417 -0.13566971 C50.32203403 -0.1572964 59.2951321 -0.17603222 68.26825142 -0.1872921 C81.11970108 -0.20352571 93.97084814 -0.23669187 106.82218373 -0.29369295 C115.86268558 -0.33242152 124.9031066 -0.3519283 133.94368923 -0.35721266 C139.3409553 -0.36086229 144.73789849 -0.3728425 150.13507462 -0.4053154 C155.2159102 -0.4354469 160.29622839 -0.44168962 165.37713432 -0.42993164 C167.2370732 -0.42971133 169.09703644 -0.43798121 170.95689201 -0.45558548 C182.27344768 -0.55682958 190.6834287 -0.15450512 199.80441284 7.29452515 C200.4038269 7.9906189 201.00324097 8.68671265 201.62081909 9.40390015 C202.5470105 10.43257202 202.5470105 10.43257202 203.49191284 11.48202515 C209.36920977 20.76625401 208.61669323 30.8882527 208.58737183 41.44247437 C208.59308028 43.29785573 208.60004638 45.15323359 208.60816956 47.00860596 C208.6260643 52.02936356 208.62493941 57.04994604 208.61922717 62.07072592 C208.61612973 66.27035812 208.622234 70.46995695 208.62826592 74.66958439 C208.64229769 84.58153967 208.6407613 94.49340873 208.62936401 104.40536499 C208.61788628 114.61249409 208.63195582 124.81936034 208.65876049 135.02645481 C208.68095153 143.80722137 208.68754713 152.58790564 208.68168408 161.36869824 C208.67832119 166.60544006 208.68068501 171.84201344 208.6979351 177.07873154 C208.71345626 182.00531594 208.70939146 186.93151245 208.69062996 191.85808182 C208.68695825 193.65953245 208.69001088 195.46101216 208.70051575 197.26243591 C208.76372534 209.00412442 208.5968162 220.55947464 200.02706909 229.65390015 C192.92172966 235.43451528 185.48604624 237.30507423 176.54972839 237.29434204 C175.39031456 237.29879872 175.39031456 237.29879872 174.20747823 237.30334544 C171.61518571 237.31202304 169.02293943 237.3135399 166.43063354 237.31503296 C164.57274782 237.31966185 162.71486304 237.3246866 160.85697937 237.33007812 C155.80718657 237.34319849 150.75740706 237.34964654 145.70759988 237.35408878 C142.55162328 237.35702048 139.3956503 237.36112551 136.23967552 237.36559296 C126.3623892 237.37926779 116.48511117 237.38893415 106.60781604 237.39279485 C95.21176172 237.39727378 83.81582746 237.4148141 72.41980964 237.44379544 C63.60776916 237.46542622 54.79576242 237.4754999 45.98369569 237.47683597 C40.72236814 237.47788312 35.46115345 237.48377171 30.1998539 237.50165558 C25.24797237 237.51816003 20.29628823 237.5202802 15.34438896 237.51151657 C13.53080847 237.51074743 11.71721726 237.51507261 9.90366364 237.52497482 C-11.79900998 237.63648669 -11.79900998 237.63648669 -20.12918091 230.02890015 C-20.92968872 229.32507202 -21.73019653 228.6212439 -22.55496216 227.89608765 C-30.10446559 218.7428037 -29.38212128 208.64108207 -29.31838989 197.35873413 C-29.32217674 195.44922488 -29.32767979 193.53971838 -29.33476257 191.63021851 C-29.34868575 186.46290614 -29.3375698 181.29592791 -29.32105136 176.12863421 C-29.30716696 170.71249828 -29.31366472 165.29638108 -29.31718445 159.88023376 C-29.31988366 150.78723792 -29.30643502 141.69437429 -29.28323364 132.60140991 C-29.25661779 122.0977386 -29.25488047 111.5942882 -29.26662201 101.09059471 C-29.27741086 90.97302204 -29.27120452 80.85552907 -29.25706673 70.73796272 C-29.25131736 66.43790866 -29.25138134 62.1379131 -29.25613213 57.8378582 C-29.26091364 52.7726107 -29.25075152 47.70760431 -29.22917747 42.64240265 C-29.22362574 40.78648504 -29.22312945 38.93054419 -29.22813034 37.07462502 C-29.23411263 34.53559424 -29.22152219 31.99729342 -29.20436096 29.45832825 C-29.21037101 28.72903514 -29.21638105 27.99974203 -29.22257322 27.24834913 C-29.12274225 19.09101042 -26.26098369 12.87937608 -20.71902466 6.9156189 C-14.44931856 1.10938183 -8.28671932 0.00557204 0 0 Z M-10.19168091 21.52890015 C-13.13773885 26.28791682 -12.94334895 31.01356095 -12.95039368 36.5103302 C-12.95265923 37.2413248 -12.95492479 37.9723194 -12.957259 38.72546536 C-12.96357828 41.16964403 -12.96277097 43.61376695 -12.96194458 46.05795288 C-12.96493733 47.81248038 -12.96834012 49.56700723 -12.97212219 51.3215332 C-12.98095371 56.08388832 -12.98329993 60.84622547 -12.98393798 65.60858798 C-12.98464886 68.5841387 -12.98678387 71.55968486 -12.9894352 74.53523445 C-12.99868514 84.91634537 -13.00277044 95.29744345 -13.00198364 105.67855835 C-13.00138263 115.35508081 -13.01193989 125.03154756 -13.02772731 134.70805591 C-13.04080094 143.0173139 -13.04616763 151.32655368 -13.04552823 159.63582188 C-13.04527323 164.59799315 -13.04812565 169.5601149 -13.05870628 174.52227592 C-13.0683845 179.18850265 -13.06846833 183.85463245 -13.06118965 188.52086258 C-13.06014353 190.23249643 -13.06250832 191.94413631 -13.06855011 193.65575981 C-13.07626906 195.99411603 -13.071626 198.33213743 -13.06391907 200.67048645 C-13.06446383 201.97846915 -13.0650086 203.28645185 -13.06556988 204.6340704 C-12.70301885 209.76132809 -11.7566651 213.06930301 -8.37918091 216.96640015 C-4.26969683 220.47449631 -0.61877093 220.30241303 4.52702332 220.30107117 C5.28081038 220.30474786 6.03459745 220.30842454 6.81122655 220.31221265 C9.34452531 220.32325179 11.87778307 220.32709369 14.41110229 220.3309021 C16.22444794 220.33716651 18.0377923 220.34381329 19.85113525 220.35081482 C24.7830169 220.36822489 29.71488885 220.37877632 34.6467936 220.38702035 C37.72719443 220.39216985 40.80759225 220.39824557 43.88799095 220.40453148 C53.52339916 220.42358246 63.1587997 220.43781454 72.79422313 220.44614345 C83.92151251 220.45592049 95.0486032 220.48225262 106.17582256 220.52264434 C114.77378425 220.55278547 123.37168891 220.56761037 131.96970242 220.57092446 C137.10635418 220.57327696 142.24279366 220.58226359 147.37938881 220.60738564 C152.21145828 220.63063672 157.04317523 220.63491153 161.8752861 220.62462425 C163.64820591 220.62412808 165.4211429 220.6304724 167.19400978 220.6441803 C169.61598451 220.66185859 172.03668852 220.65481396 174.45866394 220.64164734 C175.15896597 220.65261658 175.85926799 220.66358583 176.58079129 220.67488748 C181.56171342 220.60958699 184.39725899 219.34827292 188.18331909 216.15390015 C191.41755586 212.17749712 191.61149706 208.51787862 191.56427002 203.56968689 C191.57128998 202.43644302 191.57128998 202.43644302 191.57845175 201.28030533 C191.59040156 198.75304614 191.58094473 196.22632922 191.57150269 193.69906616 C191.57556843 191.88542362 191.58091033 190.07178356 191.58743286 188.25814819 C191.60111286 183.33458297 191.59580471 178.41120629 191.5862956 173.48763776 C191.57870142 168.33479634 191.58574406 163.18197108 191.5904541 158.02912903 C191.59591284 149.374645 191.58871743 140.72023775 191.57443237 132.06576538 C191.55811081 122.0620141 191.56339033 112.0584463 191.57991159 102.05469948 C191.59352922 93.46517573 191.5954446 84.8757072 191.58759558 76.28617615 C191.58291994 71.15632015 191.58229116 66.02655036 191.59220505 60.89669991 C191.60087624 56.07282813 191.59484992 51.24919265 191.57752228 46.42534637 C191.57355805 44.65566589 191.5746904 42.8859655 191.58131027 41.11629295 C191.58951857 38.69895989 191.5792132 36.2823821 191.56427002 33.86509705 C191.57430827 32.81669036 191.57430827 32.81669036 191.58454931 31.74710375 C191.52969798 27.16666542 190.5499341 24.06216813 188.18331909 20.15390015 C183.52982824 15.65552566 177.96707858 16.02743265 171.7956543 16.01345825 C171.06128171 16.01048713 170.32690912 16.00751601 169.57028282 16.00445485 C167.11462312 15.99579759 164.65901235 15.99426214 162.20333862 15.99276733 C160.44058122 15.98813714 158.67782482 15.9831122 156.91506958 15.97772217 C152.12992467 15.96461754 147.34479378 15.95815725 142.55963373 15.95371151 C139.56933434 15.95077829 136.57903877 15.94667305 133.5887413 15.94220734 C124.23044831 15.9285389 114.87216406 15.91886845 105.51386178 15.91500545 C94.71491001 15.91052303 83.91608471 15.89296384 73.11717141 15.86400485 C64.76628457 15.84238847 56.41543333 15.83230122 48.06451881 15.83096433 C43.07825281 15.82991648 38.09210581 15.8240126 33.10586929 15.80614471 C28.41580485 15.78966433 23.72594887 15.78750838 19.03586578 15.79628372 C17.31658495 15.79705405 15.5972929 15.79271191 13.87804031 15.78282547 C11.52676314 15.7700996 9.17622368 15.77598576 6.82495117 15.78640747 C4.85329829 15.78420763 4.85329829 15.78420763 2.84181404 15.78196335 C-2.43774903 16.31870422 -6.35932828 17.69654752 -10.19168091 21.52890015 Z " fill="#00ff00" transform="translate(28.816680908203125,-0.153900146484375)"/>
<path d="M0 0 C1.85538137 -0.00570846 3.71075923 -0.01267455 5.56613159 -0.02079773 C10.5868892 -0.03869247 15.60747167 -0.03756758 20.62825155 -0.03185534 C24.82788375 -0.02875791 29.02748259 -0.03486218 33.22711003 -0.04089409 C43.1390653 -0.05492586 53.05093437 -0.05338947 62.96289062 -0.04199219 C73.17001973 -0.03051445 83.37688597 -0.04458399 93.58398044 -0.07138866 C102.36474701 -0.0935797 111.14543127 -0.1001753 119.92622387 -0.09431225 C125.16296569 -0.09094937 130.39953908 -0.09331318 135.63625717 -0.11056328 C140.56284157 -0.12608444 145.48903809 -0.12201963 150.41560745 -0.10325813 C152.21705809 -0.09958643 154.0185378 -0.10263906 155.81996155 -0.11314392 C167.56165006 -0.17635352 179.11700028 -0.00944437 188.21142578 8.56030273 C193.99204091 15.66564217 195.86259986 23.10132559 195.85186768 32.03764343 C195.8548388 32.81058599 195.85780992 33.58352854 195.86087108 34.3798936 C195.86954867 36.97218611 195.87106554 39.56443239 195.87255859 42.15673828 C195.87718748 44.01462401 195.88221224 45.87250879 195.88760376 47.73039246 C195.90072413 52.78018526 195.90717217 57.82996476 195.91161442 62.87977195 C195.91454612 66.03574855 195.91865114 69.19172153 195.92311859 72.3476963 C195.93679342 82.22498263 195.94645979 92.10226065 195.95032048 101.97955579 C195.95479941 113.3756101 195.97233974 124.77154437 196.00132108 136.16756219 C196.02295185 144.97960266 196.03302553 153.7916094 196.0343616 162.60367614 C196.03540875 167.86500368 196.04129735 173.12621837 196.05918121 178.38751793 C196.07568566 183.33939946 196.07780583 188.2910836 196.06904221 193.24298286 C196.06827307 195.05656336 196.07259824 196.87015457 196.08250046 198.68370819 C196.19401233 220.3863818 196.19401233 220.3863818 188.58642578 228.71655273 C187.53068359 229.91731445 187.53068359 229.91731445 186.45361328 231.14233398 C177.30746302 238.68595364 167.20682305 237.97545232 155.93212891 237.92163086 C154.02424079 237.92705653 152.11635687 237.93418168 150.20848083 237.94287109 C145.04524585 237.96105437 139.88233177 237.95405753 134.71909142 237.94135475 C129.30608657 237.93120119 123.89310851 237.94062697 118.48010254 237.94689941 C109.39130744 237.95416895 100.30264251 237.94460628 91.21386719 237.92553711 C80.71812841 237.90376976 70.22270049 237.91082162 59.72696924 237.93284273 C50.70249099 237.95101646 41.67810612 237.95354539 32.65361547 237.94308805 C27.26939648 237.93686399 21.88532341 237.9359876 16.50111389 237.94923401 C11.43827382 237.96082056 6.37583307 237.95271546 1.31303596 237.92965698 C-0.54085058 237.92438488 -2.39477095 237.9258579 -4.24864388 237.93470764 C-16.19636752 237.98646732 -25.60891495 237.4579168 -34.78466797 229.04858398 C-40.42916665 222.87628802 -41.43703862 216.67138428 -41.44247437 208.58737183 C-41.44685662 207.79471707 -41.45123887 207.00206232 -41.45575392 206.18538773 C-41.46912029 203.52634004 -41.47531594 200.86732547 -41.48144531 198.20825195 C-41.48934803 196.30272777 -41.49761708 194.39720508 -41.50622559 192.49168396 C-41.53242765 186.23071722 -41.54775214 179.96974386 -41.56201172 173.70874023 C-41.56737228 171.55197267 -41.57274979 169.39520514 -41.57814407 167.23843765 C-41.59977077 158.2653378 -41.61850659 149.29223973 -41.62976646 140.31912041 C-41.64600008 127.46767075 -41.67916623 114.61652369 -41.73616731 101.7651881 C-41.77489588 92.72468624 -41.79440267 83.68426522 -41.79968703 74.6436826 C-41.80333665 69.24641652 -41.81531686 63.84947333 -41.84778976 58.45229721 C-41.87792127 53.37146163 -41.88416398 48.29114344 -41.87240601 43.2102375 C-41.87218569 41.35029863 -41.88045557 39.49033539 -41.89805984 37.63047981 C-41.99930395 26.31392415 -41.59697949 17.90394313 -34.14794922 8.78295898 C-33.45185547 8.18354492 -32.75576172 7.58413086 -32.03857422 6.96655273 C-31.00990234 6.04036133 -31.00990234 6.04036133 -29.96044922 5.09545898 C-20.67622036 -0.78183794 -10.55422167 -0.0293214 0 0 Z M-23.10107422 22.27905273 C-25.63868918 26.82004794 -25.41575143 31.65933879 -25.42228699 36.75375366 C-25.42455254 37.4840427 -25.4268181 38.21433173 -25.42915231 38.96675074 C-25.4354716 41.40859545 -25.43466428 43.85038436 -25.43383789 46.29223633 C-25.43683066 48.04514131 -25.44023347 49.79804564 -25.4440155 51.5509491 C-25.45284741 56.30923926 -25.45519327 61.06751144 -25.45583129 65.825809 C-25.45654222 68.79935741 -25.45867735 71.77290125 -25.46132851 74.74644852 C-25.47057904 85.1222284 -25.47466373 95.49799543 -25.47387695 105.8737793 C-25.47327614 115.54232937 -25.48382943 125.21082365 -25.49962062 134.8793596 C-25.51269969 143.18353773 -25.5180607 151.48769763 -25.51742154 159.79188597 C-25.51716668 164.75017675 -25.52001171 169.70841794 -25.53059959 174.66669846 C-25.5402868 179.33046597 -25.54035546 183.99413654 -25.53308296 188.65790749 C-25.53203792 190.36750874 -25.53439525 192.07711605 -25.54044342 193.78670692 C-25.5481777 196.12471299 -25.54350918 198.46238547 -25.53581238 200.80038452 C-25.53635715 202.10744543 -25.53690191 203.41450634 -25.53746319 204.76117516 C-25.23619321 209.17073034 -24.71314851 213.58873806 -21.92138672 217.14624023 C-16.41286282 221.28476855 -12.83495997 221.52907934 -6.01443481 221.5377655 C-5.28021109 221.54003106 -4.54598736 221.54229662 -3.78951442 221.54463083 C-1.3284103 221.55096266 1.13263863 221.55014198 3.59375 221.54931641 C5.35798209 221.5523084 7.12221352 221.55571103 8.88644409 221.55949402 C13.67984915 221.56833402 18.47323635 221.57067213 23.26664877 221.5713098 C27.26766433 221.57225912 31.26867572 221.57593768 35.26968968 221.5794819 C44.70909214 221.58762643 54.14848506 221.59006613 63.58789062 221.58935547 C73.32630814 221.58875464 83.06467027 221.59930752 92.80307376 221.61509913 C101.16326657 221.62817296 109.52344127 221.63353943 117.88364422 221.63290006 C122.87712941 221.63264503 127.87056537 221.63549903 132.86404037 221.64607811 C137.56062235 221.65575643 142.25710803 221.65584007 146.95369339 221.64856148 C148.67661428 221.64751531 150.39954116 221.64988041 152.12245178 221.65592194 C154.47618749 221.66364037 156.82959053 221.65899813 159.18331909 221.65129089 C160.49997496 221.65183566 161.81663082 221.65238043 163.17318535 221.6529417 C168.30986468 221.29161441 171.61970202 220.35021332 175.52392578 216.96655273 C179.03202194 212.85706866 178.85993867 209.20614276 178.8585968 204.06034851 C178.86227349 203.30656144 178.86595018 202.55277438 178.86973828 201.77614528 C178.88077742 199.24284651 178.88461933 196.70958876 178.88842773 194.17626953 C178.89469214 192.36292388 178.90133892 190.54957952 178.90834045 188.73623657 C178.92575053 183.80435493 178.93630196 178.87248298 178.94454598 173.94057822 C178.94969549 170.86017739 178.9557712 167.77977958 178.96205711 164.69938087 C178.9811081 155.06397266 178.99534017 145.42857212 179.00366908 135.7931487 C179.01344613 124.66585932 179.03977826 113.53876862 179.08016998 102.41154927 C179.1103111 93.81358758 179.125136 85.21568291 179.1284501 76.6176694 C179.13080259 71.48101765 179.13978922 66.34457817 179.16491127 61.20798302 C179.18816235 56.37591355 179.19243716 51.54419659 179.18214989 46.71208572 C179.18165372 44.93916592 179.18799804 43.16622893 179.20170593 41.39336205 C179.21938422 38.97138732 179.21233959 36.5506833 179.19917297 34.12870789 C179.21014222 33.42840586 179.22111147 32.72810383 179.23241311 32.00658053 C179.16711263 27.02565841 177.90579856 24.19011283 174.71142578 20.40405273 C170.73502275 17.16981597 167.07540426 16.97587476 162.12721252 17.02310181 C160.99396865 17.01608185 160.99396865 17.01608185 159.83783096 17.00892007 C157.31057177 16.99697027 154.78385485 17.0064271 152.2565918 17.01586914 C150.44294926 17.01180339 148.6293092 17.0064615 146.81567383 16.99993896 C141.89210861 16.98625897 136.96873192 16.99156712 132.04516339 17.00107622 C126.89232197 17.00867041 121.73949672 17.00162777 116.58665466 16.99691772 C107.93217063 16.99145899 99.27776339 16.99865439 90.62329102 17.01293945 C80.61953974 17.02926102 70.61597194 17.0239815 60.61222512 17.00746024 C52.02270137 16.99384261 43.43323283 16.99192723 34.84370178 16.99977624 C29.71384578 17.00445189 24.58407599 17.00508066 19.45422554 16.99516678 C14.63035376 16.98649558 9.80671828 16.99252191 4.98287201 17.00984955 C3.21319153 17.01381378 1.44349113 17.01268143 -0.32618141 17.00606155 C-2.74351448 16.99785326 -5.16009226 17.00815862 -7.57737732 17.02310181 C-8.27631511 17.01640964 -8.97525289 17.00971748 -9.69537061 17.00282252 C-15.10572957 17.06761225 -19.29178912 18.33841298 -23.10107422 22.27905273 Z " fill="#00ff00" transform="translate(41.28857421875,274.595947265625)"/>
<path d="M0 0 C12.31102898 10.49166509 20.27415332 24.97733984 21.625 41.1875 C22.6384912 60.27079763 18.29129032 77.00496797 6.625 92.1875 C5.8825 93.239375 5.14 94.29125 4.375 95.375 C-1.99310699 101.8878367 -10.07573148 106.76013964 -19.25 107.5 C-25.93686638 107.27073601 -30.63198152 105.21438859 -35.375 100.5 C-36.38805567 99.40779936 -37.39294468 98.30765685 -38.375 97.1875 C-42.14104823 98.59976809 -45.66087752 100.31929599 -49.21484375 102.1875 C-60.00809137 107.18401246 -71.28059481 107.20964085 -82.375 103.1875 C-90.82289176 98.88385703 -96.41495172 91.05173061 -99.375 82.1875 C-103.32418011 66.54980695 -99.16774033 50.90610833 -91.35546875 37.23046875 C-84.97472585 27.4265265 -76.41458519 19.00172029 -64.94921875 15.66015625 C-54.35759748 13.71541244 -44.35771014 14.87824007 -35.140625 20.56640625 C-33.50771831 21.71270674 -31.93290452 22.94117638 -30.375 24.1875 C-30.33375 23.424375 -30.2925 22.66125 -30.25 21.875 C-29.375 19.1875 -29.375 19.1875 -26.75 17.25 C-22.50530904 15.9137084 -20.43155598 16.47126478 -16.375 18.1875 C-11.70566333 25.19150501 -14.88958944 35.32678634 -16.37890625 43.109375 C-16.79363356 45.3736954 -17.20834668 47.63801839 -17.62304688 49.90234375 C-18.28106515 53.43361816 -18.94251789 56.96423153 -19.60522461 60.49462891 C-20.24643072 63.92723322 -20.87556309 67.36189673 -21.50390625 70.796875 C-21.70593155 71.85009949 -21.90795685 72.90332397 -22.11610413 73.98846436 C-23.03031985 79.00085589 -23.73037124 83.16077294 -22.375 88.1875 C-20.28004697 89.24793651 -20.28004697 89.24793651 -17.375 89.1875 C-7.57670355 84.09721458 -2.01156244 74.21892318 1.625 64.1875 C5.2467103 50.92040578 4.74839034 37.00451236 -2.125 24.875 C-9.7586665 13.27627372 -21.28438794 6.52569817 -34.86328125 3.625 C-56.58771012 0.91850831 -77.10060374 4.55640713 -94.75 18.0625 C-106.86217048 28.41037724 -117.04955072 42.23692883 -118.59814453 58.53613281 C-119.21769042 68.61589194 -119.18114917 78.0708358 -114.375 87.1875 C-113.9625 88.02152344 -113.55 88.85554688 -113.125 89.71484375 C-105.73560669 103.33903767 -93.15687974 112.47228196 -78.60546875 117.34375 C-53.30333802 123.95228717 -25.59797248 122.7795035 -2.29296875 110.05029297 C0.740999 108.24382548 3.64418653 106.31335959 6.546875 104.30078125 C15.41673973 98.21119138 15.41673973 98.21119138 19.8125 98.125 C23.43067453 99.49186593 24.69584168 100.84857214 26.625 104.1875 C27.1875 107.125 27.1875 107.125 26.625 110.1875 C14.58657461 126.60553536 -10.18219974 134.61442639 -29.4765625 137.9375 C-56.59762355 142.06389457 -85.18531811 138.13145296 -108.08984375 122.3125 C-123.02492163 110.89832646 -133.07079919 95.80992767 -136.375 77.1875 C-137.98003992 54.90954587 -133.57526222 34.38967542 -118.95703125 16.93359375 C-116.83804618 14.59486208 -114.66340154 12.36148146 -112.375 10.1875 C-111.67890625 9.40826172 -111.67890625 9.40826172 -110.96875 8.61328125 C-84.0800318 -20.71387462 -31.05824513 -23.4000477 0 0 Z M-75.375 44.1875 C-81.49610128 54.38482138 -85.66275896 65.33941258 -82.875 77.33984375 C-80.95048455 82.33702308 -77.66403916 85.74867538 -73.1875 88.5625 C-64.79931186 90.42654181 -57.43681836 87.65306161 -50.375 83.1875 C-42.66619206 77.7248792 -39.01796627 72.01802092 -37.125 62.8125 C-35.80947638 54.16592204 -35.00169246 46.58815977 -40.375 39.1875 C-43.7003024 35.69326513 -47.60687014 32.63497964 -52.453125 31.8515625 C-62.48292604 31.67117039 -69.27550477 36.41190381 -75.375 44.1875 Z " fill="#00ff00" transform="translate(173.375,331.8125)"/>
<path d="M0 0 C1.01349518 -0.00426498 2.02699036 -0.00852997 3.07119751 -0.01292419 C4.17725845 -0.01247101 5.2833194 -0.01201782 6.42289734 -0.0115509 C7.59241943 -0.01490952 8.76194153 -0.01826813 9.96690369 -0.02172852 C13.83985959 -0.03124091 17.71277227 -0.03318183 21.58573914 -0.03425598 C22.92163296 -0.03567949 24.25752661 -0.03727539 25.59342003 -0.03904152 C32.59110825 -0.04829095 39.58877743 -0.05237701 46.58647156 -0.05158997 C53.09956528 -0.05098964 59.61257606 -0.0615336 66.1256488 -0.07733363 C71.72494721 -0.09043072 77.32421859 -0.09577294 82.92353219 -0.09513456 C86.2643678 -0.09488016 89.6050711 -0.09862449 92.94590187 -0.10831261 C96.67528275 -0.11811414 100.4044505 -0.11523353 104.13383484 -0.10920715 C105.23382309 -0.11482666 106.33381134 -0.12044617 107.46713257 -0.12623596 C120.24297279 -0.07379908 120.24297279 -0.07379908 124.93339539 3.71965027 C125.63335632 4.60523621 125.63335632 4.60523621 126.34745789 5.50871277 C127.07062195 6.38656433 127.07062195 6.38656433 127.80839539 7.28215027 C130.56616585 11.66867107 130.12663815 16.62851183 130.1335907 21.64665222 C130.1385556 22.50406006 130.14352051 23.3614679 130.14863586 24.24485779 C130.16323027 27.07891139 130.17005497 29.91290902 130.17558289 32.74699402 C130.18133659 34.71990968 130.1870943 36.69282533 130.19285583 38.66574097 C130.20335809 42.8024471 130.20920583 46.93913385 130.21269226 51.07585144 C130.21817522 56.36853524 130.24220238 61.66096155 130.27066422 66.95356464 C130.28931601 71.02942649 130.29449755 75.10522663 130.29602814 79.18112755 C130.29904946 81.13190811 130.3070604 83.08268772 130.32021332 85.03342628 C130.33732685 87.76667836 130.33538063 90.49930535 130.3289032 93.23258972 C130.33811798 94.03335434 130.34733276 94.83411896 130.35682678 95.65914917 C130.3181956 100.88036689 129.42231557 104.49761951 126.97245789 109.13371277 C122.75342974 113.1417895 119.55639329 114.2544591 113.83065796 114.28088379 C112.76660736 114.28803909 111.70255676 114.2951944 110.60626221 114.30256653 C109.43893051 114.30525543 108.27159882 114.30794434 107.06889343 114.31071472 C105.83938965 114.31728592 104.60988586 114.32385712 103.34312439 114.33062744 C99.26513934 114.35037532 95.18719362 114.36202722 91.10917664 114.37199402 C89.7042317 114.3760423 88.29928696 114.38015925 86.89434242 114.3843441 C80.29382746 114.40339032 73.69332365 114.41762295 67.09278649 114.42595607 C59.47796724 114.43572897 51.86343862 114.46205193 44.24872178 114.50245696 C38.35986641 114.53263027 32.47109432 114.54742605 26.58216316 114.55073708 C23.06631907 114.55308607 19.55078569 114.56202629 16.03502464 114.58719826 C12.11132403 114.61483778 8.18800513 114.61064408 4.26420593 114.60368347 C3.10294693 114.61649353 1.94168793 114.62930359 0.74523926 114.64250183 C-5.30903109 114.6033043 -9.41613239 114.49216053 -14.02754211 110.13371277 C-18.34491507 105.19706652 -18.60135997 101.2655474 -18.5292511 95.01066589 C-18.53465408 94.11234543 -18.54005707 93.21402496 -18.54562378 92.28848267 C-18.55809216 89.33030362 -18.54163248 86.37310143 -18.52363586 83.41496277 C-18.5237909 81.35282846 -18.52528057 79.29069386 -18.52804565 77.2285614 C-18.5294288 72.91116929 -18.51688541 68.59410972 -18.49409485 64.27677917 C-18.46571071 58.7485859 -18.46844878 53.22094502 -18.48118496 47.69271088 C-18.48814698 43.43585001 -18.48034683 39.17911635 -18.46792793 34.92227173 C-18.46341853 32.88416024 -18.46307216 30.84603507 -18.46699333 28.80792236 C-18.46991063 25.95725107 -18.45337351 23.10733535 -18.43159485 20.25675964 C-18.4360965 19.41813889 -18.44059814 18.57951813 -18.44523621 17.71548462 C-18.38292143 12.7949615 -17.76747877 9.38707991 -15.02754211 5.13371277 C-10.00459495 1.17947777 -6.26797761 0.0119431 0 0 Z M13.97245789 17.13371277 C19.2663166 23.31672064 19.2663166 23.31672064 25.15995789 28.44621277 C29.06064428 31.55514956 32.80645384 34.75091933 36.47245789 38.13371277 C42.65258163 43.81658518 48.97627346 49.46958982 55.97245789 54.13371277 C56.82066101 53.40668152 57.66886414 52.67965027 58.54277039 51.93058777 C73.52714539 39.08683777 73.52714539 39.08683777 75.25663757 37.60466003 C76.40083954 36.62375268 77.54471969 35.64246981 78.6882782 34.66081238 C81.77284204 32.01385252 84.86415 29.3752832 87.96464539 26.74699402 C88.61433289 26.19463074 89.26402039 25.64226746 89.93339539 25.07316589 C91.18921821 24.0057165 92.44697019 22.94053169 93.70683289 21.87785339 C95.14737553 20.65140062 96.56280344 19.3955463 97.97245789 18.13371277 C97.97245789 17.80371277 97.97245789 17.47371277 97.97245789 17.13371277 C70.25245789 17.13371277 42.53245789 17.13371277 13.97245789 17.13371277 Z M-1.02754211 28.13371277 C-1.02754211 47.27371277 -1.02754211 66.41371277 -1.02754211 86.13371277 C3.23026825 83.29517253 6.51286455 80.87260454 10.15995789 77.44621277 C15.58374583 72.43622881 21.22676032 67.76675144 26.97245789 63.13371277 C28.97958524 61.4753141 30.97672291 59.80581504 32.97245789 58.13371277 C29.23358127 53.10556835 24.83546089 49.46982837 19.94902039 45.57121277 C16.03959083 42.36979014 12.3587684 38.95031098 8.67558289 35.49308777 C5.6172645 32.82368848 2.27575516 30.49321082 -1.02754211 28.13371277 Z M105.84745789 33.32121277 C105.23015808 33.85351501 104.61285828 34.38581726 103.97685242 34.93424988 C100.59329688 37.85455523 97.22021521 40.78688738 93.84745789 43.71965027 C93.17859558 44.30077576 92.50973328 44.88190125 91.82060242 45.4806366 C90.52860923 46.60397687 89.23786915 47.7287604 87.9485321 48.85514832 C85.03011937 51.39557147 82.11752594 53.87270614 78.97245789 56.13371277 C80.26509916 59.03245694 81.53733357 60.89973803 83.95683289 62.94621277 C84.55592468 63.45885681 85.15501648 63.97150085 85.77226257 64.49967957 C86.73760925 65.308526 86.73760925 65.308526 87.72245789 66.13371277 C88.38406921 66.69679138 89.04568054 67.25987 89.7273407 67.8400116 C91.11032379 69.0167287 92.49545328 70.19092739 93.88261414 71.36271667 C95.92260652 73.09146723 97.94970809 74.83405404 99.97245789 76.58293152 C101.22244242 77.66237651 102.47244181 78.7418043 103.72245789 79.82121277 C104.30608093 80.32588074 104.88970398 80.83054871 105.49101257 81.35050964 C107.91908688 83.43581386 110.30525734 85.35557907 112.97245789 87.13371277 C112.97245789 67.66371277 112.97245789 48.19371277 112.97245789 28.13371277 C110.55202936 28.13371277 107.68900993 31.72251632 105.84745789 33.32121277 Z M39.53495789 74.07121277 C34.68979352 78.61116993 29.70032295 82.88415838 24.53105164 87.05558777 C19.12326296 91.44752433 19.12326296 91.44752433 13.97245789 96.13371277 C13.97245789 96.46371277 13.97245789 96.79371277 13.97245789 97.13371277 C41.36245789 97.13371277 68.75245789 97.13371277 96.97245789 97.13371277 C91.67859918 90.9507049 91.67859918 90.9507049 85.78495789 85.82121277 C80.76544233 81.83573111 76.11737023 77.62266648 71.48027039 73.20011902 C69.02007244 71.17294657 66.98170606 70.12061674 63.97245789 69.13371277 C62.92058289 70.12371277 62.92058289 70.12371277 61.84745789 71.13371277 C58.4255066 73.51420062 57.05506759 73.80026129 52.97245789 73.13371277 C49.72245789 71.13371277 49.72245789 71.13371277 46.97245789 69.13371277 C43.66773022 69.13371277 41.81608625 71.89331585 39.53495789 74.07121277 Z " fill="#00ff00" transform="translate(338.0275421142578,60.86628723144531)"/>
<path d="M0 0 C8.4578515 4.3087168 11.86097894 12.21374717 16 20.3125 C16.52078125 21.31990234 17.0415625 22.32730469 17.578125 23.36523438 C18.59439198 25.33489323 19.60578004 27.30707853 20.61181641 29.28198242 C21.47800833 30.97795756 22.35370545 32.66915182 23.24365234 34.3527832 C25.90744574 39.45590641 27.35586423 43.32168138 26 49 C23.38253247 53.4957831 19.7087952 56.77640227 15 59 C14.34 59 13.68 59 13 59 C22.00389983 74.82023244 35.52114142 88.46592044 51 98 C51.65355469 96.96939453 51.65355469 96.96939453 52.3203125 95.91796875 C58.61028192 86.4013267 58.61028192 86.4013267 64 85 C72.50449489 84.94640024 79.19029422 88.61295388 86.5390625 92.47192383 C88.61627079 93.55793617 90.70870239 94.60898226 92.8046875 95.65820312 C108.87125853 103.87155289 108.87125853 103.87155289 112 112.87890625 C112 123.54526896 106.53225575 131.79371647 99.71484375 139.625 C91.76281487 147.25445981 82.78316699 148.96144279 72 149 C42.37345068 147.75292113 14.34984864 129.39773097 -5.50488281 108.40917969 C-24.43571512 87.76992456 -38.14066662 60.38633611 -37.140625 32.03515625 C-36.53905629 23.32912017 -32.83009572 16.51408249 -26.5625 10.5625 C-19.39835283 4.57455609 -9.78739429 -2.49637992 0 0 Z M-7 18 C-9.75301925 19.43869679 -9.75301925 19.43869679 -12.5625 21.5625 C-14.01849609 22.58537109 -14.01849609 22.58537109 -15.50390625 23.62890625 C-19.095114 27.04027261 -19.78417249 30.11276407 -20.3359375 34.9375 C-20.66571186 60.79180981 -5.22821015 83.11018424 12 101 C12.58136719 101.64453125 13.16273437 102.2890625 13.76171875 102.953125 C27.71495001 117.99590329 51.82883812 131.05130455 72.5 132.06640625 C78.10418588 131.91754506 82.37102569 131.30317945 86.8125 127.75 C91.40212755 122.47232816 91.40212755 122.47232816 93 116 C89.21179916 113.99338316 85.41888948 111.9958376 81.625 110 C80.54476562 109.42765625 79.46453125 108.8553125 78.3515625 108.265625 C77.3203125 107.72421875 76.2890625 107.1828125 75.2265625 106.625 C74.27346191 106.12226563 73.32036133 105.61953125 72.33837891 105.1015625 C70.12925941 103.85794637 70.12925941 103.85794637 68 104 C66.58804959 105.9246141 66.58804959 105.9246141 65.1875 108.3125 C61.13488432 114.5232556 61.13488432 114.5232556 57 116 C48.43217293 117.16173926 42.35510756 113.53519562 35.6015625 108.53515625 C31.99169507 105.78104874 28.48307789 102.91203073 25 100 C24.07574219 99.23171875 23.15148437 98.4634375 22.19921875 97.671875 C11.74706477 88.63393159 -2.98154682 73.41870531 -5.05078125 58.9609375 C-4.95829325 55.38947774 -3.83172983 53.01349101 -2 50 C0.375 47.8125 0.375 47.8125 3 46 C4.67215417 44.67355513 6.33958199 43.34110685 8 42 C6.07831231 38.17932698 4.13507122 34.37003544 2.1875 30.5625 C1.64029297 29.47388672 1.09308594 28.38527344 0.52929688 27.26367188 C-0.00244141 26.22919922 -0.53417969 25.19472656 -1.08203125 24.12890625 C-1.56905518 23.17056885 -2.0560791 22.21223145 -2.55786133 21.22485352 C-3.86745499 18.69747619 -3.86745499 18.69747619 -7 18 Z " fill="#00ff00" transform="translate(81,44)"/>
</svg>