<svg version="1.1" xmlns="http://www.w3.org/2000/svg" width="512px" height="512px" transform="rotate(0) scale(1, 1)">
<path d="M0 0 C1.20414551 -0.0306958 2.40829102 -0.0613916 3.64892578 -0.09301758 C11.90449955 -0.09478486 11.90449955 -0.09478486 16.09375 2.47265625 C18.44448119 6.46786826 18.83074193 9.87965659 19.25 14.4375 C20.79286275 26.72968096 25.26922739 38.15123279 34.875 46.5 C43.35425351 52.9256843 52.25224305 56.85356895 62.75 58.5 C67.12269066 59.1996305 69.75735982 60.17451714 72.875 63.5 C75.15020172 68.05040343 74.17849557 72.47556548 72.79296875 77.15234375 C72.13458228 79.12628481 71.45109137 81.08752119 70.74169922 83.04370117 C65.32569978 98.04441401 66.15692095 117.0763978 72.64453125 131.56640625 C76.02210846 138.74334512 79.72462904 145.42991994 84.875 151.5 C85.77992188 152.70269531 85.77992188 152.70269531 86.703125 153.9296875 C95.48956635 164.32802996 108.74929275 170.46071648 121.5 174.4453125 C125.61924551 176.27458271 127.44703207 178.42805509 129.11328125 182.6015625 C129.46777344 183.76429688 129.82226562 184.92703125 130.1875 186.125 C132.47281806 192.85515686 135.34996222 198.0424707 139.875 203.5 C140.39707031 204.13421875 140.91914063 204.7684375 141.45703125 205.421875 C149.60054132 214.37775469 161.24603665 220.10248212 173.265625 220.8125 C184.78346127 221.22658535 194.9108487 219.92421512 205.125 214.1875 C209.52569889 211.85825979 213.14746919 212.25180705 217.875 213.5 C220.47186856 214.43022157 222.9950833 215.44225925 225.515625 216.5625 C229.85728981 218.28766482 233.79619535 218.60342263 238.4375 218.421875 C240.00371094 218.38320313 240.00371094 218.38320313 241.6015625 218.34375 C243.78435713 218.2812356 245.96676009 218.20309861 248.1484375 218.109375 C255.97384152 217.95479912 255.97384152 217.95479912 260 220.390625 C264.20368244 227.36173171 264.18264003 235.77786981 264.17578125 243.73046875 C264.18424828 245.14780052 264.18424828 245.14780052 264.19288635 246.59376526 C264.20481733 249.62518164 264.1987035 252.65608541 264.1875 255.6875 C264.18534485 256.72322144 264.1831897 257.75894287 264.18096924 258.8260498 C264.13150773 273.57930249 263.8430839 288.00101771 260.875 302.5 C260.68164062 303.49660645 260.48828125 304.49321289 260.2890625 305.52001953 C252.17028127 346.60882055 234.80084885 383.70299494 208.875 416.5 C208.06289063 417.53769531 207.25078125 418.57539063 206.4140625 419.64453125 C193.74907313 435.20608759 179.19874403 449.80214417 162.875 461.5 C161.52974408 462.48930622 160.18470229 463.47890366 158.83984375 464.46875 C127.53306909 487.26879792 91.97487825 502.48828684 53.875 509.5 C53.07433105 509.66081055 52.27366211 509.82162109 51.44873047 509.98730469 C23.38172956 515.477321 -10.12684244 515.24943715 -38.125 509.5 C-39.13755859 509.30132324 -40.15011719 509.10264648 -41.19335938 508.89794922 C-82.28600049 500.68065205 -119.22136417 483.23982803 -152.125 457.5 C-152.66415039 457.08089355 -153.20330078 456.66178711 -153.75878906 456.22998047 C-169.99886305 443.46696125 -185.06962343 428.27573511 -197.125 411.5 C-197.9887527 410.33011544 -198.85335469 409.1608575 -199.71875 407.9921875 C-214.86207742 387.3661757 -226.9442165 364.75702873 -235.125 340.5 C-235.53806396 339.27748535 -235.53806396 339.27748535 -235.95947266 338.03027344 C-239.19755506 328.25942323 -241.72985473 318.37781263 -243.875 308.3125 C-244.07375732 307.38783936 -244.27251465 306.46317871 -244.47729492 305.51049805 C-247.74515754 289.42611466 -248.53330605 273.55961075 -248.5 257.1875 C-248.49945618 256.17798279 -248.49891235 255.16846558 -248.49835205 254.12835693 C-248.45758601 237.61876461 -247.55029309 221.70217999 -244.125 205.5 C-243.90537598 204.45811523 -243.68575195 203.41623047 -243.45947266 202.34277344 C-238.11797618 177.85429916 -229.48366855 154.42738244 -217.3125 132.5 C-216.95172363 131.84741211 -216.59094727 131.19482422 -216.21923828 130.52246094 C-214.22488092 127.04136714 -212.30543327 123.98243742 -209.125 121.5 C-205.71728739 120.69655556 -202.55849184 120.86108161 -199.125 121.5 C-195.71078353 123.86904816 -194.48153393 125.47496494 -193.125 129.375 C-193.125 135.58977938 -197.02561026 141.30583248 -199.84301758 146.71655273 C-210.00550478 166.36967087 -217.50140675 186.85431132 -222.125 208.5 C-222.33527832 209.47582031 -222.54555664 210.45164063 -222.76220703 211.45703125 C-234.59841018 269.26043666 -222.55734163 332.98985164 -190.625 382.5 C-188.83238517 385.19631646 -186.99207668 387.8548111 -185.125 390.5 C-184.65626465 391.1693457 -184.1875293 391.83869141 -183.70458984 392.52832031 C-176.78017208 402.32795317 -169.13153188 411.22002783 -160.76513672 419.81298828 C-159.25886838 421.36230568 -157.7703131 422.92658294 -156.28515625 424.49609375 C-149.43404555 431.58865328 -142.01348472 437.62335801 -134.125 443.5 C-133.2602002 444.14799561 -133.2602002 444.14799561 -132.37792969 444.80908203 C-101.76896136 467.61457819 -66.74386641 482.1459906 -29.125 488.5 C-28.38781738 488.62455566 -27.65063477 488.74911133 -26.89111328 488.87744141 C31.32976249 498.26790524 93.81048617 483.42579366 141.875 449.5 C142.5443457 449.03126465 143.21369141 448.5625293 143.90332031 448.07958984 C153.70295317 441.15517208 162.59502783 433.50653188 171.18798828 425.14013672 C172.73730568 423.63386838 174.30158294 422.1453131 175.87109375 420.66015625 C182.96365328 413.80904555 188.99835801 406.38848472 194.875 398.5 C195.30699707 397.9234668 195.73899414 397.34693359 196.18408203 396.75292969 C226.44227867 356.14113261 241.54917959 308.40338598 242.5 258 C242.53831699 256.29034771 242.57737582 254.58071188 242.6171875 252.87109375 C242.71163768 248.74753457 242.79618738 244.62388646 242.875 240.5 C242.10518799 240.52392822 241.33537598 240.54785645 240.54223633 240.57250977 C234.15794442 240.6868952 228.653512 240.3226651 222.5625 238.4375 C214.88526669 236.08639485 209.26705007 236.83076029 201.75 239.5 C184.7642457 245.50016256 164.30633427 244.27244051 148.01953125 236.76953125 C129.15852035 227.55812073 118.59239876 214.10871157 109.875 195.5 C108.42627323 192.60254647 106.56101844 192.45201479 103.5625 191.3125 C80.59018676 181.94435808 63.33184681 164.93976992 52.875 142.5 C47.74951216 130.30836342 45.49400111 117.93603544 45.5625 104.75 C45.56443359 103.19152344 45.56443359 103.19152344 45.56640625 101.6015625 C45.66988391 93.26126331 46.70671386 85.55363424 48.875 77.5 C48.02421875 77.39816406 47.1734375 77.29632813 46.296875 77.19140625 C30.61347688 74.02250046 17.25344264 61.66212782 8.15625 49.1328125 C3.01842953 41.13773473 -0.49147843 31.86201073 -2.125 22.5 C-49.09972441 19.87408373 -99.29669741 42.50095522 -135.80859375 70.5625 C-139.59254523 73.39554513 -142.11540681 74.92938493 -146.9375 74.6875 C-150.10168866 74.05797556 -151.11423171 73.50942225 -153.625 71.3125 C-155.30856312 68.15581916 -156.05184384 66.08465187 -156.125 62.5 C-147.83572951 42.38041143 -111.53148367 27.84902049 -92.65234375 19.73046875 C-63.02392149 7.49040613 -32.06177829 0.47350363 0 0 Z " fill="#0f0" transform="translate(248.125,-0.5)"/>
<path d="M0 0 C14.111639 11.96496989 21.35659367 27.66842655 22.98828125 45.9375 C23.64615561 62.52141607 17.51244959 78.82671864 6.39453125 91.05078125 C-5.20895565 103.08307109 -20.18170657 110.33124716 -37.04052734 110.78076172 C-55.27575644 110.95235786 -70.79715096 105.00518302 -84.23046875 92.48828125 C-90.42271717 85.95385868 -94.73266978 78.75877788 -98.23046875 70.48828125 C-98.57207031 69.68519531 -98.91367188 68.88210938 -99.265625 68.0546875 C-104.4363499 53.02351046 -102.16883843 35.22767252 -95.6875 21.1328125 C-87.97785285 5.80172927 -76.08689955 -4.51735443 -60.046875 -10.58203125 C-39.54243701 -17.35048651 -16.95795101 -13.59608463 0 0 Z M-71.328125 21.84375 C-79.34889847 32.55514386 -81.50263071 43.38236267 -80.23046875 56.48828125 C-78.13288819 66.8319754 -71.89916994 76.05332863 -63.54296875 82.42578125 C-54.41139197 88.24314103 -43.9937563 90.87253608 -33.23046875 89.48828125 C-21.59163099 86.87907077 -12.18261293 81.24902233 -5.23046875 71.48828125 C1.64887891 60.1930128 3.18783241 49.45063059 0.05078125 36.52734375 C-3.33416842 26.10986935 -9.97346132 18.27391089 -19.23046875 12.48828125 C-37.3747331 3.70965923 -57.52321393 6.34214595 -71.328125 21.84375 Z " fill="#0f0" transform="translate(203.23046875,297.51171875)"/>
<path d="M0 0 C1.43665555 1.03531228 2.85462061 2.09719405 4.25 3.1875 C4.86617188 3.66574219 5.48234375 4.14398438 6.1171875 4.63671875 C12.55909233 10.31991035 17.48405248 19.76428253 19.25 28.1875 C20.15299509 42.99069824 18.84768614 54.61981599 9.45703125 66.7109375 C1.07090583 76.12120921 -9.27069083 81.3739312 -21.75390625 82.4453125 C-33.95554762 82.88580497 -44.10314662 79.60034523 -53.75 72.1875 C-54.636875 71.589375 -55.52375 70.99125 -56.4375 70.375 C-64.00524578 63.21632156 -69.21726168 52.3751006 -69.98828125 41.97265625 C-70.28006565 27.3373651 -66.83888923 15.87273456 -56.68359375 4.96875 C-41.23439631 -9.84479173 -17.8385133 -11.1266981 0 0 Z M-40.95703125 19.40234375 C-45.86452561 24.2884547 -48.86883807 29.91248754 -49 36.875 C-48.88901288 43.81674003 -47.35214804 48.77163753 -42.625 53.9375 C-37.59693428 58.55360236 -32.06835972 61.34076483 -25.1875 61.625 C-18.79576584 61.29093724 -12.90891264 59.20553328 -8.13671875 54.8125 C-2.83144134 48.59561155 -0.93541556 42.11065243 -1.33984375 34.01171875 C-2.41858864 26.58378963 -6.07239787 22.24726926 -11.8046875 17.59375 C-21.10993722 10.86706346 -32.40744838 12.45687423 -40.95703125 19.40234375 Z " fill="#0f0" transform="translate(187.75,124.8125)"/>
<path d="M0 0 C8.96162756 7.06740599 15.05289391 16.16411156 17.1875 27.4375 C18.5146194 41.2201879 16.19305869 52.7895947 7.5078125 63.89453125 C-0.64483427 72.82950271 -10.299091 77.52023034 -22.29296875 78.8125 C-35.73698011 79.28997876 -46.80217305 75.45996574 -56.8125 66.4375 C-66.03148501 56.52709111 -69.29004096 45.22771102 -69.0625 31.90234375 C-68.29181719 21.22116166 -63.24445444 10.14968811 -55.171875 2.98046875 C-38.99874022 -10.00406019 -17.46558516 -11.71589528 0 0 Z M-44.40234375 23.4296875 C-47.86612942 28.36150422 -48.50210037 33.53140647 -47.8125 39.4375 C-46.43233301 45.9995667 -43.0344225 50.33378544 -37.8125 54.4375 C-32.27747049 57.67497009 -27.08412511 58.40020847 -20.8125 57.4375 C-13.70239692 55.26991335 -9.67784643 51.84286264 -5.87109375 45.5234375 C-3.12831475 40.11884716 -2.68670575 33.97396237 -4.53125 28.1796875 C-7.5931473 21.68550209 -12.04532043 17.18036063 -18.57421875 14.16796875 C-29.27826267 10.67467693 -37.70009732 15.15493223 -44.40234375 23.4296875 Z " fill="#0f0" transform="translate(403.8125,271.5625)"/>
<path d="M0 0 C9.04626824 6.86125926 17.96640946 15.40853395 20 27 C21.19458273 40.01009188 15.75600971 49.92801746 8 60 C-0.13243734 69.58809144 -9.71049323 79.06459029 -22.75 80.25 C-36.89897619 80.82750923 -47.24997517 73.54471574 -57.6875 64.73046875 C-65.13575426 57.73547997 -68.34506581 51.60136798 -68.6875 41.3125 C-68.64152911 28.66160768 -61.56748619 17.92511266 -53 9 C-37.53165637 -5.60462901 -18.82304371 -12.28425969 0 0 Z M-36.875 22.8125 C-42.28036876 27.82041517 -46.10723308 33.94196854 -47.6875 41.125 C-46.44277412 48.14072766 -40.20979076 51.58143388 -34.765625 55.68359375 C-31.84139145 57.68408685 -29.46771493 58.89281533 -26 59.6875 C-21.41971179 58.63785062 -18.4894593 56.05497409 -15 53 C-14.39929688 52.48179687 -13.79859375 51.96359375 -13.1796875 51.4296875 C-7.44081929 46.10257665 -1.43668138 39.29403362 -0.625 31.3125 C-3.63899761 24.05150577 -9.39728886 19.03499014 -16 15 C-23.39464725 12.51046876 -31.19145675 18.29611295 -36.875 22.8125 Z " fill="#0f0" transform="translate(474,110)"/>
<path d="M0 0 C1.30195313 -0.01546875 2.60390625 -0.0309375 3.9453125 -0.046875 C12.93788818 -0.01054136 20.18479028 1.03770419 27.5859375 6.359375 C28.47152344 7.29523437 28.47152344 7.29523437 29.375 8.25 C29.98085938 8.86359375 30.58671875 9.4771875 31.2109375 10.109375 C39.91106417 21.73487177 44.04807864 39.24670473 42 53.5 C39.64867588 61.20654248 34.79155366 67.75719093 27.76171875 71.78125 C19.4307257 75.70171732 11.30598488 75.68639836 2.22436523 75.68530273 C0.20339688 75.68748285 -1.81701898 75.70565832 -3.83789062 75.72460938 C-15.49788963 75.74198642 -25.20687338 74.98001657 -33.94921875 66.640625 C-40.91770308 59.10239038 -42.68200401 53.12105404 -42.48828125 42.89453125 C-41.44218713 30.10860904 -36.74407942 15.03742911 -27.109375 6.19140625 C-19.12781409 -0.20862315 -9.7984732 -0.1164175 0 0 Z M-15.109375 24.109375 C-19.26893781 31.56908682 -22.27269168 40.90933117 -21 49.5 C-18.79259319 52.46858157 -17.51402627 53.32865791 -14 54.5 C-9.37916564 54.76295488 -4.75250217 54.73147146 -0.125 54.75 C1.15503906 54.770625 2.43507813 54.79125 3.75390625 54.8125 C4.98753906 54.81765625 6.22117187 54.8228125 7.4921875 54.828125 C9.18384033 54.84214355 9.18384033 54.84214355 10.90966797 54.85644531 C15.32704177 54.34693625 17.8999222 52.6000778 21 49.5 C21.43340618 43.61077485 20.56369956 38.82898227 18.75 33.25 C18.54503906 32.55648437 18.34007812 31.86296875 18.12890625 31.1484375 C16.79313066 26.92252926 15.44876331 24.27892968 12 21.5 C8.06088093 20.66061957 4.0812902 20.8512061 0.0625 20.875 C-1.56461914 20.82666016 -1.56461914 20.82666016 -3.22460938 20.77734375 C-9.84997535 20.61850243 -9.84997535 20.61850243 -15.109375 24.109375 Z " fill="#0f0" transform="translate(384,6.5)"/>
<path d="M0 0 C7.30315071 6.08232552 11.4944033 12.50651901 12.55078125 22.0234375 C13.02743823 31.806475 11.49975106 40.08804885 5.3671875 47.9296875 C-0.21641968 53.90809519 -7.22311481 57.6719275 -15.3984375 58.453125 C-26.43416567 58.56856149 -34.86196078 57.05732493 -43.05859375 49.29296875 C-48.84233012 42.39459368 -52.27379598 34.1532502 -51.8828125 25.1171875 C-50.93203773 15.80810917 -47.80408184 8.18231617 -40.9453125 1.72265625 C-28.69637708 -7.81202644 -13.08800279 -8.54799098 0 0 Z M-27.8828125 19.1171875 C-30.12812457 22.90615162 -31.09175821 24.93316179 -30.3203125 29.3046875 C-28.48711565 32.89137699 -26.5093556 35.30391595 -22.8828125 37.1171875 C-17.88589603 37.49431327 -14.89213525 37.21009362 -10.8828125 34.1171875 C-8.19507273 30.08557785 -8.20865317 26.85294872 -8.8828125 22.1171875 C-11.1858324 18.10822693 -13.43725962 16.33971454 -17.8828125 15.1171875 C-22.73322342 15.1171875 -24.18913433 16.0522205 -27.8828125 19.1171875 Z " fill="#0f0" transform="translate(499.8828125,19.8828125)"/>
<path d="M0 0 C6.79693029 5.65179529 10.18669275 13.07208018 11.37890625 21.76171875 C11.76706462 30.53910641 9.34933956 38.51189421 3.8125 45.375 C-1.62728542 51.08442996 -8.23684979 54.63406529 -16.1015625 55.23828125 C-26.23074473 55.4516454 -34.75371273 54.05580171 -42.3984375 46.97265625 C-48.67155017 39.24601748 -51.9184511 29.91234021 -51 20 C-49.47676914 11.33575106 -45.62169559 4.38450323 -38.4609375 -0.859375 C-26.11011392 -8.51032766 -12.0509738 -8.47560958 0 0 Z M-29 20 C-30.30400002 23.83050005 -30.20871714 25.45733544 -28.75 29.25 C-27.12940334 32.20562722 -27.12940334 32.20562722 -24 34 C-18.11731284 34.6658237 -18.11731284 34.6658237 -13.0625 31.9375 C-10.56790906 28.38459775 -9.92384286 26.34095695 -10 22 C-12.22979668 17.74201624 -12.22979668 17.74201624 -16 15 C-22.26131491 14.38413296 -25.10091799 14.56491598 -29 20 Z " fill="#0f0" transform="translate(276,213)"/>
<path d="M0 0 C6.75918066 5.55754855 12.7898368 12.3130638 13.8125 21.3125 C14.49507382 30.76864469 12.86244058 38.79095225 6.8125 46.3125 C-0.29554203 53.39010074 -6.82337303 57.20351093 -16.9375 57.5625 C-25.47794648 57.46082802 -32.87259203 54.56245237 -39.00390625 48.5234375 C-45.52369833 41.4728064 -48.58184864 34.28991281 -48.3984375 24.55078125 C-47.5523271 15.57260974 -43.85155955 8.73583389 -37.37109375 2.58984375 C-26.08567203 -6.68928077 -12.55138702 -6.64485195 0 0 Z M-25.1875 20.3125 C-27.32741907 23.01065883 -27.18777114 24.30490811 -27.0625 27.8125 C-26.08222749 31.73359002 -25.53372409 33.08168394 -22.1875 35.3125 C-19.44151013 36.26686322 -17.08455744 36.62945254 -14.1875 36.3125 C-10.05162581 33.9061732 -8.51979596 32.40712198 -7.125 27.8125 C-7.19562894 23.85727949 -7.67285777 22.33007067 -10.1875 19.3125 C-16.0330107 14.9658382 -19.63671312 15.96840592 -25.1875 20.3125 Z " fill="#0f0" transform="translate(332.1875,373.6875)"/>
<path d="M0 0 C3.20613573 1.89993229 5.39902918 3.33474007 6.69921875 6.9375 C7.31497271 10.43339345 7.20710911 12.50947841 5.8125 15.8125 C2.83038672 19.41160223 1.33699707 20.85414577 -3.4375 21.375 C-7.22487861 20.97632857 -9.04719363 20.3622451 -12 18 C-14.56632517 14.57823311 -14.36435051 11.15359579 -14 7 C-12.74544028 4.17724064 -11.71615278 2.53711459 -9.25 0.6875 C-5.9260257 -0.32815881 -3.46313738 -0.41796486 0 0 Z " fill="#0f0" transform="translate(74,84)"/>
</svg>