<svg version="1.1" xmlns="http://www.w3.org/2000/svg" width="512px" height="512px" transform="rotate(0) scale(1, 1)">
<path d="M0 0 C0.93397287 -0.00445784 1.86794574 -0.00891569 2.83022082 -0.01350862 C3.85811736 -0.01332426 4.8860139 -0.01313989 5.94505882 -0.01294994 C7.58096664 -0.01846498 7.58096664 -0.01846498 9.24992311 -0.02409142 C12.92323924 -0.03514983 16.5965271 -0.03897577 20.26985741 -0.04278088 C22.89605868 -0.04904391 25.52225907 -0.05569057 28.14845848 -0.0626936 C36.04349685 -0.08245689 43.9385365 -0.09252456 51.83359343 -0.10142139 C55.55223109 -0.10580497 59.27086733 -0.11117164 62.98950386 -0.11641026 C75.35273569 -0.13342327 87.71596663 -0.1479168 100.07920837 -0.155159 C103.28761483 -0.15706887 106.49602129 -0.15898921 109.70442772 -0.16094494 C110.90056891 -0.16167055 110.90056891 -0.16167055 112.12087457 -0.16241082 C125.03476801 -0.1707087 137.94856874 -0.19604119 150.86242171 -0.22852562 C164.12325753 -0.26161064 177.38404626 -0.27960911 190.64492357 -0.28280324 C198.08939383 -0.28496713 205.53372894 -0.29369781 212.97815895 -0.31926441 C219.31917503 -0.34099126 225.66002316 -0.34901218 232.00107224 -0.33929763 C235.2346838 -0.33475841 238.46787728 -0.33880687 241.70145607 -0.35605907 C245.21263629 -0.37374292 248.72294053 -0.36668792 252.23412132 -0.35352612 C253.24863353 -0.36449536 254.26314574 -0.37546461 255.30840075 -0.38676625 C264.11426472 -0.30719524 271.33734261 2.30756115 277.9002285 8.29047108 C282.94699847 14.21603184 285.588923 21.40004585 285.60476208 29.11024857 C285.60921992 30.11834719 285.61367777 31.12644582 285.6182707 32.16509289 C285.61799415 33.8233896 285.61799415 33.8233896 285.61771202 35.51518726 C285.62138871 36.69114021 285.6250654 37.86709316 285.6288535 39.07868105 C285.63797168 42.34365016 285.6425881 45.60858972 285.64524281 48.87356937 C285.64914963 52.39442625 285.65872745 55.91526862 285.66745567 59.43611622 C285.68720547 67.93732129 285.69728267 76.43852753 285.70618346 84.93974981 C285.71056725 88.94231913 285.71593368 92.94488713 285.72117233 96.94745541 C285.73818022 110.25006651 285.75267611 123.55267679 285.75992107 136.85529709 C285.76183097 140.3062633 285.76375131 143.7572295 285.76570702 147.20819569 C285.76619076 148.06591918 285.7666745 148.92364268 285.7671729 149.8073578 C285.77547976 163.71326519 285.80082968 177.61908675 285.83328769 191.52495664 C285.86633231 205.79829578 285.88436732 220.07159125 285.88756531 234.34496886 C285.88973241 242.36050211 285.89851058 250.37591004 285.92402649 258.39140606 C285.94569773 265.21486808 285.95380149 272.03817432 285.94405971 278.86166685 C285.93950505 282.34386908 285.94146834 285.82574964 285.96082115 289.30790806 C285.97840397 293.08097051 285.97150022 296.85320956 285.95828819 300.62627125 C285.97474206 302.28122188 285.97474206 302.28122188 285.99152833 303.96960586 C285.9557893 308.17915252 285.77165695 311.40153107 284.16296101 315.3158884 C279.71149732 318.32219568 275.14962783 317.80343226 269.90407372 317.73549366 C268.11035123 317.74190185 268.11035123 317.74190185 266.28039193 317.74843949 C262.95962103 317.75525922 259.64031897 317.73960761 256.31972551 317.71454918 C252.73966709 317.69297829 249.1596549 317.7002622 245.57954979 317.70406055 C239.37639402 317.7066837 233.17350098 317.69098212 226.9704113 317.66287136 C218.00180599 317.62225445 209.03332787 317.60921602 200.06464055 317.6029314 C185.51399626 317.59198536 170.96349204 317.55870279 156.41292381 317.51141834 C142.27751428 317.46553075 128.14214278 317.43013494 114.00667381 317.40887928 C113.135522 317.40756566 112.26437018 317.40625205 111.36681983 317.40489862 C106.9965538 317.39837348 102.6262875 317.39205493 98.25602102 317.3858391 C61.99406995 317.33399641 25.73237792 317.24181609 -10.529459 317.13422108 C-10.529459 355.74422108 -10.529459 394.35422108 -10.529459 434.13422108 C81.870541 434.13422108 174.270541 434.13422108 269.470541 434.13422108 C269.470541 403.44422108 269.470541 372.75422108 269.470541 341.13422108 C273.470541 337.13422108 273.470541 337.13422108 275.470541 336.56781483 C276.130541 336.56910389 276.790541 336.57039295 277.470541 336.57172108 C278.460541 336.53884998 278.460541 336.53884998 279.470541 336.50531483 C282.60614855 337.49131642 283.6699105 339.45221134 285.470541 342.13422108 C285.97390556 344.9988699 285.97390556 344.9988699 285.97847557 348.20419788 C285.99539452 350.03336246 285.99539452 350.03336246 286.01265526 351.89947987 C286.00487853 353.24286604 285.99668588 354.58624986 285.98811913 355.92963123 C285.99354222 357.35093369 286.00066594 358.77223052 286.00935936 360.19351673 C286.02758364 364.04934853 286.02052649 367.90475181 286.00784302 371.76059103 C285.99769876 375.80469141 286.00711375 379.84875569 286.01338768 383.89285755 C286.02066496 390.69033843 286.01107959 397.48764551 285.99202538 404.28509998 C285.9703089 412.1223376 285.97726939 419.9591581 285.999331 427.79638541 C286.01754569 434.53888895 286.02001224 441.28126763 286.00957632 448.02378786 C286.00336781 452.04439861 286.00243126 456.06481413 286.01572227 460.08541203 C286.02736698 463.87276817 286.01909998 467.65959333 285.99614525 471.44689274 C285.98841982 473.48318491 286.00014391 475.51952251 286.01265526 477.5557909 C285.92105227 487.59670547 284.37327045 497.07673268 277.251791 504.63422108 C271.98059653 509.07312168 265.89199876 512.24929906 258.94946194 512.27402878 C258.01733916 512.27972002 257.08521639 512.28541126 256.12484747 512.29127496 C254.5860722 512.29304478 254.5860722 512.29304478 253.01621056 512.29485035 C251.38347778 512.30248208 251.38347778 512.30248208 249.7177605 512.31026798 C246.05145231 512.32602888 242.38516388 512.33452722 238.71883202 512.34296131 C236.09749793 512.35249698 233.47616511 512.36238802 230.8548336 512.37260914 C222.97313644 512.4018918 215.09142773 512.42108343 207.20969549 512.43800148 C204.98251057 512.44279746 202.75532614 512.44778069 200.52814174 512.45280671 C186.6912076 512.4837849 172.85426925 512.51046475 159.01731014 512.52722549 C155.81202309 512.53117488 152.60673611 512.53517788 149.4014492 512.53925037 C148.20648841 512.54076292 148.20648841 512.54076292 146.98738699 512.54230601 C134.09486877 512.55929698 121.20254303 512.60038771 108.31011868 512.65127336 C95.06622103 512.70311494 81.82242217 512.73217657 68.57842392 512.73942238 C61.14551516 512.74407704 53.7129213 512.7587476 46.28011322 512.79916668 C39.94681887 512.83356506 33.61389626 512.84736679 27.28051389 512.83474254 C24.05241324 512.82893773 20.82525793 512.83593542 17.59724236 512.86291218 C-7.94015419 513.0648627 -7.94015419 513.0648627 -16.529459 506.13422108 C-25.20908148 497.55030821 -26.83076989 488.2036499 -26.92630426 476.31120163 C-26.9308709 473.69392299 -26.92074173 471.0769197 -26.91040993 468.45966053 C-26.91386925 466.55249641 -26.91863565 464.6453343 -26.92459166 462.73817635 C-26.93709356 457.51249418 -26.93093489 452.28697677 -26.92163301 447.06129408 C-26.91483958 441.41976948 -26.92532521 435.77827303 -26.93357277 430.13675404 C-26.94690912 419.0909545 -26.94403277 408.04521613 -26.93533485 396.99941421 C-26.92855834 388.02185327 -26.92764144 379.04430947 -26.9309063 370.06674671 C-26.93136599 368.78877195 -26.93182569 367.51079718 -26.93229932 366.19409591 C-26.9332585 363.59787456 -26.93423114 361.00165321 -26.9352171 358.40543187 C-26.9435269 334.75734019 -26.93491087 311.10928789 -26.91918931 287.46120258 C-26.90495298 265.88311536 -26.90622688 244.30508127 -26.92057228 222.72699451 C-26.9366436 198.47186191 -26.94294674 174.21676689 -26.93373549 149.96162796 C-26.93277985 147.37498379 -26.93183674 144.78833962 -26.9309063 142.20169544 C-26.93044347 140.9290335 -26.92998064 139.65637155 -26.92950379 138.34514409 C-26.92691406 129.37888393 -26.93128455 120.41264262 -26.93834496 111.44638538 C-26.9467607 100.51878602 -26.94447819 89.5912513 -26.92850272 78.66365933 C-26.92062108 73.08878125 -26.91752671 67.51401092 -26.92745018 61.93913364 C-26.93639961 56.83423395 -26.93145995 51.72954176 -26.91551752 46.62466085 C-26.9121708 44.77957405 -26.91386133 42.93446967 -26.92114489 41.08939421 C-26.96615485 28.73847979 -26.79386773 18.00260604 -18.5685215 8.11468983 C-13.48895676 3.1810896 -7.10607118 0.01572784 0 0 Z M-6.341959 19.50922108 C-9.70206672 23.54135034 -10.79316716 26.11331113 -10.654459 31.38422108 C-10.63641212 32.27625233 -10.61836525 33.16828358 -10.5997715 34.08734608 C-10.57656837 34.76281483 -10.55336525 35.43828358 -10.529459 36.13422108 C-9.30839455 36.14356678 -8.08733009 36.15291248 -6.82926369 36.16254139 C-2.29650401 36.20243031 2.23557615 36.26818601 6.76790428 36.34174061 C8.72907847 36.36995661 10.69036651 36.39116802 12.65169334 36.40521717 C15.47211077 36.42663806 18.29115843 36.47328317 21.111166 36.52484608 C22.42543571 36.52668903 22.42543571 36.52668903 23.76625633 36.52856922 C29.85310024 36.67484233 29.85310024 36.67484233 33.03597069 39.04291248 C34.68645175 41.44897456 34.90413551 42.40833718 34.470541 45.25922108 C34.388041 45.9424242 34.305541 46.62562733 34.220541 47.32953358 C33.470541 49.13422108 33.470541 49.13422108 31.98128319 50.22113514 C28.20826071 51.59327672 24.53567741 51.49295799 20.548666 51.54828358 C19.68868004 51.56764973 18.82869408 51.58701588 17.94264793 51.60696888 C15.20204579 51.66663921 12.46140136 51.71309968 9.720541 51.75922108 C7.85984583 51.79741242 5.99916812 51.83646483 4.13850975 51.87640858 C-0.4173878 51.97394786 -4.9731045 52.05361518 -9.529459 52.13422108 C-11.15310955 91.10183417 -10.529459 130.1327966 -10.529459 169.13422108 C81.870541 169.13422108 174.270541 169.13422108 269.470541 169.13422108 C269.470541 130.52422108 269.470541 91.91422108 269.470541 52.13422108 C246.90936913 52.04334217 246.90936913 52.04334217 223.892416 51.95062733 C214.38590284 51.91015105 204.87939181 51.86942752 195.37288475 51.82758045 C180.27084441 51.76114849 165.16880448 51.69575026 150.06673241 51.63690662 C139.06939822 51.59405202 128.07208477 51.54777076 117.07478261 51.49734253 C111.24966474 51.47075191 105.42455095 51.44589904 99.5994091 51.42514706 C94.11987233 51.40557221 88.64037497 51.3814258 83.16087341 51.3537302 C81.14686422 51.34436428 79.13284638 51.33668735 77.11882401 51.33080196 C74.37450841 51.32253304 71.63028827 51.30825404 68.88600731 51.29243946 C68.08445048 51.29146135 67.28289365 51.29048325 66.45704722 51.2894755 C62.95922424 51.26345812 59.83643878 51.07108049 56.470541 50.13422108 C56.19305858 48.72268009 55.94960584 47.30442308 55.720541 45.88422108 C55.51171288 44.7008617 55.51171288 44.7008617 55.298666 43.49359608 C55.470541 41.13422108 55.470541 41.13422108 56.9529438 39.01919651 C60.47713541 36.38056369 63.69177719 36.57446233 67.92397118 36.61523914 C69.21541672 36.60398727 69.21541672 36.60398727 70.53295207 36.59250808 C73.42287365 36.57218031 76.31201445 36.58034353 79.20198631 36.58832264 C81.27152345 36.5795904 83.34105383 36.56910585 85.41057396 36.55699635 C91.03417814 36.5290731 96.65756271 36.52573306 102.28122616 36.52671623 C108.15629146 36.52359257 114.03125706 36.49798578 119.90627098 36.47473621 C131.03383335 36.43413076 142.16133706 36.4138248 153.28896213 36.40076232 C165.95633942 36.38490768 178.62361665 36.34649852 191.29093599 36.30616903 C217.35077077 36.22370786 243.41060286 36.16965459 269.470541 36.13422108 C269.51641254 34.54985964 269.54897426 32.96510959 269.57600975 31.38031483 C269.59558739 30.49787098 269.61516502 29.61542713 269.63533592 28.70624256 C269.36833132 24.53899293 267.98261524 22.4610221 265.470541 19.13422108 C259.41176207 14.4736219 252.64722753 14.98875056 245.34947777 15.00050831 C243.80689523 14.99710997 243.80689523 14.99710997 242.23314941 14.99364299 C238.78248341 14.98730595 235.33185671 14.98813216 231.88118553 14.98895741 C229.40907808 14.98596575 226.9369711 14.9825632 224.46486473 14.97877979 C218.44398804 14.97085544 212.42312684 14.96772519 206.40224637 14.96716741 C201.5077824 14.96669204 196.61332166 14.96463621 191.71885872 14.96146679 C177.83880031 14.95266179 163.95874962 14.9480472 150.0786884 14.94879726 C149.33063159 14.94883722 148.58257479 14.94887718 147.81184959 14.94891834 C147.06287835 14.94895922 146.31390711 14.9490001 145.54223977 14.94904222 C133.40313659 14.94944871 121.26406442 14.9398782 109.12497021 14.92577998 C96.65734909 14.91141457 84.1897431 14.90450987 71.72211349 14.90537375 C64.72379488 14.90570565 57.7255088 14.90296157 50.72719765 14.8921957 C44.14611249 14.88213645 37.56508429 14.88242774 30.98399162 14.88971233 C28.56809069 14.89075957 26.15218551 14.88838709 23.73629189 14.88235188 C20.43930388 14.87464878 17.14255429 14.87926579 13.84557152 14.88698292 C12.4104938 14.87926757 12.4104938 14.87926757 10.9464246 14.87139636 C4.38415436 14.9053556 -1.13791096 15.11469162 -6.341959 19.50922108 Z M-10.529459 185.13422108 C-10.529459 223.41422108 -10.529459 261.69422108 -10.529459 301.13422108 C81.870541 301.13422108 174.270541 301.13422108 269.470541 301.13422108 C269.470541 262.85422108 269.470541 224.57422108 269.470541 185.13422108 C177.070541 185.13422108 84.670541 185.13422108 -10.529459 185.13422108 Z M-10.529459 450.13422108 C-13.50629263 482.26847185 -13.50629263 482.26847185 -6.529459 493.13422108 C-0.47593196 497.79078034 6.28603024 497.28124599 13.57814598 497.27466297 C14.60512321 497.27763409 15.63210043 497.28060522 16.69019818 497.28366637 C20.13619308 497.29234754 23.58215322 497.29386113 27.02815819 497.29535389 C29.49702084 497.29998245 31.96588278 497.30500716 34.43474388 497.31039906 C41.1455832 497.32352088 47.85640892 497.33000437 54.56725788 497.33440971 C58.75962195 497.33717491 62.95198372 497.34141276 67.14434624 497.34591389 C78.75791212 497.35810409 90.37147616 497.36840404 101.98504829 497.37178898 C102.72794667 497.37200854 103.47084504 497.37222811 104.23625548 497.37245433 C104.98090274 497.37267261 105.72555 497.37289089 106.49276233 497.37311578 C108.00163126 497.37355924 109.51050019 497.3740058 111.01936913 497.37445545 C111.76781575 497.37467688 112.51626237 497.37489831 113.28738919 497.37512645 C125.41222264 497.37907365 137.53699597 497.3965264 149.6618062 497.41981497 C162.11813703 497.44354669 174.57443772 497.45599165 187.03079152 497.4571569 C194.02136909 497.45807261 201.0118683 497.4637988 208.00242424 497.48197651 C214.57860699 497.49901682 221.15466744 497.50061652 227.73087502 497.4918375 C230.14271378 497.49106671 232.55456052 497.49541532 234.96637917 497.50529575 C238.26276353 497.5180066 241.55862058 497.51214268 244.85500145 497.50171375 C245.80589425 497.50977016 246.75678705 497.51782656 247.73649478 497.5261271 C254.81119119 497.47389939 261.78468619 496.82007589 266.970541 491.63422108 C274.44398094 479.17848785 269.470541 465.53579066 269.470541 450.13422108 C177.070541 450.13422108 84.670541 450.13422108 -10.529459 450.13422108 Z " fill="#00ff00" transform="translate(58.52945899963379,-0.13422107696533203)"/>
<path d="M0 0 C6.90022132 3.84820035 9.70281384 6.82733825 12.5859375 14.1171875 C14.00538094 19.87845794 13.30419691 24.57563195 11.25 30.0625 C10.58097656 31.86267578 10.58097656 31.86267578 9.8984375 33.69921875 C8.70027154 36.75355984 7.41546263 39.7632769 6.1015625 42.76953125 C5.73417969 43.61547852 5.36679687 44.46142578 4.98828125 45.33300781 C4.25665688 47.00355012 3.51220163 48.66854242 2.75390625 50.32714844 C2.24537109 51.4819873 2.24537109 51.4819873 1.7265625 52.66015625 C1.41799316 53.34086182 1.10942383 54.02156738 0.79150391 54.72290039 C-0.41993325 59.39769327 1.8852374 63.60544179 3.71875 67.85546875 C4.20730469 69.01240234 4.69585937 70.16933594 5.19921875 71.36132812 C6.22603278 73.77059076 7.25979882 76.17690333 8.30078125 78.58007812 C12.11230877 87.6563409 15.14381931 96.13509949 11.3828125 105.70703125 C8.52355751 111.02130174 4.55399102 114.60566636 -1.0625 116.8125 C-10.99650254 119.42934295 -18.25562853 115.923022 -26.9375 111.32421875 C-32.6421019 108.30492411 -38.48089597 105.5758219 -44.3125 102.8125 C-52.40884178 98.95145473 -60.39311908 94.96943967 -68.26953125 90.6796875 C-72.14248951 88.60193885 -76.06182848 86.63766556 -80 84.6875 C-81.97494876 83.70216455 -83.94897314 82.71501549 -85.92236328 81.7265625 C-87.62214601 80.87644407 -89.32463846 80.03174958 -91.02734375 79.1875 C-97.66608209 75.76565366 -101.83014788 72.92646883 -105.0625 66 C-106.59682198 58.88632534 -106.4211086 52.22373524 -102.75 45.8125 C-96.20426775 37.9531476 -85.97358944 34.0363518 -77.01171875 29.6328125 C-75.28106443 28.7718191 -73.55091367 27.90981284 -71.82124329 27.04684448 C-67.29204041 24.7908125 -62.75564782 22.54962091 -58.2177124 20.31121826 C-54.50544919 18.47696856 -50.7984699 16.63218803 -47.09170818 14.78685188 C-42.67091248 12.58624411 -38.24794189 10.39002862 -33.82421875 8.1953125 C-32.98065008 7.77674107 -32.13708141 7.35816963 -31.26795006 6.92691422 C-28.88771072 5.7472699 -26.50603912 4.57057718 -24.1237793 3.39501953 C-23.41777588 3.04493332 -22.71177246 2.69484711 -21.984375 2.33415222 C-14.4669158 -1.36638548 -8.12687266 -2.57350968 0 0 Z M-18.13305664 18.25317383 C-18.87009323 18.61899063 -19.60712982 18.98480743 -20.36650085 19.36170959 C-22.80175203 20.57308169 -25.23100787 21.79597292 -27.66015625 23.01953125 C-29.35092831 23.86483981 -31.04196708 24.70961507 -32.73326111 25.55387878 C-36.27729533 27.32520344 -39.8184729 29.1020797 -43.35766602 30.88305664 C-47.89477813 33.16580039 -52.43800273 35.43605024 -56.98334599 37.70235157 C-60.47627806 39.44534017 -63.96623728 41.19421233 -67.45528984 42.94495201 C-69.12941143 43.78427127 -70.8043726 44.621918 -72.48018074 45.45786476 C-74.82189733 46.6272681 -77.15958433 47.80436 -79.49633789 48.98364258 C-80.53671707 49.50045593 -80.53671707 49.50045593 -81.59811401 50.02770996 C-86.18063948 52.28083068 -86.18063948 52.28083068 -89.75 55.8125 C-90.11720824 58.81960212 -90.11720824 58.81960212 -88.75 61.8125 C-86.17882743 63.61378687 -83.92839135 64.8823384 -81.1171875 66.203125 C-79.37197117 67.07076415 -77.62686156 67.93861799 -75.88183594 68.80664062 C-74.9087146 69.28109619 -73.93559326 69.75555176 -72.9329834 70.24438477 C-69.48240331 71.94433306 -66.05941457 73.69446233 -62.64160156 75.45898438 C-56.76794123 78.4891832 -50.88058109 81.49081369 -44.98134232 84.47090912 C-41.55508942 86.20236459 -38.13277143 87.94079522 -34.71826172 89.6953125 C-31.35853736 91.42145338 -27.99039363 93.1299497 -24.6154747 94.8261795 C-23.34368712 95.46910356 -22.07501082 96.11822252 -20.80966568 96.77373505 C-19.05629537 97.68064607 -17.29034123 98.56310299 -15.52392578 99.44433594 C-14.52644318 99.95156189 -13.52896057 100.45878784 -12.50125122 100.98138428 C-9.75751332 102.07055559 -9.75751332 102.07055559 -6.98249817 101.0947113 C-4.61700918 99.94759779 -4.61700918 99.94759779 -3.25610352 97.6652832 C-2.53673734 93.61038993 -3.98650437 90.77800897 -5.65234375 87.16796875 C-5.96828995 86.43935135 -6.28423615 85.71073395 -6.60975647 84.96003723 C-7.95828083 81.85074595 -9.34655724 78.75974485 -10.73413086 75.66772461 C-11.74317042 73.40342738 -12.72939855 71.13011145 -13.71484375 68.85546875 C-14.19134621 67.82536934 -14.19134621 67.82536934 -14.67747498 66.77445984 C-17.47302333 60.30304588 -16.78203507 55.67945457 -14.42724609 49.13793945 C-13.88563918 47.89629364 -13.3340062 46.65898241 -12.7734375 45.42578125 C-12.17958434 44.06189387 -11.58583741 42.69796023 -10.9921875 41.33398438 C-10.05665417 39.21917628 -9.11670257 37.10641809 -8.17382812 34.99487305 C-7.25837897 32.93487454 -6.35911218 30.86835691 -5.4609375 28.80078125 C-5.17455414 28.17359695 -4.88817078 27.54641266 -4.59310913 26.90022278 C-2.98277703 23.17720888 -2.24201824 20.66322381 -3.75 16.8125 C-9.18471502 13.18935665 -12.89235771 15.59619213 -18.13305664 18.25317383 Z " fill="#00ff00" transform="translate(466.75,185.1875)"/>
<path d="M0 0 C7.19126859 6.67600636 12.23756088 14.73929907 14.5078125 24.328125 C14.6015625 27.1484375 14.6015625 27.1484375 14.5078125 29.328125 C15.17167969 29.28171875 15.83554688 29.2353125 16.51953125 29.1875 C20.82509466 29.01150617 23.70448098 28.90186746 27.5703125 30.953125 C29.96232272 33.88526657 30.5078125 35.54830072 30.5078125 39.328125 C28.37737772 43.89334239 28.37737772 43.89334239 25.5078125 45.328125 C23.63401645 45.39846269 21.75780148 45.4124272 19.8828125 45.390625 C18.87992187 45.38160156 17.87703125 45.37257812 16.84375 45.36328125 C16.07289063 45.35167969 15.30203125 45.34007812 14.5078125 45.328125 C14.53399658 45.88161621 14.56018066 46.43510742 14.5871582 47.00537109 C15.48017084 68.73157719 15.48017084 68.73157719 7.86328125 77.14453125 C0.92019442 83.64877738 -5.94111856 84.78974228 -15.140625 84.76171875 C-16.15258942 84.7669606 -17.16455383 84.77220245 -18.20718384 84.77760315 C-20.3402617 84.78400425 -22.47337495 84.78271123 -24.60644531 84.77416992 C-27.85025676 84.76566937 -31.09230007 84.79443422 -34.3359375 84.82617188 C-36.41666614 84.82778447 -38.49739787 84.82720524 -40.578125 84.82421875 C-41.53778168 84.83545273 -42.49743835 84.84668671 -43.48617554 84.85826111 C-51.2582086 84.77881366 -58.66070285 82.88997535 -64.3046875 77.203125 C-72.76036291 67.82322461 -71.95813582 57.20980708 -71.4921875 45.328125 C-72.23984375 45.37453125 -72.9875 45.4209375 -73.7578125 45.46875 C-81.71757133 45.76046891 -81.71757133 45.76046891 -85.1796875 43.828125 C-87.05367185 40.258631 -87.38807306 37.26679306 -86.4921875 33.328125 C-84.6171875 30.828125 -84.6171875 30.828125 -81.4921875 29.328125 C-78.12962932 29.0201044 -74.8574842 29.09288096 -71.4921875 29.328125 C-71.41742188 28.66167969 -71.34265625 27.99523437 -71.265625 27.30859375 C-69.55492779 15.31694172 -64.05715776 5.83407112 -54.4921875 -1.671875 C-36.91650211 -12.46274377 -16.74705368 -13.18281194 0 0 Z M-50.4921875 17.328125 C-53.00082018 21.20708015 -54.37222656 24.84828124 -55.4921875 29.328125 C-37.6721875 29.328125 -19.8521875 29.328125 -1.4921875 29.328125 C-4.97648424 18.87523477 -7.57253941 13.29531129 -17.34375 8.23828125 C-29.77767748 2.97081743 -41.8349819 7.63283819 -50.4921875 17.328125 Z M-55.4921875 45.328125 C-56.77842689 59.156218 -56.77842689 59.156218 -52.4921875 65.328125 C-46.41202628 70.81988352 -38.54914257 69.5142783 -30.84814453 69.51342773 C-28.63163959 69.51561077 -26.41563552 69.53377591 -24.19921875 69.55273438 C-22.77864752 69.55566948 -21.35807395 69.55765349 -19.9375 69.55859375 C-18.65375488 69.56270264 -17.37000977 69.56681152 -16.04736328 69.57104492 C-8.8707123 69.08067494 -6.76222255 67.59816005 -1.4921875 62.328125 C-1.4921875 56.718125 -1.4921875 51.108125 -1.4921875 45.328125 C-19.3121875 45.328125 -37.1321875 45.328125 -55.4921875 45.328125 Z " fill="#00ff00" transform="translate(151.4921875,205.671875)"/>
<path d="M0 0 C15.46196376 10.54224802 23.00833236 36.54999681 28.1875 53.5 C28.43459717 54.30469727 28.68169434 55.10939453 28.9362793 55.93847656 C31.10601814 63.38597946 33.03632343 70.70214038 29.83984375 78.08203125 C27.43470737 82.03886852 24.14342672 84.41052443 19.75 85.875 C16.99809313 85.98677851 14.27085076 86.0426722 11.51831055 86.05200195 C10.67894958 86.05857315 9.83958862 86.06514435 8.97479248 86.07191467 C6.19543366 86.09163487 3.41612882 86.103307 0.63671875 86.11328125 C-0.31287405 86.11735678 -1.26246685 86.1214323 -2.24083519 86.12563133 C-7.26626747 86.14648593 -12.29167249 86.16079069 -17.31713867 86.17016602 C-22.50577711 86.18123332 -27.69398703 86.21563872 -32.88247395 86.25533772 C-36.87422988 86.28148908 -40.86588344 86.2898565 -44.85771751 86.29344749 C-46.77026452 86.29831673 -48.68280686 86.30994032 -50.59527016 86.32848549 C-53.27390095 86.35284706 -55.95141917 86.35191756 -58.63012695 86.3449707 C-59.41735641 86.35778076 -60.20458588 86.37059082 -61.01567078 86.38378906 C-66.21301073 86.33475084 -69.10604177 85.26977325 -73.25 81.875 C-76.75005395 77.90196579 -78.4089498 75.4647779 -78.5625 70.1875 C-78.59988281 69.35863281 -78.63726562 68.52976562 -78.67578125 67.67578125 C-77.69194098 61.20409797 -73.25992781 56.44195715 -68.75048828 51.98730469 C-68.21334198 51.44490143 -67.67619568 50.90249817 -67.12277222 50.34365845 C-65.36270461 48.57049351 -63.59201854 46.80840529 -61.8203125 45.046875 C-60.58443106 43.80897017 -59.34899503 42.57062051 -58.11398315 41.33184814 C-55.5315182 38.74497398 -52.94374026 36.16356892 -50.35205078 33.5859375 C-47.03763674 30.28863221 -43.73689856 26.978016 -40.44001961 23.66318893 C-37.89406051 21.10636947 -35.34097475 18.55676266 -32.78570175 16.00925446 C-31.56592741 14.79147495 -30.34835992 13.57148066 -29.13309097 12.34920502 C-27.43199997 10.64046062 -25.72152598 8.94168404 -24.00830078 7.24511719 C-23.51251526 6.74325897 -23.01672974 6.24140076 -22.50592041 5.72433472 C-15.78309998 -0.87841748 -8.92180695 -3.08831779 0 0 Z M-13.875 20.0625 C-14.40351563 20.54525391 -14.93203125 21.02800781 -15.4765625 21.52539062 C-18.4504701 24.35323705 -18.4504701 24.35323705 -19.34375 28.203125 C-17.77363324 32.03869594 -15.97931371 35.73229313 -14.125 39.4375 C-9.29771167 49.30880412 -5.66803358 59.44505187 -2.25 69.875 C3.69 69.875 9.63 69.875 15.75 69.875 C10.90179432 50.48217729 4.16406577 31.47727748 -7.25 14.875 C-9.64198778 14.875 -12.16131964 18.41032549 -13.875 20.0625 Z M-32.25 38.875 C-36.52562353 43.12598563 -40.79801403 47.38018377 -45.06738281 51.63745117 C-46.52156604 53.08659193 -47.97664362 54.53483578 -49.43261719 55.98217773 C-51.51991322 58.05740437 -53.60401792 60.13578891 -55.6875 62.21484375 C-56.34371338 62.86589584 -56.99992676 63.51694794 -57.67602539 64.18772888 C-59.2197789 65.73128826 -60.73782671 67.30048978 -62.25 68.875 C-62.25 69.205 -62.25 69.535 -62.25 69.875 C-48.06 69.875 -33.87 69.875 -19.25 69.875 C-19.97858515 65.50348908 -20.54331007 62.72656028 -22.2109375 58.8359375 C-22.60023437 57.92585938 -22.98953125 57.01578125 -23.390625 56.078125 C-23.79796875 55.14484375 -24.2053125 54.2115625 -24.625 53.25 C-25.02460937 52.30898437 -25.42421875 51.36796875 -25.8359375 50.3984375 C-27.65806617 46.1787711 -29.36403426 42.48375156 -32.25 38.875 Z " fill="#00ff00" transform="translate(145.25,65.125)"/>
<path d="M0 0 C0.83281998 -0.0049649 1.66563995 -0.00992981 2.5236969 -0.01504517 C5.28021061 -0.02965706 8.03666681 -0.03646646 10.79321289 -0.04199219 C12.70748395 -0.04774356 14.62175498 -0.0535013 16.536026 -0.05926514 C20.55006173 -0.06977175 24.56407745 -0.07561693 28.578125 -0.07910156 C33.72428467 -0.08459167 38.87018047 -0.10863214 44.01625729 -0.13707352 C47.97018715 -0.15568444 51.92405318 -0.16090463 55.87802315 -0.16243744 C57.77546192 -0.16546699 59.67289948 -0.17350566 61.57029533 -0.18662262 C64.22285018 -0.20365408 66.8747566 -0.20181029 69.52734375 -0.1953125 C70.31241302 -0.20452728 71.0974823 -0.21374207 71.90634155 -0.22323608 C75.10323945 -0.19867139 77.44286133 -0.04341271 80.29249573 1.46856689 C82.72353186 4.14762161 82.70455156 6.63233169 82.82836914 10.16113281 C82.0565932 12.75710644 81.4339244 13.75307279 79.19946289 15.25878906 C75.9254485 16.50474841 73.06837346 16.35076252 69.57836914 16.28613281 C68.31508789 16.26808594 67.05180664 16.25003906 65.75024414 16.23144531 C64.78602539 16.20824219 63.82180664 16.18503906 62.82836914 16.16113281 C62.87477539 17.39347656 62.92118164 18.62582031 62.96899414 19.89550781 C63.28567925 31.98334164 62.39487439 41.66225049 55.82836914 52.16113281 C56.49223633 52.1753125 57.15610352 52.18949219 57.84008789 52.20410156 C62.40175206 52.45049802 65.13975621 52.67910376 68.95336914 55.34863281 C70.82836914 58.16113281 70.82836914 58.16113281 71.45336914 61.16113281 C70.59566627 65.27810657 69.12669394 66.57709523 65.82836914 69.16113281 C62.75433743 69.65045668 60.23878682 69.83672992 57.17016602 69.79223633 C56.30939957 69.79939163 55.44863312 69.80654694 54.56178284 69.81391907 C51.72301792 69.83079607 48.88583449 69.81140971 46.04711914 69.79003906 C44.07084014 69.79086785 42.09456121 69.79332762 40.11828613 69.79734802 C35.97895528 69.80020534 31.84016572 69.78551112 27.70092773 69.75805664 C22.39779208 69.72397414 17.0956243 69.72999278 11.79244232 69.74871922 C7.7123001 69.75929295 3.63238268 69.75034795 -0.44773865 69.7353344 C-2.40294222 69.73015488 -4.3581693 69.73063159 -6.31336975 69.73687935 C-9.04723509 69.74233603 -11.77971976 69.72194227 -14.51342773 69.69458008 C-15.31981186 69.70110596 -16.12619598 69.70763184 -16.95701599 69.71435547 C-20.73949952 69.65005409 -22.94851873 69.30307477 -26.17126465 67.25279236 C-28.31758717 65.0085153 -28.85622002 64.21209775 -28.79663086 61.16113281 C-28.5687983 58.10248075 -28.23740215 57.24663549 -26.29663086 54.72363281 C-21.99690294 52.57376885 -17.92735013 52.34582094 -13.17163086 52.16113281 C-13.58155273 51.41089844 -13.99147461 50.66066406 -14.41381836 49.88769531 C-20.70891134 37.93003066 -23.04816404 26.1985598 -20.74194336 12.63378906 C-19.11177866 7.39109888 -15.64092672 4.09664759 -11.17163086 1.16113281 C-7.41741752 -0.09027163 -3.91123762 0.00555488 0 0 Z M-5.17163086 17.16113281 C-6.0670647 27.61360086 -4.70984503 37.09706331 2.01586914 45.40332031 C7.21634426 50.44688454 13.7500589 53.22111825 20.95336914 53.47363281 C28.13745819 53.35547345 34.41006927 50.83713483 39.70336914 45.97363281 C45.74726879 39.15817151 47.07814309 33.26287424 46.92602539 24.34082031 C46.91897583 23.55312256 46.91192627 22.7654248 46.90466309 21.95385742 C46.88636334 20.02286846 46.8583429 18.09197584 46.82836914 16.16113281 C39.58350363 16.13586542 32.3386494 16.11830101 25.09375 16.10620117 C22.62694881 16.10115925 20.16015062 16.09432591 17.69335938 16.08569336 C14.15632385 16.07362157 10.61932769 16.06790325 7.08227539 16.06347656 C5.97187393 16.05831528 4.86147247 16.05315399 3.71742249 16.0478363 C2.69643967 16.04776077 1.67545685 16.04768524 0.62353516 16.04760742 C-0.73214821 16.0442765 -0.73214821 16.0442765 -2.11521912 16.0408783 C-4.16416667 15.93212819 -4.16416667 15.93212819 -5.17163086 17.16113281 Z " fill="#00ff00" transform="translate(102.171630859375,345.8388671875)"/>
<path d="M0 0 C1.56123999 -0.00202441 3.12247905 -0.00493889 4.68371582 -0.00869751 C7.94499779 -0.01310364 11.20603213 -0.00674538 14.46728516 0.00732422 C18.6298723 0.02441527 22.79187899 0.01456485 26.95444489 -0.00339317 C30.17511298 -0.01427755 33.39564538 -0.01076345 36.61631775 -0.0030098 C38.15038625 -0.00102062 39.68446742 -0.00342156 41.21852112 -0.01044846 C58.83999725 -0.07346823 58.83999725 -0.07346823 65.71875 5.7109375 C70.96232268 11.97409376 73.41038666 16.76412647 73.31640625 24.88671875 C72.5152129 30.67511562 69.62985778 35.69361636 65.59375 39.8359375 C59.75958392 43.3086554 55.40670734 44.77369886 48.58398438 44.78662109 C47.88219559 44.79187805 47.1804068 44.79713501 46.45735168 44.80255127 C44.15883515 44.81565557 41.86102245 44.80704785 39.5625 44.796875 C37.95259469 44.7988985 36.34269028 44.80181223 34.73278809 44.80557251 C31.36717965 44.80998289 28.00181092 44.80360651 24.63623047 44.78955078 C20.33563911 44.77245951 16.03560954 44.78230763 11.73503876 44.80026817 C8.41318578 44.81114095 5.09146463 44.80764371 1.76960754 44.7998848 C0.18447299 44.79789243 -1.40067378 44.80030799 -2.98579407 44.80732346 C-5.20634381 44.81499593 -7.42600064 44.80325429 -9.64648438 44.78662109 C-10.90666382 44.78423431 -12.16684326 44.78184753 -13.46520996 44.77938843 C-20.6087753 44.01625963 -26.21011179 40.65559596 -31.03125 35.3984375 C-34.72707068 29.4374364 -34.84665348 23.28813885 -34.03125 16.3984375 C-32.31799924 10.51337274 -29.12648932 6.82792551 -24.03125 3.3984375 C-16.32954059 -0.47943662 -8.42297062 -0.0385823 0 0 Z M-18.03125 20.3984375 C-18.69810938 22.94170858 -18.69810938 22.94170858 -18.03125 25.3984375 C-14.74156117 28.69756274 -12.03222679 28.78150306 -7.49023438 28.80249023 C-6.84258621 28.80935349 -6.19493805 28.81621674 -5.52766418 28.82328796 C-3.39321792 28.841545 -1.25950736 28.8377209 0.875 28.83203125 C2.36185953 28.83659323 3.84871694 28.84189885 5.33557129 28.84791565 C8.44922461 28.85684425 11.5626214 28.85442622 14.67626953 28.84448242 C18.66462239 28.83298568 22.65209079 28.85321516 26.64032745 28.88239956 C29.70987563 28.90075198 32.77921139 28.90047123 35.84880066 28.89476204 C37.31920107 28.89460874 38.7896158 28.90066006 40.25996399 28.91305351 C42.31645107 28.92794713 44.37129833 28.91730224 46.42773438 28.90014648 C47.59703491 28.89998032 48.76633545 28.89981415 49.97106934 28.89964294 C53.5859927 28.29523591 54.79681354 27.30420439 56.96875 24.3984375 C57.13085219 21.79195245 57.13085219 21.79195245 55.96875 19.3984375 C52.65883644 16.15301661 50.05790774 16.01567875 45.51953125 15.99438477 C44.21137451 15.98170059 42.90321777 15.96901642 41.55541992 15.95594788 C40.13069501 15.95799923 38.70597117 15.96098719 37.28125 15.96484375 C35.81681069 15.96028166 34.35237351 15.95497601 32.88793945 15.94895935 C29.82136324 15.9400312 26.7550475 15.94244826 23.68847656 15.95239258 C19.76065273 15.96388934 15.83372697 15.94365967 11.90602112 15.91447544 C8.88279522 15.89612197 5.85978496 15.89640397 2.83651733 15.90211296 C1.38844542 15.90226624 -0.05964104 15.89621599 -1.50765991 15.88382149 C-3.53240017 15.86893035 -5.55728829 15.88220884 -7.58203125 15.89672852 C-8.73356689 15.89689468 -9.88510254 15.89706085 -11.0715332 15.89723206 C-14.66505137 16.50576692 -15.8424604 17.53664597 -18.03125 20.3984375 Z " fill="#00ff00" transform="translate(237.03125,219.6015625)"/>
<path d="M0 0 C1.07909637 -0.01007584 1.07909637 -0.01007584 2.17999268 -0.02035522 C4.54934673 -0.03929377 6.91841683 -0.04325745 9.2878418 -0.04541016 C10.94305028 -0.05184155 12.59825762 -0.05857017 14.25346375 -0.06558228 C17.72092319 -0.07754509 21.1882831 -0.08126419 24.65576172 -0.08007812 C29.08417732 -0.07987513 33.51194982 -0.10716157 37.9402132 -0.14162254 C41.35903312 -0.16393641 44.77769944 -0.16791428 48.1965847 -0.16685867 C49.82836305 -0.16920848 51.46014602 -0.17799691 53.09185219 -0.19352341 C70.19705094 -0.34103483 70.19705094 -0.34103483 77.69799805 6.00146484 C82.87026029 12.36962587 84.50955194 18.12152822 83.67456055 26.29052734 C82.56413415 32.69961885 79.1045143 36.3164673 74.41674805 40.62646484 C66.51446185 45.42186929 56.81080288 44.58620317 47.89331055 44.55615234 C46.47041762 44.55750288 45.04752515 44.55944664 43.62463379 44.56195068 C40.65604214 44.56488368 37.68757161 44.56066354 34.71899414 44.55126953 C30.93665675 44.53987603 27.15460332 44.54644535 23.37227631 44.55841446 C20.4381094 44.56568266 17.5040085 44.56332251 14.56983948 44.55815887 C13.17615219 44.55683606 11.78245868 44.55842145 10.38877869 44.56311798 C-9.35018647 44.61505751 -9.35018647 44.61505751 -16.8215332 38.79052734 C-19.3599567 36.25869715 -20.74970818 33.50259493 -22.32543945 30.29052734 C-22.65543945 29.63052734 -22.98543945 28.97052734 -23.32543945 28.29052734 C-24.0202988 20.88628839 -23.96035784 14.36199939 -19.32543945 8.29052734 C-13.55606264 2.16569129 -8.47471806 0.04980813 0 0 Z M-6.23680115 17.59312439 C-7.6519276 19.45436194 -7.6519276 19.45436194 -7.26293945 22.85302734 C-6.71776109 26.27434653 -6.71776109 26.27434653 -4.65745544 27.48820496 C-1.69985507 28.50575758 0.79441198 28.55222883 3.92431641 28.56518555 C5.18920395 28.57471756 6.45409149 28.58424957 7.75730896 28.59407043 C9.13467436 28.593809 10.51203976 28.5928719 11.8894043 28.59130859 C13.3066063 28.5951974 14.72380713 28.59953245 16.14100647 28.60429382 C19.10917949 28.61174875 22.07723355 28.61147008 25.04541016 28.60620117 C28.84294991 28.60040744 32.64000179 28.6173382 36.4374609 28.64054585 C39.36376273 28.65530107 42.28994754 28.65615248 45.21627998 28.65303612 C46.6160739 28.65354843 48.01587452 28.65876938 49.41563225 28.66884804 C51.37552014 28.68122834 53.33550681 28.67246912 55.29541016 28.6628418 C56.4091954 28.66347122 57.52298065 28.66410065 58.67051697 28.66474915 C62.06924686 28.24136021 63.95021106 27.3379269 66.67456055 25.29052734 C67.91857333 22.90444124 67.91857333 22.90444124 67.67456055 20.29052734 C65.48710413 17.35879569 64.27896358 16.39009766 60.63218689 15.7893219 C58.84706444 15.78907265 58.84706444 15.78907265 57.02587891 15.78881836 C56.36687088 15.78341537 55.70786285 15.77801239 55.02888489 15.77244568 C52.85693041 15.75996772 50.68630389 15.77643917 48.5144043 15.79443359 C47.00273062 15.7942786 45.49105653 15.79278956 43.97938538 15.7900238 C40.81436555 15.78864031 37.64979917 15.80119036 34.48486328 15.82397461 C30.42701121 15.85238395 26.36991107 15.84961495 22.31200314 15.8368845 C19.19187489 15.82993214 16.07192067 15.83771101 12.95181465 15.85014153 C11.45548736 15.85465866 9.95914141 15.85499052 8.46281242 15.85107613 C6.37276729 15.84816748 4.28376148 15.86465114 2.19384766 15.88647461 C0.40991859 15.89457909 0.40991859 15.89457909 -1.41004944 15.90284729 C-4.30252294 16.0652966 -4.30252294 16.0652966 -6.23680115 17.59312439 Z " fill="#00ff00" transform="translate(226.325439453125,87.70947265625)"/>
<path d="M0 0 C0.72900513 -0.00671722 1.45801025 -0.01343445 2.20910645 -0.02035522 C4.61636194 -0.0393334 7.02333843 -0.04325971 9.43066406 -0.04541016 C11.10972202 -0.05183971 12.78877886 -0.05856819 14.46783447 -0.06558228 C17.98834834 -0.07755564 21.50876409 -0.08126319 25.02929688 -0.08007812 C29.52611878 -0.07987527 34.02230629 -0.10714178 38.51897812 -0.14162254 C41.98841196 -0.16393683 45.45769445 -0.16791424 48.92719269 -0.16685867 C50.58409047 -0.16920919 52.24099277 -0.17800162 53.89781952 -0.19352341 C71.21933587 -0.34056435 71.21933587 -0.34056435 78.71972656 6.00146484 C83.28697776 11.62472787 85.21388773 16.62046199 85.00488281 23.92333984 C84.09430165 30.9083042 80.90774283 35.76729945 75.47753906 40.09912109 C71.05127327 43.05967168 67.56038129 43.58401471 62.26904297 43.56518555 C61.52707169 43.57029648 60.7851004 43.57540741 60.02064514 43.58067322 C57.57129822 43.59455699 55.12223312 43.5936132 52.67285156 43.59130859 C50.96658219 43.59519658 49.26031379 43.59953147 47.55404663 43.60429382 C43.97805647 43.6117537 40.40216503 43.61146673 36.82617188 43.60620117 C32.25078667 43.60041096 27.67580686 43.61732768 23.10048866 43.64054585 C19.57623952 43.65530217 16.05208753 43.65615224 12.52781296 43.65303612 C10.84136529 43.65354851 9.15491206 43.65877087 7.46849442 43.66884804 C5.10617258 43.68123031 2.74463418 43.67441025 0.38232422 43.6628418 C-0.30982681 43.67048553 -1.00197784 43.67812927 -1.71510315 43.68600464 C-7.61027191 43.62242334 -11.45116481 41.83431579 -15.92871094 38.10302734 C-21.01124852 32.08423284 -23.02383454 26.92437776 -22.68261719 18.96630859 C-21.70686071 12.07565719 -18.38279212 7.82759794 -13.08496094 3.51708984 C-8.63404029 0.4522015 -5.46433842 0.03162804 0 0 Z M-5.19544983 17.657547 C-6.78815527 20.00433754 -6.71957225 21.51811856 -6.30371094 24.29052734 C-5.24193836 26.0504314 -5.24193836 26.0504314 -3.30371094 27.29052734 C-0.23520726 27.75535007 -0.23520726 27.75535007 3.32324219 27.69458008 C4.32616554 27.70487495 4.32616554 27.70487495 5.34934998 27.71537781 C7.55896247 27.73367609 9.76786708 27.72980477 11.97753906 27.72412109 C13.51306388 27.72868114 15.04858665 27.73398618 16.58410645 27.74000549 C19.80208631 27.74894225 23.01981807 27.74650683 26.23779297 27.73657227 C30.36414533 27.72507541 34.48964285 27.74530119 38.61588287 27.7744894 C41.78661549 27.79282334 44.95714212 27.79256475 48.12791443 27.78685188 C49.6493805 27.78669835 51.17086025 27.79276868 52.692276 27.80514336 C54.81851064 27.8200017 56.94315163 27.80941771 59.06933594 27.79223633 C60.27940308 27.79207016 61.48947021 27.79190399 62.73620605 27.79173279 C65.77786229 27.5641946 65.77786229 27.5641946 67.62219238 25.42323303 C68.92193586 23.29576279 68.92193586 23.29576279 68.50878906 20.66552734 C67.83952356 18.14032369 67.83952356 18.14032369 65.69628906 16.29052734 C62.72204476 15.97566615 62.72204476 15.97566615 59.18286133 16.01586914 C58.18015701 16.00820274 58.18015701 16.00820274 57.15719604 16.00038147 C54.94227198 15.98645462 52.72765802 15.98744454 50.51269531 15.98974609 C48.97574243 15.98586073 47.43879062 15.98152639 45.90184021 15.97676086 C42.67793296 15.96929193 39.45413521 15.96959467 36.23022461 15.97485352 C32.09614482 15.98064781 27.96251311 15.96372176 23.82850742 15.94050884 C20.6535123 15.92578556 17.47862543 15.92489788 14.30360222 15.92801857 C12.77934825 15.9275046 11.25508834 15.92225273 9.73086739 15.91220665 C7.59998495 15.89988681 5.46997944 15.90660616 3.33911133 15.91821289 C1.51948631 15.91726875 1.51948631 15.91726875 -0.3368988 15.91630554 C-3.28569362 16.04729999 -3.28569362 16.04729999 -5.19544983 17.657547 Z " fill="#00ff00" transform="translate(225.3037109375,352.70947265625)"/>
<path d="M0 0 C1.17018677 -0.00717545 1.17018677 -0.00717545 2.36401367 -0.01449585 C4.00799586 -0.01788758 5.65204615 -0.00873581 7.29589844 0.01220703 C9.80557295 0.03898858 12.31077629 0.0124405 14.8203125 -0.01953125 C16.42188482 -0.01622702 18.02345438 -0.00982049 19.625 0 C20.37096436 -0.01012115 21.11692871 -0.02024231 21.88549805 -0.03067017 C25.82227636 0.05743557 27.64697715 0.53494489 30.78515625 2.98291016 C32.8125 5.6640625 32.8125 5.6640625 33.4375 9.2265625 C32.8125 12.6640625 32.8125 12.6640625 30.78515625 14.84350586 C27.03548882 17.13993079 23.89492703 17.25885922 19.625 17.23046875 C18.45481323 17.23976662 18.45481323 17.23976662 17.26098633 17.24925232 C15.61703739 17.2563337 13.97301649 17.25320581 12.32910156 17.24047852 C9.81961733 17.22660186 7.31385767 17.26071353 4.8046875 17.29882812 C3.20312409 17.29977934 1.60155604 17.29792037 0 17.29296875 C-1.11894653 17.31285606 -1.11894653 17.31285606 -2.26049805 17.33314514 C-6.22680515 17.26255726 -8.01317398 16.80197993 -11.16015625 14.31225586 C-13.1875 11.6640625 -13.1875 11.6640625 -13.8125 8.6640625 C-12.25458215 1.1860568 -6.81122327 -0.09241386 0 0 Z " fill="#00ff00" transform="translate(178.1875,464.3359375)"/>
</svg>