<svg version="1.1" xmlns="http://www.w3.org/2000/svg" width="512px" height="512px" transform="rotate(0) scale(1, 1)">
<path d="M0 0 C0.70916571 -0.00453111 1.41833142 -0.00906223 2.148987 -0.01373065 C4.51945057 -0.02636598 6.88968414 -0.02475486 9.26017761 -0.02310181 C10.96220189 -0.02908763 12.66422346 -0.0358933 14.36624146 -0.04345703 C18.98618443 -0.06111944 23.6060533 -0.06581253 28.22602677 -0.0670886 C31.11382393 -0.0685107 34.00160228 -0.07278144 36.88939476 -0.07808304 C46.96807933 -0.0965846 57.046711 -0.10475355 67.12541199 -0.10317993 C76.51340452 -0.10197872 85.90116708 -0.1230767 95.28910142 -0.15466726 C103.35466428 -0.18083875 111.42015207 -0.19154685 119.48575705 -0.19026911 C124.30050122 -0.18975971 129.11504102 -0.19543105 133.92974281 -0.21662521 C138.45982406 -0.23602211 142.98950631 -0.23612219 147.51960182 -0.22159195 C149.17879826 -0.2195045 150.83801977 -0.22420096 152.49717331 -0.23631287 C169.57438671 -0.35286679 169.57438671 -0.35286679 177.08903503 6.23226929 C177.62786316 6.88324585 178.16669128 7.53422241 178.72184753 8.20492554 C179.27614441 8.85332397 179.83044128 9.50172241 180.40153503 10.16976929 C183.43114005 14.56679062 184.09511197 18.32544934 184.07389832 23.61825562 C184.07365662 24.89672363 184.07341492 26.17519165 184.07316589 27.49240112 C184.06309686 28.84058836 184.05276383 30.18877365 184.04216003 31.53695679 C184.04014587 32.77038818 184.03813171 34.00381958 184.03605652 35.27462769 C184.02560269 39.87643154 183.99768012 44.47818232 183.97184753 49.07992554 C183.93059753 59.37180054 183.88934753 69.66367554 183.84684753 80.26742554 C204.96684753 80.26742554 226.08684753 80.26742554 247.84684753 80.26742554 C247.7282194 63.05012055 247.7282194 63.05012055 247.57658386 45.83309937 C247.5678206 43.67188969 247.56017628 41.51067506 247.55387878 39.34945679 C247.53085693 37.67127869 247.53085693 37.67127869 247.50737 35.959198 C247.50700745 34.88375732 247.5066449 33.80831665 247.50627136 32.70028687 C247.49627861 31.30463249 247.49627861 31.30463249 247.48608398 29.88078308 C248.26185165 24.26115138 252.05961157 20.54001412 256.23747253 17.03305054 C283.86658505 -1.66209745 327.85794537 -0.13829109 359.40934753 -0.04507446 C361.32914932 -0.04234024 361.32914932 -0.04234024 363.28773499 -0.03955078 C381.63545452 0.00447399 399.70974976 0.24067294 417.84684753 3.26742554 C418.94061707 3.44434937 420.0343866 3.62127319 421.16130066 3.80355835 C457.65054462 9.89210943 457.65054462 9.89210943 469.28434753 23.01742554 C471.85559925 26.72002801 471.98164981 28.83245548 472.01420593 33.33850098 C472.02569672 34.6338829 472.0371875 35.92926483 472.04902649 37.26390076 C472.05665193 38.707946 472.06412353 40.15199206 472.07145691 41.59603882 C472.08262981 43.11043034 472.09414306 44.62481939 472.10597229 46.13920593 C472.14256627 51.12201485 472.16775721 56.10484925 472.19059753 61.08773804 C472.1945434 61.93550733 472.19848927 62.78327662 472.2025547 63.6567359 C472.23898036 71.65302326 472.27042455 79.64931943 472.29166412 87.64566231 C472.31922792 97.87198879 472.36996563 108.09762082 472.45213842 118.32365811 C472.50796181 125.51441519 472.5369049 132.70498408 472.54613733 139.8959502 C472.55239082 144.19009956 472.57047489 148.48343511 472.61752319 152.77734756 C472.6612779 156.82089397 472.67165191 160.86318412 472.65689468 164.90692711 C472.65722264 166.38717493 472.66944566 167.86747772 472.69474411 169.34750938 C472.89785647 181.8975641 472.89785647 181.8975641 468.54154968 187.03594971 C462.77868822 192.5746872 456.20417729 195.90529006 448.65934753 198.32992554 C447.4938739 198.70661377 447.4938739 198.70661377 446.30485535 199.09091187 C421.1866866 206.89473608 394.00701255 208.87112165 367.84684753 208.26742554 C367.84684753 219.15742554 367.84684753 230.04742554 367.84684753 241.26742554 C369.49684753 241.92742554 371.14684753 242.58742554 372.84684753 243.26742554 C377.9682356 246.82238172 382.68873058 250.90340422 383.84684753 257.26742554 C384.59087061 265.15972093 385.01920448 272.83071468 379.84684753 279.26742554 C376.07876671 283.22082181 373.21347375 285.92576898 367.84684753 287.26742554 C367.84684753 298.15742554 367.84684753 309.04742554 367.84684753 320.26742554 C370.19809753 320.24647827 372.54934753 320.22553101 374.97184753 320.20394897 C382.75892886 320.13753349 390.54602301 320.09343216 398.33331299 320.06017685 C403.05265848 320.03934298 407.77171265 320.01110249 412.4908905 319.96566772 C417.0491063 319.92205959 421.60704267 319.89825686 426.16545105 319.88791656 C427.9005218 319.88055198 429.63557806 319.8661707 431.37052917 319.84450531 C433.80958045 319.81527142 436.24749172 319.81147772 438.68669128 319.81332397 C439.75161049 319.79175232 439.75161049 319.79175232 440.83804321 319.76974487 C447.25387068 319.82195388 452.31796926 322.05135277 457.08903503 326.23226929 C457.62786316 326.88324585 458.16669128 327.53422241 458.72184753 328.20492554 C459.27614441 328.85332397 459.83044128 329.50172241 460.40153503 330.16976929 C463.32328934 334.41026134 464.09769176 338.09949541 464.11427307 343.20573425 C464.12706802 344.99091713 464.12706802 344.99091713 464.14012146 346.81216431 C464.13921509 348.10942444 464.13830872 349.40668457 464.13737488 350.74325562 C464.14336251 352.13001364 464.1501686 353.51676834 464.1577301 354.90351868 C464.17537465 358.66398828 464.18008486 362.42436682 464.18136168 366.18487382 C464.18278484 368.53664165 464.1870576 370.88838644 464.19235611 373.24014854 C464.2108521 381.4514856 464.21902737 389.66275779 464.217453 397.87411499 C464.21625209 405.51711913 464.23734548 413.15984065 464.26894033 420.8027733 C464.2951313 427.37365886 464.3058191 433.94445229 464.30454218 440.51538962 C464.30403333 444.43589099 464.30967387 448.35614117 464.33089828 452.27659035 C464.3503282 455.96622617 464.3503732 459.65537246 464.33586502 463.34502602 C464.33279236 465.33540861 464.34942054 467.3257915 464.366745 469.31610107 C464.3091797 477.54078527 463.45567288 483.14920338 457.88200378 489.50961304 C457.23102722 490.04844116 456.58005066 490.58726929 455.90934753 491.14242554 C455.2609491 491.69672241 454.61255066 492.25101929 453.94450378 492.82211304 C449.28464731 496.03281489 445.29945611 496.52003503 439.69369507 496.53485107 C438.98452936 496.53938219 438.27536365 496.5439133 437.54470807 496.54858172 C435.1742445 496.56121705 432.80401093 496.55960593 430.43351746 496.55795288 C428.73149318 496.56393871 427.02947161 496.57074438 425.32745361 496.57830811 C420.70751064 496.59597051 416.08764177 496.60066361 411.46766829 496.60193968 C408.57987114 496.60336178 405.69209279 496.60763251 402.80430031 496.61293411 C392.72561574 496.63143568 382.64698407 496.63960463 372.56828308 496.63803101 C363.18029055 496.6368298 353.79252799 496.65792778 344.40459365 496.68951833 C336.33903079 496.71568982 328.273543 496.72639792 320.20793802 496.72512019 C315.39319385 496.72461078 310.57865405 496.73028212 305.76395226 496.75147629 C301.23387101 496.77087319 296.70418876 496.77097326 292.17409325 496.75644302 C290.51489681 496.75435558 288.8556753 496.75905203 287.19652176 496.77116394 C270.11930836 496.88771786 270.11930836 496.88771786 262.60466003 490.30258179 C262.06583191 489.65160522 261.52700378 489.00062866 260.97184753 488.32992554 C260.41755066 487.6815271 259.86325378 487.03312866 259.29216003 486.36508179 C248.96508381 471.37686576 255.84684753 445.72390839 255.84684753 432.26742554 C205.35684753 432.26742554 154.86684753 432.26742554 102.84684753 432.26742554 C102.18684753 433.91742554 101.52684753 435.56742554 100.84684753 437.26742554 C97.29189135 442.38881361 93.21086885 447.10930858 86.84684753 448.26742554 C78.95300801 449.01159418 71.28560619 449.4385986 64.84684753 444.26742554 C59.80163531 439.46293915 56.24121759 435.10565499 55.51091003 427.99789429 C55.41665065 419.44856826 55.74183199 413.57432709 61.75309753 407.26742554 C65.18917677 404.08777013 67.21409118 402.42561463 71.84684753 401.26742554 C71.84684753 395.65742554 71.84684753 390.04742554 71.84684753 384.26742554 C69.49559753 384.2883728 67.14434753 384.30932007 64.72184753 384.3309021 C56.93476621 384.39731759 49.14767206 384.44141892 41.36038208 384.47467422 C36.64103659 384.49550809 31.92198242 384.52374859 27.20280457 384.56918335 C22.64458877 384.61279149 18.08665239 384.63659422 13.52824402 384.64693451 C11.79317326 384.6542991 10.05811701 384.66868037 8.32316589 384.69034576 C5.88411462 384.71957966 3.44620335 384.72337335 1.00700378 384.7215271 C0.29705765 384.7359082 -0.41288849 384.75028931 -1.14434814 384.7651062 C-7.56017561 384.71289719 -12.6242742 382.48349831 -17.39533997 378.30258179 C-17.93416809 377.65160522 -18.47299622 377.00062866 -19.02815247 376.32992554 C-19.58244934 375.6815271 -20.13674622 375.03312866 -20.70783997 374.36508179 C-23.62959427 370.12458973 -24.40399669 366.43535566 -24.420578 361.32911682 C-24.42910797 360.1389949 -24.43763794 358.94887299 -24.44642639 357.72268677 C-24.44552002 356.42542664 -24.44461365 355.1281665 -24.44367981 353.79159546 C-24.44966744 352.40483743 -24.45647353 351.01808274 -24.46403503 349.6313324 C-24.48167958 345.87086279 -24.48638979 342.11048425 -24.48766661 338.34997725 C-24.48908978 335.99820943 -24.49336254 333.64646463 -24.49866104 331.29470253 C-24.51715703 323.08336547 -24.5253323 314.87209328 -24.52375793 306.66073608 C-24.52255702 299.01773194 -24.54365041 291.37501042 -24.57524526 283.73207778 C-24.60143624 277.16119221 -24.61212403 270.59039879 -24.61084712 264.01946145 C-24.61033826 260.09896009 -24.6159788 256.1787099 -24.63720322 252.25826073 C-24.65663314 248.56862491 -24.65667813 244.87947861 -24.64216995 241.18982506 C-24.63909729 239.19944246 -24.65572547 237.20905957 -24.67304993 235.21875 C-24.61548464 226.99406581 -23.76197781 221.3856477 -18.18830872 215.02523804 C-17.53733215 214.48640991 -16.88635559 213.94758179 -16.21565247 213.39242554 C-15.56725403 212.83812866 -14.91885559 212.28383179 -14.25080872 211.71273804 C-9.44014668 208.39812918 -5.05283645 207.98331517 0.66642761 208.04037476 C1.43768982 208.0400827 2.20895203 208.03979065 3.00358582 208.03948975 C5.54129973 208.04087802 8.07871645 208.05641539 10.61637878 208.07211304 C12.3804305 208.07584496 14.14448429 208.07869108 15.90853882 208.08068848 C20.54294088 208.08831084 25.17721684 208.10794732 29.81156921 208.13009644 C34.54401443 208.15058497 39.27648009 208.15969662 44.00895691 208.16976929 C53.288318 208.19119456 62.56755253 208.22636531 71.84684753 208.26742554 C71.84684753 197.70742554 71.84684753 187.14742554 71.84684753 176.26742554 C69.49559753 176.2883728 67.14434753 176.30932007 64.72184753 176.3309021 C56.93476621 176.39731759 49.14767206 176.44141892 41.36038208 176.47467422 C36.64103659 176.49550809 31.92198242 176.52374859 27.20280457 176.56918335 C22.64458877 176.61279149 18.08665239 176.63659422 13.52824402 176.64693451 C11.79317326 176.6542991 10.05811701 176.66868037 8.32316589 176.69034576 C5.88411462 176.71957966 3.44620335 176.72337335 1.00700378 176.7215271 C0.29705765 176.7359082 -0.41288849 176.75028931 -1.14434814 176.7651062 C-7.56017561 176.71289719 -12.6242742 174.48349831 -17.39533997 170.30258179 C-18.20358215 169.32611694 -18.20358215 169.32611694 -19.02815247 168.32992554 C-19.58244934 167.6815271 -20.13674622 167.03312866 -20.70783997 166.36508179 C-23.62959427 162.12458973 -24.40399669 158.43535566 -24.420578 153.32911682 C-24.42910797 152.1389949 -24.43763794 150.94887299 -24.44642639 149.72268677 C-24.44552002 148.42542664 -24.44461365 147.1281665 -24.44367981 145.79159546 C-24.44966744 144.40483743 -24.45647353 143.01808274 -24.46403503 141.6313324 C-24.48167958 137.87086279 -24.48638979 134.11048425 -24.48766661 130.34997725 C-24.48908978 127.99820943 -24.49336254 125.64646463 -24.49866104 123.29470253 C-24.51715703 115.08336547 -24.5253323 106.87209328 -24.52375793 98.66073608 C-24.52255702 91.01773194 -24.54365041 83.37501042 -24.57524526 75.73207778 C-24.60143624 69.16119221 -24.61212403 62.59039879 -24.61084712 56.01946145 C-24.61033826 52.09896009 -24.6159788 48.1787099 -24.63720322 44.25826073 C-24.65663314 40.56862491 -24.65667813 36.87947861 -24.64216995 33.18982506 C-24.63909729 31.19944246 -24.65572547 29.20905957 -24.67304993 27.21875 C-24.61548464 18.99406581 -23.76197781 13.3856477 -18.18830872 7.02523804 C-17.53733215 6.48640991 -16.88635559 5.94758179 -16.21565247 5.39242554 C-15.56725403 4.83812866 -14.91885559 4.28383179 -14.25080872 3.71273804 C-9.59095225 0.50203619 -5.60576104 0.01481604 0 0 Z M-6.15315247 19.26742554 C-11.72951198 33.20832432 -8.15315247 49.25261803 -8.15315247 64.26742554 C49.92684753 64.26742554 108.00684753 64.26742554 167.84684753 64.26742554 C169.78276889 40.45631453 169.78276889 40.45631453 164.84684753 18.26742554 C161.07299354 16.01137657 157.54217427 16.01434359 153.21173096 16.00672913 C152.55832385 16.00290358 151.90491674 15.99907803 151.23170942 15.99513656 C149.05003541 15.98484708 146.86862657 15.98879089 144.68693542 15.99276733 C143.11959592 15.98841862 141.55225854 15.98323494 139.98492432 15.97727966 C135.73286304 15.96389585 131.48089069 15.96331028 127.22881246 15.96584296 C123.67758578 15.96691305 120.12637707 15.96202837 116.57515424 15.95723754 C108.19671085 15.94614459 99.81831229 15.94570382 91.43986511 15.95175171 C82.79940232 15.95779286 74.1591023 15.94547644 65.51866728 15.92418164 C58.09686752 15.90656351 50.67511956 15.9005646 43.25329965 15.90381938 C38.82207115 15.90563197 34.39095878 15.90299844 29.95974922 15.88910484 C25.7924995 15.87652758 21.62550351 15.87846956 17.45825768 15.89151573 C15.93045592 15.89388125 14.40263632 15.89114767 12.87485504 15.88289261 C10.78592561 15.87242092 8.69784693 15.88052809 6.60894775 15.89320374 C5.44107759 15.89303599 4.27320742 15.89286825 3.06994724 15.89269543 C-0.67144831 16.32768463 -3.01281105 17.18835331 -6.15315247 19.26742554 Z M265.84684753 31.26742554 C265.84684753 31.92742554 265.84684753 32.58742554 265.84684753 33.26742554 C271.23316267 36.12398817 276.32252604 38.25540645 282.22184753 39.76742554 C283.01985779 39.97464233 283.81786804 40.18185913 284.64006042 40.39535522 C332.50810929 52.23656591 406.78974108 57.41929842 451.84684753 34.26742554 C452.83684753 33.77242554 452.83684753 33.77242554 453.84684753 33.26742554 C453.84684753 32.60742554 453.84684753 31.94742554 453.84684753 31.26742554 C448.65145296 28.53969891 443.68834248 26.32540936 438.03434753 24.76742554 C437.28661072 24.56020874 436.5388739 24.35299194 435.76847839 24.13949585 C391.31057653 12.5444844 306.22043113 4.35170314 265.84684753 31.26742554 Z M263.84684753 51.26742554 C263.61436167 55.82906636 263.4723661 60.38918772 263.34684753 64.95492554 C263.27981628 66.24849976 263.21278503 67.54207397 263.14372253 68.87484741 C262.76267169 75.46242303 262.76267169 75.46242303 265.41496277 81.18759155 C267.51722889 82.55415339 269.48381339 83.43870983 271.84684753 84.26742554 C273.56581238 84.98092163 273.56581238 84.98092163 275.31950378 85.70883179 C286.97889017 89.35001121 298.76908961 91.50599677 310.84684753 93.26742554 C311.62834167 93.3821521 312.40983582 93.49687866 313.2150116 93.61508179 C353.42725535 99.25014566 417.87947514 104.03989468 453.50798035 81.59066772 C456.10936487 79.44599868 456.10936487 79.44599868 456.41447449 76.24301147 C456.38829041 75.09091187 456.36210632 73.93881226 456.33512878 72.75180054 C456.3190155 71.50140991 456.30290222 70.25101929 456.28630066 68.96273804 C456.22345886 67.00980835 456.22345886 67.00980835 456.15934753 65.01742554 C456.13678894 63.70000366 456.11423035 62.38258179 456.09098816 61.02523804 C456.03204348 57.7714915 455.94979807 54.52002883 455.84684753 51.26742554 C455.21125916 51.46078491 454.57567078 51.65414429 453.92082214 51.85336304 C423.10564371 61.17259731 392.39399295 63.67908556 360.28434753 63.57992554 C359.05594147 63.57810272 357.8275354 63.57627991 356.56190491 63.57440186 C327.05536708 63.50076922 295.91047948 62.88098618 268.05070496 52.05233765 C265.92274536 51.1555889 265.92274536 51.1555889 263.84684753 51.26742554 Z M-8.15315247 80.26742554 C-12.47122775 120.6408868 -12.47122775 120.6408868 -5.15315247 158.26742554 C-1.37929847 160.5234745 2.1515208 160.52050748 6.48196411 160.52812195 C7.13537122 160.5319475 7.78877833 160.53577304 8.46198565 160.53971452 C10.64365966 160.55000399 12.82506849 160.54606019 15.00675964 160.54208374 C16.57409915 160.54643245 18.14143653 160.55161614 19.70877075 160.55757141 C23.96083203 160.57095522 28.21280438 160.57154079 32.46488261 160.56900811 C36.01610929 160.56793803 39.567318 160.57282271 43.11854082 160.57761353 C51.49698422 160.58870648 59.87538277 160.58914725 68.25382996 160.58309937 C76.89429275 160.57705822 85.53459276 160.58937463 94.17502779 160.61066943 C101.59682755 160.62828757 109.01857551 160.63428648 116.44039541 160.63103169 C120.87162392 160.6292191 125.30273629 160.63185264 129.73394585 160.64574623 C133.90119557 160.6583235 138.06819156 160.65638151 142.23543739 160.64333534 C143.76323914 160.64096982 145.29105875 160.64370341 146.81884003 160.65195847 C148.90776946 160.66243016 150.99584813 160.65432299 153.08474731 160.64164734 C154.83655257 160.64189895 154.83655257 160.64189895 156.62374783 160.64215565 C160.36514338 160.20716645 162.70650612 159.34649777 165.84684753 157.26742554 C175.38242319 133.4284864 167.84684753 105.94274875 167.84684753 80.26742554 C109.76684753 80.26742554 51.68684753 80.26742554 -8.15315247 80.26742554 Z M183.84684753 96.26742554 C183.67649897 116.64033344 183.67649897 116.64033344 183.54899597 137.01351929 C183.51961755 139.57733955 183.48879022 142.1411438 183.45622253 144.70492554 C183.4550946 146.02428101 183.45396667 147.34363647 183.45280457 148.70297241 C183.32441831 156.98232021 182.6679969 162.83933745 177.10075378 169.29086304 C176.54258972 169.73687866 175.98442566 170.18289429 175.40934753 170.64242554 C174.57596863 171.3346521 174.57596863 171.3346521 173.72575378 172.04086304 C168.98259793 175.13722674 164.57896005 175.56963359 159.02726746 175.58627319 C158.25600525 175.59631882 157.48474304 175.60636444 156.69010925 175.61671448 C154.15251886 175.6474916 151.61503371 175.66456625 149.07731628 175.68148804 C147.31325376 175.7002041 145.54920015 175.71977784 143.78515625 175.74017334 C139.15086627 175.79145427 134.51654729 175.8311016 129.88212585 175.86831665 C125.14959052 175.90838162 120.41717546 175.9594626 115.68473816 176.00961304 C106.40551745 176.10632458 97.12624693 176.18972608 87.84684753 176.26742554 C87.84684753 186.82742554 87.84684753 197.38742554 87.84684753 208.26742554 C90.19809753 208.27677124 92.54934753 208.28611694 94.97184753 208.29574585 C102.75916069 208.32958342 110.54621073 208.38516998 118.33331299 208.45132828 C123.0525192 208.49075924 127.77154003 208.52296915 132.4908905 208.53842163 C137.0493231 208.55361715 141.60724594 208.58811382 146.16545105 208.63573456 C147.9004319 208.65051857 149.63548554 208.65846484 151.37052917 208.65930939 C153.80979624 208.66168987 156.24766677 208.68885399 158.68669128 208.7215271 C159.39663742 208.71649673 160.10658356 208.71146637 160.83804321 208.70628357 C167.0765555 208.83473296 172.17996315 210.96607936 176.87028503 215.01351929 C177.31630066 215.57168335 177.76231628 216.12984741 178.22184753 216.70492554 C178.9140741 217.53830444 178.9140741 217.53830444 179.62028503 218.38851929 C182.6281645 222.99613083 183.12633843 227.08680686 183.26091003 232.53695679 C183.28027618 233.21795944 183.29964233 233.8989621 183.31959534 234.6006012 C183.37902885 236.76025147 183.42562953 238.91995611 183.47184753 241.07992554 C183.51006081 242.55065097 183.54911447 244.02135483 183.58903503 245.49203491 C183.68469936 249.08363343 183.76886328 252.67539467 183.84684753 256.26742554 C203.69172705 256.47769103 223.53638048 256.63638587 243.38214302 256.73373508 C252.59699367 256.78013827 261.81115213 256.8433972 271.02555847 256.94638062 C279.05713514 257.03610151 287.08821055 257.09415274 295.12027442 257.11422199 C299.37331119 257.12595372 303.62491403 257.15350799 307.877491 257.21899605 C311.88178723 257.28016018 315.8840616 257.29891727 319.88878059 257.28539467 C321.3570245 257.28786766 322.82533702 257.30573377 324.29317665 257.34027481 C332.27626839 257.78045261 332.27626839 257.78045261 338.996068 254.251297 C340.64405123 251.86334758 340.64405123 251.86334758 341.80451107 249.3563242 C343.197344 246.56501166 344.84234875 245.88216576 347.68669128 244.75961304 C350.10845789 243.44520451 350.10845789 243.44520451 351.84684753 241.26742554 C352.99123124 235.61309792 352.69677311 230.12647539 352.40934753 224.39242554 C352.36416662 222.83004043 352.32310825 221.26753033 352.28630066 219.70492554 C352.18746499 215.88932612 352.03242004 212.07975092 351.84684753 208.26742554 C350.99904724 208.22778687 350.15124695 208.18814819 349.27775574 208.14730835 C271.15244235 204.34323767 271.15244235 204.34323767 251.49137878 186.13461304 C248.1373071 182.32642714 248.6767092 177.91697962 248.64152527 173.12411499 C248.63162567 172.29462341 248.62172607 171.46513184 248.61152649 170.61050415 C248.57992548 167.86726745 248.55515956 165.12401343 248.53044128 162.38070679 C248.50987055 160.47926888 248.48887405 158.57783555 248.46746826 156.67640686 C248.41225993 151.6705291 248.36284516 146.66461015 248.31462097 141.65866089 C248.25556743 135.65305829 248.18934624 129.647531 248.12432098 123.64199066 C248.02632703 114.51718159 247.9374603 105.39232434 247.84684753 96.26742554 C226.72684753 96.26742554 205.60684753 96.26742554 183.84684753 96.26742554 Z M263.84684753 99.26742554 C263.61436167 103.82906636 263.4723661 108.38918772 263.34684753 112.95492554 C263.27981628 114.24849976 263.21278503 115.54207397 263.14372253 116.87484741 C262.76267169 123.46242303 262.76267169 123.46242303 265.41496277 129.18759155 C267.51722889 130.55415339 269.48381339 131.43870983 271.84684753 132.26742554 C273.56581238 132.98092163 273.56581238 132.98092163 275.31950378 133.70883179 C286.97889017 137.35001121 298.76908961 139.50599677 310.84684753 141.26742554 C311.62834167 141.3821521 312.40983582 141.49687866 313.2150116 141.61508179 C353.42725535 147.25014566 417.87947514 152.03989468 453.50798035 129.59066772 C456.10936487 127.44599868 456.10936487 127.44599868 456.41447449 124.24301147 C456.38829041 123.09091187 456.36210632 121.93881226 456.33512878 120.75180054 C456.3190155 119.50140991 456.30290222 118.25101929 456.28630066 116.96273804 C456.22345886 115.00980835 456.22345886 115.00980835 456.15934753 113.01742554 C456.13678894 111.70000366 456.11423035 110.38258179 456.09098816 109.02523804 C456.03204348 105.7714915 455.94979807 102.52002883 455.84684753 99.26742554 C455.21125916 99.46078491 454.57567078 99.65414429 453.92082214 99.85336304 C423.10564371 109.17259731 392.39399295 111.67908556 360.28434753 111.57992554 C359.05594147 111.57810272 357.8275354 111.57627991 356.56190491 111.57440186 C327.05536708 111.50076922 295.91047948 110.88098618 268.05070496 100.05233765 C265.92274536 99.1555889 265.92274536 99.1555889 263.84684753 99.26742554 Z M263.84684753 147.26742554 C263.7017876 151.85042678 263.61285073 156.43283917 263.53434753 161.01742554 C263.492453 162.31937866 263.45055847 163.62133179 263.40739441 164.96273804 C263.39128113 166.21312866 263.37516785 167.46351929 263.35856628 168.75180054 C263.3323822 169.90390015 263.30619812 171.05599976 263.27922058 172.24301147 C263.5843302 175.44599868 263.5843302 175.44599868 266.18571472 177.59066772 C307.1821589 203.4221887 386.8793339 195.17204865 431.33122253 185.36898804 C444.6607516 182.46251951 444.6607516 182.46251951 455.84684753 175.26742554 C456.53348736 172.1837178 456.53348736 172.1837178 456.33512878 168.75180054 C456.3190155 167.50140991 456.30290222 166.25101929 456.28630066 164.96273804 C456.22345886 163.00980835 456.22345886 163.00980835 456.15934753 161.01742554 C456.13678894 159.70000366 456.11423035 158.38258179 456.09098816 157.02523804 C456.03204348 153.7714915 455.94979807 150.52002883 455.84684753 147.26742554 C455.21125916 147.46078491 454.57567078 147.65414429 453.92082214 147.85336304 C423.10564371 157.17259731 392.39399295 159.67908556 360.28434753 159.57992554 C359.05594147 159.57810272 357.8275354 159.57627991 356.56190491 159.57440186 C327.05536708 159.50076922 295.91047948 158.88098618 268.05070496 148.05233765 C265.92274536 147.1555889 265.92274536 147.1555889 263.84684753 147.26742554 Z M-6.15315247 227.26742554 C-11.72951198 241.20832432 -8.15315247 257.25261803 -8.15315247 272.26742554 C49.92684753 272.26742554 108.00684753 272.26742554 167.84684753 272.26742554 C169.78276889 248.45631453 169.78276889 248.45631453 164.84684753 226.26742554 C161.07299354 224.01137657 157.54217427 224.01434359 153.21173096 224.00672913 C152.55832385 224.00290358 151.90491674 223.99907803 151.23170942 223.99513656 C149.05003541 223.98484708 146.86862657 223.98879089 144.68693542 223.99276733 C143.11959592 223.98841862 141.55225854 223.98323494 139.98492432 223.97727966 C135.73286304 223.96389585 131.48089069 223.96331028 127.22881246 223.96584296 C123.67758578 223.96691305 120.12637707 223.96202837 116.57515424 223.95723754 C108.19671085 223.94614459 99.81831229 223.94570382 91.43986511 223.95175171 C82.79940232 223.95779286 74.1591023 223.94547644 65.51866728 223.92418164 C58.09686752 223.90656351 50.67511956 223.9005646 43.25329965 223.90381938 C38.82207115 223.90563197 34.39095878 223.90299844 29.95974922 223.88910484 C25.7924995 223.87652758 21.62550351 223.87846956 17.45825768 223.89151573 C15.93045592 223.89388125 14.40263632 223.89114767 12.87485504 223.88289261 C10.78592561 223.87242092 8.69784693 223.88052809 6.60894775 223.89320374 C5.44107759 223.89303599 4.27320742 223.89286825 3.06994724 223.89269543 C-0.67144831 224.32768463 -3.01281105 225.18835331 -6.15315247 227.26742554 Z M354.47184753 258.89242554 C352.35978248 261.97928985 352.23489608 263.59571684 352.84684753 267.26742554 C354.34684753 269.76742554 354.34684753 269.76742554 356.84684753 271.26742554 C360.51855623 271.87937699 362.13498322 271.7544906 365.22184753 269.64242554 C367.33391259 266.55556122 367.45879898 264.93913423 366.84684753 261.26742554 C365.34684753 258.76742554 365.34684753 258.76742554 362.84684753 257.26742554 C359.17513884 256.65547409 357.55871185 256.78036048 354.47184753 258.89242554 Z M183.84684753 272.26742554 C183.8432019 273.43982788 183.83955627 274.61223022 183.83580017 275.82015991 C183.79881314 286.88437411 183.74099965 297.94831094 183.66294479 309.01231384 C183.62348388 314.70006441 183.59128844 320.38766047 183.57585144 326.07553101 C183.56067597 331.5675977 183.52621397 337.05923959 183.47853851 342.55111694 C183.46373402 344.64336448 183.45580706 346.73567267 183.45496368 348.82797241 C183.45258953 351.76527876 183.42547309 354.70141542 183.39274597 357.63851929 C183.40029152 358.92785622 183.40029152 358.92785622 183.4079895 360.24324036 C183.29308865 366.93555973 181.50973572 372.18157301 177.10075378 377.29086304 C176.54258972 377.73687866 175.98442566 378.18289429 175.40934753 378.64242554 C174.57596863 379.3346521 174.57596863 379.3346521 173.72575378 380.04086304 C168.98259793 383.13722674 164.57896005 383.56963359 159.02726746 383.58627319 C158.25600525 383.59631882 157.48474304 383.60636444 156.69010925 383.61671448 C154.15251886 383.6474916 151.61503371 383.66456625 149.07731628 383.68148804 C147.31325376 383.7002041 145.54920015 383.71977784 143.78515625 383.74017334 C139.15086627 383.79145427 134.51654729 383.8311016 129.88212585 383.86831665 C125.14959052 383.90838162 120.41717546 383.9594626 115.68473816 384.00961304 C106.40552582 384.10632449 97.12624551 384.19074458 87.84684753 384.26742554 C87.7354714 387.02895368 87.65370665 389.78599381 87.58903503 392.54867554 C87.55447205 393.33016968 87.51990906 394.11166382 87.48429871 394.9168396 C87.3282895 399.63120258 87.3282895 399.63120258 89.78044128 403.50570679 C91.93907621 404.82125456 91.93907621 404.82125456 94.29216003 405.67367554 C97.27071985 407.53185964 97.57916604 408.71705463 99.08613586 411.80317688 C101.1506495 414.93796223 102.17601182 416.08242841 105.83463669 417.09137154 C109.76298907 417.37787881 113.64024744 417.38169732 117.57292175 417.28915405 C119.0811752 417.28661368 120.58943978 417.28804375 122.09768677 417.2931366 C126.18289211 417.29571518 130.26571093 417.24287305 134.3503623 417.17997098 C138.62235191 417.12364148 142.89439859 417.11841726 147.16670227 417.10774231 C155.25249457 417.07978829 163.33718943 417.00596114 171.42249882 416.9155969 C180.62907887 416.81493851 189.83571182 416.76550096 199.0427053 416.72033799 C217.97804118 416.62630848 236.91235607 416.46804505 255.84684753 416.26742554 C255.85049316 415.29547241 255.85413879 414.32351929 255.8578949 413.32211304 C255.8949108 404.1415329 255.95275532 394.96128615 256.03075027 385.78096008 C256.07018123 381.06175388 256.10239115 376.34273304 256.11784363 371.62338257 C256.13303915 367.06494997 256.16753582 362.50702713 256.21515656 357.94882202 C256.22994057 356.21384117 256.23788683 354.47878753 256.23873138 352.7437439 C256.24111187 350.30447683 256.26827599 347.8666063 256.3009491 345.42758179 C256.29340355 344.36266258 256.29340355 344.36266258 256.28570557 343.27622986 C256.41415496 337.03771757 258.54550136 331.93430992 262.59294128 327.24398804 C263.15110535 326.79797241 263.70926941 326.35195679 264.28434753 325.89242554 C264.83993347 325.43094116 265.39551941 324.96945679 265.96794128 324.49398804 C270.71109714 321.39762434 275.11473502 320.96521748 280.66642761 320.94857788 C281.43768982 320.93853226 282.20895203 320.92848663 283.00358582 320.9181366 C285.54117621 320.88735947 288.07866136 320.87028482 290.61637878 320.85336304 C292.3804413 320.83464697 294.14449492 320.81507323 295.90853882 320.79467773 C300.5428288 320.74339681 305.17714778 320.70374948 309.81156921 320.66653442 C314.54410454 320.62646945 319.27651961 320.57538848 324.00895691 320.52523804 C333.28816925 320.42852658 342.56744956 320.34410649 351.84684753 320.26742554 C352.07025154 315.67790524 352.23302683 311.09157735 352.3412323 306.49789429 C352.38634803 304.93776312 352.44766473 303.37800956 352.52580261 301.81918335 C353.32951165 292.92861928 353.32951165 292.92861928 350.014328 285.1902771 C347.75609806 283.72736882 347.75609806 283.72736882 345.38175964 282.86557007 C342.43742701 281.00930488 342.01548327 279.72000535 340.46473694 276.67454529 C338.45727476 273.53586116 337.50310928 272.44815928 333.86798477 271.44705009 C329.93636447 271.15707214 326.05685449 271.15307359 322.12077332 271.24569702 C320.61251987 271.2482374 319.10425529 271.24680733 317.5960083 271.24171448 C313.51080295 271.2391359 309.42798414 271.29197802 305.34333277 271.35488009 C301.07134316 271.41120959 296.79929648 271.41643381 292.5269928 271.42710876 C284.4412005 271.45506278 276.35650564 271.52888993 268.27119625 271.61925417 C259.0646162 271.71991256 249.85798325 271.76935012 240.65098977 271.81451309 C221.71565389 271.90854259 202.78133899 272.06680602 183.84684753 272.26742554 Z M-8.15315247 288.26742554 C-12.47122775 328.6408868 -12.47122775 328.6408868 -5.15315247 366.26742554 C-1.37929847 368.5234745 2.1515208 368.52050748 6.48196411 368.52812195 C7.13537122 368.5319475 7.78877833 368.53577304 8.46198565 368.53971452 C10.64365966 368.55000399 12.82506849 368.54606019 15.00675964 368.54208374 C16.57409915 368.54643245 18.14143653 368.55161614 19.70877075 368.55757141 C23.96083203 368.57095522 28.21280438 368.57154079 32.46488261 368.56900811 C36.01610929 368.56793803 39.567318 368.57282271 43.11854082 368.57761353 C51.49698422 368.58870648 59.87538277 368.58914725 68.25382996 368.58309937 C76.89429275 368.57705822 85.53459276 368.58937463 94.17502779 368.61066943 C101.59682755 368.62828757 109.01857551 368.63428648 116.44039541 368.63103169 C120.87162392 368.6292191 125.30273629 368.63185264 129.73394585 368.64574623 C133.90119557 368.6583235 138.06819156 368.65638151 142.23543739 368.64333534 C143.76323914 368.64096982 145.29105875 368.64370341 146.81884003 368.65195847 C148.90776946 368.66243016 150.99584813 368.65432299 153.08474731 368.64164734 C154.83655257 368.64189895 154.83655257 368.64189895 156.62374783 368.64215565 C160.36514338 368.20716645 162.70650612 367.34649777 165.84684753 365.26742554 C175.38242319 341.4284864 167.84684753 313.94274875 167.84684753 288.26742554 C109.76684753 288.26742554 51.68684753 288.26742554 -8.15315247 288.26742554 Z M273.84684753 339.26742554 C268.27048802 353.20832432 271.84684753 369.25261803 271.84684753 384.26742554 C329.92684753 384.26742554 388.00684753 384.26742554 447.84684753 384.26742554 C449.78276889 360.45631453 449.78276889 360.45631453 444.84684753 338.26742554 C441.07299354 336.01137657 437.54217427 336.01434359 433.21173096 336.00672913 C432.55832385 336.00290358 431.90491674 335.99907803 431.23170942 335.99513656 C429.05003541 335.98484708 426.86862657 335.98879089 424.68693542 335.99276733 C423.11959592 335.98841862 421.55225854 335.98323494 419.98492432 335.97727966 C415.73286304 335.96389585 411.48089069 335.96331028 407.22881246 335.96584296 C403.67758578 335.96691305 400.12637707 335.96202837 396.57515424 335.95723754 C388.19671085 335.94614459 379.81831229 335.94570382 371.43986511 335.95175171 C362.79940232 335.95779286 354.1591023 335.94547644 345.51866728 335.92418164 C338.09686752 335.90656351 330.67511956 335.9005646 323.25329965 335.90381938 C318.82207115 335.90563197 314.39095878 335.90299844 309.95974922 335.88910484 C305.7924995 335.87652758 301.62550351 335.87846956 297.45825768 335.89151573 C295.93045592 335.89388125 294.40263632 335.89114767 292.87485504 335.88289261 C290.78592561 335.87242092 288.69784693 335.88052809 286.60894775 335.89320374 C285.44107759 335.89303599 284.27320742 335.89286825 283.06994724 335.89269543 C279.32855169 336.32768463 276.98718895 337.18835331 273.84684753 339.26742554 Z M271.84684753 400.26742554 C267.52877225 440.6408868 267.52877225 440.6408868 274.84684753 478.26742554 C278.62070153 480.5234745 282.1515208 480.52050748 286.48196411 480.52812195 C287.13537122 480.5319475 287.78877833 480.53577304 288.46198565 480.53971452 C290.64365966 480.55000399 292.82506849 480.54606019 295.00675964 480.54208374 C296.57409915 480.54643245 298.14143653 480.55161614 299.70877075 480.55757141 C303.96083203 480.57095522 308.21280438 480.57154079 312.46488261 480.56900811 C316.01610929 480.56793803 319.567318 480.57282271 323.11854082 480.57761353 C331.49698422 480.58870648 339.87538277 480.58914725 348.25382996 480.58309937 C356.89429275 480.57705822 365.53459276 480.58937463 374.17502779 480.61066943 C381.59682755 480.62828757 389.01857551 480.63428648 396.44039541 480.63103169 C400.87162392 480.6292191 405.30273629 480.63185264 409.73394585 480.64574623 C413.90119557 480.6583235 418.06819156 480.65638151 422.23543739 480.64333534 C423.76323914 480.64096982 425.29105875 480.64370341 426.81884003 480.65195847 C428.90776946 480.66243016 430.99584813 480.65432299 433.08474731 480.64164734 C434.83655257 480.64189895 434.83655257 480.64189895 436.62374783 480.64215565 C440.36514338 480.20716645 442.70650612 479.34649777 445.84684753 477.26742554 C455.38242319 453.4284864 447.84684753 425.94274875 447.84684753 400.26742554 C389.76684753 400.26742554 331.68684753 400.26742554 271.84684753 400.26742554 Z M74.47184753 418.89242554 C72.35978248 421.97928985 72.23489608 423.59571684 72.84684753 427.26742554 C74.34684753 429.76742554 74.34684753 429.76742554 76.84684753 431.26742554 C80.51855623 431.87937699 82.13498322 431.7544906 85.22184753 429.64242554 C87.33391259 426.55556122 87.45879898 424.93913423 86.84684753 421.26742554 C85.34684753 418.76742554 85.34684753 418.76742554 82.84684753 417.26742554 C79.17513884 416.65547409 77.55871185 416.78036048 74.47184753 418.89242554 Z " fill="#00ff00" transform="translate(32.15315246582031,7.732574462890625)"/>
<path d="M0 0 C47.52 0 95.04 0 144 0 C144 5.28 144 10.56 144 16 C96.48 16 48.96 16 0 16 C0 10.72 0 5.44 0 0 Z " fill="#00ff00" transform="translate(40,344)"/>
<path d="M0 0 C15.84 0 31.68 0 48 0 C48 15.84 48 31.68 48 48 C32.16 48 16.32 48 0 48 C0 32.16 0 16.32 0 0 Z M16 16 C16 21.28 16 26.56 16 32 C21.28 32 26.56 32 32 32 C32 26.72 32 21.44 32 16 C26.72 16 21.44 16 16 16 Z " fill="#00ff00" transform="translate(136,104)"/>
<path d="M0 0 C36.96 0 73.92 0 112 0 C112 5.28 112 10.56 112 16 C75.04 16 38.08 16 0 16 C0 10.72 0 5.44 0 0 Z " fill="#00ff00" transform="translate(72,312)"/>
<path d="M0 0 C5.82485779 3.51996782 10.54466582 8.98962934 12.5625 15.5 C13.36764105 23.33608208 13.68710392 31.11922577 8.5625 37.5 C3.75801361 42.54521222 -0.59927055 46.10562995 -7.70703125 46.8359375 C-16.22326573 46.92983204 -22.11345494 46.6177288 -28.40234375 40.62890625 C-34.7841668 33.72505269 -35.91792252 28.29832071 -35.7421875 18.9453125 C-35.04689797 11.08319245 -31.38995981 6.95041296 -25.53515625 1.9453125 C-18.47077988 -2.92213491 -7.84396301 -3.47595223 0 0 Z M-16.8125 17.125 C-18.92456506 20.21186432 -19.04945145 21.8282913 -18.4375 25.5 C-16.9375 28 -16.9375 28 -14.4375 29.5 C-10.7657913 30.11195145 -9.14936432 29.98706506 -6.0625 27.875 C-3.95043494 24.78813568 -3.82554855 23.1717087 -4.4375 19.5 C-5.9375 17 -5.9375 17 -8.4375 15.5 C-12.1092087 14.88804855 -13.72563568 15.01293494 -16.8125 17.125 Z " fill="#00ff00" transform="translate(355.4375,425.5)"/>
<path d="M0 0 C26.4 0 52.8 0 80 0 C80 5.28 80 10.56 80 16 C53.6 16 27.2 16 0 16 C0 10.72 0 5.44 0 0 Z " fill="#00ff00" transform="translate(384,424)"/>
<path d="M0 0 C26.4 0 52.8 0 80 0 C80 5.28 80 10.56 80 16 C53.6 16 27.2 16 0 16 C0 10.72 0 5.44 0 0 Z " fill="#00ff00" transform="translate(40,104)"/>
<path d="M0 0 C15.84 0 31.68 0 48 0 C48 5.28 48 10.56 48 16 C32.16 16 16.32 16 0 16 C0 10.72 0 5.44 0 0 Z " fill="#00ff00" transform="translate(384,456)"/>
<path d="M0 0 C15.84 0 31.68 0 48 0 C48 5.28 48 10.56 48 16 C32.16 16 16.32 16 0 16 C0 10.72 0 5.44 0 0 Z " fill="#00ff00" transform="translate(40,136)"/>
<path d="M0 0 C5.28 0 10.56 0 16 0 C16 5.28 16 10.56 16 16 C10.72 16 5.44 16 0 16 C0 10.72 0 5.44 0 0 Z " fill="#00ff00" transform="translate(448,456)"/>
<path d="M0 0 C5.28 0 10.56 0 16 0 C16 5.28 16 10.56 16 16 C10.72 16 5.44 16 0 16 C0 10.72 0 5.44 0 0 Z " fill="#00ff00" transform="translate(384,360)"/>
<path d="M0 0 C5.28 0 10.56 0 16 0 C16 5.28 16 10.56 16 16 C10.72 16 5.44 16 0 16 C0 10.72 0 5.44 0 0 Z " fill="#00ff00" transform="translate(352,360)"/>
<path d="M0 0 C5.28 0 10.56 0 16 0 C16 5.28 16 10.56 16 16 C10.72 16 5.44 16 0 16 C0 10.72 0 5.44 0 0 Z " fill="#00ff00" transform="translate(320,360)"/>
<path d="M0 0 C5.28 0 10.56 0 16 0 C16 5.28 16 10.56 16 16 C10.72 16 5.44 16 0 16 C0 10.72 0 5.44 0 0 Z " fill="#00ff00" transform="translate(40,312)"/>
<path d="M0 0 C5.28 0 10.56 0 16 0 C16 5.28 16 10.56 16 16 C10.72 16 5.44 16 0 16 C0 10.72 0 5.44 0 0 Z " fill="#00ff00" transform="translate(104,248)"/>
<path d="M0 0 C5.28 0 10.56 0 16 0 C16 5.28 16 10.56 16 16 C10.72 16 5.44 16 0 16 C0 10.72 0 5.44 0 0 Z " fill="#00ff00" transform="translate(72,248)"/>
<path d="M0 0 C5.28 0 10.56 0 16 0 C16 5.28 16 10.56 16 16 C10.72 16 5.44 16 0 16 C0 10.72 0 5.44 0 0 Z " fill="#00ff00" transform="translate(40,248)"/>
<path d="M0 0 C5.28 0 10.56 0 16 0 C16 5.28 16 10.56 16 16 C10.72 16 5.44 16 0 16 C0 10.72 0 5.44 0 0 Z " fill="#00ff00" transform="translate(104,136)"/>
<path d="M0 0 C5.28 0 10.56 0 16 0 C16 5.28 16 10.56 16 16 C10.72 16 5.44 16 0 16 C0 10.72 0 5.44 0 0 Z " fill="#00ff00" transform="translate(104,40)"/>
<path d="M0 0 C5.28 0 10.56 0 16 0 C16 5.28 16 10.56 16 16 C10.72 16 5.44 16 0 16 C0 10.72 0 5.44 0 0 Z " fill="#00ff00" transform="translate(72,40)"/>
<path d="M0 0 C5.28 0 10.56 0 16 0 C16 5.28 16 10.56 16 16 C10.72 16 5.44 16 0 16 C0 10.72 0 5.44 0 0 Z " fill="#00ff00" transform="translate(40,40)"/>
</svg>