<svg version="1.1" xmlns="http://www.w3.org/2000/svg" width="512px" height="512px" transform="rotate(0) scale(1, 1)">
<path d="M0 0 C1.7837194 -0.00230769 3.56743785 -0.00548627 5.35115433 -0.00945449 C10.22638078 -0.01776878 15.10152848 -0.01369256 19.97675514 -0.00748205 C25.24472195 -0.00294475 30.5126755 -0.00994765 35.78063965 -0.01544189 C46.09021644 -0.0243239 56.39976408 -0.02241919 66.709342 -0.01661661 C75.08996253 -0.01209544 83.47057489 -0.01148919 91.85119629 -0.01366425 C93.04506179 -0.01397071 94.23892729 -0.01427718 95.46897054 -0.01459293 C97.89446736 -0.0152324 100.31996417 -0.01588082 102.74546099 -0.01653811 C125.47651202 -0.02223792 148.20754691 -0.015689 170.93859529 -0.00493738 C190.43270443 0.00399781 209.92678974 0.00244567 229.42089844 -0.0067749 C252.07195299 -0.01748371 274.72299341 -0.02168862 297.37405014 -0.01555037 C299.79050445 -0.01491329 302.20695877 -0.01428455 304.62341309 -0.01366425 C305.81228032 -0.01335569 307.00114756 -0.01304714 308.22604108 -0.01272924 C316.59426034 -0.01100414 324.96247061 -0.01391344 333.33068848 -0.01862335 C343.53206919 -0.02423895 353.73341913 -0.02270142 363.93479633 -0.01206186 C369.13726812 -0.00681433 374.33968865 -0.00473278 379.54216003 -0.01136017 C384.30903439 -0.0173407 389.0758102 -0.01400986 393.84267569 -0.00340506 C395.56257197 -0.00117995 397.28247666 -0.00228725 399.0023675 -0.00715664 C416.56352629 -0.05304333 430.67201426 1.19286828 443.97167969 13.71881104 C450.38980466 20.90047156 454.48199637 29.9060118 454.49457359 39.56816387 C454.50102249 40.82386549 454.50747138 42.0795671 454.51411569 43.37332028 C454.51117368 44.75904804 454.50803826 46.14477539 454.50473022 47.53050232 C454.50846791 49.00864672 454.51306991 50.48678915 454.51846087 51.96492845 C454.53069189 56.0233233 454.53043028 60.08163573 454.52807212 64.14004481 C454.52766397 68.51852668 454.53870297 72.89698211 454.54818726 77.27545166 C454.56479934 85.85294052 454.57029692 94.4304019 454.57141201 103.00790551 C454.57236249 109.9813568 454.57647279 116.95479903 454.58281326 123.92824745 C454.60042709 143.70325357 454.60965204 163.47823798 454.60815232 183.25325199 C454.60803245 184.85232554 454.60803245 184.85232554 454.60791016 186.48370361 C454.60782839 187.55105589 454.60774663 188.61840817 454.60766239 189.71810446 C454.6068497 207.01152077 454.62598286 224.30484994 454.65418689 241.59824105 C454.68292415 259.35889523 454.69672668 277.11950693 454.69499934 294.88018495 C454.69433567 304.8498247 454.69981747 314.81937313 454.72135544 324.78899193 C454.73957841 333.27853061 454.74390548 341.76793658 454.73033659 350.25748637 C454.72381227 354.58697841 454.72367023 358.91621593 454.74104309 363.24568367 C454.75680298 367.21409896 454.75388073 371.18205853 454.73647483 375.1504629 C454.73341129 376.58115826 454.73701288 378.01188788 454.74819498 379.44254281 C454.83046618 390.72123741 453.20591473 400.1076666 446.23730469 409.25396729 C445.68042969 410.07896729 445.12355469 410.90396729 444.54980469 411.75396729 C437.68937387 419.17064925 428.15812326 423.7874115 418.23730469 425.25396729 C416.57068949 425.26706597 414.9039069 425.26862442 413.23730469 425.25396729 C413.24729744 426.11601776 413.24729744 426.11601776 413.25749207 426.9954834 C413.32437864 433.03113147 413.36932416 439.06667256 413.40209961 445.1026001 C413.4170932 447.34873743 413.43749489 449.59484595 413.46362305 451.84088135 C413.500424 455.08802443 413.51712584 458.33477713 413.53027344 461.58209229 C413.55349922 463.06410126 413.55349922 463.06410126 413.57719421 464.5760498 C413.57996259 476.30586055 411.13855678 486.38683067 403.23730469 495.25396729 C394.52757833 503.48474738 384.61978506 506.37490821 372.79726696 506.38260174 C370.90980292 506.38743841 370.90980292 506.38743841 368.98420829 506.39237279 C367.60073409 506.39090188 366.21726 506.38933418 364.83378601 506.38768005 C363.35406763 506.38954943 361.87434974 506.39185064 360.39463264 506.39454538 C356.33658356 506.40065408 352.27855512 506.40053088 348.2205025 506.399351 C343.84070368 506.39914676 339.46091146 506.40466797 335.08111572 506.40940857 C326.50343426 506.41771049 317.92575966 506.4204632 309.34807452 506.42102095 C302.37511827 506.42149631 295.40216429 506.42355205 288.42920876 506.42672157 C268.65504858 506.43552675 248.88089383 506.44014114 229.10673168 506.4393911 C228.04098532 506.43935114 226.97523897 506.43931119 225.87719727 506.43927002 C224.27662363 506.4392087 224.27662363 506.4392087 222.64371518 506.43914614 C205.34971497 506.43873967 188.05573653 506.44830989 170.76174261 506.46240839 C152.99993625 506.47677389 135.23814051 506.48367848 117.47632819 506.48281461 C107.50620435 506.48248271 97.53610333 506.48522678 87.56598473 506.49599266 C79.07757003 506.50509993 70.5891885 506.50727103 62.10077103 506.50048324 C57.77146564 506.49721924 53.4422239 506.49715704 49.11292458 506.50583649 C45.14595174 506.51370763 41.17909297 506.51226379 37.21212289 506.50355235 C35.78080382 506.50201873 34.3494762 506.50382834 32.9181672 506.50941243 C19.85244487 506.55699086 7.86309493 505.66656363 -2.51269531 496.94146729 C-3.25519531 496.05459229 -3.99769531 495.16771729 -4.76269531 494.25396729 C-5.26542969 493.66744385 -5.76816406 493.08092041 -6.28613281 492.47662354 C-13.1834497 483.98114786 -14.20799169 475.73299117 -14.05566406 465.00006104 C-14.05141922 463.85860123 -14.04717438 462.71714142 -14.0428009 461.54109192 C-14.02611682 457.92430219 -13.98848298 454.30808631 -13.95019531 450.69146729 C-13.93513524 448.22728267 -13.92144916 445.76308925 -13.90917969 443.29888916 C-13.87624697 437.28372209 -13.8261506 431.2688857 -13.76269531 425.25396729 C-15.01896729 425.26315186 -16.27523926 425.27233643 -17.56958008 425.28179932 C-28.74369572 425.36349297 -37.38694095 421.1410167 -45.51269531 413.75396729 C-46.25519531 412.92896729 -46.99769531 412.10396729 -47.76269531 411.25396729 C-48.60832031 410.34646729 -49.45394531 409.43896729 -50.32519531 408.50396729 C-55.62481582 402.05080162 -57.88335671 394.39829292 -57.89691639 386.18307304 C-57.90137423 384.93073683 -57.90583208 383.67840061 -57.91042501 382.38811481 C-57.91033571 380.99581392 -57.91014586 379.60351303 -57.90986633 378.21121216 C-57.91316589 376.73408255 -57.91689165 375.25695384 -57.92100781 373.77982628 C-57.93102547 369.71500345 -57.93474423 365.65019539 -57.93739712 361.58536196 C-57.94130086 357.20346226 -57.95087915 352.82157425 -57.95960999 348.43968201 C-57.97937228 337.85463403 -57.98944025 327.2695851 -57.99833778 316.68452328 C-58.002721 311.69984925 -58.00808772 306.71517628 -58.01332664 301.73050308 C-58.03033858 285.16040454 -58.04483283 268.59030666 -58.05207539 252.02020073 C-58.05398528 247.72019322 -58.05590561 243.42018571 -58.05786133 239.12017822 C-58.05834507 238.05143263 -58.05882881 236.98268704 -58.05932721 235.88155521 C-58.06762781 218.56794097 -58.09296539 201.25439581 -58.12544201 183.94081174 C-58.15851283 166.16554036 -58.17652416 148.3903041 -58.17971963 130.6150018 C-58.18188468 120.63473866 -58.19063277 110.65457627 -58.2161808 100.67434311 C-58.23788808 92.17485293 -58.24593806 83.67548798 -58.23621402 75.17597322 C-58.23166943 70.84053819 -58.23356476 66.50536152 -58.25297546 62.16996193 C-58.27060863 58.19720971 -58.26960838 54.22490431 -58.25407817 50.25214733 C-58.25170232 48.81871482 -58.25602454 47.38525136 -58.26790682 45.95186614 C-58.37101821 32.68641392 -55.12179567 22.13645194 -45.95019531 12.31256104 C-32.76408455 0.003752 -17.06711005 -0.04832075 0 0 Z M-35.07128906 25.29302979 C-47.69066912 39.92335032 -41.76269531 65.48506 -41.76269531 81.25396729 C116.63730469 81.25396729 275.03730469 81.25396729 438.23730469 81.25396729 C441.30683287 50.97273111 441.30683287 50.97273111 430.23730469 24.25396729 C423.66849515 18.1928175 416.25081159 17.00528015 407.50291634 16.99949169 C406.76392737 16.99628521 406.0249384 16.99307874 405.26355582 16.98977509 C402.79770411 16.98150151 400.33209696 16.98739004 397.86624146 16.99327087 C396.07629896 16.99024899 394.28635776 16.98635932 392.49641883 16.98167831 C387.58549444 16.97139442 382.67464303 16.97358114 377.76371264 16.9778589 C372.46435429 16.9803254 367.16501354 16.97131291 361.86566162 16.96382141 C351.48669389 16.95107035 341.10775203 16.94928122 330.72877778 16.95162167 C322.29274259 16.95340451 313.85671525 16.95165593 305.420681 16.94739723 C304.22014537 16.94680204 303.01960974 16.94620685 301.78269424 16.94559363 C299.34382583 16.94438188 296.90495741 16.94316775 294.466089 16.94195125 C271.59300375 16.93107418 248.71993324 16.93323902 225.84684716 16.9393361 C204.92194669 16.94450558 183.99709277 16.93324927 163.07220151 16.91423788 C141.58583976 16.89486603 120.09950004 16.88660232 98.6131295 16.89036113 C86.55044198 16.89227414 74.48779408 16.88977584 62.42511368 16.87564659 C52.15622923 16.86374017 41.88740881 16.86231965 31.61852349 16.87443676 C26.37984811 16.88033055 21.14128985 16.88141094 15.90262222 16.86943436 C11.10481325 16.85859316 6.30721945 16.861658 1.50942062 16.87569604 C-0.22401938 16.87834781 -1.95747615 16.87596137 -3.69089971 16.86796018 C-20.78168803 16.79115387 -20.78168803 16.79115387 -35.07128906 25.29302979 Z M-41.76269531 98.25396729 C-41.82457031 145.40271729 -41.88644531 192.55146729 -41.95019531 241.12896729 C-41.97750732 256.02134521 -42.00481934 270.91372314 -42.03295898 286.25738525 C-42.04299172 299.59614459 -42.04299172 299.59614459 -42.04902649 312.93490601 C-42.05182365 318.88033609 -42.06282627 324.82568156 -42.079422 330.77108765 C-42.09854087 337.63057047 -42.1071978 344.48997217 -42.10303016 351.34948183 C-42.10122571 354.8571648 -42.10405315 358.36466653 -42.1203407 361.87231612 C-42.13527485 365.63362213 -42.1316607 369.39447571 -42.12345886 373.15579224 C-42.13219686 374.24305162 -42.14093485 375.33031101 -42.14993763 376.45051765 C-42.09391771 386.01718954 -40.63701934 394.43175369 -33.84863281 401.49224854 C-27.37958414 406.95580837 -21.99805454 408.3631631 -13.76269531 408.25396729 C-13.76127029 407.55398621 -13.75984528 406.85400513 -13.75837708 406.1328125 C-13.74042935 399.48454286 -13.69847215 392.83688785 -13.63060474 386.18893051 C-13.59654426 382.77237191 -13.57125795 379.35625045 -13.56713867 375.93951416 C-13.56197851 371.99706165 -13.51664989 368.0555266 -13.46972656 364.11334229 C-13.47365921 362.90659851 -13.47759186 361.69985474 -13.48164368 360.45654297 C-13.32332506 351.1048273 -11.2076984 342.49599658 -5.51269531 334.87896729 C7.09554824 322.84382571 20.35792468 322.81625481 36.93823242 323.09283447 C39.15249939 323.24802362 41.10798374 323.64322945 43.23730469 324.25396729 C43.43389276 325.66940143 43.61918015 327.0864076 43.79980469 328.50396729 C43.95642578 329.68732666 43.95642578 329.68732666 44.11621094 330.89459229 C44.23757818 333.25929602 43.93363726 335.00507099 43.23730469 337.25396729 C40.18833292 338.1332918 37.41334619 338.400392 34.24511719 338.46490479 C33.2925 338.49326416 32.33988281 338.52162354 31.35839844 338.55084229 C29.36899884 338.60271711 27.37938757 338.64704986 25.38964844 338.68365479 C18.43474961 338.90891467 13.95511769 339.915384 8.54980469 344.56646729 C3.74220312 350.15367992 2.11873578 355.7590526 2.10359192 363.00866699 C2.09932693 363.93650497 2.09506195 364.86434296 2.09066772 365.82029724 C2.09112091 366.82611343 2.0915741 367.83192963 2.09204102 368.8682251 C2.0886824 369.93714493 2.08532379 371.00606476 2.0818634 372.1073761 C2.07236589 375.64062666 2.07041078 379.17382975 2.06933594 382.70709229 C2.06612216 385.16703308 2.06275799 387.62697367 2.05924988 390.08691406 C2.05326135 395.24497928 2.05140966 400.40302774 2.05200195 405.56109619 C2.05210347 412.1594543 2.03846031 418.75770457 2.02122974 425.35603714 C2.01009126 430.43821706 2.00808333 435.52037108 2.00861168 440.60256195 C2.00743401 443.03453696 2.0030242 445.46651269 1.99527931 447.89847565 C1.98544378 451.30643684 1.98837183 454.71416614 1.99438477 458.12213135 C1.98876526 459.11985062 1.98314575 460.11756989 1.97735596 461.14552307 C2.01074737 468.6216325 2.08988766 476.81704712 7.36230469 482.62896729 C7.90113281 483.25545166 8.43996094 483.88193604 8.99511719 484.52740479 C16.44646601 490.26520301 24.87715861 489.6825549 33.84373474 489.64164734 C35.33328196 489.64582358 36.822826 489.65130268 38.31236416 489.65796715 C42.39294572 489.67240243 46.47332498 489.66818307 50.55391753 489.66080034 C54.95959908 489.65606624 59.36523701 489.66858063 63.77090454 489.67881775 C72.39692772 489.69600609 81.02287806 489.69684572 89.64891391 489.69160485 C96.66047692 489.68756213 103.67201842 489.68900791 110.6835804 489.6943531 C112.18091487 489.69547574 112.18091487 489.69547574 113.70849853 489.69662105 C115.73643168 489.69815254 117.76436483 489.69969088 119.79229797 489.70123602 C138.80586723 489.71496108 157.81939533 489.70952322 176.83296365 489.6980508 C194.22460532 489.68811748 211.61614062 489.70106081 229.00776588 489.724985 C246.8701797 489.7493715 264.73254397 489.75898503 282.5949741 489.75233227 C292.62152358 489.74883918 302.64799123 489.75107814 312.67452812 489.7685833 C321.20946365 489.7832996 329.74425973 489.78394812 338.2791925 489.76651239 C342.63274827 489.7579955 346.98605487 489.75586964 351.3395977 489.77116394 C355.32757406 489.78500043 359.31508754 489.7802615 363.30303705 489.7609247 C364.74305485 489.75716119 366.18310962 489.76009687 367.62309449 489.77053636 C376.54666579 489.83061225 384.56683257 489.5859994 391.39355469 483.25396729 C392.05871094 482.26396729 392.05871094 482.26396729 392.73730469 481.25396729 C393.20136719 480.59396729 393.66542969 479.93396729 394.14355469 479.25396729 C396.10289283 475.67117753 396.36448235 472.34879806 396.38447571 468.30908203 C396.39163101 467.31386032 396.39878632 466.31863861 396.40615845 465.29325867 C396.40884735 464.20747025 396.41153625 463.12168182 396.41430664 462.00299072 C396.42087784 460.85458206 396.42744904 459.7061734 396.43421936 458.52296448 C396.45394178 454.71975642 396.46561223 450.91658781 396.47558594 447.11334229 C396.47966146 445.81412086 396.48373699 444.51489944 396.48793602 443.17630768 C396.50664191 437.00934527 396.52120916 430.8424026 396.52954799 424.67541766 C396.53931517 417.57057346 396.56562582 410.46604123 396.60604888 403.36130691 C396.63991355 397.196487 396.65169833 391.0317977 396.65575218 384.86688995 C396.66062212 382.24985894 396.67224759 379.63283136 396.69079018 377.01586151 C396.71514398 373.35116255 396.7142229 369.68727713 396.70727539 366.02252197 C396.72008545 364.94483047 396.73289551 363.86713898 396.74609375 362.75679016 C396.69774088 355.74807817 395.73021025 350.01395112 390.82532215 344.73402023 C386.23621712 340.6577114 381.95481161 339.00650895 375.88555813 338.99504757 C374.81911743 338.98819878 373.75267672 338.98134998 372.65391964 338.97429365 C371.48836404 338.9769105 370.32280845 338.97952736 369.12193298 338.98222351 C367.8790832 338.97713667 366.63623343 338.97204984 365.35572153 338.96680886 C361.9085987 338.95467851 358.46167435 338.95145235 355.01454389 338.9519521 C351.29602761 338.95031465 347.57755008 338.93718784 343.85905457 338.92541504 C337.4164895 338.90654839 330.97394338 338.89483861 324.5313549 338.88787651 C315.21209636 338.87770865 305.89289516 338.85564693 296.5736664 338.8304906 C281.44813013 338.78989185 266.32258838 338.75743053 251.19702148 338.73077393 C250.29175134 338.72917662 249.3864812 338.72757932 248.45377863 338.72593362 C247.54736413 338.72433472 246.64094963 338.72273582 245.70706803 338.72108847 C232.85377965 338.69839678 220.00049694 338.67376424 207.1472168 338.64678955 C206.24274537 338.64489341 205.33827395 338.64299726 204.4063943 338.64104366 C189.33636299 338.60928756 174.26634266 338.57353923 159.19632536 338.53574806 C149.89795031 338.51268985 140.59958277 338.49374229 131.30118907 338.48008133 C124.93349385 338.47056622 118.56581123 338.45773325 112.19812768 338.44227248 C108.52173672 338.4334921 104.84536138 338.42639892 101.16896057 338.42363167 C97.18785287 338.42061736 93.206786 338.4100388 89.22569275 338.39872742 C88.05790643 338.39911355 86.89012011 338.39949968 85.68694633 338.39989752 C84.62311338 338.39565647 83.55928042 338.39141542 82.46321011 338.38704586 C81.08433421 338.38468501 81.08433421 338.38468501 79.67760223 338.38227648 C77.33884668 338.25930629 75.42075571 338.10826663 73.23730469 337.25396729 C72.05279159 333.700428 71.97088574 330.98383251 72.23730469 327.25396729 C73.77993281 325.15038348 74.91838786 324.4134257 77.23730469 323.25396729 C80.08389303 323.14584428 82.90667048 323.09905485 85.75393677 323.0957489 C86.64586003 323.09081092 87.5377833 323.08587295 88.45673454 323.08078533 C91.46317914 323.06535458 94.46960231 323.05703466 97.47607422 323.04864502 C99.6241271 323.03907088 101.77217808 323.02906107 103.92022705 323.01864624 C109.76701746 322.99154086 115.61381599 322.97056186 121.46063471 322.95064425 C127.56523281 322.92881937 133.66980573 322.90141361 139.77438354 322.87458801 C151.3411581 322.82461372 162.9079466 322.7796925 174.47474849 322.73656565 C187.64022003 322.68723369 200.80566632 322.63230061 213.97111344 322.57688606 C241.0598203 322.46299332 268.14855138 322.35617021 295.23730469 322.25396729 C295.24088722 321.21448456 295.24088722 321.21448456 295.24454212 320.15400219 C295.30363901 303.3038813 295.37915474 286.45392253 295.4730196 269.60396099 C295.51801438 261.4554899 295.55742045 253.30706288 295.58374023 245.1585083 C295.60669061 238.05748303 295.6400552 230.95659679 295.68600625 223.85568172 C295.70997868 220.09463572 295.72868099 216.33372774 295.73491859 212.57260704 C295.74207127 208.37724491 295.7724708 204.18236419 295.80493164 199.98712158 C295.80349655 198.73555771 295.80206146 197.48399384 295.80058289 196.19450378 C295.81312103 195.05446899 295.82565918 193.9144342 295.83857727 192.73985291 C295.84318624 191.74708186 295.8477952 190.75431082 295.85254383 189.7314558 C296.29835362 186.86087108 296.92999197 185.9626309 299.23730469 184.25396729 C301.17480469 183.85552979 301.17480469 183.85552979 303.23730469 183.87896729 C304.25824219 183.86736572 304.25824219 183.86736572 305.29980469 183.85552979 C307.87289699 184.38467377 308.63564097 185.17980145 310.23730469 187.25396729 C310.62206554 189.7314558 310.62206554 189.7314558 310.6360321 192.73985291 C310.65483932 194.44990509 310.65483932 194.44990509 310.67402649 196.19450378 C310.67187386 198.07184959 310.67187386 198.07184959 310.66967773 199.98712158 C310.67986938 201.30429169 310.69006104 202.62146179 310.70056152 203.97854614 C310.72818258 207.59191144 310.73742288 211.20511937 310.74341559 214.81857657 C310.75278606 218.59428908 310.77898831 222.36988341 310.80342102 226.14552307 C310.84712639 233.29588358 310.87564848 240.44622121 310.8987444 247.59667474 C310.9257745 255.73692326 310.9696873 263.87705315 311.01503313 272.01721704 C311.10793719 288.76274037 311.17959145 305.50828493 311.23730469 322.25396729 C312.10459198 322.25983353 312.97187927 322.26569977 313.865448 322.27174377 C322.07411902 322.32985963 330.2825234 322.40204334 338.49093437 322.4896822 C342.71008232 322.53424196 346.9291369 322.57352896 351.1484375 322.60040283 C355.22702424 322.62658053 359.30524888 322.66708278 363.38360977 322.71715355 C364.93272492 322.73372515 366.48190255 322.74529945 368.0310936 322.75158119 C380.88031503 322.80891099 392.28646296 323.96976055 402.14746094 333.00396729 C409.58306607 340.83424361 412.2643102 350.15229626 412.44262695 360.800354 C412.46257217 361.86100067 412.4825174 362.92164734 412.50306702 364.01443481 C412.52813576 365.7069487 412.52813576 365.7069487 412.55371094 367.43365479 C412.57449203 368.60155548 412.59527313 369.76945618 412.61668396 370.9727478 C412.68189643 374.69142966 412.7409327 378.41018018 412.79980469 382.12896729 C412.84301682 384.65501596 412.88663197 387.18105777 412.93066406 389.70709229 C413.03754877 395.88931206 413.13936704 402.07159964 413.23730469 408.25396729 C415.14552002 408.03571289 415.14552002 408.03571289 417.09228516 407.81304932 C417.80786591 407.73120392 418.52344666 407.64935852 419.26071167 407.56503296 C425.1822265 406.63313652 430.31886994 401.94613932 433.88959283 397.33707988 C438.59766664 390.05996959 438.66541559 381.53766644 438.59806824 373.15579224 C438.60063151 371.97526846 438.60319479 370.79474468 438.60583574 369.57844746 C438.60989957 366.32865311 438.60061301 363.07922425 438.58550155 359.82947302 C438.57247772 356.31496085 438.57693511 352.80046398 438.57920837 349.28593445 C438.58077712 343.20572812 438.57140979 337.12561879 438.55449486 331.04543686 C438.53005511 322.25466259 438.52229451 313.46393496 438.51853088 304.67313041 C438.51197419 290.40870834 438.49203429 276.1443379 438.46362305 261.87994385 C438.43606221 248.0280584 438.41487297 234.17618708 438.40209961 220.32427979 C438.40129562 219.46093639 438.40049163 218.597593 438.39966327 217.70808768 C438.39342456 210.9556083 438.38755394 204.2031286 438.38179958 197.45064878 C438.35352742 164.38504089 438.29316572 131.31956232 438.23730469 98.25396729 C396.32730469 98.25396729 354.41730469 98.25396729 311.23730469 98.25396729 C310.90730469 119.04396729 310.57730469 139.83396729 310.23730469 161.25396729 C307.23730469 164.25396729 307.23730469 164.25396729 305.29980469 164.65240479 C304.61917969 164.64467041 303.93855469 164.63693604 303.23730469 164.62896729 C302.21636719 164.64056885 302.21636719 164.64056885 301.17480469 164.65240479 C299.23730469 164.25396729 299.23730469 164.25396729 296.23730469 161.25396729 C295.90730469 140.46396729 295.57730469 119.67396729 295.23730469 98.25396729 C184.02730469 98.25396729 72.81730469 98.25396729 -41.76269531 98.25396729 Z " fill="#00ff00" transform="translate(57.7626953125,2.74603271484375)"/>
<path d="M0 0 C0.70213623 -0.0038269 1.40427246 -0.00765381 2.12768555 -0.01159668 C3.61720203 -0.01431869 5.10676608 -0.00693701 6.59619141 0.00976562 C8.84000203 0.03092004 11.08051634 0.01011348 13.32421875 -0.015625 C22.23516758 -0.03384362 31.7629193 0.139331 38.86279297 6.23901367 C44.52522639 12.23416992 45.27793547 18.48435091 45.12890625 26.4921875 C44.57563824 33.11438003 42.64152061 38.76472939 37.875 43.53125 C36.22321782 44.55564904 34.55809959 45.55916278 32.875 46.53125 C33.23327881 47.14121826 33.59155762 47.75118652 33.96069336 48.37963867 C35.58535476 51.15509092 37.19900227 53.93679421 38.8125 56.71875 C39.37646484 57.67845703 39.94042969 58.63816406 40.52148438 59.62695312 C41.05966797 60.55830078 41.59785156 61.48964844 42.15234375 62.44921875 C42.89859009 63.72962036 42.89859009 63.72962036 43.65991211 65.03588867 C44.90724015 67.59745987 45.56224474 69.70350699 45.875 72.53125 C44.10328785 76.66524502 41.97592336 78.7192141 37.875 80.53125 C34.8125 80.96875 34.8125 80.96875 31.875 80.53125 C28.33143364 77.60477253 26.59710201 74.38085582 24.6328125 70.26953125 C24.03596803 69.05624095 23.43828673 67.84336202 22.83984375 66.63085938 C21.91341281 64.73243935 20.99416318 62.83143634 20.08935547 60.92260742 C19.20657379 59.06971769 18.29710451 57.23203144 17.3828125 55.39453125 C16.58834717 53.74384644 16.58834717 53.74384644 15.77783203 52.05981445 C14.05020115 49.22436163 14.05020115 49.22436163 10.65576172 48.66479492 C9.73811035 48.6207251 8.82045898 48.57665527 7.875 48.53125 C7.89594727 49.36374268 7.91689453 50.19623535 7.93847656 51.05395508 C8.00668816 54.14571034 8.05681724 57.23708197 8.09472656 60.3293457 C8.12471281 62.32464014 8.17553786 64.31958582 8.2265625 66.31445312 C8.23945313 67.56806641 8.25234375 68.82167969 8.265625 70.11328125 C8.28657227 71.27061768 8.30751953 72.4279541 8.32910156 73.62036133 C7.875 76.53125 7.875 76.53125 6.00292969 78.40527344 C3.46634409 79.74748693 1.73692332 79.96438731 -1.125 79.96875 C-1.970625 79.98808594 -2.81625 80.00742187 -3.6875 80.02734375 C-7.01123403 79.35087865 -8.04237204 78.19215929 -10.125 75.53125 C-10.62620544 72.38171387 -10.62620544 72.38171387 -10.62670898 68.62304688 C-10.63211197 67.93638443 -10.63751495 67.24972198 -10.64308167 66.54225159 C-10.65556535 64.2777261 -10.63908214 62.014473 -10.62109375 59.75 C-10.62124875 58.17346124 -10.62273787 56.59692209 -10.62550354 55.02038574 C-10.62688736 51.71833423 -10.61433286 48.41671717 -10.59155273 45.11474609 C-10.56316776 40.88436736 -10.56590545 36.6547104 -10.57864285 32.42427826 C-10.58560137 29.16943203 -10.57780883 25.91475233 -10.56538582 22.65992737 C-10.56087298 21.10023131 -10.56053307 19.54051737 -10.56445122 17.9808197 C-10.56736525 15.79999211 -10.55084904 13.62015542 -10.52905273 11.43945312 C-10.52364975 10.19909302 -10.51824677 8.95873291 -10.51268005 7.68078613 C-9.65432356 0.70744623 -6.52931409 0.0227163 0 0 Z M7.875 16.53125 C7.875 22.80125 7.875 29.07125 7.875 35.53125 C17.22670169 36.03160654 17.22670169 36.03160654 25.5078125 32.23046875 C27.23284598 30.08649856 27.30784401 28.88466085 27.3125 26.15625 C27.33183594 25.40601563 27.35117187 24.65578125 27.37109375 23.8828125 C26.6473289 20.45205314 25.46946953 18.88648386 22.875 16.53125 C20.01791262 16.15131817 17.93527013 16.04742904 15.125 16.21875 C12.7325 16.321875 10.34 16.425 7.875 16.53125 Z " fill="#00ff00" transform="translate(239.125,375.46875)"/>
<path d="M0 0 C2.19273847 0.00313317 4.38409114 -0.02020528 6.57666016 -0.0456543 C15.37934176 -0.08646384 24.50162965 -0.10637589 31.47119141 6.06567383 C32.00486328 6.51426758 32.53853516 6.96286133 33.08837891 7.42504883 C37.17765118 12.55253013 38.13059153 17.83238699 38.03369141 24.25317383 C38.02611816 24.95611572 38.01854492 25.65905762 38.01074219 26.38330078 C37.80436677 32.87508799 36.5712366 37.24196642 32.06494141 41.89770508 C28.22325752 45.31567383 28.22325752 45.31567383 25.59619141 45.31567383 C25.99523682 46.01128418 26.39428223 46.70689453 26.80541992 47.42358398 C28.60710174 50.58647211 30.3830028 53.7631258 32.15869141 56.94067383 C32.78710938 58.03508789 33.41552734 59.12950195 34.06298828 60.25708008 C34.65273437 61.32055664 35.24248047 62.3840332 35.85009766 63.47973633 C36.67489624 64.94080811 36.67489624 64.94080811 37.51635742 66.43139648 C38.81584565 69.90237861 38.64176621 71.78829169 37.59619141 75.31567383 C34.49839945 78.25460465 32.01471766 80.09501419 27.78369141 80.75317383 C24.09822844 80.24732597 23.23167982 79.25001173 20.99438477 76.40380859 C17.96561702 71.88048913 15.66974106 66.94794311 13.28369141 62.06567383 C12.73390625 60.96481445 12.18412109 59.86395508 11.61767578 58.72973633 C7.59619141 50.59684619 7.59619141 50.59684619 7.59619141 48.31567383 C5.28619141 48.31567383 2.97619141 48.31567383 0.59619141 48.31567383 C0.61190186 49.18369629 0.6276123 50.05171875 0.64379883 50.94604492 C0.69488695 54.16265669 0.73252168 57.37906195 0.76098633 60.59594727 C0.77608498 61.98892005 0.79656585 63.3818452 0.82250977 64.7746582 C0.85884262 66.77510268 0.87430333 68.77589209 0.88916016 70.77661133 C0.90487061 71.9810791 0.92058105 73.18554688 0.93676758 74.42651367 C0.82437744 75.37993652 0.7119873 76.33335937 0.59619141 77.31567383 C-2.75578702 79.55032612 -3.98172106 79.58676032 -7.90380859 79.56567383 C-9.34240234 79.5734082 -9.34240234 79.5734082 -10.81005859 79.58129883 C-13.40380859 79.31567383 -13.40380859 79.31567383 -16.40380859 77.31567383 C-16.70651736 74.872761 -16.81348716 72.68137024 -16.79199219 70.2355957 C-16.79724915 69.50699844 -16.8025061 68.77840118 -16.80792236 68.02772522 C-16.82115437 65.61307501 -16.81237341 63.19908104 -16.80224609 60.78442383 C-16.80426592 59.11055372 -16.80717659 57.43668447 -16.8109436 55.76281738 C-16.81537128 52.25219354 -16.80892179 48.74179846 -16.79492188 45.23120117 C-16.77782958 40.72483869 -16.78766842 36.21901217 -16.80563927 31.71266937 C-16.81646524 28.25547222 -16.81303627 24.79840272 -16.80525589 21.34120178 C-16.80325059 19.67936643 -16.8057247 18.01751958 -16.81269455 16.35569763 C-16.82028976 14.03540216 -16.80873306 11.715982 -16.79199219 9.39575195 C-16.79806488 8.70477921 -16.80413757 8.01380646 -16.81039429 7.30189514 C-16.78475952 5.39001465 -16.78475952 5.39001465 -16.40380859 2.31567383 C-11.5086694 -0.9477523 -5.73008678 -0.01713315 0 0 Z M0.59619141 16.31567383 C0.59619141 22.58567383 0.59619141 28.85567383 0.59619141 35.31567383 C9.32347484 35.68365746 9.32347484 35.68365746 17.59619141 33.31567383 C19.66504295 30.18105028 20.72326453 27.95580371 20.42822266 24.14770508 C19.58131639 20.17376029 19.03660067 18.60928 15.59619141 16.31567383 C12.98480601 16.17297517 10.51241851 16.12794679 7.90869141 16.19067383 C4.28900391 16.25254883 4.28900391 16.25254883 0.59619141 16.31567383 Z " fill="#00ff00" transform="translate(183.40380859375,375.684326171875)"/>
<path d="M0 0 C0.75531006 0.00217529 1.51062012 0.00435059 2.28881836 0.0065918 C4.56283912 0.00972041 6.83551824 -0.01358581 9.109375 -0.0390625 C19.32078183 -0.08477724 28.38039326 0.29619724 36.09179688 7.68554688 C41.32186246 13.62429344 41.05430285 20.01887789 40.88085938 27.65039062 C40.26186036 34.18813308 38.36192019 39.00169734 33.40820312 43.38476562 C30.53320312 45.32226562 30.53320312 45.32226562 28.53320312 45.32226562 C28.93224854 46.01787598 29.33129395 46.71348633 29.74243164 47.43017578 C31.54411346 50.59306391 33.32001452 53.7697176 35.09570312 56.94726562 C35.72412109 58.04167969 36.35253906 59.13609375 37 60.26367188 C37.58974609 61.32714844 38.17949219 62.390625 38.78710938 63.48632812 C39.61190796 64.9473999 39.61190796 64.9473999 40.45336914 66.43798828 C41.75285737 69.90897041 41.57877793 71.79488348 40.53320312 75.32226562 C37.43541117 78.26119645 34.95172938 80.10160599 30.72070312 80.75976562 C27.01347512 80.25093041 26.14232597 79.20579632 23.89135742 76.34350586 C21.09657579 72.18423979 19.0126299 67.64256295 16.84570312 63.13476562 C15.88512217 61.16130118 14.922952 59.18860927 13.95898438 57.21679688 C13.54044189 56.34901611 13.12189941 55.48123535 12.69067383 54.5871582 C11.49489003 52.13988976 11.49489003 52.13988976 9.53320312 49.32226562 C6.46763714 48.58883134 6.46763714 48.58883134 3.53320312 48.32226562 C3.55415039 49.1547583 3.57509766 49.98725098 3.59667969 50.8449707 C3.66489128 53.93672597 3.71502036 57.02809759 3.75292969 60.12036133 C3.78291593 62.11565576 3.83374098 64.11060145 3.88476562 66.10546875 C3.89765625 67.35908203 3.91054688 68.61269531 3.92382812 69.90429688 C3.94477539 71.0616333 3.96572266 72.21896973 3.98730469 73.41137695 C3.53320312 76.32226562 3.53320312 76.32226562 1.66333008 78.20068359 C-0.9096774 79.55545682 -2.63292304 79.69155727 -5.52929688 79.63476562 C-6.81513672 79.62896484 -6.81513672 79.62896484 -8.12695312 79.62304688 C-10.46679688 79.32226562 -10.46679688 79.32226562 -13.46679688 77.32226562 C-13.76422004 74.8788479 -13.86616484 72.68775042 -13.83911133 70.2421875 C-13.84276199 69.51359024 -13.84641266 68.78499298 -13.85017395 68.03431702 C-13.85829726 65.61964802 -13.84465517 63.20564638 -13.83007812 60.79101562 C-13.82955973 59.11714681 -13.83007663 57.44327739 -13.83158875 55.76940918 C-13.83149894 52.25877817 -13.82105326 48.74837643 -13.80297852 45.23779297 C-13.78029097 40.73151777 -13.77974634 36.22557776 -13.78649616 31.71926117 C-13.78983323 28.26207485 -13.78321103 24.80496534 -13.77336693 21.34779358 C-13.7695101 19.68596295 -13.76836871 18.02412378 -13.76995277 16.36228943 C-13.77032249 14.04214112 -13.75772989 11.72242701 -13.74145508 9.40234375 C-13.7439325 8.711371 -13.74640991 8.02039825 -13.7489624 7.30848694 C-13.646717 -1.7967311 -7.34899284 0.02809985 0 0 Z M3.53320312 16.32226562 C3.53320312 22.59226562 3.53320312 28.86226563 3.53320312 35.32226562 C9.6565318 35.49002805 14.80544818 35.58950196 20.53320312 33.32226562 C22.65654599 30.13725132 22.85267024 29.07770256 22.90820312 25.38476562 C22.95074219 24.10279297 22.95074219 24.10279297 22.99414062 22.79492188 C22.35723102 19.37827965 21.3896422 18.2945688 18.53320312 16.32226562 C15.76494063 16.02776961 13.5191829 15.938832 10.78320312 16.07226562 C8.39070313 16.15476562 5.99820312 16.23726563 3.53320312 16.32226562 Z " fill="#00ff00" transform="translate(368.466796875,375.677734375)"/>
<path d="M0 0 C4.73891641 3.49915099 6.55434719 7.95096068 7.72387695 13.58081055 C8.23110911 17.40165672 8.32224704 21.16505858 8.328125 25.01171875 C8.3331176 26.16555305 8.3331176 26.16555305 8.33821106 27.34269714 C8.34325249 28.96389167 8.34562025 30.58509647 8.34545898 32.20629883 C8.34764036 34.66179881 8.3658115 37.11684523 8.38476562 39.57226562 C8.45996249 60.12742555 8.45996249 60.12742555 2.16015625 67.8671875 C-3.75327127 73.78061502 -10.72499134 75.04960201 -18.83984375 75.2421875 C-26.9969052 75.0314561 -34.23283074 73.73391589 -40.22631836 67.81201172 C-47.23228612 59.36753613 -46.45968481 47.8829922 -46.36132812 37.55175781 C-46.33988328 34.87212637 -46.36120857 32.19517511 -46.38671875 29.515625 C-46.42070917 9.38862402 -46.42070917 9.38862402 -40.22631836 1.92236328 C-29.58596816 -8.59090347 -11.94976225 -7.35760308 0 0 Z M-27.83984375 15.8671875 C-28.56192953 18.74709444 -28.54181473 21.53434551 -28.50390625 24.4921875 C-28.50868988 25.3167041 -28.51347351 26.1412207 -28.5184021 26.99072266 C-28.52179497 28.72886063 -28.51263528 30.46706294 -28.49169922 32.20507812 C-28.46492104 34.85952575 -28.49146371 37.50974575 -28.5234375 40.1640625 C-28.52013329 41.85678013 -28.51372681 43.54949513 -28.50390625 45.2421875 C-28.5140274 46.03189941 -28.52414856 46.82161133 -28.53457642 47.63525391 C-28.44460595 51.8839294 -28.19106771 53.43008745 -25.42944336 56.86694336 C-22.88534366 58.83204271 -21.9168333 59.53579351 -18.77734375 59.4296875 C-14.85789734 59.19888862 -14.85789734 59.19888862 -12.40234375 56.9921875 C-9.49545294 53.03881599 -9.66327529 49.73077658 -9.63671875 44.97265625 C-9.62816864 43.79610222 -9.62816864 43.79610222 -9.6194458 42.59577942 C-9.60999235 40.93390249 -9.60346045 39.27200678 -9.59960938 37.61010742 C-9.58992146 35.07502212 -9.55890971 32.54075371 -9.52734375 30.00585938 C-9.52081178 28.39062981 -9.51556207 26.77539445 -9.51171875 25.16015625 C-9.49937195 24.40478073 -9.48702515 23.64940521 -9.4743042 22.87113953 C-9.49327725 18.35774965 -10.0300107 15.4470311 -12.83984375 11.8671875 C-19.27841702 8.64790087 -23.65795782 10.64184571 -27.83984375 15.8671875 Z " fill="#00ff00" transform="translate(336.83984375,381.1328125)"/>
<path d="M0 0 C1.2759201 -0.00426498 2.55184021 -0.00852997 3.86642456 -0.01292419 C5.2884827 -0.01257465 6.71054081 -0.0121131 8.13259888 -0.0115509 C9.62392257 -0.01454168 11.11524549 -0.01794402 12.60656738 -0.02172852 C16.66444348 -0.03058149 20.7222985 -0.03290719 24.78018332 -0.0335443 C28.16492599 -0.03449252 31.54966372 -0.03816985 34.93440449 -0.0417164 C42.91909161 -0.04986606 50.90376745 -0.05230018 58.88845825 -0.05158997 C67.13066797 -0.05098918 75.37281223 -0.0615399 83.61500537 -0.07733363 C90.68596578 -0.09040124 97.75690477 -0.09577418 104.82787716 -0.09513456 C109.05338471 -0.09487932 113.27883413 -0.09774464 117.50432968 -0.10831261 C121.47860184 -0.11798038 125.45276016 -0.11808189 129.42703629 -0.11079597 C130.88633642 -0.10974845 132.3456436 -0.11212296 133.80493164 -0.11815643 C135.79588415 -0.12585533 137.7868753 -0.1200417 139.77783203 -0.11352539 C141.44975522 -0.11434254 141.44975522 -0.11434254 143.15545464 -0.1151762 C146.03322549 0.1352203 147.63809716 0.52754345 150.01589966 2.13371277 C152.49628873 5.85429637 152.47927169 7.73167847 152.01589966 12.13371277 C150.14881461 14.49868716 148.69528535 15.79401992 146.01589966 17.13371277 C144.02312273 17.23197382 142.02699507 17.26442369 140.03179932 17.26742554 C138.75587921 17.27169052 137.47995911 17.27595551 136.16537476 17.28034973 C134.74331662 17.28000019 133.32125851 17.27953864 131.89920044 17.27897644 C130.40787674 17.28196722 128.91655383 17.28536956 127.42523193 17.28915405 C123.36735584 17.29800702 119.30950082 17.30033272 115.251616 17.30096984 C111.86687333 17.30191806 108.4821356 17.30559539 105.09739482 17.30914193 C97.1127077 17.3172916 89.12803186 17.31972572 81.14334106 17.3190155 C72.90113135 17.31841472 64.65898709 17.32896544 56.41679394 17.34475917 C49.34583354 17.35782677 42.27489454 17.36319972 35.20392215 17.36256009 C30.9784146 17.36230485 26.75296518 17.36517018 22.52746964 17.37573814 C18.55319747 17.38540591 14.57903916 17.38550742 10.60476303 17.37822151 C9.14546289 17.37717399 7.68615572 17.3795485 6.22686768 17.38558197 C4.23591517 17.39328086 2.24492402 17.38746724 0.25396729 17.38095093 C-0.86064817 17.3814957 -1.97526363 17.38204046 -3.12365532 17.38260174 C-5.97218355 17.13474966 -7.59985813 16.66954583 -9.98410034 15.13371277 C-12.08089437 12.43783473 -11.97920855 11.04076877 -11.79660034 7.57121277 C-11.00897752 4.23896238 -10.68728421 3.08000516 -7.98410034 1.13371277 C-5.24488601 -0.2358944 -3.06737595 0.00461498 0 0 Z " fill="#00ff00" transform="translate(177.98410034179688,43.86628723144531)"/>
<path d="M0 0 C0.87092789 -0.00945648 1.74185577 -0.01891296 2.63917542 -0.02865601 C4.03776039 -0.01954697 4.03776039 -0.01954697 5.46459961 -0.01025391 C6.42845078 -0.01312408 7.39230194 -0.01599426 8.38536072 -0.01895142 C10.42032459 -0.02099074 12.45530812 -0.01547012 14.49023438 -0.00292969 C17.60908674 0.01314311 20.72664661 -0.00279207 23.84545898 -0.02197266 C25.82267539 -0.01999054 27.79989099 -0.01614753 29.77709961 -0.01025391 C30.71151382 -0.0163266 31.64592804 -0.02239929 32.60865784 -0.02865601 C33.47643356 -0.01919952 34.34420929 -0.00974304 35.23828125 0 C36.00120987 0.00238678 36.76413849 0.00477356 37.55018616 0.00723267 C40.09133647 0.49023134 40.98382022 1.36934383 42.55444336 3.38818359 C42.91772461 5.54443359 42.91772461 5.54443359 42.86694336 7.88818359 C42.86307617 8.66162109 42.85920898 9.43505859 42.85522461 10.23193359 C42.55444336 12.38818359 42.55444336 12.38818359 40.55444336 15.38818359 C37.13692683 16.52735577 34.51956399 16.5015684 30.91772461 16.48583984 C28.96962891 16.48100586 28.96962891 16.48100586 26.98217773 16.47607422 C25.61043228 16.46771891 24.23868749 16.45925396 22.86694336 16.45068359 C21.48348141 16.44566695 20.10001773 16.44110433 18.71655273 16.43701172 C15.3291644 16.42520897 11.94179846 16.40727326 8.55444336 16.38818359 C8.55444336 21.99818359 8.55444336 27.60818359 8.55444336 33.38818359 C9.89120117 33.33017578 11.22795898 33.27216797 12.60522461 33.21240234 C14.35909601 33.16550739 16.11300509 33.12000694 17.86694336 33.07568359 C19.18855469 33.0128418 19.18855469 33.0128418 20.53686523 32.94873047 C22.97006802 32.90247186 25.16597081 32.91686907 27.55444336 33.38818359 C30.18836548 36.29037556 30.57008044 37.60632968 30.49194336 41.51318359 C29.35698102 44.99373476 28.75923316 45.67258968 25.55444336 47.38818359 C22.62522295 47.74870303 19.74990105 47.67020368 16.80444336 47.57568359 C14.08194336 47.51380859 11.35944336 47.45193359 8.55444336 47.38818359 C8.55444336 52.99818359 8.55444336 58.60818359 8.55444336 64.38818359 C11.85895508 64.33597656 11.85895508 64.33597656 15.23022461 64.28271484 C17.36489567 64.25931577 19.49955243 64.24110129 21.63427734 64.22338867 C23.11741535 64.20830591 24.60050879 64.1878367 26.08349609 64.16186523 C28.21585081 64.12545744 30.34761571 64.10845286 32.48022461 64.09521484 C34.40475464 64.07164917 34.40475464 64.07164917 36.36816406 64.04760742 C39.55444336 64.38818359 39.55444336 64.38818359 41.47387695 65.77172852 C42.90347461 67.91031101 42.92232557 69.33208174 42.86694336 71.88818359 C42.86307617 72.66162109 42.85920898 73.43505859 42.85522461 74.23193359 C42.55444336 76.38818359 42.55444336 76.38818359 40.55444336 79.38818359 C38.58778381 79.7624054 38.58778381 79.7624054 36.15234375 79.76049805 C35.2412233 79.76672684 34.33010284 79.77295563 33.39137268 79.77937317 C31.91168251 79.76555855 31.91168251 79.76555855 30.40209961 79.75146484 C29.39102646 79.75196335 28.37995331 79.75246185 27.33824158 79.75297546 C25.19715412 79.75063203 23.05606405 79.74088772 20.91503906 79.72436523 C17.63378292 79.70080451 14.35334051 79.7037984 11.07202148 79.71044922 C8.99454267 79.70487162 6.91706729 79.69776123 4.83959961 79.68896484 C3.85516373 79.68987625 2.87072784 79.69078766 1.85646057 79.69172668 C0.48505165 79.67742867 0.48505165 79.67742867 -0.9140625 79.6628418 C-2.12079872 79.65593071 -2.12079872 79.65593071 -3.35191345 79.64888 C-5.44555664 79.38818359 -5.44555664 79.38818359 -8.44555664 77.38818359 C-8.83323669 74.35853577 -8.83323669 74.35853577 -8.84960938 70.41577148 C-8.85647263 69.69853409 -8.86333588 68.98129669 -8.8704071 68.24232483 C-8.88874918 65.86496332 -8.88482719 63.48825712 -8.87915039 61.11083984 C-8.88370888 59.46178471 -8.88901345 57.81273148 -8.89503479 56.16368103 C-8.90398058 52.7043385 -8.90152648 49.24522664 -8.89160156 45.78588867 C-8.88011365 41.34901192 -8.90031256 36.91293122 -8.9295187 32.4761591 C-8.94785146 29.06952339 -8.94759408 25.66307943 -8.94188118 22.25640678 C-8.94172758 20.62050701 -8.9478034 18.98459455 -8.96017265 17.34874153 C-8.97502546 15.06198115 -8.96444957 12.77670369 -8.94726562 10.48999023 C-8.94709946 9.18808243 -8.94693329 7.88617462 -8.94676208 6.54481506 C-8.44555664 3.38818359 -8.44555664 3.38818359 -6.69204712 1.46858215 C-4.24488421 0.29167475 -2.7028355 0.00844686 0 0 Z " fill="#00ff00" transform="translate(117.445556640625,375.61181640625)"/>
<path d="M0 0 C1.81486656 -0.01908669 1.81486656 -0.01908669 3.66639709 -0.03855896 C5.00404553 -0.03237674 6.34169207 -0.02577072 7.67933655 -0.01878357 C9.09052432 -0.02584223 10.50170451 -0.03458703 11.91287231 -0.04489136 C15.74355147 -0.06740225 19.57381779 -0.06444175 23.40453792 -0.05556989 C26.60291334 -0.05046114 29.80121111 -0.05775166 32.99957854 -0.06504196 C40.54524394 -0.08204656 48.09070715 -0.07846982 55.6363678 -0.06175232 C63.41980528 -0.04483095 71.20268195 -0.06066407 78.98605818 -0.0929752 C85.66985567 -0.11967005 92.35347857 -0.12694741 99.03732401 -0.11846012 C103.02875212 -0.11353043 107.01984279 -0.11574829 111.01122856 -0.13624763 C114.76498834 -0.1546034 118.51794152 -0.14864857 122.27165794 -0.12404823 C123.64829353 -0.11903979 125.02499056 -0.1225312 126.401577 -0.13519669 C138.10187843 -0.23432046 138.10187843 -0.23432046 141.40835571 2.86660767 C143.48417892 6.1434948 143.80028329 7.70424985 143.08583069 11.5146637 C140.22369718 16.11452112 140.22369718 16.11452112 137.30018425 17.14260483 C134.63717711 17.59004712 132.10779162 17.64711854 129.40617371 17.65510559 C128.24819275 17.66081573 127.09021179 17.66652588 125.8971405 17.67240906 C124.63054596 17.67352692 123.36395142 17.67464478 122.05897522 17.67579651 C120.70853032 17.68042699 119.35808673 17.68545196 118.00764465 17.69084167 C114.34230678 17.70394411 110.67698721 17.71040622 107.01162958 17.71485233 C104.72069586 17.71778607 102.42976712 17.72189141 100.13883591 17.72635651 C92.96807731 17.74002471 85.7973301 17.74969512 78.62655938 17.7535584 C70.35413346 17.75804 62.0818727 17.77559536 53.809497 17.80455899 C47.41107061 17.82618265 41.01269067 17.83626301 34.61422813 17.83759952 C30.79441656 17.8386469 26.97476038 17.84454065 23.15498734 17.86241913 C19.56147649 17.87891213 15.96823768 17.88104952 12.37470245 17.87228012 C10.43164084 17.87114418 8.4885882 17.88485139 6.545578 17.89903259 C-4.18070595 17.847696 -4.18070595 17.847696 -8.91416931 14.5146637 C-10.91644376 11.99005679 -10.92414997 10.75419938 -10.78916931 7.5146637 C-9.05943959 1.5841618 -5.95691505 0.01589826 0 0 Z " fill="#00ff00" transform="translate(122.91416931152344,223.48533630371094)"/>
<path d="M0 0 C0.93093979 -0.0071553 1.86187958 -0.01431061 2.82102966 -0.02168274 C3.84548691 -0.02437164 4.86994415 -0.02706055 5.92544556 -0.02983093 C7.54021538 -0.03968773 7.54021538 -0.03968773 9.18760681 -0.04974365 C12.76119042 -0.06950573 16.33473199 -0.08114459 19.90835571 -0.09111023 C21.12614338 -0.09518576 22.34393105 -0.09926128 23.59862137 -0.10346031 C30.04170819 -0.12433159 36.48477363 -0.13862981 42.92788696 -0.147995 C49.59532222 -0.15806503 56.26237888 -0.19348613 62.92970848 -0.23316669 C68.04600665 -0.25926095 73.16222466 -0.26768035 78.27858353 -0.27127647 C80.73703894 -0.27615957 83.19549037 -0.2878221 85.65388107 -0.30631447 C89.08972605 -0.3305566 92.52469823 -0.32976809 95.96060181 -0.32279968 C96.98101059 -0.33560974 98.00141937 -0.3484198 99.05274963 -0.36161804 C105.93856152 -0.31056651 105.93856152 -0.31056651 109.17706299 2.02810669 C110.8590074 4.58240136 111.49923417 6.07344113 111.57241821 9.14717102 C109.29530978 14.78572524 109.29530978 14.78572524 106.57241821 16.14717102 C105.09909561 16.24554052 103.62142938 16.28220035 102.14483643 16.28761292 C101.21389664 16.29332306 100.28295685 16.2990332 99.32380676 16.30491638 C98.29934952 16.30603424 97.27489227 16.3071521 96.21939087 16.30830383 C95.14287766 16.31326874 94.06636444 16.31823364 92.95722961 16.323349 C89.38364023 16.33799583 85.81009522 16.34477661 82.23648071 16.35029602 C79.76027423 16.35604511 77.28406777 16.36180287 74.80786133 16.36756897 C69.61088859 16.37808595 64.41393135 16.38392415 59.21694946 16.3874054 C52.54957944 16.39210702 45.88244226 16.41692557 39.21512794 16.44537735 C34.09883012 16.46397728 28.98258168 16.46920791 23.8662529 16.47074127 C21.40780904 16.47377398 18.94936617 16.48182319 16.49095535 16.49492645 C13.05522278 16.51193241 9.6199919 16.5101199 6.18423462 16.50361633 C5.16382584 16.51283112 4.14341705 16.5220459 3.09208679 16.53153992 C2.15550735 16.52597076 1.21892792 16.52040161 0.25396729 16.5146637 C-0.55830008 16.51613026 -1.37056744 16.51759682 -2.20744896 16.51910782 C-5.0200234 16.04791983 -6.37672839 15.10741077 -8.42758179 13.14717102 C-9.53131557 9.17372941 -9.84301761 7.0571733 -8.11508179 3.27217102 C-5.57766154 0.07690108 -3.90799679 0.02057976 0 0 Z " fill="#00ff00" transform="translate(88.42758178710938,125.85282897949219)"/>
<path d="M0 0 C0.80224503 -0.00350464 1.60449005 -0.00700928 2.43104553 -0.01062012 C5.0745619 -0.01939989 7.71780918 -0.01360157 10.36132812 -0.00683594 C12.20308483 -0.00818367 14.04484119 -0.0101251 15.88659668 -0.01263428 C19.74327996 -0.01558045 23.59987048 -0.01130417 27.45654297 -0.00195312 C32.39624159 0.00944109 37.33572286 0.00287892 42.27541351 -0.00909805 C46.07755161 -0.01633031 49.8796383 -0.01402244 53.68177795 -0.00884247 C55.50301642 -0.00750975 57.32425957 -0.00914044 59.14549255 -0.01380157 C61.6921726 -0.01888922 64.23850225 -0.01112516 66.78515625 0 C67.53543594 -0.00404846 68.28571564 -0.00809692 69.05873108 -0.01226807 C73.09885144 0.02037395 76.30195267 0.34572027 79.89257812 2.25878906 C82.27485919 5.11752634 82.90635829 6.5835609 82.83007812 10.32128906 C81.70577984 13.84409037 80.85660528 15.04603256 77.89257812 17.25878906 C74.91535993 17.65333045 72.30848581 17.80606359 69.33203125 17.77636719 C68.46980453 17.78337646 67.60757782 17.79038574 66.71922302 17.79760742 C63.87043 17.81520595 61.02263117 17.80355818 58.17382812 17.79003906 C56.19372365 17.79273344 54.21362046 17.79661541 52.23352051 17.80163574 C48.08410034 17.80753331 43.93502465 17.79895944 39.78564453 17.78027344 C34.4655948 17.75748383 29.14635221 17.77060552 23.82633209 17.79456329 C19.73767002 17.80901423 15.64919945 17.8044185 11.56053162 17.79405212 C9.59891159 17.79138289 7.6372742 17.79466148 5.67567444 17.80397034 C2.93435582 17.81412429 0.19434607 17.79865133 -2.546875 17.77636719 C-3.35842545 17.78446411 -4.16997589 17.79256104 -5.00611877 17.80090332 C-8.57878917 17.74707162 -10.68009551 17.57780409 -13.5838623 15.41003418 C-15.57605496 12.59708561 -16.03713542 10.7028252 -16.10742188 7.25878906 C-14.85304069 4.19252394 -13.93632806 2.70042648 -10.99694824 1.13433838 C-7.30700852 0.01625749 -3.81743886 -0.02059866 0 0 Z " fill="#00ff00" transform="translate(95.107421875,288.7412109375)"/>
<path d="M0 0 C0.85218109 -0.0065712 1.70436218 -0.0131424 2.58236694 -0.01991272 C5.40924156 -0.03966287 8.23606305 -0.05131117 11.06298828 -0.0612793 C12.50904638 -0.06739259 12.50904638 -0.06739259 13.98431778 -0.07362938 C19.08524614 -0.0944959 24.18614754 -0.10879597 29.28710938 -0.11816406 C34.56228738 -0.12923911 39.83704478 -0.16364998 45.1120739 -0.20333576 C49.16294148 -0.22944629 53.21370792 -0.23785086 57.26465225 -0.24144554 C59.20955374 -0.2463247 61.15445032 -0.25797631 63.09926987 -0.27648354 C65.81912608 -0.30076037 68.53788174 -0.29993128 71.2578125 -0.29296875 C72.4658252 -0.31218384 72.4658252 -0.31218384 73.69824219 -0.33178711 C77.23984951 -0.29869089 79.33373783 -0.13504765 82.2270813 1.99153137 C84.41294979 5.11136581 84.75830078 7.38587434 84.75830078 11.17700195 C82.67204739 14.60441824 81.58386968 15.90181232 77.75830078 17.17700195 C75.06196534 17.28355049 72.39109732 17.33425083 69.69433594 17.33813477 C68.87287582 17.34309967 68.05141571 17.34806458 67.20506287 17.35317993 C64.48582117 17.36779261 61.7666378 17.37460181 59.04736328 17.38012695 C57.1579081 17.38587883 55.26845294 17.39163656 53.3789978 17.3973999 C49.41623665 17.40790713 45.45349578 17.41375172 41.49072266 17.41723633 C36.41416194 17.42272263 31.33786923 17.44675476 26.26139259 17.47520828 C22.35803444 17.49383537 18.45474086 17.49904029 14.55134201 17.5005722 C12.67984933 17.50359874 10.80835779 17.51162731 8.93690872 17.52475739 C6.31808338 17.54182052 3.69991313 17.53993715 1.08105469 17.53344727 C0.30893143 17.54266205 -0.46319183 17.55187683 -1.25871277 17.56137085 C-5.77033189 17.52636393 -8.64404624 16.9478288 -12.24169922 14.17700195 C-14.20308309 11.59154139 -14.25468186 10.3890517 -14.05419922 7.11450195 C-13.22540628 4.11809671 -12.67053233 3.02291512 -10.24169922 1.17700195 C-7.02993337 -0.42888097 -3.52911347 0.01172419 0 0 Z " fill="#00ff00" transform="translate(93.24169921875,256.822998046875)"/>
<path d="M0 0 C0.82160614 -0.00861557 1.64321228 -0.01723114 2.48971558 -0.02610779 C5.20383265 -0.04879808 7.9169197 -0.04202321 10.63110352 -0.03295898 C12.51913256 -0.03819349 14.40715898 -0.04446933 16.29518127 -0.05174255 C20.25208847 -0.0621526 24.20863619 -0.05757703 28.16552734 -0.04296875 C33.23451514 -0.02578609 38.3023689 -0.04926645 43.37123013 -0.08445835 C47.27036541 -0.10642793 51.16922921 -0.10499185 55.06840706 -0.09669304 C56.93710638 -0.09587316 58.80582556 -0.1027436 60.67446709 -0.11746407 C63.28889338 -0.13490081 65.90128046 -0.12037592 68.515625 -0.09765625 C69.28617722 -0.10934845 70.05672943 -0.12104065 70.85063171 -0.13308716 C74.83514601 -0.0626974 76.63885508 0.38869457 79.80653381 2.88539124 C81.82250977 5.53344727 81.82250977 5.53344727 82.38500977 8.53344727 C81.6945712 12.2157863 80.45437049 13.90158654 77.82250977 16.53344727 C74.2305367 17.73077162 70.95612278 17.68103372 67.2175293 17.67871094 C66.44483704 17.68206955 65.67214478 17.68542816 64.8760376 17.68888855 C62.31911618 17.69839513 59.76226027 17.70034155 57.20532227 17.70141602 C55.42796807 17.70462893 53.65061414 17.70799303 51.8732605 17.71150208 C48.14588813 17.7174927 44.41853895 17.71934206 40.69116211 17.71875 C35.91732818 17.71864841 31.1436431 17.73229747 26.36984444 17.74952221 C22.69810301 17.76064671 19.02639751 17.76266906 15.35464096 17.76214027 C13.59480146 17.76331983 11.83496101 17.76774025 10.07513809 17.77547264 C7.61207949 17.78528105 5.14934321 17.78239111 2.6862793 17.77636719 C1.96090973 17.78198669 1.23554016 17.7876062 0.4881897 17.793396 C-3.49990056 17.76863836 -6.63130631 17.41095705 -10.17749023 15.53344727 C-12.5597713 12.67470999 -13.1912704 11.20867543 -13.11499023 7.47094727 C-10.89900633 0.52753105 -6.67860609 -0.05641354 0 0 Z " fill="#00ff00" transform="translate(398.177490234375,287.466552734375)"/>
<path d="M0 0 C0.82160614 -0.00861557 1.64321228 -0.01723114 2.48971558 -0.02610779 C5.20383265 -0.04879808 7.9169197 -0.04202321 10.63110352 -0.03295898 C12.51913256 -0.03819349 14.40715898 -0.04446933 16.29518127 -0.05174255 C20.25208847 -0.0621526 24.20863619 -0.05757703 28.16552734 -0.04296875 C33.23451514 -0.02578609 38.3023689 -0.04926645 43.37123013 -0.08445835 C47.27036541 -0.10642793 51.16922921 -0.10499185 55.06840706 -0.09669304 C56.93710638 -0.09587316 58.80582556 -0.1027436 60.67446709 -0.11746407 C63.28889338 -0.13490081 65.90128046 -0.12037592 68.515625 -0.09765625 C69.28617722 -0.10934845 70.05672943 -0.12104065 70.85063171 -0.13308716 C74.83514601 -0.0626974 76.63885508 0.38869457 79.80653381 2.88539124 C81.82250977 5.53344727 81.82250977 5.53344727 82.38500977 8.53344727 C81.6945712 12.2157863 80.45437049 13.90158654 77.82250977 16.53344727 C74.2305367 17.73077162 70.95612278 17.68103372 67.2175293 17.67871094 C66.44483704 17.68206955 65.67214478 17.68542816 64.8760376 17.68888855 C62.31911618 17.69839513 59.76226027 17.70034155 57.20532227 17.70141602 C55.42796807 17.70462893 53.65061414 17.70799303 51.8732605 17.71150208 C48.14588813 17.7174927 44.41853895 17.71934206 40.69116211 17.71875 C35.91732818 17.71864841 31.1436431 17.73229747 26.36984444 17.74952221 C22.69810301 17.76064671 19.02639751 17.76266906 15.35464096 17.76214027 C13.59480146 17.76331983 11.83496101 17.76774025 10.07513809 17.77547264 C7.61207949 17.78528105 5.14934321 17.78239111 2.6862793 17.77636719 C1.96090973 17.78198669 1.23554016 17.7876062 0.4881897 17.793396 C-3.49990056 17.76863836 -6.63130631 17.41095705 -10.17749023 15.53344727 C-12.5597713 12.67470999 -13.1912704 11.20867543 -13.11499023 7.47094727 C-10.89900633 0.52753105 -6.67860609 -0.05641354 0 0 Z " fill="#00ff00" transform="translate(398.177490234375,253.466552734375)"/>
<path d="M0 0 C0.82160614 -0.00861557 1.64321228 -0.01723114 2.48971558 -0.02610779 C5.20383265 -0.04879808 7.9169197 -0.04202321 10.63110352 -0.03295898 C12.51913256 -0.03819349 14.40715898 -0.04446933 16.29518127 -0.05174255 C20.25208847 -0.0621526 24.20863619 -0.05757703 28.16552734 -0.04296875 C33.23451514 -0.02578609 38.3023689 -0.04926645 43.37123013 -0.08445835 C47.27036541 -0.10642793 51.16922921 -0.10499185 55.06840706 -0.09669304 C56.93710638 -0.09587316 58.80582556 -0.1027436 60.67446709 -0.11746407 C63.28889338 -0.13490081 65.90128046 -0.12037592 68.515625 -0.09765625 C69.28617722 -0.10934845 70.05672943 -0.12104065 70.85063171 -0.13308716 C74.83514601 -0.0626974 76.63885508 0.38869457 79.80653381 2.88539124 C81.82250977 5.53344727 81.82250977 5.53344727 82.38500977 8.53344727 C81.68964173 12.24207679 80.51496337 13.91578403 77.82250977 16.53344727 C74.09662853 17.93578327 70.1386625 17.68843961 66.21166992 17.69458008 C65.4501915 17.69954498 64.68871307 17.70450989 63.90415955 17.70962524 C61.38995453 17.72420695 58.87581259 17.7310418 56.36157227 17.73657227 C54.61046345 17.74232652 52.85935464 17.74808422 51.10824585 17.75384521 C47.43812772 17.7643435 43.76803142 17.770194 40.09790039 17.77368164 C35.40147745 17.77916729 30.70534428 17.8032017 26.00901222 17.83165359 C22.39213219 17.85030089 18.77532172 17.85548666 15.15839767 17.85701752 C13.42728464 17.86003929 11.69617269 17.86805176 9.96510696 17.8812027 C7.54056128 17.89830898 5.11672067 17.89637213 2.69213867 17.88989258 C1.98128616 17.89910736 1.27043365 17.90832214 0.53804016 17.91781616 C-4.09159461 17.87917152 -7.23505787 16.94778245 -11.17749023 14.53344727 C-13.17976468 12.00884036 -13.18747089 10.77298295 -13.05249023 7.53344727 C-11.00113773 0.50023868 -6.66881624 -0.05633085 0 0 Z " fill="#00ff00" transform="translate(398.177490234375,185.466552734375)"/>
<path d="M0 0 C0.82160614 -0.00861557 1.64321228 -0.01723114 2.48971558 -0.02610779 C5.20383265 -0.04879808 7.9169197 -0.04202321 10.63110352 -0.03295898 C12.51913256 -0.03819349 14.40715898 -0.04446933 16.29518127 -0.05174255 C20.25208847 -0.0621526 24.20863619 -0.05757703 28.16552734 -0.04296875 C33.23451514 -0.02578609 38.3023689 -0.04926645 43.37123013 -0.08445835 C47.27036541 -0.10642793 51.16922921 -0.10499185 55.06840706 -0.09669304 C56.93710638 -0.09587316 58.80582556 -0.1027436 60.67446709 -0.11746407 C63.28889338 -0.13490081 65.90128046 -0.12037592 68.515625 -0.09765625 C69.28617722 -0.10934845 70.05672943 -0.12104065 70.85063171 -0.13308716 C74.83514601 -0.0626974 76.63885508 0.38869457 79.80653381 2.88539124 C81.82250977 5.53344727 81.82250977 5.53344727 82.38500977 8.53344727 C81.68964173 12.24207679 80.51496337 13.91578403 77.82250977 16.53344727 C74.09662853 17.93578327 70.1386625 17.68843961 66.21166992 17.69458008 C65.4501915 17.69954498 64.68871307 17.70450989 63.90415955 17.70962524 C61.38995453 17.72420695 58.87581259 17.7310418 56.36157227 17.73657227 C54.61046345 17.74232652 52.85935464 17.74808422 51.10824585 17.75384521 C47.43812772 17.7643435 43.76803142 17.770194 40.09790039 17.77368164 C35.40147745 17.77916729 30.70534428 17.8032017 26.00901222 17.83165359 C22.39213219 17.85030089 18.77532172 17.85548666 15.15839767 17.85701752 C13.42728464 17.86003929 11.69617269 17.86805176 9.96510696 17.8812027 C7.54056128 17.89830898 5.11672067 17.89637213 2.69213867 17.88989258 C1.98128616 17.89910736 1.27043365 17.90832214 0.53804016 17.91781616 C-4.09159461 17.87917152 -7.23505787 16.94778245 -11.17749023 14.53344727 C-13.17976468 12.00884036 -13.18747089 10.77298295 -13.05249023 7.53344727 C-11.00113773 0.50023868 -6.66881624 -0.05633085 0 0 Z " fill="#00ff00" transform="translate(398.177490234375,219.466552734375)"/>
<path d="M0 0 C0.78259186 -0.00846954 1.56518372 -0.01693909 2.37149048 -0.02566528 C4.9555898 -0.04904307 7.53909399 -0.0500573 10.12329102 -0.04882812 C11.92163837 -0.05592917 13.71998345 -0.06362808 15.51832581 -0.07189941 C19.2868581 -0.08534594 23.0551809 -0.0869122 26.82373047 -0.08105469 C31.65056147 -0.07515789 36.47638687 -0.10574804 41.30302334 -0.14617157 C45.01684474 -0.17203421 48.73042354 -0.17492732 52.44432259 -0.17127991 C54.2237202 -0.17297246 56.00312886 -0.18262802 57.78243828 -0.20042419 C60.27230813 -0.22258702 62.76013651 -0.21292757 65.25 -0.1953125 C66.34972389 -0.21520737 66.34972389 -0.21520737 67.47166443 -0.23550415 C71.34971601 -0.1718273 73.06221642 0.32035307 76.15467834 2.73571777 C78.18969727 5.41992188 78.18969727 5.41992188 78.68969727 8.98242188 C78.17656822 12.51018408 77.72781817 13.97580545 75.18969727 16.41992188 C71.62647975 17.60766105 68.3851961 17.57529719 64.67651367 17.58105469 C63.91357498 17.58601959 63.15063629 17.5909845 62.36457825 17.59609985 C59.84012959 17.61070734 57.31574375 17.61752089 54.79125977 17.62304688 C53.03632607 17.62879922 51.2813924 17.63455694 49.52645874 17.64031982 C45.84616808 17.6508256 42.16589925 17.65667113 38.4855957 17.66015625 C33.77223087 17.66564199 29.05915477 17.68967342 24.34588051 17.7181282 C20.72046061 17.73676076 17.09511019 17.7419605 13.46964645 17.74349213 C11.73212479 17.74651748 9.99460432 17.75454206 8.25712967 17.76767731 C5.82508677 17.78475193 3.39374861 17.78285439 0.96166992 17.77636719 C0.24565109 17.78558197 -0.47036774 17.79479675 -1.20808411 17.80429077 C-5.57395503 17.76785168 -8.35976255 17.13793481 -11.81030273 14.41992188 C-13.45681508 11.12689718 -14.02386643 9.33824577 -13.18530273 5.73242188 C-9.92401142 0.24752285 -5.99628627 -0.02390284 0 0 Z " fill="#00ff00" transform="translate(233.810302734375,191.580078125)"/>
<path d="M0 0 C0.77283829 -0.00511093 1.54567657 -0.01022186 2.3419342 -0.01548767 C4.89348115 -0.02937351 7.44475768 -0.0284277 9.99633789 -0.02612305 C11.77226359 -0.03001049 13.54818837 -0.03434527 15.32411194 -0.03910828 C19.04553238 -0.04656828 22.76685794 -0.04628077 26.48828125 -0.04101562 C31.254329 -0.03522085 36.01998814 -0.05215315 40.78597164 -0.0753603 C44.45343797 -0.09010067 48.12081077 -0.09096893 51.78830147 -0.08785057 C53.5453525 -0.08836362 55.30240879 -0.09359824 57.05943108 -0.10366249 C59.51774132 -0.11601577 61.97529538 -0.10924227 64.43359375 -0.09765625 C65.51929153 -0.10912186 65.51929153 -0.10912186 66.62692261 -0.12081909 C71.00910596 -0.07522896 73.79563797 0.5799744 77.28149414 3.2746582 C78.8273629 6.36639572 78.57508935 8.86895373 78.28149414 12.2746582 C76.41440909 14.6396326 74.96087983 15.93496536 72.28149414 17.2746582 C69.77560113 17.38834437 67.29683925 17.44246449 64.79003906 17.45166016 C63.63121971 17.46151695 63.63121971 17.46151695 62.44898987 17.47157288 C59.8866466 17.4913196 57.32436198 17.5029715 54.76196289 17.51293945 C53.8874328 17.51701498 53.01290272 17.52109051 52.11187172 17.52528954 C47.48311218 17.54615616 42.85438235 17.56045529 38.22558594 17.56982422 C33.44372772 17.58088981 28.66233471 17.61528955 23.88064098 17.65499592 C20.20460645 17.68113745 16.52868317 17.68951385 12.85256386 17.6931057 C11.08990652 17.69797807 9.32725437 17.70961059 7.56468773 17.72814369 C5.09646088 17.75248331 2.62944285 17.75158 0.16113281 17.74462891 C-0.5658078 17.75743896 -1.29274841 17.77024902 -2.04171753 17.78344727 C-5.61406942 17.7468128 -7.60140422 17.34832977 -10.65238953 15.42887878 C-13.28911834 12.67971341 -13.64133708 11.05592858 -13.71850586 7.2746582 C-13.00900734 4.43666412 -12.53892033 2.85085708 -10.11888123 1.15119934 C-6.76232094 -0.07451028 -3.52662833 -0.01203728 0 0 Z " fill="#00ff00" transform="translate(125.718505859375,191.725341796875)"/>
<path d="M0 0 C0.82131409 -0.00817749 1.64262817 -0.01635498 2.48883057 -0.02478027 C5.21349352 -0.04964274 7.93810435 -0.06615216 10.6628418 -0.08056641 C11.59253469 -0.08589008 12.52222759 -0.09121376 13.480093 -0.09669876 C18.40062003 -0.12343366 23.32112164 -0.14280773 28.24169922 -0.15722656 C33.3263159 -0.17387813 38.41028487 -0.21865907 43.49465656 -0.26959801 C47.40230563 -0.30323909 51.30980034 -0.31480052 55.2175808 -0.32045364 C57.09190002 -0.32717449 58.96620879 -0.34241819 60.84038734 -0.36634445 C63.46444244 -0.39793318 66.08674251 -0.39804268 68.7109375 -0.390625 C69.87147896 -0.415233 69.87147896 -0.415233 71.0554657 -0.44033813 C75.05317273 -0.39409857 76.85476508 0.03963357 80.03556824 2.5418396 C82.04956055 5.19287109 82.04956055 5.19287109 82.61206055 8.19287109 C81.89416004 12.02167381 80.88100396 13.51051422 78.04956055 16.19287109 C75.09613711 16.69174479 72.71685854 16.86803429 69.7644043 16.82397461 C68.93143829 16.83112991 68.09847229 16.83828522 67.24026489 16.84565735 C64.48863777 16.86255733 61.73863695 16.84313496 58.98706055 16.82177734 C57.07421738 16.82260593 55.16137428 16.8250649 53.24853516 16.8290863 C49.24026041 16.83194519 45.23254418 16.81723428 41.22436523 16.78979492 C36.0858799 16.75571199 30.94839337 16.76172948 25.80986023 16.7804575 C21.86014478 16.79102491 17.91066184 16.78209202 13.96096802 16.76707268 C12.06634206 16.7618885 10.17169185 16.76237552 8.27706909 16.76861763 C5.62908703 16.77406673 2.98253583 16.7537054 0.3347168 16.72631836 C-0.84053055 16.73610718 -0.84053055 16.73610718 -2.03952026 16.74609375 C-5.57648791 16.68387365 -7.5625818 16.49014889 -10.40966797 14.30796814 C-12.26229586 11.76476961 -12.87529076 10.34911634 -12.95043945 7.19287109 C-10.0018711 -0.10834577 -7.31736601 0.03997554 0 0 Z " fill="#00ff00" transform="translate(397.950439453125,151.80712890625)"/>
<path d="M0 0 C0.82131409 -0.00817749 1.64262817 -0.01635498 2.48883057 -0.02478027 C5.21349352 -0.04964274 7.93810435 -0.06615216 10.6628418 -0.08056641 C11.59253469 -0.08589008 12.52222759 -0.09121376 13.480093 -0.09669876 C18.40062003 -0.12343366 23.32112164 -0.14280773 28.24169922 -0.15722656 C33.3263159 -0.17387813 38.41028487 -0.21865907 43.49465656 -0.26959801 C47.40230563 -0.30323909 51.30980034 -0.31480052 55.2175808 -0.32045364 C57.09190002 -0.32717449 58.96620879 -0.34241819 60.84038734 -0.36634445 C63.46444244 -0.39793318 66.08674251 -0.39804268 68.7109375 -0.390625 C69.87147896 -0.415233 69.87147896 -0.415233 71.0554657 -0.44033813 C75.05317273 -0.39409857 76.85476508 0.03963357 80.03556824 2.5418396 C82.04956055 5.19287109 82.04956055 5.19287109 82.61206055 8.19287109 C81.89416004 12.02167381 80.88100396 13.51051422 78.04956055 16.19287109 C75.09613711 16.69174479 72.71685854 16.86803429 69.7644043 16.82397461 C68.93143829 16.83112991 68.09847229 16.83828522 67.24026489 16.84565735 C64.48863777 16.86255733 61.73863695 16.84313496 58.98706055 16.82177734 C57.07421738 16.82260593 55.16137428 16.8250649 53.24853516 16.8290863 C49.24026041 16.83194519 45.23254418 16.81723428 41.22436523 16.78979492 C36.0858799 16.75571199 30.94839337 16.76172948 25.80986023 16.7804575 C21.86014478 16.79102491 17.91066184 16.78209202 13.96096802 16.76707268 C12.06634206 16.7618885 10.17169185 16.76237552 8.27706909 16.76861763 C5.62908703 16.77406673 2.98253583 16.7537054 0.3347168 16.72631836 C-0.84053055 16.73610718 -0.84053055 16.73610718 -2.03952026 16.74609375 C-5.57648791 16.68387365 -7.5625818 16.49014889 -10.40966797 14.30796814 C-12.26229586 11.76476961 -12.87529076 10.34911634 -12.95043945 7.19287109 C-10.0018711 -0.10834577 -7.31736601 0.03997554 0 0 Z " fill="#00ff00" transform="translate(397.950439453125,117.80712890625)"/>
<path d="M0 0 C1.22807373 -0.01260864 2.45614746 -0.02521729 3.72143555 -0.03820801 C5.0577858 -0.03104814 6.3941308 -0.02284414 7.73046875 -0.01367188 C9.1052274 -0.01636764 10.47998419 -0.02025077 11.85473633 -0.02526855 C14.73309519 -0.0311598 17.61095684 -0.02261364 20.48925781 -0.00390625 C24.17500891 0.01888424 27.85959497 0.00575899 31.54530334 -0.01819611 C34.38326768 -0.03266486 37.22095673 -0.02804341 40.05892944 -0.01768494 C41.41767516 -0.01502057 42.77644603 -0.01827728 44.13516235 -0.02760315 C46.03541574 -0.03778428 47.93575699 -0.01950917 49.8359375 0 C51.45665161 0.00477356 51.45665161 0.00477356 53.11010742 0.00964355 C56.58051778 0.63743147 57.75973582 1.78544202 59.91796875 4.51757812 C60.64601826 7.2584704 60.49240116 9.74779018 59.91796875 12.51757812 C57.71056194 15.48615969 56.43199502 16.34623603 52.91796875 17.51757812 C51.11936925 17.61561582 49.31736889 17.65578591 47.51611328 17.6628418 C45.85891769 17.67241158 45.85891769 17.67241158 44.16824341 17.68217468 C42.9744809 17.68328751 41.78071838 17.68440033 40.55078125 17.68554688 C39.32390594 17.68887527 38.09703064 17.69220367 36.83297729 17.69563293 C34.2354978 17.70069973 31.63801178 17.70304134 29.04052734 17.70288086 C25.06597155 17.70506548 21.09169409 17.72321905 17.1171875 17.7421875 C14.59505303 17.74512182 12.07291725 17.74710636 9.55078125 17.74804688 C7.76621017 17.75882515 7.76621017 17.75882515 5.94558716 17.76982117 C4.83448578 17.76674454 3.7233844 17.76366791 2.57861328 17.76049805 C1.60393097 17.76192307 0.62924866 17.76334808 -0.37496948 17.76481628 C-4.54605603 17.38386755 -7.25403513 16.51117347 -9.95703125 13.26757812 C-11.3793706 9.79074861 -11.21895356 8.07993469 -10.08203125 4.51757812 C-7.00254416 0.5706835 -4.92970652 0.01451968 0 0 Z " fill="#00ff00" transform="translate(90.08203125,158.482421875)"/>
<path d="M0 0 C1.80723793 -0.0238678 1.80723793 -0.0238678 3.65098572 -0.04821777 C4.94895584 -0.04841919 6.24692596 -0.04862061 7.58422852 -0.04882812 C8.93417171 -0.05593238 10.28411189 -0.06363177 11.63404846 -0.07189941 C14.46103309 -0.08533417 17.28773851 -0.08691769 20.11474609 -0.08105469 C23.73102803 -0.07515902 27.34596716 -0.10574612 30.9619894 -0.14617157 C33.74936595 -0.17206818 36.53641996 -0.17492435 39.32390022 -0.17127991 C41.3031209 -0.17378869 43.28227339 -0.19847322 45.26133728 -0.22351074 C55.24772705 -0.14658253 55.24772705 -0.14658253 58.34619141 2.734375 C60.55890705 6.27266139 60.69649114 8.32024403 60.02563477 12.41992188 C57.80700447 15.3270926 56.50618548 16.2597383 53.02563477 17.41992188 C51.22703526 17.51795957 49.42503491 17.55812966 47.6237793 17.56518555 C45.96658371 17.57475533 45.96658371 17.57475533 44.27590942 17.58451843 C43.08214691 17.58563126 41.8883844 17.58674408 40.65844727 17.58789062 C39.43157196 17.59121902 38.20469666 17.59454742 36.94064331 17.59797668 C34.34316381 17.60304348 31.7456778 17.60538509 29.14819336 17.60522461 C25.17363757 17.60740923 21.1993601 17.6255628 17.22485352 17.64453125 C14.70271905 17.64746557 12.18058326 17.64945011 9.65844727 17.65039062 C7.87387619 17.6611689 7.87387619 17.6611689 6.05325317 17.67216492 C4.94215179 17.66908829 3.83105042 17.66601166 2.6862793 17.6628418 C1.71159698 17.66426682 0.73691467 17.66569183 -0.26730347 17.66716003 C-4.0928524 17.31776953 -6.94067701 16.315785 -9.84936523 13.79492188 C-11.29860111 10.73542391 -11.05092822 8.62850635 -10.68920898 5.32226562 C-8.84589482 0.41683393 -4.70924465 0.03741456 0 0 Z " fill="#00ff00" transform="translate(176.974365234375,158.580078125)"/>
<path d="M0 0 C0.75792847 -0.00619858 1.51585693 -0.01239716 2.29675293 -0.01878357 C3.89362305 -0.02586364 5.49056727 -0.02273933 7.08740234 -0.01000977 C9.52449808 0.0038678 11.95775885 -0.03024639 14.39453125 -0.06835938 C15.95052177 -0.06931059 17.50651707 -0.06745161 19.0625 -0.0625 C20.14863586 -0.08238731 20.14863586 -0.08238731 21.25671387 -0.10267639 C25.17209047 -0.03095596 26.89408262 0.45799577 30.00195312 2.91430664 C32.03125 5.56640625 32.03125 5.56640625 32.46875 8.62890625 C32.03953217 11.5107974 31.77378372 13.24302796 30.03125 15.56640625 C24.15408045 18.58264205 17.68933507 17.90131773 11.25683594 17.88208008 C9.03791366 17.87891575 6.82032067 17.90242067 4.6015625 17.92773438 C3.18229334 17.9300073 1.76302061 17.93071089 0.34375 17.9296875 C-1.58017578 17.93415894 -1.58017578 17.93415894 -3.54296875 17.9387207 C-7.19069793 17.54228491 -9.05495025 16.74340228 -11.96875 14.56640625 C-13.88274936 12.04340709 -13.97275861 10.75881946 -13.90625 7.56640625 C-11.75984543 0.69791163 -6.47479298 -0.04435098 0 0 Z " fill="#00ff00" transform="translate(200.96875,256.43359375)"/>
<path d="M0 0 C3.73785618 0.70084803 5.39432914 1.80793366 8 4.5625 C9.14326535 7.53498991 9.11108414 9.0959466 8.375 12.1875 C6.62007871 15.21872768 5.23784907 16.23792538 2 17.5625 C-1.5603504 17.48983979 -3.43721938 16.94756043 -6.375 14.9375 C-8.67917484 11.56985985 -8.63127485 9.56057408 -8 5.5625 C-5.54999553 2.17572911 -4.13607554 0.77551416 0 0 Z " fill="#00ff00" transform="translate(56,256.4375)"/>
<path d="M0 0 C2.39216609 1.5947774 2.88287964 2.65764819 3.8125 5.375 C4.04244451 8.5942232 3.61716739 10.20671087 2 13 C-0.85873728 15.38228107 -2.32477184 16.01378017 -6.0625 15.9375 C-9.52366286 14.83287356 -10.94502229 14.00342896 -13 11 C-13.46918683 7.24650538 -13.53136381 4.96151547 -11.6875 1.625 C-8.07389756 -1.85476532 -4.57863555 -0.98113619 0 0 Z " fill="#00ff00" transform="translate(61,193)"/>
<path d="M0 0 C2.0625 2.6875 2.0625 2.6875 3 6 C2.375 9.75 2.375 9.75 1 13 C-2.75047482 15.50031654 -4.55856266 15.53603554 -9 15 C-11.9375 12.9375 -11.9375 12.9375 -14 10 C-14.5625 6.4375 -14.5625 6.4375 -14 3 C-9.84858108 -2.43979031 -6.1444333 -2.52360653 0 0 Z " fill="#00ff00" transform="translate(62,291)"/>
<path d="M0 0 C2.75171298 1.90503206 3.71801879 3.2856476 4.9375 6.375 C5.02530989 10.06301527 4.08376995 11.97517266 2 15 C-1.32306822 16.73377472 -3.03991676 17.24560269 -6.6875 16.3125 C-10.71729958 14.02531646 -10.71729958 14.02531646 -12 12 C-12.75 5.25 -12.75 5.25 -10.5 1.5 C-6.97785199 -0.6132888 -4.00752241 -0.81467088 0 0 Z " fill="#00ff00" transform="translate(60,224)"/>
<path d="M0 0 C2.75171298 1.90503206 3.71801879 3.2856476 4.9375 6.375 C5.0221688 9.93108969 3.83947665 12.00233435 2 15 C-1.20841035 16.60420518 -4.5193987 16.47462745 -8 16 C-10.5 14.5 -10.5 14.5 -12 12 C-12.791013 7.97901723 -12.62153384 5.03588973 -10.5 1.5 C-6.97785199 -0.6132888 -4.00752241 -0.81467088 0 0 Z " fill="#00ff00" transform="translate(60,126)"/>
<path d="M0 0 C2.68601216 1.90848233 3.7337462 3.32549038 4.9375 6.375 C5.02627138 10.10339799 4.15685296 11.96692553 2 15 C-1.68380484 16.6372466 -3.87255869 17.27559676 -7.8125 16.3125 C-10 15 -10 15 -12 12 C-12.56551375 7.63746537 -12.49322651 5.70247412 -9.9375 2.0625 C-6.25937488 -0.52001338 -4.40768137 -0.72125695 0 0 Z " fill="#00ff00" transform="translate(60,159)"/>
<path d="M0 0 C2.5 1.5625 2.5 1.5625 4 4 C4.56921855 7.98452984 4.67149179 10.05493748 2.3125 13.375 C-0.31196417 15.21921807 -1.78929947 15.92169023 -5 16 C-8.48634601 14.37844371 -9.84302194 13.23546708 -12 10 C-11.82135713 6.66533315 -11.55604977 4.0139731 -9.9375 1.0625 C-6.73507415 -0.69366901 -3.50309274 -0.62026592 0 0 Z " fill="#00ff00" transform="translate(56,45)"/>
<path d="M0 0 C1.91015625 0.4453125 1.91015625 0.4453125 4.47265625 2.5078125 C6.3464113 6.33679022 6.03978326 8.37865526 4.91015625 12.4453125 C3.31537885 14.83747859 2.25250806 15.32819214 -0.46484375 16.2578125 C-3.61504755 16.48282706 -5.32318381 15.94080436 -8.08984375 14.4453125 C-10.57023282 10.7247289 -10.55321578 8.84734679 -10.08984375 4.4453125 C-7.53315462 0.29069266 -4.61630624 -0.25885829 0 0 Z " fill="#00ff00" transform="translate(95.08984375,44.5546875)"/>
<path d="M0 0 C2.5625 2.0625 2.5625 2.0625 4 5 C3.93923869 8.5241557 3.72255356 10.91616966 1.75 13.875 C-0.5983187 15.38463345 -2.19924148 15.86663055 -5 16 C-8.48634601 14.37844371 -9.84302194 13.23546708 -12 10 C-11.82135713 6.66533315 -11.55604977 4.0139731 -9.9375 1.0625 C-6.72094003 -0.70141999 -3.50614591 -0.73924763 0 0 Z " fill="#00ff00" transform="translate(465,45)"/>
<path d="M0 0 C2.4375 1.5625 2.4375 1.5625 4 4 C4.57437023 8.02059163 4.6899176 10.06368326 2.25 13.375 C-0.0278193 15.02009172 -1.21139899 15.83099388 -4 16 C-7.06212707 15.05219877 -8.72204978 14.27795022 -11 12 C-11.97025279 9.00838725 -12.1010566 7.36211949 -11.25 4.3125 C-8.60957158 -0.57229257 -5.08753845 -0.53553036 0 0 Z " fill="#00ff00" transform="translate(135,45)"/>
</svg>