<svg version="1.1" xmlns="http://www.w3.org/2000/svg" width="512px" height="512px" transform="rotate(0) scale(1, 1)">
<path d="M0 0 C11.68581411 10.80474082 20.63940296 27.7279031 21.92118835 43.64698792 C22.01350094 46.35485038 22.04823502 49.05619636 22.0546875 51.765625 C22.0613443 52.76052948 22.0680011 53.75543396 22.07485962 54.78048706 C22.0849322 56.87642587 22.08967832 58.97239639 22.08935547 61.06835938 C22.0937095 64.22842082 22.13003522 67.38706162 22.16796875 70.546875 C22.25057647 85.10870854 21.15284227 97.95754239 13.96875 110.9453125 C13.63166016 111.55640869 13.29457031 112.16750488 12.94726562 112.79711914 C9.78273073 118.36503347 5.96061851 123.33814729 1.71875 128.1328125 C2.55921875 128.37773437 3.3996875 128.62265625 4.265625 128.875 C8.10992656 130.27529989 11.49136933 132.13721848 14.96875 134.2578125 C15.63132812 134.66177246 16.29390625 135.06573242 16.9765625 135.48193359 C28.75431899 142.78288235 38.09847875 152.26191294 47.71875 162.1328125 C56.27323446 156.71640872 56.27323446 156.71640872 64.71875 151.1328125 C64.25984375 150.53855469 63.8009375 149.94429687 63.328125 149.33203125 C55.95228891 139.36845434 52.58820671 129.55635346 52.515625 117.19140625 C52.50992493 116.42788345 52.50422485 115.66436066 52.49835205 114.87770081 C52.48893061 113.26312633 52.48237945 111.64853288 52.47851562 110.03393555 C52.46887697 107.60234481 52.43785536 105.1716247 52.40625 102.74023438 C52.28460416 85.0587734 56.04996328 71.44702263 68.5078125 58.34765625 C69.23742187 57.61675781 69.96703125 56.88585937 70.71875 56.1328125 C71.28335937 55.55660156 71.84796875 54.98039062 72.4296875 54.38671875 C81.121316 46.2250676 93.00472869 42.05760366 104.71875 41.1328125 C105.38390625 41.07867187 106.0490625 41.02453125 106.734375 40.96875 C121.54753814 40.36525076 136.09148925 45.92557601 147.21875 55.5703125 C159.60938367 67.57564005 165.57780196 81.57968119 166.15234375 98.875 C166.17474092 100.90433776 166.17764548 102.93200703 166.16479492 104.96142578 C166.1562824 107.00005325 166.18518499 109.03586508 166.21679688 111.07421875 C166.28142739 122.9127306 164.58374009 134.83907764 157.96875 144.9453125 C155.53794362 148.29381393 155.53794362 148.29381393 154.71875 152.1328125 C156.30099899 153.21872863 157.93795412 154.2252271 159.59375 155.1953125 C165.60706777 158.90714138 170.63295128 163.25081628 175.71875 168.1328125 C176.605625 168.9784375 177.4925 169.8240625 178.40625 170.6953125 C179.169375 171.4996875 179.9325 172.3040625 180.71875 173.1328125 C181.49605469 173.91785156 181.49605469 173.91785156 182.2890625 174.71875 C194.245121 187.42541307 200.49705534 204.22271912 204.03125 221.0078125 C204.42666992 222.78285156 204.42666992 222.78285156 204.83007812 224.59375 C206.00476893 230.01258344 206.71875 234.52753103 206.71875 240.1328125 C37.75875 240.1328125 -131.20125 240.1328125 -305.28125 240.1328125 C-303.06698649 215.77591389 -296.9694968 194.14148435 -281.28125 175.1328125 C-280.4975 174.0809375 -279.71375 173.0290625 -278.90625 171.9453125 C-271.20284791 163.6916674 -261.63115154 157.3660802 -252.28125 151.1328125 C-252.66796875 150.59914063 -253.0546875 150.06546875 -253.453125 149.515625 C-262.21758936 136.97636658 -264.64421891 124.6024939 -264.59692383 109.49609375 C-264.59377657 107.40050537 -264.61724625 105.30635107 -264.64257812 103.2109375 C-264.72945716 84.96486041 -260.0134426 69.84224012 -247.0703125 56.76171875 C-236.37537545 46.68091674 -222.50786231 41.33117565 -207.84375 40.8828125 C-193.4959066 41.316822 -181.02872216 45.51241607 -170.28125 55.1328125 C-169.59289062 55.72835937 -168.90453125 56.32390625 -168.1953125 56.9375 C-158.22566636 66.14318858 -151.76098161 79.19674374 -151.10424805 92.79882812 C-151.07750886 94.21213425 -151.05745312 95.62557766 -151.04296875 97.0390625 C-151.034897 97.80021362 -151.02682526 98.56136475 -151.01850891 99.34558105 C-151.00471474 100.9559505 -150.99397183 102.56634861 -150.98608398 104.17675781 C-150.97462845 105.79989382 -150.95427986 107.4229941 -150.92456055 109.04589844 C-150.6916408 121.79272412 -151.86175446 132.99593671 -158.40625 144.3203125 C-158.90382812 145.20074219 -159.40140625 146.08117187 -159.9140625 146.98828125 C-161.28125 149.1328125 -161.28125 149.1328125 -163.28125 151.1328125 C-162.55679688 151.59171875 -161.83234375 152.050625 -161.0859375 152.5234375 C-159.63574219 153.44382812 -159.63574219 153.44382812 -158.15625 154.3828125 C-157.20492187 154.98609375 -156.25359375 155.589375 -155.2734375 156.2109375 C-152.25202238 158.15158533 -149.26355952 160.13280671 -146.28125 162.1328125 C-145.83958496 161.6702002 -145.39791992 161.20758789 -144.94287109 160.73095703 C-132.09677525 147.35998838 -119.24075281 135.98828773 -102.28125 128.1328125 C-101.62125 128.1328125 -100.96125 128.1328125 -100.28125 128.1328125 C-100.92191406 127.36839844 -101.56257812 126.60398437 -102.22265625 125.81640625 C-108.68961247 117.89284931 -113.85115043 109.83541705 -117.28125 100.1328125 C-117.55864014 99.36831787 -117.83603027 98.60382324 -118.12182617 97.81616211 C-121.10155534 88.0783754 -120.76894651 78.05456014 -120.72729492 67.97094727 C-120.71879629 64.83738196 -120.74760184 61.70565135 -120.77929688 58.57226562 C-120.86062499 35.71328933 -115.33058368 17.56250039 -98.97265625 0.76171875 C-70.51866814 -26.23542517 -29.26630524 -23.95427038 0 0 Z M-80.71875 27.0078125 C-87.01124347 35.46657421 -89.42285641 43.22530726 -89.51953125 53.66796875 C-89.527603 54.5018663 -89.53567474 55.33576385 -89.54399109 56.19493103 C-89.55780636 57.96090636 -89.56853993 59.72690811 -89.57641602 61.49291992 C-89.58789214 63.28206315 -89.60827412 65.07117333 -89.63793945 66.86010742 C-89.87134063 80.94893271 -88.83155289 92.94297263 -79.28125 104.1328125 C-71.04088669 112.14506886 -61.38238066 117.06787845 -49.78125 117.4453125 C-38.31212705 117.25785284 -28.71772614 112.72286587 -20.28125 105.1328125 C-12.31074595 96.7139676 -9.14829486 86.97481436 -9.04296875 75.59765625 C-9.03086113 74.34680992 -9.03086113 74.34680992 -9.01850891 73.07069397 C-9.00469364 71.30471864 -8.99396007 69.53871689 -8.98608398 67.77270508 C-8.97460786 65.98356185 -8.95422588 64.19445167 -8.92456055 62.40551758 C-8.71188916 49.56800753 -9.12738748 38.75754246 -17.28125 28.1328125 C-17.961875 27.1634375 -18.6425 26.1940625 -19.34375 25.1953125 C-26.58898983 16.80143709 -36.70826871 13.25791725 -47.39453125 11.85546875 C-60.36936381 11.18389357 -72.49705984 17.23600701 -80.71875 27.0078125 Z M-226.91015625 80.921875 C-233.47102903 89.11110898 -233.64467587 96.74272113 -233.65625 106.9453125 C-233.68074219 108.07001953 -233.70523438 109.19472656 -233.73046875 110.35351562 C-233.7621777 119.44869913 -232.25746039 127.02229868 -226.15625 134.0078125 C-220.17460519 139.40277146 -212.83113827 141.94003198 -204.80078125 141.5859375 C-197.84775357 140.33547051 -191.70680814 136.59967843 -187.28125 131.1328125 C-182.04761175 123.08653873 -182.00761519 116.45580745 -181.90625 107.0703125 C-181.86886719 105.78447266 -181.83148438 104.49863281 -181.79296875 103.17382812 C-181.7083975 93.96965708 -182.96078723 87.02825457 -189.1652832 79.99804688 C-194.33599125 74.82943875 -200.53700234 72.40454186 -207.8046875 71.98828125 C-214.9668784 72.406264 -222.08450997 75.6217647 -226.91015625 80.921875 Z M89.7265625 80.609375 C83.32685416 88.6525882 83.0964955 96.61813175 83.21875 106.6328125 C83.20328125 107.89996094 83.1878125 109.16710937 83.171875 110.47265625 C83.20869477 119.31860586 84.29765752 125.95147725 89.96875 132.8828125 C97.52624507 139.06621755 103.83161883 142.11312296 113.71875 141.1328125 C120.93268179 139.35608746 126.26227271 136.07340803 130.71875 130.1328125 C134.8724425 122.62029676 135.30739062 115.50980982 135.15625 107.0703125 C135.16333984 105.95076172 135.17042969 104.83121094 135.17773438 103.67773438 C135.10808473 94.54291606 133.96962902 86.54692083 127.5078125 79.703125 C115.44024399 69.11106705 101.43575997 70.36922814 89.7265625 80.609375 Z M-119.68359375 179.69580078 C-125.99637624 187.03097957 -136.28125 199.15608266 -136.28125 209.1328125 C-78.86125 209.1328125 -21.44125 209.1328125 37.71875 209.1328125 C34.14784339 191.27827944 18.49261715 174.37851439 3.92089844 164.42797852 C-35.96496469 138.16655089 -87.69998696 144.04833375 -119.68359375 179.69580078 Z M-258.76953125 197.14453125 C-261.81197388 201.19211479 -264.04323166 204.18073915 -265.28125 209.1328125 C-233.60125 209.1328125 -201.92125 209.1328125 -169.28125 209.1328125 C-167.30125 203.5228125 -165.32125 197.9128125 -163.28125 192.1328125 C-167.86290787 182.96949676 -178.04122855 178.57824423 -187.28125 175.1328125 C-214.21026005 167.11140525 -240.96750704 175.59765423 -258.76953125 197.14453125 Z M64.71875 190.1328125 C65.15432916 191.61254595 65.59235096 193.09156035 66.03125 194.5703125 C66.27488281 195.39402344 66.51851563 196.21773437 66.76953125 197.06640625 C68.02100026 201.10921765 69.38044889 205.11790916 70.71875 209.1328125 C102.39875 209.1328125 134.07875 209.1328125 166.71875 209.1328125 C164.44780063 202.31996438 161.35159806 198.46143627 156.71875 193.1328125 C156.15929687 192.48828125 155.59984375 191.84375 155.0234375 191.1796875 C143.26612692 178.57039789 126.04107908 172.35144776 109.09375 171.7578125 C92.25669377 172.06859421 76.75084947 178.17341453 64.71875 190.1328125 Z " fill="#00ff00" transform="translate(305.28125,252.8671875)"/>
<path d="M0 0 C10.23643043 -0.38344935 20.28409976 2.13199483 29.58984375 6.29296875 C34.05116164 8.09077421 34.05116164 8.09077421 38.66015625 7.48828125 C39.25441406 7.1325 39.84867187 6.77671875 40.4609375 6.41015625 C53.82166786 -0.87522313 69.2134893 -1.31252705 83.7734375 2.16015625 C100.247958 7.15125359 113.71094191 17.40939409 122.13916016 32.56689453 C130.03938358 47.91132223 130.84543204 64.99933633 126.01953125 81.4453125 C119.90859269 99.66318888 104.24234426 112.97880295 90.94921875 126.1796875 C89.3502425 127.77492421 87.75171419 129.37061001 86.15361023 130.96672058 C81.98739775 135.12537058 77.81521087 139.27797412 73.6416626 143.42926025 C69.36744188 147.68286166 65.09902062 151.94227439 60.83007812 156.20117188 C52.48346534 164.52646539 44.13051643 172.84536979 35.7734375 181.16015625 C32.87220402 179.8460986 30.79631891 178.43501408 28.5436554 176.19107056 C27.62094597 175.27898834 27.62094597 175.27898834 26.67959595 174.34848022 C26.0161618 173.68256866 25.35272766 173.0166571 24.66918945 172.33056641 C23.96129776 171.62778564 23.25340607 170.92500488 22.52406311 170.20092773 C20.18140837 167.87218831 17.84627453 165.53607542 15.51171875 163.19921875 C13.88011763 161.57150637 12.24829361 159.94401739 10.61625671 158.31674194 C7.19069762 154.89865136 3.7690486 151.47670226 0.34985352 148.05224609 C-4.00800728 143.6886208 -8.37705548 139.33639738 -12.74942303 134.98731422 C-16.1272703 131.62429268 -19.49806491 128.25426888 -22.8669529 124.88227463 C-24.47317524 123.27656209 -26.08173065 121.67317954 -27.69275475 120.0722847 C-44.75972464 103.09940544 -58.86348177 87.2260655 -59.6640625 61.84765625 C-59.24115814 44.0305116 -52.80556269 29.76073277 -40.2265625 17.16015625 C-39.58847656 16.51046875 -38.95039063 15.86078125 -38.29296875 15.19140625 C-27.88736162 5.32663109 -14.01598468 1.00816732 0 0 Z M-20.94921875 42.01171875 C-26.11542579 48.38379721 -28.91653294 55.50742459 -28.5703125 63.7734375 C-26.46183433 78.41298478 -15.34303051 87.18992329 -5.38671875 97.09765625 C-4.25307107 98.22943489 -3.11964691 99.36143745 -1.98643494 100.49365234 C0.97207601 103.44837636 3.93357931 106.40008278 6.89575195 109.35113525 C9.92778475 112.37287096 12.95692817 115.39750019 15.98632812 118.421875 C21.91256717 124.3374443 27.84197592 130.24982354 33.7734375 136.16015625 C37.65365682 134.56335291 40.14158526 132.06469262 43.10522461 129.13476562 C43.62447006 128.62384369 44.14371552 128.11292175 44.67869568 127.58651733 C46.39153129 125.8977487 48.09663919 124.20144453 49.80078125 122.50390625 C50.99370638 121.31995399 52.18670578 120.13607656 53.379776 118.95227051 C55.88086219 116.46767078 58.37752278 113.97871253 60.87182617 111.48730469 C64.05186389 108.31263267 67.24770187 105.15440204 70.44785213 102.00002289 C72.91953231 99.55825778 75.37971313 97.10514452 77.83697701 94.64888 C79.0093251 93.48070999 80.18575289 92.31661819 81.36646843 91.15690613 C89.74362275 82.91693576 97.64597236 74.48614826 98.0859375 62.09765625 C97.92220729 53.03295653 94.28764962 45.55443603 88.03515625 39.10546875 C81.17479087 33.2048436 73.76694035 30.92990091 64.7734375 31.16015625 C52.14174297 32.46451601 43.99965957 41.43284452 35.7734375 50.16015625 C32.01207917 48.61946256 29.83393322 46.29920721 27.0859375 43.34765625 C20.03958852 36.16659766 12.64026384 31.80797006 2.4609375 30.84765625 C-7.10818337 31.6585987 -14.39675449 34.96893403 -20.94921875 42.01171875 Z " fill="#00ff00" transform="translate(221.2265625,18.83984375)"/>
<path d="M0 0 C5.69692044 2.10997053 8.54437796 1.20293124 13.96484375 -1.20703125 C24.97460873 -5.48105524 37.76715468 -3.16781516 48.33203125 1.3671875 C59.9525519 7.55259849 67.68646113 17.55676777 71.8984375 29.859375 C74.82179983 42.10251636 73.88554417 55.99113885 67.49790955 66.94100952 C62.16612727 74.81864854 55.61949593 81.26305614 48.87890625 87.9140625 C47.63271843 89.15464268 46.38720047 90.39589608 45.14231873 91.63778687 C41.89229655 94.87645221 38.63336304 98.10599904 35.37237549 101.33361816 C32.03505039 104.64004305 28.70639061 107.95516733 25.37695312 111.26953125 C18.86383669 117.75064558 12.34125596 124.22214305 5.8125 130.6875 C-4.74759158 121.96623034 -14.25898578 111.99619356 -23.97509766 102.35986328 C-26.44082512 99.91637956 -28.91592696 97.48303399 -31.39990234 95.05810547 C-34.42593791 92.1038087 -37.43381529 89.13206975 -40.43028259 86.14779663 C-41.5627622 85.02559928 -42.7011594 83.90933593 -43.84596252 82.79971313 C-55.20225999 71.77466161 -62.89774216 59.6359618 -63.5 43.375 C-63.19404707 29.70272838 -58.02771904 18.88667218 -48.7578125 9.05078125 C-35.48168609 -3.15599152 -16.75094336 -6.6571491 0 0 Z M-26.9375 31.375 C-30.15952024 34.6865208 -32.05734542 37.99590331 -32.28515625 42.70703125 C-31.61459603 51.26076286 -25.61567457 56.54305774 -19.796875 62.2734375 C-18.73995453 63.32611313 -18.73995453 63.32611313 -17.66168213 64.40005493 C-15.42496565 66.62563652 -13.18137311 68.84413639 -10.9375 71.0625 C-9.41360203 72.57635954 -7.89015953 74.0906777 -6.3671875 75.60546875 C-2.64588058 79.30480413 1.08108659 82.99836048 4.8125 86.6875 C9.50303816 82.76299374 13.96860641 78.69052538 18.296875 74.37109375 C18.87914856 73.79214859 19.46142212 73.21320343 20.06134033 72.61671448 C21.27933581 71.40373962 22.49601898 70.18944568 23.71142578 68.97387695 C25.56654712 67.12095769 27.42954706 65.27620772 29.29296875 63.43164062 C30.48225972 62.24528156 31.67107851 61.05844892 32.859375 59.87109375 C33.68909821 59.05214882 33.68909821 59.05214882 34.5355835 58.21665955 C38.05614577 54.6751766 41.39691217 51.29510991 42.2109375 46.1875 C42.14528263 39.18431412 41.10466142 35.97966142 36.0625 30.9375 C32.32494317 28.34996065 30.3432686 27.6875 25.8125 27.6875 C16.9763671 29.33491461 11.69217337 36.36685112 5.8125 42.6875 C4.8225 41.841875 3.8325 40.99625 2.8125 40.125 C2.17183594 39.58230469 1.53117187 39.03960937 0.87109375 38.48046875 C-0.49941251 37.28680201 -1.84141398 36.05958658 -3.15234375 34.80078125 C-10.60718989 27.75927311 -17.58392853 25.63530841 -26.9375 31.375 Z " fill="#00ff00" transform="translate(409.1875,131.3125)"/>
<path d="M0 0 C5.72687992 2.09885651 8.53089424 1.20155606 13.97265625 -1.203125 C23.85729743 -4.98137277 35.05655005 -3.61167996 44.875 -0.3125 C57.16482023 5.33063639 65.74687272 13.55190344 70.87890625 26.15234375 C75.14200271 38.52973975 75.12174632 50.78078905 69.91552734 62.92573547 C65.39227527 72.13264747 58.61575693 78.58621517 51.3828125 85.66796875 C50.06749759 86.97393904 48.75329643 88.28103191 47.44015503 89.58918762 C44.00871195 93.00169102 40.56251733 96.39889831 37.112854 99.79296875 C33.5842953 103.27005211 30.07014013 106.76162842 26.5546875 110.25195312 C19.67535125 117.07793209 12.78031787 123.88781271 5.875 130.6875 C-0.78346294 125.19955514 -6.85879805 119.15410121 -12.97265625 113.078125 C-13.8123335 112.24456104 -13.8123335 112.24456104 -14.66897392 111.39415741 C-17.62902491 108.45484908 -20.58587078 105.51235811 -23.5402832 102.56738281 C-26.56995194 99.54878349 -29.61112275 96.54205352 -32.65502262 93.53781509 C-35.01509303 91.20403625 -37.36609425 88.86127445 -39.71484184 86.51610565 C-40.83127855 85.40449854 -41.95105321 84.29623227 -43.0743885 83.19159698 C-55.06061311 71.39268907 -62.32508114 60.47186435 -62.5625 43.3125 C-62.44937262 29.09845879 -57.96504331 18.5409451 -47.83984375 8.3984375 C-34.53197944 -3.15668371 -16.38848185 -6.59796023 0 0 Z M-27.5 32.625 C-30.60949617 35.87583691 -31.33289795 38.9429847 -31.5625 43.375 C-31.62308594 44.18324219 -31.68367188 44.99148437 -31.74609375 45.82421875 C-30.16523751 53.11206543 -23.13221314 58.96071722 -17.9765625 64.03125 C-17.31917084 64.68581177 -16.66177917 65.34037354 -15.98446655 66.01477051 C-13.91101329 68.07714733 -11.8306716 70.13240845 -9.75 72.1875 C-8.33156711 73.59588687 -6.91359402 75.00473698 -5.49609375 76.4140625 C-2.04434876 79.84391373 1.41358665 83.26740748 4.875 86.6875 C9.62715706 82.706978 14.16665544 78.57664521 18.578125 74.22265625 C19.1825946 73.62625839 19.78706421 73.02986053 20.40985107 72.41539001 C21.67507318 71.16388741 22.93883203 69.9109039 24.20117188 68.65649414 C25.48644977 67.38279679 26.77619774 66.11359478 28.0703125 64.84887695 C29.95785667 63.00407954 31.8317246 61.14631198 33.703125 59.28515625 C34.27814758 58.72764175 34.85317017 58.17012726 35.44561768 57.59571838 C39.4976498 53.52164208 42.51765136 49.38443416 43.08984375 43.46484375 C42.2161249 37.66876516 40.29747077 33.5362277 35.5 29.875 C30.9051222 27.7963648 26.77960133 27.05302757 21.8671875 28.625 C18.18300421 30.58989775 15.30572801 33.53162883 12.3046875 36.3984375 C9.92408579 38.64125519 7.45361685 40.67783064 4.875 42.6875 C4.1015625 41.85605469 3.328125 41.02460938 2.53125 40.16796875 C-5.04208 31.96507666 -5.04208 31.96507666 -15.125 27.6875 C-20.09347445 27.6875 -23.97816989 29.19674509 -27.5 32.625 Z " fill="#00ff00" transform="translate(92.125,131.3125)"/>
</svg>