<svg version="1.1" xmlns="http://www.w3.org/2000/svg" width="512px" height="512px" transform="rotate(0) scale(1, 1)">
<path d="M0 0 C40.41848381 37.77756773 65.00142603 91.44215237 67.10498047 146.76074219 C68.74242615 206.2579922 47.77958155 261.21739991 7.32275391 304.80712891 C-0.81026972 313.40011788 -9.40302938 321.0815979 -19 328 C-19.65919434 328.47646973 -20.31838867 328.95293945 -20.99755859 329.44384766 C-51.40172675 351.14068527 -85.9484234 364.47887908 -123 369 C-124.07507813 369.13148438 -125.15015625 369.26296875 -126.2578125 369.3984375 C-181.69554326 374.75404073 -237.64240867 358.08589693 -281.0625 323.3125 C-282.72405444 321.89320072 -284.36973583 320.4551331 -286 319 C-286.72340576 318.35683838 -286.72340576 318.35683838 -287.46142578 317.70068359 C-329.84179388 279.88167198 -357.38643126 227.84985049 -360.87109375 170.59863281 C-363.62892436 115.00327487 -347.30522633 59.1096873 -310 17 C-309.29875 16.19046875 -308.5975 15.3809375 -307.875 14.546875 C-272.56015185 -25.56070255 -224.03650296 -50.5283606 -171 -57 C-169.38738281 -57.19722656 -169.38738281 -57.19722656 -167.7421875 -57.3984375 C-105.61008548 -63.40075545 -45.79328486 -41.70778057 0 0 Z M-239.84765625 89.3984375 C-245.73924607 96.51966948 -249.26298123 104.21346794 -252 113 C-252.19335938 113.60199219 -252.38671875 114.20398438 -252.5859375 114.82421875 C-254.65570437 125.70025787 -253.21275632 136.86805443 -249 147 C-248.45085937 148.34578125 -248.45085937 148.34578125 -247.890625 149.71875 C-243.84405316 158.2115551 -237.23112401 164.53661828 -230.74560547 171.19384766 C-228.23551664 173.7909997 -225.80625117 176.45379952 -223.375 179.125 C-219.61403186 183.23838683 -215.8442186 187.34318212 -212.0625 191.4375 C-211.56347168 191.97777832 -211.06444336 192.51805664 -210.55029297 193.07470703 C-209.53895328 194.16948306 -208.52755992 195.2642095 -207.51611328 196.35888672 C-204.51041862 199.61239388 -201.50660606 202.86763876 -198.50244141 206.12255859 C-195.99053078 208.84399973 -193.47816471 211.56501749 -190.96484375 214.28515625 C-186.57179304 219.04046206 -182.17956483 223.79645787 -177.80639648 228.57006836 C-176.89885206 229.55951353 -175.98952668 230.54732832 -175.07836914 231.53344727 C-172.73302165 234.07730247 -170.43257952 236.64770063 -168.18359375 239.27734375 C-162.5813317 245.75829681 -157.7211362 250.80397576 -148.98046875 252.359375 C-142.70610297 252.8048921 -136.92994908 250.40609124 -132.12109375 246.45703125 C-129.1512113 243.55358912 -126.46803918 240.39531212 -123.75 237.2578125 C-120.13584175 233.12189533 -116.39932002 229.11446458 -112.625 225.125 C-107.80607718 220.00956429 -103.04287635 214.85689534 -98.36328125 209.61328125 C-94.72288438 205.58778454 -91.00590069 201.63452646 -87.29711914 197.67211914 C-82.73707274 192.79762914 -78.21504714 187.89067573 -73.71484375 182.9609375 C-71.82346659 180.891963 -69.91822563 178.83682464 -68.00390625 176.7890625 C-64.97703594 173.54901872 -61.98131684 170.28196229 -59 167 C-58.5364209 166.4946875 -58.0728418 165.989375 -57.59521484 165.46875 C-45.69014817 152.3838252 -40.27525049 138.79376432 -40.6875 121.32421875 C-41.44179971 107.05223973 -48.55165449 94.29569012 -58.734375 84.5859375 C-71.61752454 73.76956039 -86.67710657 71.00976576 -103 72 C-118.25268285 74.0214399 -129.44390538 82.49124213 -140 93 C-140.68707031 93.67289063 -141.37414062 94.34578125 -142.08203125 95.0390625 C-143.40291254 96.3444768 -144.70493957 97.66896567 -146 99 C-150.08769447 97.40550925 -152.62714961 94.43616668 -155.5625 91.3125 C-166.75658506 79.78264405 -180.50225007 72.22101403 -196.72705078 71.71411133 C-213.65943801 71.49804598 -228.14509894 76.84237115 -239.84765625 89.3984375 Z " fill="#ffffff" transform="translate(403,100)"/>
</svg>