<svg version="1.1" xmlns="http://www.w3.org/2000/svg" width="512px" height="512px" transform="rotate(0) scale(1, 1)">
<path d="M0 0 C0.67958771 0.00054382 1.35917542 0.00108765 2.05935669 0.00164795 C36.05692149 0.12625966 65.41835337 13.15344637 89.63964844 36.92919922 C112.26945906 59.92400679 124.05197018 90.93937194 124.3125 122.9375 C124.07811695 151.69825289 114.56900467 177.71952337 97.0625 200.375 C95.37812173 202.69621973 93.71978955 205.03426183 92.0625 207.375 C92.83851563 207.67156494 93.61453125 207.96812988 94.4140625 208.27368164 C97.3343799 209.39907544 100.24821281 210.53960994 103.15869141 211.69018555 C105.02187141 212.42155179 106.89174886 213.13578243 108.76171875 213.84960938 C116.37228764 216.87326783 124.23477446 220.0425857 128.25927734 227.63183594 C130.91369703 234.12640593 130.22574289 240.07914515 127.9375 246.5625 C122.80960409 254.25434386 114.30795392 258.41624842 106.5 262.9375 C105.28799777 263.64642863 104.07641517 264.35607512 102.86523438 265.06640625 C100.41972723 266.49957642 97.97225272 267.92928496 95.52294922 269.35595703 C90.68945601 272.17306853 85.876377 275.02454231 81.0625 277.875 C79.28132988 278.92721857 77.50007851 279.97929959 75.71875 281.03125 C69.32980043 284.80653838 62.94612453 288.5907171 56.5625 292.375 C47.5160553 297.73783201 38.46547218 303.09356871 29.41015625 308.44140625 C20.97788254 313.42244457 12.55236183 318.41486436 4.12939453 323.41162109 C-1.31663798 326.64141767 -6.76605247 329.86504311 -12.2265625 333.0703125 C-13.21333984 333.65039062 -14.20011719 334.23046875 -15.21679688 334.828125 C-17.04232761 335.90063997 -18.86904801 336.97113405 -20.69726562 338.0390625 C-23.1228317 339.46519674 -25.53245831 340.9145645 -27.9375 342.375 C-28.7517041 342.85638428 -29.5659082 343.33776855 -30.40478516 343.83374023 C-35.39794265 346.92860097 -38.48976536 349.8315978 -41.0625 355.1875 C-41.81062242 356.61953778 -42.56357182 358.04906016 -43.3203125 359.4765625 C-43.73055664 360.25805664 -44.14080078 361.03955078 -44.56347656 361.84472656 C-47.1895724 366.68069977 -50.08315747 371.35896922 -52.9375 376.0625 C-58.47115689 385.22840565 -63.91814441 394.43928036 -69.3125 403.6875 C-75.08586304 413.58436229 -80.96523097 423.40943806 -86.9375 433.1875 C-91.61052125 440.83857962 -96.22456761 448.50327474 -100.55102539 456.35693359 C-104.62399747 463.70597078 -108.9945241 470.87927039 -113.34448242 478.06665039 C-116.23710093 482.85024577 -119.11050638 487.63492497 -121.84375 492.51171875 C-131.40858615 509.53202872 -131.40858615 509.53202872 -139.9375 512.375 C-147.64523827 513.01036761 -153.73769597 513.28317819 -159.9375 508.375 C-164.23347229 503.82471707 -166.42811485 499.48103819 -168.609375 493.65625 C-168.94467224 492.79012085 -169.27996948 491.9239917 -169.62542725 491.03161621 C-170.35492596 489.14375115 -171.07928025 487.25389194 -171.79907227 485.36230469 C-172.95951763 482.31722437 -174.13663333 479.27906811 -175.31835938 476.2421875 C-177.95573131 469.45862579 -180.57204613 462.66703614 -183.1875 455.875 C-183.90141641 454.02328746 -184.6153342 452.17157545 -185.32940006 450.31992054 C-190.2512614 437.55688881 -195.16388186 424.79031039 -200.07006454 412.02124405 C-200.77719645 410.18087231 -201.48443806 408.34054273 -202.19168091 406.50021362 C-204.41413786 400.71687004 -206.63545149 394.93309279 -208.85449219 389.1484375 C-209.6490606 387.07941635 -210.44365543 385.01040535 -211.23828125 382.94140625 C-211.60075455 381.99523941 -211.96322784 381.04907257 -212.33668518 380.07423401 C-212.66684128 379.21514938 -212.99699738 378.35606476 -213.3371582 377.47094727 C-213.62387894 376.72353775 -213.91059967 375.97612823 -214.20600891 375.20606995 C-214.92878904 373.32285099 -214.92878904 373.32285099 -215.9375 371.375 C-216.50892857 364.28928571 -216.50892857 364.28928571 -214.375 360.875 C-210.94613886 358.76493161 -208.89529649 358.75008477 -204.9375 359.375 C-200.32449861 363.11304462 -198.55402471 366.91562046 -196.6171875 372.328125 C-196.32103043 373.11944321 -196.02487335 373.91076141 -195.71974182 374.72605896 C-195.07703811 376.44783631 -194.4405332 378.17193747 -193.80953979 379.89804077 C-192.43702061 383.651957 -191.034405 387.39441726 -189.63395691 391.13798523 C-188.88859679 393.13147386 -188.14482289 395.1255562 -187.40254211 397.12019348 C-182.7860305 409.51337034 -177.97350112 421.83009528 -173.17080688 434.15200806 C-168.90220782 445.10626012 -164.6609268 456.06770099 -160.5390625 467.078125 C-159.51647636 469.79449645 -158.49298176 472.51052399 -157.4692688 475.22647095 C-156.82841828 476.93627328 -156.19264454 478.64798794 -155.56222534 480.36166382 C-154.70088967 482.70294792 -153.82302123 485.03738617 -152.94140625 487.37109375 C-152.5707756 488.40166901 -152.5707756 488.40166901 -152.19265747 489.45306396 C-151.08520408 492.34128304 -150.37875113 494.08501809 -147.74975586 495.81274414 C-146.85268921 496.09106079 -146.85268921 496.09106079 -145.9375 496.375 C-141.83149129 492.62790814 -139.28564034 488.88663929 -136.6875 484 C-135.89763438 482.55630483 -135.10592475 481.11361721 -134.3125 479.671875 C-133.71695313 478.58616211 -133.71695313 478.58616211 -133.109375 477.47851562 C-131.37177265 474.3595194 -129.53869108 471.30254531 -127.6875 468.25 C-124.04683649 462.22955049 -120.44997607 456.18470354 -116.875 450.125 C-111.90464599 441.70309309 -106.92470157 433.28694107 -101.9375 424.875 C-97.0363442 416.60730686 -92.13894619 408.33741959 -87.25 400.0625 C-86.72462646 399.17361084 -86.19925293 398.28472168 -85.65795898 397.36889648 C-83.01237805 392.89172807 -80.37052155 388.41241788 -77.734375 383.9296875 C-77.20046143 383.02307373 -76.66654785 382.11645996 -76.11645508 381.18237305 C-75.04731088 379.36687868 -73.97941887 377.55064628 -72.9128418 375.73364258 C-69.99720983 370.78669678 -67.02187317 365.88542863 -63.97265625 361.01953125 C-63.32031006 359.9720874 -62.66796387 358.92464355 -61.99584961 357.84545898 C-60.73000207 355.81872821 -59.4538305 353.79840045 -58.16625977 351.78540039 C-57.59834717 350.87395264 -57.03043457 349.96250488 -56.4453125 349.0234375 C-55.93629395 348.22083496 -55.42727539 347.41823242 -54.90283203 346.59130859 C-53.71487921 343.8638843 -53.89213589 343.1230145 -54.9375 340.375 C-56.69505543 338.1700762 -56.69505543 338.1700762 -58.98050785 335.96284866 C-59.85683119 335.08055218 -60.73315453 334.1982557 -61.63603312 333.28922296 C-62.6194507 332.31436477 -63.60300638 331.33964588 -64.58668518 330.36505127 C-65.62351447 329.3269143 -66.65968449 328.28811853 -67.69524902 327.24871993 C-70.54806516 324.38917965 -73.41017859 321.53910464 -76.27385604 318.69044709 C-79.35835546 315.61887597 -82.43420825 312.53866806 -85.5111084 309.45948792 C-90.84497965 304.12404189 -96.18432605 298.79412596 -101.52740669 293.46790314 C-109.25263877 285.76702893 -116.96959565 278.05790616 -124.68454336 270.34673044 C-137.2010729 257.83677044 -149.7242904 245.3335277 -162.25170898 232.83447266 C-174.42253584 220.6911734 -186.59021489 208.54473429 -198.75366211 196.39404297 C-199.50313528 195.64535797 -200.25260844 194.89667298 -201.02479292 194.12530056 C-204.78457572 190.36943281 -208.54429659 186.61350307 -212.30398667 182.85754251 C-243.50556188 151.68707882 -274.71799009 120.52750006 -305.9375 89.375 C-304.45682676 93.28170575 -302.97585852 97.18829952 -301.4946413 101.09479904 C-300.99299905 102.41792559 -300.49143116 103.74108033 -299.98994541 105.0642662 C-295.23919034 117.59900835 -290.44266353 130.11582998 -285.625 142.625 C-284.7673897 144.85326161 -283.90980585 147.08153339 -283.05224609 149.30981445 C-274.42868421 171.71258696 -265.78368972 194.10709475 -257.13632202 216.50068665 C-253.84121514 225.03393838 -250.54725008 233.56763018 -247.25390625 242.1015625 C-246.78605209 243.31378983 -246.31819794 244.52601715 -245.83616638 245.77497864 C-243.5176032 251.78257844 -241.19956226 257.79037876 -238.88256836 263.79858398 C-234.95401625 273.98373384 -231.02202929 284.16744263 -227.06413269 294.3412323 C-225.45828807 298.46910674 -223.85506393 302.59799696 -222.25186157 306.72689819 C-221.15417471 309.54996747 -220.05212943 312.37130887 -218.94995117 315.19262695 C-218.29322715 316.88353704 -217.63671944 318.57453116 -216.98046875 320.265625 C-216.53531921 321.39882423 -216.53531921 321.39882423 -216.08117676 322.55491638 C-212.48151924 331.86675594 -212.48151924 331.86675594 -213.75 336.0625 C-215.20992191 338.90550583 -216.18091765 340.12962194 -219.25 341.125 C-222.52456334 341.42961054 -224.09421868 341.02111024 -226.9375 339.375 C-230.00822875 335.02281931 -231.72675742 330.1130324 -233.61328125 325.171875 C-233.97056305 324.24733017 -234.32784485 323.32278534 -234.69595337 322.370224 C-235.88501142 319.29015013 -237.06747445 316.20758716 -238.25 313.125 C-239.09469981 310.93318244 -239.93984268 308.74153558 -240.78540039 306.55004883 C-242.5816643 301.89252181 -244.37528998 297.23399075 -246.16699219 292.57470703 C-248.89860366 285.47287804 -251.63959081 278.3746948 -254.3828125 271.27734375 C-263.66494755 247.25807925 -272.92071452 223.22872298 -282.16067505 199.19320679 C-288.3942268 182.97888705 -294.63703061 166.76815964 -300.89053345 150.56152344 C-302.29551726 146.91902865 -303.69900897 143.27596168 -305.10229492 139.6328125 C-309.1609589 129.10308666 -313.23643064 118.58156198 -317.40234375 108.09375 C-318.06802653 106.41086877 -318.73355979 104.72792838 -319.39892578 103.04492188 C-320.58450078 100.04643552 -321.78352128 97.05389134 -322.99169922 94.06445312 C-326.62999316 84.9473271 -329.63714444 77.01112564 -325.94921875 67.44921875 C-323.28654459 61.99022269 -319.73851652 58.4546097 -313.9375 56.375 C-306.7574507 54.94194592 -301.46790584 55.60892645 -294.71875 58.26953125 C-293.86325562 58.58791458 -293.00776123 58.90629791 -292.12634277 59.23432922 C-289.38820795 60.26016918 -286.66283999 61.31568976 -283.9375 62.375 C-282.14882841 63.05620311 -280.35976578 63.73638032 -278.5703125 64.41552734 C-273.85984581 66.21283788 -269.16158392 68.04014041 -264.46655273 69.87734985 C-259.1055099 71.97491674 -253.73982868 74.06057715 -248.375 76.1484375 C-247.26435181 76.58104385 -246.15370361 77.01365021 -245.00939941 77.45936584 C-233.16559221 82.07054807 -221.30247534 86.63112442 -209.4375 91.1875 C-205.14700743 92.83560455 -200.85664704 94.48405266 -196.56640625 96.1328125 C-195.48323624 96.54907898 -194.40006622 96.96534546 -193.28407288 97.39422607 C-184.54959751 100.75228849 -175.81911599 104.12063002 -167.08984375 107.4921875 C-166.43006657 107.74699324 -165.77028938 108.00179897 -165.09051895 108.2643261 C-159.24281981 110.52272559 -153.39519545 112.78131803 -147.54833984 115.04190063 C-143.98946829 116.41780205 -140.43029948 117.79293209 -136.87109375 119.16796875 C-135.80495346 119.58049896 -134.73881317 119.99302917 -133.6403656 120.4180603 C-132.66519485 120.79467804 -131.69002411 121.17129578 -130.68530273 121.55932617 C-129.83620834 121.8876091 -128.98711395 122.21589203 -128.11228943 122.55412292 C-126.40149951 123.19986279 -124.67226335 123.79674555 -122.9375 124.375 C-122.89786133 123.79758057 -122.85822266 123.22016113 -122.81738281 122.62524414 C-120.75960955 93.9272653 -113.91692515 69.50729133 -95.9375 46.375 C-95.26976562 45.4675 -94.60203125 44.56 -93.9140625 43.625 C-91.9375 41.375 -91.9375 41.375 -88.5 40.375 C-84.56641627 40.375 -82.98324825 40.95631756 -79.9375 43.375 C-78.47579305 46.29841389 -78.57074178 48.11238001 -78.9375 51.375 C-80.33210647 54.03647421 -82.12612125 56.35928776 -83.9375 58.75 C-92.98360791 71.32878662 -99.03743098 84.39052429 -102.9375 99.375 C-103.18371094 100.31988281 -103.42992187 101.26476562 -103.68359375 102.23828125 C-109.58979823 130.38440054 -102.34621762 159.61045205 -86.9375 183.375 C-84.13659009 187.24169732 -81.138636 190.8344287 -77.9375 194.375 C-77.11636719 195.29023438 -76.29523438 196.20546875 -75.44921875 197.1484375 C-60.52575503 212.93414579 -40.2340925 223.47971016 -18.875 227.3125 C-15.72648681 227.97808643 -14.92264591 228.38804261 -12.375 230.625 C-10.66218092 233.90169737 -10.39407143 235.7262653 -10.9375 239.375 C-12 241.6875 -12 241.6875 -13.9375 243.375 C-19.20523978 244.55942348 -23.43083243 244.16356241 -28.5625 242.75 C-29.26125244 242.56397217 -29.96000488 242.37794434 -30.67993164 242.1862793 C-63.47406214 233.18404218 -90.31812633 212.42085269 -107.16796875 182.91796875 C-113.45659782 171.47314573 -120.24364933 156.62954921 -119.9375 143.375 C-120.45199707 143.23892334 -120.96649414 143.10284668 -121.49658203 142.96264648 C-129.62182615 140.67566088 -137.39436306 137.5575826 -145.23388672 134.45697021 C-149.79553014 132.65349715 -154.36291555 130.86465644 -158.9296875 129.07421875 C-159.90081482 128.69315979 -160.87194214 128.31210083 -161.87249756 127.91949463 C-173.20707344 123.47660004 -184.57183526 119.11260447 -195.9375 114.75 C-200.31521129 113.06928926 -204.69282272 111.38831885 -209.0703125 109.70703125 C-210.73613373 109.06726852 -210.73613373 109.06726852 -212.43560791 108.4145813 C-220.44964993 105.3351227 -228.45902723 102.2437522 -236.46611786 99.14627838 C-238.42170199 98.38980775 -240.37737245 97.63356072 -242.33306885 96.87738037 C-252.5174415 92.93933302 -252.5174415 92.93933302 -257.49462891 91.01068115 C-260.97237396 89.66309636 -264.45095978 88.31770189 -267.9296875 86.97265625 C-268.93909393 86.58075607 -269.94850037 86.1888559 -270.98849487 85.78507996 C-278.59868752 82.84582053 -286.24705743 80.12158663 -293.9375 77.375 C-210.7775 160.535 -127.6175 243.695 -41.9375 329.375 C-37.79576597 327.99442199 -35.04908012 327.04122619 -31.48828125 324.8984375 C-30.65425781 324.40085937 -29.82023437 323.90328125 -28.9609375 323.390625 C-28.06632812 322.84921875 -27.17171875 322.3078125 -26.25 321.75 C-24.27741826 320.57018792 -22.30475845 319.39050634 -20.33203125 318.2109375 C-19.29256348 317.58670898 -18.2530957 316.96248047 -17.18212891 316.31933594 C-11.61369178 312.98246361 -6.02416772 309.68122459 -0.4375 306.375 C1.86478031 305.01074881 4.16673629 303.64595106 6.46875 302.28125 C13.21380158 298.28418239 19.96382549 294.29557213 26.71484375 290.30859375 C35.16096194 285.31937734 43.5999656 280.3181714 52.03735352 275.31420898 C57.24854399 272.22438153 62.46128815 269.137417 67.68359375 266.06640625 C73.15190001 262.85045854 78.60892191 259.61584867 84.0625 256.375 C85.28090992 255.65313298 86.49933523 254.93129193 87.71777344 254.20947266 C90.96860218 252.28190935 94.21300016 250.34385415 97.45388794 248.39962769 C98.72766655 247.63737587 100.00326835 246.87816196 101.2807312 246.12210083 C103.0633372 245.06620701 104.83893716 243.99939013 106.61328125 242.9296875 C107.64106689 242.31593262 108.66885254 241.70217773 109.7277832 241.06982422 C112.33696122 239.52154447 112.33696122 239.52154447 113.0625 236.375 C109.90652746 232.74457451 106.52498258 230.97540467 102.13671875 229.21875 C101.13799492 228.81348083 101.13799492 228.81348083 100.11909485 228.40002441 C98.71527238 227.83636352 97.30905184 227.27864264 95.90063477 226.7265625 C93.75513295 225.87703244 91.62978004 224.98646888 89.50195312 224.09375 C88.13124417 223.54946744 86.75952777 223.00771377 85.38671875 222.46875 C84.75730881 222.19816772 84.12789886 221.92758545 83.47941589 221.64880371 C80.87007255 220.67056232 78.82398174 220.09632327 76.1544342 221.07328796 C74.01181289 222.24402984 74.01181289 222.24402984 71.0625 224.375 C70.08410156 225.00019531 69.10570312 225.62539062 68.09765625 226.26953125 C67.11667969 226.90246094 66.13570313 227.53539062 65.125 228.1875 C54.76518135 234.63552618 43.89279779 239.11792098 32.125 242.3125 C31.35655762 242.52414795 30.58811523 242.7357959 29.79638672 242.95385742 C23.92187017 244.44373427 17.26277636 245.81512436 11.5625 243.25 C9.44241505 240.59989382 9.13007321 238.75366049 9.0625 235.375 C10.66661848 231.84593933 11.80409362 230.54727092 15.0625 228.375 C17.7690917 227.76092382 20.46369766 227.21058216 23.1875 226.6875 C49.51595099 221.16830413 73.49004878 205.69549878 88.65673828 183.27490234 C105.21402055 157.84789725 110.66518023 128.45447774 104.61035156 98.74609375 C98.28340284 71.3631499 80.80779248 47.23258532 57.0625 32.375 C32.21885808 17.73815234 3.64787808 12.78497386 -24.53271484 19.58300781 C-34.53137585 22.17516919 -44.21015146 25.93574157 -53.0078125 31.39453125 C-56.3842703 33.11009989 -58.98870308 33.66184558 -62.625 32.5625 C-64.9375 31.375 -64.9375 31.375 -66.9375 29.375 C-67.57265228 23.84010152 -67.57265228 23.84010152 -66.9375 21.375 C-63.14875507 16.62972775 -58.5804568 14.35856987 -53.1875 11.875 C-52.35347656 11.48626709 -51.51945312 11.09753418 -50.66015625 10.69702148 C-42.66510572 7.07520917 -34.49348508 4.32607349 -25.9375 2.375 C-24.73951782 2.09897949 -24.73951782 2.09897949 -23.51733398 1.81738281 C-15.68452401 0.19575484 -7.98131666 -0.01081679 0 0 Z " fill="#00ff00" transform="translate(354.9375,-0.37499999999999994)"/>
<path d="M0 0 C11.327663 8.33686089 20.06460022 18.7676033 23.3671875 32.7421875 C23.54894531 33.48339844 23.73070312 34.22460938 23.91796875 34.98828125 C26.3767655 50.06177438 23.94481447 65.00627615 15.3671875 77.7421875 C10.07191212 84.51817877 4.04710465 90.90222892 -3.734375 94.79296875 C-9.75418836 97.8930599 -11.18789742 101.62366668 -13.5 107.86328125 C-15.78867334 113.67966832 -19.47670741 117.46917043 -25.1953125 120.046875 C-31.60554987 121.8754363 -38.92146036 121.905954 -45.0703125 119.1796875 C-50.70566129 115.81992353 -54.60626298 110.95938467 -56.6328125 104.7421875 C-58.25190179 92.35189365 -54.58955205 81.43752516 -47.4453125 71.3671875 C-41.31912378 63.73739027 -34.25873067 58.16316263 -25.4453125 53.9453125 C-23.20058718 52.45527931 -22.52769344 51.26584645 -21.6328125 48.7421875 C-21.81098729 45.35686652 -21.98639456 42.7628474 -23.8203125 39.8671875 C-26.47480642 38.21957058 -28.51608737 37.86685651 -31.6328125 37.7421875 C-35.16187317 39.34630598 -36.46054158 40.48378112 -38.6328125 43.7421875 C-38.93381184 45.44227637 -39.17768259 47.1528875 -39.3828125 48.8671875 C-40.51006687 55.46468399 -43.05440281 61.00531059 -48.4765625 65.15234375 C-55.06964512 69.04952606 -61.14690365 69.40802437 -68.6328125 68.7421875 C-74.81728081 67.03966388 -79.16653 63.05200241 -82.6328125 57.7421875 C-86.76120815 49.58436459 -85.44697775 38.42459224 -83.0078125 29.8671875 C-77.8895186 15.40399464 -68.32047203 3.81163803 -54.6328125 -3.2578125 C-36.91366729 -10.90502254 -16.50022852 -10.87392109 0 0 Z M-59.6015625 20.80859375 C-65.86912685 28.23140831 -69.49622879 36.81757675 -69.01171875 46.6328125 C-68.72073999 48.94335064 -68.72073999 48.94335064 -67.0703125 51.4296875 C-63.56529878 53.31700258 -61.39917765 52.78840004 -57.6328125 51.7421875 C-55.54974103 48.61758029 -55.28561476 47.17995457 -54.8203125 43.5546875 C-54.01905599 38.64291995 -52.54731205 35.31985884 -49.65625 31.30078125 C-48.44985076 29.77431737 -48.44985076 29.77431737 -48.6328125 27.7421875 C-47.29947917 27.07552083 -45.96614583 26.40885417 -44.6328125 25.7421875 C-43.6634375 25.2265625 -42.6940625 24.7109375 -41.6953125 24.1796875 C-35.33903597 21.19612913 -28.9591981 20.90707416 -22.1953125 22.8046875 C-16.17504125 25.02376359 -11.5163557 28.53220543 -8.24609375 34.10546875 C-4.86247429 41.73938914 -4.47809218 48.14997961 -7.3203125 55.9921875 C-9.91036659 62.51528668 -14.86993167 66.10732901 -20.6328125 69.8046875 C-26.65170784 73.68165452 -31.48764399 76.96769241 -35.3203125 83.1171875 C-36.19236328 84.49003906 -36.19236328 84.49003906 -37.08203125 85.890625 C-39.94325379 91.15181507 -41.19934988 95.7368913 -40.6328125 101.7421875 C-39.65232312 103.80621435 -39.65232312 103.80621435 -37.6328125 104.7421875 C-34.18121976 105.2562545 -32.38655264 105.23750245 -29.4453125 103.3046875 C-27.71850391 100.86333743 -27.08899713 99.24514525 -26.2578125 96.4296875 C-23.77843111 88.52665933 -19.37698914 85.04676839 -12.3203125 80.9296875 C-2.46464508 75.06348637 3.84284482 68.12696624 7.5546875 57.171875 C10.43132436 45.02914826 8.04339159 34.50382128 1.6796875 23.9921875 C-4.2740658 15.63000636 -13.54321155 9.7377278 -23.6328125 7.7421875 C-38.17042638 6.51052855 -49.51593399 10.22268605 -59.6015625 20.80859375 Z " fill="#00ff00" transform="translate(387.6328125,40.2578125)"/>
<path d="M0 0 C4.69400971 3.58337348 7.91533216 7.70684298 9.75 13.3359375 C10.6535309 20.85835752 10.23645176 28.02491204 5.75 34.3359375 C0.57057617 39.36397942 -5.11973583 42.58968271 -12.4375 42.7734375 C-18.57681333 42.62450537 -23.34474689 41.06633103 -28.25 37.3359375 C-33.62542179 31.09738904 -35.67362575 25.51112551 -35.59765625 17.328125 C-34.88945498 11.2328197 -32.1205577 6.2557204 -27.875 1.8984375 C-19.17305603 -3.28129106 -9.27304865 -5.44791608 0 0 Z M-17.5625 15.0234375 C-19.40690442 17.21132381 -19.40690442 17.21132381 -19.75 19.8359375 C-19.39061929 22.44556755 -19.39061929 22.44556755 -17.6875 24.7109375 C-15.23540742 26.67953556 -15.23540742 26.67953556 -11.625 26.2734375 C-7.99483076 25.660853 -7.99483076 25.660853 -6.25 22.3359375 C-6.33167489 18.76417635 -6.33167489 18.76417635 -7.25 15.3359375 C-11.22371659 12.68679311 -13.59016699 12.12470801 -17.5625 15.0234375 Z " fill="#00ff00" transform="translate(368.25,170.6640625)"/>
</svg>