<svg version="1.1" xmlns="http://www.w3.org/2000/svg" width="512px" height="512px" transform="rotate(0) scale(1, 1)">
<path d="M0 0 C0.7927533 0.00182281 1.58550659 0.00364563 2.40228271 0.00552368 C14.27324689 0.05145399 25.72524438 0.52635711 37.3125 3.3125 C38.02857422 3.47347168 38.74464844 3.63444336 39.48242188 3.80029297 C69.68687702 10.7138457 96.37434106 26.68116846 118.3125 48.3125 C119.67955078 49.66021484 119.67955078 49.66021484 121.07421875 51.03515625 C133.15628714 63.565347 142.22874647 78.47267824 149.3125 94.3125 C149.78171875 95.35148437 150.2509375 96.39046875 150.734375 97.4609375 C161.83925211 124.12635229 162.81619809 151.28630158 155.71484375 178.92773438 C155.39515625 180.19037109 155.07546875 181.45300781 154.74609375 182.75390625 C154.44759521 183.87482666 154.14909668 184.99574707 153.84155273 186.15063477 C152.88748873 191.85256507 154.51536354 196.19976523 156.8125 201.375 C162.05250174 213.21070161 161.95040201 227.23893323 157.3125 239.3125 C152.79069759 250.85639556 143.8150647 261.06576527 133 267.1875 C130.3125 268.3125 130.3125 268.3125 128.3125 268.3125 C128.3125 303.9525 128.3125 339.5925 128.3125 376.3125 C130.2925 376.9725 132.2725 377.6325 134.3125 378.3125 C162.03498787 393.6509276 181.43491243 417.66596325 190.34375 447.80078125 C192.01310498 454.50138664 192.62436671 461.05804218 192.75 467.9375 C192.78359619 469.09354736 192.78359619 469.09354736 192.81787109 470.27294922 C192.80381978 473.61050517 192.69328788 475.7978596 190.67856598 478.52078581 C187.59678463 480.85447871 185.80520316 480.81367088 181.95935059 480.81586456 C180.64409645 480.82629555 179.32884232 480.83672654 177.97373199 480.84747362 C176.51048059 480.83882501 175.04723138 480.82979837 173.58398438 480.82043457 C172.03245202 480.82504172 170.48092403 480.83139338 168.92940521 480.83934355 C164.65905508 480.85608581 160.3890612 480.84776843 156.11870956 480.83539867 C151.51604513 480.82637045 146.91344315 480.84030681 142.31079102 480.85131836 C133.29150141 480.86913204 124.27234473 480.86525094 115.25304985 480.8536678 C107.92479229 480.84464493 100.59657206 480.8434045 93.26831055 480.84776306 C92.22647157 480.84837599 91.1846326 480.84898893 90.11122274 480.84962043 C87.99493979 480.8508993 85.87865685 480.85219615 83.76237392 480.8535108 C63.90438173 480.86492494 44.04646333 480.85178981 24.18848324 480.83030933 C7.13863936 480.8124376 -9.91109559 480.81554147 -26.9609375 480.83398438 C-46.74645533 480.85537636 -66.53190844 480.86382623 -86.31743622 480.85153532 C-88.42606098 480.85026108 -90.53468576 480.8490036 -92.64331055 480.84776306 C-94.19965454 480.84683741 -94.19965454 480.84683741 -95.78743982 480.84589306 C-103.10936692 480.84243513 -110.43125307 480.84827801 -117.75317383 480.85768127 C-126.67263116 480.86888408 -135.59194764 480.86589749 -144.51138878 480.8445583 C-149.06479015 480.83402467 -153.61795642 480.82996525 -158.1713562 480.84315491 C-162.33625617 480.85503701 -166.50070219 480.84858594 -170.66556072 480.8272447 C-172.17559197 480.82276079 -173.68566123 480.82508482 -175.19566822 480.83474785 C-177.24186962 480.84684201 -179.2881778 480.83209231 -181.33435059 480.81586456 C-183.04211796 480.81489045 -183.04211796 480.81489045 -184.78438568 480.81389666 C-188.36085776 480.19620443 -189.54217265 479.19940426 -191.6875 476.3125 C-192.09906022 473.4224999 -192.25786047 471.00702591 -192.1875 468.125 C-192.17541504 467.33053467 -192.16333008 466.53606934 -192.15087891 465.7175293 C-191.2849763 439.19729401 -178.23350295 415.60339974 -159.6875 397.3125 C-158.88828125 396.50296875 -158.0890625 395.6934375 -157.265625 394.859375 C-150.10078488 387.98305194 -140.55113866 380.80244418 -131.11135864 377.37794495 C-128.55156623 375.60877075 -128.55156623 375.60877075 -128.21765232 373.33070755 C-128.02770604 370.59334311 -128.00416205 367.89366719 -128.02807617 365.1496582 C-128.01235062 363.58355301 -128.01235062 363.58355301 -127.99630737 361.98580933 C-127.96746072 358.52800122 -127.97386049 355.07118859 -127.98046875 351.61328125 C-127.96735962 349.21858967 -127.95205783 346.82390916 -127.93464661 344.429245 C-127.89469243 338.12122805 -127.8845994 331.81349966 -127.88061523 325.50537109 C-127.87130349 319.07054838 -127.83390224 312.63589662 -127.79882812 306.20117188 C-127.73414607 293.57162985 -127.70003954 280.94219587 -127.6875 268.3125 C-128.63512207 268.00779785 -129.58274414 267.7030957 -130.55908203 267.38916016 C-141.71049766 263.5513466 -150.61481834 252.55297611 -155.6875 242.3125 C-161.42707095 228.18777462 -161.43088681 213.41165022 -155.6875 199.3125 C-155.12675781 198.36632812 -154.56601563 197.42015625 -153.98828125 196.4453125 C-151.28279679 189.92940098 -154.26959472 182.75131221 -155.91040039 176.17724609 C-160.70490385 156.60608019 -161.51931958 137.93675844 -156.6875 118.3125 C-156.51589355 117.61463379 -156.34428711 116.91676758 -156.16748047 116.19775391 C-146.09035988 76.60070367 -119.41913985 42.93828271 -84.50830078 22.00585938 C-71.3584858 14.45771699 -57.76416495 8.96096034 -43.125 5.0625 C-42.20380371 4.81604736 -41.28260742 4.56959473 -40.33349609 4.31567383 C-26.91333766 0.89982671 -13.77484634 -0.06582466 0 0 Z M-104.375 59.9375 C-105.138125 60.72125 -105.90125 61.505 -106.6875 62.3125 C-107.41259766 62.95251953 -107.41259766 62.95251953 -108.15234375 63.60546875 C-128.3985013 82.13665766 -141.16538967 113.76247187 -143.03515625 140.68359375 C-143.5925992 153.38981725 -140.91439031 165.08489064 -137.6875 177.3125 C-134.3875 175.6625 -131.0875 174.0125 -127.6875 172.3125 C-127.6781543 170.90669678 -127.66880859 169.50089355 -127.65917969 168.05249023 C-127.61889544 162.7684925 -127.55303483 157.48505377 -127.47998047 152.20141602 C-127.45199161 149.92740128 -127.43066892 147.65329325 -127.41650391 145.37915039 C-127.25711838 121.22161722 -123.36035421 101.73871364 -106.6875 83.3125 C-106.02363281 82.56742187 -105.35976562 81.82234375 -104.67578125 81.0546875 C-81.0608105 55.99924718 -43.39539615 43.14429646 -9.61151123 42.02191162 C-6.11559632 41.94468656 -2.6216677 41.92814745 0.875 41.9375 C1.61240417 41.93771149 2.34980835 41.93792297 3.10955811 41.93814087 C15.83903256 41.97436169 27.95278813 43.0877699 40.3125 46.3125 C41.0348584 46.49973633 41.7572168 46.68697266 42.50146484 46.87988281 C47.18886511 48.13957404 51.75679576 49.64154175 56.3125 51.3125 C57.33005371 51.68133301 57.33005371 51.68133301 58.36816406 52.05761719 C84.5746264 61.73179527 109.19677549 78.31273544 121.3125 104.3125 C124.61788269 112.10347441 127.36380038 119.86296394 127.51782227 128.37817383 C127.53776749 129.35881302 127.55771271 130.33945221 127.57826233 131.34980774 C127.60333107 132.91882088 127.60333107 132.91882088 127.62890625 134.51953125 C127.64968735 135.60006271 127.67046844 136.68059418 127.69187927 137.79386902 C127.75714036 141.23751611 127.81615075 144.68123795 127.875 148.125 C127.91820751 150.46289828 127.96182251 152.80078907 128.00585938 155.13867188 C128.11279776 160.86320511 128.21413116 166.58781335 128.3125 172.3125 C131.6125 173.9625 134.9125 175.6125 138.3125 177.3125 C146.77242912 145.25541143 143.21349085 116.07788213 126.62109375 87.01953125 C119.03764899 74.44813576 109.53425478 62.74940715 98.3125 53.3125 C96.99958984 52.15041016 96.99958984 52.15041016 95.66015625 50.96484375 C37.76460765 0.68508544 -50.75059098 7.56017026 -104.375 59.9375 Z M-93.28271484 92.82568359 C-109.65272049 110.15160198 -111.86989842 128.19657438 -111.78515625 150.9453125 C-111.78328713 152.43317619 -111.78186556 153.9210405 -111.78086853 155.40890503 C-111.77708222 159.29188793 -111.76728594 163.17483239 -111.75616455 167.05780029 C-111.74586607 171.03331991 -111.74135298 175.00884584 -111.73632812 178.984375 C-111.7256595 186.76043404 -111.7086308 194.5364616 -111.6875 202.3125 C-105.36600997 200.51306355 -99.26265529 198.47459155 -93.19921875 195.94140625 C-92.42619919 195.62323441 -91.65317963 195.30506256 -90.85673523 194.97724915 C-88.36062511 193.94839001 -85.86754969 192.91245251 -83.375 191.875 C-79.87142556 190.41977276 -76.36739517 188.96564638 -72.86328125 187.51171875 C-71.99384888 187.15027771 -71.1244165 186.78883667 -70.2286377 186.41644287 C-64.98183223 184.24128452 -59.714841 182.1318945 -54.41796875 180.08203125 C-39.15795196 174.1354071 -25.7723803 167.2028476 -12.6875 157.3125 C-11.81955811 156.66087891 -11.81955811 156.66087891 -10.93408203 155.99609375 C-7.73358383 153.56029857 -4.68704358 150.99032597 -1.6875 148.3125 C-0.95611816 147.6613623 -0.95611816 147.6613623 -0.20996094 146.99707031 C3.34607211 143.81910207 6.83634466 140.57753291 10.3125 137.3125 C10.99828125 136.69246094 11.6840625 136.07242188 12.390625 135.43359375 C30.74710073 118.19547473 46.01189479 92.93561121 47.26953125 67.375 C47.28371094 66.694375 47.29789063 66.01375 47.3125 65.3125 C0.39204079 50.74714418 -57.11662727 56.36900811 -93.28271484 92.82568359 Z M63.3125 73.3125 C63.09335937 74.43785156 62.87421875 75.56320313 62.6484375 76.72265625 C53.76723975 120.45764247 24.39895076 150.98017725 -10.6875 176.3125 C-7.39091072 178.51022618 -4.20498136 179.49267545 -0.45092773 180.58398438 C0.28493561 180.80229919 1.02079895 181.02061401 1.77896118 181.24554443 C4.22753305 181.97064933 6.67818513 182.68844586 9.12890625 183.40625 C10.85933725 183.91708065 12.58963582 184.42836011 14.31980896 184.94006348 C18.90694811 186.29538396 23.49588071 187.64453215 28.08520508 188.99243164 C32.61713487 190.32460563 37.14737222 191.66250664 41.67773438 193 C47.89950464 194.83641019 54.12236612 196.66903447 60.34662437 198.49699402 C67.21464467 200.51408196 74.08055367 202.53750708 80.93917561 204.58635712 C84.11671966 205.53539379 87.29537044 206.48069155 90.47410393 207.42573547 C91.95333121 207.86672613 93.43198955 208.30963032 94.91003609 208.75456238 C96.93071737 209.36271954 98.9532497 209.96429435 100.97631836 210.56445312 C102.10968124 210.90383911 103.24304413 211.2432251 104.41075134 211.59289551 C107.46129241 212.472966 107.46129241 212.472966 111.3125 212.3125 C111.49056805 202.38454567 111.65643498 192.45646646 111.80727577 182.52805901 C111.8777097 177.9165331 111.95214332 173.30514817 112.03613281 168.69384766 C112.11722774 164.23300768 112.18727422 159.77211164 112.25007248 155.31097794 C112.27573992 153.61992258 112.30520379 151.9289199 112.33876419 150.23800278 C112.78398349 127.47596649 109.27296637 109.97275396 93.22875977 92.77880859 C85.73679155 85.03327368 76.34039886 77.47586872 66.3125 73.3125 C65.3225 73.3125 64.3325 73.3125 63.3125 73.3125 Z M-41.54296875 192.19921875 C-42.65639397 192.64754814 -42.65639397 192.64754814 -43.79231262 193.10493469 C-46.15725071 194.06031751 -48.51595811 195.03016362 -50.875 196 C-52.44039233 196.6330595 -54.00614478 197.26522928 -55.57226562 197.89648438 C-63.69687557 201.18546839 -71.75287156 204.58297433 -79.6875 208.3125 C-79.73745648 214.46483213 -79.7734794 220.61704256 -79.79736328 226.76953125 C-79.80733476 228.85646627 -79.82091681 230.94338765 -79.83837891 233.03027344 C-80.55203571 254.96222757 -80.55203571 254.96222757 -74.125 275.5625 C-73.77566406 276.23015381 -73.42632812 276.89780762 -73.06640625 277.58569336 C-69.77091872 283.62815089 -65.67137342 288.56679398 -60.6875 293.3125 C-60.05199219 293.94414062 -59.41648438 294.57578125 -58.76171875 295.2265625 C-50.80117853 302.70914068 -41.4936194 307.30244136 -31.25 310.8125 C-30.48059082 311.08006104 -29.71118164 311.34762207 -28.91845703 311.62329102 C-24.87563571 312.93115834 -21.82733434 313.86775537 -17.6875 312.3125 C-15.66695196 310.67080472 -13.66706942 309.00338222 -11.6875 307.3125 C-7.27682006 304.96481536 -2.94316593 305.02185424 1.9375 305.046875 C2.7620166 305.04496155 3.5865332 305.0430481 4.43603516 305.04107666 C6.17415676 305.03971952 7.91228867 305.04338297 9.65039062 305.05175781 C12.30361807 305.06246416 14.95616849 305.05184667 17.609375 305.0390625 C19.30208482 305.04038418 20.99479422 305.04294674 22.6875 305.046875 C23.47721191 305.04282654 24.26692383 305.03877808 25.08056641 305.03460693 C29.31074193 305.07043842 32.47003947 305.57355711 36.3125 307.3125 C48.26715972 306.52393406 58.41663811 296.60829701 66.3125 288.3125 C68.92640738 285.11929423 71.18466916 281.84493828 73.3125 278.3125 C73.70953125 277.70535156 74.1065625 277.09820312 74.515625 276.47265625 C81.27664702 264.94360005 80.728784 249.74239319 80.5 236.8125 C80.48489259 235.29558653 80.47121513 233.77865814 80.45898438 232.26171875 C80.42653454 228.61165914 80.37510451 224.96218223 80.3125 221.3125 C78.88027351 220.8881366 78.88027351 220.8881366 77.41911316 220.4552002 C56.68770599 214.31256104 56.68770599 214.31256104 35.95629883 208.16992188 C35.05020811 207.9014595 34.14411739 207.63299713 33.21056938 207.35639954 C31.39203389 206.81755615 29.57351805 206.27864644 27.75502205 205.7396698 C23.27918836 204.41318333 18.80302903 203.08781784 14.32614136 201.76489258 C6.49693707 199.45022143 -1.32830374 197.12522784 -9.13818359 194.74609375 C-10.3903215 194.36706909 -11.64245941 193.98804443 -12.93254089 193.59753418 C-15.19303727 192.91213403 -17.45161546 192.2203577 -19.7077179 191.52062988 C-28.11330522 188.98096308 -33.31469578 188.7844473 -41.54296875 192.19921875 Z M-131.4921875 193.96484375 C-139.55015968 202.85902059 -143.0963048 211.0898618 -142.96484375 223.08203125 C-142.15348471 232.53264989 -137.76505645 240.59606287 -130.875 246.99609375 C-120.07070665 255.73101639 -109.29896304 256.3125 -95.6875 256.3125 C-95.6875 242.7825 -95.6875 229.2525 -95.6875 215.3125 C-103.49130976 217.58912547 -103.49130976 217.58912547 -110.8125 220.5 C-115.40626187 222.38091037 -118.74568187 222.91938995 -123.6875 222.3125 C-125.37817383 221.17260742 -125.37817383 221.17260742 -126.6875 219.3125 C-127.11987305 216.4934082 -127.11987305 216.4934082 -127.19921875 213.11328125 C-127.23466797 211.90478516 -127.27011719 210.69628906 -127.30664062 209.45117188 C-127.32919922 208.18853516 -127.35175781 206.92589844 -127.375 205.625 C-127.40916016 204.35076172 -127.44332031 203.07652344 -127.47851562 201.76367188 C-127.56110784 198.61336897 -127.63022335 195.46334843 -127.6875 192.3125 C-129.8494599 192.08740308 -129.8494599 192.08740308 -131.4921875 193.96484375 Z M128.3125 192.3125 C128.29268066 193.38733643 128.27286133 194.46217285 128.25244141 195.56958008 C128.17638742 199.55614714 128.08766991 203.5423491 127.99511719 207.52856445 C127.95682655 209.25407708 127.92197379 210.97966956 127.890625 212.70532227 C127.84497596 215.18534895 127.78698219 217.66482591 127.7265625 220.14453125 C127.70923569 221.30248955 127.70923569 221.30248955 127.69155884 222.48384094 C127.58728727 226.26496674 127.4590411 228.09268835 125.3125 231.3125 C118.78339948 233.26684821 113.2351966 231.26487349 106.875 229.375 C103.389375 228.364375 99.90375 227.35375 96.3125 226.3125 C96.3125 236.2125 96.3125 246.1125 96.3125 256.3125 C110.46985879 256.3125 121.80001217 255.91089517 132.640625 246.234375 C140.55462666 237.85139546 143.7245835 228.93576331 143.5859375 217.5390625 C142.81978535 208.49846709 138.70856211 200.69453566 132.3125 194.3125 C130.9933054 193.61827537 129.66128852 192.94731631 128.3125 192.3125 Z M-110.6875 272.3125 C-109.62197307 279.77118849 -109.49481527 280.50518473 -104.6875 285.3125 C-101.31211317 287.63307845 -100.15147411 287.3125 -95.6875 287.3125 C-95.6875 282.3625 -95.6875 277.4125 -95.6875 272.3125 C-100.6375 272.3125 -105.5875 272.3125 -110.6875 272.3125 Z M96.3125 272.3125 C96.3125 277.2625 96.3125 282.2125 96.3125 287.3125 C103.77118849 286.24697307 104.50518473 286.11981527 109.3125 281.3125 C111.63307845 277.93711317 111.3125 276.77647411 111.3125 272.3125 C106.3625 272.3125 101.4125 272.3125 96.3125 272.3125 Z M79.3125 298.3125 C78.94640625 298.78558594 78.5803125 299.25867188 78.203125 299.74609375 C71.42596489 308.02391074 62.76915079 314.36925072 53.3125 319.3125 C53.3125 319.6425 53.3125 319.9725 53.3125 320.3125 C60.4657508 320.38867191 67.61889667 320.44115121 74.77246094 320.47729492 C77.20511789 320.49236534 79.63774774 320.51282523 82.0703125 320.53881836 C85.57038061 320.5752774 89.0700889 320.5922442 92.5703125 320.60546875 C93.65490753 320.62095261 94.73950256 320.63643646 95.85696411 320.65238953 C101.39516573 320.65361911 105.59171041 320.57862768 110.3125 317.3125 C112.41957905 313.73046562 112.53624988 310.59812014 112.4375 306.5 C112.41945313 305.52417969 112.40140625 304.54835938 112.3828125 303.54296875 C112.35960937 302.80691406 112.33640625 302.07085937 112.3125 301.3125 C111.20519531 301.63605469 110.09789062 301.95960938 108.95703125 302.29296875 C103.95755277 303.53870794 99.13114584 303.64393412 94 303.625 C93.10732422 303.64111328 92.21464844 303.65722656 91.29492188 303.67382812 C90.43833984 303.67447266 89.58175781 303.67511719 88.69921875 303.67578125 C87.92795654 303.67876221 87.15669434 303.68174316 86.36206055 303.68481445 C83.77931606 303.21564407 82.98035118 302.29083134 81.3125 300.3125 C80.6525 299.6525 79.9925 298.9925 79.3125 298.3125 Z M-79.6875 298.3125 C-80.120625 299.2715625 -80.120625 299.2715625 -80.5625 300.25 C-81.6875 302.3125 -81.6875 302.3125 -83.6875 303.3125 C-86.88996134 303.55278556 -90.10202388 303.49770352 -93.3125 303.5 C-94.62927734 303.51836914 -94.62927734 303.51836914 -95.97265625 303.53710938 C-97.27396484 303.54000977 -97.27396484 303.54000977 -98.6015625 303.54296875 C-99.3848291 303.54707764 -100.1680957 303.55118652 -100.97509766 303.55541992 C-104.60878443 303.22999073 -108.14819681 302.1973258 -111.6875 301.3125 C-111.6875 323.0925 -111.6875 344.8725 -111.6875 367.3125 C-104.0975 364.0125 -96.5075 360.7125 -88.6875 357.3125 C-84.54736142 355.65274595 -80.4207779 354.01044371 -76.25 352.4375 C-72.71358632 351.0987324 -69.19032353 349.73700739 -65.6875 348.3125 C-64.93428467 348.00844238 -64.18106934 347.70438477 -63.4050293 347.39111328 C-58.41034446 345.16881112 -56.12067629 342.81491254 -53.375 337.9375 C-52.73949219 336.83664062 -52.10398438 335.73578125 -51.44921875 334.6015625 C-50.86785156 333.51617187 -50.28648437 332.43078125 -49.6875 331.3125 C-49.11644531 330.24773437 -48.54539063 329.18296875 -47.95703125 328.0859375 C-46.47939316 325.36623175 -46.47939316 325.36623175 -46.6875 322.3125 C-47.52152344 321.88839844 -48.35554688 321.46429688 -49.21484375 321.02734375 C-56.24872296 317.36134714 -62.63844348 313.48107003 -68.6875 308.3125 C-69.42097656 307.68859375 -70.15445313 307.0646875 -70.91015625 306.421875 C-73.93613016 303.80778501 -76.88510994 301.16646779 -79.6875 298.3125 Z M-5.6875 323.3125 C-7.10791821 326.15333641 -7.00202272 328.16727278 -6.6875 331.3125 C-4.45543569 334.16030619 -3.13757001 335.16247666 0.3125 336.3125 C4.24561853 336.5713352 8.18427186 336.54390069 12.125 336.5625 C13.74631836 336.5934375 13.74631836 336.5934375 15.40039062 336.625 C23.28014897 336.6689751 23.28014897 336.6689751 30.3125 333.3125 C31.73291821 330.47166359 31.62702272 328.45772722 31.3125 325.3125 C29.08043569 322.46469381 27.76257001 321.46252334 24.3125 320.3125 C20.37938147 320.0536648 16.44072814 320.08109931 12.5 320.0625 C11.41912109 320.041875 10.33824219 320.02125 9.22460938 320 C1.34485103 319.9560249 1.34485103 319.9560249 -5.6875 323.3125 Z M-29.6875 329.3125 C-31.75529995 332.71399082 -33.78696178 336.13570252 -35.8125 339.5625 C-36.69615234 341.01462891 -36.69615234 341.01462891 -37.59765625 342.49609375 C-38.14550781 343.43066406 -38.69335938 344.36523438 -39.2578125 345.328125 C-39.77102051 346.18696289 -40.28422852 347.04580078 -40.81298828 347.93066406 C-41.94242186 350.26001509 -41.94242186 350.26001509 -41.01879883 352.45532227 C-38.87422915 355.44702254 -36.06528043 357.66860755 -33.25 360 C-32.62399902 360.52601807 -31.99799805 361.05203613 -31.35302734 361.59399414 C-30.07643668 362.66420644 -28.79714441 363.73120463 -27.51513672 364.79492188 C-25.86860155 366.16212233 -24.23172162 367.53982432 -22.59765625 368.921875 C-10.86062615 378.83440672 -10.86062615 378.83440672 3.77026367 381.57592773 C11.36157251 380.78931271 17.39160272 376.06587529 23 371.25 C24.37800453 370.09787897 25.75693067 368.94685944 27.13671875 367.796875 C27.82556152 367.21873047 28.5144043 366.64058594 29.22412109 366.04492188 C32.53567982 363.29780699 35.92065542 360.646876 39.3125 358 C39.91795654 357.52618896 40.52341309 357.05237793 41.1472168 356.56420898 C42.53465196 355.47903575 43.92341096 354.39555536 45.3125 353.3125 C43.9925 351.0025 42.6725 348.6925 41.3125 346.3125 C40.81250488 346.66691162 40.31250977 347.02132324 39.79736328 347.38647461 C31.743204 352.27926043 23.89098739 352.04467148 14.76220703 351.90942383 C12.18541828 351.87497217 9.61204338 351.88884093 7.03515625 351.90820312 C5.3749856 351.90130635 3.71482367 351.89163548 2.0546875 351.87890625 C0.91687332 351.88634605 0.91687332 351.88634605 -0.243927 351.89393616 C-6.63889199 351.75480747 -11.65593042 349.70678482 -16.67578125 345.7421875 C-20.67750534 341.04399815 -22.31590609 336.2921682 -23.6875 330.3125 C-26.6575 329.8175 -26.6575 329.8175 -29.6875 329.3125 Z M106.05834961 335.40429688 C104.37671974 335.434328 104.37671974 335.434328 102.66111755 335.46496582 C100.83146202 335.49777649 100.83146202 335.49777649 98.96484375 335.53125 C97.72328018 335.55344604 96.48171661 335.57564209 95.20252991 335.59851074 C91.89647305 335.65763073 88.5904176 335.71682799 85.28436279 335.77606201 C81.91288364 335.83644943 78.54140268 335.89673619 75.16992188 335.95703125 C68.55077958 336.07542761 61.93163911 336.19392578 55.3125 336.3125 C57.41759992 341.82347351 59.44404166 345.86910021 64.83251953 348.58056641 C67.98706693 349.85083644 71.16477794 351.00292454 74.375 352.125 C76.71400622 352.97955496 79.05123187 353.83899809 81.38671875 354.703125 C82.54993652 355.13302734 83.7131543 355.56292969 84.91162109 356.00585938 C90.7798646 358.26047813 96.473535 360.87540271 102.16821289 363.5324707 C102.92481201 363.88398193 103.68141113 364.23549316 104.4609375 364.59765625 C105.11239746 364.90582275 105.76385742 365.21398926 106.43505859 365.53149414 C108.61819227 366.49424265 108.61819227 366.49424265 112.3125 367.3125 C112.3125 356.7525 112.3125 346.1925 112.3125 335.3125 C110.22769642 335.3125 108.14271598 335.36699278 106.05834961 335.40429688 Z M-64.75 365.3125 C-65.50861328 365.59867187 -66.26722656 365.88484375 -67.04882812 366.1796875 C-68.92893782 366.88916286 -70.8082897 367.60064582 -72.6875 368.3125 C-69.66638062 375.04402328 -63.46581728 379.57264602 -57.98046875 384.3046875 C-55.21842425 386.72324095 -52.51415216 389.20208257 -49.8125 391.6875 C-49.29800293 392.15865234 -48.78350586 392.62980469 -48.25341797 393.11523438 C-45.84752738 395.31931133 -43.45418292 397.53287446 -41.08203125 399.7734375 C-28.80896441 411.20748705 -14.8837034 418.82309793 2.2734375 418.58984375 C18.61603981 417.09842374 29.53014572 410.41368692 41.3125 399.3125 C42.97528548 397.80819876 44.64194522 396.30816858 46.3125 394.8125 C47.55386719 393.69488281 47.55386719 393.69488281 48.8203125 392.5546875 C50.45989879 391.07957382 52.10049655 389.60558348 53.7421875 388.1328125 C60.30788064 382.23837233 66.81671695 376.28370951 73.3125 370.3125 C71.86237453 367.41224906 69.99937091 367.22543145 67 366.125 C65.55173828 365.57779297 65.55173828 365.57779297 64.07421875 365.01953125 C61.08523868 364.25431853 60.08990458 364.06452662 57.3125 365.3125 C55.11259895 366.88551632 53.02794366 368.48057068 50.9375 370.1875 C49.68624826 371.18886499 48.43494466 372.19016519 47.18359375 373.19140625 C46.54405762 373.70719238 45.90452148 374.22297852 45.24560547 374.75439453 C15.42693808 398.78858691 15.42693808 398.78858691 -4.6875 397.3125 C-15.39384326 395.5429617 -22.70273547 390.17944388 -30.6875 383.3125 C-31.86833094 382.31101084 -33.04932337 381.30971205 -34.23046875 380.30859375 C-36.59668664 378.29328437 -38.95198668 376.26604656 -41.30078125 374.23046875 C-51.69120499 363.84437255 -51.69120499 363.84437255 -64.75 365.3125 Z M-91.6875 376.3125 C-94.06678625 377.14887953 -94.06678625 377.14887953 -96.75390625 378.48828125 C-98.30646118 379.22836426 -98.30646118 379.22836426 -99.89038086 379.98339844 C-100.99905518 380.52512695 -102.10772949 381.06685547 -103.25 381.625 C-104.37865479 382.17317383 -105.50730957 382.72134766 -106.67016602 383.28613281 C-119.9159401 389.79640015 -132.48176018 396.62220309 -143.6875 406.3125 C-144.27144531 406.75335938 -144.85539062 407.19421875 -145.45703125 407.6484375 C-159.42482754 418.44322152 -169.80931114 437.26599755 -173.6875 454.3125 C-174.0175 457.6125 -174.3475 460.9125 -174.6875 464.3125 C-153.8975 464.3125 -133.1075 464.3125 -111.6875 464.3125 C-111.3575 455.0725 -111.0275 445.8325 -110.6875 436.3125 C-107.6875 433.3125 -107.6875 433.3125 -105.75 432.9140625 C-105.069375 432.92179687 -104.38875 432.92953125 -103.6875 432.9375 C-102.6665625 432.92589844 -102.6665625 432.92589844 -101.625 432.9140625 C-99.6875 433.3125 -99.6875 433.3125 -96.6875 436.3125 C-96.3575 445.5525 -96.0275 454.7925 -95.6875 464.3125 C-32.3275 464.3125 31.0325 464.3125 96.3125 464.3125 C96.6425 455.0725 96.9725 445.8325 97.3125 436.3125 C100.3125 433.3125 100.3125 433.3125 102.25 432.9140625 C102.930625 432.92179687 103.61125 432.92953125 104.3125 432.9375 C105.3334375 432.92589844 105.3334375 432.92589844 106.375 432.9140625 C108.3125 433.3125 108.3125 433.3125 111.3125 436.3125 C111.6425 445.5525 111.9725 454.7925 112.3125 464.3125 C133.1025 464.3125 153.8925 464.3125 175.3125 464.3125 C173.17676904 442.95519043 164.35660688 426.3334621 149.3125 411.3125 C148.74273437 410.67183594 148.17296875 410.03117187 147.5859375 409.37109375 C134.70451772 395.13547343 111.27939188 383.70430321 93.3125 377.3125 C89.6352319 377.57516201 88.01592812 379.31172362 85.5625 381.9375 C82.36411116 385.25935605 79.07176456 388.32667596 75.578125 391.33203125 C72.77933642 393.77855851 70.04563546 396.29330278 67.3125 398.8125 C63.3546296 402.45641949 59.36833383 406.057936 55.29296875 409.5703125 C53.83551744 410.8524097 52.40417611 412.16433988 50.98828125 413.4921875 C35.74500781 427.70648015 18.30500731 434.85706806 -2.72387695 434.2890625 C-29.2002098 432.96189604 -45.83072741 417.92273132 -64.00708008 400.65234375 C-67.85067587 397.0007541 -71.76884287 393.46326375 -75.77294922 389.98852539 C-79.12614332 387.05309087 -82.3784705 384.00870371 -85.63671875 380.96875 C-88.44226461 378.33667554 -88.44226461 378.33667554 -91.6875 376.3125 Z " fill="#00ff00" transform="translate(255.6875,15.6875)"/>
<path d="M0 0 C2.14291019 3.21436529 2.30025791 5.17426609 2.4609375 8.96484375 C1.78700207 11.94044001 0.31881449 13.06483543 -2 15 C-4.53930664 15.65014648 -4.53930664 15.65014648 -7.41015625 15.87109375 C-8.47314941 15.96737061 -9.53614258 16.06364746 -10.63134766 16.1628418 C-12.32976807 16.29879761 -12.32976807 16.29879761 -14.0625 16.4375 C-34.86980376 18.50385076 -54.66209561 23.13753567 -71 37 C-72.22783203 37.92232422 -72.22783203 37.92232422 -73.48046875 38.86328125 C-80.73296924 45.01385143 -83.7383228 52.9560628 -85.1015625 62.15234375 C-86.25284968 65.80142356 -87.81047654 66.97422159 -91 69 C-94.78215272 69.63035879 -96.38877454 69.38077816 -99.65234375 67.34765625 C-102 65 -102 65 -102.62890625 62.15234375 C-102.31009182 46.71797435 -96.27133903 36.52638041 -85.875 25.375 C-67.21286098 7.51038829 -40.69195371 0.00247901 -15.5 -1.6875 C-14.77941406 -1.74744141 -14.05882812 -1.80738281 -13.31640625 -1.86914062 C-8.49059806 -2.18766142 -4.58538256 -1.78899395 0 0 Z " fill="#00ff00" transform="translate(262,90)"/>
<path d="M0 0 C5.82485779 3.51996782 10.54466582 8.98962934 12.5625 15.5 C13.36764105 23.33608208 13.68710392 31.11922577 8.5625 37.5 C3.75801361 42.54521222 -0.59927055 46.10562995 -7.70703125 46.8359375 C-16.22326573 46.92983204 -22.11345494 46.6177288 -28.40234375 40.62890625 C-34.7841668 33.72505269 -35.91792252 28.29832071 -35.7421875 18.9453125 C-35.04689797 11.08319245 -31.38995981 6.95041296 -25.53515625 1.9453125 C-18.47077988 -2.92213491 -7.84396301 -3.47595223 0 0 Z M-16.8125 17.125 C-18.92456506 20.21186432 -19.04945145 21.8282913 -18.4375 25.5 C-16.9375 28 -16.9375 28 -14.4375 29.5 C-10.7657913 30.11195145 -9.14936432 29.98706506 -6.0625 27.875 C-3.95043494 24.78813568 -3.82554855 23.1717087 -4.4375 19.5 C-5.9375 17 -5.9375 17 -8.4375 15.5 C-12.1092087 14.88804855 -13.72563568 15.01293494 -16.8125 17.125 Z " fill="#00ff00" transform="translate(483.4375,345.5)"/>
<path d="M0 0 C5.82485779 3.51996782 10.54466582 8.98962934 12.5625 15.5 C13.36764105 23.33608208 13.68710392 31.11922577 8.5625 37.5 C3.75801361 42.54521222 -0.59927055 46.10562995 -7.70703125 46.8359375 C-16.22326573 46.92983204 -22.11345494 46.6177288 -28.40234375 40.62890625 C-34.7841668 33.72505269 -35.91792252 28.29832071 -35.7421875 18.9453125 C-35.04689797 11.08319245 -31.38995981 6.95041296 -25.53515625 1.9453125 C-18.47077988 -2.92213491 -7.84396301 -3.47595223 0 0 Z M-16.8125 17.125 C-18.92456506 20.21186432 -19.04945145 21.8282913 -18.4375 25.5 C-16.9375 28 -16.9375 28 -14.4375 29.5 C-10.7657913 30.11195145 -9.14936432 29.98706506 -6.0625 27.875 C-3.95043494 24.78813568 -3.82554855 23.1717087 -4.4375 19.5 C-5.9375 17 -5.9375 17 -8.4375 15.5 C-12.1092087 14.88804855 -13.72563568 15.01293494 -16.8125 17.125 Z " fill="#00ff00" transform="translate(51.4375,137.5)"/>
<path d="M0 0 C0.66 -0.0103125 1.32 -0.020625 2 -0.03125 C4.98174986 0.76077731 6.16411059 2.04673186 8 4.5 C8.390625 7.515625 8.390625 7.515625 8.25 10.75 C8.21390625 11.82765625 8.1778125 12.9053125 8.140625 14.015625 C8.09421875 14.83546875 8.0478125 15.6553125 8 16.5 C8.81984375 16.45359375 9.6396875 16.4071875 10.484375 16.359375 C11.56203125 16.32328125 12.6396875 16.2871875 13.75 16.25 C15.35101563 16.18039062 15.35101563 16.18039062 16.984375 16.109375 C20 16.5 20 16.5 22.359375 18.265625 C24.09023982 20.62289805 24.54492653 21.62470206 24.5 24.5 C24.5103125 25.16 24.520625 25.82 24.53125 26.5 C23.73922269 29.48174986 22.45326814 30.66411059 20 32.5 C16.984375 32.890625 16.984375 32.890625 13.75 32.75 C12.67234375 32.71390625 11.5946875 32.6778125 10.484375 32.640625 C9.66453125 32.59421875 8.8446875 32.5478125 8 32.5 C8.04640625 33.31984375 8.0928125 34.1396875 8.140625 34.984375 C8.19476563 36.60085938 8.19476563 36.60085938 8.25 38.25 C8.29640625 39.31734375 8.3428125 40.3846875 8.390625 41.484375 C8 44.5 8 44.5 6.234375 46.859375 C3.87710195 48.59023982 2.87529794 49.04492653 0 49 C-0.99 49.01546875 -0.99 49.01546875 -2 49.03125 C-4.98174986 48.23922269 -6.16411059 46.95326814 -8 44.5 C-8.390625 41.484375 -8.390625 41.484375 -8.25 38.25 C-8.21390625 37.17234375 -8.1778125 36.0946875 -8.140625 34.984375 C-8.09421875 34.16453125 -8.0478125 33.3446875 -8 32.5 C-8.81984375 32.54640625 -9.6396875 32.5928125 -10.484375 32.640625 C-12.10085937 32.69476563 -12.10085937 32.69476563 -13.75 32.75 C-14.81734375 32.79640625 -15.8846875 32.8428125 -16.984375 32.890625 C-20 32.5 -20 32.5 -22.359375 30.734375 C-24.09023982 28.37710195 -24.54492653 27.37529794 -24.5 24.5 C-24.51546875 23.51 -24.51546875 23.51 -24.53125 22.5 C-23.73922269 19.51825014 -22.45326814 18.33588941 -20 16.5 C-16.984375 16.109375 -16.984375 16.109375 -13.75 16.25 C-12.67234375 16.28609375 -11.5946875 16.3221875 -10.484375 16.359375 C-9.25460938 16.42898438 -9.25460938 16.42898438 -8 16.5 C-8.04640625 15.68015625 -8.0928125 14.8603125 -8.140625 14.015625 C-8.17671875 12.93796875 -8.2128125 11.8603125 -8.25 10.75 C-8.29640625 9.68265625 -8.3428125 8.6153125 -8.390625 7.515625 C-8 4.5 -8 4.5 -6.234375 2.140625 C-3.87710195 0.40976018 -2.87529794 -0.04492653 0 0 Z " fill="#00ff00" transform="translate(40,343.5)"/>
<path d="M0 0 C0.66 -0.0103125 1.32 -0.020625 2 -0.03125 C4.98174986 0.76077731 6.16411059 2.04673186 8 4.5 C8.390625 7.515625 8.390625 7.515625 8.25 10.75 C8.21390625 11.82765625 8.1778125 12.9053125 8.140625 14.015625 C8.09421875 14.83546875 8.0478125 15.6553125 8 16.5 C8.81984375 16.45359375 9.6396875 16.4071875 10.484375 16.359375 C11.56203125 16.32328125 12.6396875 16.2871875 13.75 16.25 C15.35101563 16.18039063 15.35101563 16.18039063 16.984375 16.109375 C20 16.5 20 16.5 22.359375 18.265625 C24.09023982 20.62289805 24.54492653 21.62470206 24.5 24.5 C24.5103125 25.16 24.520625 25.82 24.53125 26.5 C23.73922269 29.48174986 22.45326814 30.66411059 20 32.5 C16.984375 32.890625 16.984375 32.890625 13.75 32.75 C12.67234375 32.71390625 11.5946875 32.6778125 10.484375 32.640625 C9.66453125 32.59421875 8.8446875 32.5478125 8 32.5 C8.04640625 33.31984375 8.0928125 34.1396875 8.140625 34.984375 C8.19476563 36.60085937 8.19476563 36.60085937 8.25 38.25 C8.29640625 39.31734375 8.3428125 40.3846875 8.390625 41.484375 C8 44.5 8 44.5 6.234375 46.859375 C3.87710195 48.59023982 2.87529794 49.04492653 0 49 C-0.99 49.01546875 -0.99 49.01546875 -2 49.03125 C-4.98174986 48.23922269 -6.16411059 46.95326814 -8 44.5 C-8.390625 41.484375 -8.390625 41.484375 -8.25 38.25 C-8.21390625 37.17234375 -8.1778125 36.0946875 -8.140625 34.984375 C-8.09421875 34.16453125 -8.0478125 33.3446875 -8 32.5 C-8.81984375 32.54640625 -9.6396875 32.5928125 -10.484375 32.640625 C-12.10085938 32.69476563 -12.10085938 32.69476563 -13.75 32.75 C-14.81734375 32.79640625 -15.8846875 32.8428125 -16.984375 32.890625 C-20 32.5 -20 32.5 -22.359375 30.734375 C-24.09023982 28.37710195 -24.54492653 27.37529794 -24.5 24.5 C-24.51546875 23.51 -24.51546875 23.51 -24.53125 22.5 C-23.73922269 19.51825014 -22.45326814 18.33588941 -20 16.5 C-16.984375 16.109375 -16.984375 16.109375 -13.75 16.25 C-12.67234375 16.28609375 -11.5946875 16.3221875 -10.484375 16.359375 C-9.25460937 16.42898437 -9.25460937 16.42898437 -8 16.5 C-8.04640625 15.68015625 -8.0928125 14.8603125 -8.140625 14.015625 C-8.17671875 12.93796875 -8.2128125 11.8603125 -8.25 10.75 C-8.29640625 9.68265625 -8.3428125 8.6153125 -8.390625 7.515625 C-8 4.5 -8 4.5 -6.234375 2.140625 C-3.87710195 0.40976018 -2.87529794 -0.04492653 0 0 Z " fill="#00ff00" transform="translate(472,135.5)"/>
<path d="M0 0 C1.30421442 0.95605549 2.57263131 1.96185598 3.8125 3 C7.54171626 6.00904257 10.1229648 6.79755415 14.890625 6.46875 C18.18007173 5.73776184 20.41198158 4.09506253 23 2 C26 0 26 0 29.4375 0.0625 C33 1 33 1 35.4375 3.1875 C37.35180514 6.63324925 37.77618607 8.11906967 37 12 C33.2767953 18.91452302 26.18332528 22.53590175 19 25 C8.96728824 26.64080554 1.63367607 23.70923406 -6.4375 18 C-9.20098772 15.94552832 -10.76548131 14.2421703 -12 11 C-11.92484951 6.79157236 -11.65198603 4.72649872 -8.8125 1.5625 C-5.3410773 -0.36606817 -3.91512174 -0.76767093 0 0 Z " fill="#00ff00" transform="translate(203,241)"/>
<path d="M0 0 C3.46020799 0.71815638 5.29848945 1.80479403 8.25 3.6875 C12.50511274 6.38601977 15.1714406 7.57729874 20.3125 6.6875 C23.42998775 5.37815514 26.00679987 3.90697702 28.75 1.9375 C32.3783948 0.16755131 34.47933394 0.57239715 38.3125 1.6875 C40.8125 3.8125 40.8125 3.8125 42.3125 6.6875 C42.38677056 10.84665127 41.84867461 12.96106989 39.375 16.3125 C31.15634255 22.68615272 22.66831973 25.56008894 12.3125 24.6875 C4.61189147 23.36981345 -1.03044512 20.03528536 -6.6875 14.6875 C-8.25685594 11.54878812 -8.03951103 9.14894178 -7.6875 5.6875 C-5.36545316 2.47761172 -3.85781243 0.98688225 0 0 Z " fill="#00ff00" transform="translate(238.6875,284.3125)"/>
<path d="M0 0 C1.47967995 1.01111463 2.93653135 2.05606899 4.375 3.125 C7.43681509 5.2605517 9.41083494 6.48356743 13.1875 6.1875 C16.54361073 5.14215403 17.66773012 4.67643903 20.125 2.5 C23.30474816 -0.2649984 24.82002423 -1 29 -1 C31.86332091 0.23643403 33.49288133 1.33152539 35.375 3.8125 C36.26316359 6.92107256 35.88586956 8.89945656 35 12 C31.53561421 18.02501877 24.46360269 21.84546577 18 24 C8.83838245 24.85062203 1.13431029 23.81042201 -6.36328125 18.24609375 C-12.80371349 12.76657857 -12.80371349 12.76657857 -13.3125 8.1875 C-12.92653707 4.25067812 -11.76603321 2.76603321 -9 0 C-5.2741061 -1.24196463 -3.79865842 -1.05518289 0 0 Z " fill="#00ff00" transform="translate(285,242)"/>
<path d="M0 0 C2.5 1.5 2.5 1.5 4 4 C4.791013 8.02098277 4.62153384 10.96411027 2.5 14.5 C-1.03588973 16.62153384 -3.97901723 16.791013 -8 16 C-10.5 14.5 -10.5 14.5 -12 12 C-12.791013 7.97901723 -12.62153384 5.03588973 -10.5 1.5 C-6.96411027 -0.62153384 -4.02098277 -0.791013 0 0 Z " fill="#00ff00" transform="translate(172,168)"/>
</svg>