<svg version="1.1" xmlns="http://www.w3.org/2000/svg" width="512px" height="512px" transform="rotate(0) scale(1, 1)">
<path d="M0 0 C2.9375 0.1875 2.9375 0.1875 3.9375 1.1875 C3.89916211 3.12635677 3.80535641 5.064115 3.69140625 7 C2.86736594 32.87421434 10.37408898 54.96721256 19.14404297 79.09375 C22.02679916 87.20219194 24.41296549 94.36622391 24.23046875 103.0390625 C24.22622391 103.82397064 24.22197906 104.60887878 24.21760559 105.41757202 C24.2010399 107.88292271 24.16343404 110.34740359 24.125 112.8125 C24.10992441 114.50129014 24.0962411 116.1900933 24.08398438 117.87890625 C24.05120964 121.98209729 23.99958718 126.0846521 23.9375 130.1875 C22.9475 130.5175 21.9575 130.8475 20.9375 131.1875 C20.9375 139.1075 20.9375 147.0275 20.9375 155.1875 C24.5675 155.1875 28.1975 155.1875 31.9375 155.1875 C35.01017167 159.28439556 36.9375 162.04920509 36.9375 167.1875 C39.2475 167.1875 41.5575 167.1875 43.9375 167.1875 C43.83961182 166.39400146 43.74172363 165.60050293 43.64086914 164.78295898 C42.83426541 152.41759573 46.97522772 142.14374945 51.14767456 130.65350342 C58.48282399 110.31235726 63.55668868 92.2370048 61.88842773 70.52685547 C61.9375 68.1875 61.9375 68.1875 63.9375 66.1875 C66.4375 65.9375 66.4375 65.9375 68.9375 66.1875 C70.9375 68.1875 70.9375 68.1875 70.98657227 70.45092773 C70.90979248 71.41458252 70.8330127 72.3782373 70.75390625 73.37109375 C69.83373215 94.63969769 75.54173614 112.29919376 82.94165039 132.12670898 C83.3294165 133.19160049 83.71718262 134.256492 84.11669922 135.35365295 C84.84287539 137.33784397 85.5922317 139.31380573 86.37133789 141.27781677 C89.80591498 150.65892615 88.9375 156.04408599 88.9375 167.1875 C122.2675 167.1875 155.5975 167.1875 189.9375 167.1875 C193.31006913 175.05682796 195.23316162 180.76114388 194.9375 189.1875 C192.125 189.875 192.125 189.875 188.9375 190.1875 C184.70800443 187.11904243 184.24202924 181.97077387 182.9375 177.1875 C178.6475 176.8575 174.3575 176.5275 169.9375 176.1875 C170.80375 178.77271484 170.80375 178.77271484 171.6875 181.41015625 C172.43804147 183.68992598 173.18801152 185.96988388 173.9375 188.25 C174.3190625 189.38373047 174.700625 190.51746094 175.09375 191.68554688 C178.59375 202.40429688 178.59375 202.40429688 177.9375 208.1875 C176.9375 209.1875 176.9375 209.1875 174.0625 209.5625 C173.03125 209.43875 172 209.315 170.9375 209.1875 C168.47874818 205.80322207 167.15788206 202.29900368 165.89453125 198.3359375 C165.36762695 196.68851562 165.36762695 196.68851562 164.83007812 195.0078125 C164.47365234 193.87085938 164.11722656 192.73390625 163.75 191.5625 C163.19795898 189.84546875 163.19795898 189.84546875 162.63476562 188.09375 C159.9375 179.58660424 159.9375 179.58660424 159.9375 176.1875 C134.8575 176.1875 109.7775 176.1875 83.9375 176.1875 C83.9375 194.9975 83.9375 213.8075 83.9375 233.1875 C99.4475 232.8575 114.9575 232.5275 130.9375 232.1875 C129.6175 228.2275 128.2975 224.2675 126.9375 220.1875 C127.9375 216.1875 127.9375 216.1875 129.9375 214.1875 C132.3125 214 132.3125 214 134.9375 215.1875 C136.69130789 218.02817475 137.7945577 221.06015789 138.9375 224.1875 C139.9275 226.8275 140.9175 229.4675 141.9375 232.1875 C162.2325 232.6825 162.2325 232.6825 182.9375 233.1875 C183.5975 229.8875 184.2575 226.5875 184.9375 223.1875 C186.29423148 218.30793612 187.87353893 213.50430023 189.4375 208.6875 C189.84540548 207.40115368 190.25295981 206.11469595 190.66015625 204.828125 C191.05074219 203.61640625 191.44132812 202.4046875 191.84375 201.15625 C192.19759766 200.05732422 192.55144531 198.95839844 192.91601562 197.82617188 C193.9375 195.1875 193.9375 195.1875 195.9375 193.1875 C198.9375 192.9375 198.9375 192.9375 201.9375 193.1875 C204.04481368 195.29481368 204.48080553 196.34517759 205.3737793 199.11474609 C205.6371257 199.9225351 205.90047211 200.7303241 206.17179871 201.56259155 C206.44897232 202.43654572 206.72614594 203.31049988 207.01171875 204.2109375 C207.29980911 205.10865875 207.58789948 206.00638 207.88471985 206.93130493 C208.49219051 208.83176178 209.09636713 210.73327422 209.69750977 212.63574219 C210.6202862 215.5476253 211.56049453 218.45348657 212.50195312 221.359375 C213.08961572 223.20538759 213.67623906 225.05173142 214.26171875 226.8984375 C214.54496506 227.7683432 214.82821136 228.6382489 215.12004089 229.53451538 C215.50087578 230.75565536 215.50087578 230.75565536 215.8894043 232.00146484 C216.1165361 232.71491058 216.34366791 233.42835632 216.5776825 234.16342163 C216.99815925 236.52872597 216.76907461 237.94344483 215.9375 240.1875 C215.2775 240.8475 214.6175 241.5075 213.9375 242.1875 C212.6175 242.1875 211.2975 242.1875 209.9375 242.1875 C209.9375 246.8075 209.9375 251.4275 209.9375 256.1875 C221.4875 256.1875 233.0375 256.1875 244.9375 256.1875 C244.9375 251.5675 244.9375 246.9475 244.9375 242.1875 C245.73193359 238.15136719 245.73193359 238.15136719 246.8359375 234.984375 C247.23296875 233.82035156 247.63 232.65632812 248.0390625 231.45703125 C248.66941406 229.71486328 248.66941406 229.71486328 249.3125 227.9375 C249.725 226.72964844 250.1375 225.52179688 250.5625 224.27734375 C253.61172816 215.51327184 253.61172816 215.51327184 255.9375 213.1875 C258.5625 213.0625 258.5625 213.0625 260.9375 213.1875 C262.3703591 216.16343812 263.67816047 219.13513742 264.9375 222.1875 C265.30681641 223.08154541 265.30681641 223.08154541 265.68359375 223.99365234 C270.69122336 236.46601341 271.71015692 247.47223582 271.3125 260.8125 C271.282293 262.60932915 271.25493657 264.40620854 271.23046875 266.203125 C271.16548101 270.53253166 271.06258872 274.85943028 270.9375 279.1875 C272.18660156 279.12989502 273.43570312 279.07229004 274.72265625 279.01293945 C279.43333464 278.8112551 284.1436484 278.68665716 288.85742188 278.58325195 C290.88281757 278.52850719 292.90779068 278.4538748 294.93164062 278.35766602 C310.38685614 277.64228847 319.19145187 280.04327306 330.9375 290.1875 C331.9275 290.8475 332.9175 291.5075 333.9375 292.1875 C333.9375 279.3175 333.9375 266.4475 333.9375 253.1875 C331.9575 253.1875 329.9775 253.1875 327.9375 253.1875 C326.9475 252.5275 325.9575 251.8675 324.9375 251.1875 C324.58105469 248.14648437 324.58105469 248.14648437 324.609375 244.28125 C324.61124817 243.60074585 324.61312134 242.9202417 324.61505127 242.21911621 C324.62177544 240.77997948 324.63569736 239.34086114 324.65625 237.90185547 C324.6873784 235.69611676 324.69721756 233.49109273 324.703125 231.28515625 C324.77382384 220.51485233 324.77382384 220.51485233 325.9375 218.1875 C329.8975 218.1875 333.8575 218.1875 337.9375 218.1875 C337.9375 215.2175 337.9375 212.2475 337.9375 209.1875 C337.133125 209.043125 336.32875 208.89875 335.5 208.75 C332.9375 208.1875 332.9375 208.1875 331.9375 207.1875 C329.1088723 184.18276752 329.1088723 184.18276752 333.02441406 175.88378906 C335.77668994 172.41588278 339.25198188 170.29648025 343.11962891 168.23046875 C345.00988612 167.14596985 346.59260858 165.9294365 348.26171875 164.53125 C348.78604492 164.09522461 349.31037109 163.65919922 349.85058594 163.20996094 C350.35364258 162.79004883 350.85669922 162.37013672 351.375 161.9375 C355.9729291 158.22846123 355.9729291 158.22846123 359.7890625 158.06640625 C364.24288803 159.65232179 367.31560399 162.32072168 370.875 165.375 C371.55240234 165.94025391 372.22980469 166.50550781 372.92773438 167.08789062 C374.28551806 168.22436729 375.6292368 169.37786247 376.95825195 170.54785156 C378.87849896 172.22003419 378.87849896 172.22003419 380.98510742 173.42871094 C383.20460645 174.87260728 384.49750732 175.95011373 385.9375 178.1875 C386.7892206 183.15809117 386.59856475 188.04645416 386.375 193.0625 C386.3398501 194.43221215 386.30791748 195.80201087 386.27929688 197.171875 C386.19695436 200.51262834 386.0819778 203.84895156 385.9375 207.1875 C384.2875 207.8475 382.6375 208.5075 380.9375 209.1875 C380.9375 212.1575 380.9375 215.1275 380.9375 218.1875 C381.70835937 218.15269531 382.47921875 218.11789063 383.2734375 218.08203125 C384.77777344 218.04142578 384.77777344 218.04142578 386.3125 218 C387.31023437 217.96519531 388.30796875 217.93039063 389.3359375 217.89453125 C390.19445312 217.99121094 391.05296875 218.08789062 391.9375 218.1875 C395.10355486 222.93658228 394.27135215 228.05235596 394.25317383 233.63916016 C394.25001076 235.68055454 394.27349127 237.72050319 394.29882812 239.76171875 C394.29947266 241.04691406 394.30011719 242.33210937 394.30078125 243.65625 C394.30525269 245.42645508 394.30525269 245.42645508 394.30981445 247.23242188 C393.9375 250.1875 393.9375 250.1875 392.78979492 252.09570312 C390.9375 253.1875 390.9375 253.1875 384.9375 253.1875 C384.9375 285.1975 384.9375 317.2075 384.9375 350.1875 C388.2375 350.1875 391.5375 350.1875 394.9375 350.1875 C396.9375 352.1875 396.9375 352.1875 397.125 355.25 C396.9375 358.1875 396.9375 358.1875 395.9375 359.1875 C394.0130345 359.30207678 392.08781289 359.40923366 390.16113281 359.47705078 C371.78905198 360.12814721 355.68341244 363.87880464 341.98828125 376.96875 C340.14544892 378.96251908 338.58388121 380.94449688 337.0625 383.1875 C334.9375 386.1875 334.9375 386.1875 332.9453125 386.96484375 C330.9375 387.1875 330.9375 387.1875 328.6875 385.75 C327.82125 384.9765625 327.82125 384.9765625 326.9375 384.1875 C327.52377928 379.20412614 328.81952856 377.86445716 331.9375 373.1875 C324.3475 372.8575 316.7575 372.5275 308.9375 372.1875 C309.56779279 379.71559202 310.20154933 387.24337691 310.84144497 394.77065849 C311.13841955 398.265709 311.43386107 401.76087514 311.72583008 405.25634766 C312.06138687 409.27285318 312.403555 413.28877135 312.74609375 417.3046875 C312.85030136 418.56304413 312.95450897 419.82140076 313.06187439 421.1178894 C313.21191673 422.85946823 313.21191673 422.85946823 313.36499023 424.63623047 C313.45159409 425.66215302 313.53819794 426.68807556 313.62742615 427.74508667 C313.80092826 430.19019469 313.80092826 430.19019469 314.9375 432.1875 C316.26201172 431.29998047 316.26201172 431.29998047 317.61328125 430.39453125 C332.91938878 420.25981179 348.98212475 413.09241786 367.6875 413 C369.00234375 412.98582031 370.3171875 412.97164063 371.671875 412.95703125 C374.9375 413.1875 374.9375 413.1875 376.9375 415.1875 C376.6875 418.25 376.6875 418.25 375.9375 421.1875 C373.36707738 422.47271131 370.90315833 422.52757426 368.07348633 422.78173828 C343.78493835 425.00357005 324.14964401 434.79760531 307.9375 453.1875 C301.38791179 462.0898529 296.65292896 471.95967228 292.734375 482.25390625 C291.9375 484.1875 291.9375 484.1875 290.9375 485.1875 C287.9375 485.3125 287.9375 485.3125 284.9375 485.1875 C283.9375 484.1875 283.9375 484.1875 283.5625 481.4375 C283.79021427 472.08223868 289.14057153 463.42577329 293.9375 455.6875 C294.35241699 455.01726807 294.76733398 454.34703613 295.19482422 453.65649414 C297.20873113 450.5161446 298.84733614 448.26263655 301.75 445.84375 C306.99027387 439.4805603 303.50291476 426.59792769 302.84375 418.8671875 C302.73129023 417.51387455 302.61919543 416.16053123 302.50744629 414.80715942 C302.21515151 411.2789867 301.91796542 407.75124324 301.61968994 404.22357178 C301.31506635 400.61023589 301.01512063 396.99651177 300.71484375 393.3828125 C300.12739927 386.31727335 299.53226361 379.252442 298.9375 372.1875 C285.0775 372.1875 271.2175 372.1875 256.9375 372.1875 C257.2675 374.8275 257.5975 377.4675 257.9375 380.1875 C258.09294927 382.79724118 258.22207449 385.39388832 258.31054688 388.00537109 C258.33834732 388.74150131 258.36614777 389.47763153 258.39479065 390.23606873 C258.45415733 391.81991325 258.51193364 393.40381806 258.56825256 394.9877739 C258.65775594 397.50326198 258.75162309 400.01855537 258.84655762 402.53384399 C259.04741632 407.87658924 259.24274487 413.2195293 259.4375 418.5625 C259.66345626 424.75253064 259.8917409 430.94246176 260.12501526 437.13222122 C260.21674753 439.59468318 260.30470292 442.05726046 260.39245605 444.51986694 C260.15021465 458.80396124 260.15021465 458.80396124 264.25 472.0625 C268.537614 479.98960029 271.79725022 488.07414769 270.9375 497.1875 C269.9375 498.1875 269.9375 498.1875 267 498.4375 C265.989375 498.355 264.97875 498.2725 263.9375 498.1875 C261.81391781 495.00212671 261.22241292 492.69492676 260.3125 489 C256.76952179 476.31088916 250.86095045 464.9398085 241.9375 455.1875 C241.34710938 454.50558594 240.75671875 453.82367188 240.1484375 453.12109375 C226.91149253 438.72943656 206.48668059 429.80126044 187.13671875 428.80078125 C161.3616928 428.05756619 140.23340174 435.90063242 121.4140625 453.5546875 C109.85490418 465.58725845 103.49005057 481.1504942 99.515625 497.140625 C98.9375 499.1875 98.9375 499.1875 97.9375 500.1875 C95.93791636 500.22830783 93.93704746 500.23004356 91.9375 500.1875 C88.93081484 494.51775083 90.88066707 489.97011476 92.60546875 484.171875 C97.3549676 469.45871501 105.32899334 457.29298175 115.9375 446.1875 C116.47761719 445.57261719 117.01773438 444.95773437 117.57421875 444.32421875 C128.96558359 431.84249657 145.89851415 425.09359315 161.9375 421.1875 C162.5975 421.1875 163.2575 421.1875 163.9375 421.1875 C160.73112893 406.74987384 157.07746883 393.57081593 144.48046875 384.3984375 C132.80327853 377.11588876 120.78781416 374.41417996 107.1171875 376.6484375 C92.74748286 380.57584874 83.6023405 388.80583457 75.9375 401.1875 C69.85211239 400.76327827 63.92139527 399.85649267 57.9375 398.6875 C27.60970286 392.85038008 -4.75434844 397.01956552 -32.48828125 410.90234375 C-35.0625 412.1875 -35.0625 412.1875 -37.0625 412.1875 C-36.73636719 412.95191406 -36.41023438 413.71632813 -36.07421875 414.50390625 C-27.50405844 435.51217532 -27.50405844 435.51217532 -30.0625 443.1875 C-32.0425 443.5175 -34.0225 443.8475 -36.0625 444.1875 C-39.5572291 440.45175511 -40.20045027 436.26534129 -41.3125 431.4375 C-47.33579007 407.30976284 -59.84356187 387.60588994 -81.27392578 374.23974609 C-89.63190426 369.32261707 -98.61128271 365.75253997 -107.8671875 362.9140625 C-110.0625 362.1875 -110.0625 362.1875 -111.0625 361.1875 C-111.10330783 359.18791636 -111.10504356 357.18704746 -111.0625 355.1875 C-106.4375 353.0625 -106.4375 353.0625 -103.0625 354.1875 C-103.07632689 353.60353549 -103.09015379 353.01957098 -103.10439968 352.41791058 C-103.44080213 337.97490726 -103.68630154 323.53213761 -103.83968258 309.08610058 C-103.91589906 302.09865678 -104.019469 295.11390636 -104.1940918 288.12817383 C-105.00958624 254.82945435 -103.60471901 225.44763472 -89.92919922 194.50366211 C-88.03572029 190.19930383 -86.37733063 185.82950095 -84.78491211 181.40600586 C-84.55462783 180.76712905 -84.32434355 180.12825224 -84.08708096 179.47001553 C-78.99027424 165.18409329 -76.64356248 152.43460988 -77.22265625 137.23339844 C-77.0625 135.1875 -77.0625 135.1875 -75.0625 133.1875 C-72 133 -72 133 -69.0625 133.1875 C-63.87169617 138.37830383 -68.0625 147.84659482 -68.0625 155.1875 C-52.5525 155.1875 -37.0425 155.1875 -21.0625 155.1875 C-21.0625 147.2675 -21.0625 139.3475 -21.0625 131.1875 C-23.0425 130.1975 -23.0425 130.1975 -25.0625 129.1875 C-28.28781129 105.64664494 -22.8401077 86.4359246 -14.94670105 64.35230255 C-7.70239333 44.05607319 -3.30167517 26.29461551 -5.07983398 4.70703125 C-5.05266339 0.75772827 -3.80243111 0.2328019 0 0 Z M-1.0625 51.1875 C-2.91763775 56.84627739 -4.76895454 62.50628471 -6.61669922 68.16748047 C-7.24617616 70.09425837 -7.87670665 72.02069241 -8.50830078 73.94677734 C-9.41454048 76.71102183 -10.31701761 79.4764699 -11.21875 82.2421875 C-11.50310913 83.1068161 -11.78746826 83.9714447 -12.08044434 84.86227417 C-12.34071411 85.66295319 -12.60098389 86.4636322 -12.86914062 87.28857422 C-13.10008423 87.9947287 -13.33102783 88.70088318 -13.56896973 89.42843628 C-14.15254453 91.20394331 -14.15254453 91.20394331 -14.0625 93.1875 C-5.1525 93.1875 3.7575 93.1875 12.9375 93.1875 C11.6266767 87.28879516 10.26992208 81.76176288 8.3359375 76.08984375 C8.0946109 75.3701088 7.8532843 74.65037384 7.60464478 73.90882874 C6.84487096 71.64608703 6.07881532 69.38553357 5.3125 67.125 C4.79124655 65.57631321 4.27040964 64.02748616 3.75 62.47851562 C2.48396623 58.71320844 1.21230038 54.9498477 -0.0625 51.1875 C-0.3925 51.1875 -0.7225 51.1875 -1.0625 51.1875 Z M-16.0625 102.1875 C-16.0625 109.1175 -16.0625 116.0475 -16.0625 123.1875 C-11.96903086 123.21043974 -7.87572524 123.23035785 -3.78222656 123.24243164 C-2.38931523 123.2474643 -0.9964092 123.25429098 0.39648438 123.26293945 C2.39711246 123.27505152 4.39777888 123.28020412 6.3984375 123.28515625 C7.60290527 123.29039307 8.80737305 123.29562988 10.04833984 123.30102539 C12.8788677 123.38837891 12.8788677 123.38837891 14.9375 122.1875 C14.9375 115.5875 14.9375 108.9875 14.9375 102.1875 C4.7075 102.1875 -5.5225 102.1875 -16.0625 102.1875 Z M65.9375 114.1875 C64.36907477 119.01071095 62.80254315 123.83453108 61.23779297 128.65893555 C60.70478995 130.30135882 60.17126229 131.94361193 59.63720703 133.58569336 C58.87135277 135.94080178 58.10736385 138.2965081 57.34375 140.65234375 C57.10313843 141.39089096 56.86252686 142.12943817 56.61462402 142.8903656 C55.44362347 145.97804086 55.44362347 145.97804086 54.9375 149.1875 C62.5275 149.1875 70.1175 149.1875 77.9375 149.1875 C75.58102886 140.45410272 75.58102886 140.45410272 72.89453125 131.86328125 C72.54326172 130.81591797 72.19199219 129.76855469 71.83007812 128.68945312 C71.47365234 127.63693359 71.11722656 126.58441406 70.75 125.5 C70.38197266 124.40494141 70.01394531 123.30988281 69.63476562 122.18164062 C68.73845124 119.51597837 67.83932617 116.8513015 66.9375 114.1875 C66.6075 114.1875 66.2775 114.1875 65.9375 114.1875 Z M-12.0625 132.1875 C-12.3925 139.7775 -12.7225 147.3675 -13.0625 155.1875 C-4.8125 155.1875 3.4375 155.1875 11.9375 155.1875 C11.9375 147.5975 11.9375 140.0075 11.9375 132.1875 C4.0175 132.1875 -3.9025 132.1875 -12.0625 132.1875 Z M52.9375 158.1875 C52.9375 161.1575 52.9375 164.1275 52.9375 167.1875 C61.8475 167.1875 70.7575 167.1875 79.9375 167.1875 C79.9375 164.2175 79.9375 161.2475 79.9375 158.1875 C71.0275 158.1875 62.1175 158.1875 52.9375 158.1875 Z M-66.0625 164.1875 C-64.18280928 170.96155982 -62.29864161 177.73435405 -60.41064453 184.50610352 C-59.77144731 186.80102358 -59.13339056 189.09626166 -58.49658203 191.3918457 C-57.5711743 194.72695688 -56.64141175 198.06083049 -55.7109375 201.39453125 C-55.4356723 202.39015579 -55.1604071 203.38578033 -54.87680054 204.41157532 C-52.16700882 214.09117914 -49.09572624 223.58228356 -46.0625 233.1875 C-14.7125 233.1875 16.6375 233.1875 48.9375 233.1875 C49.13395442 225.48248141 49.13395442 225.48248141 47.34863281 218.82641602 C47.00117004 217.87835587 46.65370728 216.93029572 46.29571533 215.95350647 C45.72394562 214.46251686 45.72394562 214.46251686 45.140625 212.94140625 C44.75058289 211.89025131 44.36054077 210.83909637 43.9586792 209.75608826 C42.7152595 206.41543999 41.45164415 203.08285334 40.1875 199.75 C39.3528503 197.51546521 38.51950434 195.28044298 37.6875 193.04492188 C33.36692184 177.64782923 33.36692184 177.64782923 25.9375 164.1875 C23.63696165 164.09306665 21.33347827 164.07007872 19.03100586 164.07397461 C17.94814049 164.07375557 17.94814049 164.07375557 16.84339905 164.0735321 C14.44635053 164.07423131 12.04937877 164.08202405 9.65234375 164.08984375 C7.99467511 164.0917079 6.33700593 164.09313182 4.67933655 164.09413147 C0.30795786 164.09795688 -4.06338781 164.10778735 -8.43475342 164.11883545 C-12.89204461 164.12904908 -17.34934111 164.13362899 -21.80664062 164.13867188 C-30.55860893 164.1494096 -39.31055036 164.16648629 -48.0625 164.1875 C-47.74442383 165.14789185 -47.74442383 165.14789185 -47.41992188 166.12768555 C-46.45980651 169.04100265 -45.51106065 171.95790133 -44.5625 174.875 C-44.22863281 175.88240234 -43.89476563 176.88980469 -43.55078125 177.92773438 C-43.23496094 178.90419922 -42.91914062 179.88066406 -42.59375 180.88671875 C-42.15385742 182.22996216 -42.15385742 182.22996216 -41.70507812 183.6003418 C-41.05109033 186.23343779 -40.94329936 188.48632837 -41.0625 191.1875 C-45.8125 192.1875 -45.8125 192.1875 -48.0625 192.1875 C-48.28292969 191.29224609 -48.28292969 191.29224609 -48.5078125 190.37890625 C-50.8155684 181.45293084 -53.92549049 172.84727059 -57.0625 164.1875 C-60.0325 164.1875 -63.0025 164.1875 -66.0625 164.1875 Z M353.1875 172.125 C352.26710938 172.94291016 352.26710938 172.94291016 351.328125 173.77734375 C349.82047355 174.97608682 349.82047355 174.97608682 349.9375 176.1875 C355.8775 176.1875 361.8175 176.1875 367.9375 176.1875 C366.2875 174.5375 364.6375 172.8875 362.9375 171.1875 C362.2775 170.5275 361.6175 169.8675 360.9375 169.1875 C356.59911736 169.1875 356.19251626 169.39608566 353.1875 172.125 Z M-73.0625 175.1875 C-75.54524399 182.30490601 -78.02299782 189.42403216 -80.49437714 196.54539204 C-81.64207172 199.85200439 -82.7914827 203.15799911 -83.94482422 206.46264648 C-85.27041973 210.26109168 -86.58853145 214.06209621 -87.90625 217.86328125 C-88.32185181 219.05085526 -88.73745361 220.23842926 -89.16564941 221.46199036 C-89.5460437 222.56290512 -89.92643799 223.66381989 -90.31835938 224.7980957 C-90.65589233 225.76850296 -90.99342529 226.73891022 -91.34118652 227.73872375 C-92.20377877 230.24165817 -92.20377877 230.24165817 -92.0625 233.1875 C-80.1825 233.1875 -68.3025 233.1875 -56.0625 233.1875 C-59.40877689 219.76251748 -59.40877689 219.76251748 -63.078125 206.4375 C-63.33881775 205.52790527 -63.5995105 204.61831055 -63.86810303 203.68115234 C-64.68036543 200.8491989 -65.49634277 198.0183331 -66.3125 195.1875 C-66.87264562 193.23705088 -67.43254299 191.28653046 -67.9921875 189.3359375 C-69.34610619 184.61896706 -70.70335131 179.902966 -72.0625 175.1875 C-72.3925 175.1875 -72.7225 175.1875 -73.0625 175.1875 Z M40.9375 176.1875 C42.757294 183.43910335 44.99908371 190.31130756 47.9375 197.1875 C48.2675 197.1875 48.5975 197.1875 48.9375 197.1875 C48.9375 190.2575 48.9375 183.3275 48.9375 176.1875 C46.2975 176.1875 43.6575 176.1875 40.9375 176.1875 Z M57.9375 176.1875 C57.9375 246.1475 57.9375 316.1075 57.9375 388.1875 C62.2275 389.1775 66.5175 390.1675 70.9375 391.1875 C75.13569453 385.93975684 75.5090896 383.85229566 75.41851807 377.61381531 C75.42193577 376.75199719 75.42535347 375.89017907 75.42887473 375.00224525 C75.43546175 372.11533456 75.413464 369.22935428 75.39160156 366.3425293 C75.39047326 364.2728528 75.3911066 362.20317471 75.39337158 360.13349915 C75.39452033 354.51399972 75.37098467 348.89484106 75.34307575 343.2754209 C75.31808911 337.40309862 75.31572225 331.53076873 75.31097412 325.65840149 C75.29853633 314.53787884 75.26570372 303.41751328 75.22557616 292.29705983 C75.18088357 279.63698925 75.15887771 266.97691122 75.13879442 254.3167814 C75.09697189 228.27359752 75.02579939 202.23056418 74.9375 176.1875 C69.3275 176.1875 63.7175 176.1875 57.9375 176.1875 Z M339.9375 185.1875 C339.9375 190.1375 339.9375 195.0875 339.9375 200.1875 C352.1475 200.1875 364.3575 200.1875 376.9375 200.1875 C376.9375 195.2375 376.9375 190.2875 376.9375 185.1875 C364.7275 185.1875 352.5175 185.1875 339.9375 185.1875 Z M346.9375 209.1875 C346.9375 212.1575 346.9375 215.1275 346.9375 218.1875 C355.1875 218.1875 363.4375 218.1875 371.9375 218.1875 C371.9375 215.2175 371.9375 212.2475 371.9375 209.1875 C363.6875 209.1875 355.4375 209.1875 346.9375 209.1875 Z M197.9375 213.1875 C195.9575 219.7875 193.9775 226.3875 191.9375 233.1875 C196.5575 233.1875 201.1775 233.1875 205.9375 233.1875 C203.9575 226.5875 201.9775 219.9875 199.9375 213.1875 C199.2775 213.1875 198.6175 213.1875 197.9375 213.1875 Z M332.9375 226.1875 C332.9375 232.1275 332.9375 238.0675 332.9375 244.1875 C338.8775 244.1875 344.8175 244.1875 350.9375 244.1875 C350.9375 238.2475 350.9375 232.3075 350.9375 226.1875 C344.9975 226.1875 339.0575 226.1875 332.9375 226.1875 Z M359.9375 226.1875 C359.9375 232.1275 359.9375 238.0675 359.9375 244.1875 C368.1875 244.1875 376.4375 244.1875 384.9375 244.1875 C384.9375 238.2475 384.9375 232.3075 384.9375 226.1875 C376.6875 226.1875 368.4375 226.1875 359.9375 226.1875 Z M257.9375 233.1875 C257.2775 235.4975 256.6175 237.8075 255.9375 240.1875 C257.5875 240.1875 259.2375 240.1875 260.9375 240.1875 C260.2775 237.8775 259.6175 235.5675 258.9375 233.1875 C258.6075 233.1875 258.2775 233.1875 257.9375 233.1875 Z M-94.0625 242.1875 C-94.0625 245.8175 -94.0625 249.4475 -94.0625 253.1875 C-88.1225 253.5175 -82.1825 253.8475 -76.0625 254.1875 C-75.7325 256.1675 -75.4025 258.1475 -75.0625 260.1875 C-76.57671001 261.70171001 -77.98722768 261.40059856 -80.09765625 261.50390625 C-80.90654297 261.54580078 -81.71542969 261.58769531 -82.54882812 261.63085938 C-83.39896484 261.67017578 -84.24910156 261.70949219 -85.125 261.75 C-85.97900391 261.79318359 -86.83300781 261.83636719 -87.71289062 261.88085938 C-89.82922037 261.98726702 -91.94583813 262.08791731 -94.0625 262.1875 C-94.0625 264.4975 -94.0625 266.8075 -94.0625 269.1875 C-88.1225 269.5175 -82.1825 269.8475 -76.0625 270.1875 C-75.0625 275.1875 -75.0625 275.1875 -75.0625 277.1875 C-84.4675 277.6825 -84.4675 277.6825 -94.0625 278.1875 C-94.0625 280.4975 -94.0625 282.8075 -94.0625 285.1875 C-88.1225 285.5175 -82.1825 285.8475 -76.0625 286.1875 C-75.0625 291.1875 -75.0625 291.1875 -75.0625 293.1875 C-84.4675 293.6825 -84.4675 293.6825 -94.0625 294.1875 C-94.0625 296.1675 -94.0625 298.1475 -94.0625 300.1875 C-87.7925 300.5175 -81.5225 300.8475 -75.0625 301.1875 C-75.0625 303.1675 -75.0625 305.1475 -75.0625 307.1875 C-76.57671001 308.70171001 -77.98722768 308.40059856 -80.09765625 308.50390625 C-80.90654297 308.54580078 -81.71542969 308.58769531 -82.54882812 308.63085938 C-83.39896484 308.67017578 -84.24910156 308.70949219 -85.125 308.75 C-85.97900391 308.79318359 -86.83300781 308.83636719 -87.71289062 308.88085938 C-89.82922037 308.98726702 -91.94583813 309.08791731 -94.0625 309.1875 C-94.0625 311.4975 -94.0625 313.8075 -94.0625 316.1875 C-92.77472656 316.24808594 -91.48695312 316.30867188 -90.16015625 316.37109375 C-88.48175841 316.45548247 -86.80337364 316.5401313 -85.125 316.625 C-84.27486328 316.66431641 -83.42472656 316.70363281 -82.54882812 316.74414062 C-81.73994141 316.78603516 -80.93105469 316.82792969 -80.09765625 316.87109375 C-79.3487915 316.90775146 -78.59992676 316.94440918 -77.82836914 316.98217773 C-76.0625 317.1875 -76.0625 317.1875 -75.0625 318.1875 C-74.9375 320.6875 -74.9375 320.6875 -75.0625 323.1875 C-76.57671001 324.70171001 -77.98722768 324.40059856 -80.09765625 324.50390625 C-80.90654297 324.54580078 -81.71542969 324.58769531 -82.54882812 324.63085938 C-83.39896484 324.67017578 -84.24910156 324.70949219 -85.125 324.75 C-85.97900391 324.79318359 -86.83300781 324.83636719 -87.71289062 324.88085938 C-89.82922037 324.98726702 -91.94583813 325.08791731 -94.0625 325.1875 C-94.0625 327.4975 -94.0625 329.8075 -94.0625 332.1875 C-88.1225 332.5175 -82.1825 332.8475 -76.0625 333.1875 C-75.0625 338.1875 -75.0625 338.1875 -75.0625 340.1875 C-84.4675 340.6825 -84.4675 340.6825 -94.0625 341.1875 C-94.0625 346.4675 -94.0625 351.7475 -94.0625 357.1875 C-92.83015625 357.80496094 -91.5978125 358.42242187 -90.328125 359.05859375 C-77.59860966 365.53218923 -66.37740885 372.25054712 -56.48828125 382.75390625 C-56.01777344 383.22699219 -55.54726563 383.70007813 -55.0625 384.1875 C-54.7325 384.1875 -54.4025 384.1875 -54.0625 384.1875 C-54.0625 337.3275 -54.0625 290.4675 -54.0625 242.1875 C-67.2625 242.1875 -80.4625 242.1875 -94.0625 242.1875 Z M-45.0625 242.1875 C-45.0625 260.3375 -45.0625 278.4875 -45.0625 297.1875 C-38.1325 297.5175 -31.2025 297.8475 -24.0625 298.1875 C-23.0625 299.1875 -23.0625 299.1875 -22.9375 301.6875 C-23.0625 304.1875 -23.0625 304.1875 -24.0625 305.1875 C-25.62198542 305.34436249 -27.18792668 305.43826639 -28.75390625 305.50390625 C-29.69814453 305.54580078 -30.64238281 305.58769531 -31.61523438 305.63085938 C-32.60845703 305.67017578 -33.60167969 305.70949219 -34.625 305.75 C-35.62208984 305.79318359 -36.61917969 305.83636719 -37.64648438 305.88085938 C-40.1183415 305.98730298 -42.5903031 306.08931928 -45.0625 306.1875 C-45.15526491 317.93146339 -45.22629816 329.67533932 -45.26974869 341.41959476 C-45.29060498 346.87320479 -45.3188872 352.32656375 -45.36425781 357.7800293 C-45.40778489 363.04497679 -45.43165184 368.30968311 -45.44200897 373.57479668 C-45.44938798 375.58142327 -45.46379754 377.58803697 -45.48542023 379.59456062 C-45.51454522 382.40976396 -45.51845218 385.22397638 -45.51660156 388.03930664 C-45.53098267 388.86505692 -45.54536377 389.69080719 -45.56018066 390.5415802 C-45.51995903 396.2128304 -44.23410533 399.47704802 -41.0625 404.1875 C-39.92296875 403.67960938 -38.7834375 403.17171875 -37.609375 402.6484375 C-8.07034546 389.70479393 15.56840882 387.1875 48.9375 387.1875 C48.9375 360.4575 48.9375 333.7275 48.9375 306.1875 C36.0675 305.6925 36.0675 305.6925 22.9375 305.1875 C22.9375 302.8775 22.9375 300.5675 22.9375 298.1875 C31.5175 297.8575 40.0975 297.5275 48.9375 297.1875 C48.9375 279.0375 48.9375 260.8875 48.9375 242.1875 C17.9175 242.1875 -13.1025 242.1875 -45.0625 242.1875 Z M83.9375 242.1875 C83.9375 286.7375 83.9375 331.2875 83.9375 377.1875 C88.5575 374.8775 93.1775 372.5675 97.9375 370.1875 C108.95638004 366.02182584 115.90378288 367.1875 128.9375 367.1875 C129.2675 333.1975 129.5975 299.2075 129.9375 264.1875 C132.5143641 262.89906795 134.41968759 263.02746567 137.30517578 262.98217773 C138.42618683 262.96223251 139.54719788 262.94228729 140.70217896 262.92173767 C141.91678802 262.90502518 143.13139709 262.88831268 144.3828125 262.87109375 C145.62296112 262.85031265 146.86310974 262.82953156 148.14083862 262.80812073 C151.43861823 262.75372295 154.7364272 262.70349905 158.03430176 262.65527344 C161.39922653 262.60504766 164.7640605 262.54936723 168.12890625 262.49414062 C174.73170082 262.38688439 181.33456377 262.28563214 187.9375 262.1875 C187.9375 255.5875 187.9375 248.9875 187.9375 242.1875 C153.6175 242.1875 119.2975 242.1875 83.9375 242.1875 Z M196.9375 242.1875 C196.9375 265.9475 196.9375 289.7075 196.9375 314.1875 C202.2175 314.1875 207.4975 314.1875 212.9375 314.1875 C212.9375 305.6075 212.9375 297.0275 212.9375 288.1875 C209.3075 287.8575 205.6775 287.5275 201.9375 287.1875 C201.6075 272.3375 201.2775 257.4875 200.9375 242.1875 C199.6175 242.1875 198.2975 242.1875 196.9375 242.1875 Z M253.9375 249.1875 C253.9375 259.0875 253.9375 268.9875 253.9375 279.1875 C256.9075 279.1875 259.8775 279.1875 262.9375 279.1875 C262.9375 269.2875 262.9375 259.3875 262.9375 249.1875 C259.9675 249.1875 256.9975 249.1875 253.9375 249.1875 Z M341.9375 253.1875 C341.9375 257.4775 341.9375 261.7675 341.9375 266.1875 C345.5675 266.5175 349.1975 266.8475 352.9375 267.1875 C352.9375 269.1675 352.9375 271.1475 352.9375 273.1875 C349.3075 273.5175 345.6775 273.8475 341.9375 274.1875 C341.9375 303.5575 341.9375 332.9275 341.9375 363.1875 C345.62555274 361.71227891 348.74811541 360.20907493 352.1875 358.3125 C359.84480754 354.40727315 367.55813631 352.94446335 375.9375 351.1875 C375.9375 342.2775 375.9375 333.3675 375.9375 324.1875 C372.4725 323.6925 372.4725 323.6925 368.9375 323.1875 C368.9375 321.2075 368.9375 319.2275 368.9375 317.1875 C371.2475 316.5275 373.5575 315.8675 375.9375 315.1875 C375.9375 294.7275 375.9375 274.2675 375.9375 253.1875 C364.7175 253.1875 353.4975 253.1875 341.9375 253.1875 Z M209.9375 265.1875 C209.9375 269.8075 209.9375 274.4275 209.9375 279.1875 C221.4875 279.1875 233.0375 279.1875 244.9375 279.1875 C244.9375 274.5675 244.9375 269.9475 244.9375 265.1875 C233.3875 265.1875 221.8375 265.1875 209.9375 265.1875 Z M137.9375 271.1875 C137.9375 303.8575 137.9375 336.5275 137.9375 370.1875 C141.5675 372.1675 145.1975 374.1475 148.9375 376.1875 C160.29246728 384.51835307 167.99201511 396.17782902 170.69140625 410.06640625 C171.17779005 413.43708003 171.60163827 416.79880549 171.9375 420.1875 C172.72769531 420.15269531 173.51789063 420.11789062 174.33203125 420.08203125 C187.56377678 419.76446936 200.1315172 421.9860043 212.9375 425.1875 C212.9375 407.6975 212.9375 390.2075 212.9375 372.1875 C195.6125 371.6925 195.6125 371.6925 177.9375 371.1875 C177.9375 369.2075 177.9375 367.2275 177.9375 365.1875 C180.93725843 363.68762078 184.05674236 363.94838992 187.3515625 363.87109375 C187.99826904 363.85244263 188.64497559 363.8337915 189.3112793 363.8145752 C191.72821324 363.74625147 194.14537314 363.68611933 196.5625 363.625 C204.668125 363.4084375 204.668125 363.4084375 212.9375 363.1875 C212.9375 349.9875 212.9375 336.7875 212.9375 323.1875 C179.7725 322.6925 179.7725 322.6925 145.9375 322.1875 C146.2675 319.8775 146.5975 317.5675 146.9375 315.1875 C160.4675 314.8575 173.9975 314.5275 187.9375 314.1875 C187.9375 299.9975 187.9375 285.8075 187.9375 271.1875 C171.4375 271.1875 154.9375 271.1875 137.9375 271.1875 Z M221.9375 288.1875 C221.9375 296.7675 221.9375 305.3475 221.9375 314.1875 C229.8575 314.1875 237.7775 314.1875 245.9375 314.1875 C246.02508794 305.42870642 245.78790235 296.90412411 244.9375 288.1875 C237.3475 288.1875 229.7575 288.1875 221.9375 288.1875 Z M253.9375 288.1875 C253.9375 291.1575 253.9375 294.1275 253.9375 297.1875 C276.7075 297.1875 299.4775 297.1875 322.9375 297.1875 C315.62303196 289.68815533 315.62303196 289.68815533 305.81860352 287.61987305 C303.40105987 287.62065966 300.9834203 287.6486127 298.56640625 287.69921875 C297.28894028 287.70629349 296.0114743 287.71336823 294.69529724 287.72065735 C291.31954623 287.74382906 287.94552421 287.78864479 284.57025146 287.84417725 C281.11794883 287.89557655 277.66546664 287.9182151 274.21289062 287.94335938 C267.45395396 287.99838039 260.69582668 288.08197368 253.9375 288.1875 Z M254.9375 306.1875 C254.90206474 324.10902836 254.90206474 324.10902836 255.375 342 C255.41431641 343.06541016 255.45363281 344.13082031 255.49414062 345.22851562 C255.73722636 351.29069987 256.26393159 357.12538428 256.9375 363.1875 C282.0175 363.1875 307.0975 363.1875 332.9375 363.1875 C332.9375 344.3775 332.9375 325.5675 332.9375 306.1875 C307.1975 306.1875 281.4575 306.1875 254.9375 306.1875 Z M221.9375 323.1875 C221.9375 328.4675 221.9375 333.7475 221.9375 339.1875 C230.1875 339.1875 238.4375 339.1875 246.9375 339.1875 C246.958125 337.104375 246.97875 335.02125 247 332.875 C247.01160156 331.70324219 247.02320313 330.53148437 247.03515625 329.32421875 C247.08649898 326.15690805 247.08649898 326.15690805 245.9375 323.1875 C238.0175 323.1875 230.0975 323.1875 221.9375 323.1875 Z M221.9375 348.1875 C221.9375 353.1375 221.9375 358.0875 221.9375 363.1875 C230.5175 363.1875 239.0975 363.1875 247.9375 363.1875 C247.6075 358.2375 247.2775 353.2875 246.9375 348.1875 C238.6875 348.1875 230.4375 348.1875 221.9375 348.1875 Z M221.9375 372.1875 C221.74843765 379.51191532 221.56825913 386.82745167 221.47174835 394.15219116 C221.42430876 397.56313923 221.36099514 400.97205902 221.25854492 404.38183594 C221.14160571 408.29857455 221.0982997 412.21449974 221.05859375 416.1328125 C221.01214218 417.34865021 220.96569061 418.56448792 220.91783142 419.81716919 C220.77635817 426.10370517 220.77635817 426.10370517 223.895401 431.25631714 C226.18417822 432.79403565 228.44781381 434.01117163 230.9375 435.1875 C237.34218804 439.56833994 243.1452414 444.06102149 248.4765625 449.71875 C248.95867187 450.2034375 249.44078125 450.688125 249.9375 451.1875 C250.2675 451.1875 250.5975 451.1875 250.9375 451.1875 C251.06949748 436.50351323 250.73876447 421.86989824 250.13793945 407.19824219 C249.99817823 403.76778433 249.86688014 400.33706946 249.73632812 396.90625 C249.64893324 394.70050114 249.56106068 392.49477113 249.47265625 390.2890625 C249.43406998 389.2755069 249.3954837 388.26195129 249.35572815 387.21768188 C249.29577919 385.78855972 249.29577919 385.78855972 249.23461914 384.33056641 C249.18465538 383.089879 249.18465538 383.089879 249.13368225 381.8241272 C248.89350261 378.5961891 248.39526131 375.39182914 247.9375 372.1875 C239.3575 372.1875 230.7775 372.1875 221.9375 372.1875 Z " fill="#00ff00" transform="translate(113.0625,5.8125)"/>
<path d="M0 0 C2.5 0.25 2.5 0.25 4.5 2.25 C4.69904271 5.37354989 4.77260863 8.40848544 4.75878906 11.53320312 C4.7622937 12.49588608 4.76579834 13.45856903 4.76940918 14.45042419 C4.77823778 17.64410537 4.77237333 20.83756643 4.765625 24.03125 C4.76697132 26.24320519 4.76891158 28.45516009 4.77142334 30.66711426 C4.77437613 35.30756441 4.77007195 39.94793768 4.76074219 44.58837891 C4.74934761 50.54743825 4.75590625 56.50631745 4.76788712 62.46537018 C4.77510151 67.03429531 4.77281972 71.60317748 4.76763153 76.17210388 C4.76629387 78.36982749 4.7679468 80.56755494 4.77259064 82.76527405 C4.77764894 85.832554 4.76995539 88.89953899 4.75878906 91.96679688 C4.76283752 92.88218735 4.76688599 93.79757782 4.77105713 94.7407074 C4.72852742 101.02147258 4.72852742 101.02147258 2.5 103.25 C0 103.5 0 103.5 -2.5 103.25 C-5.20724625 100.54275375 -4.74615614 98.41807243 -4.77105713 94.7407074 C-4.76700867 93.82531693 -4.76296021 92.90992645 -4.75878906 91.96679688 C-4.7622937 91.00411392 -4.76579834 90.04143097 -4.76940918 89.04957581 C-4.77823778 85.85589463 -4.77237333 82.66243357 -4.765625 79.46875 C-4.76697132 77.25679481 -4.76891158 75.04483991 -4.77142334 72.83288574 C-4.77437613 68.19243559 -4.77007195 63.55206232 -4.76074219 58.91162109 C-4.74934761 52.95256175 -4.75590625 46.99368255 -4.76788712 41.03462982 C-4.77510151 36.46570469 -4.77281972 31.89682252 -4.76763153 27.32789612 C-4.76629387 25.13017251 -4.7679468 22.93244506 -4.77259064 20.73472595 C-4.77764894 17.667446 -4.76995539 14.60046101 -4.75878906 11.53320312 C-4.76283752 10.61781265 -4.76688599 9.70242218 -4.77105713 8.7592926 C-4.71493694 0.47149369 -4.71493694 0.47149369 0 0 Z " fill="#00ff00" transform="translate(225.5,258.75)"/>
<path d="M0 0 C1.2375 0.1546875 1.2375 0.1546875 2.5 0.3125 C4.52539124 3.35058686 4.75082897 3.92933724 4.76069641 7.33557129 C4.76778122 8.15153275 4.77486603 8.9674942 4.78216553 9.80818176 C4.77968811 10.69970444 4.77721069 11.59122711 4.7746582 12.50976562 C4.77976913 13.45148117 4.78488007 14.39319672 4.79014587 15.3634491 C4.80406682 18.48194704 4.80308339 21.60022464 4.80078125 24.71875 C4.80466645 26.88204023 4.80900075 29.0453297 4.81376648 31.20861816 C4.82123382 35.74473544 4.82093342 40.28077488 4.81567383 44.81689453 C4.8098748 50.63800439 4.82681833 56.45879652 4.8500185 62.27985382 C4.86472844 66.74759798 4.86563134 71.2152651 4.86250877 75.68302917 C4.86302324 77.82969289 4.86828439 79.97636078 4.87832069 82.1230011 C4.89061634 85.12062424 4.88393503 88.11762174 4.87231445 91.11523438 C4.87995819 92.00675705 4.88760193 92.89827972 4.89547729 93.81681824 C4.88846298 94.63277969 4.88144867 95.44874115 4.8742218 96.28942871 C4.87438954 96.99807823 4.87455729 97.70672775 4.87473011 98.4368515 C4.3828583 100.89883305 3.48748352 101.81894635 1.5 103.3125 C-2.92105263 102.89144737 -2.92105263 102.89144737 -4.5 101.3125 C-4.60598915 98.24868425 -4.64677487 95.2072866 -4.64526367 92.14282227 C-4.64862228 91.18028534 -4.6519809 90.21774841 -4.65544128 89.2260437 C-4.6649825 86.02698495 -4.66689597 82.82797836 -4.66796875 79.62890625 C-4.67117908 77.41552203 -4.67454297 75.20213803 -4.67805481 72.98875427 C-4.68405399 68.34235136 -4.6858939 63.69596706 -4.68530273 59.04956055 C-4.68520106 53.08263868 -4.69885571 47.11583566 -4.71607494 41.14894199 C-4.72716898 36.57573391 -4.72922275 32.0025548 -4.72869301 27.42933464 C-4.72987696 25.228816 -4.73432179 23.02829669 -4.74202538 20.82779121 C-4.75177321 17.75563247 -4.74896793 14.68373481 -4.74291992 11.61157227 C-4.74853943 10.69461075 -4.75415894 9.77764923 -4.75994873 8.832901 C-4.71850643 0.5898133 -4.71850643 0.5898133 0 0 Z " fill="#00ff00" transform="translate(210.5,258.6875)"/>
<path d="M0 0 C2.5 0.25 2.5 0.25 4.5 2.25 C4.87890625 4.59619141 4.87890625 4.59619141 5.0625 7.6015625 C5.13637939 8.74455811 5.21025879 9.88755371 5.28637695 11.06518555 C5.35687256 12.32242432 5.42736816 13.57966309 5.5 14.875 C5.57758545 16.1741333 5.6551709 17.4732666 5.73510742 18.81176758 C5.90565618 21.69303614 6.06865055 24.57463606 6.22802734 27.45654297 C6.46644701 31.73085249 6.73333809 36.00305882 7.00369263 40.27545166 C7.2314539 43.9279524 7.44447525 47.58121733 7.65405273 51.23480225 C7.75964489 53.0359295 7.87031911 54.83676603 7.98608398 56.63726807 C8.14770725 59.17814299 8.2891581 61.71939351 8.42578125 64.26171875 C8.47865799 65.02605728 8.53153473 65.79039581 8.58601379 66.57789612 C8.83468496 71.74885991 8.83468496 71.74885991 7.16479492 74.24926758 C5.5 75.25 5.5 75.25 2.9375 75.25 C0.5 74.25 0.5 74.25 -0.62094116 72.02662659 C-1.51991918 69.18708256 -1.84643674 66.79303183 -2.00244141 63.82397461 C-2.0623526 62.76194321 -2.12226379 61.6999118 -2.18399048 60.60569763 C-2.23928925 59.46609085 -2.29458801 58.32648407 -2.3515625 57.15234375 C-2.41532074 55.9670961 -2.47907898 54.78184845 -2.54476929 53.5606842 C-2.67809329 51.05181672 -2.80727377 48.54272612 -2.93261719 46.03344727 C-3.12309707 42.22554177 -3.32600562 38.41846344 -3.53125 34.61132812 C-3.65959102 32.16670524 -3.78721768 29.72204473 -3.9140625 27.27734375 C-3.97340973 26.15190659 -4.03275696 25.02646942 -4.09390259 23.8669281 C-4.36258264 18.43338768 -4.56963345 13.00035713 -4.66162109 7.56079102 C-4.67953705 6.58779556 -4.697453 5.61480011 -4.71591187 4.61231995 C-4.40252626 1.18352704 -3.39373481 0.33937348 0 0 Z " fill="#00ff00" transform="translate(381.5,391.75)"/>
<path d="M0 0 C2 2 2 2 2.125 5.125 C2.08375 6.07375 2.0425 7.0225 2 8 C-1.35724907 9.03914852 -4.62587785 9.93283774 -8.08984375 10.5546875 C-16.42630308 12.07381732 -27.71834049 14.71834049 -34 21 C-39.93048197 20.87381953 -43.6267118 18.65042646 -48.55859375 15.48046875 C-50.71995947 14.16981658 -52.69317377 13.2791703 -55.0625 12.4375 C-58 11 -58 11 -59.125 8.5 C-59 6 -59 6 -58 4.125 C-54.84300801 2.349192 -52.47273996 3.2751602 -49 4 C-46.90841281 5.09183482 -44.84516661 6.23954059 -42.8125 7.4375 C-38.01032306 9.79633213 -38.01032306 9.79633213 -32.87890625 9.1640625 C-30.85621066 8.08564223 -28.86678407 6.94267332 -26.9140625 5.7421875 C-19.4578731 1.28446569 -8.66425338 -0.76449295 0 0 Z " fill="#00ff00" transform="translate(394,56)"/>
<path d="M0 0 C1.72089844 -0.02126953 1.72089844 -0.02126953 3.4765625 -0.04296875 C6.375 0.1875 6.375 0.1875 8.375 2.1875 C8.04528521 5.48464793 7.7523161 6.8101839 5.375 9.1875 C3.34468617 9.54985063 1.29919416 9.82952897 -0.75 10.0625 C-9.33908466 11.30304034 -14.84565277 13.47146155 -20.32421875 20.30859375 C-21.61271101 22.16974924 -22.65136966 24.05215945 -23.6875 26.0625 C-25.625 29.1875 -25.625 29.1875 -28.1875 30.3125 C-30.625 30.1875 -30.625 30.1875 -32.5 29.125 C-33.625 27.1875 -33.625 27.1875 -33.6875 24.5625 C-30.88775118 15.66918022 -24.4053029 8.6451721 -16.4765625 3.90234375 C-10.86422804 0.99185804 -6.36812819 0.03593752 0 0 Z " fill="#00ff00" transform="translate(284.625,462.8125)"/>
<path d="M0 0 C0.3125 3 0.3125 3 0 6 C-0.66 6.66 -1.32 7.32 -2 8 C-5.65812262 7.73233249 -8.78884336 6.71656433 -12.1875 5.4375 C-20.80267436 2.51295084 -28.66680368 3.91481009 -37.2578125 6.2578125 C-40.54920387 7.14864492 -43.59697557 7.77806362 -47 8 C-49 6 -49 6 -49.1875 3.125 C-47.83060887 -0.44576614 -47.36798868 -0.69653712 -44.0625 -2.25 C-29.99165925 -7.56811304 -13.00963729 -8.67309153 0 0 Z " fill="#00ff00" transform="translate(168,420)"/>
<path d="M0 0 C8.06627203 0.73572962 14.80555727 7.18180484 20.20703125 12.77734375 C25.07472531 18.81158759 28.13590962 25.81362436 28.1875 33.5625 C28.20167969 34.53316406 28.21585938 35.50382812 28.23046875 36.50390625 C28 39 28 39 26 41 C23.5 40.8125 23.5 40.8125 21 40 C18.99606461 36.99409691 18.70835698 35.81267732 18.25 32.375 C15.96516131 20.22461749 6.56370574 13.63604072 -3 7 C-2.25 2.25 -2.25 2.25 0 0 Z " fill="#00ff00" transform="translate(22,393)"/>
<path d="M0 0 C2 2 2 2 2.25 4.5 C2 7 2 7 0 9 C-1.82484653 9.39557591 -3.66040118 9.7424667 -5.5 10.0625 C-12.69706468 11.75134189 -17.18835102 15.50358124 -22 21 C-22.53496094 21.90105469 -23.06992187 22.80210937 -23.62109375 23.73046875 C-25 26 -25 26 -27.5 26.9375 C-30 27 -30 27 -33 25 C-33.11738358 19.60035525 -31.54215208 17.00943482 -28 12.9375 C-20.10574772 4.70492262 -11.86166507 -0.93032667 0 0 Z " fill="#00ff00" transform="translate(497,445)"/>
<path d="M0 0 C1 1 1 1 1.0625 4.0625 C1.041875 5.031875 1.02125 6.00125 1 7 C0.3709375 7.24234375 -0.258125 7.4846875 -0.90625 7.734375 C-5.1496236 9.39593695 -9.21489415 11.07254346 -13.1875 13.3125 C-17.18325076 15.3223387 -19.61850577 15.28423107 -24 14 C-27.58012462 12.65745327 -30.88211706 11.23299807 -34 9 C-35.1875 5.8125 -35.1875 5.8125 -35 3 C-34.67 2.34 -34.34 1.68 -34 1 C-29.58361213 0.7181029 -26.71320622 1.01843989 -22.625 2.75 C-18.78477421 4.16792952 -16.90154241 3.95760571 -13.1875 2.25 C-12.47980469 1.86328125 -11.77210938 1.4765625 -11.04296875 1.078125 C-7.07014416 -1.01843253 -4.33401645 -1.1713558 0 0 Z " fill="#00ff00" transform="translate(400,143)"/>
<path d="M0 0 C0.8125 2.625 0.8125 2.625 1 5 C-2.02836311 7.51289705 -4.84294706 8.81252779 -8.5625 10.0625 C-11.79970754 11.15621055 -14.13381994 12.08921329 -17 14 C-21.83372433 14.52816628 -24.65507405 13.47960811 -28.8125 11.0625 C-30.24529297 10.24458984 -30.24529297 10.24458984 -31.70703125 9.41015625 C-34 8 -34 8 -35 7 C-35.125 4 -35.125 4 -35 1 C-34.67 0.67 -34.34 0.34 -34 0 C-29.78441136 0.115374 -25.92076057 0.58859634 -22.0625 2.3125 C-17.80738453 3.26773 -15.25015396 1.81510142 -11.3671875 0.04296875 C-6.94052187 -1.90739383 -4.34572859 -2.58394673 0 0 Z " fill="#00ff00" transform="translate(338,103)"/>
<path d="M0 0 C2.625 0.3125 2.625 0.3125 4.17285156 2.04736328 C6.59889642 5.83163433 7.89399575 9.96389529 9.375 14.1875 C9.70371094 15.07308594 10.03242187 15.95867187 10.37109375 16.87109375 C12.08579926 21.72580849 13.14633243 25.19068084 11.625 30.3125 C9.3125 30.9375 9.3125 30.9375 6.625 31.3125 C1.89082912 28.15638608 1.16391403 23.24215699 -0.625 18 C-1.00140625 16.95392578 -1.3778125 15.90785156 -1.765625 14.83007812 C-2.11625 13.81751953 -2.466875 12.80496094 -2.828125 11.76171875 C-3.31007324 10.37472778 -3.31007324 10.37472778 -3.80175781 8.9597168 C-4.43716428 6.02542705 -4.2234699 4.17247207 -3.375 1.3125 C-2.375 0.3125 -2.375 0.3125 0 0 Z " fill="#00ff00" transform="translate(84.375,183.6875)"/>
<path d="M0 0 C1.66940903 5.00822709 1.75124901 10.25913235 2.1875 15.5 C2.29513672 16.65371094 2.40277344 17.80742187 2.51367188 18.99609375 C2.60583984 20.10082031 2.69800781 21.20554687 2.79296875 22.34375 C2.92481567 23.86258789 2.92481567 23.86258789 3.05932617 25.41210938 C3 28 3 28 1 31 C-1.31 30.67 -3.62 30.34 -6 30 C-7.60781635 19.87937028 -8.2615556 10.24426111 -8 0 C-5.13822943 -1.43088528 -3.06624227 -0.59991697 0 0 Z " fill="#00ff00" transform="translate(400,385)"/>
<path d="M0 0 C0.94875 0.04125 1.8975 0.0825 2.875 0.125 C11.80362786 20.98199236 11.80362786 20.98199236 9.875 26.125 C8.875 27.125 8.875 27.125 5.8125 27.1875 C4.843125 27.166875 3.87375 27.14625 2.875 27.125 C0.62267499 22.27291686 -1.47490594 17.37631901 -3.375 12.375 C-3.71015625 11.49328125 -4.0453125 10.6115625 -4.390625 9.703125 C-5.16021617 7.00136876 -5.40993336 4.91734697 -5.125 2.125 C-3.125 0.125 -3.125 0.125 0 0 Z " fill="#00ff00" transform="translate(130.125,199.875)"/>
<path d="M0 0 C2.31 0.33 4.62 0.66 7 1 C8.20773064 4.22195845 9.3875077 7.45347356 10.5625 10.6875 C10.90474609 11.59951172 11.24699219 12.51152344 11.59960938 13.45117188 C11.91865234 14.33740234 12.23769531 15.22363281 12.56640625 16.13671875 C12.86490479 16.94842529 13.16340332 17.76013184 13.47094727 18.59643555 C14.08877817 21.4033323 13.79217359 23.2563093 13 26 C12 27 12 27 8.9375 27.0625 C7.968125 27.041875 6.99875 27.02125 6 27 C4.84441727 24.12882484 3.70233133 21.25246071 2.5625 18.375 C2.23701172 17.56675781 1.91152344 16.75851563 1.57617188 15.92578125 C-1.73479426 7.52889807 -1.73479426 7.52889807 -2 3 C-1.34 2.01 -0.68 1.02 0 0 Z " fill="#00ff00" transform="translate(260,194)"/>
<path d="M0 0 C0.886875 -0.00257813 1.77375 -0.00515625 2.6875 -0.0078125 C4.0796875 0.00378906 4.0796875 0.00378906 5.5 0.015625 C6.428125 0.00789063 7.35625 0.00015625 8.3125 -0.0078125 C9.6428125 -0.00394531 9.6428125 -0.00394531 11 0 C11.8146875 0.00225586 12.629375 0.00451172 13.46875 0.00683594 C15.5 0.265625 15.5 0.265625 17.5 2.265625 C17.75 4.765625 17.75 4.765625 17.5 7.265625 C15.05013068 9.71549432 14.362922 9.52193811 11 9.53125 C10.113125 9.53382813 9.22625 9.53640625 8.3125 9.5390625 C6.9203125 9.52746094 6.9203125 9.52746094 5.5 9.515625 C4.571875 9.52335937 3.64375 9.53109375 2.6875 9.5390625 C1.3571875 9.53519531 1.3571875 9.53519531 0 9.53125 C-0.8146875 9.52899414 -1.629375 9.52673828 -2.46875 9.52441406 C-4.5 9.265625 -4.5 9.265625 -6.5 7.265625 C-6.75 4.765625 -6.75 4.765625 -6.5 2.265625 C-4.05013068 -0.18424432 -3.362922 0.00931189 0 0 Z " fill="#00ff00" transform="translate(107.5,302.734375)"/>
<path d="M0 0 C1.19496094 -0.00386719 1.19496094 -0.00386719 2.4140625 -0.0078125 C3.24679687 -0.00007813 4.07953125 0.00765625 4.9375 0.015625 C5.77023437 0.00789063 6.60296875 0.00015625 7.4609375 -0.0078125 C8.25757813 -0.00523437 9.05421875 -0.00265625 9.875 0 C10.60589844 0.00225586 11.33679688 0.00451172 12.08984375 0.00683594 C13.9375 0.265625 13.9375 0.265625 15.9375 2.265625 C16.25 4.765625 16.25 4.765625 15.9375 7.265625 C12.20082113 9.75674425 9.25879024 9.56175977 4.9375 9.515625 C3.85082031 9.52722656 3.85082031 9.52722656 2.7421875 9.5390625 C-1.05638493 9.52504563 -2.83087084 9.42004444 -6.0625 7.265625 C-6.375 4.765625 -6.375 4.765625 -6.0625 2.265625 C-3.69681778 -0.10005722 -3.21017774 0.00990796 0 0 Z " fill="#00ff00" transform="translate(294.0625,337.734375)"/>
<path d="M0 0 C1.95532227 -0.35644531 1.95532227 -0.35644531 4.31640625 -0.328125 C5.16267578 -0.32296875 6.00894531 -0.3178125 6.88085938 -0.3125 C7.76580078 -0.291875 8.65074219 -0.27125 9.5625 -0.25 C10.89571289 -0.24226563 10.89571289 -0.24226563 12.25585938 -0.234375 C18.84605454 -0.15394546 18.84605454 -0.15394546 20 1 C20.1875 3.9375 20.1875 3.9375 20 7 C18 9 18 9 14.15625 9.23046875 C12.60410572 9.22647524 11.0519606 9.21170957 9.5 9.1875 C8.71496094 9.18685547 7.92992187 9.18621094 7.12109375 9.18554688 C1.28093696 9.14046848 1.28093696 9.14046848 -1 8 C-1.75 5.625 -1.75 5.625 -2 3 C-1.34 2.01 -0.68 1.02 0 0 Z " fill="#00ff00" transform="translate(260,338)"/>
<path d="M0 0 C6.6 0 13.2 0 20 0 C21 6 21 6 20 8 C16.49904689 9.16698437 13.6877768 9.13268287 10 9.125 C8.7625 9.12757813 7.525 9.13015625 6.25 9.1328125 C3 9 3 9 0 8 C-1.125 2.25 -1.125 2.25 0 0 Z " fill="#00ff00" transform="translate(289,354)"/>
<path d="M0 0 C3.14581423 -0.02888514 6.29159469 -0.04675923 9.4375 -0.0625 C10.33533203 -0.07087891 11.23316406 -0.07925781 12.15820312 -0.08789062 C13.01220703 -0.09111328 13.86621094 -0.09433594 14.74609375 -0.09765625 C15.93223267 -0.10551147 15.93223267 -0.10551147 17.14233398 -0.11352539 C19 0 19 0 20 1 C20.25 3.9375 20.25 3.9375 20 7 C16.40772276 9.3948515 13.7176193 9.36703237 9.5625 9.375 C8.24378906 9.40335937 6.92507813 9.43171875 5.56640625 9.4609375 C1.55839192 8.9429247 0.42540715 8.1387622 -2 5 C-1.34 3.35 -0.68 1.7 0 0 Z " fill="#00ff00" transform="translate(260,354)"/>
<path d="M0 0 C2.5 0.25 2.5 0.25 4.5 2.25 C4.765625 4.5625 4.765625 4.5625 4.75 7.25 C4.75515625 8.136875 4.7603125 9.02375 4.765625 9.9375 C4.5 12.25 4.5 12.25 2.5 14.25 C0 14.5 0 14.5 -2.5 14.25 C-4.5 12.25 -4.5 12.25 -4.765625 9.9375 C-4.76046875 9.050625 -4.7553125 8.16375 -4.75 7.25 C-4.75515625 6.363125 -4.7603125 5.47625 -4.765625 4.5625 C-4.37662358 1.17589938 -3.36011494 0.33601149 0 0 Z " fill="#00ff00" transform="translate(144.5,371.75)"/>
<path d="M0 0 C2.5 0.25 2.5 0.25 4.5 2.25 C4.765625 4.5625 4.765625 4.5625 4.75 7.25 C4.75515625 8.136875 4.7603125 9.02375 4.765625 9.9375 C4.5 12.25 4.5 12.25 2.5 14.25 C0 14.5 0 14.5 -2.5 14.25 C-4.5 12.25 -4.5 12.25 -4.765625 9.9375 C-4.76046875 9.050625 -4.7553125 8.16375 -4.75 7.25 C-4.75515625 6.363125 -4.7603125 5.47625 -4.765625 4.5625 C-4.37662358 1.17589938 -3.36011494 0.33601149 0 0 Z " fill="#00ff00" transform="translate(126.5,371.75)"/>
<path d="M0 0 C2.5 0.25 2.5 0.25 4.5 2.25 C4.765625 4.5625 4.765625 4.5625 4.75 7.25 C4.75515625 8.136875 4.7603125 9.02375 4.765625 9.9375 C4.5 12.25 4.5 12.25 2.5 14.25 C0 14.5 0 14.5 -2.5 14.25 C-4.5 12.25 -4.5 12.25 -4.765625 9.9375 C-4.76046875 9.050625 -4.7553125 8.16375 -4.75 7.25 C-4.75515625 6.363125 -4.7603125 5.47625 -4.765625 4.5625 C-4.37662358 1.17589938 -3.36011494 0.33601149 0 0 Z " fill="#00ff00" transform="translate(434.5,339.75)"/>
<path d="M0 0 C2.5 0.25 2.5 0.25 4.5 2.25 C4.765625 4.5625 4.765625 4.5625 4.75 7.25 C4.75515625 8.136875 4.7603125 9.02375 4.765625 9.9375 C4.5 12.25 4.5 12.25 2.5 14.25 C0 14.5 0 14.5 -2.5 14.25 C-4.5 12.25 -4.5 12.25 -4.765625 9.9375 C-4.76046875 9.050625 -4.7553125 8.16375 -4.75 7.25 C-4.75515625 6.363125 -4.7603125 5.47625 -4.765625 4.5625 C-4.37662358 1.17589938 -3.36011494 0.33601149 0 0 Z " fill="#00ff00" transform="translate(144.5,337.75)"/>
<path d="M0 0 C2.5 0.25 2.5 0.25 4.5 2.25 C4.765625 4.5625 4.765625 4.5625 4.75 7.25 C4.75515625 8.136875 4.7603125 9.02375 4.765625 9.9375 C4.5 12.25 4.5 12.25 2.5 14.25 C0 14.5 0 14.5 -2.5 14.25 C-4.5 12.25 -4.5 12.25 -4.765625 9.9375 C-4.76046875 9.050625 -4.7553125 8.16375 -4.75 7.25 C-4.75515625 6.363125 -4.7603125 5.47625 -4.765625 4.5625 C-4.37662358 1.17589938 -3.36011494 0.33601149 0 0 Z " fill="#00ff00" transform="translate(126.5,337.75)"/>
<path d="M0 0 C2.5 0.25 2.5 0.25 4.5 2.25 C4.765625 4.5625 4.765625 4.5625 4.75 7.25 C4.75515625 8.136875 4.7603125 9.02375 4.765625 9.9375 C4.5 12.25 4.5 12.25 2.5 14.25 C0 14.5 0 14.5 -2.5 14.25 C-4.5 12.25 -4.5 12.25 -4.765625 9.9375 C-4.76046875 9.050625 -4.7553125 8.16375 -4.75 7.25 C-4.75515625 6.363125 -4.7603125 5.47625 -4.765625 4.5625 C-4.37662358 1.17589938 -3.36011494 0.33601149 0 0 Z " fill="#00ff00" transform="translate(434.5,318.75)"/>
<path d="M0 0 C2.5 0.25 2.5 0.25 4.5 2.25 C4.765625 4.5625 4.765625 4.5625 4.75 7.25 C4.75515625 8.136875 4.7603125 9.02375 4.765625 9.9375 C4.5 12.25 4.5 12.25 2.5 14.25 C0 14.5 0 14.5 -2.5 14.25 C-4.5 12.25 -4.5 12.25 -4.765625 9.9375 C-4.76046875 9.050625 -4.7553125 8.16375 -4.75 7.25 C-4.75515625 6.363125 -4.7603125 5.47625 -4.765625 4.5625 C-4.37662358 1.17589938 -3.36011494 0.33601149 0 0 Z " fill="#00ff00" transform="translate(144.5,316.75)"/>
<path d="M0 0 C2.5 0.25 2.5 0.25 4.5 2.25 C4.765625 4.5625 4.765625 4.5625 4.75 7.25 C4.75515625 8.136875 4.7603125 9.02375 4.765625 9.9375 C4.5 12.25 4.5 12.25 2.5 14.25 C0 14.5 0 14.5 -2.5 14.25 C-4.5 12.25 -4.5 12.25 -4.765625 9.9375 C-4.76046875 9.050625 -4.7553125 8.16375 -4.75 7.25 C-4.75515625 6.363125 -4.7603125 5.47625 -4.765625 4.5625 C-4.37662358 1.17589938 -3.36011494 0.33601149 0 0 Z " fill="#00ff00" transform="translate(126.5,316.75)"/>
<path d="M0 0 C2.5 0.25 2.5 0.25 4.5 2.25 C4.765625 4.5625 4.765625 4.5625 4.75 7.25 C4.75515625 8.136875 4.7603125 9.02375 4.765625 9.9375 C4.5 12.25 4.5 12.25 2.5 14.25 C0 14.5 0 14.5 -2.5 14.25 C-4.5 12.25 -4.5 12.25 -4.765625 9.9375 C-4.76046875 9.050625 -4.7553125 8.16375 -4.75 7.25 C-4.75515625 6.363125 -4.7603125 5.47625 -4.765625 4.5625 C-4.37662358 1.17589938 -3.36011494 0.33601149 0 0 Z " fill="#00ff00" transform="translate(126.5,282.75)"/>
<path d="M0 0 C2.5 0.25 2.5 0.25 4.5 2.25 C4.765625 4.5625 4.765625 4.5625 4.75 7.25 C4.75515625 8.136875 4.7603125 9.02375 4.765625 9.9375 C4.5 12.25 4.5 12.25 2.5 14.25 C0 14.5 0 14.5 -2.5 14.25 C-4.5 12.25 -4.5 12.25 -4.765625 9.9375 C-4.76046875 9.050625 -4.7553125 8.16375 -4.75 7.25 C-4.75515625 6.363125 -4.7603125 5.47625 -4.765625 4.5625 C-4.37662358 1.17589938 -3.36011494 0.33601149 0 0 Z " fill="#00ff00" transform="translate(144.5,261.75)"/>
<path d="M0 0 C2.5 0.25 2.5 0.25 4.5 2.25 C4.765625 4.5625 4.765625 4.5625 4.75 7.25 C4.75515625 8.136875 4.7603125 9.02375 4.765625 9.9375 C4.5 12.25 4.5 12.25 2.5 14.25 C0 14.5 0 14.5 -2.5 14.25 C-4.5 12.25 -4.5 12.25 -4.765625 9.9375 C-4.76046875 9.050625 -4.7553125 8.16375 -4.75 7.25 C-4.75515625 6.363125 -4.7603125 5.47625 -4.765625 4.5625 C-4.37662358 1.17589938 -3.36011494 0.33601149 0 0 Z " fill="#00ff00" transform="translate(126.5,261.75)"/>
<path d="M0 0 C2.5 0.25 2.5 0.25 4.5 2.25 C4.80078125 4.5625 4.80078125 4.5625 4.8125 7.25 C4.82925781 8.136875 4.84601563 9.02375 4.86328125 9.9375 C4.74339844 10.700625 4.62351562 11.46375 4.5 12.25 C1.5 14.25 1.5 14.25 -1.125 13.9375 C-3.5 13.25 -3.5 13.25 -4.5 12.25 C-4.6245486 10.60769636 -4.67568524 8.95947724 -4.6875 7.3125 C-4.70167969 6.41660156 -4.71585937 5.52070313 -4.73046875 4.59765625 C-4.39506937 1.18113039 -3.38368179 0.33836818 0 0 Z " fill="#00ff00" transform="translate(108.5,371.75)"/>
<path d="M0 0 C1.2375 0.1546875 1.2375 0.1546875 2.5 0.3125 C4.49825961 3.30988941 4.77550398 3.94597508 4.75 7.3125 C4.75515625 7.993125 4.7603125 8.67375 4.765625 9.375 C4.5 11.3125 4.5 11.3125 2.5 14.3125 C0.19 13.9825 -2.12 13.6525 -4.5 13.3125 C-4.55391993 11.52116022 -4.59275571 9.72936101 -4.625 7.9375 C-4.64820313 6.93976563 -4.67140625 5.94203125 -4.6953125 4.9140625 C-4.42749022 1.34666972 -3.54835117 0.4435439 0 0 Z " fill="#00ff00" transform="translate(398.5,339.6875)"/>
<path d="M0 0 C2.5 0.25 2.5 0.25 4.5 2.25 C4.80078125 4.5625 4.80078125 4.5625 4.8125 7.25 C4.82925781 8.136875 4.84601563 9.02375 4.86328125 9.9375 C4.74339844 10.700625 4.62351562 11.46375 4.5 12.25 C1.5 14.25 1.5 14.25 -1.125 13.9375 C-3.5 13.25 -3.5 13.25 -4.5 12.25 C-4.6245486 10.60769636 -4.67568524 8.95947724 -4.6875 7.3125 C-4.70167969 6.41660156 -4.71585937 5.52070313 -4.73046875 4.59765625 C-4.39506937 1.18113039 -3.38368179 0.33836818 0 0 Z " fill="#00ff00" transform="translate(108.5,337.75)"/>
<path d="M0 0 C1.2375 0.1546875 1.2375 0.1546875 2.5 0.3125 C4.49825961 3.30988941 4.77550398 3.94597508 4.75 7.3125 C4.75515625 7.993125 4.7603125 8.67375 4.765625 9.375 C4.5 11.3125 4.5 11.3125 2.5 14.3125 C0.19 13.9825 -2.12 13.6525 -4.5 13.3125 C-4.55391993 11.52116022 -4.59275571 9.72936101 -4.625 7.9375 C-4.64820313 6.93976563 -4.67140625 5.94203125 -4.6953125 4.9140625 C-4.42749022 1.34666972 -3.54835117 0.4435439 0 0 Z " fill="#00ff00" transform="translate(398.5,318.6875)"/>
<path d="M0 0 C2.5 0.25 2.5 0.25 4.5 2.25 C4.80078125 4.5625 4.80078125 4.5625 4.8125 7.25 C4.82925781 8.136875 4.84601563 9.02375 4.86328125 9.9375 C4.74339844 10.700625 4.62351562 11.46375 4.5 12.25 C1.5 14.25 1.5 14.25 -1.125 13.9375 C-3.5 13.25 -3.5 13.25 -4.5 12.25 C-4.6245486 10.60769636 -4.67568524 8.95947724 -4.6875 7.3125 C-4.70167969 6.41660156 -4.71585937 5.52070313 -4.73046875 4.59765625 C-4.39506937 1.18113039 -3.38368179 0.33836818 0 0 Z " fill="#00ff00" transform="translate(108.5,316.75)"/>
<path d="M0 0 C1.2375 0.1546875 1.2375 0.1546875 2.5 0.3125 C4.49825961 3.30988941 4.77550398 3.94597508 4.75 7.3125 C4.75515625 7.993125 4.7603125 8.67375 4.765625 9.375 C4.5 11.3125 4.5 11.3125 2.5 14.3125 C0 14.625 0 14.625 -2.5 14.3125 C-4.5 12.3125 -4.5 12.3125 -4.765625 10 C-4.76046875 9.113125 -4.7553125 8.22625 -4.75 7.3125 C-4.75515625 6.425625 -4.7603125 5.53875 -4.765625 4.625 C-4.37679717 1.23991063 -3.34120123 0.41765015 0 0 Z " fill="#00ff00" transform="translate(416.5,339.6875)"/>
<path d="M0 0 C1.2375 0.1546875 1.2375 0.1546875 2.5 0.3125 C4.49825961 3.30988941 4.77550398 3.94597508 4.75 7.3125 C4.75515625 7.993125 4.7603125 8.67375 4.765625 9.375 C4.5 11.3125 4.5 11.3125 2.5 14.3125 C0 14.625 0 14.625 -2.5 14.3125 C-4.5 12.3125 -4.5 12.3125 -4.765625 10 C-4.76046875 9.113125 -4.7553125 8.22625 -4.75 7.3125 C-4.75515625 6.425625 -4.7603125 5.53875 -4.765625 4.625 C-4.37679717 1.23991063 -3.34120123 0.41765015 0 0 Z " fill="#00ff00" transform="translate(416.5,318.6875)"/>
<path d="M0 0 C2.5 0.25 2.5 0.25 4.5 2.25 C4.765625 4.5625 4.765625 4.5625 4.75 7.25 C4.75515625 8.136875 4.7603125 9.02375 4.765625 9.9375 C4.5 12.25 4.5 12.25 2.5 14.25 C-0.5625 14 -0.5625 14 -3.5 13.25 C-4.67673198 10.89653604 -4.66623866 9.3693967 -4.6875 6.75 C-4.70167969 5.9559375 -4.71585938 5.161875 -4.73046875 4.34375 C-4.36961828 1.06551523 -3.1957215 0.31957215 0 0 Z " fill="#00ff00" transform="translate(144.5,282.75)"/>
<path d="M0 0 C2.5 0.25 2.5 0.25 4.5 2.25 C4.80078125 4.30859375 4.80078125 4.30859375 4.8125 6.6875 C4.82925781 7.46996094 4.84601563 8.25242187 4.86328125 9.05859375 C4.416957 11.75093682 3.68666598 12.65544785 1.5 14.25 C-2.92105263 13.82894737 -2.92105263 13.82894737 -4.5 12.25 C-4.6245486 10.60769636 -4.67568524 8.95947724 -4.6875 7.3125 C-4.70167969 6.41660156 -4.71585937 5.52070313 -4.73046875 4.59765625 C-4.39506937 1.18113039 -3.38368179 0.33836818 0 0 Z " fill="#00ff00" transform="translate(108.5,282.75)"/>
<path d="M0 0 C2.5 0.25 2.5 0.25 4.5 2.25 C4.80078125 4.30859375 4.80078125 4.30859375 4.8125 6.6875 C4.82925781 7.46996094 4.84601563 8.25242187 4.86328125 9.05859375 C4.416957 11.75093682 3.68666598 12.65544785 1.5 14.25 C-2.92105263 13.82894737 -2.92105263 13.82894737 -4.5 12.25 C-4.6245486 10.60769636 -4.67568524 8.95947724 -4.6875 7.3125 C-4.70167969 6.41660156 -4.71585937 5.52070313 -4.73046875 4.59765625 C-4.39506937 1.18113039 -3.38368179 0.33836818 0 0 Z " fill="#00ff00" transform="translate(108.5,261.75)"/>
<path d="M0 0 C1.2375 0.1546875 1.2375 0.1546875 2.5 0.3125 C5.03686376 4.11779564 5.09355135 6.85159062 4.5 11.3125 C3.3125 13.375 3.3125 13.375 1.5 14.3125 C-2.92105263 13.89144737 -2.92105263 13.89144737 -4.5 12.3125 C-4.6245486 10.67019636 -4.67568524 9.02197724 -4.6875 7.375 C-4.70167969 6.47910156 -4.71585937 5.58320313 -4.73046875 4.66015625 C-4.39515923 1.24454568 -3.36499071 0.42062384 0 0 Z " fill="#00ff00" transform="translate(90.5,371.6875)"/>
<path d="M0 0 C1.2375 0.1546875 1.2375 0.1546875 2.5 0.3125 C5.03686376 4.11779564 5.09355135 6.85159062 4.5 11.3125 C3.3125 13.375 3.3125 13.375 1.5 14.3125 C-2.92105263 13.89144737 -2.92105263 13.89144737 -4.5 12.3125 C-4.6245486 10.67019636 -4.67568524 9.02197724 -4.6875 7.375 C-4.70167969 6.47910156 -4.71585937 5.58320313 -4.73046875 4.66015625 C-4.39515923 1.24454568 -3.36499071 0.42062384 0 0 Z " fill="#00ff00" transform="translate(90.5,337.6875)"/>
<path d="M0 0 C1.2375 0.1546875 1.2375 0.1546875 2.5 0.3125 C5.03686376 4.11779564 5.09355135 6.85159062 4.5 11.3125 C3.3125 13.375 3.3125 13.375 1.5 14.3125 C-2.92105263 13.89144737 -2.92105263 13.89144737 -4.5 12.3125 C-4.6245486 10.67019636 -4.67568524 9.02197724 -4.6875 7.375 C-4.70167969 6.47910156 -4.71585937 5.58320313 -4.73046875 4.66015625 C-4.39515923 1.24454568 -3.36499071 0.42062384 0 0 Z " fill="#00ff00" transform="translate(90.5,316.6875)"/>
<path d="M0 0 C1.2375 0.1546875 1.2375 0.1546875 2.5 0.3125 C5.03686376 4.11779564 5.09355135 6.85159062 4.5 11.3125 C3.3125 13.375 3.3125 13.375 1.5 14.3125 C-2.92105263 13.89144737 -2.92105263 13.89144737 -4.5 12.3125 C-4.6245486 10.67019636 -4.67568524 9.02197724 -4.6875 7.375 C-4.70167969 6.47910156 -4.71585937 5.58320313 -4.73046875 4.66015625 C-4.39515923 1.24454568 -3.36499071 0.42062384 0 0 Z " fill="#00ff00" transform="translate(90.5,282.6875)"/>
<path d="M0 0 C1.2375 0.1546875 1.2375 0.1546875 2.5 0.3125 C5.03686376 4.11779564 5.09355135 6.85159062 4.5 11.3125 C3.3125 13.375 3.3125 13.375 1.5 14.3125 C-2.92105263 13.89144737 -2.92105263 13.89144737 -4.5 12.3125 C-4.6245486 10.67019636 -4.67568524 9.02197724 -4.6875 7.375 C-4.70167969 6.47910156 -4.71585937 5.58320313 -4.73046875 4.66015625 C-4.39515923 1.24454568 -3.36499071 0.42062384 0 0 Z " fill="#00ff00" transform="translate(90.5,261.6875)"/>
<path d="M0 0 C1 1 1 1 1.09765625 3.72265625 C1.08605469 4.82480469 1.07445312 5.92695313 1.0625 7.0625 C1.05347656 8.16722656 1.04445313 9.27195312 1.03515625 10.41015625 C1.02355469 11.26480469 1.01195312 12.11945313 1 13 C-4.75 14.125 -4.75 14.125 -7 13 C-7 9.04 -7 5.08 -7 1 C-4.51588385 -0.24205807 -2.74800896 -0.14092354 0 0 Z " fill="#00ff00" transform="translate(383,340)"/>
<path d="M0 0 C1 1 1 1 1.09765625 3.72265625 C1.08605469 4.82480469 1.07445312 5.92695313 1.0625 7.0625 C1.05347656 8.16722656 1.04445313 9.27195312 1.03515625 10.41015625 C1.02355469 11.26480469 1.01195312 12.11945313 1 13 C-4.75 14.125 -4.75 14.125 -7 13 C-7 9.04 -7 5.08 -7 1 C-4.51588385 -0.24205807 -2.74800896 -0.14092354 0 0 Z " fill="#00ff00" transform="translate(383,319)"/>
<path d="M0 0 C1.051875 -0.00386719 1.051875 -0.00386719 2.125 -0.0078125 C4 0.125 4 0.125 6 1.125 C6.04241723 3.45794775 6.04092937 5.79202567 6 8.125 C5 9.125 5 9.125 2.75 9.2578125 C1.8425 9.25523437 0.935 9.25265625 0 9.25 C-1.36125 9.25386719 -1.36125 9.25386719 -2.75 9.2578125 C-5 9.125 -5 9.125 -6 8.125 C-6.04092937 5.79202567 -6.04241723 3.45794775 -6 1.125 C-3.75487738 0.00243869 -2.48543351 -0.00913762 0 0 Z " fill="#00ff00" transform="translate(474,299.875)"/>
</svg>