<svg version="1.1" xmlns="http://www.w3.org/2000/svg" width="512px" height="512px" transform="rotate(0) scale(1, 1)">
<path d="M0 0 C1.77494663 -0.00870482 3.54988576 -0.01907465 5.32481384 -0.03097534 C10.12667169 -0.05766672 14.92821385 -0.05892257 19.73013139 -0.05384874 C23.74825319 -0.05170296 27.76631195 -0.06149241 31.78442019 -0.07105958 C41.26973995 -0.09321994 50.75490128 -0.09414207 60.24023438 -0.08203125 C70.00326438 -0.06995687 79.76571754 -0.09456673 89.52864915 -0.13717139 C97.93068434 -0.17247973 106.33253657 -0.18439405 114.73464316 -0.1778959 C119.74403466 -0.17428148 124.75301477 -0.17942834 129.76233864 -0.20732498 C134.4765133 -0.2325974 139.1897935 -0.22848686 143.90395546 -0.2025032 C145.62597464 -0.19779717 147.34805791 -0.2031492 149.07000351 -0.21974945 C160.23250413 -0.31953248 169.44098663 0.5899038 178.37406635 8.1726284 C186.41467639 16.72772508 187.05445731 26.24356514 187.01098633 37.51733398 C187.0196948 39.01642363 187.03006583 40.5155044 187.04196167 42.01457214 C187.06861479 46.06440393 187.06991325 50.11386097 187.06483507 54.16376328 C187.06268656 57.55558699 187.07248567 60.94733627 187.08204591 64.33914393 C187.10419322 72.34781666 187.10513597 80.35630175 187.09301758 88.36499023 C187.08094567 96.60117797 187.1055493 104.8366817 187.14815772 113.07275277 C187.18349653 120.16694997 187.19537561 127.26093051 187.18888223 134.35521239 C187.18527244 138.58215466 187.19036695 142.80860915 187.21831131 147.03547096 C187.24363413 151.01428571 187.23942767 154.99204213 187.21348953 158.97084236 C187.20879411 160.42195254 187.21409674 161.87313915 187.23073578 163.32416153 C187.34118243 173.71374947 185.7087323 182.33538749 178.83835793 190.47175312 C170.66017481 198.10950652 161.75985759 199.12878894 150.95556641 199.00341797 C149.6143548 199.00228758 148.27314072 199.00292708 146.93193054 199.00518799 C143.31665542 199.00632864 139.70191868 198.982926 136.08676791 198.95489216 C132.29917096 198.92976913 128.51155963 198.92752796 124.72389221 198.92279053 C117.56296522 198.91039259 110.40228451 198.87761451 103.24146563 198.83739257 C95.08425232 198.79257532 86.92702683 198.77066288 78.76972091 198.75061083 C62.00022675 198.70887869 45.23097984 198.63858916 28.46166992 198.54931641 C28.70418488 199.93688141 28.70418488 199.93688141 28.95159912 201.35247803 C34.65142946 237.07582537 23.63876446 273.8061077 2.80004883 302.75439453 C-1.04909276 307.91654137 -5.2288742 312.76902468 -9.53833008 317.54931641 C-10.19188477 318.27505859 -10.84543945 319.00080078 -11.51879883 319.74853516 C-32.24279516 341.5330345 -65.27282416 359.68583184 -95.66333008 360.92431641 C-99.34416737 360.87996897 -100.20226327 360.82137049 -103.16333008 358.42431641 C-104.75889748 355.08813001 -105.08232816 353.20187496 -104.53833008 349.54931641 C-102.98054603 346.80492402 -102.04223387 345.73346171 -99.04907227 344.63964844 C-98.07099609 344.44741699 -97.09291992 344.25518555 -96.08520508 344.05712891 C-94.99828369 343.83041504 -93.9113623 343.60370117 -92.79150391 343.37011719 C-91.63545654 343.14050293 -90.47940918 342.91088867 -89.28833008 342.67431641 C-79.1566507 340.49232141 -69.91787203 338.0488881 -60.53833008 333.54931641 C-59.61818115 333.11280762 -59.61818115 333.11280762 -58.67944336 332.66748047 C-29.89764597 318.82232978 -5.59040941 293.29988153 5.35327148 263.08789062 C10.98458192 246.35585157 12.77448309 231.1363678 12.46166992 213.54931641 C10.93720707 215.61524635 9.41315757 217.68147756 7.88989258 219.74829102 C6.59993801 221.49670373 5.30793 223.24360323 4.01391602 224.98901367 C-0.06314568 230.493231 -0.06314568 230.493231 -3.96801758 236.11962891 C-7.63080786 241.51819933 -10.86290035 246.12062665 -17.53833008 247.54931641 C-19.12454562 247.38800635 -20.70809655 247.19886052 -22.28833008 246.98681641 C-26.33370642 246.78206576 -27.37578736 247.40633901 -30.49145508 250.14697266 C-33.12705351 252.99572889 -35.61611361 255.97200155 -38.12280273 258.93408203 C-49.16909318 271.53881774 -66.60948932 278.61339953 -82.53833008 282.54931641 C-83.77969727 282.86771484 -85.02106445 283.18611328 -86.30004883 283.51416016 C-116.04802967 290.30597091 -150.64151664 285.99867315 -176.84301758 270.03759766 C-187.64918483 263.03069263 -199.19402679 252.35131949 -204.53833008 240.54931641 C-205.21267762 233.33672965 -201.77017711 229.09576862 -197.53833008 223.54931641 C-179.01147794 202.13592768 -153.26362918 191.99653352 -125.53833008 189.54931641 C-95.98654193 187.74127406 -65.60131446 192.73306284 -42.53833008 212.54931641 C-42.20833008 212.87931641 -41.87833008 213.20931641 -41.53833008 213.54931641 C-41.32975106 201.13642128 -41.16986072 188.72394326 -41.07202053 176.30965233 C-41.02505985 170.54499776 -40.96137309 164.78154242 -40.859375 159.01757812 C-40.76154464 153.45428324 -40.70776401 147.8921412 -40.68443489 142.32805252 C-40.66781176 140.20601879 -40.63534845 138.08404785 -40.58675957 135.96250534 C-39.7979498 124.89940142 -39.7979498 124.89940142 -43.46643066 114.96052551 C-45.81252681 113.36245981 -47.85424762 112.43617567 -50.53833008 111.54931641 C-51.83439073 110.8514745 -53.12088543 110.13506724 -54.38989258 109.38916016 C-55.64290057 108.74560397 -56.90085291 108.11159235 -58.16333008 107.48681641 C-58.84572754 107.14884033 -59.528125 106.81086426 -60.23120117 106.46264648 C-74.66163497 99.50007021 -90.51155223 95.25261916 -106.53833008 94.54931641 C-107.69333008 94.49646484 -108.84833008 94.44361328 -110.03833008 94.38916016 C-145.40282943 93.56921713 -178.10819886 106.74503291 -203.84912109 130.81738281 C-226.87285737 153.16115259 -240.64589667 184.14094727 -241.50708008 216.18603516 C-241.93227534 250.58888742 -229.45165448 281.72708498 -205.82568359 306.7331543 C-186.02671326 326.88864508 -160.60901008 339.52605774 -132.79614258 343.90869141 C-129.14331609 344.62699302 -126.54393249 345.25639902 -124.22583008 348.23681641 C-123.21974059 351.62093559 -123.73390609 354.14598415 -124.53833008 357.54931641 C-126.04847512 359.51432442 -126.95585525 360.4126257 -129.38598633 360.98291016 C-161.28007308 361.03916075 -192.12243875 342.77063045 -214.53833008 321.54931641 C-215.42262695 320.72947266 -216.30692383 319.90962891 -217.21801758 319.06494141 C-238.10567577 299.06486076 -251.11616453 272.79359116 -256.53833008 244.54931641 C-256.71267578 243.64955078 -256.88702148 242.74978516 -257.06665039 241.82275391 C-257.60827309 238.06391482 -257.73641378 234.36232025 -257.77661133 230.57275391 C-257.7864505 229.81385864 -257.79628967 229.05496338 -257.806427 228.27307129 C-258.13589624 196.27005428 -258.13589624 196.27005428 -253.53833008 181.54931641 C-253.29695313 180.76540527 -253.05557617 179.98149414 -252.80688477 179.17382812 C-240.87755174 141.66770498 -214.73471634 111.32297718 -179.99926758 93.13525391 C-165.43545062 85.78266204 -149.80486575 80.4049064 -133.53833008 78.54931641 C-132.24862305 78.38496094 -132.24862305 78.38496094 -130.93286133 78.21728516 C-98.80273935 74.65781817 -68.52624202 81.82577037 -40.53833008 97.54931641 C-40.86833008 90.28931641 -41.19833008 83.02931641 -41.53833008 75.54931641 C-84.38758646 56.68285277 -129.96758007 52.91330392 -174.3815918 69.68115234 C-180.65265188 72.20547764 -186.60053586 75.33390994 -192.53833008 78.54931641 C-193.14128906 78.86626465 -193.74424805 79.18321289 -194.36547852 79.50976562 C-230.84291345 98.70370234 -257.48640608 133.099956 -270.02783203 171.99291992 C-272.42307685 179.76174499 -274.35655728 187.5015413 -275.53833008 195.54931641 C-275.71879883 196.68240234 -275.89926758 197.81548828 -276.08520508 198.98291016 C-280.14910143 232.84198703 -273.9985075 266.72097464 -257.53833008 296.54931641 C-256.67401367 298.14839844 -256.67401367 298.14839844 -255.79223633 299.77978516 C-249.43604287 311.12698503 -241.47016173 321.13109788 -232.53833008 330.54931641 C-231.6952832 331.44521484 -230.85223633 332.34111328 -229.98364258 333.26416016 C-219.17101139 344.43721239 -207.10340691 353.01965107 -193.53833008 360.54931641 C-192.91619629 360.89736328 -192.2940625 361.24541016 -191.65307617 361.60400391 C-154.82169253 381.91423567 -109.96116017 386.08149997 -69.66333008 374.73681641 C-43.16564094 366.87638571 -21.0821017 353.86184395 -0.53833008 335.54931641 C0.23897461 334.85708984 1.0162793 334.16486328 1.81713867 333.45166016 C27.8355131 308.85505482 44.76709434 271.96246267 47.94213867 236.47119141 C48.05960449 235.18148437 48.05960449 235.18148437 48.17944336 233.86572266 C48.32267706 232.19275307 48.44791735 230.51811559 48.55249023 228.84228516 C48.85022875 225.15718643 49.07250835 223.08744735 51.27807617 220.03759766 C54.23788061 218.0202712 56.06050906 217.90055091 59.55541992 218.11572266 C61.46166992 218.54931641 61.46166992 218.54931641 63.96166992 220.42431641 C71.54277196 236.21827899 60.65283214 265.23356548 55.46166992 280.54931641 C49.49686835 296.77790349 40.91610232 312.77162073 30.46166992 326.54931641 C32.07860076 330.63060569 35.00446683 333.35534312 38.08666992 336.36181641 C38.62936523 336.89806641 39.17206055 337.43431641 39.73120117 337.98681641 C43.15794982 341.34844869 46.65835453 344.57052403 50.37182617 347.61572266 C52.11839739 349.23170911 53.52660956 350.80297015 55.02026367 352.63916016 C59.82528138 358.67727229 59.82528138 358.67727229 66.51831055 361.99023438 C69.47913031 362.15022486 72.29790284 362.04319287 75.23486328 361.63305664 C81.84317018 360.83464794 85.3300145 363.61654141 90.46166992 367.54931641 C93.24369334 369.97594481 95.83893109 372.55453799 98.42480469 375.18774414 C99.16429352 375.92840118 99.90378235 376.66905823 100.66567993 377.43215942 C103.08521249 379.85882345 105.49404425 382.29582553 107.90307617 384.73291016 C109.59667301 386.43465517 111.29101644 388.13565747 112.98606873 389.83595276 C117.43310226 394.30004571 121.87148311 398.77263733 126.30761719 403.24755859 C133.40803466 410.4073217 140.5212272 417.55438682 147.63508415 424.70079231 C150.10827871 427.18786138 152.57756718 429.67875592 155.04627991 432.17027283 C156.57340897 433.70743356 158.10062123 435.24451165 159.62792969 436.78149414 C160.30503494 437.46690781 160.9821402 438.15232147 161.67976379 438.85850525 C165.57587597 442.7724778 169.5846293 446.48124951 173.78604031 450.06646824 C178.56219621 454.29312666 181.61140473 459.28072168 182.52416992 465.61181641 C182.83534068 473.66491568 179.82372915 478.39656352 174.6105957 484.23046875 C170.47760216 488.69027023 166.19670967 492.99875235 161.89916992 497.29931641 C160.51955078 498.69730469 160.51955078 498.69730469 159.11206055 500.12353516 C158.21551758 501.02201172 157.31897461 501.92048828 156.39526367 502.84619141 C155.59145264 503.65411133 154.7876416 504.46203125 153.95947266 505.29443359 C148.38078416 510.33057541 143.82484015 512.69472466 136.33666992 512.98681641 C135.2615918 513.04740234 134.18651367 513.10798828 133.07885742 513.17041016 C124.86602858 511.760216 118.61133682 505.13487999 112.95751953 499.36987305 C112.26679855 498.67798386 111.57607758 497.98609467 110.86442566 497.27323914 C108.6072122 495.00890107 106.36071379 492.73423816 104.11401367 490.45947266 C102.53251891 488.86982826 100.95027644 487.28092745 99.36732483 485.69273376 C95.21620326 481.52456094 91.07374125 477.34789383 86.93353271 473.16888428 C80.30688799 466.48287217 73.66745378 459.809567 67.02734566 453.13693047 C64.72033727 450.81605959 62.41724486 448.49135959 60.11473083 446.16603088 C58.68871721 444.72998457 57.26261987 443.29402138 55.83642578 441.8581543 C55.20607422 441.21949432 54.57572266 440.58083435 53.92626953 439.92282104 C50.19082114 436.16905567 46.33639558 432.61578546 42.3186121 429.16541195 C36.0515498 423.7111918 31.14271334 418.59244666 28.46166992 410.54931641 C28.22090801 403.20607796 28.22090801 403.20607796 29.42871094 399.91137695 C29.46715441 395.98985842 28.99469019 395.54249897 26.45410156 392.74707031 C25.02784982 391.32192624 23.58231936 389.91591104 22.12182617 388.52587891 C20.98770546 387.40661514 20.98770546 387.40661514 19.83067322 386.26473999 C17.41109163 383.88435473 14.96832355 381.52943901 12.52416992 379.17431641 C10.88000576 377.56525837 9.23740666 375.95459945 7.59643555 374.34228516 C3.56949248 370.39253729 -0.47676302 366.46343415 -4.53833008 362.54931641 C-7.22181635 363.87471749 -9.77421281 365.26900841 -12.30395508 366.86962891 C-55.08131094 393.66920467 -104.00919238 404.70541254 -153.88012695 393.56787109 C-164.77770907 391.01689039 -175.26781734 388.00154537 -185.53833008 383.54931641 C-186.21234863 383.26362793 -186.88636719 382.97793945 -187.58081055 382.68359375 C-199.00547828 377.78957386 -209.37911738 371.6931803 -219.53833008 364.54931641 C-220.13178223 364.13375488 -220.72523438 363.71819336 -221.33666992 363.29003906 C-259.62282611 336.00201495 -283.49541755 294.5544254 -292.16870117 248.8684082 C-293.15899847 242.65517565 -293.70238635 236.62524213 -293.74145508 230.34228516 C-293.74851471 229.5835762 -293.75557434 228.82486725 -293.7628479 228.04316711 C-293.99070977 196.36814079 -293.99070977 196.36814079 -290.53833008 182.54931641 C-290.24031494 181.32365967 -290.24031494 181.32365967 -289.9362793 180.07324219 C-283.58602418 154.61038403 -273.21004827 130.97287643 -256.53833008 110.54931641 C-256.11052246 110.02144531 -255.68271484 109.49357422 -255.24194336 108.94970703 C-225.50056005 72.40753928 -184.17769636 49.33223758 -137.4453125 42.94628906 C-130.02775892 42.19262149 -122.61354062 42.15593916 -115.16333008 42.17431641 C-113.91425873 42.17513214 -113.91425873 42.17513214 -112.63995361 42.17596436 C-87.65985312 42.25069243 -64.63333724 47.02859151 -41.53833008 56.54931641 C-41.51851074 55.8193042 -41.49869141 55.08929199 -41.47827148 54.3371582 C-41.38192443 50.97006806 -41.27269742 47.60350781 -41.16333008 44.23681641 C-41.13239258 43.08890625 -41.10145508 41.94099609 -41.06958008 40.75830078 C-40.6743511 29.13198182 -40.06514358 17.84111803 -31.97192383 8.79931641 C-22.51757475 0.02497852 -12.22365675 -0.03965424 0 0 Z M-20.97583008 20.79931641 C-24.27232884 26.60115422 -24.83036917 32.37771256 -24.78556824 38.93244934 C-24.78798265 39.7496461 -24.79039707 40.56684286 -24.79288465 41.40880316 C-24.79849664 44.13256273 -24.78987765 46.85608515 -24.78125 49.57983398 C-24.78232346 51.53818831 -24.7842631 53.49654232 -24.78700256 55.45489502 C-24.79184217 60.76232826 -24.78420737 66.06967718 -24.77404952 71.37710023 C-24.76525958 76.92951501 -24.76702661 82.48192722 -24.76741028 88.03434753 C-24.76647439 97.35274668 -24.75779855 106.67111322 -24.74414062 115.98950195 C-24.72839288 126.7738034 -24.72314335 137.55806919 -24.72387618 148.3423813 C-24.72448566 158.71089665 -24.71938901 169.07940036 -24.71108437 179.44791222 C-24.70754758 183.86455056 -24.70572056 188.28118479 -24.70519066 192.69782448 C-24.70418901 197.89098549 -24.698107 203.08411637 -24.68802452 208.27726746 C-24.68509464 210.18731184 -24.68387513 212.09735969 -24.68445206 214.00740623 C-24.68493998 216.60533715 -24.6793146 219.20318263 -24.67204285 221.80110168 C-24.67359145 222.56479987 -24.67514005 223.32849806 -24.67673558 224.11533862 C-24.72843135 227.95937769 -24.72843135 227.95937769 -23.53833008 231.54931641 C-18.99545296 230.01008275 -16.78767245 226.27160636 -14.10083008 222.54931641 C-13.58367432 221.84597168 -13.06651855 221.14262695 -12.53369141 220.41796875 C-10.85944427 218.1349273 -9.19813112 215.84287702 -7.53833008 213.54931641 C-6.3952167 211.97891962 -5.25198742 210.40860719 -4.10864258 208.83837891 C3.60913323 198.21702744 3.60913323 198.21702744 10.89916992 187.29931641 C13.50606337 184.37959575 16.47211481 183.63638693 20.30905056 183.29877663 C21.88330602 183.2982734 21.88330602 183.2982734 23.48936462 183.29776001 C24.69920517 183.29237717 25.90904572 183.28699432 27.1555481 183.28144836 C29.13420364 183.28763435 29.13420364 183.28763435 31.15283203 183.29394531 C32.56253766 183.29119391 33.97224174 183.2875131 35.38194275 183.28297424 C38.41303033 183.27487401 41.44404419 183.2726908 44.47514153 183.27492142 C49.27015568 183.27775816 54.06502294 183.26338936 58.86000061 183.24594116 C72.49339602 183.19894782 86.12678108 183.17497224 99.76025391 183.16845703 C107.29349697 183.1647051 114.82657343 183.1466666 122.35974509 183.11336267 C127.12422508 183.0931601 131.88827508 183.09077242 136.65278041 183.10164285 C139.61951938 183.10425275 142.5860087 183.09023278 145.55268288 183.07156181 C147.57920209 183.06371625 149.6057678 183.07566721 151.63226318 183.08824158 C160.40652941 183.12137626 160.40652941 183.12137626 167.46166992 178.54931641 C170.21973115 174.7103234 170.83876627 172.0694876 170.84934998 167.36976624 C170.85925461 166.12626907 170.86915924 164.88277191 170.87936401 163.60159302 C170.87512627 162.23138329 170.87056844 160.86117451 170.86572266 159.4909668 C170.87142755 158.04184951 170.87839228 156.59273671 170.88652039 155.14363098 C170.90445405 151.21383259 170.90328305 147.28425746 170.897578 143.35443044 C170.89448638 140.07161015 170.90057831 136.78883276 170.90661675 133.50601858 C170.92066109 125.76040508 170.91910151 118.01490189 170.90771484 110.26928711 C170.89623388 102.28314003 170.91030897 94.29732878 170.93711132 86.31122595 C170.95927507 79.44991762 170.96590418 72.58871465 170.96003491 65.72737306 C170.95666569 61.63145591 170.95907786 57.53575402 170.97628593 53.43986702 C170.99176387 49.58770886 170.98779059 45.7360478 170.96898079 41.88390923 C170.96529718 40.47221343 170.96839683 39.06048074 170.97886658 37.64881897 C171.27924292 27.72399264 171.27924292 27.72399264 166.46166992 19.54931641 C161.17344109 15.61704369 156.05113871 15.42471562 149.61895752 15.40887451 C148.9431658 15.40590339 148.26737407 15.40293227 147.57110381 15.39987111 C145.31358453 15.39122089 143.05611851 15.38967899 140.79858398 15.38818359 C139.17700081 15.38355281 137.55541872 15.3785278 135.93383789 15.37313843 C131.53284399 15.36003741 127.13186533 15.35357395 122.73085499 15.34912777 C119.97907368 15.3461933 117.2272965 15.34208779 114.47551727 15.3376236 C105.85939118 15.32395465 97.24327456 15.31428507 88.62713838 15.31042171 C78.69302955 15.30594245 68.75905843 15.28839816 58.82499146 15.25942111 C51.13818655 15.23778021 43.4514203 15.22771614 35.76458526 15.22638059 C31.17731537 15.22533428 26.59017503 15.21946355 22.00293732 15.20156097 C17.68549349 15.18503863 13.36827601 15.18294492 9.05081177 15.19169998 C7.47105044 15.19246813 5.89127673 15.18815703 4.31154633 15.17824173 C-9.29133483 14.76441601 -9.29133483 14.76441601 -20.97583008 20.79931641 Z M-140.53833008 218.54931641 C-142.28803229 221.1193397 -143.50310169 223.62419434 -144.53833008 226.54931641 C-144.95083008 227.70431641 -145.36333008 228.85931641 -145.78833008 230.04931641 C-147.58038209 238.4122258 -146.60715135 246.30442186 -142.24926758 253.75244141 C-136.66386267 261.57798197 -130.00292253 267.20294112 -120.53833008 269.54931641 C-110.96902724 270.70139463 -103.003378 269.42294238 -95.09692383 263.81884766 C-88.95304806 258.74787277 -84.00831871 252.554205 -82.53833008 244.54931641 C-81.69839516 233.61639306 -82.73349327 225.04856762 -89.60083008 216.29931641 C-96.14996022 209.32583658 -104.67075791 205.53841987 -114.16333008 205.23681641 C-125.22857917 205.43382381 -133.3050008 210.38656493 -140.53833008 218.54931641 Z M-178.53833008 227.54931641 C-181.32063284 230.45829311 -183.97013264 233.45026251 -186.53833008 236.54931641 C-183.15646999 246.82285895 -172.61950595 253.56574428 -163.53833008 258.54931641 C-161.22328036 259.67468779 -158.94867779 260.6387406 -156.53833008 261.54931641 C-156.73168945 261.01564453 -156.92504883 260.48197266 -157.12426758 259.93212891 C-162.88262645 243.45524066 -162.22511689 230.06572331 -156.53833008 213.54931641 C-163.76033951 213.54931641 -173.50443772 222.94666359 -178.53833008 227.54931641 Z M-71.53833008 214.54931641 C-71.33336914 215.14099609 -71.1284082 215.73267578 -70.91723633 216.34228516 C-70.64782227 217.13248047 -70.3784082 217.92267578 -70.10083008 218.73681641 C-69.70057617 219.90277344 -69.70057617 219.90277344 -69.29223633 221.09228516 C-65.58889167 233.16173483 -66.09675069 247.18537553 -71.53833008 258.54931641 C-71.86833008 259.53931641 -72.19833008 260.52931641 -72.53833008 261.54931641 C-60.40944713 257.86638553 -48.7956924 248.93402894 -41.53833008 238.54931641 C-46.10413156 228.74690848 -54.70695448 223.21704733 -63.53833008 217.54931641 C-64.43293945 216.96794922 -65.32754883 216.38658203 -66.24926758 215.78759766 C-68.54435242 214.31141663 -68.54435242 214.31141663 -71.53833008 214.54931641 Z M15.07885742 342.73681641 C13.72147461 344.12900391 13.72147461 344.12900391 12.33666992 345.54931641 C11.4265918 346.47744141 10.51651367 347.40556641 9.57885742 348.36181641 C8.88018555 349.08369141 8.18151367 349.80556641 7.46166992 350.54931641 C11.42539517 355.30017508 15.55961774 359.78544753 19.95385742 364.13916016 C20.54466095 364.72854874 21.13546448 365.31793732 21.74417114 365.92518616 C23.60597396 367.78145368 25.47124737 369.63418725 27.33666992 371.48681641 C28.61034003 372.75546313 29.88377964 374.02434131 31.15698242 375.29345703 C34.25589036 378.38142195 37.35791293 381.46622569 40.46166992 384.54931641 C43.87226395 382.94396354 46.07959477 381.1441274 48.71166992 378.42431641 C49.41807617 377.69986328 50.12448242 376.97541016 50.85229492 376.22900391 C51.38338867 375.67470703 51.91448242 375.12041016 52.46166992 374.54931641 C49.69802398 368.25434509 44.05206128 363.8617001 38.89916992 359.48681641 C33.81924073 355.15004319 29.21193091 350.31823509 24.56494141 345.52758789 C23.93531494 344.88635986 23.30568848 344.24513184 22.65698242 343.58447266 C22.08995605 343.00060791 21.52292969 342.41674316 20.9387207 341.81518555 C18.2856361 339.54142627 17.57973917 340.44092496 15.07885742 342.73681641 Z M65.12573242 382.99853516 C64.56091156 383.56756058 63.9960907 384.136586 63.41415405 384.72285461 C62.22664821 385.92679215 61.0487822 387.14030473 59.88012695 388.36254883 C58.09095934 390.23233371 56.274052 392.07108006 54.44995117 393.90673828 C53.29847488 395.08147076 52.1486758 396.25785009 51.00073242 397.43603516 C50.45913483 397.98724533 49.91753723 398.53845551 49.35952759 399.10636902 C46.75925973 401.8403137 45.03183077 403.79243913 44.46166992 407.54931641 C46.73335014 411.62693488 50.68443215 414.80482351 54.20420837 417.79882812 C58.38568597 421.42968838 62.27685098 425.28344953 66.14355469 429.24462891 C67.6367771 430.76414639 69.13007154 432.2835931 70.62342834 433.80297852 C71.79153895 434.99429886 71.79153895 434.99429886 72.98324776 436.20968628 C77.13866865 440.44204237 81.31233531 444.65636226 85.4831543 448.87353516 C90.77636942 454.22686227 96.0637319 459.58556631 101.32958984 464.96582031 C105.60087488 469.32893144 109.89129396 473.67237185 114.19538689 478.00311279 C115.82965759 479.65468204 117.45672662 481.31340972 119.07638741 482.97930908 C121.33586346 485.30137876 123.61891932 487.5975057 125.90917969 489.88916016 C126.57274979 490.58306351 127.23631989 491.27696686 127.91999817 491.99189758 C131.84060314 495.8865325 131.84060314 495.8865325 137.24159241 496.61213684 C141.27256184 495.281673 143.70491536 493.1195318 146.57885742 490.12353516 C147.39279465 489.30753593 147.39279465 489.30753593 148.22317505 488.47505188 C149.3612789 487.32792426 150.4921226 486.17355254 151.6159668 485.01245117 C153.33659644 483.23689223 155.08020117 481.4866894 156.82885742 479.73876953 C157.93445221 478.61843228 159.03866836 477.49673248 160.14135742 476.37353516 C160.66108124 475.85047287 161.18080505 475.32741058 161.71627808 474.78849792 C165.20960735 471.2071886 165.20960735 471.2071886 166.46166992 466.54931641 C165.23959484 464.56674828 165.23959484 464.56674828 163.28820801 462.73420715 C162.55925323 461.9897081 161.83029846 461.24520905 161.07925415 460.47814941 C160.2637912 459.67123657 159.44832825 458.86432373 158.6081543 458.03295898 C157.76123016 457.17566696 156.91430603 456.31837494 156.04171753 455.43510437 C153.71176823 453.0826473 151.37102551 450.74208547 149.02382469 448.40691209 C147.06583758 446.45604585 145.11570152 444.49742749 143.16555071 442.53873271 C138.56291507 437.91611995 133.94761086 433.30643469 129.32397461 428.70483398 C124.55683984 423.96003388 119.80997649 419.19564205 115.07296896 414.42077905 C111.00486265 410.32141124 106.9251702 406.23383967 102.83585978 402.15562361 C100.39390057 399.72014712 97.95636653 397.28063714 95.52958679 394.83002663 C92.8201103 392.09530716 90.08659362 389.38543181 87.3503418 386.67749023 C86.55107269 385.8645047 85.75180359 385.05151917 84.92831421 384.21389771 C80.42442967 379.66944895 80.42442967 379.66944895 74.60397339 377.40319824 C70.11609806 377.61188595 68.05775343 379.88997271 65.12573242 382.99853516 Z " fill="#00ff00" transform="translate(309.538330078125,-0.54931640625)"/>
<path d="M0 0 C8.9899488 7.6209927 13.25835701 16.66091112 14.5625 28.25 C15.26311978 40.01146824 11.59993713 49.79317365 4.3125 59 C-0.78583881 64.48901612 -7.36342529 67.59112168 -14.25 70.3125 C-15.24 70.3125 -16.23 70.3125 -17.25 70.3125 C-17.16298828 72.06626953 -17.16298828 72.06626953 -17.07421875 73.85546875 C-17.02730551 75.4036058 -16.98180702 76.95178617 -16.9375 78.5 C-16.8746582 79.65338867 -16.8746582 79.65338867 -16.81054688 80.83007812 C-16.71851264 85.11887364 -16.85849971 86.79848942 -19.546875 90.328125 C-22.25 92.3125 -22.25 92.3125 -25.8125 92.875 C-29.85720203 92.21313967 -30.79408877 91.51898407 -33.25 88.3125 C-33.97414473 84.16846992 -33.86679319 80.04262512 -33.82641602 75.84033203 C-33.81253545 73.81766607 -33.84664196 71.79961989 -33.88476562 69.77734375 C-33.88283203 68.49988281 -33.88089844 67.22242187 -33.87890625 65.90625 C-33.87963135 64.73771484 -33.88035645 63.56917969 -33.88110352 62.36523438 C-33.25 59.3125 -33.25 59.3125 -30.87182617 56.93896484 C-28.05537865 55.19176554 -26.26913331 54.75294269 -23 54.4375 C-15.65066428 53.30683297 -10.59568952 50.07921072 -5.8125 44.4375 C-2.52243113 37.85736225 -1.24056229 31.53391679 -3.25 24.3125 C-4.42692566 22.05543533 -5.71421447 20.01282249 -7.19140625 17.94140625 C-8.25 16.3125 -8.25 16.3125 -8.25 14.3125 C-8.78625 14.044375 -9.3225 13.77625 -9.875 13.5 C-12.25 12.3125 -12.25 12.3125 -14.875 10.75 C-21.67963286 7.85173045 -28.23537232 7.51408728 -35.1484375 10.25 C-42.93680687 14.18761426 -45.48426594 19.27621614 -48.25 27.3125 C-50.60074627 32.79757463 -50.60074627 32.79757463 -53.0625 34.75 C-56.19685427 35.55597681 -58.16164227 35.27761179 -61.25 34.3125 C-63.6875 32.3125 -63.6875 32.3125 -65.25 29.3125 C-65.96454103 20.31973969 -61.30467949 11.96137336 -55.86328125 5.15625 C-41.43935144 -11.32824121 -17.29587318 -12.92042907 0 0 Z " fill="#00ff00" transform="translate(408.25,41.6875)"/>
<path d="M0 0 C0.85706543 0.19682373 1.71413086 0.39364746 2.59716797 0.59643555 C15.93304308 3.89956462 15.93304308 3.89956462 19.75 9.625 C20.35546838 13.60379218 20.04845414 15.17250501 17.8125 18.5625 C14.33961307 20.90138304 12.53573264 20.98520132 8.4609375 20.28125 C4.02872253 19.20832188 -0.33140069 17.90400581 -4.703125 16.609375 C-29.90818402 9.61413836 -63.38705746 9.83634554 -88 19.73046875 C-91.21541942 21.00882126 -93.82692548 20.93618859 -97.25 20.625 C-99.625 19.5625 -99.625 19.5625 -101.25 17.625 C-102.0922379 14.31620825 -102.65253696 11.84880489 -101.5703125 8.55859375 C-96.78827604 1.5553155 -83.05011543 0.05893929 -75.08984375 -1.52734375 C-50.2809171 -6.07976415 -24.56920736 -5.69868512 0 0 Z " fill="#00ff00" transform="translate(236.25,157.375)"/>
<path d="M0 0 C4.0743356 0.84881992 5.54405875 2.30225596 8 5.625 C8.625 8.625 8.625 8.625 8 11.625 C5.54405875 14.94774404 4.0743356 16.40118008 0 17.25 C-4.0743356 16.40118008 -5.54405875 14.94774404 -8 11.625 C-8.625 8.625 -8.625 8.625 -8 5.625 C-5.54405875 2.30225596 -4.0743356 0.84881992 0 0 Z " fill="#00ff00" transform="translate(383,143.375)"/>
</svg>