<svg version="1.1" xmlns="http://www.w3.org/2000/svg" width="512px" height="512px" transform="rotate(0) scale(1, 1)">
<path d="M0 0 C1.01086166 -0.00571014 2.02172333 -0.01142029 3.06321716 -0.01730347 C4.16621155 -0.01842133 5.26920593 -0.01953918 6.40562439 -0.02069092 C8.15491493 -0.02813828 8.15491493 -0.02813828 9.93954468 -0.03573608 C13.79925626 -0.0503484 17.6589268 -0.05715675 21.5186615 -0.06268311 C23.51970867 -0.06698067 25.52075585 -0.07127874 27.52180284 -0.07565761 C33.09385382 -0.08745949 38.66589485 -0.09500327 44.23795706 -0.09845281 C51.44580387 -0.10293978 58.65346163 -0.12052245 65.86125094 -0.1494534 C71.43416009 -0.17104687 77.00701593 -0.18115572 82.57996649 -0.18249393 C85.90841736 -0.18354304 89.23664931 -0.19091298 92.56506538 -0.20731354 C96.27378488 -0.22428961 99.98203851 -0.22251474 103.69078064 -0.21600342 C105.34830856 -0.22982559 105.34830856 -0.22982559 107.0393219 -0.243927 C108.04736374 -0.23835785 109.05540558 -0.2327887 110.09399414 -0.22705078 C110.97095475 -0.22851734 111.84791536 -0.2299839 112.75145054 -0.2314949 C115.49236563 0.22523547 116.35028445 0.92133214 117.98350525 3.14044189 C118.80693953 6.62420231 119.34242958 9.09127848 118.17100525 12.51544189 C116.98350525 14.14044189 116.98350525 14.14044189 114.98350525 15.14044189 C113.55353497 15.23982121 112.11908641 15.27817529 110.6856842 15.28520203 C109.783134 15.29210052 108.8805838 15.29899902 107.95068359 15.30610657 C106.95749619 15.30871994 105.96430878 15.31133331 104.94102478 15.31402588 C103.89686905 15.32071289 102.85271332 15.3273999 101.7769165 15.33428955 C99.5021139 15.34836776 97.22729694 15.36025292 94.95247269 15.37023735 C91.34483456 15.38663328 87.73730125 15.40987528 84.12971497 15.43513489 C73.86944306 15.50591704 63.6091262 15.56579532 53.34873962 15.61724854 C47.07642037 15.64918466 40.80421792 15.69050747 34.53199387 15.73744392 C32.14718115 15.75338937 29.76234149 15.76574504 27.377491 15.77435112 C24.02485179 15.78661493 20.6724826 15.8108138 17.31993103 15.83746338 C16.34698593 15.83805252 15.37404083 15.83864166 14.37161255 15.83924866 C0.74983395 15.98147918 -9.92045613 18.79400129 -21.32899475 26.32794189 C-34.25895068 39.85929113 -34.47328088 54.69227739 -34.5282135 72.33966064 C-34.54508223 74.38661257 -34.56323538 76.43355428 -34.58261108 78.48048401 C-34.62987901 83.83477585 -34.65983803 89.18902624 -34.68605042 94.54345703 C-34.71597366 100.02053002 -34.76246328 105.49746049 -34.80751038 110.97442627 C-34.89327914 121.69635657 -34.96074133 132.41831641 -35.01649475 143.14044189 C-34.39556946 143.44047119 -33.77464417 143.74050049 -33.13490295 144.04962158 C-24.08031224 148.7120523 -19.80825411 158.21606914 -16.01649475 167.14044189 C-15.20120276 169.89026517 -14.89241197 172.32652085 -14.89624023 175.19006348 C-14.89417824 176.38470718 -14.89417824 176.38470718 -14.89207458 177.60348511 C-14.89566986 178.46807343 -14.89926514 179.33266174 -14.90296936 180.22344971 C-14.90282333 181.14086945 -14.90267731 182.05828918 -14.90252686 183.00350952 C-14.90322309 186.03355276 -14.911002 189.0635344 -14.9188385 192.09356689 C-14.92070371 194.19535285 -14.92212713 196.29713924 -14.92312622 198.39892578 C-14.92694331 203.92927248 -14.93676674 209.45959289 -14.9478302 214.9899292 C-14.95806166 220.63384648 -14.96262756 226.27776801 -14.96766663 231.92169189 C-14.9783897 242.99462011 -14.99545646 254.06752881 -15.01649475 265.14044189 C-13.60047761 265.62152464 -12.18365038 266.1002233 -10.76649475 266.57794189 C-9.9775885 266.84477783 -9.18868225 267.11161377 -8.37586975 267.38653564 C-4.729545 268.55166922 -1.57300223 269.26511799 2.26522827 269.2784729 C3.5373819 269.28665291 3.5373819 269.28665291 4.8352356 269.29499817 C6.21851799 269.29656166 6.21851799 269.29656166 7.62974548 269.29815674 C8.60740875 269.30323746 9.58507202 269.30831818 10.59236145 269.31355286 C12.714361 269.32424845 14.83637177 269.33287181 16.95838737 269.33967209 C20.31643439 269.35146486 23.67435302 269.37091779 27.03234863 269.39279175 C36.57958211 269.45440267 46.12680158 269.50849305 55.67417908 269.54180908 C61.51440619 269.56273777 67.35439777 269.59802396 73.19449043 269.64256668 C75.42040805 269.65673809 77.64636733 269.66545168 79.8723278 269.66862106 C82.98442675 269.67352216 86.09589866 269.69665908 89.20787048 269.72393799 C90.12803452 269.72093185 91.04819855 269.71792572 91.99624634 269.71482849 C96.79005679 269.77732266 100.11646412 269.97200497 103.98350525 273.14044189 C105.43312708 276.03968556 105.20477006 278.66344544 105.2999115 281.89825439 C105.3206926 282.56130585 105.34147369 283.2243573 105.36288452 283.90750122 C105.42829756 286.02670884 105.4872263 288.14604089 105.54600525 290.26544189 C105.58919834 291.70165271 105.63281289 293.13785091 105.67686462 294.57403564 C105.78397024 298.09603783 105.885261 301.61818014 105.98350525 305.14044189 C106.84709656 304.47609131 107.71068787 303.81174072 108.60044861 303.1272583 C110.27033074 301.84281529 111.94029729 300.55848189 113.61070251 299.27471924 C116.43621815 297.1030048 119.25822437 294.92719595 122.073349 292.74200439 C128.70940325 287.60055696 135.41777928 282.56466679 142.17100525 277.57794189 C143.42904968 276.6473999 143.42904968 276.6473999 144.71250916 275.69805908 C145.49674255 275.12088135 146.28097595 274.54370361 147.088974 273.94903564 C147.79175476 273.43139648 148.49453552 272.91375732 149.21861267 272.38043213 C152.88548827 269.80413373 156.03937593 270.00605469 160.3780365 269.99981689 C161.90734788 269.98145625 163.43664508 269.96188304 164.96592712 269.94122314 C167.36387 269.91253438 169.76091807 269.89044914 172.15904236 269.88995361 C186.36714966 269.8691837 198.22529916 268.00229609 208.82725525 257.58966064 C219.5730468 245.38384306 220.4319401 231.93793111 220.37168884 216.37506104 C220.37576079 214.59982481 220.38110615 212.82459113 220.38761902 211.04936218 C220.40122532 206.25590835 220.39602147 201.46264953 220.38648176 196.66919255 C220.37884917 191.63530685 220.38594084 186.60143707 220.39064026 181.56755066 C220.39608787 173.11533635 220.38893288 164.66320086 220.37461853 156.21099854 C220.35829925 146.46285654 220.36357933 136.71490289 220.38009775 126.96676546 C220.39374733 118.57320333 220.39561518 110.17969764 220.38778174 101.78612798 C220.38312359 96.78360151 220.38242882 91.78116332 220.3923912 86.77864265 C220.40110909 82.07286276 220.39495157 77.3673237 220.37770844 72.6615696 C220.37376898 70.94278105 220.37483362 69.22397195 220.38149643 67.5051918 C220.43503493 52.28093898 219.16355824 38.46145539 207.948349 27.07403564 C197.68428743 18.44924343 186.54955213 16.20724465 173.557724 15.99981689 C172.43172791 15.98048096 171.30573181 15.96114502 170.14561462 15.94122314 C167.80985544 15.90708614 165.47380932 15.88911829 163.13780212 15.88653564 C154.65925778 15.70105223 154.65925778 15.70105223 151.18663025 12.82012939 C149.54172617 9.1564794 149.91970359 6.97012787 150.98350525 3.14044189 C152.05088806 1.45880127 152.05088806 1.45880127 153.98350525 0.14044189 C156.68098267 -0.18328551 159.14253302 -0.3275798 161.84288025 -0.32830811 C162.62431396 -0.33592163 163.40574768 -0.34353516 164.21086121 -0.35137939 C165.8718599 -0.36219324 167.53292666 -0.36502827 169.19395447 -0.36053467 C171.68363211 -0.35957728 174.17006634 -0.40085926 176.6592865 -0.44549561 C194.38796795 -0.58064217 207.93756067 4.2746984 221.323349 16.23028564 C235.409214 30.74872999 237.44514017 49.20125948 237.37168884 68.37652588 C237.37576263 70.17836829 237.38110901 71.9802082 237.38761902 73.78204346 C237.40120348 78.63956 237.39603063 83.49688369 237.38648176 88.35440326 C237.37883772 93.46074581 237.38594397 98.56707287 237.39064026 103.67341614 C237.39608456 112.24652034 237.3889416 120.81954679 237.37461853 129.39263916 C237.35829982 139.27370294 237.36358026 149.15458091 237.38009775 159.03564018 C237.39375672 167.55071639 237.39561063 176.06573699 237.38778174 184.58082062 C237.38312872 189.65268594 237.38241445 194.72446421 237.3923912 199.79632378 C237.4011229 204.56779709 237.39492689 209.33903329 237.37770844 214.11048126 C237.37377624 215.85100729 237.37482081 217.59155363 237.38149643 219.3320713 C237.44686161 238.12177633 234.70357293 256.03784445 220.98350525 270.14044189 C209.56516284 280.10286386 197.34254451 286.54025669 182.026474 286.02716064 C165.80932077 285.5189895 155.05013394 286.62508074 142.46788025 297.96075439 C141.72473572 298.6610376 140.98159119 299.3613208 140.21592712 300.08282471 C136.64481808 303.37430622 132.78368466 306.26535974 128.92100525 309.20294189 C127.45236458 310.34072688 125.98491831 311.48005524 124.5186615 312.62091064 C123.78405701 313.18987061 123.04945251 313.75883057 122.29258728 314.34503174 C120.68503353 315.59497362 119.08218134 316.8509759 117.48301697 318.1116333 C114.95557514 320.09847673 112.40939546 322.05883706 109.85850525 324.01544189 C109.08885437 324.62911621 108.31920349 325.24279053 107.52622986 325.87506104 C104.00663009 328.54077296 101.16774977 330.53096317 96.67881775 330.83575439 C92.98350525 330.14044189 92.98350525 330.14044189 90.77696228 328.16070557 C88.32925453 324.03865376 88.47550445 320.82427352 88.59288025 316.12091064 C88.59854004 315.26233963 88.60419983 314.40376862 88.61003113 313.5191803 C88.63234738 310.7881903 88.68253358 308.0585325 88.73350525 305.32794189 C88.75357645 303.47184111 88.77182614 301.61571967 88.78819275 299.75958252 C88.83219644 295.21935894 88.90119003 290.68012596 88.98350525 286.14044189 C87.85756958 286.14710373 86.73163391 286.15376556 85.57157898 286.16062927 C74.92085923 286.22164725 64.2701753 286.26651345 53.61931992 286.29587841 C48.14461183 286.31148311 42.67004572 286.33262584 37.19541931 286.36676025 C31.90452442 286.39953977 26.61376545 286.41733391 21.32277679 286.42507362 C19.3119264 286.43058392 17.3010828 286.44134351 15.29029083 286.45763206 C12.45707566 286.47965397 9.62441044 286.48239859 6.79112244 286.48101807 C5.56543549 286.49719681 5.56543549 286.49719681 4.31498718 286.51370239 C-2.82412715 286.47646267 -7.61746426 284.99019952 -15.01649475 283.14044189 C-15.01649475 295.35044189 -15.01649475 307.56044189 -15.01649475 320.14044189 C-9.93501038 320.10563721 -4.853526 320.07083252 0.38194275 320.03497314 C3.61763146 320.01962908 6.85327476 320.00518615 10.088974 319.99395752 C15.21520911 319.97608344 20.34128215 319.95502923 25.46739197 319.91412354 C29.60415539 319.8813225 33.7407448 319.86354554 37.87762833 319.85581017 C39.44914612 319.85030363 41.02065532 319.83955153 42.59209824 319.82325172 C56.23809175 319.68744793 67.3629957 321.13431165 77.7374115 330.76934814 C83.57830584 337.07868514 87.03692315 345.13647518 87.17637634 353.737854 C87.20047073 355.09462502 87.20047073 355.09462502 87.22505188 356.47880554 C87.26969298 360.59281441 87.31052974 364.7066675 87.33360291 368.82086182 C87.35019161 370.99056706 87.37751962 373.16021701 87.41563416 375.32965088 C87.47036735 378.46348307 87.49226759 381.59604009 87.50694275 384.73028564 C87.52961212 385.69812485 87.55228149 386.66596405 87.57563782 387.66313171 C87.56103971 392.31226636 87.50897045 394.44326783 84.63829041 398.25201416 C81.98350525 400.14044189 81.98350525 400.14044189 78.98350525 400.76544189 C74.82467034 399.89901795 73.55889621 398.51386395 70.98350525 395.14044189 C70.28486789 391.85885631 70.35663788 388.65246641 70.417099 385.30841064 C70.40864708 383.88254387 70.40864708 383.88254387 70.40002441 382.4278717 C70.38358743 379.39405894 70.39909301 376.36170365 70.42100525 373.32794189 C70.43764781 370.30502483 70.44661422 367.28308004 70.43127441 364.26014709 C70.42206189 362.38244799 70.43093133 360.50454236 70.46090698 358.62705994 C70.43287544 351.86089311 69.0350913 346.23140325 64.167099 341.30059814 C63.59088806 340.93837158 63.01467712 340.57614502 62.42100525 340.20294189 C61.84221619 339.82266846 61.26342712 339.44239502 60.667099 339.05059814 C57.6086873 337.39721085 55.0584818 337.01221081 51.65240479 336.99327087 C50.76794174 336.98611557 49.8834787 336.97896027 48.97221375 336.97158813 C48.00438965 336.96889923 47.03656555 336.96621033 46.03941345 336.96343994 C45.01794724 336.95686874 43.99648102 336.95029755 42.94406128 336.94352722 C39.55746896 336.92378773 36.17092102 336.9121295 32.7842865 336.90216064 C31.62757132 336.89808512 30.47085613 336.89400959 29.27908897 336.88981056 C23.15557915 336.86894605 17.03209176 336.85464652 10.90855408 336.84527588 C4.58793408 336.8342168 -1.73233335 336.79982332 -8.05282879 336.76010418 C-12.91622567 336.73393932 -17.77953858 336.72558408 -22.64299965 336.7219944 C-24.97255138 336.71712736 -27.30209933 336.70551009 -29.63158226 336.68695641 C-32.89648101 336.66257094 -36.16046807 336.66352945 -39.4254303 336.67047119 C-40.38313324 336.65766113 -41.34083618 336.64485107 -42.32756042 336.63165283 C-49.17333985 336.68455495 -54.86208711 338.02621779 -59.8563385 342.95684814 C-60.21856506 343.53305908 -60.58079163 344.10927002 -60.95399475 344.70294189 C-61.33426819 345.28173096 -61.71454163 345.86052002 -62.1063385 346.45684814 C-63.75223798 349.50140898 -64.14462765 352.04269747 -64.16366577 355.43357849 C-64.17082108 356.30962738 -64.17797638 357.18567627 -64.18534851 358.08827209 C-64.18803741 359.04674545 -64.19072632 360.00521881 -64.1934967 360.99273682 C-64.2033535 362.51030579 -64.2033535 362.51030579 -64.21340942 364.05853271 C-64.23314826 367.41265943 -64.24480702 370.76674133 -64.254776 374.12091064 C-64.25885153 375.26659327 -64.26292706 376.41227589 -64.26712608 377.59267616 C-64.28799036 383.65783127 -64.30228996 389.72296373 -64.31166077 395.78814697 C-64.32271956 402.04823436 -64.35711275 408.30796574 -64.39683247 414.56792736 C-64.4229986 419.38500116 -64.43135268 424.20199018 -64.43494225 429.0191288 C-64.43980899 431.32635207 -64.45142541 433.63357153 -64.46998024 435.94072533 C-64.49436838 439.17449373 -64.49340672 442.4073418 -64.48646545 445.64117432 C-64.49927551 446.58952652 -64.51208557 447.53787872 -64.52528381 448.51496887 C-64.47610725 454.81905489 -63.12798506 458.66344124 -60.01649475 464.14044189 C-60.01649475 464.80044189 -60.01649475 465.46044189 -60.01649475 466.14044189 C-51.07121538 470.7227712 -43.3994113 471.5520632 -33.3719635 471.47637939 C-31.40525947 471.48568754 -29.43855507 471.49502399 -27.47185993 471.50605202 C-22.65835202 471.52838621 -17.84489348 471.51840419 -13.03138733 471.50079346 C-10.31521397 471.49199143 -7.59963977 471.49639949 -4.8835144 471.51461792 C-2.3338249 471.53053415 0.21609408 471.52584312 2.76568604 471.4984436 C3.91755905 471.50840363 5.06943207 471.51836365 6.25621033 471.52862549 C7.2683107 471.52623871 8.28041107 471.52385193 9.32318115 471.52139282 C12.97258047 472.37059659 14.00528406 474.04500336 15.98350525 477.14044189 C16.59288025 479.81622314 16.59288025 479.81622314 16.73350525 482.45294189 C16.790224 483.33594971 16.84694275 484.21895752 16.90538025 485.12872314 C16.9311615 485.79259033 16.95694275 486.45645752 16.98350525 487.14044189 C17.68475525 486.56036377 18.38600525 485.98028564 19.10850525 485.38262939 C21.08500755 483.75523755 23.07267862 482.1413458 25.06944275 480.53887939 C27.88381484 478.29787138 27.88381484 478.29787138 29.89756775 476.24200439 C34.89718319 471.56199908 40.13694573 471.55693514 46.6839447 471.39801025 C52.22571778 471.2617121 56.90778059 470.49260698 61.98350525 468.14044189 C62.69635681 467.81430908 63.40920837 467.48817627 64.1436615 467.15216064 C66.56517718 465.82058408 66.9882834 464.6995838 67.98350525 462.14044189 C68.32252869 461.31286377 68.66155212 460.48528564 69.010849 459.63262939 C70.51021648 454.24935821 70.37775906 448.8696904 70.46202087 443.30841064 C70.66267172 436.76034148 70.66267172 436.76034148 72.307724 433.58184814 C75.04328971 431.22887903 77.45233384 431.20132416 80.98350525 431.14044189 C83.93106257 432.48606589 85.52627797 433.22598734 86.98350525 436.14044189 C87.25312695 439.63408556 87.21521351 443.13757417 87.23350525 446.64044189 C87.26444275 448.07516846 87.26444275 448.07516846 87.29600525 449.53887939 C87.36009024 461.36256105 84.11143402 470.40942903 75.98350525 479.14044189 C69.22506511 484.3576661 62.54213016 487.17943965 53.97032166 487.31451416 C41.79663924 487.72774438 34.86331708 493.5612876 25.99327087 501.37237549 C13.22399317 512.60598933 13.22399317 512.60598933 7.48350525 512.95294189 C3.41645581 512.00880542 2.34752917 511.54771985 -0.01649475 508.14044189 C-0.509236 504.71140381 -0.39230809 501.34546969 -0.26649475 497.89044189 C-0.24844788 496.95458252 -0.230401 496.01872314 -0.21180725 495.05450439 C-0.16475148 492.74877174 -0.09903188 490.44513245 -0.01649475 488.14044189 C-0.5808876 488.14488312 -1.14528046 488.14932434 -1.72677612 488.15390015 C-7.64876246 488.19845628 -13.57070048 488.22844107 -19.49281311 488.25030518 C-21.6972599 488.26030706 -23.90169361 488.27391288 -26.10609436 488.2913208 C-29.29110459 488.31582642 -32.47593805 488.32698344 -35.661026 488.33575439 C-36.63231949 488.34607697 -37.60361298 488.35639954 -38.6043396 488.36703491 C-51.70406781 488.36913977 -62.0145464 485.89412181 -72.01649475 477.14044189 C-73.9657135 474.62481689 -73.9657135 474.62481689 -75.70399475 471.89044189 C-76.28536194 470.99841064 -76.86672913 470.10637939 -77.4657135 469.18731689 C-80.78921423 462.65751697 -81.30858439 456.33680857 -81.24354553 449.15411377 C-81.24383759 448.29463135 -81.24412964 447.43514893 -81.24443054 446.54962158 C-81.24304795 443.73603883 -81.2275376 440.92272783 -81.21180725 438.10919189 C-81.20807331 436.14764551 -81.20522814 434.18609726 -81.20323181 432.22454834 C-81.19562537 427.08220191 -81.17600273 421.93996992 -81.15382385 416.79766846 C-81.13330083 411.54215035 -81.12421633 406.2866136 -81.114151 401.03106689 C-81.09275387 390.73414184 -81.05865425 380.43730142 -81.01649475 370.14044189 C-83.52795411 372.01665444 -86.03796239 373.8947993 -88.54774475 375.77325439 C-89.59816956 376.55793091 -89.59816956 376.55793091 -90.66981506 377.35845947 C-95.33376418 380.85103569 -99.94250715 384.40602682 -104.51649475 388.01544189 C-105.09210648 388.46663895 -105.6677182 388.917836 -106.26077271 389.38270569 C-108.67489914 391.27738134 -111.06963007 393.18511012 -113.4188385 395.15997314 C-116.66464503 397.82016391 -118.49944358 399.04404252 -122.70399475 399.82794189 C-126.98062939 398.94033848 -128.30241765 397.52526706 -131.01649475 394.14044189 C-131.5841217 390.81890869 -131.5841217 390.81890869 -131.504776 387.08966064 C-131.49770126 386.43085403 -131.49062653 385.77204742 -131.4833374 385.09327698 C-131.45550454 383.00364155 -131.39280294 380.91675713 -131.32899475 378.82794189 C-131.3038968 377.40545476 -131.28108623 375.98292531 -131.26063538 374.56036377 C-131.20571921 371.08617328 -131.1195316 367.61357639 -131.01649475 364.14044189 C-132.37047112 364.15043465 -132.37047112 364.15043465 -133.75180054 364.16062927 C-142.2984251 364.2209802 -150.84497709 364.26653752 -159.39176655 364.29587841 C-163.78475418 364.31147044 -168.17756431 364.33258915 -172.57044983 364.36676025 C-176.81744292 364.39958615 -181.06426631 364.41734339 -185.31137657 364.42507362 C-186.92393346 364.43057576 -188.53648208 364.44131897 -190.14896584 364.45763206 C-206.60597381 364.61735672 -219.42968011 362.06893968 -231.68836975 350.56231689 C-241.37270184 340.4880117 -245.15700356 328.6954935 -245.17762756 314.91949463 C-245.18259247 314.11710358 -245.18755737 313.31471252 -245.19267273 312.48800659 C-245.20720542 309.85000739 -245.21407928 307.21206819 -245.21961975 304.57403564 C-245.22537587 302.73370869 -245.23113354 300.89338175 -245.2368927 299.05305481 C-245.24737549 295.20237958 -245.25323682 291.35172507 -245.25672913 287.5010376 C-245.26222663 282.56916967 -245.2862928 277.63757603 -245.31470108 272.70579433 C-245.33332398 268.90795588 -245.33853274 265.1101838 -245.340065 261.31230354 C-245.34308978 259.49384108 -245.3511124 257.67537973 -245.36425018 255.8569622 C-245.38131331 253.31509277 -245.37943063 250.77389816 -245.37294006 248.23199463 C-245.38215485 247.48328598 -245.39136963 246.73457733 -245.40086365 245.96318054 C-245.36547737 241.53714406 -244.85683933 238.59996557 -242.01649475 235.14044189 C-237.99987794 233.95033321 -235.95106105 233.69347541 -232.14149475 235.51544189 C-230.01649475 237.14044189 -230.01649475 237.14044189 -229.01649475 238.14044189 C-228.90736524 240.6735471 -228.86226996 243.18038732 -228.85877991 245.7144165 C-228.85115883 246.90486069 -228.85115883 246.90486069 -228.84338379 248.11935425 C-228.83265318 249.85015178 -228.82404364 251.58096341 -228.81726456 253.31178093 C-228.80549338 256.05768474 -228.78604063 258.80342998 -228.7641449 261.54927063 C-228.70250154 269.35931041 -228.64865545 277.16933833 -228.61512756 284.97955322 C-228.59408223 289.75301718 -228.55868903 294.52619935 -228.51436996 299.29950142 C-228.50027473 301.11378198 -228.49150227 302.92811248 -228.48831558 304.74244499 C-228.45976564 319.45421564 -227.62742067 330.52951598 -216.76649475 341.39044189 C-207.24114278 347.45202951 -198.5288606 347.68732567 -187.55556297 347.59573174 C-184.79324075 347.57365626 -182.03200181 347.57762092 -179.2696228 347.58821106 C-172.41836887 347.60976489 -165.567365 347.59246317 -158.71614075 347.56671143 C-152.90545133 347.54531144 -147.09546182 347.54334152 -141.28478432 347.56962776 C-138.56727072 347.57397319 -135.85098108 347.54936859 -133.13360596 347.52409363 C-131.46785436 347.52936374 -129.80210651 347.53608576 -128.1363678 347.54449463 C-127.38459259 347.52958481 -126.63281738 347.51467499 -125.85826111 347.49931335 C-121.88995676 347.55326851 -120.18194589 348.00787643 -117.04447937 350.52172852 C-114.78802005 353.43546867 -114.41714644 354.601687 -114.5282135 358.22247314 C-114.54432678 359.1538208 -114.56044006 360.08516846 -114.57704163 361.04473877 C-114.61893616 362.0044458 -114.66083069 362.96415283 -114.70399475 363.95294189 C-114.72655334 364.93198486 -114.74911194 365.91102783 -114.77235413 366.91973877 C-114.83109748 369.32821644 -114.91317346 371.73353267 -115.01649475 374.14044189 C-108.73330477 369.4535218 -102.47382735 364.73989074 -96.26649475 359.95294189 C-95.18188133 359.11827789 -94.0972465 358.28364171 -93.0125885 357.44903564 C-91.16862874 356.02820094 -89.32696284 354.60437613 -87.489151 353.17559814 C-86.77629944 352.62774658 -86.06344788 352.07989502 -85.32899475 351.51544189 C-84.72700256 351.04880127 -84.12501038 350.58216064 -83.504776 350.10137939 C-82.01649475 349.14044189 -82.01649475 349.14044189 -80.01649475 349.14044189 C-79.97524475 348.19169189 -79.93399475 347.24294189 -79.89149475 346.26544189 C-78.7086332 338.26087195 -73.28649688 331.58149727 -67.16493225 326.60919189 C-60.72048218 322.20353149 -53.95865632 319.99242795 -46.1532135 320.04278564 C-45.26698303 320.0460083 -44.38075256 320.04923096 -43.46766663 320.05255127 C-42.55565491 320.06093018 -41.64364319 320.06930908 -40.70399475 320.07794189 C-39.77264709 320.08245361 -38.84129944 320.08696533 -37.88172913 320.09161377 C-35.59325102 320.10334955 -33.30490667 320.11976826 -31.01649475 320.14044189 C-31.05370467 301.25972141 -31.11362898 282.37920226 -31.20039749 263.49864292 C-31.24016181 254.73153449 -31.27256752 245.96451548 -31.28749084 237.19732666 C-31.30052091 229.55346507 -31.32752005 221.90980045 -31.37110782 214.2660498 C-31.39369231 210.22084757 -31.40940725 206.17588801 -31.4083786 202.13061714 C-31.40763019 198.31786051 -31.42565268 194.50563969 -31.45766258 190.69302177 C-31.46613484 189.29873984 -31.46792975 187.90439762 -31.46229744 186.51010132 C-31.42271819 175.19980664 -33.28072704 167.22038597 -41.1063385 158.86309814 C-50.24485072 150.6216178 -62.94232486 150.84336794 -74.55335999 150.88165283 C-75.88672577 150.87893663 -77.22009005 150.87537218 -78.55345154 150.87103271 C-82.14649659 150.86198035 -85.7394257 150.8654234 -89.33247256 150.87179089 C-93.11094372 150.87688926 -96.88940561 150.87214875 -100.6678772 150.86901855 C-107.01172143 150.86538958 -113.35551895 150.87014941 -119.69935608 150.87969971 C-127.00888709 150.8905775 -134.31830644 150.88705928 -141.62783474 150.8760469 C-147.92880274 150.86693785 -154.22973734 150.86570649 -160.5307098 150.87092423 C-164.28291689 150.87402473 -168.03507169 150.8745067 -171.78727531 150.86785126 C-175.31765148 150.86202569 -178.84788533 150.86616876 -182.37824631 150.87763977 C-184.27374838 150.88149718 -186.16926264 150.87564508 -188.0647583 150.86938477 C-199.4580417 150.92509278 -209.92956376 151.67959329 -219.01649475 159.14044189 C-227.84431754 169.04846241 -228.45984297 179.99240898 -228.36805725 192.69708252 C-228.48540627 200.50568204 -228.48540627 200.50568204 -231.29774475 203.86700439 C-233.97245599 205.11981454 -235.25935737 205.61548313 -238.14149475 205.20294189 C-239.13536194 205.09659424 -239.13536194 205.09659424 -240.14930725 204.98809814 C-243.17373923 203.61508195 -243.75215322 202.22420172 -245.01649475 199.14044189 C-245.45384639 195.44653196 -245.44289333 191.79379192 -245.39149475 188.07794189 C-245.38206848 187.04387207 -245.37264221 186.00980225 -245.3629303 184.94439697 C-245.07537068 170.39342224 -241.38139601 157.94046345 -231.24305725 147.17559814 C-220.03007055 136.92653486 -207.02231175 134.5349872 -192.35560608 134.68634033 C-190.8072055 134.68747091 -189.25880278 134.68683085 -187.71040344 134.68457031 C-183.53950852 134.68343043 -179.36908097 134.70682093 -175.19829392 134.73486614 C-170.82747201 134.76000188 -166.45663743 134.76223134 -162.08575439 134.76696777 C-153.82347309 134.77936199 -145.56140543 134.81213507 -137.29921788 134.85236573 C-127.88683839 134.89719458 -118.47444828 134.91909834 -109.06198847 134.93914747 C-89.71336979 134.98087117 -70.3649495 135.05115352 -51.01649475 135.14044189 C-51.0253772 134.11108521 -51.03425964 133.08172852 -51.04341125 132.0211792 C-51.12498624 122.25470614 -51.18469266 112.48830344 -51.22374344 102.72156525 C-51.24449571 97.70202787 -51.27258352 92.68276854 -51.31825256 87.66339111 C-51.36215624 82.80688295 -51.38572442 77.95063988 -51.39600372 73.09394836 C-51.4033161 71.25384862 -51.41759178 69.4137611 -51.43941498 67.57377625 C-51.66532102 47.71192612 -48.63551764 30.37269764 -34.42274475 15.42559814 C-25.26510581 6.72881441 -12.87718571 0.04366083 0 0 Z " fill="#00ff00" transform="translate(260.01649475097656,-0.14044189453125)"/>
<path d="M0 0 C2.79424418 2.66784865 4.04757767 5.03349973 5.60546875 8.55859375 C6.33830078 10.17507812 6.33830078 10.17507812 7.0859375 11.82421875 C9.89452518 19.17102289 10.78142559 25.63041436 10.79296875 33.43359375 C10.81746094 34.28179687 10.84195313 35.13 10.8671875 36.00390625 C10.90234421 43.87900952 8.80853581 50.87413336 6.41796875 58.30859375 C7.62855957 58.35346924 8.83915039 58.39834473 10.08642578 58.44458008 C14.59339398 58.61529385 19.09945587 58.80410548 23.60546875 58.99829102 C25.55286069 59.0797021 27.50046219 59.15625548 29.44824219 59.2277832 C32.25395301 59.33167188 35.05843687 59.45322121 37.86328125 59.578125 C39.16206711 59.62052055 39.16206711 59.62052055 40.48709106 59.66377258 C46.30270073 59.9460113 50.73729571 60.94295707 55.24609375 64.921875 C55.7153125 65.48261719 56.18453125 66.04335937 56.66796875 66.62109375 C57.1475 67.17410156 57.62703125 67.72710937 58.12109375 68.296875 C61.31438365 73.25032169 61.71590702 78.35083791 61.70849609 84.09887695 C61.71521332 84.85582855 61.72193054 85.61278015 61.72885132 86.39266968 C61.74776458 88.88163924 61.7517522 91.37033816 61.75390625 93.859375 C61.76033914 95.60043954 61.76706787 97.341503 61.77407837 99.08256531 C61.78603469 102.72816472 61.78976092 106.37366949 61.78857422 110.01928711 C61.7883712 114.67288412 61.81566288 119.32586928 61.85011864 123.97932148 C61.87244238 127.57489262 61.87641008 131.17031783 61.87535477 134.76595116 C61.87770289 136.4806345 61.88648162 138.19532235 61.9020195 139.9099369 C62.06199997 159.38823822 62.06199997 159.38823822 55.3828125 166.46484375 C54.71378906 166.90828125 54.04476562 167.35171875 53.35546875 167.80859375 C52.68386719 168.27265625 52.01226562 168.73671875 51.3203125 169.21484375 C47.16057372 171.60648001 43.20520248 171.46285173 38.55688477 171.46972656 C37.75642227 171.47469147 36.95595978 171.47965637 36.13124084 171.48477173 C33.47811015 171.49939503 30.82503942 171.50619866 28.171875 171.51171875 C26.32160949 171.51747382 24.47134399 171.52323151 22.62107849 171.5289917 C18.73476891 171.53950475 14.84848001 171.54534419 10.9621582 171.54882812 C6.00959332 171.5542875 1.05730689 171.5782591 -3.89517117 171.60680008 C-7.72246564 171.62553965 -11.54969488 171.63063823 -15.37703133 171.632164 C-17.2008725 171.63516992 -19.0247131 171.64312783 -20.84850883 171.65634918 C-32.0824515 171.73191725 -42.8487997 171.7954458 -53.08203125 166.49609375 C-55.50147144 164.99312362 -55.50147144 164.99312362 -57.83203125 166.05859375 C-58.69828125 166.67734375 -58.69828125 166.67734375 -59.58203125 167.30859375 C-61.91082843 168.47299234 -63.28295435 168.44123032 -65.87646484 168.45385742 C-66.76433685 168.46023727 -67.65220886 168.46661713 -68.56698608 168.47319031 C-69.52843536 168.47430313 -70.48988464 168.47541595 -71.48046875 168.4765625 C-72.46697418 168.4798909 -73.45347961 168.4832193 -74.46987915 168.48664856 C-76.55966729 168.4917176 -78.64946353 168.49405689 -80.73925781 168.49389648 C-83.93698487 168.49608006 -87.13436541 168.51422807 -90.33203125 168.53320312 C-92.3606759 168.53613762 -94.38932219 168.53812204 -96.41796875 168.5390625 C-97.37536957 168.54624802 -98.33277039 168.55343353 -99.31918335 168.56083679 C-100.21335968 168.55776016 -101.10753601 168.55468353 -102.02880859 168.55151367 C-103.20556656 168.5536512 -103.20556656 168.5536512 -104.40609741 168.55583191 C-106.93994257 168.26792646 -108.46267896 167.73055624 -110.58203125 166.30859375 C-112.25611493 163.53124379 -112.83469282 161.44148445 -112.85618591 158.21669006 C-112.86616104 157.41065842 -112.87613617 156.60462677 -112.88641357 155.77416992 C-112.88707825 154.89873535 -112.88774292 154.02330078 -112.88842773 153.12133789 C-112.89675125 152.19244247 -112.90507477 151.26354706 -112.91365051 150.3065033 C-112.93774852 147.23554293 -112.94652172 144.16479489 -112.953125 141.09375 C-112.96209031 138.95910071 -112.97121214 136.82445206 -112.98048401 134.68980408 C-112.9969752 130.21514356 -113.00467457 125.74055788 -113.00756836 121.26586914 C-113.0129573 115.53112536 -113.05065835 109.79708425 -113.09631252 104.0625391 C-113.12604566 99.65389939 -113.13329108 95.24542981 -113.13429451 90.83669853 C-113.13850297 88.72236342 -113.1509622 86.60802808 -113.17181206 84.49379158 C-113.19865289 81.53708184 -113.19392293 78.58201329 -113.18139648 75.62524414 C-113.19623077 74.7518338 -113.21106506 73.87842346 -113.22634888 72.97854614 C-113.17437125 68.67255224 -112.9654807 66.82934323 -110.33999634 63.26376343 C-107.47284591 61.23119035 -106.29932977 60.68723422 -102.85522461 60.70922852 C-101.94755844 60.70315079 -101.03989227 60.69707306 -100.10472107 60.69081116 C-99.13688187 60.71034348 -98.16904266 60.72987579 -97.171875 60.75 C-96.16741837 60.75233139 -95.16296173 60.75466278 -94.12806702 60.75706482 C-92.00903811 60.76679047 -89.89003476 60.78855022 -87.77124023 60.8215332 C-84.52744065 60.8709732 -81.28515812 60.88301706 -78.04101562 60.88867188 C-75.98045261 60.90275728 -73.91990276 60.91896146 -71.859375 60.9375 C-70.88951157 60.9428627 -69.91964813 60.9482254 -68.9203949 60.95375061 C-68.01588089 60.96973801 -67.11136688 60.9857254 -66.17944336 61.00219727 C-65.38622177 61.01283707 -64.59300018 61.02347687 -63.77574158 61.03443909 C-61.3470719 61.33795734 -59.69377294 62.09918839 -57.58203125 63.30859375 C-41.58387266 46.28178875 -28.86919104 32.24822669 -26.3046875 8.25390625 C-25.20529395 3.77313472 -22.83906132 1.21107688 -19.14453125 -1.44140625 C-12.61157199 -4.62821564 -6.09086711 -3.98993262 0 0 Z M-10.58203125 14.30859375 C-10.7521875 15.34757812 -10.92234375 16.3865625 -11.09765625 17.45703125 C-14.58600453 37.93201202 -24.01069474 51.05473159 -38.15917969 65.80908203 C-40.45206695 68.22550508 -42.63662464 70.72663085 -44.77259827 73.28204346 C-46.58203125 75.30859375 -46.58203125 75.30859375 -48.82737732 77.3739624 C-54.77029514 83.10652995 -56.63165726 87.20295358 -56.80690002 95.43560791 C-56.78554489 96.67759949 -56.76418976 97.91959106 -56.7421875 99.19921875 C-56.74842636 100.50260193 -56.75466522 101.80598511 -56.76109314 103.14886475 C-56.76978799 105.88965328 -56.74690875 108.62777121 -56.70043945 111.36816406 C-56.64332123 114.86882625 -56.66283478 118.36413725 -56.70539188 121.86484146 C-56.73650482 125.22678006 -56.70562371 128.58722941 -56.6796875 131.94921875 C-56.69274429 133.19930725 -56.70580109 134.44939575 -56.71925354 135.73736572 C-56.6624961 141.90015458 -56.6624961 141.90015458 -54.11447144 147.32702637 C-52.02693017 149.03599832 -50.02169373 150.1603668 -47.58203125 151.30859375 C-46.81456573 151.71100784 -46.04710022 152.11342194 -45.25637817 152.5280304 C-36.56283025 156.41086046 -27.39815974 155.87143381 -18.078125 155.8046875 C-16.3050175 155.80484272 -14.53190967 155.80633542 -12.75880432 155.80909729 C-9.06650563 155.81047369 -5.37459904 155.79804018 -1.68237305 155.77514648 C3.05579062 155.74657557 7.79331303 155.74955978 12.53152561 155.7622366 C16.18173237 155.7691746 19.83178978 155.76142924 23.48197746 155.74897957 C25.23033006 155.74445991 26.97869863 155.74413275 28.72705269 155.74804497 C31.15894979 155.75094355 33.58994523 155.73452321 36.02172852 155.71264648 C36.74531555 155.71714813 37.46890259 155.72164978 38.2144165 155.72628784 C40.42118975 155.72825275 40.42118975 155.72825275 43.41796875 155.30859375 C45.89681387 151.59032607 45.68241897 149.66561939 45.70849609 145.22265625 C45.71521332 144.50527283 45.72193054 143.7878894 45.72885132 143.04876709 C45.74785253 140.67697226 45.75175621 138.30545995 45.75390625 135.93359375 C45.76033156 134.28596886 45.76705972 132.63834513 45.77407837 130.99072266 C45.78605561 127.53740797 45.78975862 124.08419337 45.78857422 120.63085938 C45.78837074 116.20189482 45.81570041 111.77356986 45.85011864 107.34475708 C45.87233263 103.94243408 45.8764135 100.54026652 45.87535477 97.13787842 C45.87771798 95.50475861 45.88658189 93.87163498 45.9020195 92.23858643 C45.9215741 89.95677553 45.915885 87.67636373 45.90380859 85.39453125 C45.90665863 84.09563965 45.90950867 82.79674805 45.91244507 81.45849609 C45.70476151 78.28285843 45.70476151 78.28285843 43.71134949 76.38977051 C41.02799919 75.12474899 39.20117234 74.93054849 36.23803711 74.92382812 C35.20694321 74.91371704 34.1758493 74.90360596 33.11351013 74.89318848 C31.4524398 74.89772034 31.4524398 74.89772034 29.7578125 74.90234375 C28.61639297 74.89150757 27.47497345 74.88067139 26.29896545 74.86950684 C21.41313819 74.82357033 16.52736215 74.81213724 11.64135742 74.79736328 C8.07581431 74.78171141 4.51072134 74.74872071 0.9453125 74.71484375 C-0.71879417 74.71937561 -0.71879417 74.71937561 -2.41651917 74.72399902 C-3.95843178 74.7088324 -3.95843178 74.7088324 -5.53149414 74.69335938 C-6.4365419 74.69130493 -7.34158966 74.68925049 -8.27406311 74.68713379 C-10.58203125 74.30859375 -10.58203125 74.30859375 -12.37254333 73.01208496 C-14.48680972 70.03426752 -14.07854892 66.76223419 -13.58203125 63.30859375 C-12.67425756 60.27588164 -11.45152165 57.43857652 -10.14453125 54.55859375 C-9.49771163 53.08563819 -8.85310153 51.61170995 -8.2109375 50.13671875 C-7.77890015 49.17620605 -7.77890015 49.17620605 -7.33813477 48.19628906 C-3.37554797 38.30325674 -4.61016488 25.69076759 -8.70703125 16.1171875 C-8.99578125 15.52035156 -9.28453125 14.92351562 -9.58203125 14.30859375 C-9.91203125 14.30859375 -10.24203125 14.30859375 -10.58203125 14.30859375 Z M-96.58203125 77.30859375 C-96.58203125 102.05859375 -96.58203125 126.80859375 -96.58203125 152.30859375 C-88.33203125 152.30859375 -80.08203125 152.30859375 -71.58203125 152.30859375 C-71.58203125 127.55859375 -71.58203125 102.80859375 -71.58203125 77.30859375 C-79.83203125 77.30859375 -88.08203125 77.30859375 -96.58203125 77.30859375 Z " fill="#00ff00" transform="translate(378.58203125,57.69140625)"/>
<path d="M0 0 C3 0.625 3 0.625 5.9375 2.3125 C11.19478702 10.75602157 5.85474791 25.35126044 4 34.625 C9.61 34.625 15.22 34.625 21 34.625 C21.28875 32.2325 21.5775 29.84 21.875 27.375 C22.5193957 22.22352267 23.17457107 17.07284517 23.9375 11.9375 C24.07027344 11.02613281 24.20304687 10.11476562 24.33984375 9.17578125 C25.10209649 6.23050882 26.26157835 4.11281645 28 1.625 C30.85324437 0.19837781 32.83454549 0.31466132 36 0.625 C38.875 2 38.875 2 41 4.625 C42.76577025 12.55430792 40.61949433 27.38601133 37 34.625 C37.73637695 34.60928955 38.47275391 34.5935791 39.23144531 34.57739258 C42.57088529 34.51499528 45.91020255 34.47599382 49.25 34.4375 C50.40886719 34.41236328 51.56773437 34.38722656 52.76171875 34.36132812 C53.87675781 34.35166016 54.99179688 34.34199219 56.140625 34.33203125 C57.16704102 34.3163208 58.19345703 34.30061035 59.25097656 34.28442383 C62.42505765 34.67766034 63.74990106 35.37975879 66 37.625 C67 41 67 41 67 44.625 C65.23358828 47.42689446 63.96950178 49.14024911 61 50.625 C58.96767366 50.71027628 56.93252994 50.73216135 54.8984375 50.72265625 C53.08085937 50.71782227 53.08085937 50.71782227 51.2265625 50.71289062 C49.95554687 50.70451172 48.68453125 50.69613281 47.375 50.6875 C46.09625 50.68298828 44.8175 50.67847656 43.5 50.67382812 C40.33328708 50.66201203 37.16666644 50.64553815 34 50.625 C33.93941406 51.43324219 33.87882812 52.24148437 33.81640625 53.07421875 C33.69072266 54.67716797 33.69072266 54.67716797 33.5625 56.3125 C33.44068359 57.89611328 33.44068359 57.89611328 33.31640625 59.51171875 C33.03548319 62.27586297 32.59843148 64.91445741 32 67.625 C33.3317627 67.5935791 33.3317627 67.5935791 34.69042969 67.56152344 C37.99294455 67.49324323 41.2947067 67.4431513 44.59765625 67.40527344 C46.02551121 67.38519018 47.45328425 67.35791748 48.88085938 67.32324219 C50.93640368 67.27457331 52.99085855 67.25200033 55.046875 67.234375 C56.28276367 67.21342773 57.51865234 67.19248047 58.79199219 67.17089844 C62.59730752 67.70955038 63.71956362 68.59310292 66 71.625 C67.17590974 75.30951718 67.33481338 76.90754275 65.6875 80.4375 C64 82.625 64 82.625 62 83.625 C59.51900266 83.71149451 57.06655072 83.74065054 54.5859375 83.72265625 C53.85629791 83.7212413 53.12665833 83.71982635 52.37490845 83.71836853 C50.04156415 83.71276531 47.70831536 83.70021235 45.375 83.6875 C43.79427222 83.68248541 42.21354293 83.67792243 40.6328125 83.67382812 C36.75517146 83.66279484 32.87760193 83.64552811 29 83.625 C28.91959473 84.24955078 28.83918945 84.87410156 28.75634766 85.51757812 C28.38408171 88.38737156 28.00459118 91.25616666 27.625 94.125 C27.43550781 95.59839844 27.43550781 95.59839844 27.2421875 97.1015625 C25.23139461 112.18250917 25.23139461 112.18250917 21.8125 116.1875 C18.0626042 118.10411341 16.0102831 117.73896753 12 116.625 C10.05778586 115.11888487 9.13380535 114.23368314 8.6015625 111.8125 C8.69982644 102.6411992 10.4449675 93.64048607 12 84.625 C6.72 84.295 1.44 83.965 -4 83.625 C-4.32613281 85.75582031 -4.65226562 87.88664062 -4.98828125 90.08203125 C-5.31305411 92.14769844 -5.64203782 94.21265377 -5.97143555 96.27758789 C-6.19785476 97.71146816 -6.41989953 99.14604639 -6.63745117 100.58129883 C-6.95120071 102.64604236 -7.28067449 104.70775221 -7.61328125 106.76953125 C-7.80704346 108.01065674 -8.00080566 109.25178223 -8.20043945 110.53051758 C-9.00134202 113.63019394 -9.41202716 114.82434973 -12 116.625 C-16.10581917 117.76550533 -18.08311561 118.12330673 -21.875 116.0625 C-24.45234155 113.10613763 -24.61688573 111.48784874 -25 107.625 C-24.74633789 104.74072266 -24.74633789 104.74072266 -24.22265625 101.7890625 C-24.03896484 100.72558594 -23.85527344 99.66210938 -23.66601562 98.56640625 C-23.46685547 97.47199219 -23.26769531 96.37757813 -23.0625 95.25 C-22.86720703 94.13238281 -22.67191406 93.01476562 -22.47070312 91.86328125 C-21.98925567 89.11550799 -21.49877122 86.36967223 -21 83.625 C-21.70084717 83.65118408 -22.40169434 83.67736816 -23.1237793 83.7043457 C-26.3114565 83.8085354 -29.49877526 83.87339583 -32.6875 83.9375 C-33.79029297 83.97939453 -34.89308594 84.02128906 -36.02929688 84.06445312 C-44.21985289 84.18817754 -44.21985289 84.18817754 -48.23046875 81.29296875 C-50 78.625 -50 78.625 -50.625 75.625 C-49.9894095 72.57416561 -49.22387827 70.81395695 -46.95703125 68.65478516 C-42.27770544 66.19253512 -36.32127921 67.13986904 -31.1875 67.3125 C-29.92228516 67.33505859 -28.65707031 67.35761719 -27.35351562 67.38085938 C-24.23447381 67.43970922 -21.11784098 67.5218863 -18 67.625 C-17.80083984 66.03558594 -17.80083984 66.03558594 -17.59765625 64.4140625 C-17.41946125 63.02601721 -17.2410654 61.63799769 -17.0625 60.25 C-16.97548828 59.55132812 -16.88847656 58.85265625 -16.79882812 58.1328125 C-16.11328125 52.8515625 -16.11328125 52.8515625 -15 50.625 C-15.85231201 50.64071045 -16.70462402 50.6564209 -17.58276367 50.67260742 C-20.76031226 50.72388962 -23.93764913 50.76142482 -27.11547852 50.78979492 C-28.48794517 50.80483432 -29.86036414 50.82527133 -31.23266602 50.85131836 C-33.21088656 50.88791221 -35.18946514 50.90316698 -37.16796875 50.91796875 C-38.35672607 50.9336792 -39.5454834 50.94938965 -40.77026367 50.96557617 C-44.31590796 50.59168746 -46.17058165 49.75377583 -49 47.625 C-50.42662219 44.77175563 -50.31033868 42.79045451 -50 39.625 C-48.46972656 36.95629883 -48.46972656 36.95629883 -46 34.625 C-43.17955346 34.17720307 -40.9772276 34.03659457 -38.171875 34.13671875 C-37.42286926 34.14379349 -36.67386353 34.15086823 -35.90216064 34.15815735 C-33.51707763 34.18607862 -31.13436944 34.24880465 -28.75 34.3125 C-27.13024232 34.33758618 -25.51044772 34.3603988 -23.890625 34.38085938 C-19.92617261 34.43589675 -15.96348847 34.52214678 -12 34.625 C-11.94231445 33.86243896 -11.88462891 33.09987793 -11.82519531 32.31420898 C-11.33214453 26.06678784 -10.75878949 19.8735827 -9.75 13.6875 C-9.65332031 12.97271484 -9.55664062 12.25792969 -9.45703125 11.52148438 C-8.47836721 5.57802467 -6.17059863 1.28554138 0 0 Z M1 50.625 C0.01 56.235 -0.98 61.845 -2 67.625 C3.61 67.625 9.22 67.625 15 67.625 C16.30549611 63.0557636 17.25218344 59.72343486 17.625 55.1875 C17.74875 53.681875 17.8725 52.17625 18 50.625 C12.39 50.625 6.78 50.625 1 50.625 Z " fill="#00ff00" transform="translate(122,192.375)"/>
<path d="M0 0 C3.80052762 1.71891489 3.80052762 1.71891489 7.9375 1.25 C9.3296875 0.569375 9.3296875 0.569375 10.75 -0.125 C19.41056778 -2.95936764 26.38120261 -2.58795064 34.75 0.875 C42.03104347 4.83264035 45.74873052 10.35149623 48.53125 18.03125 C50.89901499 26.62997549 49.97898002 35.85431355 45.96484375 43.796875 C38.75409665 56.13165781 28.00165834 63.9009791 15.75 70.875 C14.97140625 71.34421875 14.1928125 71.8134375 13.390625 72.296875 C8.68362052 74.9605287 5.9546271 75.0521722 0.75 73.875 C-1.82828041 72.7302964 -4.17962885 71.31714402 -6.5625 69.8125 C-7.21549072 69.40837891 -7.86848145 69.00425781 -8.54125977 68.58789062 C-20.60106539 60.99462467 -33.02011989 51.5943464 -36.96484375 37.28125 C-39.08756594 27.40296112 -38.37750869 18.6884175 -33.25 9.875 C-25.86854517 -1.20813396 -12.27523199 -5.50716601 0 0 Z M-19.25 17.875 C-21.80282646 22.35364292 -22.63860662 26.48993136 -21.6875 31.5625 C-18.39527043 42.84179541 -8.19650713 49.93577233 1.328125 55.9765625 C4.61708407 57.19666022 6.39032655 56.85543301 9.75 55.875 C18.73102333 50.7398382 29.04875412 43.95061378 32.75 33.875 C33.94892039 28.5654954 34.07862616 24.68687938 31.890625 19.64453125 C29.84857799 16.47656106 27.3223006 14.95037296 23.75 13.875 C20.14418221 13.46150231 20.14418221 13.46150231 16.75 14.875 C14.95773862 16.5644941 13.48621414 18.30986986 12.01171875 20.28125 C10.14813313 22.63525289 8.91823158 22.85256912 5.9375 23.25 C1.67175974 22.7481482 0.55430505 21.03883134 -2.25 17.875 C-4.97689772 15.28794319 -6.46364456 14.00884773 -10.1875 13.375 C-14.25922646 14.03977167 -16.18676326 15.08405097 -19.25 17.875 Z " fill="#00ff00" transform="translate(257.25,370.125)"/>
</svg>