<svg version="1.1" xmlns="http://www.w3.org/2000/svg" width="512px" height="512px" transform="rotate(0) scale(1, 1)">
<path d="M0 0 C0.80131348 0.17160645 1.60262695 0.34321289 2.42822266 0.52001953 C33.94557669 7.32981277 63.35299199 21.13677161 88 42 C88.84433594 42.71414062 89.68867188 43.42828125 90.55859375 44.1640625 C102.56625948 54.69295166 113.7949548 65.92460803 123 79 C123.40524902 79.5662207 123.81049805 80.13244141 124.22802734 80.71582031 C146.57623253 112.13399883 158.4925994 148.97567574 160.875 187.3125 C160.96744995 188.61102905 160.96744995 188.61102905 161.06176758 189.93579102 C161.32324221 195.45707411 160.68734304 199.13320889 158 204 C150.30659142 207.84670429 138.61872521 203.82083602 130.62158203 202.17407227 C128.24375979 201.68621971 125.86261988 201.21815385 123.48046875 200.75195312 C121.95028507 200.44387703 120.42032827 200.13467143 118.890625 199.82421875 C118.18738098 199.68658615 117.48413696 199.54895355 116.75958252 199.40715027 C112.45482105 198.50547375 108.76437873 197.29440072 105 195 C102.69725577 189.6473084 102.58222094 183.9966255 102.1875 178.25 C99.01536798 140.47610608 78.71225575 105.36593768 50.1875 80.8125 C18.59806277 55.43400681 -17.2798883 43.24831814 -57.98974609 47.29736328 C-94.25342327 52.15299711 -129.134359 74.28979463 -151.4921875 102.91015625 C-169.15119126 126.17163582 -181.02585061 152.88421454 -182.5625 182.3125 C-183.09532286 192.12709715 -183.09532286 192.12709715 -186 196 C-193.1560862 199.12427685 -201.41081099 200.26840931 -209.02246094 201.78979492 C-210.99904196 202.18730733 -212.97202437 202.60016274 -214.9453125 203.01367188 C-233.37630852 206.72779683 -233.37630852 206.72779683 -238.5625 203.3125 C-246.7059086 190.21223399 -238.55983713 163.06291459 -235.35498047 149.21240234 C-226.88086724 115.12489669 -210.24271846 84.44574057 -186 59 C-185.45714355 58.42991211 -184.91428711 57.85982422 -184.35498047 57.27246094 C-176.11552651 48.67691206 -167.75194183 40.85487373 -158 34 C-157.42314453 33.58943359 -156.84628906 33.17886719 -156.25195312 32.75585938 C-112.23171034 1.64057376 -53.04905357 -12.16721412 0 0 Z " fill="#ffffff" transform="translate(296,51)"/>
<path d="M0 0 C9.032109 6.50553914 14.84595542 14.68027496 17.58203125 25.4921875 C18.52246558 31.67563215 18.73029592 37.69215204 18.72729492 43.94042969 C18.73065353 44.95620087 18.73401215 45.97197205 18.73747253 47.01852417 C18.74692957 50.35871624 18.74892306 53.69885789 18.75 57.0390625 C18.7532164 59.37542745 18.75658076 61.7117922 18.76008606 64.04815674 C18.76606434 68.94031236 18.76792731 73.83245036 18.76733398 78.72460938 C18.76723248 84.96947219 18.78087874 91.21422102 18.79810619 97.45905685 C18.80926746 102.28400178 18.81125192 107.10891952 18.81072426 111.93387604 C18.81189838 114.23498171 18.81628802 116.53608823 18.82405663 118.83718109 C18.93303048 154.45130911 18.93303048 154.45130911 5.68359375 168.51953125 C2.56534474 171.4465122 -0.58496441 173.60891947 -4.41796875 175.4921875 C-5.03542969 175.81058594 -5.65289062 176.12898437 -6.2890625 176.45703125 C-15.40851889 180.31457908 -28.17965873 179.97311194 -37.48046875 176.9296875 C-47.03453457 172.74521151 -55.05445083 165.51426684 -59.58605194 156.05355835 C-62.31718138 148.96818081 -62.99197594 142.77308579 -62.93554688 135.21875 C-62.94255615 134.04487732 -62.94956543 132.87100464 -62.95678711 131.66156006 C-62.97427313 127.81318931 -62.9627769 123.96556465 -62.94921875 120.1171875 C-62.95011185 117.42398492 -62.95579592 114.73079525 -62.96081543 112.03759766 C-62.96806534 106.40584354 -62.95857452 100.77430015 -62.93945312 95.14257812 C-62.91768926 88.65825064 -62.92474254 82.17442647 -62.94675875 75.69011116 C-62.96498912 70.09396664 -62.96743405 64.49797245 -62.95700407 58.90180779 C-62.95081068 55.57203688 -62.95141891 52.24268908 -62.96315002 48.91290283 C-62.97337072 45.19680328 -62.95773555 41.48165423 -62.93554688 37.765625 C-62.9436438 36.68166443 -62.95174072 35.59770386 -62.96008301 34.480896 C-62.8343003 23.04208185 -59.35022284 13.80142 -51.41796875 5.4921875 C-37.63784493 -7.66275112 -16.31305228 -10.17259803 0 0 Z " fill="#ffffff" transform="translate(142.41796875,269.5078125)"/>
<path d="M0 0 C9.11028433 6.56184634 14.68753271 14.67355571 17.58203125 25.4921875 C18.10014774 29.59526268 18.13047357 33.63373798 18.09960938 37.765625 C18.10661865 38.93949768 18.11362793 40.11337036 18.12084961 41.32281494 C18.13833563 45.17118569 18.1268394 49.01881035 18.11328125 52.8671875 C18.11417435 55.56039008 18.11985842 58.25357975 18.12487793 60.94677734 C18.13212784 66.57853146 18.12263702 72.21007485 18.10351562 77.84179688 C18.08175176 84.32612436 18.08880504 90.80994853 18.11082125 97.29426384 C18.12905162 102.89040836 18.13149655 108.48640255 18.12106657 114.08256721 C18.11487318 117.41233812 18.11548141 120.74168592 18.12721252 124.07147217 C18.13743322 127.78757172 18.12179805 131.50272077 18.09960938 135.21875 C18.1077063 136.30271057 18.11580322 137.38667114 18.12414551 138.503479 C17.9983628 149.94229315 14.51428534 159.182955 6.58203125 167.4921875 C-2.64510052 176.30069703 -12.26841199 179.11793051 -24.78271484 178.96289062 C-36.60994382 178.49468278 -45.25903982 173.943818 -53.390625 165.42578125 C-61.01560498 156.37617657 -63.02212843 146.80969366 -62.93554688 135.21875 C-62.94255615 134.04487732 -62.94956543 132.87100464 -62.95678711 131.66156006 C-62.97427313 127.81318931 -62.9627769 123.96556465 -62.94921875 120.1171875 C-62.95011185 117.42398492 -62.95579592 114.73079525 -62.96081543 112.03759766 C-62.96806534 106.40584354 -62.95857452 100.77430015 -62.93945312 95.14257812 C-62.91768926 88.65825064 -62.92474254 82.17442647 -62.94675875 75.69011116 C-62.96498912 70.09396664 -62.96743405 64.49797245 -62.95700407 58.90180779 C-62.95081068 55.57203688 -62.95141891 52.24268908 -62.96315002 48.91290283 C-62.97337072 45.19680328 -62.95773555 41.48165423 -62.93554688 37.765625 C-62.9436438 36.68166443 -62.95174072 35.59770386 -62.96008301 34.480896 C-62.8343003 23.04208185 -59.35022284 13.80142 -51.41796875 5.4921875 C-37.63784493 -7.66275112 -16.31305228 -10.17259803 0 0 Z " fill="#ffffff" transform="translate(414.41796875,269.5078125)"/>
<path d="M0 0 C3.00971944 4.59368515 3.42977015 8.69692037 3.38095093 14.04614258 C3.3856309 14.83924489 3.39031087 15.6323472 3.39513266 16.44948292 C3.40706619 19.09800418 3.39763197 21.74600645 3.38818359 24.39453125 C3.39225003 26.29698996 3.39759231 28.19944631 3.40411377 30.10189819 C3.41778461 35.26299714 3.41248963 40.42391608 3.40297651 45.58501816 C3.39537876 50.98742913 3.40242585 56.38982474 3.40713501 61.79223633 C3.41259221 70.86444871 3.40540184 79.93658781 3.39111328 89.00878906 C3.37478686 99.49595799 3.38007539 109.98295193 3.3965925 120.47011662 C3.41020834 129.47579222 3.41212654 138.48141517 3.40427649 147.48709774 C3.39960053 152.86509507 3.39897306 158.24301016 3.40888596 163.6210022 C3.41755472 168.6771628 3.41153524 173.7330979 3.39420319 178.78923416 C3.39023788 180.64438121 3.39137314 182.49954725 3.39799118 184.35468674 C3.40619502 186.88799946 3.39589934 189.42059061 3.38095093 191.95385742 C3.38764309 192.68713162 3.39433526 193.42040583 3.40123022 194.17590046 C3.34795954 198.83362027 2.47213352 202.04812015 0 206 C-3.12942465 207.56471233 -6.61082223 207.69701958 -10 207 C-12.09764862 205.47631836 -12.09764862 205.47631836 -14 203 C-14.39285501 200.18684446 -14.54078449 197.76511737 -14.50793457 194.953125 C-14.51729451 193.72716614 -14.51729451 193.72716614 -14.52684355 192.47644043 C-14.54281602 189.73400136 -14.5301529 186.99244588 -14.51757812 184.25 C-14.52299736 182.28547649 -14.5301189 180.32095704 -14.53881836 178.35644531 C-14.55707823 173.01763984 -14.54997313 167.67914301 -14.53730202 162.34033203 C-14.52718818 156.75812944 -14.5365632 151.17595361 -14.54284668 145.59375 C-14.55012779 136.21870164 -14.54052318 126.84377924 -14.52148438 117.46875 C-14.49971481 106.62367661 -14.50676584 95.77890399 -14.52879 84.93383789 C-14.54693075 75.62928692 -14.54950879 66.3248266 -14.53903532 57.02026367 C-14.53279312 51.46007353 -14.53198476 45.90002485 -14.54518127 40.33984375 C-14.55671983 35.11293428 -14.54875043 29.88641331 -14.52560425 24.6595459 C-14.5203065 22.73906093 -14.52184908 20.81854338 -14.53065491 18.89807129 C-14.54155201 16.28056162 -14.52791811 13.6643044 -14.50793457 11.046875 C-14.51685746 10.28306519 -14.52578034 9.51925537 -14.53497362 8.7322998 C-14.48361637 5.27511497 -14.2677422 3.35429441 -12.15575409 0.55957031 C-7.71227708 -2.65504255 -4.9217583 -2.02143645 0 0 Z " fill="#ffffff" transform="translate(262,245)"/>
<path d="M0 0 C19.81628392 0 19.81628392 0 25.95703125 5.87109375 C31.25403591 11.57804989 33.24078574 15.98260757 33.29052734 23.86645508 C33.29724457 24.53708481 33.30396179 25.20771454 33.31088257 25.89866638 C33.3298089 28.10569768 33.33378417 30.31242394 33.3359375 32.51953125 C33.34236983 34.06263857 33.34909852 35.60574469 33.35610962 37.14884949 C33.36806944 40.38091863 33.37179185 43.612881 33.37060547 46.8449707 C33.3704025 50.97073506 33.39768648 55.09580886 33.43214989 59.2214098 C33.45447512 62.40861608 33.45844128 65.59565775 33.45738602 68.78293419 C33.45973422 70.30307072 33.46851348 71.82321232 33.48405075 73.34327126 C33.57059725 82.68598799 33.47026963 89.89873804 27.03515625 97.2421875 C26.38417969 97.78101563 25.73320312 98.31984375 25.0625 98.875 C24.41410156 99.42929687 23.76570313 99.98359375 23.09765625 100.5546875 C15.36502623 105.88257038 10.47798845 104 0 104 C0 69.68 0 35.36 0 0 Z " fill="#ffffff" transform="translate(447,304)"/>
<path d="M0 0 C0 34.32 0 68.64 0 104 C-18.80793319 104 -18.80793319 104 -24.9609375 98.12890625 C-30.25169246 92.41705038 -32.24077937 88.01840227 -32.29052734 80.13354492 C-32.29724457 79.46291519 -32.30396179 78.79228546 -32.31088257 78.10133362 C-32.3298089 75.89430232 -32.33378417 73.68757606 -32.3359375 71.48046875 C-32.34236983 69.93736143 -32.34909852 68.39425531 -32.35610962 66.85115051 C-32.36806944 63.61908137 -32.37179185 60.387119 -32.37060547 57.1550293 C-32.3704025 53.02926494 -32.39768648 48.90419114 -32.43214989 44.7785902 C-32.45447512 41.59138392 -32.45844128 38.40434225 -32.45738602 35.21706581 C-32.45973422 33.69692928 -32.46851348 32.17678768 -32.48405075 30.65672874 C-32.57049359 21.32520199 -32.50436495 14.0498154 -26 6.7578125 C-25.34 6.21898437 -24.68 5.68015625 -24 5.125 C-23.34 4.57070313 -22.68 4.01640625 -22 3.4453125 C-14.31614688 -2.10747198 -11.83213622 0 0 0 Z " fill="#ffffff" transform="translate(64,304)"/>
<path d="M0 0 C3.61567264 3.61567264 4.12489919 7.27024022 4.13371277 12.21772766 C4.13797775 13.29860657 4.14224274 14.37948547 4.14663696 15.49311829 C4.14618378 16.67915146 4.14573059 17.86518463 4.14526367 19.0871582 C4.14862228 20.33616913 4.1519809 21.58518005 4.15544128 22.87203979 C4.16332233 26.2998602 4.16661941 29.72762003 4.16725707 33.15544534 C4.16796776 35.29779269 4.17010246 37.4401337 4.17275429 39.58247948 C4.1820084 47.05881529 4.1860892 54.53513326 4.18530273 62.01147461 C4.18470233 68.97615471 4.19524664 75.94075726 4.2110464 82.90541774 C4.22413301 88.8876918 4.22948614 94.86994056 4.22884732 100.85222882 C4.22859261 104.42386073 4.23142892 107.99542377 4.24202538 111.5670414 C4.25352772 115.55294431 4.24895264 119.5387414 4.24291992 123.5246582 C4.24853943 124.70461868 4.25415894 125.88457916 4.25994873 127.10029602 C4.22042647 137.36450743 4.22042647 137.36450743 2 142 C-1.05529602 144.70611933 -2.52085133 145.01652237 -6.625 144.875 C-10.03156832 143.99181562 -10.99347343 143.73764537 -13 141 C-13.37752342 138.50244999 -13.37752342 138.50244999 -13.38095093 135.46510315 C-13.3894104 134.31402069 -13.39786987 133.16293823 -13.40658569 131.97697449 C-13.400513 130.71299332 -13.39444031 129.44901215 -13.38818359 128.14672852 C-13.39224841 126.80303521 -13.39758979 125.45934524 -13.40411377 124.11566162 C-13.41780536 120.46477753 -13.41248092 116.8141474 -13.40297651 113.16325879 C-13.39538783 109.34409726 -13.40242346 105.52495766 -13.40713501 101.70579529 C-13.41259555 95.29072156 -13.40539388 88.87575138 -13.39111328 82.46069336 C-13.37479308 75.04376372 -13.38006938 67.62708155 -13.3965925 60.21015793 C-13.41020722 53.84403635 -13.4121269 47.47798927 -13.40427649 41.11185783 C-13.39959898 37.30888592 -13.39897705 33.50603031 -13.40888596 29.70306587 C-13.41755296 26.12677559 -13.4115389 22.55080418 -13.39420319 18.97454834 C-13.38834443 17.03588804 -13.39725669 15.09720078 -13.40658569 13.15855408 C-13.39812622 12.00465179 -13.38966675 10.85074951 -13.38095093 9.66188049 C-13.37981985 8.65917901 -13.37868877 7.65647753 -13.37752342 6.62339115 C-12.93656159 3.55916969 -12.14662755 2.20461521 -10 0 C-6.20519658 -1.26493447 -3.87641726 -0.89988258 0 0 Z " fill="#ffffff" transform="translate(229,276)"/>
<path d="M0 0 C3.0603182 3.06540084 3.37738246 5.41133116 3.38768005 9.65515137 C3.39758469 10.80760849 3.40748932 11.96006561 3.41769409 13.14744568 C3.41094162 15.03802452 3.41094162 15.03802452 3.40405273 16.96679688 C3.40975639 18.31063912 3.41672063 19.65447652 3.42485046 20.99830627 C3.44279647 24.64498574 3.44161103 28.29142478 3.43590808 31.93813515 C3.43281871 34.98250358 3.43890577 38.02682566 3.44494683 41.0711875 C3.45899477 48.25241288 3.45742818 55.43351931 3.44604492 62.61474609 C3.43455922 70.02436409 3.44864609 77.43362034 3.4754414 84.84319067 C3.49758695 91.20509056 3.50423851 97.5668768 3.49836498 103.9288125 C3.49499192 107.72846293 3.49743353 111.52788136 3.51461601 115.32749939 C3.53006543 118.89976732 3.52615268 122.47149848 3.50731087 126.04374504 C3.50185873 127.98002323 3.51615374 129.91632541 3.53100586 131.85255432 C3.52117172 133.00501144 3.51133759 134.15746857 3.50120544 135.34484863 C3.50099616 136.3462513 3.50078688 137.34765396 3.50057125 138.37940216 C2.86338483 141.7152097 1.61385274 142.90290472 -1 145 C-3 145.53125 -3 145.53125 -5 145.5 C-5.66 145.5103125 -6.32 145.520625 -7 145.53125 C-9.92371378 144.75463853 -11.09455715 143.31916973 -13 141 C-13.50057125 138.37940216 -13.50057125 138.37940216 -13.50120544 135.34484863 C-13.51595665 133.61616295 -13.51595665 133.61616295 -13.53100586 131.85255432 C-13.52133789 130.59216843 -13.51166992 129.33178253 -13.50170898 128.03320312 C-13.50549295 126.6893609 -13.51099364 125.34552258 -13.51808167 124.00169373 C-13.53204377 120.35491824 -13.52086163 116.70861416 -13.50437045 113.06186485 C-13.49051985 109.24538172 -13.49698004 105.42892595 -13.50050354 101.61242676 C-13.50320567 95.20329186 -13.48972999 88.79434424 -13.46655273 82.38525391 C-13.43994287 74.97567847 -13.43819583 67.56641617 -13.4499411 60.15680933 C-13.46072077 53.02872874 -13.45453036 45.90076141 -13.44038582 38.77268982 C-13.43462763 35.73926618 -13.43470736 32.70592547 -13.43945122 29.67250061 C-13.44422402 26.10028272 -13.43410719 22.52840764 -13.41249657 18.95625496 C-13.40427855 17.02000186 -13.41077847 15.08370386 -13.41769409 13.14744568 C-13.40778946 11.99498856 -13.39788483 10.84253143 -13.38768005 9.65515137 C-13.38525016 8.6537487 -13.38282026 7.65234604 -13.38031673 6.62059784 C-12.93610663 3.55973847 -12.14417037 2.20319064 -10 0 C-6.20519658 -1.26493447 -3.87641726 -0.89988258 0 0 Z " fill="#ffffff" transform="translate(293,276)"/>
<path d="M0 0 C3.01208449 2.26021497 3.90830591 3.42458157 4.50793457 7.1875 C4.51111694 8.445625 4.51429932 9.70375 4.51757812 11 C4.5245874 11.69641602 4.53159668 12.39283203 4.53881836 13.11035156 C4.55639196 15.40730932 4.54477919 17.70303021 4.53125 20 C4.53394513 21.59896073 4.53782773 23.19791987 4.54284668 24.796875 C4.54874082 28.14599226 4.54018192 31.49468243 4.52148438 34.84375 C4.49869435 39.13478591 4.51181796 43.42482111 4.53577423 47.71582031 C4.5502348 51.01700366 4.54562515 54.31795011 4.53526306 57.61914062 C4.53259646 59.20117308 4.53586322 60.78322711 4.54518127 62.36523438 C4.55535179 64.57740163 4.5398419 66.787953 4.51757812 69 C4.51280457 70.8871875 4.51280457 70.8871875 4.50793457 72.8125 C3.91161931 76.55462545 2.97622696 77.73367166 0 80 C-3.71971137 80.92266278 -7.05233851 80.48598025 -10.4375 78.75 C-13.55740882 75.25570212 -13.13430176 71.08384494 -13.16113281 66.58251953 C-13.17074036 65.28081818 -13.1803479 63.97911682 -13.19024658 62.63796997 C-13.19509461 61.21958594 -13.19937343 59.80119986 -13.203125 58.3828125 C-13.20888095 56.9231669 -13.21463862 55.46352132 -13.22039795 54.00387573 C-13.23089067 50.94577687 -13.23674477 47.88770416 -13.24023438 44.82958984 C-13.24571841 40.92008533 -13.26975146 37.0109292 -13.29820633 33.10153389 C-13.31687197 30.08685306 -13.32204037 27.07225555 -13.32357025 24.05752182 C-13.32658798 22.61667855 -13.33458672 21.17583645 -13.34775543 19.7350502 C-13.3648978 17.71552732 -13.36107908 15.69585985 -13.35644531 13.67626953 C-13.36009094 12.52917511 -13.36373657 11.38208069 -13.36749268 10.20022583 C-12.94831295 6.54989518 -11.87122489 4.14329457 -10 1 C-6.68343166 -1.63038179 -3.94300516 -1.15004317 0 0 Z " fill="#ffffff" transform="translate(324,308)"/>
<path d="M0 0 C3.27922237 3.16991495 3.92223118 6.41429853 4.14044189 10.86360168 C4.1472699 11.97055893 4.1540979 13.07751617 4.16113281 14.21801758 C4.17074036 15.47644974 4.1803479 16.7348819 4.19024658 18.03144836 C4.1950952 19.40247414 4.19937387 20.77350203 4.203125 22.14453125 C4.20888187 23.55694072 4.21463953 24.96935018 4.22039795 26.38175964 C4.23089072 29.34150556 4.23674453 32.30122445 4.24023438 35.26098633 C4.24571305 39.04036157 4.26973459 42.81937547 4.29820633 46.59863758 C4.31689644 49.51642375 4.3220417 52.434124 4.32357025 55.35196495 C4.32658336 56.74453391 4.33456628 58.13710183 4.34775543 59.52961159 C4.46854415 73.2636022 4.46854415 73.2636022 1 79 C-2.12942465 80.56471233 -5.61082223 80.69701958 -9 80 C-11.98251037 77.73989638 -12.91165132 76.55442459 -13.50793457 72.8125 C-13.51111694 71.554375 -13.51429932 70.29625 -13.51757812 69 C-13.5245874 68.30358398 -13.53159668 67.60716797 -13.53881836 66.88964844 C-13.55639196 64.59269068 -13.54477919 62.29696979 -13.53125 60 C-13.53394513 58.40103927 -13.53782773 56.80208013 -13.54284668 55.203125 C-13.54874082 51.85400774 -13.54018192 48.50531757 -13.52148438 45.15625 C-13.49869435 40.86521409 -13.51181796 36.57517889 -13.53577423 32.28417969 C-13.5502348 28.98299634 -13.54562515 25.68204989 -13.53526306 22.38085938 C-13.53259646 20.79882692 -13.53586322 19.21677289 -13.54518127 17.63476562 C-13.55535179 15.42259837 -13.5398419 13.212047 -13.51757812 11 C-13.51439575 9.741875 -13.51121338 8.48375 -13.50793457 7.1875 C-12.91031133 3.4371664 -11.95654976 2.29584031 -9 0 C-5.8168485 -1.59157575 -3.38676935 -0.77242108 0 0 Z " fill="#ffffff" transform="translate(197,324)"/>
</svg>