<svg version="1.1" xmlns="http://www.w3.org/2000/svg" width="512px" height="512px" transform="rotate(0) scale(1, 1)">
<path d="M0 0 C1.01790619 0.00215515 2.03581238 0.0043103 3.08456421 0.00653076 C17.69363523 0.05620146 32.02575853 0.30709809 46.375 3.3125 C47.34985352 3.51117676 48.32470703 3.70985352 49.32910156 3.91455078 C88.38660539 12.08468046 124.82400319 27.71035417 156.375 52.3125 C157.25929688 52.98539063 158.14359375 53.65828125 159.0546875 54.3515625 C174.64162389 66.45260257 189.26666068 80.75087979 201.375 96.3125 C202.15101563 97.2715625 202.92703125 98.230625 203.7265625 99.21875 C238.25804162 142.62975232 256.81395322 197.76040062 256.69067383 253.03979492 C256.6875221 255.97938487 256.71104926 258.9179558 256.73632812 261.85742188 C256.78098737 275.23056192 255.57551542 288.12666711 253.375 301.3125 C253.09281616 303.01805054 253.09281616 303.01805054 252.80493164 304.75805664 C245.77946967 343.86954746 228.79665906 381.05202178 204.375 412.3125 C203.61574219 413.28445313 202.85648437 414.25640625 202.07421875 415.2578125 C189.73986402 430.63741644 175.93895499 445.19015196 160.375 457.3125 C159.43914062 458.07691406 158.50328125 458.84132813 157.5390625 459.62890625 C125.58628299 485.2157721 86.41988322 501.72551276 46.375 509.3125 C45.56562988 509.47621094 44.75625977 509.63992188 43.92236328 509.80859375 C13.88110013 515.67977137 -20.7615176 514.58512909 -50.625 508.3125 C-52.14794678 507.99901611 -52.14794678 507.99901611 -53.70166016 507.67919922 C-90.84546555 499.78695344 -125.70945445 483.68345578 -155.625 460.3125 C-156.59695312 459.55324219 -157.56890625 458.79398437 -158.5703125 458.01171875 C-173.94991644 445.67736402 -188.50265196 431.87645499 -200.625 416.3125 C-201.77162109 414.90871094 -201.77162109 414.90871094 -202.94140625 413.4765625 C-228.5282721 381.52378299 -245.03801276 342.35738322 -252.625 302.3125 C-252.78871094 301.50312988 -252.95242187 300.69375977 -253.12109375 299.85986328 C-258.59069558 271.87335724 -258.46977511 238.21828161 -252.625 210.3125 C-252.42632324 209.33764648 -252.22764648 208.36279297 -252.02294922 207.35839844 C-241.7272891 158.1397446 -219.29081567 114.71000304 -184.625 78.3125 C-184.05475098 77.71356934 -183.48450195 77.11463867 -182.89697266 76.49755859 C-174.89943802 68.16006957 -166.68545927 60.51490955 -157.40185547 53.63183594 C-155.57021053 52.27181818 -153.75559517 50.89100626 -151.94140625 49.5078125 C-143.51406667 43.1394627 -134.81758485 37.50780214 -125.625 32.3125 C-124.99464844 31.94946777 -124.36429688 31.58643555 -123.71484375 31.21240234 C-85.96656579 9.60246645 -43.19754839 -0.16448837 0 0 Z M-155.625 96.3125 C-156.12241699 96.78268555 -156.61983398 97.25287109 -157.13232422 97.73730469 C-165.13838763 105.33444934 -172.03249721 113.47194153 -178.625 122.3125 C-179.05022949 122.87163086 -179.47545898 123.43076172 -179.91357422 124.00683594 C-187.16970107 133.56450244 -193.10360829 143.66807576 -198.625 154.3125 C-199.01574707 155.06128418 -199.40649414 155.81006836 -199.80908203 156.58154297 C-215.67172991 187.3682599 -223.08020261 221.12664341 -223 255.625 C-222.99912384 256.54836151 -222.99824768 257.47172302 -222.99734497 258.42306519 C-222.81378459 317.25448491 -199.15704805 371.11475135 -158.625 413.3125 C-157.7690625 414.2096875 -156.913125 415.106875 -156.03125 416.03125 C-150.26417803 421.9443238 -144.1837581 427.29642238 -137.625 432.3125 C-136.98030762 432.8065332 -136.33561523 433.30056641 -135.67138672 433.80957031 C-124.83901324 442.03586549 -113.72845013 449.11374313 -101.625 455.3125 C-100.8820166 455.69889648 -100.1390332 456.08529297 -99.37353516 456.48339844 C-47.31468466 483.31692993 13.98450289 486.84888824 69.49414062 469.26123047 C102.96928428 458.23712808 132.08101384 439.60803934 157.375 415.3125 C158.72078125 414.02859375 158.72078125 414.02859375 160.09375 412.71875 C166.0068238 406.95167803 171.35892238 400.8712581 176.375 394.3125 C176.8690332 393.66780762 177.36306641 393.02311523 177.87207031 392.35888672 C186.09836549 381.52651324 193.17624313 370.41595013 199.375 358.3125 C199.76139648 357.5695166 200.14779297 356.8265332 200.54589844 356.06103516 C216.52200045 325.06632592 223.83334112 291.15893906 223.75 256.4375 C223.74912384 255.5403125 223.74824768 254.643125 223.74734497 253.71875 C223.55922394 195.06143939 199.70451388 141.38198287 159.375 99.3125 C158.48039062 98.36503906 157.58578125 97.41757813 156.6640625 96.44140625 C149.75998731 89.30449568 142.30488392 83.24414885 134.375 77.3125 C133.81441895 76.88582031 133.25383789 76.45914063 132.67626953 76.01953125 C123.12016384 68.76526124 113.01727007 62.83277431 102.375 57.3125 C101.62621582 56.92175293 100.87743164 56.53100586 100.10595703 56.12841797 C16.70694409 13.15764006 -86.89826482 30.68228687 -155.625 96.3125 Z " fill="#ffffff" transform="translate(255.625,-0.3125)"/>
<path d="M0 0 C4.80573582 2.61707707 7.09652397 6.22707191 8.8125 11.375 C8.90539649 12.82099123 8.94336494 14.27087557 8.94672108 15.71984386 C8.95117892 16.61263269 8.95563676 17.50542151 8.96022969 18.42526454 C8.96004533 19.40715182 8.95986097 20.3890391 8.95967102 21.40068054 C8.96334771 22.44298869 8.9670244 23.48529685 8.9708125 24.55919009 C8.98186887 28.069006 8.98569649 31.57879232 8.98950195 35.08862305 C8.99576511 37.59822179 9.00241178 40.1078196 9.00941467 42.61741638 C9.02865591 50.16094692 9.03924497 57.70447227 9.04814246 65.2480211 C9.05252613 68.80092072 9.05789275 72.35381885 9.06313133 75.9067173 C9.08014351 87.71836252 9.09463739 99.53000682 9.10188007 111.34166241 C9.10378995 114.40673003 9.10571029 117.47179764 9.10766602 120.53686523 C9.10814976 121.29866763 9.1086335 122.06047002 9.1091319 122.84535734 C9.11743114 135.18440753 9.14276628 147.52336075 9.17524669 159.86236861 C9.20832588 172.5322032 9.22632962 185.20198852 9.22952431 197.87186652 C9.23168866 204.98487188 9.24042611 212.09773583 9.26598549 219.21069908 C9.28997647 225.90263211 9.2935128 232.59426675 9.28322411 239.28624916 C9.28272783 241.74204987 9.28907525 244.19786297 9.30278015 246.65362549 C9.32044957 250.0075234 9.31341632 253.36050294 9.30024719 256.71440125 C9.31121644 257.68513492 9.32218568 258.65586859 9.33348733 259.65601844 C9.27663562 265.65747362 8.36620882 270.41960292 4.8125 275.375 C-0.42565851 279.54414657 -4.51075422 280.92227424 -11.1875 280.375 C-17.21937971 278.12715872 -22.01690068 274.37105019 -26.875 270.25 C-28.28270696 269.08064882 -29.69157564 267.91269484 -31.1015625 266.74609375 C-31.79282227 266.1722998 -32.48408203 265.59850586 -33.19628906 265.00732422 C-35.9997669 262.70913236 -38.86613301 260.50922338 -41.75 258.3125 C-47.07176119 254.25219332 -52.31028354 250.09947229 -57.52929688 245.90820312 C-61.75126222 242.51934913 -65.99053637 239.15409941 -70.25 235.8125 C-70.82427734 235.36197266 -71.39855469 234.91144531 -71.99023438 234.44726562 C-73.72224723 233.08932079 -75.45476919 231.73202859 -77.1875 230.375 C-85.63493832 223.75919144 -94.05075774 217.10674167 -102.421875 210.39453125 C-103.33356445 209.69432861 -103.33356445 209.69432861 -104.26367188 208.97998047 C-106.1875 207.375 -106.1875 207.375 -108.12695312 205.25830078 C-114.48168775 198.90779513 -120.17414792 198.56065344 -128.72637939 198.49455261 C-131.54776726 198.51196534 -134.36672746 198.56460319 -137.1875 198.625 C-161.24630703 198.95880668 -161.24630703 198.95880668 -171.5 192.1875 C-177.66075891 185.74019416 -180.29839756 179.03987281 -180.36450195 170.20068359 C-180.37107315 169.47343079 -180.37764435 168.74617798 -180.38441467 167.99688721 C-180.40412932 165.58906953 -180.41580874 163.18131431 -180.42578125 160.7734375 C-180.42985678 159.94894733 -180.4339323 159.12445717 -180.43813133 158.27498245 C-180.45898845 153.90744529 -180.47328934 149.53993947 -180.48266602 145.17236328 C-180.49370449 140.67676897 -180.52807541 136.18167317 -180.56783772 131.6862545 C-180.59408069 128.21679817 -180.60236484 124.74745898 -180.60594749 121.27791214 C-180.61079694 119.62182896 -180.62236377 117.96575044 -180.64098549 116.30976486 C-180.75221641 105.75888762 -180.01095211 98.05555742 -174 89.125 C-169.18975714 84.42165143 -163.07772784 80.59791221 -156.19274902 80.28407288 C-155.14117615 80.30599953 -155.14117615 80.30599953 -154.06835938 80.32836914 C-153.26652222 80.34070084 -152.46468506 80.35303253 -151.6385498 80.36573792 C-150.77814087 80.38039597 -149.91773193 80.39505402 -149.03125 80.41015625 C-147.18490283 80.41619135 -145.33854445 80.41935191 -143.4921875 80.41992188 C-140.59898917 80.4216318 -137.70990559 80.43699875 -134.81738281 80.50170898 C-121.00744461 81.00266824 -121.00744461 81.00266824 -109.2734375 74.6484375 C-107.54774532 72.92043989 -105.84802143 71.16571434 -104.1875 69.375 C-102.9641931 68.34693672 -101.72040611 67.34198993 -100.4453125 66.37890625 C-98.21208576 64.63854875 -95.98051977 62.89616085 -93.75 61.15234375 C-92.56258271 60.22645642 -91.37508344 59.30067421 -90.1875 58.375 C-82.77447813 52.59091422 -75.40764901 46.76028638 -68.125 40.8125 C-62.28817999 36.04757807 -56.37901687 31.40054244 -50.390625 26.828125 C-47.00989987 24.2457999 -43.65804733 21.62767685 -40.3125 19 C-39.73862549 18.55060059 -39.16475098 18.10120117 -38.57348633 17.63818359 C-35.4252277 15.16489552 -32.30667078 12.66074358 -29.21484375 10.1171875 C-28.55274902 9.57626465 -27.8906543 9.0353418 -27.20849609 8.47802734 C-25.94144953 7.44095083 -24.67966023 6.39740336 -23.42431641 5.34619141 C-16.3458407 -0.43139643 -8.99325066 -3.98034613 0 0 Z M-28.546875 52.0859375 C-29.59222412 52.95629639 -29.59222412 52.95629639 -30.65869141 53.84423828 C-31.78670166 54.78759033 -31.78670166 54.78759033 -32.9375 55.75 C-39.1802022 60.93377715 -45.49154748 65.97309839 -51.94921875 70.88671875 C-56.19703833 74.13105465 -60.35402422 77.48811534 -64.52075195 80.83544922 C-68.8264129 84.29219262 -73.15383761 87.71933621 -77.5 91.125 C-86.64495624 97.91384294 -86.64495624 97.91384294 -95.1875 105.375 C-95.32381028 107.45362122 -95.38946125 109.53689918 -95.42797852 111.61962891 C-95.44097488 112.27177368 -95.45397125 112.92391846 -95.46736145 113.5958252 C-95.59437963 120.43604509 -95.65088808 127.27751756 -95.70239258 134.11865234 C-95.72910004 137.36283808 -95.77776574 140.6055469 -95.84594727 143.84912109 C-95.92809045 147.76675043 -95.97060613 151.68297759 -95.98545647 155.60142136 C-95.99767697 157.09183759 -96.02364823 158.58220956 -96.06390572 160.07213211 C-96.48696932 168.35381893 -96.48696932 168.35381893 -93.46887207 175.79577637 C-91.45827513 177.57676917 -89.47628289 178.97902604 -87.1875 180.375 C-86.05885881 181.26165273 -84.93934562 182.1602609 -83.8359375 183.078125 C-82.74654953 183.92933786 -81.65536268 184.7782529 -80.5625 185.625 C-79.33981559 186.57939101 -78.11716016 187.53381914 -76.89453125 188.48828125 C-76.27916504 188.9673291 -75.66379883 189.44637695 -75.02978516 189.93994141 C-72.09775057 192.22386657 -69.17320586 194.5172911 -66.25 196.8125 C-65.67556152 197.26334961 -65.10112305 197.71419922 -64.50927734 198.17871094 C-60.21606302 201.55357148 -55.9481238 204.95912659 -51.6875 208.375 C-46.67744507 212.38865563 -41.66191673 216.39508079 -36.625 220.375 C-35.78582031 221.04208984 -35.78582031 221.04208984 -34.9296875 221.72265625 C-31.43491315 224.47637001 -27.90988049 226.89341301 -24.1875 229.375 C-24.1875 169.975 -24.1875 110.575 -24.1875 49.375 C-25.99730743 49.375 -27.21322919 50.9688284 -28.546875 52.0859375 Z M-148.1875 113.375 C-148.1875 130.535 -148.1875 147.695 -148.1875 165.375 C-141.5875 165.375 -134.9875 165.375 -128.1875 165.375 C-128.1875 148.215 -128.1875 131.055 -128.1875 113.375 C-134.7875 113.375 -141.3875 113.375 -148.1875 113.375 Z " fill="#ffffff" transform="translate(275.1875,116.625)"/>
<path d="M0 0 C4.14481815 2.16372991 7.18226791 4.85448173 10.40234375 8.20605469 C10.94592529 8.75529602 11.48950684 9.30453735 12.04956055 9.87042236 C13.76023068 11.60323769 15.45634912 13.34951072 17.15234375 15.09667969 C18.31937287 16.28380206 19.487334 17.47000896 20.65625 18.65527344 C23.4991514 21.54195139 26.32910254 24.44077601 29.15234375 27.34667969 C33.21187606 25.74356761 35.84518681 22.84175203 38.80078125 19.75292969 C39.89945982 18.62895824 40.99842717 17.505269 42.09765625 16.38183594 C43.81523401 14.61466545 45.52945611 12.84448474 47.23828125 11.06884766 C48.89604261 9.35044814 50.56621288 7.64489507 52.23828125 5.94042969 C52.7416098 5.41018188 53.24493835 4.87993408 53.76351929 4.33361816 C57.65438209 0.38878375 61.15312124 -1.43081231 66.6796875 -1.84082031 C72.33087822 -1.40118149 75.61951787 -0.20925605 79.77734375 3.67871094 C82.78616835 7.32862033 83.50592775 10.38696495 83.65234375 15.09667969 C83.70390625 16.08152344 83.75546875 17.06636719 83.80859375 18.08105469 C81.93606955 27.39909177 72.33053113 34.40484816 65.77734375 40.84667969 C64.74432389 41.86964503 63.71176817 42.8930793 62.6796875 43.91699219 C60.17589495 46.39897783 57.6659012 48.87457904 55.15234375 51.34667969 C56.74220604 55.2565421 59.27576467 57.66957053 62.2734375 60.59277344 C62.77400162 61.08576431 63.27456573 61.57875519 63.79029846 62.08668518 C65.92247794 64.18631198 68.06630338 66.2738995 70.20922852 68.36254883 C71.77645119 69.89345227 73.3375296 71.43043611 74.8984375 72.96777344 C75.83357178 73.87970459 76.76870605 74.79163574 77.73217773 75.73120117 C82.82953449 81.23992536 83.70249643 85.11090995 83.50390625 92.46777344 C83.02779331 96.36660939 81.80730615 98.47645006 79.15234375 101.34667969 C78.45109375 102.10980469 77.74984375 102.87292969 77.02734375 103.65917969 C72.92641799 106.06624481 68.88681635 106.72406518 64.15234375 106.34667969 C58.42272015 104.34997323 54.95558974 101.70236362 50.78125 97.36621094 C50.21405746 96.79335861 49.64686493 96.22050629 49.06248474 95.6302948 C47.27024512 93.81583765 45.49249649 91.98791855 43.71484375 90.15917969 C42.49507518 88.91932729 41.27438056 87.68038522 40.05273438 86.44238281 C37.07512658 83.42090204 34.11042562 80.3872743 31.15234375 77.34667969 C27.20358634 78.92884956 24.63804524 81.66972806 21.7578125 84.68652344 C20.70926815 85.76036831 19.66043072 86.83392707 18.61132812 87.90722656 C16.97499775 89.59306102 15.34203721 91.28189594 13.71459961 92.97631836 C12.13384528 94.61791699 10.54052188 96.24648455 8.9453125 97.87402344 C8.46901901 98.37723618 7.99272552 98.88044891 7.5019989 99.39891052 C3.13580894 103.8282715 -1.09088126 105.99581742 -7.28515625 106.78417969 C-13.07514937 106.0731279 -17.26244959 104.013179 -21.28515625 99.78417969 C-23.39076173 96.49943514 -24.01822731 93.8666259 -24.09765625 90.03417969 C-24.13632812 88.92623047 -24.13632812 88.92623047 -24.17578125 87.79589844 C-23.32122588 81.41725302 -19.26691394 77.34982962 -14.8671875 73.07324219 C-14.00790901 72.22033096 -14.00790901 72.22033096 -13.13127136 71.35018921 C-11.31453446 69.55013638 -9.48760959 67.76084537 -7.66015625 65.97167969 C-6.4205339 64.74711742 -5.18159415 63.52186375 -3.94335938 62.29589844 C-0.91929678 59.3047687 2.1139429 56.32324063 5.15234375 53.34667969 C3.54605773 49.28453671 0.64190575 46.63164922 -2.44140625 43.66308594 C-3.56522177 42.55969008 -4.68891597 41.45617065 -5.8125 40.35253906 C-7.58099756 38.62752915 -9.35189323 36.9050713 -11.12548828 35.18530273 C-12.84145516 33.51773003 -14.54801886 31.84095934 -16.25390625 30.16308594 C-16.78415405 29.6545961 -17.31440186 29.14610626 -17.86071777 28.62220764 C-22.03498873 24.50440901 -24.11647976 20.85385736 -24.22265625 14.97167969 C-24.09050337 10.00768702 -22.81443595 7.32841033 -19.84765625 3.34667969 C-13.63473651 -1.47150297 -7.40656062 -3.6319293 0 0 Z " fill="#ffffff" transform="translate(333.84765625,203.6533203125)"/>
</svg>