<svg version="1.1" xmlns="http://www.w3.org/2000/svg" width="512px" height="512px" transform="rotate(0) scale(1, 1)">
<path d="M0 0 C2.24698013 0.00319278 4.49268063 -0.02049146 6.73950195 -0.0456543 C8.1815576 -0.04792484 9.62361675 -0.04863193 11.06567383 -0.04760742 C12.35836182 -0.05058838 13.6510498 -0.05356934 14.98291016 -0.05664062 C18.63809675 0.33916706 20.50853349 1.12291874 23.42114258 3.31567383 C26.12981699 7.32943682 26.09770216 11.63822485 25.42114258 16.31567383 C23.05469156 20.43505152 20.86107167 21.88257454 16.42114258 23.31567383 C13.41357422 23.57104492 13.41357422 23.57104492 10.08129883 23.58911133 C8.85983154 23.6066748 7.63836426 23.62423828 6.37988281 23.64233398 C5.09412354 23.65828613 3.80836426 23.67423828 2.48364258 23.69067383 C-15.3714846 24.13576388 -31.35716829 27.0939847 -44.57885742 40.31567383 C-56.85167544 54.89789308 -62.50103376 69.75821744 -61.36791992 88.87426758 C-59.78700849 102.25235769 -55.17269395 112.9730915 -46.57885742 123.31567383 C-46.05807617 123.96149414 -45.53729492 124.60731445 -45.00073242 125.27270508 C-37.99073382 133.11469847 -26.72524395 138.87489297 -16.57885742 141.31567383 C-15.53661499 141.5735263 -15.53661499 141.5735263 -14.47331715 141.83658791 C-10.74300818 142.45402214 -7.07178738 142.45891923 -3.30265808 142.45370483 C-2.47254678 142.45652611 -1.64243547 142.45934739 -0.78716928 142.46225417 C1.99297085 142.47058331 4.77307107 142.47193702 7.55322266 142.47338867 C9.54767977 142.47805839 11.54213581 142.48320221 13.53659058 142.48878479 C17.83303032 142.50006041 22.12946314 142.50849744 26.42591286 142.51490402 C33.23153373 142.52560106 40.03710518 142.54585295 46.84269714 142.56802368 C66.19621501 142.62988265 85.54973045 142.68386884 104.90332031 142.71704102 C115.59136875 142.73544068 126.27933476 142.76444697 136.96732253 142.80504572 C142.61727713 142.82603313 148.26712818 142.84156116 153.91712379 142.843853 C159.2417064 142.84601526 164.56607378 142.86204413 169.89059067 142.88824272 C171.83344393 142.89537852 173.77632343 142.89756485 175.71918678 142.89414024 C191.8646987 142.87024986 206.66686473 144.09330005 221.42114258 151.31567383 C222.78819336 151.96149414 222.78819336 151.96149414 224.18286133 152.62036133 C243.26257896 162.25548264 255.98365972 178.60415247 263.42114258 198.31567383 C270.64335877 220.63659982 268.1393937 243.4911866 257.92895508 264.36645508 C253.53624986 272.46878935 247.88366207 278.84373375 241.42114258 285.31567383 C240.7637207 285.98469727 240.10629883 286.6537207 239.42895508 287.34301758 C218.7566598 306.90628414 191.09676806 307.63553473 164.35473633 307.61645508 C162.06266707 307.62035067 159.77059852 307.62468709 157.47853088 307.62944031 C152.70734295 307.63685124 147.93622911 307.63664602 143.16503906 307.63134766 C137.05884817 307.62551948 130.9529573 307.64258931 124.84681606 307.66569233 C120.12759132 307.6804242 115.40843929 307.68130279 110.68919563 307.6781826 C108.4369859 307.67869476 106.18477199 307.68391263 103.93258476 307.69399452 C100.79111931 307.70634879 97.65024523 307.69957612 94.50878906 307.68798828 C93.58661591 307.69563202 92.66444275 307.70327576 91.71432495 307.71115112 C86.18652304 307.66614766 82.3042857 306.96997192 77.42114258 304.31567383 C75.0200117 301.73445814 73.54612498 299.90919947 73.26489258 296.32348633 C73.62157306 291.59746999 75.01086944 288.72594697 78.42114258 285.31567383 C80.76056176 284.14596424 82.13662449 284.18606517 84.74346924 284.17764282 C85.65154327 284.17218948 86.55961731 284.16673615 87.49520874 284.16111755 C88.4946048 284.16007523 89.49400085 284.1590329 90.52368164 284.15795898 C91.57437836 284.15287827 92.62507507 284.14779755 93.70761108 284.14256287 C95.99714568 284.13183917 98.28669088 284.12322689 100.57624054 284.11644363 C104.20963509 284.10466218 107.84291038 284.08520651 111.47625732 284.06332397 C121.8100583 284.00171553 132.1438501 283.94784259 142.4777832 283.91430664 C148.79553951 283.89325109 155.11308332 283.85785009 161.43071747 283.81354904 C163.83061962 283.79946264 166.23055942 283.79068339 168.63050079 283.78749466 C191.43843146 283.88805408 191.43843146 283.88805408 212.79614258 276.56567383 C213.47040283 276.21206787 214.14466309 275.85846191 214.83935547 275.49414062 C227.88410937 268.44791923 237.06475144 256.51606484 241.42114258 242.31567383 C241.64415039 241.63762695 241.8671582 240.95958008 242.09692383 240.26098633 C246.37386165 224.8407343 243.01272791 208.47992571 235.48754883 194.71020508 C226.47012913 179.89709031 212.80295278 171.89907779 196.27392101 167.7806673 C192.55051551 167.17376449 188.88138136 167.17587432 185.12043762 167.18437195 C183.87126203 167.18119838 183.87126203 167.18119838 182.59685057 167.17796069 C179.80755511 167.17197171 177.01830502 167.1729601 174.22900391 167.17382812 C172.2279401 167.17079568 170.22687698 167.16727399 168.22581482 167.16329956 C163.91464473 167.15541321 159.60348291 167.15026647 155.2923069 167.1470089 C148.46093352 167.14108815 141.62961197 167.12453496 134.79826355 167.10566711 C132.45649818 167.0993295 130.11473277 167.09300388 127.77296734 167.08668995 C126.6000515 167.08352414 125.42713567 167.08035833 124.21867692 167.07709658 C108.31815726 167.03509185 92.41766126 167.00208245 76.51708984 166.98974609 C65.78872006 166.9813371 55.06047831 166.95873815 44.33217257 166.92039043 C38.6620026 166.90071813 32.99202365 166.88819555 27.3218174 166.89322472 C21.97583764 166.89790821 16.63021847 166.88386568 11.28431129 166.85621262 C9.33584782 166.84936148 7.38734656 166.84910766 5.43888474 166.85641289 C-9.6037398 166.90705736 -25.55910747 166.06478113 -39.01635742 158.56567383 C-39.66483643 158.22205811 -40.31331543 157.87844238 -40.98144531 157.52441406 C-61.0151929 146.63591478 -75.2511955 130.03449427 -82.01391602 108.26367188 C-82.20034668 107.62083252 -82.38677734 106.97799316 -82.57885742 106.31567383 C-82.7717334 105.65543213 -82.96460937 104.99519043 -83.16333008 104.31494141 C-88.8269903 82.33358516 -84.74858176 58.48479533 -73.63452148 39.05786133 C-71.02874734 34.75749031 -67.97551775 31.0079694 -64.57885742 27.31567383 C-63.84151367 26.48680664 -63.10416992 25.65793945 -62.34448242 24.80395508 C-45.63235103 6.97222012 -23.97472865 -0.07139271 0 0 Z " fill="#0f0" transform="translate(164.578857421875,100.684326171875)"/>
<path d="M0 0 C22.58022112 19.70214232 35.28918797 45.580188 37.56298828 75.36376953 C39.16451743 100.51118462 31.11848655 127.90087764 14.57470703 147.10986328 C13.91083984 147.85365234 13.24697266 148.59744141 12.56298828 149.36376953 C11.88880859 150.17974609 11.21462891 150.99572266 10.52001953 151.83642578 C-2.87965111 167.62802305 -20.78445956 177.56118409 -40.43701172 183.36376953 C-41.59201172 183.70537109 -42.74701172 184.04697266 -43.93701172 184.39892578 C-66.79266424 189.98297725 -91.12637692 186.81673594 -112.43701172 177.36376953 C-113.94328125 176.70248047 -113.94328125 176.70248047 -115.47998047 176.02783203 C-123.22326582 172.40161043 -129.80445418 167.73078336 -136.43701172 162.36376953 C-137.21818359 161.74888672 -137.99935547 161.13400391 -138.80419922 160.50048828 C-157.96844732 144.57574831 -170.33669585 119.89454773 -173.43701172 95.36376953 C-175.47996328 64.62405231 -169.78187592 36.97342935 -149.65185547 12.86376953 C-111.28070866 -30.44757784 -45.03043206 -38.17828025 0 0 Z M-128.43701172 24.36376953 C-129.17951172 25.09466797 -129.92201172 25.82556641 -130.68701172 26.57861328 C-144.47498273 41.03982507 -151.54180709 61.66829262 -151.46826172 81.48876953 C-150.88635704 104.3944165 -141.70456437 124.42744593 -126.03466797 140.88720703 C-108.16801084 157.85618771 -86.53526662 164.09358275 -62.46435547 163.66845703 C-41.69975312 162.88439809 -21.37886596 152.48240305 -7.14794922 137.41845703 C7.4998397 119.82773335 15.96904813 98.43356633 14.56298828 75.36376953 C12.24609177 52.89994682 2.43572426 32.07297513 -14.99951172 17.36376953 C-50.53193723 -9.99781078 -96.64928363 -7.37880553 -128.43701172 24.36376953 Z " fill="#0f0" transform="translate(173.43701171875,324.63623046875)"/>
<path d="M0 0 C17.42129921 13.88431412 28.26855752 32.51617552 32.09765625 54.46875 C32.50214802 58.89623318 32.57634956 63.27469944 32.53515625 67.71875 C32.52613281 68.89896729 32.51710938 70.07918457 32.5078125 71.29516602 C32.3194067 80.85610635 31.21243048 89.43569442 28.09765625 98.46875 C27.70296143 99.62866455 27.70296143 99.62866455 27.30029297 100.81201172 C20.81719666 119.33671645 10.94464062 135.89778048 -0.90234375 151.46875 C-1.34046387 152.04963379 -1.77858398 152.63051758 -2.22998047 153.22900391 C-7.93408327 160.76121312 -13.94379882 167.89067993 -20.40234375 174.78515625 C-22.53863798 177.07833458 -24.60937141 179.40538261 -26.65234375 181.78125 C-29.40084126 184.95057009 -32.28199355 187.93863588 -35.28125 190.87109375 C-36.71370529 192.28283885 -38.09375266 193.74733517 -39.46484375 195.21875 C-43.16119049 198.63076237 -46.27384623 200.25764847 -51.27734375 200.90625 C-59.41836338 199.92371315 -64.46715094 195.44543638 -69.71484375 189.46875 C-70.31594971 188.80302979 -70.91705566 188.13730957 -71.53637695 187.45141602 C-72.75683099 186.09932694 -73.97296562 184.74332541 -75.18457031 183.38330078 C-76.72238072 181.66932846 -78.2824326 179.98278261 -79.86328125 178.30859375 C-86.19256929 171.57125706 -91.94990041 164.53343411 -97.56591797 157.19921875 C-98.85958594 155.52411488 -100.17522936 153.86931682 -101.5 152.21875 C-107.28605552 144.95979957 -112.25523078 137.42486344 -116.83203125 129.34960938 C-117.86815406 127.52883152 -118.93096503 125.72578661 -119.99609375 123.921875 C-133.10033242 101.16122404 -139.16117366 74.38143004 -133.90234375 48.46875 C-130.13205892 34.59694732 -124.56102768 22.25254944 -114.90234375 11.46875 C-114.16242188 10.63472656 -113.4225 9.80070312 -112.66015625 8.94140625 C-83.30982054 -22.28542633 -34.06434366 -24.83427241 0 0 Z M-99.41796875 28.48046875 C-110.13707091 42.74862487 -114.6425122 59.53277917 -112.4375 77.19140625 C-107.53179763 108.99254374 -86.10795424 136.41217541 -64.90234375 159.46875 C-60.51124481 164.41888002 -56.19993119 169.43742812 -51.90234375 174.46875 C-50.74869718 173.31510343 -49.5957321 172.16077078 -48.4453125 171.00390625 C-47.41658715 169.98038964 -46.37741495 168.96726715 -45.328125 167.96484375 C-40.9456294 163.72536665 -37.10354547 159.16439757 -33.28515625 154.4140625 C-30.89031634 151.45388333 -28.43188239 148.55637379 -25.96484375 145.65625 C-7.13777738 123.0404551 12.69818582 93.25392212 9.91357422 62.43115234 C7.72793167 44.80085543 -0.25865942 29.91838239 -13.90234375 18.46875 C-41.08245083 -0.42077418 -77.58133299 2.33753991 -99.41796875 28.48046875 Z " fill="#0f0" transform="translate(479.90234375,17.53125)"/>
<path d="M0 0 C2.1895961 1.11335395 4.37172267 2.24149728 6.546875 3.3828125 C7.59617187 3.9190625 8.64546875 4.4553125 9.7265625 5.0078125 C14.68367615 7.55143884 19.61386788 10.14472008 24.5378418 12.75170898 C33.39240544 17.43631615 42.28054852 22.04298969 51.22265625 26.55859375 C52.23615143 27.07131836 53.24964661 27.58404297 54.29385376 28.11230469 C58.46289 30.22115987 62.63206602 32.32960625 66.80737305 34.42602539 C69.90777448 35.98395511 73.00306871 37.55165428 76.09765625 39.12109375 C77.03515213 39.58888748 77.97264801 40.05668121 78.93855286 40.53865051 C90.84464795 46.6033584 90.84464795 46.6033584 93.296875 51.5078125 C93.5703125 53.71484375 93.5703125 53.71484375 93.671875 56.3203125 C93.72085938 57.17238281 93.76984375 58.02445312 93.8203125 58.90234375 C93.0574561 62.69954687 91.19913284 63.96372375 88.296875 66.5078125 C85.57037298 68.22681026 82.7301462 69.67474081 79.8515625 71.12109375 C79.02131561 71.54795975 78.19106873 71.97482574 77.33566284 72.41462708 C74.66040546 73.78769294 71.9787024 75.14763193 69.296875 76.5078125 C67.52973676 77.4135044 65.76313396 78.3202418 63.99707031 79.22802734 C57.49569855 82.56616382 50.98400818 85.88394163 44.46960449 89.19656372 C34.68771431 94.17078063 24.91025514 99.14312144 15.2421875 104.3359375 C13.90882212 105.04687606 12.57533109 105.75757904 11.24169922 106.46801758 C8.85384611 107.74043235 6.48232477 109.0336086 4.11376953 110.3425293 C-2.20831922 113.7115563 -6.51961185 115.34576967 -13.703125 114.5078125 C-17.60444502 112.84767632 -19.10394291 111.3627311 -20.703125 107.5078125 C-21.74874316 100.7667904 -19.86344445 95.20370879 -17.31640625 89.046875 C-16.61823144 87.25816711 -15.92099433 85.46909298 -15.22460938 83.6796875 C-14.12383106 80.90135739 -13.01355158 78.12772592 -11.88549805 75.36035156 C-6.05565928 62.59139191 -6.05565928 62.59139191 -7.38989258 49.27197266 C-8.03994263 47.90371338 -8.03994263 47.90371338 -8.703125 46.5078125 C-9.44492933 44.56856965 -10.14581925 42.61654058 -10.84953308 40.66317749 C-11.62579753 38.51825281 -12.42465697 36.38324751 -13.23242188 34.25 C-13.5043335 33.53166992 -13.77624512 32.81333984 -14.05639648 32.07324219 C-14.61442178 30.60803794 -15.17597181 29.14417144 -15.7409668 27.68164062 C-21.74487216 12.08852644 -21.74487216 12.08852644 -20.703125 4.5078125 C-15.77431833 -4.30930121 -8.11548757 -3.8626346 0 0 Z M11.296875 32.5078125 C11.48644775 33.15202148 11.67602051 33.79623047 11.87133789 34.45996094 C12.36741747 36.14738451 12.8618969 37.83527871 13.35546875 39.5234375 C13.99001682 41.53503389 14.69276959 43.526208 15.45703125 45.4921875 C18.2088359 52.69352035 18.69059209 57.20442886 16.296875 64.5078125 C16.09787598 65.13252441 15.89887695 65.75723633 15.69384766 66.40087891 C14.29215031 70.79300246 12.81729616 75.15546186 11.296875 79.5078125 C15.49080149 77.91167252 19.4928661 75.99036282 23.50390625 73.98828125 C24.53024422 73.47760857 24.53024422 73.47760857 25.57731628 72.95661926 C27.02090048 72.23735014 28.46394995 71.51700695 29.90649414 70.7956543 C32.08980689 69.70508679 34.27623348 68.62095217 36.46289062 67.53710938 C43.28013915 64.14178806 49.94514585 60.73399569 56.296875 56.5078125 C53.59256906 53.27651678 50.06728246 51.702532 46.35546875 49.890625 C45.67315689 49.55159149 44.99084503 49.21255798 44.28785706 48.86325073 C42.10612303 47.78075545 39.92038178 46.70664885 37.734375 45.6328125 C36.29073958 44.91852638 34.84737728 44.20368799 33.40429688 43.48828125 C30.62888573 42.1132632 27.85202867 40.74124511 25.07373047 39.37207031 C20.47189364 37.10306387 15.88224902 34.80988864 11.296875 32.5078125 Z " fill="#0f0" transform="translate(79.703125,349.4921875)"/>
<path d="M0 0 C9.84877424 8.1489858 15.50140855 18.78822961 17.62109375 31.28515625 C18.72485447 45.61595113 15.62183232 57.93939767 6.62109375 69.28515625 C-1.67863073 78.37802846 -12.8640001 85.00401357 -25.4296875 85.5859375 C-26.85013227 85.60541374 -28.2708724 85.60889211 -29.69140625 85.59765625 C-30.4405127 85.5920166 -31.18961914 85.58637695 -31.96142578 85.58056641 C-44.18783493 85.31345256 -55.12248788 80.55626917 -64.12890625 72.22265625 C-74.45712191 61.24545038 -78.10890393 49.04070066 -77.6875 34.38671875 C-76.98286262 21.85528378 -71.19883013 10.58845301 -62.19140625 1.97265625 C-43.99459757 -13.12418503 -19.17767189 -13.82429879 0 0 Z M-48.31640625 21.09765625 C-53.08256049 27.21272207 -55.04029046 32.69561078 -54.78515625 40.4453125 C-53.6593993 48.31478655 -49.48108501 54.09396021 -43.33984375 58.9453125 C-37.59131018 62.8730954 -31.14390119 63.16634962 -24.37890625 62.28515625 C-15.83341811 59.53883007 -10.83621987 54.62641031 -6.50390625 46.97265625 C-4.44840377 40.23517589 -4.52414932 33.67700056 -7.33984375 27.1640625 C-10.94354765 20.6475904 -16.09027479 15.86116843 -23.33203125 13.703125 C-32.72037834 11.78603886 -41.72507337 13.95126376 -48.31640625 21.09765625 Z " fill="#0f0" transform="translate(458.37890625,47.71484375)"/>
<path d="M0 0 C0.93549683 -0.00619858 1.87099365 -0.01239716 2.83483887 -0.01878357 C4.80833905 -0.02587235 6.78189914 -0.02272419 8.75537109 -0.01000977 C11.77162827 0.003862 14.78478565 -0.03023514 17.80078125 -0.06835938 C19.72135492 -0.06931057 21.64193247 -0.06745173 23.5625 -0.0625 C24.91112122 -0.08238731 24.91112122 -0.08238731 26.2869873 -0.10267639 C30.80356366 -0.03563666 32.67913929 0.08899502 36.32617188 2.98071289 C39.07769331 6.6197443 39.61624606 8.84633904 39.57421875 13.4609375 C39.1037074 16.84234572 37.41865472 18.98894761 35.28125 21.56640625 C33.00943601 22.70231324 31.7106671 22.71002338 29.1862793 22.7434082 C28.34167648 22.75624344 27.49707367 22.76907867 26.62687683 22.78230286 C25.71231216 22.78968979 24.7977475 22.79707672 23.85546875 22.8046875 C22.91572708 22.81275925 21.97598541 22.82083099 21.00776672 22.82914734 C19.0163457 22.84299178 17.0249009 22.85371232 15.03344727 22.86157227 C11.99124032 22.87877904 8.95012175 22.92266107 5.90820312 22.96679688 C3.97396633 22.97692429 2.03972029 22.98544024 0.10546875 22.9921875 C-0.80302322 23.00969559 -1.7115152 23.02720367 -2.64753723 23.04524231 C-6.85248384 23.03083833 -9.10549587 22.94964676 -12.74291992 20.67651367 C-15.0545143 18.20782342 -16.05163385 16.90198698 -16.71875 13.56640625 C-16.40020902 9.12275955 -15.85931923 5.79230094 -12.76391602 2.46533203 C-8.49153574 -0.19886855 -4.94294079 -0.02726823 0 0 Z " fill="#0f0" transform="translate(223.71875,100.43359375)"/>
<path d="M0 0 C0.93691177 -0.00761353 1.87382355 -0.01522705 2.83912659 -0.02307129 C4.81858661 -0.033866 6.79810356 -0.03672795 8.77758789 -0.03222656 C11.80256335 -0.03125445 14.82500024 -0.0728781 17.84960938 -0.1171875 C19.7747343 -0.12239484 21.69986803 -0.12508269 23.625 -0.125 C24.52721786 -0.14139526 25.42943573 -0.15779053 26.35899353 -0.17468262 C30.88743344 -0.12496714 32.76724888 -0.01543996 36.42602539 2.88085938 C39.52913829 6.99299799 40.08732352 10.37759121 39.37890625 15.46875 C36.37890625 20.96875 36.37890625 20.96875 33.37890625 22.46875 C32.0169942 22.5777224 30.65008085 22.62768479 29.28393555 22.64575195 C28.43933273 22.65858719 27.59472992 22.67142242 26.72453308 22.68464661 C25.80996841 22.69203354 24.89540375 22.69942047 23.953125 22.70703125 C23.01338333 22.715103 22.07364166 22.72317474 21.10542297 22.73149109 C19.11400195 22.74533553 17.12255715 22.75605607 15.13110352 22.76391602 C12.08889657 22.78112279 9.047778 22.82500482 6.00585938 22.86914062 C4.07162258 22.87926804 2.13737654 22.88778399 0.203125 22.89453125 C-0.70536697 22.91203934 -1.61385895 22.92954742 -2.54988098 22.94758606 C-6.77522653 22.9331122 -9.0150219 22.84798766 -12.6706543 20.56054688 C-15.57684324 17.4437329 -16.44752129 14.69760631 -16.62109375 10.46875 C-15.58294644 6.95058411 -14.57323443 4.51765356 -12.10522461 1.79882812 C-8.205595 -0.28915046 -4.3579923 0.00097072 0 0 Z " fill="#0f0" transform="translate(295.62109375,100.53125)"/>
</svg>