<svg version="1.1" xmlns="http://www.w3.org/2000/svg" width="512px" height="512px" transform="rotate(0) scale(1, 1)">
<path d="M0 0 C0.96988861 0.00182281 1.93977722 0.00364563 2.9390564 0.00552368 C17.28821045 0.05090947 31.25780259 0.54677062 45.375 3.3125 C46.28797852 3.47878906 47.20095703 3.64507812 48.14160156 3.81640625 C92.74477944 12.0227831 134.43779656 32.29814534 168.375 62.3125 C169.62796875 63.39917969 169.62796875 63.39917969 170.90625 64.5078125 C181.98147413 74.2525714 192.32614912 84.65212414 201.375 96.3125 C202.138125 97.24707031 202.90125 98.18164062 203.6875 99.14453125 C211.52838144 108.93306753 217.99686966 119.53001208 224.375 130.3125 C224.95894531 131.28993164 224.95894531 131.28993164 225.5546875 132.28710938 C240.6865154 157.91450963 250.06326154 187.9580857 254.375 217.3125 C254.55232666 218.51712891 254.72965332 219.72175781 254.91235352 220.96289062 C256.511325 232.62017354 256.7334053 244.18436098 256.6875 255.9375 C256.68476578 257.39233292 256.68476578 257.39233292 256.68197632 258.8765564 C256.63659053 273.22571045 256.14072938 287.19530259 253.375 301.3125 C253.20871094 302.22547852 253.04242188 303.13845703 252.87109375 304.07910156 C244.6647169 348.68227944 224.38935466 390.37529656 194.375 424.3125 C193.65054687 425.1478125 192.92609375 425.983125 192.1796875 426.84375 C182.4349286 437.91897413 172.03537586 448.26364912 160.375 457.3125 C159.44042969 458.075625 158.50585938 458.83875 157.54296875 459.625 C147.75443247 467.46588144 137.15748792 473.93436966 126.375 480.3125 C125.72337891 480.70179688 125.07175781 481.09109375 124.40039062 481.4921875 C98.77299037 496.6240154 68.7294143 506.00076154 39.375 510.3125 C38.17037109 510.48982666 36.96574219 510.66715332 35.72460938 510.84985352 C24.06732646 512.448825 12.50313902 512.6709053 0.75 512.625 C-0.70483292 512.62226578 -0.70483292 512.62226578 -2.1890564 512.61947632 C-16.53821045 512.57409053 -30.50780259 512.07822938 -44.625 509.3125 C-45.53797852 509.14621094 -46.45095703 508.97992188 -47.39160156 508.80859375 C-91.99477944 500.6022169 -133.68779656 480.32685466 -167.625 450.3125 C-168.4603125 449.58804687 -169.295625 448.86359375 -170.15625 448.1171875 C-181.23147413 438.3724286 -191.57614912 427.97287586 -200.625 416.3125 C-201.388125 415.37792969 -202.15125 414.44335938 -202.9375 413.48046875 C-210.77838144 403.69193247 -217.24686966 393.09498792 -223.625 382.3125 C-224.20894531 381.33506836 -224.20894531 381.33506836 -224.8046875 380.33789062 C-239.9365154 354.71049037 -249.31326154 324.6669143 -253.625 295.3125 C-253.80232666 294.10787109 -253.97965332 292.90324219 -254.16235352 291.66210938 C-255.761325 280.00482646 -255.9834053 268.44063902 -255.9375 256.6875 C-255.93567719 255.71761139 -255.93385437 254.74772278 -255.93197632 253.7484436 C-255.88659053 239.39928955 -255.39072938 225.42969741 -252.625 211.3125 C-252.45871094 210.39952148 -252.29242188 209.48654297 -252.12109375 208.54589844 C-243.9147169 163.94272056 -223.63935466 122.24970344 -193.625 88.3125 C-192.90054688 87.4771875 -192.17609375 86.641875 -191.4296875 85.78125 C-181.6849286 74.70602587 -171.28537586 64.36135088 -159.625 55.3125 C-158.69042969 54.549375 -157.75585938 53.78625 -156.79296875 53 C-147.00443247 45.15911856 -136.40748792 38.69063034 -125.625 32.3125 C-124.97337891 31.92320313 -124.32175781 31.53390625 -123.65039062 31.1328125 C-98.02299037 16.0009846 -67.9794143 6.62423846 -38.625 2.3125 C-37.42037109 2.13517334 -36.21574219 1.95784668 -34.97460938 1.77514648 C-23.31732646 0.176175 -11.75313902 -0.0459053 0 0 Z M-0.625 158.3125 C-5.93446385 166.52764059 -7.47190587 173.90744213 -5.4609375 183.4921875 C-2.83070178 192.36616035 3.34258123 198.72300641 9.5625 205.2890625 C12.97791281 208.91210628 16.09396564 212.76072599 19.20703125 216.64453125 C20.94649045 218.78516302 22.71312222 220.88774783 24.51049805 222.97924805 C25.04781052 223.6048613 25.58512299 224.23047455 26.13871765 224.87504578 C26.54669083 225.34940567 26.954664 225.82376556 27.375 226.3125 C26.77000199 226.31581015 26.16500399 226.31912029 25.54167271 226.32253075 C10.79246593 226.40389821 -3.95664671 226.49603526 -18.70571041 226.60002708 C-25.83837191 226.65006035 -32.97102246 226.69650397 -40.10375977 226.734375 C-46.32366187 226.7674086 -52.54347653 226.8073018 -58.76328188 226.85529006 C-62.05389344 226.88044264 -65.34443701 226.90123297 -68.63511467 226.91584396 C-72.31668424 226.9327734 -75.99797653 226.96182534 -79.67944336 226.99365234 C-80.75982376 226.99581253 -81.84020416 226.99797272 -82.95332336 227.00019836 C-93.60255621 227.11747927 -102.23911625 228.53128423 -110.31640625 235.84375 C-115.66819067 241.53085925 -118.75667738 248.49178307 -119.125 256.3125 C-118.72270544 264.59198167 -115.32577273 271.56063069 -109.68359375 277.5546875 C-100.82202342 285.12149329 -91.13826233 285.45917801 -80.02001953 285.51782227 C-78.85846848 285.52772186 -77.69691742 285.53762146 -76.50016785 285.54782104 C-72.66940331 285.57935199 -68.83862638 285.60416031 -65.0078125 285.62890625 C-62.34837426 285.64948303 -59.68894159 285.67043296 -57.0295105 285.69187927 C-50.75048377 285.74169752 -44.47143214 285.78667643 -38.19235694 285.82990164 C-31.04117572 285.87936719 -23.89003925 285.93425062 -16.73890138 285.98958123 C-2.03431007 286.10323432 12.67032585 286.21010935 27.375 286.3125 C26.75427109 287.0000235 26.13354218 287.687547 25.4940033 288.39590454 C24.68121414 289.29731171 23.86842499 290.19871887 23.03100586 291.12744141 C22.22465195 292.0212149 21.41829803 292.9149884 20.58750916 293.83584595 C18.29789633 296.39880885 16.09122236 299.00943075 13.9375 301.6875 C11.16363271 305.13175904 8.33773889 308.51060471 5.43701172 311.84863281 C-1.59801026 320.03303129 -7.19980433 328.12994311 -6.625 339.3125 C-5.3350675 347.39607697 -1.83808514 353.9148507 4.5546875 359.0703125 C11.92762665 364.20902767 18.38595755 366.21697022 27.375 365.3125 C39.65396028 362.34038417 47.21959601 352.87245581 54.7890625 343.46875 C57.73178522 339.8419428 60.80357073 336.3303115 63.875 332.8125 C67.60933485 328.53060558 71.29959909 324.22917172 74.875 319.8125 C80.00362131 313.48376255 85.36774671 307.36544166 90.71533203 301.22216797 C94.83729243 296.47930621 98.93324122 291.714469 103.00244141 286.92626953 C104.31430325 285.38386349 105.63163165 283.84611192 106.94921875 282.30859375 C114.37463938 273.48400295 119.83480243 265.82025074 119.64453125 254.0234375 C118.71745432 244.69892465 113.33703967 238.14243152 107.375 231.3125 C106.34333841 230.12014766 105.3121167 228.92741464 104.28125 227.734375 C102.59892842 225.79059644 100.91458123 223.84872264 99.22485352 221.91137695 C96.04344153 218.26109628 92.92147642 214.5771145 89.875 210.8125 C85.79678284 205.77821728 81.56882942 200.88739292 77.31469727 196.00219727 C73.78266085 191.94392699 70.28041584 187.86318283 66.8125 183.75 C61.4696084 177.41496881 56.0877144 171.11433837 50.68066406 164.83398438 C49.53907368 163.50369431 48.40556554 162.1664771 47.2734375 160.828125 C40.86207818 153.31525461 35.03721828 148.31457639 24.92578125 146.9921875 C14.80395019 146.51549216 5.94452459 150.6334557 -0.625 158.3125 Z " fill="#ffffff" transform="translate(255.625,-0.3125)"/>
</svg>