<svg version="1.1" xmlns="http://www.w3.org/2000/svg" width="512px" height="512px" transform="rotate(0) scale(1, 1)">
<path d="M0 0 C4.91893774 4.33353093 9.77369371 8.71274158 14.52734375 13.2265625 C15.06149902 13.73203613 15.5956543 14.23750977 16.14599609 14.75830078 C24.44404761 22.66672611 31.70349525 31.02385171 38.52734375 40.2265625 C38.95112305 40.78956055 39.37490234 41.35255859 39.81152344 41.93261719 C76.81711047 91.2259933 92.48749745 154.77368736 84.00610352 215.76342773 C78.56194032 250.30704771 66.55495652 284.38145191 46.52734375 313.2265625 C46.00946289 313.97599121 45.49158203 314.72541992 44.95800781 315.49755859 C37.44635359 326.26075492 29.387848 336.18563932 20.18261719 345.54052734 C18.59609359 347.15653501 17.0325888 348.79196011 15.47265625 350.43359375 C8.38885835 357.80612071 0.72297498 364.13017107 -7.47265625 370.2265625 C-8.03710449 370.65179199 -8.60155273 371.07702148 -9.18310547 371.51513672 C-39.87526731 394.55418807 -75.70609899 408.8925487 -113.47265625 415.2265625 C-114.68179687 415.4328125 -115.8909375 415.6390625 -117.13671875 415.8515625 C-172.89806503 424.15629587 -234.1994738 410.35475895 -280.47265625 378.2265625 C-281.22208496 377.70868164 -281.97151367 377.19080078 -282.74365234 376.65722656 C-293.50684867 369.14557234 -303.43173307 361.08706675 -312.78662109 351.88183594 C-314.40262876 350.29531234 -316.03805386 348.73180755 -317.6796875 347.171875 C-325.05221446 340.0880771 -331.37626482 332.42219373 -337.47265625 324.2265625 C-338.11050049 323.37989014 -338.11050049 323.37989014 -338.76123047 322.51611328 C-361.79101358 291.83629842 -376.22798083 255.99642903 -382.47265625 218.2265625 C-382.6010791 217.50339844 -382.72950195 216.78023438 -382.86181641 216.03515625 C-392.78669953 158.40142936 -376.22967621 95.71642163 -343.35546875 48.1640625 C-341.43952554 45.48025099 -339.47777908 42.84424831 -337.47265625 40.2265625 C-336.85003906 39.41058594 -336.22742188 38.59460938 -335.5859375 37.75390625 C-330.24100949 30.91283206 -324.44741951 24.51537886 -318.47265625 18.2265625 C-317.96573242 17.69095703 -317.45880859 17.15535156 -316.93652344 16.60351562 C-309.02963777 8.30695811 -300.67364137 1.04913141 -291.47265625 -5.7734375 C-290.9096582 -6.1972168 -290.34666016 -6.62099609 -289.76660156 -7.05761719 C-256.89951489 -31.73163898 -218.15062443 -46.59575294 -177.47265625 -51.7734375 C-176.75513184 -51.86915039 -176.03760742 -51.96486328 -175.29833984 -52.06347656 C-113.59269428 -59.34137769 -47.48595921 -40.24233832 0 0 Z M-239.49609375 82.05078125 C-239.94210938 82.66566406 -240.388125 83.28054687 -240.84765625 83.9140625 C-241.30914062 84.51605469 -241.770625 85.11804688 -242.24609375 85.73828125 C-246.5329528 94.43487111 -245.7573896 104.27175605 -245.73144531 113.7109375 C-245.73415898 115.37251946 -245.73772202 117.03410021 -245.74206543 118.69567871 C-245.75114695 123.18737261 -245.74766272 127.67897414 -245.74130726 132.17066956 C-245.73622527 136.88298787 -245.74094481 141.59529855 -245.74407959 146.30761719 C-245.74771284 154.2194154 -245.74293698 162.13117622 -245.73339844 170.04296875 C-245.72251513 179.17534254 -245.72604116 188.307627 -245.73705125 197.43999863 C-245.74614241 205.29673906 -245.74740046 213.15345269 -245.74217391 221.01019669 C-245.73906427 225.69573683 -245.73861715 230.38123505 -245.74524689 235.06677246 C-245.75104636 239.47288674 -245.74697603 243.87888643 -245.73545837 248.2849884 C-245.73282567 249.89699616 -245.73355299 251.50901364 -245.7379837 253.12101746 C-246.23971705 267.56845687 -246.23971705 267.56845687 -240.84765625 280.5390625 C-240.40164062 281.15394531 -239.955625 281.76882813 -239.49609375 282.40234375 C-233.32616777 287.96480597 -226.96951327 288.82724802 -218.91015625 288.7578125 C-217.91943115 288.7616394 -216.92870605 288.76546631 -215.90795898 288.76940918 C-213.82372007 288.77211812 -211.73944655 288.7648287 -209.65527344 288.74804688 C-206.48164413 288.72662317 -203.31027841 288.74788391 -200.13671875 288.7734375 C-198.10285963 288.77079404 -196.06900191 288.7656687 -194.03515625 288.7578125 C-193.09534912 288.76590942 -192.15554199 288.77400635 -191.18725586 288.78234863 C-183.52802574 288.67438957 -178.17912389 286.87288642 -172.66015625 281.4765625 C-166.61187478 272.49054431 -167.03741887 263.72859129 -167.06860352 253.32080078 C-167.06289555 251.60187335 -167.05592964 249.8829497 -167.04780579 248.16403198 C-167.02990535 243.51103517 -167.03103702 238.85822726 -167.03674817 234.20520639 C-167.03984486 230.3137098 -167.03374215 226.42224924 -167.02770942 222.53075778 C-167.01367572 213.34615813 -167.01521558 204.1616515 -167.02661133 194.97705078 C-167.03808861 185.51801983 -167.02402078 176.05927255 -166.99721485 166.60027897 C-166.97502539 158.46412736 -166.96842787 150.32806458 -166.97429127 142.19188488 C-166.97765462 137.3391286 -166.97528732 132.48655408 -166.95804024 127.63382339 C-166.94252161 123.06838608 -166.94658096 118.50336739 -166.96534538 113.93794632 C-166.96901784 112.26830625 -166.96596221 110.59863482 -166.95545959 108.92902374 C-166.70693926 94.61840033 -166.70693926 94.61840033 -173.22264957 82.30142403 C-179.49939385 76.4436676 -185.45230664 75.90993885 -193.7421875 75.890625 C-194.73715744 75.8839682 -195.73212738 75.8773114 -196.75724792 75.87045288 C-198.85938676 75.86034352 -200.96155758 75.85563533 -203.0637207 75.85595703 C-206.26372797 75.85159173 -209.46234663 75.81527489 -212.66210938 75.77734375 C-214.70963073 75.77147351 -216.7571586 75.7675055 -218.8046875 75.765625 C-219.75390579 75.75125397 -220.70312408 75.73688293 -221.68110657 75.72207642 C-228.7406912 75.77011765 -234.17774933 77.25605761 -239.49609375 82.05078125 Z M-126.28515625 82.9765625 C-132.33343772 91.96258069 -131.90789363 100.72453371 -131.87670898 111.13232422 C-131.88241695 112.85125165 -131.88938286 114.5701753 -131.89750671 116.28909302 C-131.91540715 120.94208983 -131.91427548 125.59489774 -131.90856433 130.24791861 C-131.90546764 134.1394152 -131.91157035 138.03087576 -131.91760308 141.92236722 C-131.93163678 151.10696687 -131.93009692 160.2914735 -131.91870117 169.47607422 C-131.90722389 178.93510517 -131.92129172 188.39385245 -131.94809765 197.85284603 C-131.97028711 205.98899764 -131.97688463 214.12506042 -131.97102123 222.26124012 C-131.96765788 227.1139964 -131.97002518 231.96657092 -131.98727226 236.81930161 C-132.00279089 241.38473892 -131.99873154 245.94975761 -131.97996712 250.51517868 C-131.97629466 252.18481875 -131.97935029 253.85449018 -131.98985291 255.52410126 C-132.23837324 269.83472467 -132.23837324 269.83472467 -125.72266293 282.15170097 C-119.49181303 287.96662658 -113.6176475 288.53535368 -105.38671875 288.52734375 C-104.41157318 288.53162888 -103.43642761 288.535914 -102.43173218 288.54032898 C-100.37246475 288.54606203 -98.31317708 288.5465801 -96.25390625 288.54223633 C-93.1155309 288.53908047 -89.97810239 288.56253444 -86.83984375 288.58789062 C-84.8346366 288.59016424 -82.82942693 288.59086683 -80.82421875 288.58984375 C-79.89171295 288.5990535 -78.95920715 288.60826324 -77.9984436 288.61775208 C-70.23641363 288.5630762 -64.14166404 286.89557029 -58.47265625 281.2265625 C-54.17121974 274.46302429 -53.34972572 268.06674999 -53.33894348 260.11174011 C-53.33554515 259.07226958 -53.33554515 259.07226958 -53.33207816 258.01179963 C-53.32577507 255.70210377 -53.32656514 253.39246715 -53.32739258 251.08276367 C-53.32439877 249.42162501 -53.32099573 247.76048704 -53.31721497 246.09934998 C-53.30839308 241.59510867 -53.30603761 237.09088637 -53.30539918 232.58663726 C-53.30468762 229.77002436 -53.3025513 226.95341628 -53.29990196 224.13680458 C-53.29065439 214.30335814 -53.28656632 204.46992525 -53.28735352 194.63647461 C-53.28795408 185.48201584 -53.27740483 176.32761603 -53.26160985 167.17317218 C-53.24851772 159.30375841 -53.24317033 151.43436389 -53.24380893 143.56493932 C-53.24406343 138.86928789 -53.24123854 134.17368887 -53.23063087 129.47804832 C-53.22092179 125.05967161 -53.22088994 120.64139713 -53.22814751 116.22301674 C-53.22918987 114.6061704 -53.22685123 112.9893176 -53.22078705 111.3724823 C-52.70231143 96.90466762 -52.70231143 96.90466762 -58.09765625 83.9140625 C-58.76667969 82.99173828 -58.76667969 82.99173828 -59.44921875 82.05078125 C-65.61914473 76.48831903 -71.97579923 75.62587698 -80.03515625 75.6953125 C-81.5212439 75.68957214 -81.5212439 75.68957214 -83.03735352 75.68371582 C-85.12159243 75.68100688 -87.20586595 75.6882963 -89.29003906 75.70507812 C-92.46366837 75.72650183 -95.63503409 75.70524109 -98.80859375 75.6796875 C-100.84245287 75.68233096 -102.87631059 75.6874563 -104.91015625 75.6953125 C-106.31986694 75.68316711 -106.31986694 75.68316711 -107.75805664 75.67077637 C-115.41728676 75.77873543 -120.76618861 77.58023858 -126.28515625 82.9765625 Z " fill="#ffffff" transform="translate(405.47265625,73.7734375)"/>
</svg>