<svg version="1.1" xmlns="http://www.w3.org/2000/svg" width="512px" height="512px" transform="rotate(0) scale(1, 1)">
<path d="M0 0 C0.91297852 0.16628906 1.82595703 0.33257812 2.76660156 0.50390625 C44.3986228 8.16363077 83.16052206 26.40624883 116 53 C116.54446777 53.44005371 117.08893555 53.88010742 117.64990234 54.33349609 C131.72173929 65.81174863 144.93680647 78.57719064 156 93 C156.75925781 93.93070312 157.51851563 94.86140625 158.30078125 95.8203125 C184.1596216 128.07168914 200.62794761 167.52514646 208 208 C208.16371094 208.83563477 208.32742188 209.67126953 208.49609375 210.53222656 C213.78656862 238.24163521 213.41678597 270.35093304 208 298 C207.83371094 298.91297852 207.66742188 299.82595703 207.49609375 300.76660156 C199.83636923 342.3986228 181.59375117 381.16052206 155 414 C154.55994629 414.54446777 154.11989258 415.08893555 153.66650391 415.64990234 C142.18825137 429.72173929 129.42280936 442.93680647 115 454 C114.06929688 454.75925781 113.13859375 455.51851563 112.1796875 456.30078125 C79.92831086 482.1596216 40.47485354 498.62794761 0 506 C-0.83563477 506.16371094 -1.67126953 506.32742188 -2.53222656 506.49609375 C-30.24163521 511.78656862 -62.35093304 511.41678597 -90 506 C-90.91297852 505.83371094 -91.82595703 505.66742188 -92.76660156 505.49609375 C-134.3986228 497.83636923 -173.16052206 479.59375117 -206 453 C-206.54446777 452.55994629 -207.08893555 452.11989258 -207.64990234 451.66650391 C-221.72173929 440.18825137 -234.93680647 427.42280936 -246 413 C-246.75925781 412.06929688 -247.51851562 411.13859375 -248.30078125 410.1796875 C-274.1596216 377.92831086 -290.62794761 338.47485354 -298 298 C-298.16371094 297.16436523 -298.32742188 296.32873047 -298.49609375 295.46777344 C-303.78656862 267.75836479 -303.41678597 235.64906696 -298 208 C-297.83371094 207.08702148 -297.66742188 206.17404297 -297.49609375 205.23339844 C-289.83636923 163.6013772 -271.59375117 124.83947794 -245 92 C-244.55994629 91.45553223 -244.11989258 90.91106445 -243.66650391 90.35009766 C-232.18825137 76.27826071 -219.42280936 63.06319353 -205 52 C-204.06929688 51.24074219 -203.13859375 50.48148438 -202.1796875 49.69921875 C-169.92831086 23.8403784 -130.47485354 7.37205239 -90 0 C-89.16436523 -0.16371094 -88.32873047 -0.32742188 -87.46777344 -0.49609375 C-59.75836479 -5.78656862 -27.64906696 -5.41678597 0 0 Z M-106 150 C-108.65574301 155.10570246 -109.43437917 159.3203275 -109.38095093 165.08374023 C-109.3856309 165.8688243 -109.39031087 166.65390837 -109.39513266 167.46278286 C-109.40704325 170.07822797 -109.39764102 172.69314528 -109.38818359 175.30859375 C-109.39225105 177.1898733 -109.3975939 179.07115045 -109.40411377 180.9524231 C-109.41777246 186.05154927 -109.41249465 191.15049304 -109.40297651 196.24962234 C-109.39537246 201.59016658 -109.4024276 206.93069537 -109.40713501 212.27124023 C-109.41259038 221.23912353 -109.40540666 230.20693266 -109.39111328 239.17480469 C-109.37478722 249.53757514 -109.38007588 259.90016852 -109.3965925 270.26293468 C-109.41021357 279.16588702 -109.41212398 288.0687861 -109.40427649 296.97174549 C-109.39960341 302.28660293 -109.39896514 307.60137718 -109.40888596 312.91622925 C-109.41756234 317.91331126 -109.41152133 322.91016532 -109.39420319 327.90722275 C-109.39024195 329.73937476 -109.39136617 331.57154602 -109.39799118 333.40369034 C-109.40621117 335.90813771 -109.39587994 338.41185846 -109.38095093 340.91625977 C-109.38764309 341.63815711 -109.39433526 342.36005445 -109.40123022 343.10382748 C-109.34275689 348.17464045 -108.30277401 351.57288529 -106 356 C-103.39957959 358.17873062 -101.70401757 358.90106262 -98.359375 359.37109375 C-93.61616422 358.84713442 -90.51621748 356.68625859 -86.5625 354.125 C-85.76682617 353.62395752 -84.97115234 353.12291504 -84.15136719 352.60668945 C-78.69749359 349.15253319 -73.31282592 345.59305232 -67.96264648 341.98071289 C-62.41322863 338.2410619 -56.77642108 334.64567976 -51.125 331.0625 C-44.62823693 326.94323352 -38.13926475 322.81444734 -31.6875 318.625 C-24.6443772 314.05289238 -17.57502324 309.52257133 -10.5 305 C-2.83063943 300.09713423 4.82936042 295.18105276 12.46435547 290.22485352 C17.7361673 286.80699815 23.02934668 283.42327127 28.32592773 280.04394531 C32.59422984 277.31865037 36.85745749 274.58551309 41.11865234 271.84912109 C42.92742459 270.68833131 44.73745783 269.52950162 46.54931641 268.37353516 C48.68501536 267.00847246 50.8125792 265.63175729 52.9375 264.25 C53.53965332 263.86835693 54.14180664 263.48671387 54.76220703 263.09350586 C57.8198121 261.08407948 59.82301057 259.52379152 61 256 C61.50406055 251.26183087 60.71495893 248.86142538 58 245 C55.92151311 243.25964259 55.92151311 243.25964259 53.4921875 241.8359375 C52.59717529 241.27729004 51.70216309 240.71864258 50.7800293 240.14306641 C49.82136963 239.55960449 48.86270996 238.97614258 47.875 238.375 C45.85770512 237.12038286 43.84078113 235.86516917 41.82421875 234.609375 C40.82825684 233.99384766 39.83229492 233.37832031 38.80615234 232.74414062 C35.06727696 230.42027376 31.37417886 228.03047306 27.6875 225.625 C20.64548021 221.05121072 13.57500756 216.5225613 6.5 212 C-1.17073846 207.09625338 -8.83122846 202.17795297 -16.46875 197.22265625 C-22.79576857 193.12226152 -29.14763166 189.06097833 -35.5 185 C-42.51153668 180.51762476 -49.51870228 176.02934666 -56.5 171.5 C-63.17000797 167.17405215 -69.85747613 162.87553747 -76.55200195 158.58764648 C-78.21398849 157.52306704 -79.87555365 156.45782984 -81.53710938 155.39257812 C-82.56126953 154.73708984 -83.58542969 154.08160156 -84.640625 153.40625 C-85.55360352 152.82166016 -86.46658203 152.23707031 -87.40722656 151.63476562 C-88.2628418 151.09529297 -89.11845703 150.55582031 -90 150 C-90.87366211 149.44248047 -91.74732422 148.88496094 -92.64746094 148.31054688 C-97.51364654 145.59970375 -101.83803391 146.51294733 -106 150 Z " fill="#ffffff" transform="translate(301,3)"/>
</svg>