<svg version="1.1" xmlns="http://www.w3.org/2000/svg" width="512px" height="512px" transform="rotate(0) scale(1, 1)">
<path d="M0 0 C0.83686925 -0.00453111 1.67373849 -0.00906223 2.53596741 -0.01373065 C5.35037355 -0.02642775 8.16458749 -0.02475087 10.97901917 -0.02310181 C12.9926529 -0.0290837 15.00628433 -0.03588845 17.01991272 -0.04345703 C22.49711391 -0.06115763 27.97425265 -0.06581409 33.45147967 -0.0670886 C38.01929324 -0.06898513 42.58709218 -0.07633974 47.15490013 -0.08343279 C57.92847466 -0.09972938 68.70201576 -0.10460054 79.4756012 -0.10317993 C90.60067434 -0.1019778 101.72555369 -0.12309112 112.85057777 -0.15466726 C122.39288163 -0.18078912 131.93512204 -0.19154897 141.4774614 -0.19026911 C147.18076735 -0.18975832 152.88390112 -0.19550604 158.58717155 -0.21662521 C163.94946093 -0.23593904 169.31141265 -0.23617914 174.67371368 -0.22159195 C176.64419864 -0.21949429 178.61470436 -0.22426132 180.58515358 -0.23631287 C183.27054926 -0.25167619 185.95476764 -0.24251684 188.64013672 -0.22705078 C189.42408339 -0.23733791 190.20803007 -0.24762503 191.01573271 -0.25822389 C194.56622977 -0.21288154 196.50931085 -0.01937058 199.36776829 2.17113304 C201.91901871 5.6994321 201.35822744 7.99542022 200.88356018 12.26742554 C199.07192751 14.94174043 198.00594941 15.22662913 194.88356018 16.26742554 C192.32436086 16.36093325 189.79283098 16.3977785 187.23373413 16.38768005 C186.4490274 16.38853607 185.66432068 16.38939209 184.85583496 16.39027405 C182.20986178 16.39193336 179.56395144 16.3863989 176.91798401 16.38095093 C174.99525549 16.3806447 173.07252686 16.3807779 171.14979839 16.38131618 C165.99101259 16.38154237 160.83224989 16.37573765 155.67346954 16.36870575 C150.83639451 16.36301971 145.99932514 16.36274311 141.1622467 16.36203003 C127.00684813 16.3567783 112.85145386 16.34281721 98.69606018 16.32992554 C51.26887268 16.29898804 51.26887268 16.29898804 2.88356018 16.26742554 C2.88356018 128.46742554 2.88356018 240.66742554 2.88356018 356.26742554 C90.00356018 356.26742554 177.12356018 356.26742554 266.88356018 356.26742554 C266.88356018 244.06742554 266.88356018 131.86742554 266.88356018 16.26742554 C253.02356018 16.26742554 239.16356018 16.26742554 224.88356018 16.26742554 C219.88356018 13.26742554 219.88356018 13.26742554 217.88356018 10.26742554 C218.20777115 4.21548751 218.20777115 4.21548751 220.08999634 1.57492065 C222.57971783 -0.24006838 224.32700925 -0.12652334 227.39308167 -0.15249634 C229.08514992 -0.17636414 229.08514992 -0.17636414 230.81140137 -0.20071411 C232.03017471 -0.20091553 233.24894806 -0.20111694 234.50465393 -0.20132446 C235.75609695 -0.20893799 237.00753998 -0.21655151 238.29690552 -0.22439575 C240.94598556 -0.2352114 243.59417436 -0.23940997 246.24317932 -0.23355103 C249.6343025 -0.22765554 253.02399358 -0.25823607 256.41483974 -0.29866791 C259.65308456 -0.33076699 262.89127451 -0.32642862 266.12965393 -0.32632446 C267.9547776 -0.35091736 267.9547776 -0.35091736 269.81677246 -0.37600708 C270.94797012 -0.36670166 272.07916779 -0.35739624 273.24464417 -0.34780884 C274.23931198 -0.34986328 275.2339798 -0.35191772 276.25878906 -0.35403442 C278.88356018 0.26742554 278.88356018 0.26742554 281.20761108 2.44337463 C283.11149903 5.65151293 283.37047722 7.36752986 283.33766174 11.06747437 C283.33720856 12.77868217 283.33720856 12.77868217 283.33674622 14.52445984 C283.31610107 15.74545883 283.29545593 16.96645782 283.27418518 18.22445679 C283.26852539 19.48255661 283.2628656 20.74065643 283.2570343 22.03688049 C283.23846062 25.36965339 283.20257134 28.7013177 283.15821838 32.03378296 C283.11718139 35.43904069 283.09900545 38.84441328 283.07887268 42.24984741 C283.03479148 48.92267847 282.96786715 55.59498803 282.88356018 62.26742554 C284.82461639 62.25410187 284.82461639 62.25410187 286.80488586 62.24050903 C298.9885594 62.15948968 311.17217842 62.09949197 323.35606003 62.06017685 C329.6202236 62.03928517 335.88417003 62.01093814 342.14820862 61.96566772 C348.19120168 61.92226718 354.23398564 61.89830035 360.2771225 61.88791656 C362.58486982 61.88051484 364.89260546 61.86606136 367.20026398 61.84450531 C370.42795719 61.81554904 373.65478182 61.81146638 376.88258362 61.81332397 C377.84067932 61.79894287 378.79877502 61.78456177 379.78590393 61.76974487 C380.66647461 61.77524353 381.54704529 61.78074219 382.45429993 61.78640747 C383.21754452 61.7827203 383.98078911 61.77903313 384.76716232 61.77523422 C387.82038428 62.48529416 388.92932871 63.84418058 390.88356018 66.26742554 C391.38380617 69.09474617 391.38380617 69.09474617 391.38413143 72.43595982 C391.39394572 73.7100299 391.40376001 74.98409999 391.41387171 76.29677826 C391.40453223 77.7135559 391.39481665 79.13033111 391.38476562 80.54710388 C391.38865705 82.04985072 391.39429621 83.55259388 391.40153652 85.05532831 C391.41633202 89.19080233 391.40608588 93.32589717 391.39179981 97.46135914 C391.38071715 101.91880323 391.39262358 106.37619295 391.40164185 110.83363342 C391.41559448 119.56784425 391.40800339 128.30191077 391.39296626 137.03611476 C391.37613107 147.20042668 391.37931324 157.36470239 391.38306034 167.52902394 C391.38894255 185.66003403 391.3747528 203.79097474 391.35011292 221.92196655 C391.32618754 239.52908936 391.31910957 257.13611947 391.3296051 274.74325562 C391.3410051 293.90213346 391.34295602 313.0609684 391.32850701 332.21984571 C391.32698111 334.26132961 391.32546076 336.30281351 391.323946 338.34429741 C391.32318818 339.34883146 391.32243037 340.35336551 391.32164959 341.38833999 C391.31689994 348.47929329 391.318763 355.57022748 391.3230114 362.6611805 C391.32792953 371.29774904 391.32199182 379.9342298 391.3021171 388.5707782 C391.29222113 392.98022507 391.28716473 397.38953806 391.29500961 401.79899216 C391.30203671 405.83116327 391.29533207 409.86306351 391.27740598 413.89519875 C391.2733421 415.35810561 391.2743936 416.82103692 391.28092485 418.28393484 C391.28901292 420.26419233 391.27702164 422.24450202 391.26387691 424.2247324 C391.26233322 425.87838962 391.26233322 425.87838962 391.26075834 427.56545407 C390.88356018 430.26742554 390.88356018 430.26742554 389.54729038 432.08259386 C385.56708637 434.91711102 381.17199744 434.40438991 376.51242065 434.38768005 C375.21613142 434.38896169 375.21613142 434.38896169 373.89365453 434.39026922 C370.98702997 434.39192126 368.08046265 434.38640712 365.17384338 434.38095093 C363.09460959 434.38066897 361.0153757 434.38082696 358.93614197 434.38139343 C353.2815326 434.38168107 347.62694432 434.37578968 341.97233987 434.36881948 C336.06662365 434.36258043 330.16090699 434.3619817 324.25518799 434.36079407 C313.06737915 434.35768238 301.87958005 434.34947117 290.6917755 434.33944458 C277.9567621 434.3282784 265.22174824 434.32277172 252.48673117 434.31774914 C226.28566859 434.30728844 200.08461534 434.28949137 173.88356018 434.26742554 C173.88356018 444.49742554 173.88356018 454.72742554 173.88356018 465.26742554 C181.98990279 465.18889358 181.98990279 465.18889358 190.09596252 465.08724976 C203.31335663 465.02319798 215.25234843 467.24579209 225.28981018 476.47836304 C232.827407 484.93968496 236.13834056 494.63827885 236.37965393 505.78695679 C235.70208996 509.17477662 234.62601348 510.17325859 231.88356018 512.26742554 C229.14287796 512.66037502 226.80363953 512.80836821 224.06446838 512.77536011 C223.27166379 512.78160007 222.4788592 512.78784003 221.66203022 512.79426908 C219.0024991 512.81023825 216.34387953 512.79757985 213.68434143 512.78500366 C211.7789303 512.79042305 209.87352337 512.79754467 207.96812439 512.8062439 C202.79046764 512.82450198 197.61312918 512.81739942 192.43546677 512.80472755 C187.02142722 512.79461278 181.60741523 512.80398899 176.19337463 512.81027222 C167.10079547 512.81755306 158.00834619 512.80794943 148.91578674 512.78890991 C138.3978996 512.76714038 127.88032259 512.77419144 117.36244297 512.79621553 C108.33814365 512.81435706 99.31393778 512.81693395 90.28962612 512.80646086 C84.89710849 512.80021908 79.50473671 512.79940913 74.11222839 512.81260681 C69.04290344 512.82414651 63.97397902 512.81617393 58.90469742 512.79302979 C57.04226472 512.78773264 55.17979841 512.7892736 53.317379 512.79808044 C50.77867887 512.80898003 48.24126942 512.79534092 45.70265198 512.77536011 C44.96218785 512.78428299 44.22172373 512.79320588 43.4588213 512.80239916 C40.01713691 512.74970368 38.19612541 512.50687669 35.42807007 510.38631439 C32.50801212 506.38033276 33.28098546 501.99579248 33.88356018 497.26742554 C36.70841386 485.69822142 42.34452163 477.60483934 52.14137268 470.92758179 C62.04623412 464.93104886 72.08127364 465.12582634 83.32106018 465.20492554 C89.53949768 465.23586304 89.53949768 465.23586304 95.88356018 465.26742554 C95.88356018 455.03742554 95.88356018 444.80742554 95.88356018 434.26742554 C93.34007874 434.28313599 90.79659729 434.29884644 88.17604065 434.31503296 C79.76625262 434.36477352 71.35645805 434.3978924 62.94656181 434.42286205 C57.84833358 434.43850854 52.75025626 434.45972837 47.65211487 434.4937439 C42.73082626 434.52637343 37.80968267 434.54428621 32.88829422 434.55205727 C31.01203758 434.5575943 29.13578876 434.56840682 27.25959396 434.58461571 C24.62870467 434.60643774 21.99841234 434.60939047 19.3674469 434.60800171 C18.20758522 434.62418045 18.20758522 434.62418045 17.02429199 434.64068604 C12.23904747 434.61340801 8.93645498 433.83418076 4.88356018 431.26742554 C3.33769142 428.17568802 3.58996497 425.67313001 3.88356018 422.26742554 C6.00704209 419.40609195 7.19793931 418.38666999 10.73998094 417.77063155 C11.85635871 417.77215043 12.97273648 417.77366931 14.12294388 417.77523422 C15.41279764 417.76727003 16.70265141 417.75930583 18.03159165 417.7511003 C19.46615778 417.7625126 20.90072099 417.77429499 22.33528137 417.78640747 C23.85666305 417.78466372 25.37804355 417.78116243 26.89941764 417.77605081 C31.08631262 417.76708828 35.27279988 417.78313177 39.45964289 417.80316305 C43.97222554 417.82040539 48.48478442 417.81459363 52.99739075 417.81155396 C60.81784278 417.80945455 68.63816152 417.82202541 76.45858002 417.84450531 C87.76562876 417.87698646 99.07261292 417.88742835 110.37970325 417.89245728 C128.72379889 417.90121603 147.06782346 417.92784736 165.41188049 417.96566772 C183.23349151 418.00237279 201.05508314 418.03064606 218.87672424 418.04769897 C220.54077793 418.04930696 220.54077793 418.04930696 222.23844886 418.05094743 C230.91419123 418.05926491 239.58993402 418.06709268 248.26567698 418.07476568 C290.8050366 418.11251381 333.34421837 418.19298376 375.88356018 418.26742554 C375.88356018 306.06742554 375.88356018 193.86742554 375.88356018 78.26742554 C345.19356018 78.26742554 314.50356018 78.26742554 282.88356018 78.26742554 C282.88356018 83.21742554 282.88356018 88.16742554 282.88356018 93.26742554 C285.03846985 93.24647827 287.19337952 93.22553101 289.41358948 93.20394897 C296.53811345 93.1376322 303.66265115 93.09347153 310.78740215 93.06017685 C315.10664908 93.03931333 319.42557943 93.01101867 323.74464417 92.96566772 C327.91381753 92.92216526 332.08268664 92.89827913 336.25206947 92.88791656 C337.84169618 92.88053303 339.43130648 92.8661145 341.02080345 92.84450531 C343.24975268 92.81541145 345.47744928 92.81147183 347.70655823 92.81332397 C349.60851204 92.80000031 349.60851204 92.80000031 351.54888916 92.78640747 C355.78972064 93.39813695 357.26067569 93.8207025 359.88356018 97.26742554 C360.63410402 101.40109092 360.55535326 105.49246895 360.5146637 109.68344116 C360.52539665 111.59125618 360.52539665 111.59125618 360.53634644 113.53761292 C360.55486351 117.02333617 360.54192099 120.5082947 360.52225614 123.99398613 C360.5058703 127.64231125 360.51468242 131.29058791 360.51977539 134.93893433 C360.52429646 141.06564551 360.50842602 147.1920514 360.48048401 153.31869507 C360.44843173 160.40115765 360.44844759 167.48306963 360.46569878 174.56557131 C360.48156472 181.379727 360.47482998 188.19368089 360.45776176 195.00782776 C360.45089058 197.90730666 360.4519243 200.80662384 360.45930672 203.70610046 C360.46839314 207.75484791 360.44443271 211.80274531 360.41700745 215.85140991 C360.42679626 217.65783211 360.42679626 217.65783211 360.43678284 219.50074768 C360.41769615 221.15370598 360.41769615 221.15370598 360.39822388 222.84005737 C360.39541696 223.79721397 360.39261003 224.75437057 360.38971806 225.74053192 C359.72930917 229.03749334 358.5150704 230.23108932 355.88356018 232.26742554 C352.38356018 232.76742554 352.38356018 232.76742554 348.88356018 232.26742554 C345.97638945 230.04879524 345.04374375 228.74797625 343.88356018 225.26742554 C343.79228204 222.54421919 343.75754799 219.84712827 343.77003479 217.12411499 C343.76988876 216.29462341 343.76974274 215.46513184 343.76959229 214.61050415 C343.77028926 211.86721181 343.77807165 209.12398727 343.78590393 206.38070679 C343.78776887 204.47927386 343.78919242 202.57784044 343.79019165 200.67640686 C343.79401083 195.67047806 343.80383602 190.66457824 343.81489563 185.65866089 C343.82692054 179.65311024 343.83151485 173.6475499 343.83734894 167.64199066 C343.84704807 158.51711546 343.86620884 149.39230386 343.88356018 140.26742554 C323.75356018 140.26742554 303.62356018 140.26742554 282.88356018 140.26742554 C282.88356018 211.54742554 282.88356018 282.82742554 282.88356018 356.26742554 C303.01356018 356.26742554 323.14356018 356.26742554 343.88356018 356.26742554 C343.84875549 349.11828491 343.81395081 341.96914429 343.77809143 334.60336304 C343.76276228 330.07340695 343.74832034 325.54348285 343.73707581 321.01351929 C343.71914459 313.82383581 343.69793488 306.634267 343.65724182 299.44467163 C343.6246385 293.64806487 343.60670498 287.85158106 343.59892845 282.05488968 C343.59338673 279.84370615 343.58256514 277.63252933 343.56637001 275.42139816 C343.54458319 272.32353945 343.54159383 269.22618842 343.54298401 266.12826538 C343.52680527 264.75801208 343.52680527 264.75801208 343.51029968 263.3600769 C343.53507873 258.25486789 343.99600498 254.67190813 346.88356018 250.26742554 C349.9752977 248.72155678 352.4778557 248.97383032 355.88356018 249.26742554 C358.07777405 250.60848999 358.07777405 250.60848999 359.88356018 253.26742554 C360.49129192 256.88099982 360.4294642 260.46600042 360.40113831 264.12289429 C360.41165222 265.78199326 360.41165222 265.78199326 360.42237854 267.47460938 C360.44000035 271.13496927 360.42832019 274.79455762 360.41481018 278.45492554 C360.41750387 280.99553577 360.42138526 283.53614501 360.42640686 286.07675171 C360.43230763 291.40311442 360.42410097 296.72919996 360.40504456 302.05551147 C360.38327584 308.21094773 360.39032737 314.36585402 360.41235018 320.52127743 C360.43269763 326.44587042 360.43053347 332.37029892 360.41882324 338.29492188 C360.41615158 340.81475905 360.41944108 343.33460972 360.42874146 345.85443115 C360.43888032 349.3739728 360.42344159 352.89249149 360.40113831 356.41195679 C360.40923523 357.4572757 360.41733215 358.5025946 360.42567444 359.57958984 C360.41439514 360.53852142 360.40311584 361.497453 360.39149475 362.48544312 C360.3892326 363.73313225 360.3892326 363.73313225 360.38692474 365.00602722 C359.67404719 368.20867637 358.46761943 369.25844975 355.88356018 371.26742554 C353.2748346 371.65976414 351.08777771 371.80569236 348.48125362 371.7707901 C347.72958749 371.77660386 346.97792136 371.78241763 346.20347747 371.78840756 C343.670242 371.80307235 341.13796566 371.78909274 338.60473633 371.77536011 C336.77613056 371.77996647 334.94752849 371.78631759 333.11893421 371.79426908 C328.08276611 371.81102181 323.04689981 371.80268913 318.01073039 371.79032421 C312.58395024 371.78130036 307.1572232 371.79523013 301.73045349 371.8062439 C291.095243 371.82406189 280.46014521 371.82017464 269.82493024 371.80859333 C261.18468997 371.79957264 252.54448137 371.79832909 243.90423775 371.8026886 C242.0621224 371.803608 242.0621224 371.803608 240.18279259 371.80454597 C237.68826491 371.80582482 235.19373724 371.80712167 232.69920958 371.80843633 C209.95761136 371.81952599 187.21607075 371.80801136 164.47448233 371.78706595 C143.70301241 371.76808056 122.93164057 371.76978341 102.16017151 371.78890991 C78.83501358 371.81031596 55.50990988 371.81875525 32.18474346 371.80646086 C29.69951793 371.80518661 27.2142924 371.80392913 24.72906685 371.8026886 C22.89471871 371.80176295 22.89471871 371.80176295 21.02331303 371.80081859 C12.38895637 371.79735908 3.75463441 371.80320692 -4.87971687 371.81260681 C-15.395591 371.82380301 -25.91134563 371.82083687 -36.42720599 371.79948384 C-41.79665389 371.78894167 -47.16590228 371.78490534 -52.53534889 371.79808044 C-57.44465852 371.8099447 -62.35358251 371.80354104 -67.26285683 371.78217024 C-69.04473997 371.77767875 -70.82665527 371.78002699 -72.60851795 371.78967339 C-75.01947531 371.80173063 -77.42908885 371.78947323 -79.8399744 371.7707901 C-80.541675 371.78015476 -81.2433756 371.78951943 -81.96633986 371.79916787 C-85.05318323 371.7509224 -86.71188001 371.6315508 -89.04727453 369.52957201 C-90.24350126 366.99858815 -90.49417803 365.3613052 -90.49954987 362.56971741 C-90.51313483 361.1506961 -90.51313483 361.1506961 -90.52699423 359.7030077 C-90.5216663 358.6668315 -90.51633838 357.63065531 -90.510849 356.56307983 C-90.51998565 354.90834797 -90.51998565 354.90834797 -90.52930689 353.22018719 C-90.54600321 349.5105693 -90.54115152 345.80129218 -90.53636169 342.09164429 C-90.54369811 339.43746757 -90.55218978 336.78331672 -90.56202698 334.12915039 C-90.58309287 327.66061115 -90.58762121 321.19216152 -90.58583909 314.72359204 C-90.58453222 309.46722654 -90.58833178 304.21088904 -90.59576416 298.95452881 C-90.59786331 297.44130421 -90.59996091 295.92807961 -90.60205698 294.414855 C-90.60310051 293.66172335 -90.60414404 292.90859169 -90.60521919 292.13263786 C-90.62412572 277.88578267 -90.6230699 263.63897896 -90.61624986 249.39211643 C-90.61067222 236.35200838 -90.63150841 223.31209668 -90.66461033 210.27203453 C-90.69832224 196.88800476 -90.71351892 183.50406911 -90.7088933 170.11999607 C-90.70664631 162.60358609 -90.71192534 155.08735765 -90.73678589 147.57098389 C-90.75776669 141.17307757 -90.76142322 134.77545236 -90.7424863 128.37753463 C-90.73330867 125.11206313 -90.73494126 121.84722688 -90.75284195 118.58177567 C-90.77089898 115.04462215 -90.75838463 111.50888032 -90.73789978 107.97177124 C-90.75667655 106.41750695 -90.75667655 106.41750695 -90.77583265 104.83184338 C-90.68953456 97.91639446 -90.68953456 97.91639446 -87.78601551 94.62846756 C-84.32276462 92.86278247 -81.82421817 92.7861101 -77.93943787 92.81332397 C-77.23645065 92.81273987 -76.53346344 92.81215576 -75.80917358 92.81155396 C-73.49832321 92.81432846 -71.18878202 92.84538764 -68.87815857 92.87680054 C-67.27105412 92.88426525 -65.66394055 92.8899571 -64.05682373 92.89395142 C-59.83650882 92.90918981 -55.61674866 92.94845557 -51.39665222 92.99276733 C-47.08652754 93.03375913 -42.77631282 93.05197074 -38.46604919 93.07211304 C-30.01589704 93.11495223 -21.56630145 93.18528683 -13.11643982 93.26742554 C-13.11643982 88.31742554 -13.11643982 83.36742554 -13.11643982 78.26742554 C-43.80643982 78.26742554 -74.49643982 78.26742554 -106.11643982 78.26742554 C-106.11643982 190.46742554 -106.11643982 302.66742554 -106.11643982 418.26742554 C-76.74643982 418.26742554 -47.37643982 418.26742554 -17.11643982 418.26742554 C-13.11643982 422.26742554 -13.11643982 422.26742554 -12.61643982 425.76742554 C-13.11643982 429.26742554 -13.11643982 429.26742554 -14.92893982 431.64242554 C-19.31662166 434.90184633 -23.87034104 434.4218384 -29.09837341 434.42855835 C-30.01736923 434.43352325 -30.93636505 434.43848816 -31.88320923 434.44360352 C-34.92710617 434.45822338 -37.97095102 434.46502657 -41.01487732 434.47055054 C-43.12853497 434.47630176 -45.2421926 434.4820595 -47.35585022 434.48782349 C-51.78939558 434.49833272 -56.22292281 434.50417602 -60.65647888 434.50765991 C-66.33836865 434.51314701 -72.02001907 434.53718008 -77.70183372 434.56563187 C-82.06842246 434.58425138 -86.43495344 434.58946347 -90.80157852 434.59099579 C-92.89635656 434.59402397 -94.99113353 434.60205804 -97.08587265 434.61518097 C-100.01600643 434.63222826 -102.94555396 434.63036445 -105.87571716 434.62387085 C-106.74134781 434.63308563 -107.60697845 434.64230042 -108.49884033 434.65179443 C-113.64642027 434.61604398 -117.29368377 434.09018159 -121.11643982 430.26742554 C-121.2177589 428.33736602 -121.24752746 426.40354259 -121.2506609 424.47082806 C-121.25511874 423.20334781 -121.25957658 421.93586757 -121.26416951 420.62997884 C-121.2640802 419.20506584 -121.26389032 417.78015284 -121.26361084 416.35523987 C-121.26690749 414.85579928 -121.27063263 413.35635957 -121.27475232 411.85692102 C-121.28480315 407.71672862 -121.28849405 403.57655072 -121.29114163 399.43634784 C-121.29503558 394.97884492 -121.30461451 390.52135359 -121.31335449 386.06385803 C-121.33314467 375.28922988 -121.34318833 364.51460076 -121.35208228 353.73995897 C-121.35646099 348.67132265 -121.36182887 343.60268738 -121.36707115 338.5340519 C-121.38408596 321.69384446 -121.39858139 304.85363768 -121.40581989 288.01342297 C-121.40772992 283.64032681 -121.40965023 279.26723066 -121.41160583 274.89413452 C-121.41208958 273.80716549 -121.41257332 272.72019645 -121.41307171 271.60028896 C-121.42137666 253.98173774 -121.44672029 236.36325431 -121.47918651 218.7447327 C-121.51221657 200.67352204 -121.53026498 182.60234588 -121.53346413 164.53110486 C-121.53563299 154.37772598 -121.5444364 144.22444596 -121.56992531 134.07109642 C-121.59157703 125.42606929 -121.5997101 116.78116501 -121.58995853 108.13611384 C-121.5853977 103.72245955 -121.58740281 99.30905903 -121.60671997 94.89543915 C-121.62423814 90.85811809 -121.62344724 86.82123805 -121.60782268 82.78391305 C-121.60542921 81.32021532 -121.6098594 79.85648795 -121.62165133 78.39283576 C-121.63664828 76.40912641 -121.62477193 74.42526757 -121.61142445 72.44154644 C-121.61240125 71.33786179 -121.61337806 70.23417714 -121.61438447 69.09704751 C-120.99968107 65.60393185 -119.87445365 64.42633545 -117.11643982 62.26742554 C-115.00004196 61.77523422 -115.00004196 61.77523422 -112.68717957 61.78640747 C-111.80660889 61.78090881 -110.92603821 61.77541016 -110.01878357 61.76974487 C-109.06068787 61.78412598 -108.10259216 61.79850708 -107.11546326 61.81332397 C-106.10050781 61.81273987 -105.08555237 61.81215576 -104.0398407 61.81155396 C-100.6848176 61.81434083 -97.33068273 61.84546241 -93.97581482 61.87680054 C-91.64983099 61.88426075 -89.32384087 61.88995472 -86.99784851 61.89395142 C-80.87549999 61.90922489 -74.75353097 61.948522 -68.6313324 61.99276733 C-62.38423293 62.03368278 -56.13707215 62.0519545 -49.88987732 62.07211304 C-37.63189807 62.11501415 -25.3742005 62.18328663 -13.11643982 62.26742554 C-13.12088104 61.58948441 -13.12532227 60.91154327 -13.12989807 60.21305847 C-13.17414767 53.15657662 -13.20431312 46.10013419 -13.2263031 39.04354858 C-13.23636012 36.41006876 -13.25000742 33.77660009 -13.26731873 31.14315796 C-13.29157972 27.35772954 -13.30292602 23.57244878 -13.31175232 19.78695679 C-13.32207489 18.60970535 -13.33239746 17.43245392 -13.34303284 16.2195282 C-13.3431839 15.1187645 -13.34333496 14.01800079 -13.3434906 12.88388062 C-13.34793182 11.91791458 -13.35237305 10.95194855 -13.35694885 9.95671082 C-13.09252231 6.99998855 -12.47638363 4.90311032 -11.11643982 2.26742554 C-7.34425984 -0.24736112 -4.36887719 -0.01721151 0 0 Z M-74.11643982 109.26742554 C-74.11643982 114.21742554 -74.11643982 119.16742554 -74.11643982 124.26742554 C-69.16643982 124.26742554 -64.21643982 124.26742554 -59.11643982 124.26742554 C-59.11643982 119.31742554 -59.11643982 114.36742554 -59.11643982 109.26742554 C-64.06643982 109.26742554 -69.01643982 109.26742554 -74.11643982 109.26742554 Z M-43.11643982 109.26742554 C-43.11643982 114.21742554 -43.11643982 119.16742554 -43.11643982 124.26742554 C-33.21643982 124.26742554 -23.31643982 124.26742554 -13.11643982 124.26742554 C-13.11643982 119.31742554 -13.11643982 114.36742554 -13.11643982 109.26742554 C-23.01643982 109.26742554 -32.91643982 109.26742554 -43.11643982 109.26742554 Z M282.88356018 109.26742554 C282.88356018 114.21742554 282.88356018 119.16742554 282.88356018 124.26742554 C303.01356018 124.26742554 323.14356018 124.26742554 343.88356018 124.26742554 C343.88356018 119.31742554 343.88356018 114.36742554 343.88356018 109.26742554 C323.75356018 109.26742554 303.62356018 109.26742554 282.88356018 109.26742554 Z M-74.11643982 140.26742554 C-74.11643982 211.54742554 -74.11643982 282.82742554 -74.11643982 356.26742554 C-53.98643982 356.26742554 -33.85643982 356.26742554 -13.11643982 356.26742554 C-13.11643982 284.98742554 -13.11643982 213.70742554 -13.11643982 140.26742554 C-33.24643982 140.26742554 -53.37643982 140.26742554 -74.11643982 140.26742554 Z M111.88356018 434.26742554 C111.88356018 444.49742554 111.88356018 454.72742554 111.88356018 465.26742554 C127.06356018 465.26742554 142.24356018 465.26742554 157.88356018 465.26742554 C157.88356018 455.03742554 157.88356018 444.80742554 157.88356018 434.26742554 C142.70356018 434.26742554 127.52356018 434.26742554 111.88356018 434.26742554 Z M54.88356018 490.26742554 C54.28543518 490.98930054 53.68731018 491.71117554 53.07106018 492.45492554 C51.70088476 494.18510142 51.70088476 494.18510142 51.88356018 496.26742554 C106.66356018 496.26742554 161.44356018 496.26742554 217.88356018 496.26742554 C214.94311774 488.91631943 210.71230936 485.74387966 203.88356018 482.26742554 C200.72933044 481.2607433 197.83646453 481.13523425 194.53453064 481.12025452 C193.44964355 481.11309921 192.36475647 481.10594391 191.24699402 481.09857178 C190.06148956 481.09588287 188.87598511 481.09319397 187.65455627 481.09042358 C186.40207092 481.08385239 185.14958557 481.07728119 183.85914612 481.07051086 C179.70842753 481.05077832 175.55774758 481.03911033 171.40699768 481.02914429 C169.97459011 481.02509471 168.54218273 481.02097773 167.10977554 481.0167942 C160.37683956 480.99774937 153.64391447 480.98351862 146.91095674 480.97518224 C139.15695831 480.96542152 131.40324623 480.93912981 123.64934862 480.89868134 C117.6449127 480.86844181 111.64055849 480.85370584 105.63604796 480.85040122 C102.05525909 480.84805906 98.47477636 480.83920874 94.89406967 480.81394005 C90.89217612 480.78615516 86.8909154 480.79051426 82.88893127 480.79745483 C81.7155722 480.78464478 80.54221313 480.77183472 79.33329773 480.75863647 C69.66806358 480.81954885 61.28504073 482.50805517 54.88356018 490.26742554 Z " fill="#00ff00" transform="translate(121.11643981933594,-0.267425537109375)"/>
<path d="M0 0 C14.59706651 11.5311973 24.78780803 28.26344976 27.32275391 46.76855469 C28.98395525 66.33820962 25.09054808 85.11939308 12.27978516 100.55371094 C11.63396484 101.28460938 10.98814453 102.01550781 10.32275391 102.76855469 C9.60474609 103.59226562 8.88673828 104.41597656 8.14697266 105.26464844 C-0.83326532 114.92097634 -12.03113428 121.10021691 -24.67724609 124.76855469 C-25.83546875 125.105 -25.83546875 125.105 -27.01708984 125.44824219 C-44.43546644 129.67966146 -64.06737869 126.3641891 -79.32958984 117.17089844 C-81.86164754 115.45815062 -84.27544085 113.65908456 -86.67724609 111.76855469 C-87.43779297 111.18460937 -88.19833984 110.60066406 -88.98193359 109.99902344 C-102.31833083 99.03918142 -110.3338607 82.73105971 -112.67724609 65.76855469 C-114.32458675 46.25759137 -109.90142383 28.21316008 -97.86474609 12.45605469 C-73.21588736 -16.28526723 -31.18759601 -22.89814181 0 0 Z M-84.67724609 21.76855469 C-94.32127343 34.4388113 -98.05268732 47.95098064 -96.67724609 63.76855469 C-95.3272238 73.50800121 -91.516439 84.55332648 -83.95068359 91.14355469 C-83.20044922 91.67980469 -82.45021484 92.21605469 -81.67724609 92.76855469 C-81.63857422 90.94130859 -81.63857422 90.94130859 -81.59912109 89.07714844 C-81.54280669 87.45341633 -81.48546012 85.8297198 -81.42724609 84.20605469 C-81.40597656 83.00625977 -81.40597656 83.00625977 -81.38427734 81.78222656 C-81.14908782 76.02008324 -80.06807657 72.47603743 -76.67724609 67.76855469 C-74.67724609 66.24511719 -74.67724609 66.24511719 -72.67724609 65.39355469 C-71.68724609 64.94882813 -71.68724609 64.94882813 -70.67724609 64.49511719 C-68.69524529 63.77509346 -66.73219192 63.23642182 -64.67724609 62.76855469 C-64.91701172 61.04958984 -64.91701172 61.04958984 -65.16162109 59.29589844 C-66.59444991 47.74943217 -66.9870762 36.35385568 -61.11474609 26.01855469 C-55.75984553 21.07556955 -49.98600971 18.47320253 -42.67724609 18.14355469 C-35.83734844 18.4692641 -29.94256759 20.53396562 -25.01708984 25.41308594 C-20.19614686 31.63955166 -19.35897112 38.55916037 -19.48974609 46.20605469 C-19.49071289 47.27436523 -19.49071289 47.27436523 -19.49169922 48.36425781 C-19.5315289 53.23675561 -19.99738525 57.94426214 -20.67724609 62.76855469 C-20.08556641 62.92710937 -19.49388672 63.08566406 -18.88427734 63.24902344 C-12.89130109 65.01856455 -8.85270759 67.04166846 -5.57421875 72.65820312 C-4.60705142 74.93370515 -4.3686698 76.63533479 -4.26318359 79.09667969 C-4.22451172 79.89589844 -4.18583984 80.69511719 -4.14599609 81.51855469 C-4.11505859 82.34355469 -4.08412109 83.16855469 -4.05224609 84.01855469 C-4.01357422 84.85902344 -3.97490234 85.69949219 -3.93505859 86.56542969 C-3.84108774 88.63278851 -3.75809046 90.70064096 -3.67724609 92.76855469 C1.06378219 89.54995085 3.1113197 86.11169906 5.51025391 81.08105469 C5.85830078 80.35990479 6.20634766 79.63875488 6.56494141 78.89575195 C12.79328393 65.66201554 13.09499622 51.97921989 8.57666016 37.98339844 C3.41608589 24.75239338 -6.06784906 14.27216687 -18.67724609 7.76855469 C-42.42833599 -2.3619492 -67.01670916 2.54973509 -84.67724609 21.76855469 Z M-47.98974609 35.64355469 C-50.83496352 39.22642107 -50.86547784 41.53594055 -50.92724609 46.08105469 C-50.95302734 47.2115625 -50.97880859 48.34207031 -51.00537109 49.50683594 C-50.61787403 53.35874132 -49.43395744 56.01184335 -46.67724609 58.76855469 C-41.40990961 59.31551699 -41.40990961 59.31551699 -36.73974609 57.45605469 C-34.47663114 53.86169564 -34.48407378 50.53250437 -34.42724609 46.39355469 C-34.40146484 45.27207031 -34.37568359 44.15058594 -34.34912109 42.99511719 C-34.71043858 39.44216186 -35.55170151 37.60605352 -37.67724609 34.76855469 C-41.49905663 32.85764942 -44.67041731 32.95220702 -47.98974609 35.64355469 Z M-65.67724609 78.76855469 C-65.67724609 87.67855469 -65.67724609 96.58855469 -65.67724609 105.76855469 C-50.96841294 111.11722129 -38.64429088 112.81935308 -23.67724609 107.76855469 C-22.35724609 107.10855469 -21.03724609 106.44855469 -19.67724609 105.76855469 C-19.67724609 96.85855469 -19.67724609 87.94855469 -19.67724609 78.76855469 C-28.03595497 76.67887747 -34.36918397 75.28581325 -42.67724609 75.39355469 C-43.57185547 75.38195312 -44.46646484 75.37035156 -45.38818359 75.35839844 C-52.87041361 75.39055702 -58.02586132 76.85570849 -65.67724609 78.76855469 Z " fill="#00ff00" transform="translate(298.67724609375,75.2314453125)"/>
<path d="M0 0 C1.26066284 -0.0087616 2.52132568 -0.01752319 3.82019043 -0.02655029 C7.27077865 -0.04930879 10.72061787 -0.04052246 14.17121887 -0.02465487 C17.78571561 -0.01197757 21.40014912 -0.02374103 25.01464844 -0.03158569 C31.08410126 -0.04067701 37.15324967 -0.02870826 43.22265625 -0.00488281 C50.23532888 0.02232789 57.24727464 0.01351333 64.25992966 -0.01401484 C70.28559965 -0.03671999 76.31105108 -0.03989926 82.33675003 -0.02682149 C85.93356487 -0.01903454 89.53003828 -0.01796408 93.12683105 -0.03450394 C97.13707377 -0.0516576 101.14606761 -0.02787074 105.15625 0 C106.3460144 -0.01012115 107.53577881 -0.02024231 108.76159668 -0.03067017 C117.71525492 0.08477579 117.71525492 0.08477579 120.81542969 2.99990845 C122.578125 5.64697266 122.578125 5.64697266 123.203125 8.64697266 C122.55854937 11.74093568 121.73734646 13.42714712 119.43054199 15.59626389 C115.17895009 18.00780779 109.90201562 17.33431686 105.15625 17.29394531 C103.26525574 17.30708771 103.26525574 17.30708771 101.33605957 17.32049561 C97.88547135 17.3432541 94.43563213 17.33446777 90.98503113 17.31860018 C87.37053439 17.30592288 83.75610088 17.31768635 80.14160156 17.32553101 C74.07214874 17.33462232 68.00300033 17.32265357 61.93359375 17.29882812 C54.92092112 17.27161743 47.90897536 17.28043199 40.89632034 17.30796015 C34.87065035 17.3306653 28.84519892 17.33384457 22.81949997 17.32076681 C19.22268513 17.31297985 15.62621172 17.31190939 12.02941895 17.32844925 C8.01917623 17.34560291 4.01018239 17.32181605 0 17.29394531 C-1.1897644 17.30406647 -2.37952881 17.31418762 -3.60534668 17.32461548 C-12.55900492 17.20916953 -12.55900492 17.20916953 -15.65917969 14.29403687 C-17.421875 11.64697266 -17.421875 11.64697266 -18.046875 8.64697266 C-17.40229937 5.55300963 -16.58109646 3.86679819 -14.27429199 1.69768143 C-10.02270009 -0.71386248 -4.74576562 -0.04037155 0 0 Z " fill="#00ff00" transform="translate(203.421875,216.35302734375)"/>
<path d="M0 0 C0.64589584 -0.00817749 1.29179169 -0.01635498 1.95726013 -0.02478027 C4.0921029 -0.04956814 6.22687957 -0.06613158 8.36181641 -0.08056641 C9.45710096 -0.08855192 9.45710096 -0.08855192 10.57451248 -0.09669876 C14.43817341 -0.12339939 18.30180235 -0.14278559 22.16552734 -0.15722656 C25.36080494 -0.17057515 28.5554453 -0.19844745 31.75048828 -0.23925781 C35.61195583 -0.28857647 39.47284474 -0.3133459 43.3346138 -0.32045364 C44.80423935 -0.32716424 46.27385208 -0.34238167 47.74329758 -0.36634445 C49.80220465 -0.39800911 51.85888157 -0.39803322 53.91796875 -0.390625 C55.67311295 -0.40275528 55.67311295 -0.40275528 57.4637146 -0.41513062 C61.55371983 0.38070853 63.03998164 1.96121507 65.58837891 5.19287109 C66.15087891 8.75537109 66.15087891 8.75537109 65.58837891 12.19287109 C63.389331 15.1617114 62.20054796 16.09014087 58.52149963 16.70753479 C57.31968552 16.71373337 56.1178714 16.71993195 54.87963867 16.72631836 C54.21408966 16.73493393 53.54854065 16.7435495 52.86282349 16.75242615 C50.66807897 16.77508382 48.4746117 16.76834835 46.27978516 16.75927734 C44.75047934 16.76451344 43.22117677 16.77078987 41.69187927 16.77806091 C38.48819778 16.78846492 35.28496044 16.78390463 32.08129883 16.76928711 C27.98075821 16.75210664 23.88161981 16.77558339 19.78123569 16.81077671 C16.62325296 16.83276573 13.46560491 16.83130565 10.3075695 16.8230114 C8.79612631 16.82219253 7.28465838 16.82904372 5.77328682 16.84378242 C3.65682649 16.8612567 1.54287428 16.84666781 -0.57348633 16.82397461 C-2.37740089 16.82253197 -2.37740089 16.82253197 -4.21775818 16.82106018 C-8.33672572 16.01091569 -9.83503051 14.44071063 -12.41162109 11.19287109 C-12.98372333 7.6887449 -12.85202808 5.96882625 -11.09912109 2.88037109 C-7.87711096 -0.34163904 -4.31635712 0.04750526 0 0 Z " fill="#00ff00" transform="translate(260.41162109375,278.80712890625)"/>
<path d="M0 0 C0.65594147 -0.0087616 1.31188293 -0.01752319 1.98770142 -0.02655029 C4.14482794 -0.04846494 6.29988581 -0.03402345 8.45703125 -0.01708984 C9.96248771 -0.02046035 11.4679415 -0.02531493 12.97338867 -0.03158569 C16.12412497 -0.03894613 19.27415113 -0.02827952 22.42480469 -0.00488281 C26.4569908 0.02360601 30.48751296 0.00719737 34.51963806 -0.02274513 C37.62703923 -0.04084144 40.73404798 -0.03504973 43.84146118 -0.02210617 C45.32777098 -0.01877853 46.81411679 -0.02283672 48.30038452 -0.03450394 C50.38089898 -0.04725309 52.45874605 -0.02778738 54.5390625 0 C56.31180542 0.00596695 56.31180542 0.00596695 58.12036133 0.01205444 C62.21363954 0.83731854 63.71193337 2.40867262 66.26953125 5.64697266 C66.89453125 9.20947266 66.89453125 9.20947266 66.26953125 12.64697266 C63.60226339 15.39368295 61.92397138 16.54001857 58.12036133 17.16163635 C56.34761841 17.17093422 56.34761841 17.17093422 54.5390625 17.18041992 C53.88312103 17.18903549 53.22717957 17.19765106 52.55136108 17.20652771 C50.39451037 17.22913317 48.23896461 17.22246059 46.08203125 17.21337891 C44.57657487 17.21861665 43.07112177 17.22489369 41.56567383 17.23216248 C38.4150444 17.24255631 35.26486691 17.23801984 32.11425781 17.22338867 C28.08211903 17.20619383 24.05140435 17.22970789 20.01942444 17.26487827 C16.91205452 17.286866 13.80502475 17.28540781 10.69760132 17.27711296 C9.21127764 17.27629433 7.72492876 17.28314104 6.23867798 17.29788399 C4.15823453 17.31535982 2.08034204 17.30076948 0 17.27807617 C-1.18182861 17.27711441 -2.36365723 17.27615265 -3.58129883 17.27516174 C-7.66559538 16.46043577 -9.16203632 14.85756869 -11.73046875 11.64697266 C-12.35546875 8.64697266 -12.35546875 8.64697266 -11.73046875 5.64697266 C-8.07851152 1.08365702 -5.7959315 0.01950877 0 0 Z " fill="#00ff00" transform="translate(259.73046875,247.35302734375)"/>
<path d="M0 0 C1.24245483 -0.00574036 1.24245483 -0.00574036 2.51000977 -0.01159668 C4.25831317 -0.01431425 6.00665734 -0.00696381 7.75488281 0.00976562 C10.42865777 0.03117918 13.09974596 0.00996056 15.7734375 -0.015625 C17.47396425 -0.01298169 19.17448934 -0.00785665 20.875 0 C22.07201538 -0.01214539 22.07201538 -0.01214539 23.29321289 -0.02453613 C26.89694534 0.03624457 29.00468926 0.20306359 31.91796875 2.41210938 C33.71375073 4.91650969 34.28729489 6.45204526 34.4375 9.53125 C33.37350927 13.34388347 32.8123349 14.28136007 29.4375 16.53125 C26.65454171 16.7272981 23.97415793 16.81129442 21.19140625 16.796875 C20.38388412 16.79878845 19.576362 16.8007019 18.74436951 16.80267334 C17.03717741 16.80403376 15.32997493 16.80034729 13.62280273 16.79199219 C11.01327171 16.78130436 8.40443128 16.79188493 5.79492188 16.8046875 C4.13541515 16.80336561 2.47590885 16.8008026 0.81640625 16.796875 C0.03713272 16.80092346 -0.74214081 16.80497192 -1.54502869 16.80914307 C-8.48313835 16.74928933 -8.48313835 16.74928933 -11.5625 14.53125 C-13.12721233 11.40182535 -13.25951958 7.92042777 -12.5625 4.53125 C-9.19759844 -0.19800926 -5.38349017 -0.05462299 0 0 Z " fill="#00ff00" transform="translate(197.5625,247.46875)"/>
<path d="M0 0 C0.85521744 0.00091141 1.71043488 0.00182281 2.59156799 0.00276184 C3.46946487 -0.00152328 4.34736176 -0.00580841 5.25186157 -0.01022339 C7.11044959 -0.01597191 8.96906012 -0.01646312 10.82765198 -0.01213074 C13.67447757 -0.00897327 16.52026181 -0.03241428 19.36695862 -0.05778503 C21.17099376 -0.06005819 22.97503171 -0.06076145 24.77906799 -0.05973816 C25.6322612 -0.06894791 26.48545441 -0.07815765 27.36450195 -0.08764648 C33.32633073 -0.04088571 33.32633073 -0.04088571 35.44973755 1.67837524 C37.22532468 3.89470136 37.54997133 5.47900227 37.75172424 8.30354309 C36.81556174 11.4000806 36.04749102 13.00777631 33.75172424 15.30354309 C28.26018961 17.31932152 21.83608956 16.48948283 16.05274963 16.48884583 C13.82526032 16.49103226 11.59826666 16.50920737 9.37086487 16.52815247 C7.94703843 16.53108687 6.52320965 16.53307135 5.09938049 16.53401184 C3.16590759 16.54017517 3.16590759 16.54017517 1.19337463 16.54646301 C-3.25267191 16.23265041 -6.08122805 15.4705908 -9.24827576 12.30354309 C-10.22897637 9.27971621 -10.36289996 7.6826847 -9.43577576 4.61604309 C-7.0532856 -0.02354301 -4.99418713 0.06018319 0 0 Z " fill="#00ff00" transform="translate(242.24827575683594,386.6964569091797)"/>
<path d="M0 0 C0.78249619 0.00091644 1.56499237 0.00183289 2.37120056 0.0027771 C4.01942032 0.00879951 5.66762983 0.02450472 7.31567383 0.04931641 C9.83520918 0.08587026 12.35327372 0.09033517 14.87304688 0.08984375 C16.47787726 0.09967429 18.08269772 0.11133102 19.6875 0.125 C20.43862564 0.12722565 21.18975128 0.12945129 21.96363831 0.13174438 C28.82240301 0.25600252 28.82240301 0.25600252 31.77734375 2.4609375 C33.608012 6.59983963 34.11665784 8.54478945 32.52734375 12.8359375 C30.77734375 15.4609375 30.77734375 15.4609375 28.77734375 16.4609375 C25.98008276 16.59651807 23.20893044 16.67364221 20.41015625 16.69921875 C19.57902313 16.7072905 18.74789001 16.71536224 17.89157104 16.72367859 C16.13134853 16.73751821 14.3710992 16.74824092 12.61083984 16.75610352 C9.91973045 16.77332623 7.22984656 16.81721287 4.5390625 16.86132812 C2.82943612 16.87145427 1.1197993 16.87997062 -0.58984375 16.88671875 C-1.79627029 16.91298088 -1.79627029 16.91298088 -3.02706909 16.93977356 C-6.67947029 16.9256026 -8.77327079 16.80219355 -11.72680664 14.55932617 C-13.33509105 12.30321315 -13.79051266 11.2034213 -13.78515625 8.4609375 C-13.80707031 7.8009375 -13.82898438 7.1409375 -13.8515625 6.4609375 C-11.84695624 0.08604056 -5.698145 -0.10931528 0 0 Z " fill="#00ff00" transform="translate(198.22265625,278.5390625)"/>
</svg>