<svg version="1.1" xmlns="http://www.w3.org/2000/svg" width="512px" height="512px" transform="rotate(0) scale(1, 1)">
<path d="M0 0 C1.01790619 0.00215515 2.03581238 0.0043103 3.08456421 0.00653076 C17.69363523 0.05620146 32.02575853 0.30709809 46.375 3.3125 C47.34985352 3.51117676 48.32470703 3.70985352 49.32910156 3.91455078 C88.38660539 12.08468046 124.82400319 27.71035417 156.375 52.3125 C157.25929688 52.98539063 158.14359375 53.65828125 159.0546875 54.3515625 C174.64162389 66.45260257 189.26666068 80.75087979 201.375 96.3125 C202.15101563 97.2715625 202.92703125 98.230625 203.7265625 99.21875 C238.25804162 142.62975232 256.81395322 197.76040062 256.69067383 253.03979492 C256.6875221 255.97938487 256.71104926 258.9179558 256.73632812 261.85742188 C256.78098737 275.23056192 255.57551542 288.12666711 253.375 301.3125 C253.09281616 303.01805054 253.09281616 303.01805054 252.80493164 304.75805664 C245.77946967 343.86954746 228.79665906 381.05202178 204.375 412.3125 C203.61574219 413.28445313 202.85648437 414.25640625 202.07421875 415.2578125 C189.73986402 430.63741644 175.93895499 445.19015196 160.375 457.3125 C159.43914062 458.07691406 158.50328125 458.84132813 157.5390625 459.62890625 C125.58628299 485.2157721 86.41988322 501.72551276 46.375 509.3125 C45.56562988 509.47621094 44.75625977 509.63992188 43.92236328 509.80859375 C13.88110013 515.67977137 -20.7615176 514.58512909 -50.625 508.3125 C-52.14794678 507.99901611 -52.14794678 507.99901611 -53.70166016 507.67919922 C-90.84546555 499.78695344 -125.70945445 483.68345578 -155.625 460.3125 C-156.59695312 459.55324219 -157.56890625 458.79398437 -158.5703125 458.01171875 C-173.94991644 445.67736402 -188.50265196 431.87645499 -200.625 416.3125 C-201.77162109 414.90871094 -201.77162109 414.90871094 -202.94140625 413.4765625 C-228.5282721 381.52378299 -245.03801276 342.35738322 -252.625 302.3125 C-252.78871094 301.50312988 -252.95242187 300.69375977 -253.12109375 299.85986328 C-258.59069558 271.87335724 -258.46977511 238.21828161 -252.625 210.3125 C-252.42632324 209.33764648 -252.22764648 208.36279297 -252.02294922 207.35839844 C-241.93598313 159.13741149 -219.89911449 114.53770064 -185.40722656 79.14160156 C-183.63301167 77.32072238 -181.87518486 75.48496071 -180.1171875 73.6484375 C-173.01562574 66.30860161 -165.60158994 59.73928631 -157.40917969 53.64355469 C-155.59628085 52.2910746 -153.80174757 50.91656557 -152.0078125 49.5390625 C-143.60124472 43.15234877 -134.85975388 37.61076633 -125.65234375 32.45166016 C-123.78933792 31.40484113 -121.94116361 30.33571119 -120.09375 29.26171875 C-83.4933446 8.69459905 -41.63834482 -0.15855121 0 0 Z M-48.31591797 166.25878906 C-49.12049942 167.05606918 -49.92508087 167.8533493 -50.75404358 168.67478943 C-53.390068 171.29469955 -56.00388929 173.93556081 -58.6171875 176.578125 C-60.45317043 178.41514621 -62.29019284 180.25112906 -64.12820435 182.08612061 C-67.96870646 185.92680173 -71.79902919 189.77720994 -75.62109375 193.63623047 C-80.02672954 198.08422241 -84.44978948 202.51427112 -88.88287818 206.93489099 C-93.16598627 211.20657265 -97.43747315 215.48964708 -101.70376968 219.77812958 C-103.51196448 221.5940042 -105.32284163 223.407212 -107.13647079 225.217659 C-109.67115112 227.75159503 -112.19240688 230.29817625 -114.71044922 232.84863281 C-115.45646896 233.58969772 -116.20248871 234.33076263 -116.97111511 235.09428406 C-123.17142765 241.42203099 -127.2079319 247.18999138 -127.125 256.3125 C-127.1353125 257.446875 -127.145625 258.58125 -127.15625 259.75 C-125.87620268 268.3338467 -120.76149977 273.75914726 -114.77050781 279.68457031 C-113.98298126 280.47910614 -113.19545471 281.27364197 -112.38406372 282.09225464 C-109.79201868 284.70182734 -107.18570771 287.29658494 -104.578125 289.890625 C-102.76396159 291.70748478 -100.95039216 293.52493784 -99.13739014 295.34295654 C-95.34089789 299.14533683 -91.53748916 302.9405963 -87.72851562 306.73046875 C-83.33799661 311.09922266 -78.96207279 315.48219921 -74.59344983 319.87284017 C-70.37379427 324.11290179 -66.14290364 328.34154752 -61.90718842 332.56557465 C-60.11335623 334.35674463 -58.32247374 336.15087385 -56.53464508 337.94803619 C-54.03169116 340.46118473 -51.51620699 342.96109459 -48.99707031 345.45800781 C-48.26535614 346.19781891 -47.53364197 346.93763 -46.77975464 347.69985962 C-40.8545871 353.52889093 -34.56240076 357.9719896 -26 358.5625 C-18.15338087 358.40441793 -12.01556861 355.73535017 -6.35546875 350.3125 C-0.9250597 344.03627103 -0.17479813 337.73603728 -0.09375 329.62109375 C-1.47294597 321.0315424 -6.62411005 315.76515628 -12.63671875 309.9453125 C-13.40554886 309.18451385 -14.17437897 308.42371521 -14.96650696 307.63986206 C-17.4058299 305.22936936 -19.85846087 302.83300065 -22.3125 300.4375 C-24.77453451 298.01796818 -27.23372154 295.59560644 -29.69062805 293.17086792 C-31.21618833 291.66702042 -32.74521779 290.1666826 -34.27799988 288.67019653 C-34.9657399 287.99544281 -35.65347992 287.32068909 -36.36206055 286.62548828 C-37.27328926 285.73568771 -37.27328926 285.73568771 -38.20292664 284.82791138 C-39.625 283.3125 -39.625 283.3125 -40.625 281.3125 C-39.49469832 281.31803076 -39.49469832 281.31803076 -38.34156227 281.32367325 C-19.97865335 281.41213676 -1.61578714 281.47826424 16.74728966 281.51974869 C25.62766565 281.54034519 34.50789911 281.56840988 43.38818359 281.61425781 C51.13120263 281.654215 58.87411841 281.67995397 66.61723769 281.68885398 C70.71452284 281.69405375 74.81151266 281.70621378 78.90870285 281.73542023 C82.77141422 281.76273007 86.63371081 281.77091389 90.49650955 281.76493073 C91.90815745 281.76602405 93.31982036 281.77388506 94.73138428 281.7893219 C104.17742306 281.88748774 112.50103038 281.31918973 120.03125 275.12890625 C120.6396875 274.38511719 121.248125 273.64132812 121.875 272.875 C122.81859375 271.76318359 122.81859375 271.76318359 123.78125 270.62890625 C128.34415808 263.9970325 128.06537456 257.11904315 127.375 249.3125 C125.70057105 242.6783701 120.93803907 238.05594196 115.375 234.3125 C108.54346587 230.38349913 101.59521626 230.9097702 93.90258789 230.97192383 C92.43359393 230.97277091 90.9645987 230.97229338 89.49560547 230.97059631 C85.52289388 230.96973809 81.55045586 230.98733567 77.57780766 231.00831819 C73.42049258 231.02711391 69.26317073 231.0288377 65.1058197 231.03239441 C57.24010622 231.04170639 49.37451832 231.06630865 41.50886005 231.09644288 C32.55120753 231.13001331 23.59354892 231.14647954 14.63584912 231.16152918 C-3.78450503 231.19285899 -22.20474241 231.24560296 -40.625 231.3125 C-39.53041552 230.04969869 -38.4341009 228.78839695 -37.33708191 227.52770996 C-36.72676211 226.82515831 -36.11644232 226.12260666 -35.48762798 225.39876556 C-32.70471648 222.28172207 -29.73667801 219.37647999 -26.73828125 216.46875 C-25.45724333 215.21008202 -24.17665761 213.95095367 -22.89648438 212.69140625 C-20.91300656 210.74504644 -18.9266627 208.80198335 -16.93237305 206.86669922 C-14.98335996 204.97246998 -13.04754914 203.06551884 -11.11328125 201.15625 C-10.52154617 200.58829712 -9.9298111 200.02034424 -9.32014465 199.43518066 C-4.5626008 194.70774812 -1.21599066 189.72801842 -0.05859375 183.0390625 C-0.06937131 174.48167785 -1.51307252 168.02325187 -7.234375 161.46875 C-12.32216759 156.70769638 -18.0480095 154.25442202 -25 153.875 C-34.92378419 154.40704718 -41.58645873 159.38914718 -48.31591797 166.25878906 Z " fill="#ffffff" transform="translate(255.625,-0.3125)"/>
</svg>