<svg version="1.1" xmlns="http://www.w3.org/2000/svg" width="512px" height="512px" transform="rotate(0) scale(1, 1)">
<path d="M0 0 C0.64499899 -0.00581376 1.28999798 -0.01162753 1.9545424 -0.01761746 C4.12498902 -0.03226465 6.29431304 -0.01831169 8.4647522 -0.00457001 C10.03278369 -0.0091771 11.60081086 -0.01552872 13.16882896 -0.02347898 C17.48478413 -0.04022198 21.80038684 -0.03190353 26.1163435 -0.01953411 C30.76808788 -0.01050619 35.41977047 -0.0244421 40.07150269 -0.0354538 C49.18704571 -0.0532678 58.30245722 -0.04938623 67.41800547 -0.03780323 C74.82444751 -0.0287805 82.23085262 -0.02753988 89.63729858 -0.0318985 C91.21670921 -0.0328179 91.21670921 -0.0328179 92.82802713 -0.03375587 C94.96685808 -0.03503473 97.10568902 -0.03633158 99.24451995 -0.03764623 C119.31425233 -0.04906047 139.38391171 -0.0359251 159.45363212 -0.01444477 C176.68540273 0.00342697 193.91706556 0.0003231 211.14883423 -0.01811981 C231.14530272 -0.03951163 251.14170717 -0.04796176 271.1381855 -0.03567076 C273.2692782 -0.03439652 275.40037091 -0.03313904 277.53146362 -0.0318985 C279.10439228 -0.03097285 279.10439228 -0.03097285 280.70909727 -0.03002849 C288.10917085 -0.02657052 295.50920393 -0.03241355 302.90927124 -0.04181671 C311.92388231 -0.05301933 320.93835401 -0.05003331 329.95294905 -0.02869374 C334.55495598 -0.01815986 339.15673029 -0.01410112 343.75873566 -0.02729034 C347.96804404 -0.03917192 352.17690325 -0.03272222 356.38617063 -0.01138014 C357.91235255 -0.00689601 359.4385721 -0.00922074 360.96473002 -0.01888329 C363.03328665 -0.03097964 365.10028796 -0.0186444 367.16876221 0 C368.31942484 0.00064941 369.47008747 0.00129882 370.65561867 0.00196791 C374.22485003 0.61301121 375.40389769 1.66515845 377.5843811 4.50336456 C378.09231567 6.96955109 378.09231567 6.96955109 378.10195923 9.75922394 C378.11456787 10.8071109 378.12717651 11.85499786 378.14016724 12.93463898 C378.12802185 14.62381439 378.12802185 14.62381439 378.1156311 16.34711456 C378.11945801 17.50835846 378.12328491 18.66960236 378.12722778 19.86603546 C378.12994902 22.32051206 378.12257315 24.77501754 378.10586548 27.22943878 C378.08446076 30.98937298 378.10566198 34.74739615 378.1312561 38.50727081 C378.12861287 40.89138962 378.12348798 43.27550724 378.1156311 45.65961456 C378.12372803 46.78573151 378.13182495 47.91184845 378.14016724 49.07209015 C378.12125427 50.64392059 378.12125427 50.64392059 378.10195923 52.24750519 C378.09877686 53.16809723 378.09559448 54.08868927 378.09231567 55.03717804 C377.42269309 58.28841213 376.17765105 59.48837166 373.5843811 61.50336456 C369.83088649 61.97255139 367.54589657 62.03472837 364.2093811 60.19086456 C353.85919938 49.44259893 361.5843811 30.42487507 361.5843811 15.50336456 C244.1043811 15.50336456 126.6243811 15.50336456 5.5843811 15.50336456 C5.5843811 61.70336456 5.5843811 107.90336456 5.5843811 155.50336456 C10.5343811 155.50336456 15.4843811 155.50336456 20.5843811 155.50336456 C20.57549866 154.00887787 20.56661621 152.51439117 20.5574646 150.974617 C20.47646365 136.9072642 20.41621624 122.8399668 20.37713242 108.77244186 C20.35650388 101.53975053 20.32837799 94.30723325 20.28262329 87.07465363 C20.2427641 80.7709923 20.2169504 74.46745701 20.20802712 68.16367316 C20.20281058 64.82547814 20.1884515 61.48792917 20.16146088 58.14979553 C20.13252735 54.42400768 20.12842105 50.6989728 20.13027954 46.97309113 C20.10870789 45.31152985 20.10870789 45.31152985 20.08670044 43.61640167 C20.0921991 42.60120453 20.09769775 41.58600739 20.10336304 40.54004669 C20.09967587 39.6588126 20.09598869 38.77757851 20.09218979 37.86964035 C20.76683279 34.62620362 21.94464345 33.4645923 24.5843811 31.50336456 C27.12689209 30.99720669 27.12689209 30.99720669 30.04971313 30.98870087 C31.16009949 30.97597641 32.27048584 30.96325195 33.41452026 30.95014191 C34.62815247 30.95666779 35.84178467 30.96319366 37.0921936 30.9699173 C39.01463898 30.95699394 39.01463898 30.95699394 40.97592163 30.94380951 C44.48837329 30.92130881 48.00037451 30.92425632 51.51287079 30.93313098 C54.44541292 30.93824082 57.37787041 30.93094848 60.31040382 30.92365891 C67.22797672 30.90665816 74.14532904 30.91022782 81.06289673 30.92694855 C88.1999464 30.94387664 95.33638477 30.92802691 102.47336769 30.89572567 C108.60174397 30.86903989 114.72992983 30.86175075 120.85835838 30.87024075 C124.51833032 30.87517226 128.17793429 30.8729427 131.83786011 30.85245323 C135.9178187 30.83070547 139.99661581 30.84948279 144.0765686 30.87226105 C145.89701691 30.85472275 145.89701691 30.85472275 147.75424194 30.83683014 C155.68508 30.92720996 155.68508 30.92720996 159.33476257 33.26544952 C161.33049638 38.43664085 161.13068557 43.4458302 161.08609009 48.9411087 C161.09419456 50.83451241 161.09419456 50.83451241 161.10246277 52.76616669 C161.11640336 56.22075 161.10525861 59.67483449 161.08875155 63.12939 C161.07488397 66.74700753 161.08136296 70.36459661 161.08488464 73.98223114 C161.08758508 80.05584487 161.07412446 86.12926079 161.05093384 92.20282745 C161.02431303 99.22332343 161.02258134 106.24348895 161.0343222 113.26401812 C161.04510263 120.0210175 161.03891166 126.77789742 161.02476692 133.53488731 C161.01901058 136.40922051 161.01908697 139.2834662 161.02383232 142.15780067 C161.02949232 146.1703884 161.01028124 150.18248281 160.98843384 154.19501495 C160.99518631 155.98505447 160.99518631 155.98505447 161.0020752 157.81125641 C160.99217056 158.90336929 160.98226593 159.99548218 160.97206116 161.12068939 C160.96841631 162.54341455 160.96841631 162.54341455 160.96469784 163.99488163 C160.51170991 166.98268727 159.66913551 168.33988015 157.5843811 170.50336456 C154.04684238 171.68254414 151.18549942 171.66430204 147.45083618 171.70868683 C146.72863388 171.71858643 146.00643158 171.72848602 145.26234436 171.73868561 C142.87623366 171.77026216 140.49010305 171.79504279 138.10391235 171.81977081 C136.44909651 171.84034366 134.79428589 171.86134023 133.13948059 171.88274384 C128.78462957 171.93793032 124.42973139 171.98735469 120.07479858 172.03559113 C115.63068445 172.08583114 111.18663878 172.14150416 106.74258423 172.19672394 C98.02324107 172.30426365 89.30384064 172.40571791 80.5843811 172.50336456 C88.37335876 182.18249746 88.37335876 182.18249746 99.21939087 187.00751495 C101.0722152 187.02003258 102.9265119 186.96632478 104.77578735 186.85102081 C105.76892441 186.84533585 106.76206146 186.83965088 107.78529358 186.83379364 C110.91052239 186.80585476 114.02415716 186.69057979 117.1468811 186.56586456 C120.2996391 186.48953184 123.45141756 186.43186775 126.60487366 186.39434052 C128.55420843 186.36603582 130.50338364 186.31270992 132.45121765 186.23116302 C138.97992545 186.06590912 138.97992545 186.06590912 142.15054321 188.3605423 C143.85040991 190.90093563 144.5095583 192.43562967 144.5843811 195.50336456 C142.96282482 198.98971058 141.81984819 200.34638651 138.5843811 202.50336456 C136.34129333 202.79097748 136.34129333 202.79097748 133.68911743 202.84149933 C132.69410721 202.86394211 131.69909698 202.88638489 130.67393494 202.90950775 C129.59895248 202.92114456 128.52397003 202.93278137 127.41641235 202.94477081 C126.30763229 202.95854263 125.19885223 202.97231445 124.05647278 202.9865036 C121.70702107 203.00979431 119.35750303 203.02705016 117.00796509 203.03876495 C113.42737753 203.0656357 109.84976853 203.14051878 106.26992798 203.21625519 C103.98544262 203.23291754 101.70093393 203.24668222 99.41641235 203.25727081 C98.35155106 203.2871257 97.28668976 203.31698059 96.18955994 203.34774017 C94.6734034 203.33885017 94.6734034 203.33885017 93.12661743 203.32978058 C92.24742142 203.33929245 91.3682254 203.34880432 90.46238708 203.35860443 C83.62415393 201.32652748 79.38934901 195.35947631 75.26382446 189.85663605 C68.26811473 180.95849404 61.21640309 172.76727783 49.5566349 170.83392525 C38.74681831 169.57208127 27.84138135 170.00112155 16.99301147 170.46051788 C12.19989978 170.63793014 7.40557115 170.68048215 2.60977173 170.73578644 C-6.73779225 170.86277021 -16.07468002 171.13454122 -25.4156189 171.50336456 C-25.42540808 210.69798089 -25.40369986 249.89246421 -25.3398286 289.08703279 C-25.33231268 293.71571855 -25.32505717 298.34440469 -25.31796265 302.97309113 C-25.31654589 303.89456799 -25.31512914 304.81604485 -25.31366946 305.76544525 C-25.29135912 320.68021845 -25.2901385 335.59492245 -25.29673027 350.50970767 C-25.30302535 365.81696703 -25.28661378 381.12408097 -25.24918282 396.43129647 C-25.22680501 405.87453486 -25.22207719 415.31744185 -25.24002226 424.76069112 C-25.250635 431.23884212 -25.23916494 437.71672118 -25.21045737 444.19481628 C-25.1945493 447.93086405 -25.18825568 451.66626465 -25.20822716 455.40230751 C-25.22965597 459.45874563 -25.2045186 463.51359659 -25.17510986 467.56998444 C-25.19548901 469.32974635 -25.19548901 469.32974635 -25.21627986 471.12505901 C-25.10730233 478.86791672 -23.48555786 484.51114116 -18.4156189 490.50336456 C-9.34982281 497.38414242 0.41357773 496.64804005 11.33387756 496.62361908 C12.74235127 496.62405545 14.1508249 496.62493158 15.5592981 496.62620825 C19.42002818 496.62844021 23.28073043 496.6244497 27.14145696 496.61943018 C31.30838034 496.61510722 35.47530218 496.61657342 39.64222717 496.61733246 C46.85852365 496.61785652 54.07481107 496.61472199 61.29110527 496.60909462 C71.72462436 496.60096372 82.15813907 496.59836277 92.59166098 496.59710663 C109.51981952 496.59491861 126.44797323 496.5882653 143.37612915 496.57880402 C159.81916276 496.56962343 176.26219506 496.56254576 192.70523071 496.5582962 C193.71897014 496.55803348 194.73270958 496.55777076 195.77716839 496.55750007 C200.86285816 496.55619502 205.94854795 496.55493132 211.03423774 496.55368817 C253.21762222 496.54332335 295.40100138 496.52571183 337.5843811 496.50336456 C337.24664673 495.96969269 336.90891235 495.43602081 336.5609436 494.88617706 C330.92675159 485.47414532 330.28349653 476.64813344 330.34387207 465.86075592 C330.3413088 464.1634742 330.3413088 464.1634742 330.33869374 462.43190396 C330.33541483 458.66252702 330.34637625 454.89333041 330.35733032 451.12397003 C330.35901059 448.41316873 330.35766514 445.70237087 330.35644531 442.99156952 C330.35539973 437.16675597 330.36164204 431.34198744 330.37292099 425.51718521 C330.38921751 417.09564295 330.39438823 408.67412232 330.39689697 400.25256599 C330.40126758 386.58712976 330.41455942 372.92171749 330.4335022 359.25629425 C330.45187745 345.98643869 330.46602589 332.71658966 330.47451782 319.44672394 C330.47504327 318.62792739 330.47556872 317.80913084 330.47611009 316.96552227 C330.47872028 312.85760906 330.48124767 308.74969581 330.48373389 304.64178252 C330.50444662 270.59562583 330.53965482 236.54949814 330.5843811 202.50336456 C329.32209372 202.50612994 329.32209372 202.50612994 328.03430557 202.50895119 C307.57047869 202.55309479 287.10666001 202.58620387 266.64279556 202.60698891 C256.74667909 202.61730722 246.85059438 202.63137815 236.95449829 202.65424347 C228.33037856 202.67416036 219.70628182 202.68707696 211.08213973 202.69154155 C206.51454176 202.69415182 201.94700959 202.70029859 197.37943268 202.71482468 C193.08181342 202.72838172 188.78428717 202.73259101 184.48664856 202.72957993 C182.90801742 202.73013093 181.32938324 202.73411956 179.75077057 202.74177551 C177.59755668 202.75170747 175.44469522 202.74933998 173.29147339 202.7438736 C172.08576817 202.74571718 170.88006294 202.74756077 169.6378212 202.74946022 C166.68276628 202.51129403 165.03849064 202.11269254 162.5843811 200.50336456 C160.5027909 197.82703431 160.5885052 196.38582789 160.7093811 192.94086456 C161.5843811 189.50336456 161.5843811 189.50336456 163.19071198 187.81275082 C166.48501444 186.0106996 169.00845999 186.12271272 172.75808716 186.11568451 C173.84316346 186.1076062 173.84316346 186.1076062 174.9501605 186.0993647 C177.37463093 186.08505455 179.79855772 186.09219612 182.22305298 186.09931183 C183.96097758 186.09360989 185.69889843 186.08664632 187.43681335 186.0785141 C192.15782275 186.06054924 196.87864662 186.06175717 201.59967995 186.06745648 C205.53876257 186.07054316 209.47780929 186.06446179 213.41688681 186.05841774 C222.7076118 186.04436355 231.99824486 186.04594158 241.28897095 186.05731964 C250.87982088 186.06880555 260.47039133 186.05471928 270.06120443 186.02792317 C278.29144816 186.00578776 286.52160401 185.9991238 294.7518754 186.00499958 C299.66933286 186.00837508 304.58661109 186.00591466 309.50404358 185.98874855 C314.12686243 185.97331554 318.74926617 185.97719422 323.37206841 185.9960537 C325.07002621 185.99974953 326.76801453 185.99660224 328.46594429 185.98616791 C330.78133724 185.97302373 333.09534251 185.9844452 335.41067505 186.00215912 C337.35523968 186.00247304 337.35523968 186.00247304 339.33908844 186.00279331 C342.5843811 186.50336456 342.5843811 186.50336456 345.0026741 187.85212231 C347.57470954 192.16334369 347.11961659 196.49957113 347.06539917 201.42444611 C347.06881687 202.5508407 347.07223457 203.6772353 347.07575583 204.83776307 C347.08236364 208.62596686 347.06030966 212.41346784 347.03848267 216.20160675 C347.03512945 218.91152649 347.03781053 221.62143234 347.04025269 224.33135223 C347.04235091 230.17269719 347.02979247 236.01386354 347.00730133 241.85516357 C346.97480412 250.30068952 346.96437666 258.74612904 346.95934936 267.19171074 C346.95059312 280.89378885 346.92396864 294.59577175 346.88613892 308.29779816 C346.84942733 321.6086657 346.82111141 334.9195074 346.80410767 348.23041534 C346.80305677 349.05078823 346.80200588 349.87116112 346.80092314 350.7163938 C346.79570302 354.83193069 346.79064818 358.94746777 346.78567553 363.06300497 C346.74420324 397.20986069 346.6734487 431.35660079 346.5843811 465.50336456 C351.5343811 465.50336456 356.4843811 465.50336456 361.5843811 465.50336456 C361.58161572 463.54440152 361.57885035 461.58543848 361.57600117 459.56711292 C361.51086265 413.0938348 361.46157878 366.62056057 361.43118512 320.14724623 C361.42743287 314.43058442 361.42354992 308.71392271 361.41958618 302.99726105 C361.41879925 301.85914837 361.41801232 300.7210357 361.41720154 299.54843476 C361.4041379 281.10603101 361.38047878 262.66365523 361.35292272 244.2212681 C361.32489518 225.30596813 361.30821046 206.39068284 361.30211562 187.47536296 C361.29799367 175.79806881 361.28496208 164.12085374 361.2606317 152.44358393 C361.24480723 144.44244078 361.23997327 136.44133867 361.24387697 128.44018099 C361.24580365 123.81987434 361.24279365 119.19970612 361.22676468 114.5794239 C361.21220568 110.35210572 361.21140259 106.12501954 361.22168442 101.89769085 C361.22295588 100.36597884 361.21911643 98.83425256 361.20973156 97.30256877 C361.19773542 95.22436749 361.20415399 93.1470096 361.21523762 91.06882191 C361.21352888 89.33558846 361.21352888 89.33558846 361.21178561 87.5673402 C361.62847313 84.14078127 362.53538451 82.25615047 364.5843811 79.50336456 C367.43762548 78.07674238 369.41892659 78.19302589 372.5843811 78.50336456 C375.25308228 79.924263 375.25308228 79.924263 377.5843811 82.50336456 C378.2833486 85.69945811 378.16628712 88.82338414 378.07266235 92.08148956 C378.06558762 93.00806366 378.05851288 93.93463776 378.05122375 94.88928986 C378.02326481 97.84480742 377.96052382 100.798421 377.8968811 103.75336456 C377.87180016 105.75854551 377.84898663 107.76375619 377.82852173 109.76898956 C377.77343315 114.68117999 377.68715022 119.59194964 377.5843811 124.50336456 C378.77982544 124.47194366 378.77982544 124.47194366 379.99942017 124.439888 C383.61094545 124.35673134 387.22226934 124.30470422 390.8343811 124.25336456 C392.08863892 124.21984894 393.34289673 124.18633331 394.63516235 124.15180206 C395.84043579 124.13891144 397.04570923 124.12602081 398.2875061 124.11273956 C399.39771118 124.0917923 400.50791626 124.07084503 401.65176392 124.049263 C405.3491853 124.62179079 406.29089625 125.59210751 408.5843811 128.50336456 C409.08577776 131.25735956 409.08577776 131.25735956 409.08774567 134.49337864 C409.09817666 135.72768118 409.10860765 136.96198372 409.11935472 138.23368937 C409.11070616 139.60565233 409.10167952 140.97761296 409.09231567 142.34957123 C409.09692321 143.80536951 409.10327514 145.26116315 409.11122465 146.71694702 C409.127963 150.72295608 409.11965122 154.72858525 409.10727978 158.73459589 C409.09824936 163.05313958 409.11218939 167.37161681 409.12319946 171.6901474 C409.14101397 180.15431846 409.13713077 188.61834787 409.1255489 197.08252455 C409.11652218 203.96402161 409.11528729 210.84547893 409.11964417 217.72698021 C409.1202571 218.70574018 409.12087003 219.68450014 409.12150154 220.6929195 C409.12278043 222.68122834 409.12407728 224.66953716 409.1253919 226.65784597 C409.13680736 245.31809687 409.12367105 263.97826927 409.10219043 282.6385073 C409.08433815 298.6417576 409.08740626 314.64489178 409.10586548 330.64813995 C409.12728891 349.22991487 409.13568801 367.81162079 409.12341642 386.39340633 C409.12214224 388.37661706 409.12088476 390.35982781 409.11964417 392.34303856 C409.11871851 393.80668943 409.11871851 393.80668943 409.11777416 395.29990901 C409.11432422 402.16770231 409.12014236 409.03545179 409.12956238 415.9032383 C409.14080096 424.28121727 409.13770411 432.6590464 409.1164394 441.03700829 C409.10595094 445.30976987 409.10176909 449.58228196 409.11503601 453.8550415 C409.12701292 457.77174328 409.12031083 461.68796591 409.0991258 465.60462462 C409.0946818 467.01653052 409.09687615 468.42847745 409.10662895 469.84035666 C409.18150513 481.58728589 407.32786374 491.25632757 399.6312561 500.43305206 C390.85704572 509.3077305 381.73175132 512.78083025 369.3856641 512.90393511 C367.18039839 512.90947288 364.97545195 512.90036953 362.77020264 512.89104462 C361.16159884 512.89522126 359.55299799 512.90070059 357.94440258 512.90736443 C353.53930062 512.92179444 349.13438615 512.91758196 344.72927403 512.91019762 C339.97251339 512.90546219 335.21579308 512.91797913 330.45904541 512.92821503 C321.14601237 512.94540109 311.8330468 512.94624342 302.52000202 512.94100212 C294.94927006 512.93695877 287.37855801 512.93840595 279.807827 512.94375038 C278.19083371 512.94487301 278.19083371 512.94487301 276.5411739 512.94601833 C274.35114074 512.94754982 272.16110759 512.94908817 269.97107445 512.95063329 C249.43853699 512.96435769 228.90603764 512.95892111 208.37350105 512.94744808 C189.59620717 512.93751616 170.81901184 512.95045581 152.04173316 512.97438227 C132.7532032 512.99877469 113.46471912 513.00838076 94.17617404 513.00172955 C83.35033164 512.9982376 72.52456502 513.0004678 61.69873428 513.01798058 C52.4827986 513.03270432 43.26699206 513.0333357 34.0510589 513.01590966 C29.35093427 513.0073987 24.65104033 513.00525253 19.95092773 513.02056122 C15.64400934 513.03441533 11.33751912 513.02963591 7.03062545 513.01032198 C5.47687448 513.00656388 3.92308915 513.00947848 2.36936881 513.01993363 C-9.74726683 513.09563697 -19.81649881 511.5421427 -29.3453064 503.55023956 C-38.3193642 494.67777487 -41.72944519 485.34833953 -41.82151121 472.9063651 C-41.81550116 471.67853285 -41.80949112 470.4507006 -41.80329895 469.18566132 C-41.80747759 467.84842953 -41.81295801 466.5112013 -41.81961876 465.17397958 C-41.83402142 461.51925642 -41.8298451 457.86475976 -41.82245195 454.21002448 C-41.81770999 450.26117269 -41.83023882 446.31236919 -41.84046936 442.36353302 C-41.85763944 434.63702345 -41.85850153 426.91059526 -41.85325646 419.18407156 C-41.84921213 412.90618441 -41.85066141 406.62832127 -41.85600471 400.35043526 C-41.85675314 399.45636788 -41.85750156 398.5623005 -41.85827266 397.64114017 C-41.85980414 395.82482589 -41.86134249 394.00851162 -41.86288763 392.19219736 C-41.87660482 375.17314007 -41.87117925 358.1541288 -41.85970242 341.13507257 C-41.84975884 325.55720588 -41.86273149 309.97945778 -41.88663661 294.40160938 C-41.91099983 278.40483723 -41.92064307 262.40812038 -41.91398388 246.41133004 C-41.91048702 237.43067842 -41.9127551 228.45011813 -41.93023491 219.46948051 C-41.94492168 211.82923695 -41.9456381 204.18914913 -41.928164 196.54890873 C-41.91962464 192.64961496 -41.91757576 188.75059984 -41.93281555 184.85132027 C-41.94911281 180.62936851 -41.93457886 176.4080952 -41.91682434 172.1861496 C-41.92642935 170.94716374 -41.93603435 169.70817788 -41.94593042 168.431647 C-41.93611613 167.30409633 -41.92630184 166.17654565 -41.91619015 165.01482677 C-41.91608281 164.04002698 -41.91597547 163.06522718 -41.91586488 162.06088799 C-41.26861144 158.7517843 -40.04053823 157.55733066 -37.4156189 155.50336456 C-34.48300171 155.049263 -34.48300171 155.049263 -31.1187439 155.11273956 C-29.91347046 155.12563019 -28.70819702 155.13852081 -27.46640015 155.15180206 C-25.58501343 155.2020755 -25.58501343 155.2020755 -23.6656189 155.25336456 C-22.39589233 155.27141144 -21.12616577 155.28945831 -19.81796265 155.30805206 C-16.68308812 155.35519303 -13.5497333 155.42098792 -10.4156189 155.50336456 C-10.41930607 154.72883816 -10.42299324 153.95431175 -10.42679214 153.15631485 C-10.51508772 134.31983292 -10.58130146 115.48339223 -10.62286758 96.64674759 C-10.64350239 87.53751702 -10.67164045 78.4284245 -10.71737671 69.31928253 C-10.75721645 61.38075236 -10.78304503 53.44232214 -10.79197288 45.50369477 C-10.79719251 41.29929371 -10.80947936 37.09517864 -10.83853912 32.89086914 C-10.86566317 28.93461051 -10.87407011 24.97875604 -10.86804962 21.02241325 C-10.86915122 19.56954439 -10.87712337 18.1166622 -10.8924408 16.66387367 C-10.91231732 14.68165713 -10.90517902 12.69922436 -10.89663696 10.71692657 C-10.90032413 9.60708782 -10.90401131 8.49724907 -10.90781021 7.35377884 C-9.8197039 1.05225815 -5.83422976 0.00329271 0 0 Z M36.5843811 47.50336456 C36.5843811 83.14336456 36.5843811 118.78336456 36.5843811 155.50336456 C72.2243811 155.50336456 107.8643811 155.50336456 144.5843811 155.50336456 C144.5843811 119.86336456 144.5843811 84.22336456 144.5843811 47.50336456 C108.9443811 47.50336456 73.3043811 47.50336456 36.5843811 47.50336456 Z M377.5843811 140.50336456 C377.58199275 142.23740697 377.5796044 143.97144938 377.57714367 145.75803852 C377.51982864 186.88726128 377.44713012 228.01643262 377.35539482 269.14559366 C377.34412617 274.2038966 377.3329878 279.26219983 377.32192993 284.32050323 C377.31972625 285.32755348 377.31752256 286.33460373 377.3152521 287.37217065 C377.27984479 303.69488194 377.25500006 320.01759318 377.23403408 336.34032867 C377.21229935 353.07924767 377.17927118 369.81811668 377.13567954 386.55699319 C377.10912262 396.892265 377.09145705 407.22747447 377.08503506 417.56277873 C377.0797935 424.64258605 377.06361823 431.72231481 377.03871544 438.80208007 C377.024658 442.89150317 377.01554536 446.98078551 377.01937294 451.0702343 C377.02276744 454.81021699 377.01251014 458.54989836 376.99114559 462.28981926 C376.98333096 464.29179247 376.99034736 466.29380636 376.99779814 468.29578096 C376.98361333 470.06559714 376.98361333 470.06559714 376.96914196 471.87116718 C376.96724336 472.89375403 376.96534476 473.91634088 376.96338862 474.96991521 C376.5843811 477.50336456 376.5843811 477.50336456 375.22505218 479.32835358 C372.79619468 481.06784559 370.78301142 480.93994755 367.82266235 481.01508331 C366.14526978 481.06825714 366.14526978 481.06825714 364.43399048 481.12250519 C363.26674438 481.14506378 362.09949829 481.16762238 360.8968811 481.19086456 C359.71803345 481.22502472 358.53918579 481.25918488 357.32461548 481.29438019 C354.41129886 481.37694382 351.49828645 481.44606778 348.5843811 481.50336456 C350.78149503 487.35243814 353.68628165 491.65544865 359.0843811 494.87836456 C365.53367985 497.75012778 372.80662951 497.8299824 379.43203735 495.50336456 C385.95825424 492.0384651 389.78428096 487.28821885 392.5843811 480.50336456 C393.39718479 475.78468887 393.37046406 471.1720566 393.3059082 466.39310455 C393.30852883 464.98203481 393.31378999 463.57096795 393.3214432 462.15991652 C393.33478958 458.30559541 393.31095868 454.45228437 393.28077483 450.59809184 C393.25476918 446.43326793 393.26363897 442.26849711 393.26818848 438.10361481 C393.27132864 430.89542359 393.25256643 423.68755923 393.21876144 416.47945023 C393.16991781 406.05790119 393.15436447 395.63650957 393.14683349 385.21485849 C393.13371445 368.30491554 393.09381939 351.39514665 393.03701782 334.48529816 C392.98191074 318.06278095 392.93945632 301.64031108 392.91397095 285.21772003 C392.91239461 284.20476877 392.91081827 283.19181751 392.90919416 282.14817075 C392.90136371 277.06629317 392.89378151 271.98441525 392.88632274 266.90253711 C392.82416202 224.76935738 392.71807052 182.6363737 392.5843811 140.50336456 C387.6343811 140.50336456 382.6843811 140.50336456 377.5843811 140.50336456 Z " fill="#0f0" transform="translate(72.41561889648438,-0.5033645629882813)"/>
<path d="M0 0 C9.18807566 8.34641988 15.86549131 20.45661601 17.37109375 32.88671875 C17.59527445 38.24499916 17.56096071 43.5879035 17.49609375 48.94921875 C17.48604207 50.40168653 17.4769201 51.85416105 17.46875 53.30664062 C17.44691392 56.83347557 17.41250524 60.36005295 17.37109375 63.88671875 C18.61246094 63.8403125 19.85382813 63.79390625 21.1328125 63.74609375 C22.77471546 63.70856454 24.41664452 63.67216561 26.05859375 63.63671875 C26.87521484 63.60320312 27.69183594 63.5696875 28.53320312 63.53515625 C29.72719727 63.51582031 29.72719727 63.51582031 30.9453125 63.49609375 C32.03718872 63.46467285 32.03718872 63.46467285 33.15112305 63.43261719 C36.53178586 64.12414175 38.04967292 65.34133848 40.37109375 67.88671875 C40.87994903 70.79314652 41.07412427 73.1076897 41.03515625 76.01171875 C41.03993988 76.79562988 41.04472351 77.57954102 41.0496521 78.38720703 C41.05304817 80.04136161 41.04386589 81.69558356 41.02294922 83.34960938 C40.99617409 85.87912885 41.02270115 88.40421199 41.0546875 90.93359375 C41.05138334 92.54297853 41.04497697 94.15236055 41.03515625 95.76171875 C41.0452774 96.51598145 41.05539856 97.27024414 41.06582642 98.04736328 C40.98062693 101.87213968 40.69427922 103.54614183 38.02099609 106.36328125 C34.77853608 108.22738209 33.0533473 108.51348531 29.37109375 107.88671875 C27.06833819 106.01961965 25.69285504 104.53024134 24.37109375 101.88671875 C24.37109375 94.62671875 24.37109375 87.36671875 24.37109375 79.88671875 C-16.21890625 79.88671875 -56.80890625 79.88671875 -98.62890625 79.88671875 C-98.62890625 110.57671875 -98.62890625 141.26671875 -98.62890625 172.88671875 C-58.03890625 172.88671875 -17.44890625 172.88671875 24.37109375 172.88671875 C24.37109375 159.02671875 24.37109375 145.16671875 24.37109375 130.88671875 C27.37109375 125.88671875 27.37109375 125.88671875 29.37109375 124.88671875 C35.61371211 124.30869853 35.61371211 124.30869853 38.5643158 126.56054688 C40.77710277 129.40944306 40.88178239 130.84225769 40.90454102 134.41796875 C40.92829552 136.07989258 40.92829552 136.07989258 40.95252991 137.77539062 C40.94757004 138.96712891 40.94261017 140.15886719 40.9375 141.38671875 C40.94369858 142.61455078 40.94989716 143.84238281 40.95628357 145.10742188 C40.96338684 147.70311693 40.96019901 150.29885749 40.94750977 152.89453125 C40.93364525 156.87194396 40.96771159 160.84700484 41.00585938 164.82421875 C41.00681053 167.34505266 41.00495192 169.86588952 41 172.38671875 C41.01325821 173.57845703 41.02651642 174.77019531 41.04017639 175.99804688 C41.02764328 177.10599609 41.01511017 178.21394531 41.00219727 179.35546875 C41.0012355 180.32935547 41.00027374 181.30324219 40.99928284 182.30664062 C40.11417292 185.94193576 38.45580364 186.85524372 35.37109375 188.88671875 C32.50530243 189.39008331 32.50530243 189.39008331 29.29870605 189.39465332 C28.0790062 189.40593262 26.85930634 189.41721191 25.60264587 189.42883301 C24.2591834 189.42105656 22.91572329 189.41286393 21.57226562 189.40429688 C20.15108015 189.40971968 18.72990031 189.41684323 17.30873108 189.42553711 C13.45536804 189.44375494 9.60243392 189.43670955 5.74906349 189.42402077 C1.71416707 189.41388501 -2.32069294 189.42328804 -6.35559082 189.42956543 C-13.1311705 189.43684018 -19.90657572 189.42725874 -26.68212891 189.40820312 C-34.51266922 189.3864346 -42.34279293 189.3934861 -50.17332315 189.41550875 C-56.89959733 189.43366775 -63.62574618 189.43621866 -70.35203695 189.42575407 C-74.36798524 189.41952185 -78.38373779 189.41867593 -82.39967346 189.43190002 C-86.17552224 189.44346531 -89.95083455 189.43542107 -93.72662544 189.412323 C-95.1113197 189.40703943 -96.49605921 189.40854375 -97.8807354 189.41737366 C-99.77264658 189.42832472 -101.66465657 189.4121485 -103.55651855 189.39465332 C-105.14378376 189.39239117 -105.14378376 189.39239117 -106.76311493 189.39008331 C-110.42277199 188.74727947 -112.08174658 187.56840584 -114.62890625 184.88671875 C-115.25811195 182.57846832 -115.25811195 182.57846832 -115.26382446 179.99084473 C-115.27792358 179.00667068 -115.29202271 178.02249664 -115.30654907 177.00849915 C-115.29136734 175.39844246 -115.29136734 175.39844246 -115.27587891 173.75585938 C-115.2846405 172.62053268 -115.2934021 171.48520599 -115.3024292 170.31547546 C-115.32445994 166.55758601 -115.30985588 162.80087045 -115.29296875 159.04296875 C-115.29633578 156.43509698 -115.30118746 153.82722674 -115.3074646 151.21936035 C-115.31655832 145.75174204 -115.30458101 140.28446154 -115.28076172 134.81689453 C-115.25355034 128.49776911 -115.26236475 122.17945028 -115.28989375 115.86034441 C-115.31532661 109.77871034 -115.31262367 103.69743357 -115.29798508 97.61576843 C-115.29464522 95.02894478 -115.29875837 92.4421006 -115.31038284 89.8553009 C-115.32305542 86.24216876 -115.30376144 82.630594 -115.27587891 79.01757812 C-115.28600006 77.944207 -115.29612122 76.87083588 -115.30654907 75.76493835 C-115.20281799 68.52410108 -115.20281799 68.52410108 -112.22721863 65.21942139 C-109.58891613 63.86620739 -108.13431129 63.41174307 -105.203125 63.49609375 C-104.40712891 63.50898438 -103.61113281 63.521875 -102.79101562 63.53515625 C-101.97439453 63.56867188 -101.15777344 63.6021875 -100.31640625 63.63671875 C-99.48044922 63.65476562 -98.64449219 63.6728125 -97.78320312 63.69140625 C-95.73127397 63.73830749 -93.67993869 63.81004464 -91.62890625 63.88671875 C-91.64985352 62.98542236 -91.67080078 62.08412598 -91.69238281 61.15551758 C-91.76137866 57.74655524 -91.81109675 54.33835597 -91.84863281 50.92895508 C-91.86850074 49.46561833 -91.89560507 48.00235826 -91.93066406 46.53930664 C-92.29344897 30.9875712 -89.13428377 15.37667161 -78.28125 3.4140625 C-55.26412496 -17.86181431 -24.58255441 -19.76101328 0 0 Z M-66.76953125 15.5 C-72.79003014 23.22799332 -75.76757347 31.16125419 -75.7265625 40.83984375 C-75.72514755 41.50006531 -75.7237326 42.16028687 -75.72227478 42.84051514 C-75.7166987 44.93929669 -75.70415072 47.0379697 -75.69140625 49.13671875 C-75.68638815 50.56380054 -75.68182579 51.990884 -75.67773438 53.41796875 C-75.66759002 56.90762707 -75.64801026 60.39705207 -75.62890625 63.88671875 C-70.67890625 63.88671875 -65.72890625 63.88671875 -60.62890625 63.88671875 C-60.603125 61.96988281 -60.57734375 60.05304688 -60.55078125 58.078125 C-60.49447887 55.53513415 -60.43713203 52.99216628 -60.37890625 50.44921875 C-60.36472656 49.18916016 -60.35054687 47.92910156 -60.3359375 46.63085938 C-60.12476551 38.5429721 -59.62761167 31.1639493 -53.87988281 25.01586914 C-47.75431634 19.33227168 -42.07251437 18.42573261 -33.859375 18.57421875 C-27.71734692 19.16836899 -24.16692968 21.38287362 -19.81640625 25.63671875 C-14.33206127 33.78488843 -14.118699 41.29264808 -13.94140625 50.88671875 C-13.90724609 52.13839844 -13.87308594 53.39007813 -13.83789062 54.6796875 C-13.7559023 57.74839335 -13.6907161 60.81754016 -13.62890625 63.88671875 C-8.67890625 63.88671875 -3.72890625 63.88671875 1.37109375 63.88671875 C1.46381012 59.814925 1.54316326 55.74587897 1.59082031 51.67358398 C1.61072045 50.29357375 1.63785115 48.91364538 1.67285156 47.53393555 C1.9873065 34.80313487 0.17688749 24.46352669 -8.62890625 14.88671875 C-16.8452591 6.56808765 -25.40173246 2.6484941 -37.00390625 1.57421875 C-48.6404129 2.57736587 -58.69747674 7.02434276 -66.76953125 15.5 Z M-42.82324219 36.0534668 C-44.91231077 39.33140634 -45.09843354 40.99726333 -45.01953125 44.84375 C-45.00664062 45.95556641 -44.99375 47.06738281 -44.98046875 48.21289062 C-44.94695312 49.36337891 -44.9134375 50.51386719 -44.87890625 51.69921875 C-44.86085938 52.86904297 -44.8428125 54.03886719 -44.82421875 55.24414062 C-44.77717857 58.12535157 -44.70543822 61.00614031 -44.62890625 63.88671875 C-39.67890625 63.88671875 -34.72890625 63.88671875 -29.62890625 63.88671875 C-29.52095379 59.82350794 -29.44160075 55.76316596 -29.37890625 51.69921875 C-29.34539062 50.54873047 -29.311875 49.39824219 -29.27734375 48.21289062 C-29.25800781 46.54516602 -29.25800781 46.54516602 -29.23828125 44.84375 C-29.21733398 43.8225708 -29.19638672 42.8013916 -29.17480469 41.74926758 C-29.75324035 38.10294597 -31.02264678 36.46021149 -33.62890625 33.88671875 C-37.8588308 33.13137508 -39.70568829 32.97510778 -42.82324219 36.0534668 Z " fill="#0f0" transform="translate(277.62890625,246.11328125)"/>
<path d="M0 0 C5.94801317 3.38087394 9.4260572 8.65317161 11.5625 15.0625 C11.65773918 17.18577356 11.69236362 19.31209711 11.6875 21.4375 C11.69136719 23.11972656 11.69136719 23.11972656 11.6953125 24.8359375 C11.57720948 27.70514622 11.22032328 30.27458229 10.5625 33.0625 C11.08199219 33.48660156 11.60148437 33.91070312 12.13671875 34.34765625 C19.74751128 40.74860006 23.94356686 46.42922146 26.5625 56.0625 C26.789375 56.8875 27.01625 57.7125 27.25 58.5625 C28.61766783 69.50384264 28.61766783 69.50384264 25.5625 74.0625 C22.13124046 76.31199341 19.17026636 76.32094689 15.12915039 76.3371582 C13.82422134 76.34669022 12.5192923 76.35622223 11.17481995 76.36604309 C9.75326511 76.36578165 8.33171025 76.36484456 6.91015625 76.36328125 C5.4481138 76.36716985 3.98607247 76.37150486 2.52403259 76.37626648 C-0.53829615 76.38372218 -3.60050958 76.38344217 -6.6628418 76.37817383 C-10.58144401 76.37237994 -14.49957344 76.38931094 -18.4180975 76.4125185 C-21.43704474 76.42727147 -24.45587852 76.42812544 -27.47485542 76.42500877 C-28.91930643 76.4255212 -30.36376391 76.43074423 -31.80817986 76.44082069 C-33.83033498 76.45319666 -35.85258579 76.44444357 -37.87475586 76.43481445 C-39.02407089 76.43544388 -40.17338593 76.4360733 -41.35752869 76.4367218 C-44.79313873 76.01928928 -46.67752118 75.11643454 -49.4375 73.0625 C-52.14764222 67.64221556 -50.843343 59.61062407 -49.3125 53.9375 C-46.45868709 45.64277276 -41.99550598 37.85443163 -34.4375 33.0625 C-33.7775 33.0625 -33.1175 33.0625 -32.4375 33.0625 C-32.9325 31.886875 -33.4275 30.71125 -33.9375 29.5 C-36.31014822 23.05995482 -35.80369462 17.63380809 -33.47265625 11.26953125 C-30.80093862 5.57322763 -26.61214903 1.2684881 -20.83203125 -1.2734375 C-13.83398544 -3.21416798 -6.66261049 -2.89416564 0 0 Z M-18.4375 17.0625 C-19.60860449 19.9221006 -19.60860449 19.9221006 -19.4375 23.0625 C-17.63075552 26.18955776 -16.3529573 27.68692777 -13 29.0625 C-9.67093446 29.0625 -8.07207537 28.03843152 -5.4375 26.0625 C-4.01708179 23.22166359 -4.12297728 21.20772722 -4.4375 18.0625 C-5.9375 15.5625 -5.9375 15.5625 -8.4375 14.0625 C-12.74841137 13.43382542 -15.46741864 13.7624096 -18.4375 17.0625 Z M-31.3125 52.23046875 C-31.68375 52.89691406 -32.055 53.56335938 -32.4375 54.25 C-32.829375 54.92417969 -33.22125 55.59835938 -33.625 56.29296875 C-34.5765921 58.04090138 -34.5765921 58.04090138 -34.4375 60.0625 C-19.5875 60.0625 -4.7375 60.0625 10.5625 60.0625 C9.55009351 53.59017052 9.55009351 53.59017052 5.5625 49.0625 C-0.13590768 45.31711116 -5.21050005 44.4082191 -11.9375 44.5 C-13.14212891 44.46422852 -13.14212891 44.46422852 -14.37109375 44.42773438 C-21.47275384 44.44499935 -26.64281512 46.83114561 -31.3125 52.23046875 Z " fill="#0f0" transform="translate(174.4375,63.9375)"/>
<path d="M0 0 C1.28163025 -0.0071553 2.5632605 -0.01431061 3.88372803 -0.02168274 C7.39630788 -0.04020048 10.9081289 -0.02725684 14.42067719 -0.00759244 C18.09702946 0.00879283 21.77333362 -0.00001865 25.44970703 -0.00511169 C31.62349571 -0.00963283 37.79698144 0.00623807 43.97070312 0.03417969 C51.10769598 0.06623198 58.24414244 0.06621612 65.38117409 0.04896492 C72.24765497 0.03309925 79.11393559 0.03983354 85.98040771 0.05690193 C88.90221489 0.0637733 91.82386158 0.0627392 94.7456665 0.05535698 C98.82554462 0.04627092 102.9045791 0.07023042 106.984375 0.09765625 C108.1980072 0.09113037 109.4116394 0.08460449 110.66204834 0.07788086 C112.32762787 0.09696754 112.32762787 0.09696754 114.02685547 0.11643982 C114.99138641 0.11924674 115.95591736 0.12205366 116.94967651 0.12494564 C120.25818298 0.78359633 121.45366721 1.98695871 123.4921875 4.63110352 C123.96137433 8.38459813 124.02355131 10.66958805 122.1796875 14.00610352 C119.20284517 16.87269243 116.23225056 16.75904865 112.30569458 16.77154541 C111.23178467 16.77725555 110.15787476 16.7829657 109.05142212 16.78884888 C107.87316864 16.78996674 106.69491516 16.79108459 105.48095703 16.79223633 C103.61966156 16.79968369 103.61966156 16.79968369 101.72076416 16.80728149 C98.31574027 16.81939116 94.9107778 16.82684841 91.50573969 16.83129215 C89.37814093 16.83422419 87.25054755 16.83832922 85.12295151 16.84279633 C78.46530403 16.85646809 71.80766886 16.86613657 65.15000832 16.86999822 C57.46618214 16.87447967 49.78253379 16.89203284 42.09876168 16.92099881 C36.15811649 16.94261594 30.21752133 16.95270249 24.27683723 16.95403934 C20.72922864 16.95508726 17.18178729 16.96099231 13.63422012 16.97885895 C9.67682404 16.99840227 5.71965024 16.99405051 1.76220703 16.98754883 C0.58800201 16.99676361 -0.586203 17.00597839 -1.79598999 17.01547241 C-2.87553955 17.00990326 -3.95508911 17.00433411 -5.06735229 16.99859619 C-6.00276289 17.00006275 -6.93817348 17.00152931 -7.90192986 17.00304031 C-11.05103155 16.55357003 -12.9414399 15.48103084 -15.5078125 13.63110352 C-16.93443469 10.77785914 -16.81815118 8.79655803 -16.5078125 5.63110352 C-13.23785481 -1.39539543 -6.74154513 -0.06494842 0 0 Z " fill="#0f0" transform="translate(295.5078125,123.368896484375)"/>
<path d="M0 0 C1.28163025 -0.0071553 2.5632605 -0.01431061 3.88372803 -0.02168274 C7.39630788 -0.04020048 10.9081289 -0.02725684 14.42067719 -0.00759244 C18.09702946 0.00879283 21.77333362 -0.00001865 25.44970703 -0.00511169 C31.62349571 -0.00963283 37.79698144 0.00623807 43.97070312 0.03417969 C51.10769598 0.06623198 58.24414244 0.06621612 65.38117409 0.04896492 C72.24765497 0.03309925 79.11393559 0.03983354 85.98040771 0.05690193 C88.90221489 0.0637733 91.82386158 0.0627392 94.7456665 0.05535698 C98.82554462 0.04627092 102.9045791 0.07023042 106.984375 0.09765625 C108.1980072 0.09113037 109.4116394 0.08460449 110.66204834 0.07788086 C112.32762787 0.09696754 112.32762787 0.09696754 114.02685547 0.11643982 C114.99138641 0.11924674 115.95591736 0.12205366 116.94967651 0.12494564 C120.25818298 0.78359633 121.45366721 1.98695871 123.4921875 4.63110352 C123.96137433 8.38459813 124.02355131 10.66958805 122.1796875 14.00610352 C119.20284517 16.87269243 116.23225056 16.75904865 112.30569458 16.77154541 C111.23178467 16.77725555 110.15787476 16.7829657 109.05142212 16.78884888 C107.87316864 16.78996674 106.69491516 16.79108459 105.48095703 16.79223633 C103.61966156 16.79968369 103.61966156 16.79968369 101.72076416 16.80728149 C98.31574027 16.81939116 94.9107778 16.82684841 91.50573969 16.83129215 C89.37814093 16.83422419 87.25054755 16.83832922 85.12295151 16.84279633 C78.46530403 16.85646809 71.80766886 16.86613657 65.15000832 16.86999822 C57.46618214 16.87447967 49.78253379 16.89203284 42.09876168 16.92099881 C36.15811649 16.94261594 30.21752133 16.95270249 24.27683723 16.95403934 C20.72922864 16.95508726 17.18178729 16.96099231 13.63422012 16.97885895 C9.67682404 16.99840227 5.71965024 16.99405051 1.76220703 16.98754883 C0.58800201 16.99676361 -0.586203 17.00597839 -1.79598999 17.01547241 C-2.87553955 17.00990326 -3.95508911 17.00433411 -5.06735229 16.99859619 C-6.00276289 17.00006275 -6.93817348 17.00152931 -7.90192986 17.00304031 C-11.05103155 16.55357003 -12.9414399 15.48103084 -15.5078125 13.63110352 C-16.93443469 10.77785914 -16.81815118 8.79655803 -16.5078125 5.63110352 C-13.23785481 -1.39539543 -6.74154513 -0.06494842 0 0 Z " fill="#0f0" transform="translate(295.5078125,92.368896484375)"/>
<path d="M0 0 C1.10901169 -0.00990463 2.21802338 -0.01980927 3.36064148 -0.03001404 C4.57786896 -0.02551239 5.79509644 -0.02101074 7.04920959 -0.01637268 C8.33069382 -0.02323593 9.61217804 -0.03009918 10.93249512 -0.03717041 C14.44907513 -0.05513614 17.96540608 -0.05392707 21.48201823 -0.04822803 C24.41698273 -0.04514089 27.35189906 -0.05122335 30.28685671 -0.05726677 C37.21061133 -0.07132176 44.13424258 -0.06974284 51.05799866 -0.05836487 C58.20232755 -0.04688389 65.34628105 -0.06095645 72.49056047 -0.08776134 C78.62314371 -0.10990944 84.75560903 -0.11655773 90.88822943 -0.11068493 C94.5515231 -0.10731181 98.21457616 -0.10975354 101.87783623 -0.12693596 C105.96254669 -0.14525832 110.04652559 -0.13122736 114.13124084 -0.11402893 C115.34644409 -0.1236969 116.56164734 -0.13336487 117.81367493 -0.14332581 C119.4814222 -0.1285746 119.4814222 -0.1285746 121.18286133 -0.11352539 C122.63160597 -0.11321146 122.63160597 -0.11321146 124.10961819 -0.1128912 C127.42325715 0.53878428 128.61518878 1.74028308 130.65492249 4.38768005 C131.12410931 8.14117467 131.1862863 10.42616459 129.34242249 13.76268005 C126.37369164 16.62145791 123.42199028 16.5143163 119.50639343 16.52139282 C118.44089767 16.52565781 117.37540192 16.52992279 116.27761841 16.53431702 C114.5242643 16.53363724 114.5242643 16.53363724 112.73548889 16.53294373 C110.88882378 16.53798164 110.88882378 16.53798164 109.00485229 16.54312134 C105.62668396 16.55100164 102.24857707 16.55429939 98.87040377 16.55493712 C96.04987425 16.55588669 93.22935062 16.55956558 90.40882337 16.56310922 C83.75354868 16.5712533 77.09828752 16.57369351 70.44300842 16.57298279 C63.5794186 16.57238212 56.71590741 16.58293181 49.85233748 16.59872645 C43.95840098 16.61180607 38.06449016 16.6171665 32.17053926 16.61652738 C28.6509178 16.6162725 25.13136619 16.61911818 21.61175919 16.62970543 C17.68552331 16.64119323 13.75939509 16.63663699 9.83314514 16.63059998 C8.66829086 16.63621948 7.50343658 16.64183899 6.30328369 16.64762878 C5.23214828 16.6434343 4.16101288 16.63923981 3.05741882 16.63491821 C2.12938257 16.63546298 1.20134632 16.63600775 0.24518776 16.63656902 C-2.62495276 16.36078788 -4.75666964 15.64259719 -7.34507751 14.38768005 C-9.51226957 11.72794435 -9.34042615 10.29930409 -9.15757751 6.82518005 C-7.80233265 1.09145179 -5.74755421 0.01446571 0 0 Z " fill="#0f0" transform="translate(288.34507751464844,61.61231994628906)"/>
<path d="M0 0 C4.92690216 4.35551088 8.49679217 9.73671146 9.28125 16.3828125 C9.55333699 23.79718309 7.95492719 29.17621629 3.75 35.25 C1.26029998 37.73970002 0.2869359 38.36790768 -2.75 39.625 C-4.6337683 40.45051521 -4.6337683 40.45051521 -6 42 C-6.58964033 45.10107139 -6.68797273 47.97090896 -6.63671875 51.125 C-7 54 -7 54 -8.80078125 56.34765625 C-11.97126901 58.72974563 -14.13420757 58.48322405 -18 58 C-20.5062326 56.68093021 -21.69025417 55.92316404 -22.59765625 53.21875 C-23.05723984 50.68434727 -23.09637398 48.32442241 -23.0625 45.75 C-23.05347656 44.85796875 -23.04445312 43.9659375 -23.03515625 43.046875 C-23.02355469 42.37140625 -23.01195312 41.6959375 -23 41 C-23.721875 40.7525 -24.44375 40.505 -25.1875 40.25 C-31.34765314 37.51215416 -34.07316699 33.85366602 -37 28 C-39.1729333 20.90558862 -38.71253236 13.73756473 -35.3984375 7.109375 C-32.28201435 2.40862499 -28.17801724 -0.88679119 -23.1875 -3.4375 C-14.82511737 -4.91321458 -7.25451037 -4.80805755 0 0 Z M-22 17 C-22.33660145 20.64407137 -22.33660145 20.64407137 -21 24 C-18.17708663 26.58094937 -16.69477972 27.01389559 -12.875 26.9375 C-9.985468 26.19321549 -9.985468 26.19321549 -8.0625 24.375 C-6.50199057 20.88680246 -7.00845336 18.63567102 -8 15 C-10.08626043 12.69021167 -11.40817681 12.12139963 -14.4375 11.5 C-18.30011236 12.25368046 -19.72180575 13.85073148 -22 17 Z " fill="#0f0" transform="translate(255,343)"/>
<path d="M0 0 C1.90625 0.484375 1.90625 0.484375 4.40625 2.609375 C6.1531468 5.95759387 6.46091566 7.7601913 5.90625 11.484375 C4.84375 13.796875 4.84375 13.796875 2.90625 15.484375 C-1.06719161 16.58810878 -3.18374772 16.89981083 -6.96875 15.171875 C-9.09375 13.484375 -9.09375 13.484375 -10.09375 11.484375 C-10.49991229 7.82891435 -10.30809253 5.89519818 -8.59375 2.609375 C-5.56459317 0.03459169 -3.88724229 -0.26108344 0 0 Z " fill="#0f0" transform="translate(258.09375,123.515625)"/>
<path d="M0 0 C1.90625 0.484375 1.90625 0.484375 4.40625 2.609375 C6.16209708 5.97474856 6.54281938 7.74452991 5.90625 11.484375 C3.83729835 14.42865235 2.39715073 15.32770455 -1.03125 16.421875 C-4.69247681 16.49659391 -6.2242174 15.69801444 -9.09375 13.484375 C-10.52037219 10.63113063 -10.40408868 8.64982951 -10.09375 5.484375 C-7.60378974 0.71195116 -5.15439468 -0.34619069 0 0 Z " fill="#0f0" transform="translate(258.09375,92.515625)"/>
<path d="M0 0 C1.90625 0.484375 1.90625 0.484375 4.40625 2.609375 C6.16209708 5.97474856 6.54281938 7.74452991 5.90625 11.484375 C3.99204729 14.10754167 2.54372948 15.23273836 -0.46875 16.421875 C-4.02483969 16.5065438 -6.09608435 15.32385165 -9.09375 13.484375 C-10.52037219 10.63113063 -10.40408868 8.64982951 -10.09375 5.484375 C-7.60378974 0.71195116 -5.15439468 -0.34619069 0 0 Z " fill="#0f0" transform="translate(258.09375,61.515625)"/>
</svg>