<svg version="1.1" xmlns="http://www.w3.org/2000/svg" width="512px" height="512px" transform="rotate(0) scale(1, 1)">
<path d="M0 0 C3.80462501 3.29555547 6.259966 6.3867697 7.0625 11.4375 C7.26950739 16.11109001 6.40449927 19.97488584 4 24 C-1.89996776 30.32139403 -9.79410499 31.80051378 -17.98730469 33.68481445 C-49.58857915 40.97426746 -78.25900742 57.00648078 -101.49755859 79.54882812 C-102.9266915 80.92919309 -104.37882072 82.28563146 -105.83203125 83.640625 C-118.67481478 95.91384302 -128.16589693 110.69199686 -137 126 C-137.37108887 126.63760254 -137.74217773 127.27520508 -138.12451172 127.93212891 C-169.62186982 182.57692306 -178.48483178 256.82372252 -162.9309082 317.62109375 C-154.35887838 349.37560816 -140.0266966 378.88114495 -119.3125 404.5 C-118.79018799 405.14630371 -118.26787598 405.79260742 -117.72973633 406.45849609 C-114.06487878 410.90469091 -110.1276526 414.98371197 -106 419 C-101 424 -101 424 -99.30957031 425.76074219 C-94.58787045 430.61700449 -89.65889092 434.82728672 -84.1875 438.8125 C-83.36781738 439.41070557 -82.54813477 440.00891113 -81.70361328 440.62524414 C-49.53995466 463.69703857 -11.7428989 476.50684348 27.99609375 470.359375 C37.14238312 468.71910478 46.35443976 465.31734468 52.59375 458.17578125 C59.85092979 447.10014349 58.39035643 432.31177559 56 420 C55.63616905 418.37246289 55.26292201 416.74696378 54.875 415.125 C52.44203783 404.28725941 55.6780126 397.44695428 61 388 C61.36851074 387.34080566 61.73702148 386.68161133 62.11669922 386.00244141 C64.37283755 381.97884841 66.67041353 377.98147507 69 374 C67.74550049 373.60143799 66.49100098 373.20287598 65.19848633 372.79223633 C59.61164375 370.92727701 54.23172854 368.65122193 48.82421875 366.32421875 C47.77780716 365.87657669 46.73139557 365.42893463 45.65327454 364.96772766 C43.4498087 364.02396571 41.24711768 363.0783929 39.04516602 362.13110352 C35.71013288 360.69723084 32.37187507 359.2710791 29.03320312 357.84570312 C26.8800093 356.92233899 24.7270082 355.99852528 22.57421875 355.07421875 C21.59257248 354.65524826 20.61092621 354.23627777 19.59953308 353.80461121 C-1.75059605 344.59390269 -1.75059605 344.59390269 -6 338 C-7.72237197 332.8328841 -7.65561622 327.89400242 -5.875 322.75 C-3.26306126 318.91915651 -0.19676371 316.09838185 4 314 C12.53358979 313.00272337 18.98118195 315.04913032 26.69140625 318.50390625 C27.7836853 318.97421768 28.87596436 319.44452911 30.00134277 319.92909241 C33.53046185 321.45430727 37.04641858 323.00749464 40.5625 324.5625 C42.98882733 325.6198762 45.41583374 326.67569547 47.84350586 327.72998047 C52.66359437 329.82705435 57.47837717 331.93564721 62.2890625 334.05419922 C68.15678072 336.63594114 74.04275433 339.17214672 79.9375 341.69140625 C82.26364516 342.69208398 84.58892907 343.69471644 86.9135437 344.69894409 C88.33267528 345.31049454 89.75316813 345.91889688 91.17507935 346.5239563 C93.11282872 347.35085212 95.0433635 348.19266112 96.97265625 349.0390625 C98.02718994 349.49490723 99.08172363 349.95075195 100.16821289 350.42041016 C105.91113926 353.623853 109.11885288 357.7295096 111 364 C111.15700415 370.78453184 108.98041004 375.78507979 105.5625 381.5 C105.12454102 382.27263184 104.68658203 383.04526367 104.23535156 383.84130859 C101.97695948 387.79309289 99.60934116 391.62378674 97.04296875 395.3828125 C90.81984387 404.60701015 90.81984387 404.60701015 90.375 415.5 C90.64206644 416.81327166 90.91309363 418.12574237 91.1875 419.4375 C94.97788956 438.08486294 92.54832811 458.57595933 82.9765625 475.03125 C71.92554446 491.62961701 55.7508982 499.70276757 36.82421875 504.23828125 C16.30806975 508.32474607 -8.64388557 508.02189103 -29 503 C-29.83595703 502.79600586 -30.67191406 502.59201172 -31.53320312 502.38183594 C-43.79061154 499.3017922 -55.51056116 495.2556589 -67 490 C-67.66306152 489.69868164 -68.32612305 489.39736328 -69.00927734 489.08691406 C-89.91423746 479.45258716 -108.46271515 465.93346098 -125 450 C-125.66080566 449.36642578 -126.32161133 448.73285156 -127.00244141 448.08007812 C-136.47261716 438.95313418 -145.38031762 429.73766378 -153 419 C-153.53157715 418.25331055 -154.0631543 417.50662109 -154.61083984 416.73730469 C-187.15749508 370.52828891 -204.48898822 317.91956805 -204.375 261.4375 C-204.37478851 260.46221344 -204.37457703 259.48692688 -204.37435913 258.48208618 C-204.22551845 189.17382183 -183.01031169 115.79198086 -134.609375 64.46484375 C-133.31204662 63.17989446 -132.00337543 61.90621565 -130.6796875 60.6484375 C-129.03707069 59.036381 -127.62504879 57.35740555 -126.1875 55.5625 C-122.82794404 51.54384859 -118.79845845 48.43278936 -114.7109375 45.18359375 C-112.46885473 43.377651 -110.35818653 41.51878663 -108.25 39.5625 C-88.90162012 22.50433651 -25.10792081 -17.29656767 0 0 Z " fill="#00ff00" transform="translate(209,6)"/>
<path d="M0 0 C5.36803601 3.64259586 8.22364061 10.2666274 11.3125 15.8125 C29.93474825 48.91871911 53.49416513 78.28900841 84.2890625 100.8359375 C90.21324216 105.18224849 95.9080265 109.81275611 101.61230469 114.44140625 C103.20256662 115.72384608 104.80780536 116.98765182 106.4140625 118.25 C118.46740852 127.81298527 128.80406575 139.53460457 131.09765625 155.33203125 C131.20400391 156.55986328 131.20400391 156.55986328 131.3125 157.8125 C131.39371094 158.74449219 131.47492188 159.67648438 131.55859375 160.63671875 C132.16815805 174.76752763 126.57964215 188.06725107 117.09765625 198.4296875 C103.19921025 212.9846623 86.27615895 222.13686926 68.3125 230.8125 C68.5290625 231.94945312 68.745625 233.08640625 68.96875 234.2578125 C73.38884841 258.35219601 73.38884841 258.35219601 69.625 266.4375 C65.67640149 270.49281738 61.84815542 273.24358291 56.6328125 275.44921875 C55.49763184 275.93471191 54.36245117 276.42020508 53.19287109 276.92041016 C52.58465515 277.17622864 51.97643921 277.43204712 51.34979248 277.69561768 C49.37811285 278.52498047 47.41058026 279.3635673 45.44384766 280.20458984 C43.31360422 281.11544738 41.18313171 282.02572346 39.05148315 282.93328857 C31.37942702 286.20085028 23.74002846 289.54202857 16.10015869 292.88397217 C13.67347236 293.9436254 11.24501109 294.99909933 8.81591797 296.05322266 C0.67672154 299.58701688 -7.45001039 303.14444358 -15.54855347 306.77062988 C-19.53538473 308.55239723 -23.5292277 310.31809381 -27.52410889 312.08172607 C-29.44700114 312.93531089 -31.36673291 313.79605586 -33.28302002 314.66436768 C-54.49860697 324.27021933 -54.49860697 324.27021933 -63.74487305 321.10913086 C-68.10390976 318.97234816 -70.58227455 316.1039211 -72.6875 311.8125 C-74.29613303 305.73297655 -73.88920372 301.36211978 -70.6875 295.8125 C-63.57851969 286.76470688 -49.64230078 283.1466068 -39.32199097 278.76907349 C-34.67003275 276.7956957 -30.02209262 274.81292958 -25.375 272.828125 C-24.41718124 272.41905411 -23.45936249 272.00998322 -22.47251892 271.58851624 C-15.67197331 268.67759901 -8.89280826 265.72055685 -2.125 262.734375 C-1.19522842 262.3243071 -0.26545685 261.9142392 0.69248962 261.491745 C5.15521639 259.52181058 9.61523701 257.54596225 14.07250977 255.5637207 C15.69543347 254.84577142 17.31839689 254.12791189 18.94140625 253.41015625 C20.0170282 252.92847992 20.0170282 252.92847992 21.11437988 252.43707275 C26.08728886 250.2431595 31.13122081 248.45177237 36.3125 246.8125 C36.02375 245.74 35.735 244.6675 35.4375 243.5625 C29.35291139 218.83299343 29.35291139 218.83299343 33.875 209.75 C38.60091119 204.05467113 45.6011166 201.76048847 52.3125 199.0625 C78.70579703 188.18037561 78.70579703 188.18037561 96.3125 166.8125 C96.97666245 161.11967899 96.38984186 157.58834837 93.1015625 152.8671875 C89.36409137 148.57480799 84.8148935 145.25912133 80.3125 141.8125 C79.19893396 140.93821534 78.08699419 140.06185594 76.9765625 139.18359375 C72.26912574 135.46273754 67.54375786 131.76528639 62.80078125 128.08984375 C25.21905335 98.90285871 -4.33254692 63.52240616 -25.6875 20.8125 C-26.46979569 14.17416225 -26.19733958 8.88417143 -22.15625 3.40625 C-16.35567949 -2.88798608 -7.61965908 -2.45378852 0 0 Z " fill="#00ff00" transform="translate(247.6875,1.1875)"/>
<path d="M0 0 C6.57254584 2.43343393 10.70729171 7.71124235 15 13 C15.76183594 13.8765625 16.52367187 14.753125 17.30859375 15.65625 C36.67907079 38.13929979 49.81053283 64.60169841 58 93 C58.46019531 94.51207031 58.46019531 94.51207031 58.9296875 96.0546875 C72.7894164 145.34959957 62.30597377 199.77891735 37.9453125 243.74609375 C30.48904394 256.83737112 21.21015229 268.71097779 11.125 279.875 C10.61420898 280.45193604 10.10341797 281.02887207 9.57714844 281.62329102 C5.22093231 286.30347072 1.02669388 288.61478442 -5.4375 289.4375 C-11.22749312 288.72644821 -15.41479334 286.66649931 -19.4375 282.4375 C-21.65956528 278.97107817 -22.17553305 276.22733216 -22.25 272.1875 C-22.27578125 271.35605469 -22.3015625 270.52460938 -22.328125 269.66796875 C-21.55999659 263.4223532 -17.82751266 259.4834086 -13.5625 255.1875 C15.6168711 224.62439261 30.84960678 181.74953142 29.93359375 139.73828125 C28.55550162 101.36813285 14.2201773 64.1127397 -11.75 35.75 C-22.29812986 24.11520668 -22.29812986 24.11520668 -22.625 16.3125 C-22.33726789 11.52142582 -21.27745158 8.63177066 -18 5 C-12.11412803 -0.18517293 -7.75548195 -0.90375535 0 0 Z " fill="#00ff00" transform="translate(409,184)"/>
<path d="M0 0 C12.04457022 6.70717243 20.02520491 21.73539657 26.0625 33.625 C26.49433594 34.46417969 26.92617188 35.30335938 27.37109375 36.16796875 C40.93408397 64.09674301 41.52034623 96.52354702 31.56640625 125.6484375 C25.58234778 142.05098859 14.1789223 164.56678885 -1.9375 172.625 C-7.79939377 174.28402654 -12.63201923 173.46550241 -17.9375 170.625 C-22.80694144 166.40617286 -24.63919001 162.72742391 -25.25 156.375 C-24.68776713 149.62820557 -21.72775878 145.32632196 -17.1875 140.4375 C-1.28805693 123.11951926 4.23562907 101.25571292 3.2578125 78.27294922 C1.82089556 58.79194782 -7.54690388 40.78089756 -21.01953125 26.9140625 C-24.404879 22.87370856 -25.40962232 19.02360655 -25.25 13.74609375 C-24.4481625 8.30362173 -22.1373163 4.57995583 -17.875 1.1875 C-12.00017125 -1.93740891 -6.16723355 -2.62724149 0 0 Z " fill="#00ff00" transform="translate(365.9375,241.375)"/>
<path d="M0 0 C3.83084349 2.61193874 6.65161815 5.67823629 8.75 9.875 C10.68093471 20.26621567 5.66053863 28.19364834 0.75 36.875 C0.01064209 38.19201904 0.01064209 38.19201904 -0.74365234 39.53564453 C-2.92186071 43.41093091 -5.1065459 47.28213315 -7.31567383 51.13989258 C-11.34135579 58.18118903 -15.16753981 65.30231671 -18.73974609 72.58520508 C-21.99052867 78.99337359 -25.95461457 85.3493586 -32.625 88.4375 C-38.50799871 89.14751709 -43.16486694 88.85855333 -48.5625 86.3125 C-53.16251415 82.14039415 -55.07410735 78.21865076 -55.5390625 72.0234375 C-55.43569802 67.84248899 -54.23129126 64.96492111 -52.25 61.25 C-51.9082373 60.5995874 -51.56647461 59.9491748 -51.21435547 59.27905273 C-50.40002433 57.73628096 -49.57751285 56.1978127 -48.74902344 54.66259766 C-47.31733178 52.00021079 -45.90612079 49.32764653 -44.50045776 46.65144348 C-38.3597077 34.96113709 -32.19355965 23.26913896 -25.625 11.8125 C-25.26035645 11.15967041 -24.89571289 10.50684082 -24.52001953 9.83422852 C-18.96350216 0.35433339 -10.61783993 -3.67540613 0 0 Z " fill="#00ff00" transform="translate(498.25,21.125)"/>
<path d="M0 0 C4.69292944 3.58254881 7.91807906 7.70694407 9.75 13.3359375 C10.62185202 20.68585276 10.36031278 27.33090825 5.75 33.3359375 C0.3150514 39.28962306 -4.49486296 41.7976201 -12.5625 42.7109375 C-19.66890322 41.98825243 -25.36073718 39.77801082 -30.25 34.4609375 C-34.54110011 28.96832936 -35.79802079 23.90274962 -35.62109375 16.9921875 C-34.67824245 10.24335717 -31.52396265 4.95283535 -26.1875 0.7734375 C-18.80164578 -4.38934773 -7.73584958 -4.54481163 0 0 Z " fill="#00ff00" transform="translate(447.25,119.6640625)"/>
</svg>