<svg version="1.1" xmlns="http://www.w3.org/2000/svg" width="512px" height="512px" transform="rotate(0) scale(1, 1)">
<path d="M0 0 C0.73863281 0.05542969 1.47726563 0.11085937 2.23828125 0.16796875 C7.15411976 1.46161046 10.10109751 3.83085895 12.69458008 8.17236328 C13.29712776 9.48570587 13.88394868 10.80634771 14.45703125 12.1328125 C15.12477096 13.56941981 15.7934184 15.00560549 16.46289062 16.44140625 C17.48887547 18.69203295 18.50392951 20.94640816 19.50219727 23.20947266 C22.86971425 31.72166374 22.86971425 31.72166374 28.85083008 38.19189453 C31.20427935 38.73398262 33.27566728 38.82302655 35.6875 38.8125 C37.36983389 39.07192917 39.04846244 39.35644928 40.72265625 39.6640625 C42.39798275 39.92481371 44.0737703 40.18261946 45.75 40.4375 C46.61560547 40.5715625 47.48121094 40.705625 48.37304688 40.84375 C50.47745974 41.16929453 52.58242305 41.49127768 54.6875 41.8125 C55.05101562 40.59240234 55.05101562 40.59240234 55.421875 39.34765625 C56.93798012 35.11285647 58.85813438 31.23139404 60.9375 27.25 C61.30746094 26.50814453 61.67742187 25.76628906 62.05859375 25.00195312 C65.07068064 19.22964328 68.26966794 14.95177735 74.6875 12.8125 C80.99693568 12.27780206 85.57550458 12.90569014 90.6875 16.8125 C94.89464693 22.16914827 97.31339958 28.28172162 99.61328125 34.61328125 C104.53916164 49.08303233 104.53916164 49.08303233 114.55780029 59.91027832 C123.26776799 63.54115094 133.14442912 63.74363319 142.45800781 63.74780273 C145.11344497 63.8009998 147.17875289 64.01486923 149.6875 64.8125 C149.9553833 63.9565625 150.2232666 63.100625 150.49926758 62.21875 C152.37183644 56.85074492 154.92240616 51.81650357 157.43530273 46.7265625 C158.06003904 45.45404169 158.67761191 44.1779781 159.2878418 42.8984375 C163.39477486 34.28816208 166.87311798 27.28899605 176.0625 23.375 C181.99007565 22.45520378 186.65357995 22.7379762 192 25.5625 C196.78869291 29.57163825 199.6269986 34.24636996 202.359375 39.79296875 C202.85029633 40.77406364 202.85029633 40.77406364 203.35113525 41.77497864 C204.03629306 43.14762102 204.71852395 44.52172793 205.39794922 45.8972168 C206.44127239 48.00763071 207.49529809 50.11244262 208.55078125 52.21679688 C209.21678235 53.55437076 209.88216904 54.89225078 210.546875 56.23046875 C210.86243347 56.86067429 211.17799194 57.49087982 211.50311279 58.1401825 C213.6875 62.58140496 213.6875 62.58140496 213.6875 64.8125 C217.99254612 64.11893896 222.29755796 63.42516566 226.60253906 62.73120117 C228.06509491 62.49546664 229.52765988 62.25978871 230.99023438 62.02416992 C233.10028483 61.68423332 235.21030169 61.34408886 237.3203125 61.00390625 C238.58762207 60.79967041 239.85493164 60.59543457 241.16064453 60.38500977 C242.32450684 60.19608154 243.48836914 60.00715332 244.6875 59.8125 C246.25806152 59.78289185 246.25806152 59.78289185 247.86035156 59.75268555 C251.11765914 58.66944794 251.40627307 58.15764116 253.04931641 55.29003906 C253.81821954 53.73020686 254.56339664 52.15853557 255.2890625 50.578125 C255.69281097 49.74794861 256.09655945 48.91777222 256.51254272 48.06243896 C257.80036411 45.40538202 259.05743464 42.73516409 260.3125 40.0625 C261.58002395 37.40705659 262.85379812 34.75481944 264.13388062 32.10540771 C264.92824992 30.45670468 265.71448277 28.80404926 266.49136353 27.14703369 C269.11851502 21.63250195 271.4335449 17.06951342 276.9375 14 C282.34295478 12.28827265 286.39842222 12.00459019 291.875 13.9375 C298.23231447 18.17570964 301.25447362 24.36623926 304.5 31.0625 C304.90669922 31.8771875 305.31339844 32.691875 305.73242188 33.53125 C308.6875 39.53080357 308.6875 39.53080357 308.6875 41.8125 C312.96135939 41.2285858 317.23079272 40.61693747 321.5 40 C322.71494141 39.83435547 323.92988281 39.66871094 325.18164062 39.49804688 C326.34501953 39.32724609 327.50839844 39.15644531 328.70703125 38.98046875 C329.78057861 38.82860107 330.85412598 38.6767334 331.96020508 38.52026367 C334.98919276 37.73420734 335.87655429 37.31487365 337.6875 34.8125 C338.87839794 32.58751912 339.98335572 30.37994219 341.05078125 28.09765625 C341.69667552 26.75817883 342.34317909 25.41899508 342.99023438 24.08007812 C343.99754354 21.97888076 344.99969064 19.87565812 345.9909668 17.7668457 C346.95465954 15.7239319 347.93862505 13.69181427 348.92578125 11.66015625 C349.21350906 11.03399918 349.50123688 10.4078421 349.79768372 9.76271057 C351.97382759 5.33327389 354.40698561 3.19631548 358.6875 0.8125 C360.9609375 0.0625 360.9609375 0.0625 363.0625 -0.1875 C364.09503906 -0.3421875 364.09503906 -0.3421875 365.1484375 -0.5 C369.20815079 -0.00034298 372.40273799 1.3679874 375.6875 3.8125 C377.83120821 6.56849238 379.27300815 9.53424209 380.75 12.6875 C381.1720874 13.52724365 381.5941748 14.3669873 382.02905273 15.23217773 C383.98391453 19.14450434 385.82688929 23.09139529 387.5625 27.10546875 C387.85116943 27.74693848 388.13983887 28.3884082 388.43725586 29.04931641 C389.19891635 30.76024975 389.91563072 32.49099299 390.62890625 34.22265625 C393.72445028 38.11705036 396.91189013 38.18951939 401.6875 38.8125 C402.69530518 38.96178955 403.70311035 39.1110791 404.74145508 39.26489258 C409.24642259 39.92317881 413.7546695 40.5500418 418.26953125 41.13671875 C425.59412739 42.18308963 431.38249257 43.29426628 436.625 48.875 C438.27355163 53.43276038 438.52811297 58.04020115 437.6875 62.8125 C435.04798923 67.50289824 431.63216902 71.26236463 427.875 75.0625 C427.37935547 75.59101563 426.88371094 76.11953125 426.37304688 76.6640625 C422.79751015 80.29021815 419.82895332 81.87213918 414.6875 82.8125 C411.65281879 82.1381264 410.27172658 81.52950535 408.3125 79.125 C407.37996278 75.6746123 407.8610218 73.28589295 408.6875 69.8125 C410.51205521 67.5609818 412.13344725 65.78544649 414.25 63.875 C414.77013672 63.38193359 415.29027344 62.88886719 415.82617188 62.38085938 C417.09997833 61.17717071 418.39197049 59.99277648 419.6875 58.8125 C418.75478271 58.68198242 417.82206543 58.55146484 416.86108398 58.41699219 C413.37223035 57.92165174 409.88579956 57.41320011 406.40014648 56.89599609 C404.89666973 56.67561309 403.39243284 56.46034825 401.88745117 56.25048828 C399.71308621 55.94635105 397.54220158 55.62336301 395.37109375 55.296875 C394.06712646 55.10834961 392.76315918 54.91982422 391.41967773 54.72558594 C386.46695587 53.51389105 382.33889753 51.87464873 379.05419922 47.77294922 C378.70373535 47.06154785 378.35327148 46.35014648 377.9921875 45.6171875 C377.5885498 44.82304443 377.18491211 44.02890137 376.76904297 43.21069336 C376.37088379 42.37803955 375.97272461 41.54538574 375.5625 40.6875 C374.92465576 39.41241577 374.92465576 39.41241577 374.27392578 38.11157227 C373.43866834 36.43769586 372.61137913 34.75981437 371.79296875 33.07763672 C370.42696525 30.27865692 368.99255769 27.5166741 367.5625 24.75 C365.6875 21.07112069 365.6875 21.07112069 365.6875 18.8125 C365.0275 18.8125 364.3675 18.8125 363.6875 18.8125 C363.41204346 19.68503418 363.13658691 20.55756836 362.8527832 21.45654297 C360.98452494 26.83703281 358.39949487 31.83966877 355.875 36.9375 C355.09286133 38.56365234 355.09286133 38.56365234 354.29492188 40.22265625 C353.77865234 41.26550781 353.26238281 42.30835938 352.73046875 43.3828125 C352.03473755 44.80231201 352.03473755 44.80231201 351.32495117 46.25048828 C348.64405932 50.44510273 345.88887958 52.47169243 341.12109375 53.82421875 C339.79202838 54.0663649 338.45968183 54.29101692 337.125 54.5 C336.42697266 54.62028564 335.72894531 54.74057129 335.00976562 54.86450195 C328.93289115 55.871071 322.83781097 56.47469883 316.6875 56.8125 C317.0175 57.4725 317.3475 58.1325 317.6875 58.8125 C320.62699041 59.3848596 323.50680718 59.83320147 326.47265625 60.21484375 C327.36230576 60.3380751 328.25195526 60.46130646 329.16856384 60.58827209 C332.98452317 61.11659653 336.80320843 61.62387381 340.62182617 62.13256836 C343.40652152 62.50662476 346.1895394 62.89174521 348.97265625 63.27734375 C349.82505386 63.38682846 350.67745148 63.49631317 351.55567932 63.6091156 C358.15090082 64.52485777 365.06750301 65.54558107 369.625 70.8125 C372.18055762 74.52967472 372.87101276 77.20548993 373 81.625 C373.03738281 82.45644531 373.07476562 83.28789062 373.11328125 84.14453125 C372.19460772 89.90099014 367.7111566 94.03303433 363.703125 97.9921875 C362.76855469 98.9203125 361.83398438 99.8484375 360.87109375 100.8046875 C359.89333907 101.76573683 358.91547312 102.72667296 357.9375 103.6875 C356.94354673 104.6714068 355.95005278 105.65577783 354.95703125 106.640625 C352.53832573 109.03584794 350.11506562 111.42626276 347.6875 113.8125 C351.90103105 111.81658046 351.90103105 111.81658046 356.09155273 109.77319336 C361.15578558 107.4902907 365.32858562 107.39982067 370.6875 108.8125 C374.19564951 110.18302768 377.48965596 111.85736835 380.8125 113.625 C381.66714844 114.06392578 382.52179688 114.50285156 383.40234375 114.95507812 C388.23618334 117.4536757 392.98351549 120.07806998 397.6875 122.8125 C397.55730469 121.57113281 397.42710937 120.32976562 397.29296875 119.05078125 C397.1522424 117.40897386 397.01299711 115.76703904 396.875 114.125 C396.74061523 112.90006836 396.74061523 112.90006836 396.60351562 111.65039062 C396.2600164 107.18490073 396.1931835 105.46627344 398.98828125 101.76953125 C401.6875 99.8125 401.6875 99.8125 404.6875 99.1875 C408.78168489 100.04045518 410.056313 101.58389373 412.6875 104.8125 C413.67998976 107.51715891 414.10925976 110.21500787 414.5 113.0625 C414.61545166 113.82030762 414.73090332 114.57811523 414.84985352 115.35888672 C417.05471121 130.55951188 417.05471121 130.55951188 411.6875 137.8125 C407.82962312 141.43656616 403.70606476 141.19382235 398.66723633 141.14038086 C393.72633577 140.59669963 389.86391053 138.5052939 385.5625 136.125 C384.73363281 135.68994141 383.90476562 135.25488281 383.05078125 134.80664062 C379.74115465 133.05859841 376.4665357 131.29201589 373.27832031 129.32958984 C368.80824764 126.59343022 368.80824764 126.59343022 363.7421875 125.68359375 C359.21224517 127.35770287 355.04367282 129.55868777 350.8125 131.875 C349.93335938 132.34744141 349.05421875 132.81988281 348.1484375 133.30664062 C345.99054476 134.46768074 343.83722292 135.63642268 341.6875 136.8125 C342.14641486 141.34765865 342.64831389 145.82928316 343.4765625 150.3125 C343.61320312 151.055 343.74984375 151.7975 343.890625 152.5625 C344.17214389 154.06393406 344.46122826 155.56396908 344.7578125 157.0625 C345.96346014 163.7399331 346.05975942 169.90331003 343.125 176.125 C338.96199499 180.71497988 335.04111952 182.62497975 328.86328125 183.1171875 C324.59564919 183.01545964 321.32054506 181.60106579 317.625 179.5625 C316.9652417 179.21840088 316.3054834 178.87430176 315.62573242 178.51977539 C312.3283015 176.7933345 309.05975177 175.0144237 305.78808594 173.23974609 C303.72746305 172.12442006 301.66403059 171.01427011 299.59790039 169.90917969 C297.55582349 168.81548006 295.52089027 167.70832084 293.49389648 166.58691406 C292.55360596 166.08256836 291.61331543 165.57822266 290.64453125 165.05859375 C289.80897705 164.60154053 288.97342285 164.1444873 288.11254883 163.67358398 C284.27093507 162.3095075 281.81168959 163.28964432 278.21142578 164.96411133 C276.93501221 165.67216919 276.93501221 165.67216919 275.6328125 166.39453125 C274.21548828 167.17473633 274.21548828 167.17473633 272.76953125 167.97070312 C271.79371094 168.51662109 270.81789063 169.06253906 269.8125 169.625 C268.84441406 170.15931641 267.87632812 170.69363281 266.87890625 171.24414062 C261.79061327 174.05827817 256.73336743 176.92320224 251.6875 179.8125 C251.87973145 180.85067871 252.07196289 181.88885742 252.27001953 182.95849609 C252.98558303 186.85045787 253.67666803 190.74645118 254.36083984 194.64404297 C254.65897626 196.32295386 254.96353679 198.00073824 255.27490234 199.67724609 C259.08554999 220.24984222 259.08554999 220.24984222 254.39208984 227.93310547 C251.06687479 232.47703688 247.17312961 234.77206164 241.6875 235.8125 C234.29277554 235.92630172 228.61421746 233.82746528 222.1875 230.375 C221.33816895 229.93414062 220.48883789 229.49328125 219.61376953 229.0390625 C216.95978009 227.65138129 214.3220304 226.23674133 211.6875 224.8125 C210.38184082 224.11036377 210.38184082 224.11036377 209.04980469 223.39404297 C194.30950185 215.43450185 194.30950185 215.43450185 191.6875 212.8125 C191.38671875 210.75390625 191.38671875 210.75390625 191.375 208.375 C191.35824219 207.59253906 191.34148437 206.81007813 191.32421875 206.00390625 C191.77915202 203.25963134 192.54844788 202.54365252 194.6875 200.8125 C202.25936861 198.81676752 208.67516839 202.85415614 215.0625 206.4375 C216.50882812 207.22060547 216.50882812 207.22060547 217.984375 208.01953125 C221.93798787 210.16592966 225.86761156 212.35397075 229.79394531 214.54980469 C230.78233398 215.09797852 231.77072266 215.64615234 232.7890625 216.2109375 C233.68189941 216.71028809 234.57473633 217.20963867 235.49462891 217.72412109 C237.57806124 218.96069296 237.57806124 218.96069296 239.6875 218.8125 C239.90437246 212.34286722 239.08277106 206.41855675 237.90234375 200.06640625 C237.53289881 197.99159062 237.16376779 195.91671908 236.79492188 193.84179688 C236.21130117 190.60450662 235.62372056 187.36802741 235.0300293 184.13256836 C234.4556769 180.98737352 233.89692574 177.83969919 233.33984375 174.69140625 C233.06961647 173.25662682 233.06961647 173.25662682 232.79393005 171.79286194 C231.43166646 164.0186317 230.88982195 156.51201044 235.31835938 149.5859375 C238.20219544 145.85052645 241.55966236 142.59634563 244.9375 139.3125 C245.66324219 138.59191406 246.38898438 137.87132812 247.13671875 137.12890625 C251.2147788 133.10900036 255.4078229 129.2816357 259.74121094 125.54052734 C263.02719914 122.62303807 266.10297143 119.50255311 269.1875 116.375 C269.81914062 115.73884766 270.45078125 115.10269531 271.1015625 114.44726562 C272.63255774 112.90467194 274.16037667 111.35892686 275.6875 109.8125 C275.3575 108.8225 275.0275 107.8325 274.6875 106.8125 C274.02652817 106.71893723 273.36555634 106.62537445 272.68455505 106.52897644 C265.788231 105.55081986 258.89396934 104.55900138 252.00073242 103.55932617 C249.42994462 103.18832303 246.85865585 102.82077376 244.28686523 102.45678711 C240.58439331 101.93215693 236.88391721 101.39501859 233.18359375 100.85546875 C232.03853867 100.69596237 230.89348358 100.53645599 229.71372986 100.37211609 C221.15018259 99.1046174 214.46736063 97.75219889 208.6875 90.8125 C207.05458849 88.27094036 205.67671955 85.63117633 204.3125 82.9375 C203.90402832 82.14754639 203.49555664 81.35759277 203.07470703 80.54370117 C196.35990776 67.4284384 190.05050541 54.10085258 183.6875 40.8125 C182.3675 40.8125 181.0475 40.8125 179.6875 40.8125 C179.39792923 41.41527267 179.10835846 42.01804535 178.81001282 42.63908386 C175.78863607 48.92313466 172.75268529 55.19998848 169.70825195 61.47290039 C168.57462852 63.81354033 167.44470825 66.15597762 166.31860352 68.50024414 C164.6974223 71.87347388 163.06294493 75.23997263 161.42578125 78.60546875 C160.67703484 80.17448189 160.67703484 80.17448189 159.91316223 81.77519226 C155.84716036 90.07994426 151.58079947 95.64569107 142.6875 98.8125 C138.52079643 99.78047971 134.33068792 100.3794307 130.09375 100.953125 C128.31284973 101.21098785 128.31284973 101.21098785 126.49597168 101.47406006 C122.72820781 102.01657488 118.9580586 102.53980066 115.1875 103.0625 C112.6222139 103.42841433 110.05710717 103.79558846 107.4921875 104.1640625 C101.22596095 105.0614682 94.95766752 105.94308125 88.6875 106.8125 C88.2791757 110.72557336 88.2791757 110.72557336 90.3046875 112.8996582 C91.04976562 113.63015381 91.79484375 114.36064941 92.5625 115.11328125 C93.38363281 115.92603516 94.20476562 116.73878906 95.05078125 117.57617188 C96.35595703 118.8378418 96.35595703 118.8378418 97.6875 120.125 C98.52667969 120.95451172 99.36585938 121.78402344 100.23046875 122.63867188 C104.65219206 126.98155826 109.1680644 131.16363155 113.86083984 135.21069336 C116.67926196 137.6821806 119.3483931 140.28936834 122 142.9375 C122.51111328 143.43636719 123.02222656 143.93523437 123.54882812 144.44921875 C129.41463387 150.29214098 131.43796758 154.65794356 131.6875 162.8125 C131.36253212 166.55642497 130.71534296 170.21609812 130.03515625 173.91015625 C129.85617294 174.94385849 129.67718964 175.97756073 129.49278259 177.04258728 C128.92351056 180.32222887 128.33799767 183.5986683 127.75 186.875 C127.16756821 190.15518834 126.58884768 193.43591191 126.01792908 196.71812439 C125.6634037 198.75288281 125.3020871 200.78647368 124.93287659 202.81861877 C123.98113598 208.24353146 123.50210568 213.30462531 123.6875 218.8125 C127.88576049 217.51015545 131.67393433 215.91612057 135.56640625 213.87890625 C136.65244141 213.31236328 137.73847656 212.74582031 138.85742188 212.16210938 C139.97697266 211.57236328 141.09652344 210.98261719 142.25 210.375 C143.37341797 209.78912109 144.49683594 209.20324219 145.65429688 208.59960938 C151.60244849 205.5069345 151.60244849 205.5069345 157.3996582 202.14575195 C159.93139727 200.67036757 161.40980264 200.40757528 164.3125 200.4375 C165.06789062 200.42976562 165.82328125 200.42203125 166.6015625 200.4140625 C169.25304216 200.92052491 170.12134047 201.62863159 171.6875 203.8125 C172.15625 205.93359375 172.15625 205.93359375 172.1875 208.25 C172.23390625 209.39275391 172.23390625 209.39275391 172.28125 210.55859375 C171.2949102 214.30279153 168.17760847 215.91856338 164.95291138 217.85310364 C162.94852053 218.9682549 160.9277047 220.04369798 158.89453125 221.10546875 C158.14846115 221.49696609 157.40239105 221.88846344 156.63371277 222.29182434 C155.0594422 223.11426581 153.48350289 223.93352004 151.90600586 224.74975586 C149.51664111 225.9913527 147.14041751 227.2559381 144.76367188 228.52148438 C127.47834739 237.5760473 127.47834739 237.5760473 117.4375 234.8125 C113.12880735 232.89364902 110.04957438 229.87466613 107.6875 225.8125 C105.85027725 220.77803247 105.54994745 217.09346093 106.3125 211.8125 C106.40515137 211.15185547 106.49780273 210.49121094 106.59326172 209.81054688 C108.05122275 199.77540794 109.88549273 189.79042669 111.6875 179.8125 C107.30879781 177.37005894 102.92741384 174.93287476 98.5390625 172.5078125 C95.60124998 170.88286014 92.67845329 169.23749884 89.7734375 167.5546875 C88.65195313 166.91789063 87.53046875 166.28109375 86.375 165.625 C85.38886719 165.05394531 84.40273437 164.48289062 83.38671875 163.89453125 C80.11783769 162.58414043 79.04383672 162.86952067 75.6875 163.8125 C73.47450069 164.83028118 71.29311516 165.9179975 69.13671875 167.05078125 C68.21026299 167.5338398 68.21026299 167.5338398 67.26509094 168.0266571 C65.29858148 169.05355674 63.33672511 170.08899485 61.375 171.125 C60.06867056 171.80983871 58.76203254 172.49408913 57.45507812 173.17773438 C56.81982208 173.51018158 56.18456604 173.84262878 55.53005981 174.18515015 C54.90525726 174.51205841 54.28045471 174.83896667 53.63671875 175.17578125 C48.87813213 177.6641178 48.87813213 177.6641178 44.12744141 180.16748047 C39.4140144 182.61426989 35.93309707 183.80875681 30.6875 182.8125 C26.2918604 181.38471925 23.36199569 179.55617474 20.25 176.125 C16.47675566 168.12572201 17.95636066 160.40799823 19.625 152 C20.01196952 149.97319925 20.3961987 147.94587288 20.77734375 145.91796875 C20.95128662 145.03262451 21.12522949 144.14728027 21.30444336 143.23510742 C21.79161817 140.56279804 21.79161817 140.56279804 21.6875 136.8125 C18.32677238 134.9315492 14.94701349 133.08775501 11.5625 131.25 C10.13550781 130.45045898 10.13550781 130.45045898 8.6796875 129.63476562 C7.7515625 129.13525391 6.8234375 128.63574219 5.8671875 128.12109375 C5.01882324 127.65501709 4.17045898 127.18894043 3.29638672 126.70874023 C-1.09657757 125.19960942 -4.18951156 126.28632017 -8.29760742 128.21118164 C-9.32732666 128.79246826 -10.3570459 129.37375488 -11.41796875 129.97265625 C-12.56716797 130.60107422 -13.71636719 131.22949219 -14.90039062 131.87695312 C-16.69822123 132.87031746 -18.49139831 133.87010518 -20.27661133 134.88598633 C-28.02379514 139.27144765 -34.29805265 142.23216081 -43.3125 140.8125 C-47.51170216 139.29363964 -49.55743945 136.77638076 -51.59448242 132.79052734 C-53.75147306 126.84835183 -52.11911859 120.43554501 -50.8671875 114.46875 C-50.59353786 113.12634531 -50.32010392 111.78389663 -50.046875 110.44140625 C-49.62353146 108.36653064 -49.18494934 106.30178973 -48.69433594 104.24169922 C-47.62977462 99.70924876 -46.87400177 95.49606928 -47.3125 90.8125 C-49.99783634 86.85996246 -53.42851848 84.52050387 -57.3125 81.8125 C-58.73835516 80.50465099 -60.13692401 79.16612418 -61.5 77.79296875 C-62.13550781 77.16326172 -62.77101563 76.53355469 -63.42578125 75.88476562 C-64.04839844 75.26279297 -64.67101562 74.64082031 -65.3125 74 C-65.96605469 73.35869141 -66.61960937 72.71738281 -67.29296875 72.05664062 C-68.23076172 71.12174805 -68.23076172 71.12174805 -69.1875 70.16796875 C-70.01894531 69.34268677 -70.01894531 69.34268677 -70.8671875 68.50073242 C-74.61558662 64.12232366 -74.74418475 60.09459783 -74.625 54.5078125 C-74.17869996 50.65847468 -72.96704107 48.60675376 -70.3125 45.8125 C-65.85816866 43.18026539 -61.68414242 42.1598385 -56.61328125 41.53125 C-55.14257154 41.32687027 -53.67186862 41.12244176 -52.20117188 40.91796875 C-49.90401174 40.61187789 -47.60633742 40.31006515 -45.30834961 40.01025391 C-43.075107 39.71514939 -40.84431658 39.40503603 -38.61328125 39.09375 C-37.92575272 39.00927612 -37.23822418 38.92480225 -36.52986145 38.83776855 C-33.92758902 38.47165952 -31.77745145 38.12149248 -29.56640625 36.65209961 C-27.7208814 33.9445393 -26.33327199 31.05693082 -24.94921875 28.09765625 C-24.30332448 26.75817883 -23.65682091 25.41899508 -23.00976562 24.08007812 C-22.00245646 21.97888076 -21.00030936 19.87565812 -20.0090332 17.7668457 C-19.04534046 15.7239319 -18.06137495 13.69181427 -17.07421875 11.66015625 C-16.78649094 11.03399918 -16.49876312 10.4078421 -16.20231628 9.76271057 C-14.02400206 5.32885625 -11.60393607 3.18835086 -7.3125 0.8125 C-4.39302659 -0.1606578 -2.98488293 -0.27322763 0 0 Z M-2.3125 18.8125 C-2.73023682 19.7003418 -3.14797363 20.58818359 -3.57836914 21.50292969 C-5.14369833 24.81551398 -6.73607742 28.11448527 -8.33666992 31.41015625 C-9.02373055 32.83435716 -9.703548 34.26207721 -10.37573242 35.69335938 C-11.34720221 37.75854163 -12.34462222 39.80937251 -13.34765625 41.859375 C-13.63963394 42.49494324 -13.93161163 43.13051147 -14.23243713 43.78533936 C-16.64881521 48.62418363 -19.3911136 50.90495966 -24.3125 52.8125 C-27.00737441 53.4559802 -29.48985153 53.9442871 -32.21484375 54.296875 C-32.9374086 54.40219543 -33.65997345 54.50751587 -34.4044342 54.61602783 C-36.68458926 54.94521564 -38.96694134 55.25416766 -41.25 55.5625 C-42.80813345 55.78381749 -44.36607908 56.00646159 -45.92382812 56.23046875 C-49.71805516 56.77316013 -53.51438718 57.29773862 -57.3125 57.8125 C-53.97123023 61.77189764 -50.61047153 65.65318264 -46.9375 69.3125 C-46.174375 70.07304687 -45.41125 70.83359375 -44.625 71.6171875 C-42.46679345 73.66602547 -40.23768655 75.55168529 -37.9375 77.4375 C-34.33979683 80.58997842 -32.4842457 83.04740082 -31.3125 87.8125 C-31.14976149 95.74913184 -32.87633913 103.70994371 -34.29541016 111.4934082 C-35.03959764 115.66076632 -35.4678505 119.5572472 -35.3125 123.8125 C-33.84103516 123.06806641 -33.84103516 123.06806641 -32.33984375 122.30859375 C-28.75345385 120.4986023 -25.15449916 118.71472819 -21.55371094 116.93359375 C-19.43294903 115.87275075 -17.32930324 114.78351128 -15.2265625 113.6875 C-3.49486939 107.6966918 -3.49486939 107.6966918 2.5546875 109.0078125 C6.06778077 110.33326527 9.356601 112.00219415 12.62109375 113.8515625 C13.64396484 114.32722656 13.64396484 114.32722656 14.6875 114.8125 C15.3475 114.4825 16.0075 114.1525 16.6875 113.8125 C16.00123535 113.13670898 15.3149707 112.46091797 14.60791016 111.76464844 C12.05707457 109.25008119 9.51291946 106.7288449 6.97070312 104.20556641 C5.87062022 103.11552549 4.76874689 102.02728836 3.66503906 100.94091797 C2.07660533 99.3768116 0.4947766 97.80627792 -1.0859375 96.234375 C-1.57871185 95.75192322 -2.07148621 95.26947144 -2.57919312 94.7723999 C-6.63977863 90.71314692 -8.59671515 87.76483797 -8.6875 82 C-8.57208275 76.7831404 -7.45354364 73.97226049 -4.3125 69.8125 C-0.9263022 67.43677189 1.8680606 66.35503593 5.94140625 65.75 C6.95211182 65.5943457 7.96281738 65.43869141 9.00415039 65.27832031 C10.07528076 65.12459961 11.14641113 64.97087891 12.25 64.8125 C13.90020142 64.56258301 13.90020142 64.56258301 15.58374023 64.30761719 C18.95030781 63.79965762 22.31877505 63.30591912 25.6875 62.8125 C27.71894699 62.5065133 29.75020822 62.1992899 31.78125 61.890625 C36.41517686 61.18757424 41.05070395 60.49636266 45.6875 59.8125 C46.0175 58.8225 46.3475 57.8325 46.6875 56.8125 C45.9668335 56.71227539 45.24616699 56.61205078 44.50366211 56.50878906 C41.20843306 56.04178625 37.91690609 55.5523561 34.625 55.0625 C32.9244043 54.82660156 32.9244043 54.82660156 31.18945312 54.5859375 C29.53139648 54.33457031 29.53139648 54.33457031 27.83984375 54.078125 C26.82913818 53.93149414 25.81843262 53.78486328 24.77709961 53.63378906 C19.16317028 52.14147312 15.74058188 50.36814877 12.51586914 45.60449219 C11.89750551 44.36620695 11.3004513 43.11710184 10.72265625 41.859375 C10.39962021 41.19915344 10.07658417 40.53893188 9.74375916 39.85870361 C8.72650629 37.76866946 7.73809498 35.66645047 6.75 33.5625 C6.06111327 32.13451377 5.37037503 30.70741918 4.67773438 29.28125 C2.99274265 25.80160856 1.33346093 22.31076219 -0.3125 18.8125 C-0.9725 18.8125 -1.6325 18.8125 -2.3125 18.8125 Z M78.6875 28.8125 C77.94226887 30.30296225 77.19714253 31.79347695 76.45239258 33.28417969 C75.76368049 34.66060981 75.07335896 36.03623558 74.3815918 37.41113281 C72.10247242 41.9487904 69.86584924 46.50428004 67.66015625 51.078125 C67.13776367 52.14998047 66.61537109 53.22183594 66.07714844 54.32617188 C65.03815769 56.45819376 64.00860404 58.59484445 62.98925781 60.73632812 C59.98961701 66.85519675 57.74715193 71.23510162 51.12768555 73.80712891 C46.82842812 75.06355798 42.56243788 75.70169924 38.1328125 76.3203125 C36.78049026 76.51583206 36.78049026 76.51583206 35.40084839 76.71530151 C32.53878248 77.12789153 29.6756916 77.53280351 26.8125 77.9375 C24.8645105 78.21694065 22.91659292 78.49688317 20.96875 78.77734375 C16.20914638 79.46154226 11.44860896 80.1388598 6.6875 80.8125 C10.46380986 85.3469024 14.37876446 89.6009005 18.63671875 93.68359375 C19.74342976 94.76306607 20.84953175 95.84316307 21.95507812 96.92382812 C23.66743201 98.59293703 25.38316517 100.257825 27.10961914 101.91235352 C28.79709804 103.53278344 30.46780865 105.16907299 32.13671875 106.80859375 C32.9055262 107.53398598 32.9055262 107.53398598 33.68986511 108.27403259 C37.3912116 111.94763129 39.44066997 115.73003857 40.6875 120.8125 C40.68359375 124.28515625 40.68359375 124.28515625 40.125 127.875 C40.02783691 128.5354834 39.93067383 129.1959668 39.83056641 129.87646484 C38.71140814 137.2455114 37.36900359 144.59021419 36.00952148 151.91821289 C35.15452547 156.61120897 34.44532334 161.01740219 34.6875 165.8125 C39.49185911 164.38168981 43.73413014 162.30623019 48.10546875 159.8984375 C49.53912396 159.12910863 50.97338879 158.36091491 52.40820312 157.59375 C54.64107401 156.39518232 56.86948869 155.19054231 59.08813477 153.96582031 C76.27234668 144.50886552 76.27234668 144.50886552 84.6875 146.8125 C89.92672225 148.97300402 94.81684735 151.59844378 99.75 154.375 C101.72027052 155.46243545 103.69379765 156.54318566 105.67222595 157.6157074 C107.44622566 158.58053924 109.20987627 159.56432795 110.97290039 160.54907227 C111.86871826 160.96600342 112.76453613 161.38293457 113.6875 161.8125 C114.3475 161.4825 115.0075 161.1525 115.6875 160.8125 C110.17508983 154.36180725 104.52973805 148.21260576 98.078125 142.6875 C93.17930035 138.41521013 88.51002894 133.93042657 83.875 129.375 C82.6075293 128.16360352 82.6075293 128.16360352 81.31445312 126.92773438 C75.75185455 121.44466462 72.09954703 117.10168555 71.47265625 109.0546875 C72.10251871 103.6786783 72.99672592 100.00202733 76.6875 95.8125 C81.04912819 92.43894421 84.87560307 91.02515328 90.25390625 90.25 C90.98517227 90.13269531 91.71643829 90.01539063 92.46986389 89.89453125 C94.87333085 89.51535907 97.27940729 89.16102648 99.6875 88.8125 C100.5212616 88.6902002 101.35502319 88.56790039 102.21405029 88.44189453 C109.26534659 87.41191674 116.31955453 86.39840983 123.38061523 85.4375 C126.03553635 85.07446619 128.68766441 84.69498072 131.33984375 84.3125 C132.15114243 84.20615234 132.9624411 84.09980469 133.79832458 83.99023438 C135.77874463 83.69756976 137.73757769 83.26584218 139.6875 82.8125 C140.3475 81.8225 141.0075 80.8325 141.6875 79.8125 C140.65343018 79.64645264 139.61936035 79.48040527 138.55395508 79.30932617 C134.70369198 78.68818079 130.8558383 78.05307842 127.00854492 77.41381836 C125.34575455 77.13951863 123.68234148 76.8689655 122.01831055 76.60229492 C119.6211314 76.2174563 117.22654373 75.81902512 114.83203125 75.41796875 C113.72236748 75.24433052 113.72236748 75.24433052 112.59028625 75.06718445 C107.06946362 74.12203359 103.50986093 72.73225397 99.64550781 68.66137695 C97.14061614 65.0167908 95.25767994 61.21716021 93.359375 57.23046875 C92.96550598 56.41628983 92.57163696 55.6021109 92.16583252 54.76325989 C90.91704158 52.17835571 89.67716448 49.58929143 88.4375 47 C87.58912789 45.23995168 86.74017571 43.48018285 85.890625 41.72070312 C83.81618726 37.42117522 81.74972977 33.11789581 79.6875 28.8125 C79.3575 28.8125 79.0275 28.8125 78.6875 28.8125 Z M283.6875 28.8125 C283.13811768 29.9677417 282.58873535 31.1229834 282.02270508 32.31323242 C279.97395173 36.61411624 277.91130578 40.90821392 275.84448242 45.20043945 C274.95333003 47.05604948 274.06591237 48.91345807 273.18237305 50.77270508 C271.90880675 53.45099278 270.62177316 56.12244008 269.33203125 58.79296875 C268.94223587 59.62023972 268.55244049 60.44751068 268.15083313 61.29985046 C265.57501582 66.58974895 262.94971208 71.47748646 257.234375 73.81640625 C256.31140625 74.00074219 255.3884375 74.18507812 254.4375 74.375 C253.32503906 74.59929687 252.21257812 74.82359375 251.06640625 75.0546875 C241.29813928 76.78649747 231.49350906 78.31208318 221.6875 79.8125 C223.32461506 82.97030558 223.32461506 82.97030558 225.92422485 83.45005798 C226.85495819 83.57345047 227.78569153 83.69684296 228.74462891 83.82397461 C229.79977692 83.97100327 230.85492493 84.11803192 231.94204712 84.26951599 C233.08781219 84.41647415 234.23357727 84.56343231 235.4140625 84.71484375 C236.59084564 84.87868057 237.76762878 85.0425174 238.98007202 85.21131897 C244.02491259 85.91347211 249.07370544 86.58497027 254.12255859 87.25756836 C257.80473821 87.75264933 261.48431547 88.26454331 265.1640625 88.77734375 C266.29768219 88.92227768 267.43130188 89.06721161 268.59927368 89.21653748 C276.12768742 90.26919962 282.50617268 91.63117268 288.0625 97.1875 C291.47352005 102.69760932 291.87368342 106.92893094 291.3671875 113.25 C289.85072862 118.96722429 285.64118137 123.10815345 281.546875 127.18359375 C281.06099915 127.66901138 280.57512329 128.15442902 280.07452393 128.65455627 C279.05156562 129.67451311 278.02619775 130.69205854 276.99853516 131.70727539 C275.4503091 133.23734115 273.91014054 134.77516025 272.37109375 136.31445312 C267.48663769 141.18104013 262.54321631 145.93480551 257.30517578 150.42407227 C255.38572358 152.07151034 253.5490557 153.78460966 251.75 155.5625 C251.18410156 156.11421875 250.61820312 156.6659375 250.03515625 157.234375 C248.4546139 158.88516736 248.4546139 158.88516736 247.6875 161.8125 C251.88482774 160.52739034 255.53646518 158.9299824 259.35546875 156.7734375 C260.41443359 156.19335938 261.47339844 155.61328125 262.56445312 155.015625 C264.75986948 153.80328889 266.947547 152.57682459 269.12695312 151.3359375 C276.07618428 147.56914311 281.75280933 145.2286106 289.6875 146.8125 C293.48621777 148.12756062 296.91872277 149.88033121 300.4375 151.8125 C301.38399414 152.30854736 302.33048828 152.80459473 303.30566406 153.31567383 C306.11217867 154.79239886 308.90114278 156.29815338 311.6875 157.8125 C313.9495298 159.02657097 316.21308082 160.2377315 318.47753906 161.44726562 C319.75412548 162.13294582 321.02713657 162.8253381 322.29589844 163.52539062 C325.31342513 165.27476436 325.31342513 165.27476436 328.6875 165.8125 C328.06522629 155.4476784 326.28402992 145.42355211 324.328125 135.23828125 C321.61027563 120.35258901 321.61027563 120.35258901 325.32275391 114.02563477 C328.07014145 110.29258011 331.11541076 107.1519152 334.421875 103.91796875 C335.05990051 103.28514481 335.69792603 102.65232086 336.35528564 102.00032043 C338.37795464 99.99535746 340.40723591 97.99726929 342.4375 96 C344.48111593 93.98397456 346.52325506 91.96650648 348.56256104 89.94612122 C349.82851487 88.69246025 351.09713143 87.44148155 352.36859131 86.19340515 C353.82696163 84.75181243 355.2601301 83.2847937 356.6875 81.8125 C356.6875 81.4825 356.6875 81.1525 356.6875 80.8125 C355.48738281 80.64645264 354.28726563 80.48040527 353.05078125 80.30932617 C348.56914393 79.68675985 344.08929232 79.05206331 339.60986328 78.41381836 C337.6764053 78.14003296 335.74248745 77.86947385 333.80810547 77.60229492 C331.01661038 77.21614529 328.22701299 76.81815633 325.4375 76.41796875 C324.154198 76.24433052 324.154198 76.24433052 322.8449707 76.06718445 C310.07446554 74.20048116 310.07446554 74.20048116 305.39233398 69.51635742 C303.54813831 66.59147312 301.93883415 63.65313211 300.41015625 60.55078125 C300.11692978 59.96008347 299.82370331 59.36938568 299.52159119 58.76078796 C298.59199724 56.88496017 297.67083158 55.00514206 296.75 53.125 C296.1366318 51.88318476 295.52270373 50.6416459 294.90820312 49.40039062 C293.71859607 46.99571311 292.53245834 44.58942935 291.34814453 42.18212891 C289.14709115 37.7159515 286.92117461 33.2624339 284.6875 28.8125 C284.3575 28.8125 284.0275 28.8125 283.6875 28.8125 Z " fill="#00ff00" transform="translate(74.3125,138.1875)"/>
</svg>