<svg version="1.1" xmlns="http://www.w3.org/2000/svg" width="512px" height="512px" transform="rotate(0) scale(1, 1)">
<path d="M0 0 C7.78020069 5.47591496 12.17737162 12.38131831 14.16978455 21.67434692 C15.07405006 27.70388012 14.94053612 33.81752579 14.9765625 39.90234375 C14.99278755 41.39576247 15.00997252 42.88917104 15.02806091 44.38256836 C15.07351183 48.30172925 15.10840033 52.22090542 15.14025879 56.14019775 C15.19228313 62.38168291 15.25857583 68.62301185 15.32847404 74.86431885 C15.35077086 77.01353684 15.36739199 79.16273758 15.38319397 81.31201172 C15.47185926 91.07739785 15.94597332 100.78499393 16.59765625 110.52734375 C17.1189209 110.09736084 17.64018555 109.66737793 18.17724609 109.22436523 C26.30391689 102.6215787 34.16692077 100.46659099 44.59765625 101.52734375 C55.63173744 103.48605639 62.73539335 110.36024957 70.41894531 118.08984375 C71.15495972 118.82235352 71.89097412 119.55486328 72.64929199 120.30957031 C75.05897959 122.71051964 77.4613529 125.11863392 79.86328125 127.52734375 C81.54591168 129.20862555 83.22883879 130.88961048 84.91204834 132.5703125 C88.42867488 136.08399873 91.94167944 139.60125593 95.45214844 143.12109375 C99.9465962 147.62695288 104.44998714 152.12374976 108.95611954 156.61791992 C112.42901768 160.08358501 115.89713083 163.55400693 119.36382294 167.02587891 C121.02251239 168.68589993 122.68268166 170.3444437 124.34436798 172.00146484 C126.66577383 174.31777987 128.98065251 176.64042996 131.29394531 178.96484375 C131.97765198 179.64450195 132.66135864 180.32416016 133.36578369 181.02441406 C136.19250515 183.87630348 138.76944751 186.60424064 140.92913818 190 C141.47974915 190.83402344 142.03036011 191.66804687 142.59765625 192.52734375 C143.25765625 192.52734375 143.91765625 192.52734375 144.59765625 192.52734375 C146.14924175 190.77591139 146.14924175 190.77591139 147.74687195 188.52227783 C151.26936569 183.86790562 155.08952945 179.73316333 159.21020508 175.60839844 C159.9364357 174.8738443 160.66266632 174.13929016 161.41090393 173.38247681 C163.78681866 170.98268306 166.17012258 168.59041546 168.5546875 166.19921875 C170.22473567 164.52019122 171.8947123 162.84109254 173.56462097 161.16192627 C177.05509114 157.65502633 180.54987741 154.15249002 184.04711914 150.65234375 C188.51410903 146.17996005 192.96469645 141.69162353 197.41151905 137.19919968 C200.85098378 133.72991936 204.3017199 130.27201851 207.75562096 126.81711578 C209.40105702 125.16749065 211.04239749 123.51376921 212.67942238 121.85579681 C214.9735102 119.53468867 217.28306994 117.23009316 219.59692383 114.92871094 C220.59248291 113.91090042 220.59248291 113.91090042 221.6081543 112.87252808 C229.01992824 105.57327971 237.26232184 101.5114801 247.72265625 101.21484375 C257.09394652 101.31601827 263.64255831 104.60764031 270.59765625 110.52734375 C271.30052736 100.12559806 271.73854743 89.77571223 271.76632118 79.34876251 C271.77627542 76.38571416 271.8021493 73.42285409 271.82664013 70.45989609 C271.87158825 64.99134973 271.91001009 59.52292136 271.92358398 54.05419922 C271.93375641 50.20232948 271.96327692 46.3510043 272.00490379 42.4993515 C272.0170516 41.05319105 272.02236543 39.60695342 272.02010536 38.16074371 C272.00569218 25.94980788 273.32237878 14.07748019 281.5390625 4.46484375 C289.77655454 -3.28808993 298.8900245 -5.99540336 310 -5.7734375 C320.38311538 -4.90535945 327.8255618 -0.30632226 334.59765625 7.52734375 C338.87988815 14.16234214 340.71016864 20.27422279 340.74482727 28.15280151 C340.75556023 29.83446159 340.75556023 29.83446159 340.76651001 31.5500946 C340.76919891 32.77090225 340.77188782 33.9917099 340.7746582 35.24951172 C340.7812294 36.54287949 340.7878006 37.83624725 340.79457092 39.16880798 C340.81555326 43.45236992 340.82597346 47.73593194 340.8359375 52.01953125 C340.83998837 53.5004287 340.84410539 54.98132597 340.84828758 56.46222305 C340.86733291 63.4274282 340.88156073 70.39262284 340.88989955 77.357849 C340.89964517 85.36364598 340.92589698 93.36916449 340.96640044 101.37486351 C340.99671755 107.58321754 341.01138341 113.79149252 341.01468056 119.99991906 C341.01701493 123.69766188 341.02576064 127.39510709 341.05114174 131.09276962 C341.22216226 157.38151177 338.8454384 177.40745372 320.00048828 197.26391602 C317.20160032 200.0839211 314.37726036 202.87606691 311.53515625 205.65234375 C309.62406212 207.52641989 307.71763807 209.40499929 305.8125 211.28515625 C304.978396 212.10129395 304.14429199 212.91743164 303.28491211 213.75830078 C301.21245117 215.89383744 299.26222998 218.0459769 297.32299805 220.29760742 C293.34232484 224.88726132 289.08597948 229.16520949 284.77734375 233.4453125 C283.95565704 234.26558426 283.13397034 235.08585602 282.28738403 235.9309845 C279.68483474 238.52798355 277.07881972 241.12147216 274.47265625 243.71484375 C272.71591331 245.46656372 270.95940076 247.21851477 269.203125 248.97070312 C265.98433238 252.18136294 262.76424857 255.39071468 259.54248047 258.59838867 C258.85265076 259.28911469 258.16282104 259.9798407 257.4520874 260.6914978 C255.95337282 262.17519219 254.41954037 263.62336133 252.87548828 265.05981445 C252.12380371 265.87409912 251.37211914 266.68838379 250.59765625 267.52734375 C250.14115692 268.00491623 249.68465759 268.48248871 249.21432495 268.97453308 C243.72424029 275.90614937 244.81283792 285.13392508 244.78515625 293.52734375 C244.7619862 295.17711601 244.73661568 296.82685892 244.70898438 298.4765625 C244.64645649 302.49359915 244.61386602 306.50986407 244.59765625 310.52734375 C245.57849182 310.5184613 246.55932739 310.50957886 247.56988525 310.50042725 C256.81031272 310.41936405 266.05066811 310.3593893 275.29137039 310.32009506 C280.04221661 310.29921431 284.79277594 310.27088785 289.54345703 310.22558594 C294.12758964 310.18214545 298.71144619 310.15821032 303.29576874 310.14783478 C305.04530941 310.14044016 306.79483487 310.1260002 308.54425812 310.10442352 C310.9937055 310.07541274 313.4420102 310.07138667 315.89160156 310.07324219 C316.97809242 310.05167053 316.97809242 310.05167053 318.08653259 310.02966309 C321.48560022 310.05755004 323.28366358 310.28777792 326.02069092 312.3760376 C328.09259499 315.20254234 328.52757799 317.02343054 328.59765625 320.52734375 C326.66506666 325.8165363 326.66506666 325.8165363 323.86175054 327.68331403 C320.98537438 328.75559577 318.63126872 328.77934777 315.55964756 328.78181934 C313.69219327 328.79056763 313.69219327 328.79056763 311.78701264 328.79949266 C310.40305696 328.79585935 309.01910177 328.79203497 307.63514709 328.78804016 C306.16682743 328.79105978 304.69850933 328.7949483 303.23019403 328.79963273 C299.18989723 328.80994596 295.14968883 328.80772248 291.10938466 328.80345213 C286.75416226 328.80099093 282.39896149 328.8099915 278.04374695 328.81748962 C269.50943643 328.83025543 260.97515734 328.83202799 252.44083888 328.82968936 C245.50590417 328.82790819 238.57097902 328.82965152 231.63604546 328.8339138 C230.15698092 328.83480659 230.15698092 328.83480659 228.64803628 328.83571741 C226.64505907 328.83692912 224.64208186 328.83814326 222.63910466 328.83935978 C203.84457655 328.85024251 185.05006638 328.84806933 166.25553726 328.84197494 C149.05171989 328.83680476 131.84795912 328.84806257 114.64415295 328.86707316 C96.98981307 328.88643243 79.33549999 328.89471094 61.68114942 328.8909499 C51.76534535 328.889035 41.84958946 328.89155355 31.93379402 328.90566444 C23.4927253 328.91755487 15.05173442 328.91900947 6.61066467 328.90687428 C2.30222491 328.90096918 -2.00607229 328.89993097 -6.31450272 328.91187668 C-10.25671404 328.92268017 -14.19866282 328.91969861 -18.14086158 328.90561499 C-19.56881599 328.90295273 -20.99679062 328.90538227 -22.42472529 328.91335086 C-24.36262567 328.9234167 -26.30059973 328.91326797 -28.23849392 328.90207386 C-29.31587053 328.90212888 -30.39324714 328.90218389 -31.50327152 328.90224057 C-34.86183147 328.46792457 -36.72246473 327.57866128 -39.40234375 325.52734375 C-40.95225517 321.88842129 -41.6826423 319.64853796 -40.71484375 315.77734375 C-38.5784011 312.11487064 -38.5784011 312.11487064 -36.40234375 310.52734375 C-33.79052165 310.24690455 -31.42008994 310.14809041 -28.80981445 310.18676758 C-28.0388443 310.1863295 -27.26787415 310.18589142 -26.47354126 310.18544006 C-23.9248117 310.18753037 -21.37673967 310.21087229 -18.828125 310.234375 C-17.06121683 310.23997011 -15.29430401 310.24424061 -13.52738953 310.24723816 C-8.87644608 310.25869367 -4.2257836 310.28816688 0.42504883 310.3213501 C5.17069701 310.35203579 9.91639058 310.36574028 14.66210938 310.38085938 C23.97408179 310.41303594 33.28584566 310.4642408 42.59765625 310.52734375 C42.57813235 305.68848004 42.52610504 300.85140886 42.44506836 296.01318359 C42.42199617 294.37037952 42.40751812 292.7274298 42.40209961 291.08447266 C42.65766391 278.30821046 42.65766391 278.30821046 36.59765625 267.52734375 C35.87304199 266.74012939 35.14842773 265.95291504 34.40185547 265.1418457 C33.47646973 264.27906006 32.55108398 263.41627441 31.59765625 262.52734375 C30.09508931 261.03815532 28.59710012 259.54434289 27.10205078 258.04760742 C26.24410919 257.19289352 25.3861676 256.33817963 24.50222778 255.45756531 C21.11304194 252.08000327 17.72572248 248.70057496 14.33902168 245.32052135 C11.77730879 242.76402168 9.21466861 240.20846601 6.64990234 237.6550293 C4.15206674 235.16814938 1.65676361 232.67875305 -0.83688736 230.18767738 C-2.23255213 228.79471989 -3.6307535 227.40430539 -5.02902222 226.01396179 C-9.49625091 221.54712351 -13.80331774 217.01880484 -17.91854858 212.22584534 C-19.81294765 210.05732512 -21.83592399 208.06156783 -23.92578125 206.08203125 C-39.99236139 190.61718954 -53.12691688 174.78361105 -53.66976929 151.34925842 C-53.68761506 148.95953705 -53.69464126 146.56971899 -53.69287109 144.17993164 C-53.69958832 142.86819473 -53.70630554 141.55645782 -53.71322632 140.20497131 C-53.73078059 136.63054768 -53.73557707 133.05621999 -53.73685789 129.4817574 C-53.73828559 127.24318859 -53.74256675 125.0046437 -53.74785233 122.76608086 C-53.76631465 114.94145042 -53.77452735 107.11688782 -53.77294922 99.29223633 C-53.7717475 92.02181506 -53.79286549 84.75169049 -53.82443655 77.48134428 C-53.85065751 71.21777465 -53.86131415 64.95430163 -53.8600384 58.69067758 C-53.85953066 54.9590794 -53.86510975 51.2277455 -53.8863945 47.49620247 C-53.90950297 43.3319811 -53.90022057 39.16841856 -53.88818359 35.00415039 C-53.89942261 33.78254211 -53.91066162 32.56093384 -53.92224121 31.30230713 C-53.84429865 20.66342841 -51.10944648 11.69535263 -43.7578125 3.75 C-31.51097268 -8.04787217 -14.17062618 -8.68670906 0 0 Z M-30.40234375 16.52734375 C-34.45186861 21.51137434 -35.52201928 25.37720483 -35.54278564 31.65963745 C-35.54849579 32.69667313 -35.55420593 33.7337088 -35.56008911 34.8021698 C-35.56120697 35.93463638 -35.56232483 37.06710297 -35.56347656 38.23388672 C-35.56844147 39.43117905 -35.57340637 40.62847137 -35.57852173 41.86204529 C-35.59062263 45.14570734 -35.59808782 48.42933381 -35.60253239 51.71301413 C-35.60546966 53.77016693 -35.60957593 55.82731424 -35.61403656 57.88446426 C-35.62771277 64.33656152 -35.63737591 70.78864612 -35.64123845 77.24075687 C-35.64570419 84.65790381 -35.66318206 92.07486509 -35.69223905 99.49195564 C-35.71397441 105.24252974 -35.72394918 110.9930521 -35.72527957 116.74366677 C-35.72632019 120.16914845 -35.73206597 123.59445568 -35.75009918 127.01989365 C-35.89151496 157.74745737 -35.89151496 157.74745737 -20.26171875 183.28515625 C-19.65371933 183.93166641 -19.04571991 184.57817657 -18.41929626 185.24427795 C-10.77382616 193.3216499 -2.86449338 201.13753365 5.03515625 208.96484375 C8.01602634 211.91886779 10.99336682 214.87638811 13.96875 217.8359375 C14.9642411 218.81898109 14.9642411 218.81898109 15.97984314 219.82188416 C19.80290755 223.62506093 23.40436957 227.55059211 26.92744446 231.63227844 C29.40646062 234.44503402 32.04297314 237.07884274 34.71484375 239.70703125 C35.25746857 240.24586945 35.80009338 240.78470764 36.35916138 241.33987427 C38.06119589 243.02987224 39.76649289 244.71651491 41.47265625 246.40234375 C43.74375238 248.64686996 46.011518 250.89468626 48.27734375 253.14453125 C48.79706757 253.65595673 49.31679138 254.1673822 49.8522644 254.69430542 C53.48489851 258.30182827 53.48489851 258.30182827 54.59765625 260.52734375 C55.27559738 260.52876877 55.95353851 260.53019379 56.65202332 260.53166199 C63.70893805 260.55135021 70.76498679 260.60560591 77.8215332 260.67993164 C80.45493354 260.70312697 83.08842685 260.71751091 85.72192383 260.72290039 C89.50791468 260.73217803 93.29244 260.77314752 97.078125 260.8203125 C98.25537643 260.81637985 99.43262787 260.8124472 100.64555359 260.80839539 C109.75354591 260.97092725 109.75354591 260.97092725 112.8527832 263.88012695 C114.97930694 267.10636129 115.16296353 268.73170917 114.59765625 272.52734375 C113.19765625 276.22734375 113.19765625 276.22734375 110.59765625 277.52734375 C108.99494645 277.64591011 107.38760272 277.70440499 105.78076172 277.73266602 C104.77987518 277.75261124 103.77898865 277.77255646 102.74777222 277.79310608 C101.12272263 277.81817482 101.12272263 277.81817482 99.46484375 277.84375 C98.3578714 277.8645311 97.25089905 277.88531219 96.11038208 277.90672302 C92.56453826 277.97225366 89.01861871 278.03111989 85.47265625 278.08984375 C83.07290875 278.13302562 80.67316898 278.1766398 78.2734375 278.22070312 C72.381587 278.32875436 66.48968133 278.42780199 60.59765625 278.52734375 C60.59765625 289.08734375 60.59765625 299.64734375 60.59765625 310.52734375 C85.01765625 310.52734375 109.43765625 310.52734375 134.59765625 310.52734375 C134.68503604 295.35743844 134.68503604 295.35743844 134.74414062 280.1875 C134.7620153 273.99259653 134.78307146 267.79782716 134.82397461 261.60302734 C134.85677316 256.60390511 134.87455218 251.60492686 134.88228798 246.60570526 C134.88779491 244.70649706 134.89854776 242.80729597 134.91484642 240.90814972 C135.06978771 222.09131699 132.66474807 207.67657641 119.28930664 193.60449219 C118.67421014 192.95186779 118.05911364 192.29924339 117.42537785 191.6268425 C110.68181647 184.5039084 103.77719083 177.54286122 96.84375 170.60546875 C95.48561386 169.24410704 94.1275475 167.88267572 92.76954651 166.5211792 C89.95708019 163.70279729 87.14262946 160.886415 84.3269043 158.07128906 C80.72418006 154.46866758 77.12845591 150.85914205 73.53433132 147.24794388 C70.74706477 144.44957066 67.9552772 141.65574212 65.16218758 138.86318207 C63.83333614 137.53315427 62.50609735 136.20151313 61.18054008 134.86820221 C59.33658271 133.01444522 57.4863956 131.16713279 55.63452148 129.32128906 C55.0947467 128.77589478 54.55497192 128.23050049 53.99884033 127.6685791 C49.38567383 123.09347903 45.25043671 119.7882371 38.59765625 119.52734375 C34.38630668 120.43966706 31.3617307 121.80348375 28.22265625 124.77734375 C25.44991803 129.46966997 24.16213836 132.70696296 25.45849609 138.12548828 C27.88199899 144.137178 32.68740471 148.2138219 37.26171875 152.64453125 C38.22027211 153.59119745 39.17764091 154.53906443 40.13388062 155.48806763 C42.63800158 157.96758692 45.15634252 160.43212436 47.67852783 162.89324951 C51.24250827 166.37636807 54.78648766 169.8798577 58.33285522 173.38088989 C60.21868329 175.24249766 62.11027739 177.0975797 64.00527954 178.94992065 C64.85641327 179.78484039 65.707547 180.61976013 66.58447266 181.47998047 C67.71340439 182.58295975 67.71340439 182.58295975 68.86514282 183.70822144 C70.80530423 185.74537212 71.56450087 186.76765301 71.6875 189.5859375 C71.53137594 192.02387472 71.28700431 194.18099136 70.59765625 196.52734375 C67.97265625 198.71484375 67.97265625 198.71484375 64.59765625 199.52734375 C56.85474774 198.65435669 52.57314656 193.20698602 47.31640625 187.875 C46.33507154 186.8944956 45.35291928 185.91480884 44.36999512 184.93589783 C42.3145911 182.8833459 40.26819931 180.82232864 38.22802734 178.75463867 C35.63781202 176.13054516 33.02827686 173.52676155 30.41170502 170.92897892 C28.37933111 168.90728551 26.3569837 166.87578741 24.3374176 164.84130669 C22.92065598 163.41697287 21.49650485 162.00000121 20.07214355 160.58326721 C2.39168532 142.58384105 -2.82408445 121.95629858 -2.87890625 97.35546875 C-2.89329293 95.8568183 -2.90906288 94.35818058 -2.92611694 92.85955811 C-2.96745789 88.95477861 -2.99276383 85.0500779 -3.01361084 81.1451416 C-3.03634366 77.22559949 -3.07053283 73.30616845 -3.10546875 69.38671875 C-3.11228039 68.62209068 -3.11909203 67.85746262 -3.12611008 67.069664 C-3.19792656 59.22192011 -3.28625768 51.37456162 -3.40234375 43.52734375 C-3.41841675 42.41093506 -3.43448975 41.29452637 -3.4510498 40.14428711 C-3.50232365 37.3279282 -3.58131636 34.51441304 -3.67578125 31.69921875 C-3.68848053 30.93071594 -3.70117981 30.16221313 -3.71426392 29.37042236 C-3.98334956 23.15812767 -6.41790709 19.62517679 -10.58984375 15.21484375 C-17.38395619 11.13837629 -24.13590426 11.777893 -30.40234375 16.52734375 Z M294.78515625 18.58984375 C291.52167957 22.97222672 291.30982336 26.12384649 291.05859375 31.44921875 C290.99567642 32.7462674 290.99567642 32.7462674 290.93148804 34.06951904 C290.55522303 42.78711287 290.46609134 51.50637293 290.38671875 60.23046875 C290.37956596 60.97592453 290.37241318 61.72138031 290.36504364 62.48942566 C290.29789656 69.49678469 290.23369998 76.5041305 290.19628906 83.51171875 C290.17508499 87.38643617 290.13962285 91.26081627 290.09553146 95.13533783 C290.08161888 96.58460229 290.07270684 98.03392584 290.06947708 99.48325348 C290.00810539 124.33828591 283.3799322 144.39221008 265.52192497 162.17882156 C265.04031473 162.65734951 264.55870449 163.13587746 264.0625 163.62890625 C263.05504035 164.64161652 262.04809745 165.65484108 261.04164124 166.66854858 C258.94960303 168.77089929 256.85040655 170.86575037 254.74584961 172.95556641 C252.05503958 175.62906132 249.38532958 178.32259773 246.72072506 181.02218056 C244.65429979 183.11057357 242.5763023 185.18713967 240.49472237 187.26041794 C239.50496926 188.24935389 238.51902414 189.24211696 237.53709221 190.23881912 C236.16691144 191.6264626 234.77897768 192.99650805 233.39038086 194.36572266 C232.6076329 195.14750885 231.82488495 195.92929504 231.01841736 196.73477173 C228.1288343 198.8745061 226.16641937 199.33357103 222.59765625 199.52734375 C216.98589154 197.30381434 216.98589154 197.30381434 215.59765625 194.52734375 C215.05046747 191.10741389 214.82814298 188.63015132 216.87286377 185.69981384 C221.51004326 180.61436376 226.32646878 175.75659632 231.26953125 170.96875 C232.92001781 169.35037082 234.56973476 167.73120645 236.21875 166.11132812 C238.78791385 163.59159965 241.36115497 161.07678739 243.94775391 158.57495117 C246.46488824 156.13679043 248.96221286 153.67971422 251.45703125 151.21875 C252.22891785 150.48096817 253.00080444 149.74318634 253.79608154 148.98304749 C258.38453157 144.4181222 261.73725996 140.11087905 262.59765625 133.52734375 C261.87135485 129.18272142 260.3913627 126.38908218 257.41015625 123.15234375 C253.85787292 121.09991338 250.71741246 119.79568036 246.59765625 119.52734375 C234.71493996 122.71021418 225.32275331 135.62226104 216.87890625 144.04296875 C216.17911148 144.73993614 215.47931671 145.43690353 214.75831604 146.15499115 C211.05703936 149.84134808 207.35859424 153.53051739 203.66259766 157.22216797 C199.87029705 161.00898529 196.0688048 164.78643124 192.2650528 168.56174088 C189.31722637 171.49083576 186.37623399 174.42672219 183.43699646 177.36443329 C182.03942579 178.75900216 180.63938446 180.15110007 179.23670959 181.54053497 C165.27179563 195.10458876 165.27179563 195.10458876 155.66015625 211.83984375 C155.08974609 213.25716797 155.08974609 213.25716797 154.5078125 214.703125 C152.62973689 220.53080167 152.45663573 226.13838699 152.48413086 232.19482422 C152.48398483 233.04426102 152.48383881 233.89369781 152.48368835 234.76887512 C152.48438188 237.56078698 152.49214799 240.35263112 152.5 243.14453125 C152.50186617 245.08651696 152.50328913 247.02850315 152.50428772 248.9704895 C152.50809723 254.07008169 152.51791411 259.16964519 152.5289917 264.26922607 C152.54104278 270.39415901 152.54561552 276.51910156 152.55144501 282.64404297 C152.56112673 291.93849649 152.58029425 301.23288711 152.59765625 310.52734375 C177.01765625 310.52734375 201.43765625 310.52734375 226.59765625 310.52734375 C226.59765625 299.96734375 226.59765625 289.40734375 226.59765625 278.52734375 C223.02308594 278.48996094 219.44851563 278.45257813 215.765625 278.4140625 C212.31040258 278.36787498 208.8552897 278.31663113 205.40014648 278.26489258 C202.99559158 278.23160199 200.59095774 278.20358308 198.1862793 278.1809082 C194.73321846 278.14743865 191.28088364 278.09512578 187.828125 278.0390625 C186.74991989 278.03267258 185.67171478 278.02628265 184.56083679 278.0196991 C183.05962029 277.99000786 183.05962029 277.99000786 181.52807617 277.9597168 C180.64649338 277.94861374 179.76491058 277.93751068 178.85661316 277.92607117 C176.13723073 277.44607426 175.28080839 276.6715942 173.59765625 274.52734375 C172.1533477 271.63872666 172.22077119 269.73086674 172.59765625 266.52734375 C174.35400391 263.85473633 174.35400391 263.85473633 177.59765625 261.52734375 C181.69222416 260.8509027 185.73202171 260.99755982 189.87109375 261.1015625 C192.32942479 261.10947299 194.78775841 261.1166105 197.24609375 261.12304688 C201.11302446 261.16260061 204.97917464 261.21495921 208.84570312 261.28344727 C212.58395063 261.34039787 216.31996953 261.34850086 220.05859375 261.3515625 C221.20983734 261.38666428 222.36108093 261.42176605 223.54721069 261.45793152 C229.53398008 261.51464927 229.53398008 261.51464927 234.72235107 258.90066528 C236.50333373 256.85904879 238.04630864 254.74648694 239.59765625 252.52734375 C240.56467913 251.47757184 241.5564266 250.44980788 242.57617188 249.45117188 C243.05356812 248.97707886 243.53096436 248.50298584 244.02282715 248.01452637 C244.51158325 247.5340686 245.00033936 247.05361084 245.50390625 246.55859375 C246.03230103 246.0339856 246.5606958 245.50937744 247.10510254 244.96887207 C249.32385209 242.7661826 251.54864398 240.56963538 253.77294922 238.37255859 C255.41458355 236.7492235 257.05303644 235.12272255 258.69140625 233.49609375 C259.18016235 233.01563599 259.66891846 232.53517822 260.17248535 232.04016113 C262.88276105 229.34863851 265.44369788 226.5802791 267.93579102 223.68481445 C271.77915072 219.2490772 275.90488425 215.14633265 280.09375 211.0390625 C281.72099671 209.42933319 283.34794049 207.81929759 284.97460938 206.20898438 C287.50327662 203.7111874 290.03418131 201.21580085 292.57055664 198.72583008 C308.70699233 182.8683925 322.2801134 169.31772797 322.85835266 145.50616455 C322.87308173 143.30916716 322.87718166 141.11208043 322.87231445 138.91503906 C322.87742538 137.7054805 322.88253632 136.49592194 322.88780212 135.24971008 C322.89923367 131.96689033 322.90178642 128.68422903 322.89923882 125.40139484 C322.89816128 122.65023509 322.90307168 119.89909808 322.90784425 117.14794326 C322.9188908 110.65736765 322.91940256 104.16684996 322.91333008 97.67626953 C322.90727672 90.99654758 322.91964677 84.31703554 322.94090015 77.63734937 C322.95853778 71.88078898 322.96451461 66.12429532 322.9612624 60.36770892 C322.95945484 56.93865652 322.9620339 53.50975435 322.97597694 50.08072662 C322.98831446 46.26100934 322.98156647 42.44177979 322.9699707 38.62207031 C322.97761444 37.49567642 322.98525818 36.36928253 322.99313354 35.20875549 C322.94253616 27.66712922 322.21806008 22.63045355 317.22265625 16.71484375 C313.7150004 13.79179721 311.18400117 12.69610385 306.66015625 12.21484375 C301.4903907 12.74237085 298.11272466 14.67899467 294.78515625 18.58984375 Z " fill="#00ff00" transform="translate(112.40234375,158.47265625)"/>
<path d="M0 0 C5.3075867 4.21316519 9.70786381 8.59996168 14.0234375 13.80078125 C14.6834375 13.80078125 15.3434375 13.80078125 16.0234375 13.80078125 C17.48525909 12.2773761 17.48525909 12.2773761 19.0234375 10.30078125 C33.94296989 -7.10023394 56.59530559 -16.54210483 79.10009766 -18.36767578 C100.06402056 -19.56891711 118.91288331 -13.19909577 135.1484375 -0.01171875 C148.91319287 12.65298445 157.44015849 30.93030125 158.40625 49.5625 C159.08500718 72.83706528 153.00396611 91.52575925 137.125 108.875 C132.77426121 113.39444091 128.03090223 117.32599335 123.14453125 121.25 C119.52622575 124.17720798 116.02863052 127.23986493 112.5234375 130.30078125 C107.39151734 134.77652445 102.19156807 139.14086603 96.8984375 143.42578125 C93.38796111 146.32574 89.95511023 149.30836263 86.5234375 152.30078125 C82.24127646 156.03482568 77.94012482 159.72536771 73.5234375 163.30078125 C68.48995209 167.37835252 63.60010441 171.6058404 58.71533203 175.85888672 C53.06851247 180.77283642 47.3635301 185.6140407 41.63818359 190.43603516 C39.95575227 191.85798725 38.27996836 193.28746849 36.60546875 194.71875 C34.39969576 196.60351128 32.1858134 198.47767128 29.9609375 200.33984375 C28.19672821 201.81783824 26.44299274 203.30867041 24.7109375 204.82421875 C21.1313638 207.80253593 18.05413315 209.93481613 13.1328125 209.49609375 C8.29431435 207.9011814 4.74711377 204.14280649 1.0234375 200.80078125 C-0.05962818 199.87034452 -1.1457056 198.94340499 -2.234375 198.01953125 C-5.83133232 194.96529955 -9.40458365 191.88415385 -12.9765625 188.80078125 C-22.61223916 180.48328568 -22.61223916 180.48328568 -32.4140625 172.36328125 C-37.51963715 168.22017134 -42.47456303 163.91847675 -47.42944336 159.59790039 C-51.06394101 156.43612287 -54.73177093 153.33227919 -58.4765625 150.30078125 C-63.51004791 146.22320998 -68.39989559 141.9957221 -73.28466797 137.74267578 C-77.36601349 134.1910258 -81.4678173 130.66630361 -85.6015625 127.17578125 C-86.12556641 126.73282715 -86.64957031 126.28987305 -87.18945312 125.83349609 C-89.92939057 123.52009022 -92.67639818 121.21546663 -95.4296875 118.91796875 C-98.63534401 116.23871574 -101.81269582 113.52929298 -104.9765625 110.80078125 C-105.65460938 110.22199219 -106.33265625 109.64320313 -107.03125 109.046875 C-118.85299865 98.17849318 -126.9055136 80.98991592 -128.19799805 65.07397461 C-129.14120078 41.39335155 -124.21739042 20.40246524 -107.82421875 2.640625 C-78.92917911 -26.98294375 -31.29096216 -23.11917545 0 0 Z M-91.9765625 13.80078125 C-92.73710937 14.50847656 -93.49765625 15.21617188 -94.28125 15.9453125 C-105.18572384 27.01500564 -109.88514165 40.85785963 -110.2890625 56.17578125 C-110.02759397 72.40317215 -104.07421493 85.11061347 -92.9765625 96.80078125 C-89.05996349 100.48943005 -84.92013873 103.91415445 -80.76416016 107.32763672 C-78.49800885 109.19515338 -76.25975751 111.09418962 -74.02246094 112.99609375 C-72.41483179 114.36262733 -70.80370549 115.72491837 -69.19140625 117.0859375 C-65.95109775 119.82182583 -62.71362609 122.56105497 -59.4765625 125.30078125 C-58.39324151 126.21746251 -57.30990818 127.13412918 -56.2265625 128.05078125 C-54.05989583 129.88411458 -51.89322917 131.71744792 -49.7265625 133.55078125 C-49.19039307 134.00445068 -48.65422363 134.45812012 -48.10180664 134.92553711 C-47.01761012 135.84295922 -45.93346305 136.76043977 -44.84936523 137.67797852 C-42.15463939 139.95856669 -39.45908438 142.2381594 -36.76171875 144.515625 C-31.10385424 149.29486451 -25.46573507 154.09526635 -19.8515625 158.92578125 C-14.93707496 163.15277764 -9.96290117 167.2898463 -4.91015625 171.3515625 C-2.59638399 173.28330046 -0.36172221 175.25072266 1.86328125 177.28125 C2.53109619 177.88332275 3.19891113 178.48539551 3.88696289 179.10571289 C5.20618695 180.29940331 6.51447459 181.5053171 7.81030273 182.72436523 C11.2451181 185.94740473 11.2451181 185.94740473 15.6796875 186.91796875 C18.5129915 185.56742718 20.38578995 183.98018758 22.6484375 181.80078125 C26.10318529 178.56513989 29.58921153 175.46065825 33.2734375 172.48828125 C38.15360579 168.53603228 42.93123499 164.47943496 47.69042969 160.38354492 C52.14787661 156.54788394 56.6297018 152.74253626 61.12402344 148.95019531 C65.15165636 145.54783469 69.15218168 142.11490079 73.1484375 138.67578125 C77.2096856 135.18258643 81.29862529 131.73629574 85.4609375 128.36328125 C90.56205901 124.223785 95.5132121 119.92644041 100.46313477 115.60888672 C104.22502392 112.33554836 108.02523281 109.12915732 111.8984375 105.98828125 C113.60764935 104.59352381 115.31603201 103.19774938 117.0234375 101.80078125 C117.82523438 101.14851563 118.62703125 100.49625 119.453125 99.82421875 C130.11410775 90.81443198 138.47527046 77.92780545 140.0234375 63.80078125 C141.1121754 46.51706704 137.1526334 30.70855133 125.7109375 17.36328125 C114.1626744 5.4632944 100.4685754 0.23931826 84.0234375 -0.19921875 C61.54086672 0.87137986 44.15568065 10.71006637 29.1484375 26.98828125 C26.78660016 29.66198092 24.57673895 32.29876649 22.6484375 35.30078125 C21.0234375 37.80078125 21.0234375 37.80078125 18.0234375 39.80078125 C14.55606242 40.25304756 12.65014553 40.15430885 9.5859375 38.42578125 C7.31133787 36.09570358 5.69864283 33.92789919 3.8984375 31.23828125 C-6.79834242 15.61868218 -22.87394505 4.81646082 -41.58203125 1.1796875 C-59.70043921 -1.68733627 -78.17499017 0.83952606 -91.9765625 13.80078125 Z " fill="#00ff00" transform="translate(240.9765625,43.19921875)"/>
<path d="M0 0 C3.70197372 2.23527479 6.78947086 5.11807274 10 8 C11.09483123 8.9420951 12.19262851 9.88075143 13.29296875 10.81640625 C15.67644612 12.84338202 18.05264262 14.87826413 20.421875 16.921875 C23.78638557 19.82081005 27.16994612 22.69646554 30.5625 25.5625 C31.36179932 26.23804932 31.36179932 26.23804932 32.17724609 26.92724609 C33.78450751 28.28521401 35.39217753 29.64269643 37 31 C39.146334 32.81190825 41.29223737 34.62432337 43.4375 36.4375 C43.96980225 36.88730225 44.50210449 37.33710449 45.05053711 37.80053711 C49.09324487 41.22138326 53.11063259 44.67098049 57.125 48.125 C61.18628745 51.61815106 65.27518587 55.06448396 69.4375 58.4375 C73.87244569 62.03640291 78.19477335 65.74830249 82.5 69.5 C84.39944404 71.14890977 86.30001502 72.79650034 88.20166016 74.44287109 C89.36137649 75.44703492 90.51998997 76.45247453 91.67724609 77.45947266 C93.1717904 78.7541303 94.67926251 80.03382069 96.1875 81.3125 C97.44626953 82.38951172 97.44626953 82.38951172 98.73046875 83.48828125 C101.10036123 85.36957972 101.10036123 85.36957972 105 85 C106.7237495 83.97282128 106.7237495 83.97282128 108.28515625 82.47265625 C108.89230469 81.93253906 109.49945313 81.39242187 110.125 80.8359375 C111.0840625 79.95808594 111.0840625 79.95808594 112.0625 79.0625 C113.41688503 77.85425285 114.77235937 76.6472257 116.12890625 75.44140625 C116.79164551 74.84859863 117.45438477 74.25579102 118.13720703 73.64501953 C120.53641104 71.52629914 123.00628398 69.50622266 125.5 67.5 C129.91668732 63.92458646 134.21783896 60.23404443 138.5 56.5 C142.78216104 52.76595557 147.08331268 49.07541354 151.5 45.5 C156.53348541 41.42242873 161.42333309 37.19494085 166.30810547 32.94189453 C171.95338046 28.02928895 177.65694463 23.18965082 183.38085938 18.36914062 C185.07714744 16.93476435 186.76580974 15.49179256 188.453125 14.046875 C191.61587721 11.34061635 194.80151709 8.66395383 198 6 C198.70125 5.40574219 199.4025 4.81148437 200.125 4.19921875 C202.99611094 1.92411968 204.9766787 1.00361882 208.625 0.4375 C212.6694002 1.1115667 214.30513384 1.90883 217 5 C218.08721398 8.73729806 218.54732096 10.8819529 216.8125 14.42578125 C211.46899068 22.01494643 203.19052078 27.72836537 196.015625 33.51953125 C192.45329778 36.44968382 188.97529204 39.46762878 185.5 42.5 C181.21797219 46.23418958 176.91667953 49.92459276 172.5 53.5 C167.46651459 57.57757127 162.57666691 61.80505915 157.69189453 66.05810547 C152.03735121 70.9787765 146.32527914 75.82781099 140.59277344 80.65722656 C137.89185174 82.93421451 135.19627303 85.21751144 132.5 87.5 C131.42708938 88.40755923 130.3541727 89.3151113 129.28125 90.22265625 C127.00885209 92.14529653 124.73830053 94.07009331 122.46875 95.99609375 C121.88802734 96.48851562 121.30730469 96.9809375 120.70898438 97.48828125 C119.60564178 98.42391577 118.50274465 99.36007597 117.40039062 100.296875 C115.93798814 101.53645303 114.46913158 102.76840464 113 104 C112.12085938 104.74378906 111.24171875 105.48757813 110.3359375 106.25390625 C107.13401087 108.64731963 104.98531932 109 101 109 C94.91996796 106.54460244 90.62701362 102.0619991 85.875 97.6328125 C83.23372887 95.21403975 80.53694911 92.93530717 77.75 90.6875 C73.29366003 87.08814849 68.94392954 83.3866306 64.625 79.625 C58.3272634 74.14133777 51.9790197 68.72294029 45.59277344 63.34277344 C42.89185188 61.06578561 40.19622756 58.78254206 37.5 56.5 C36.41669135 55.58330416 35.33335804 54.66663747 34.25 53.75 C27.75 48.25 21.25 42.75 14.75 37.25 C14.21310547 36.79584717 13.67621094 36.34169434 13.12304688 35.8737793 C12.04565506 34.96185334 10.9688268 34.04926113 9.89257812 33.13598633 C7.09771857 30.76586073 4.29243189 28.4099622 1.46875 26.07421875 C0.88802734 25.59082031 0.30730469 25.10742188 -0.29101562 24.609375 C-1.39023737 23.69482251 -2.49284579 22.78431724 -3.59960938 21.87890625 C-12.61604185 14.35174367 -12.61604185 14.35174367 -13.5 8.9375 C-12.93980114 5.6463317 -11.98373516 3.67041272 -10 1 C-6.62907463 -0.68546269 -3.60407352 -0.80697269 0 0 Z " fill="#00ff00" transform="translate(153,196)"/>
<path d="M0 0 C6.24788518 5.49673054 10.66574674 13.12866097 15.21850586 20.02929688 C16.45223056 21.89730384 17.69714941 23.75749251 18.94335938 25.6171875 C19.73243623 26.80424546 20.52087226 27.9917297 21.30859375 29.1796875 C22.01814209 30.24944824 22.72769043 31.31920898 23.45874023 32.42138672 C25 35 25 35 25 37 C26.16917969 36.96519531 27.33835937 36.93039063 28.54296875 36.89453125 C30.09113141 36.86638284 31.63930968 36.83908381 33.1875 36.8125 C34.34088867 36.77479492 34.34088867 36.77479492 35.51757812 36.73632812 C40.18534511 36.67622812 43.20792877 36.95897977 47 40 C48.14993366 42.29986731 48.2316929 43.81469088 48.3125 46.375 C48.36857422 47.53128906 48.36857422 47.53128906 48.42578125 48.7109375 C47.82639448 51.93332875 46.53696438 52.96320098 44 55 C39.44060149 55.90935795 34.82767044 55.74058311 30.1875 55.75 C28.92873047 55.79898438 27.66996094 55.84796875 26.37304688 55.8984375 C17.41385704 55.95511134 17.41385704 55.95511134 13.77954102 53.5 C11.91892239 51.43979945 10.46725933 49.35524087 9 47 C8.45641846 46.22624023 7.91283691 45.45248047 7.3527832 44.65527344 C5.70477025 42.30034648 4.12723055 39.91090229 2.5625 37.5 C2.02173828 36.67757812 1.48097656 35.85515625 0.92382812 35.0078125 C-0.38955564 33.00867968 -1.69735696 31.00614092 -3 29 C-6.20524343 32.72607343 -8.48460935 36.59460759 -10.609375 40.99609375 C-10.93987854 41.66608902 -11.27038208 42.33608429 -11.61090088 43.02638245 C-12.6631059 45.16061187 -13.70730121 47.29861208 -14.75 49.4375 C-29.21930801 79.05843646 -29.21930801 79.05843646 -34 83 C-37.15593366 83.89907412 -39.81589343 83.71729347 -43 83 C-50.46999008 77.06534385 -55.39980951 67.05260077 -60.54321289 59.09619141 C-61.72760003 57.26871629 -62.92008586 55.44673124 -64.11328125 53.625 C-64.81235596 52.54476562 -65.51143066 51.46453125 -66.23168945 50.3515625 C-66.81523193 49.57554688 -67.39877441 48.79953125 -68 48 C-70.1221523 47.78202107 -70.1221523 47.78202107 -71.69921875 49.46875 C-75.77788395 53.63555924 -79.70939478 57.86725933 -83.45703125 62.3359375 C-85.50959927 64.54959313 -87.18897042 65.90282881 -90.23204041 66.26742554 C-91.10155838 66.27504913 -91.97107635 66.28267273 -92.86694336 66.29052734 C-93.8548436 66.30328705 -94.84274384 66.31604675 -95.86058044 66.32919312 C-96.92623734 66.33141876 -97.99189423 66.33364441 -99.08984375 66.3359375 C-100.18591446 66.3425943 -101.28198517 66.3492511 -102.41127014 66.35610962 C-104.73046183 66.36623957 -107.04968269 66.37092653 -109.36889648 66.37060547 C-112.92024654 66.37497875 -116.47035428 66.41129669 -120.02148438 66.44921875 C-122.27343324 66.45508672 -124.52538802 66.45905624 -126.77734375 66.4609375 C-127.84097641 66.47530853 -128.90460907 66.48967957 -130.00047302 66.50448608 C-137.33131181 66.45897027 -137.33131181 66.45897027 -140.64282227 64.18603516 C-142.5811109 61.06399226 -142.93578432 58.66029359 -143 55 C-141.83484357 52.24041899 -140.86570905 50.62671543 -138.43823242 48.86938477 C-134.7349653 47.54893476 -131.05349531 47.8240345 -127.17578125 47.90234375 C-125.40690464 47.90641009 -123.63802191 47.90829316 -121.86914062 47.90820312 C-119.09463984 47.91628348 -116.32298588 47.93727674 -113.54907227 47.99633789 C-102.76059222 48.50890204 -102.76059222 48.50890204 -92.84936523 45.0769043 C-90.59063347 42.83198037 -88.79965989 40.61943184 -87 38 C-85.82705598 36.63320597 -84.64173366 35.27680762 -83.4375 33.9375 C-81.63826085 31.88181757 -79.85270533 29.82294269 -78.10546875 27.72265625 C-74.88469612 24.10802188 -72.41570941 21.47331023 -67.4375 21 C-62.59915187 21.63016134 -60.94196135 23.84596257 -57.93334961 27.46875 C-54.23169787 32.31516055 -50.89790988 37.39770784 -47.5625 42.5 C-46.82411454 43.62015232 -46.08518554 44.73994655 -45.34570312 45.859375 C-43.55844906 48.56945959 -41.77671962 51.28300239 -40 54 C-37.97061448 51.40321884 -36.2964405 48.84916242 -34.81103516 45.90917969 C-34.40696442 45.11445251 -34.00289368 44.31972534 -33.58657837 43.50091553 C-33.15839813 42.64983215 -32.7302179 41.79874878 -32.2890625 40.921875 C-31.83904877 40.03647034 -31.38903503 39.15106567 -30.92538452 38.23883057 C-29.48828571 35.41104817 -28.05606853 32.58083846 -26.625 29.75 C-24.74644414 26.03428019 -22.86295437 22.32112162 -20.9765625 18.609375 C-20.55243073 17.76638855 -20.12829895 16.9234021 -19.6913147 16.05487061 C-17.70767863 12.1524394 -15.66335153 8.29561449 -13.43896484 4.52441406 C-12.87983902 3.57553314 -12.87983902 3.57553314 -12.30941772 2.60748291 C-8.85925571 -1.62804589 -4.97175403 -1.51680631 0 0 Z " fill="#00ff00" transform="translate(310,76)"/>
</svg>