<svg version="1.1" xmlns="http://www.w3.org/2000/svg" width="512px" height="512px" transform="rotate(0) scale(1, 1)">
<path d="M0 0 C1.96642695 0.48424626 3.93590086 0.95628403 5.90820312 1.41601562 C26.58075168 6.23771672 26.58075168 6.23771672 32.38891602 14.66430664 C33.11723633 15.45321289 33.84555664 16.24211914 34.59594727 17.05493164 C35.12575195 17.66852539 35.65555664 18.28211914 36.20141602 18.91430664 C37.01545898 19.85016602 37.01545898 19.85016602 37.84594727 20.80493164 C39.38891602 22.66430664 39.38891602 22.66430664 40.59960938 24.73852539 C42.28432695 26.92441326 42.28432695 26.92441326 45.1887207 27.24536133 C48.84031064 27.34370997 52.4858979 27.40694168 56.13891602 27.41430664 C57.40219727 27.46329102 58.66547852 27.51227539 59.96704102 27.56274414 C66.5509456 27.72825718 66.5509456 27.72825718 72.45336914 25.25219727 C74.28209907 23.1488309 75.83492512 20.97895638 77.38891602 18.66430664 C85.70502962 6.49617082 94.87929835 3.7325066 108.91479492 0.57714844 C112.15671298 -0.15219721 115.3790949 -0.94200993 118.60375977 -1.74389648 C120.67192113 -2.24287157 122.74090861 -2.73843765 124.81079102 -3.23022461 C125.76822205 -3.46022659 126.72565308 -3.69022858 127.71209717 -3.92720032 C132.9912453 -5.10322636 137.10441567 -5.62403833 142.38891602 -4.33569336 C144.82641602 -2.77319336 144.82641602 -2.77319336 146.38891602 -0.33569336 C146.86483741 6.21737821 145.58444303 11.85877916 143.88891602 18.16430664 C143.53120117 19.54102539 143.53120117 19.54102539 143.16625977 20.94555664 C142.58240682 23.18755195 141.98983635 25.42683732 141.38891602 27.66430664 C142.39845337 27.65542419 143.40799072 27.64654175 144.44812012 27.63739014 C153.98162616 27.55615515 163.51506159 27.49626978 173.04883575 27.45705795 C177.94977797 27.43622069 182.85043982 27.40797379 187.7512207 27.36254883 C192.48449951 27.31895308 197.21750936 27.29514051 201.95097351 27.28479767 C203.75302868 27.27743089 205.55506983 27.26304531 207.35700989 27.24138641 C209.88944829 27.21216931 212.42078818 27.20835818 214.95336914 27.21020508 C216.06036667 27.18863342 216.06036667 27.18863342 217.18972778 27.16662598 C223.64828458 27.21729006 228.77083326 29.37006339 233.63110352 33.62915039 C234.16993164 34.28012695 234.70875977 34.93110352 235.26391602 35.60180664 C235.81821289 36.25020508 236.37250977 36.89860352 236.94360352 37.56665039 C240.26814593 42.39172952 240.65675989 46.73558175 240.51391602 52.47680664 C240.50489258 53.16967773 240.49586914 53.86254883 240.48657227 54.57641602 C240.46317758 56.27253059 240.42731242 57.96846535 240.38891602 59.66430664 C240.94183193 59.66061947 241.49474785 59.6569323 242.06441879 59.65313339 C255.51822737 59.56479513 268.97198513 59.49885872 282.42602158 59.45705795 C288.93231751 59.43616499 295.43840444 59.40781556 301.94458008 59.36254883 C308.22099111 59.31915294 314.49720085 59.29518242 320.77375031 59.28479767 C323.17081116 59.27739511 325.56786074 59.26294005 327.96483612 59.24138641 C331.31705207 59.21243648 334.66843153 59.20834723 338.02075195 59.21020508 C339.01625061 59.19582397 340.01174927 59.18144287 341.03741455 59.16662598 C341.95164185 59.17212463 342.86586914 59.17762329 343.80780029 59.18328857 C344.60054226 59.1796014 345.39328423 59.17591423 346.21004868 59.17211533 C349.27702138 59.8649236 350.40150654 61.26485455 352.38891602 63.66430664 C352.89031267 66.05445862 352.89031267 66.05445862 352.89228058 68.76806641 C352.90271157 69.8046489 352.91314256 70.84123138 352.92388964 71.90922546 C352.91496675 73.04656631 352.90604386 74.18390717 352.89685059 75.35571289 C352.90621053 77.16970329 352.90621053 77.16970329 352.91575956 79.02033997 C352.92897148 82.37876138 352.92419364 85.73629037 352.91181469 89.0946579 C352.9027787 92.71572469 352.91672667 96.33671248 352.92773438 99.95776367 C352.9455398 107.05198742 352.94167067 114.14604209 352.93008381 121.24027252 C352.92105769 127.004841 352.91982192 132.76936203 352.92417908 138.53393555 C352.92479201 139.35374562 352.92540494 140.1735557 352.92603645 141.0182085 C352.92731532 142.68353146 352.92861217 144.3488544 352.92992681 146.01417732 C352.94133854 161.63736741 352.92820964 177.26046368 352.90672535 192.88363838 C352.88885381 206.29494979 352.89195776 219.70612273 352.91040039 233.11743164 C352.93179667 248.68393739 352.94023984 264.25036087 352.92795134 279.81687927 C352.92667711 281.47614541 352.92541963 283.13541157 352.92417908 284.79467773 C352.92325342 286.01932849 352.92325342 286.01932849 352.92230907 287.26871967 C352.91885243 293.02771793 352.92469125 298.7866641 352.93409729 304.5456543 C352.94530488 311.56204011 352.94230351 318.57824688 352.92097431 325.59461212 C352.91044701 329.17590695 352.90637027 332.75690305 352.91957092 336.3381958 C352.93365073 340.21660035 352.91686253 344.09451355 352.89685059 347.97290039 C352.91023492 349.67891167 352.91023492 349.67891167 352.92388964 351.41938782 C352.91345865 352.45597031 352.90302766 353.4925528 352.89228058 354.56054688 C352.89163117 355.45603745 352.89098176 356.35152802 352.89031267 357.27415466 C352.22019397 360.46860264 350.92515878 361.67034516 348.38891602 363.66430664 C345.76864369 364.05748217 343.56756598 364.20554017 340.94946289 364.17224121 C339.82150928 364.18160115 339.82150928 364.18160115 338.67076874 364.19115019 C336.14941615 364.20711336 333.62902588 364.19446353 331.10766602 364.18188477 C329.30077551 364.18730443 327.49388942 364.19442621 325.68701172 364.203125 C320.77793572 364.22137986 315.86919549 364.2142819 310.96011353 364.20160866 C305.82634567 364.1914922 300.69260686 364.20087057 295.55883789 364.20715332 C286.93704051 364.21443367 278.31538011 364.20483184 269.69360352 364.18579102 C259.72102633 364.16402156 249.74877623 364.17107265 239.77620697 364.19309664 C231.2189936 364.21123957 222.66187879 364.21381437 214.1046524 364.20334196 C208.99158872 364.19710095 203.87867885 364.1962881 198.765625 364.20948792 C193.95894026 364.22102969 189.15267786 364.21305133 184.34603882 364.18991089 C182.58035992 364.18461484 180.81464558 364.18615286 179.04898071 364.19496155 C176.64162789 364.20586565 174.23563491 364.1922171 171.82836914 364.17224121 C170.77603718 364.18562554 170.77603718 364.18562554 169.70244598 364.19928026 C166.38394737 364.14573298 164.64191828 363.85355722 161.95401382 361.84295273 C159.73012972 358.74726352 159.85905118 355.90179475 159.93481445 352.23364258 C159.93423035 351.49178711 159.93364624 350.74993164 159.93304443 349.9855957 C159.93582577 347.53947762 159.96691816 345.09458617 159.99829102 342.64868164 C160.00575328 340.95046657 160.01144628 339.25224288 160.01544189 337.55401611 C160.0306995 333.08874654 160.06998212 328.62399911 160.11425781 324.15893555 C160.16241027 318.79923289 160.18074396 313.43935544 160.20407104 308.07949829 C160.24283341 299.94073816 160.31948535 291.80312321 160.38891602 283.66430664 C141.90891602 283.66430664 123.42891602 283.66430664 104.38891602 283.66430664 C104.38891602 294.22430664 104.38891602 304.78430664 104.38891602 315.66430664 C106.94125977 315.61790039 109.49360352 315.57149414 112.12329102 315.52368164 C114.59885673 315.49247507 117.07440043 315.46819366 119.55004883 315.44458008 C121.26889881 315.42448036 122.98768054 315.39719575 124.70629883 315.36254883 C127.17880091 315.3139563 129.65039812 315.29132229 132.12329102 315.27368164 C133.27350739 315.24271393 133.27350739 315.24271393 134.44696045 315.21112061 C137.7399247 315.20973968 140.01223805 315.44256582 142.87231445 317.1262207 C145.13730894 320.91676846 144.96192717 324.32280853 144.92016602 328.66430664 C144.92399292 329.53700195 144.92781982 330.40969727 144.9317627 331.30883789 C144.93448092 333.15129756 144.92712596 334.99379588 144.91040039 336.83618164 C144.88898849 339.65476598 144.91020403 342.47080149 144.93579102 345.28930664 C144.93314772 347.08097893 144.92802271 348.87264963 144.92016602 350.66430664 C144.92826294 351.50606445 144.93635986 352.34782227 144.94470215 353.21508789 C144.92578918 354.39651367 144.92578918 354.39651367 144.90649414 355.60180664 C144.90331177 356.29145508 144.90012939 356.98110352 144.89685059 357.69165039 C144.13524029 360.64950245 142.76434637 361.77164815 140.38891602 363.66430664 C137.28417969 364.1676712 137.28417969 364.1676712 133.55688477 364.17224121 C132.52693642 364.18160115 132.52693642 364.18160115 131.47618103 364.19115019 C129.17590981 364.20710232 126.87669505 364.19446832 124.57641602 364.18188477 C122.92715842 364.18730494 121.27790567 364.19442701 119.62866211 364.203125 C115.14931386 364.22137389 110.67033376 364.21428444 106.190979 364.20160866 C101.50564575 364.19148907 96.82034424 364.20087144 92.13500977 364.20715332 C84.26646255 364.21443277 76.39806545 364.20483424 68.52954102 364.18579102 C59.42945831 364.16402168 50.32973405 364.17107285 41.22966003 364.19309664 C33.41978383 364.21124218 25.6100156 364.21381311 17.80012512 364.20334196 C13.13418705 364.19710237 8.46841752 364.19628416 3.80249023 364.20948792 C-0.58397216 364.22103353 -4.96997192 364.21304451 -9.35638428 364.18991089 C-10.96725699 364.18461687 -12.57816857 364.18614944 -14.18902588 364.19496155 C-16.38622899 364.20587404 -18.58194472 364.19220804 -20.77905273 364.17224121 C-22.62406372 364.16997906 -22.62406372 364.16997906 -24.50634766 364.1676712 C-28.19190553 363.57013923 -29.36723818 362.58882597 -31.61108398 359.66430664 C-32.11901855 357.69165039 -32.11901855 357.69165039 -32.12866211 355.60180664 C-32.14127075 354.81418945 -32.15387939 354.02657227 -32.16687012 353.21508789 C-32.15877319 352.37333008 -32.15067627 351.53157227 -32.14233398 350.66430664 C-32.14807434 349.35526367 -32.14807434 349.35526367 -32.15393066 348.01977539 C-32.15664889 346.17731572 -32.14929393 344.3348174 -32.13256836 342.49243164 C-32.11115646 339.6738473 -32.132372 336.85781179 -32.15795898 334.03930664 C-32.15531569 332.24763435 -32.15019068 330.45596365 -32.14233398 328.66430664 C-32.15043091 327.82254883 -32.15852783 326.98079102 -32.16687012 326.11352539 C-32.10902517 322.5001567 -31.97156264 320.26758032 -30.09448242 317.1262207 C-26.56671666 315.04951392 -23.31722283 315.16674833 -19.34545898 315.27368164 C-18.55206116 315.27934143 -17.75866333 315.28500122 -16.94122314 315.29083252 C-14.41388925 315.31317517 -11.88798733 315.36336488 -9.36108398 315.41430664 C-7.64495867 315.4343745 -5.92881106 315.45262477 -4.21264648 315.46899414 C-0.01113385 315.50962773 4.18729369 315.58791351 8.38891602 315.66430664 C8.38891602 305.10430664 8.38891602 294.54430664 8.38891602 283.66430664 C3.04446289 283.69572754 3.04446289 283.69572754 -2.40795898 283.7277832 C-14.18645497 283.7940936 -25.9649774 283.83846226 -37.74360657 283.87155533 C-44.88426246 283.89215225 -52.0247411 283.92021749 -59.1652832 283.96606445 C-65.39134151 284.00602067 -71.6172714 284.03176032 -77.84345436 284.04066062 C-81.13812856 284.04586068 -84.43235132 284.06014189 -87.72692871 284.08722687 C-91.41119061 284.11630798 -95.09469433 284.12026048 -98.77905273 284.1184082 C-99.86302841 284.13278931 -100.94700409 284.14717041 -102.06382751 284.1619873 C-109.67618956 284.12063738 -114.97277212 282.85258341 -120.85327148 277.69946289 C-121.39209961 277.04848633 -121.93092773 276.39750977 -122.48608398 275.72680664 C-123.04038086 275.0784082 -123.59467773 274.43000977 -124.16577148 273.76196289 C-127.77741375 268.52020101 -127.90111686 263.84779165 -127.87850952 257.68888855 C-127.88304063 256.78371233 -127.88757175 255.87853611 -127.89224017 254.9459303 C-127.90490268 251.91214386 -127.90326259 248.87853651 -127.90161133 245.84472656 C-127.90759543 243.66980254 -127.9144007 241.49488064 -127.92196655 239.31996155 C-127.93964605 233.41080668 -127.94432277 227.50170972 -127.94559813 221.59253097 C-127.94749691 216.65965135 -127.95485425 211.72678523 -127.96194232 206.7939108 C-127.97823139 195.15524348 -127.9831108 183.5166071 -127.98168945 171.87792969 C-127.98048796 159.87243511 -128.00159029 147.86714532 -128.03317678 135.86169356 C-128.05932967 125.55411343 -128.07005716 115.24659203 -128.06877863 104.93897897 C-128.0682687 98.78286028 -128.07396936 92.6269013 -128.09513474 86.47081566 C-128.11450023 80.68005054 -128.11465289 74.88959778 -128.10010147 69.09882164 C-128.09801018 66.97521 -128.10273328 64.8515789 -128.11482239 62.72800064 C-128.13027526 59.82519237 -128.1209661 56.92346101 -128.1055603 54.02067566 C-128.11584743 53.18359847 -128.12613456 52.34652128 -128.13673341 51.48407811 C-128.05767008 44.72618605 -126.12199102 39.52963594 -121.64624023 34.42211914 C-120.99526367 33.88329102 -120.34428711 33.34446289 -119.67358398 32.78930664 C-118.70098633 31.95786133 -118.70098633 31.95786133 -117.70874023 31.10961914 C-112.81365375 27.73684074 -108.33171721 27.38140879 -102.51611328 27.43725586 C-101.71559036 27.43696381 -100.91506744 27.43667175 -100.09028625 27.43637085 C-97.45517991 27.43775959 -94.82035944 27.45329925 -92.18530273 27.46899414 C-90.35399022 27.47272589 -88.5226757 27.4755721 -86.69136047 27.47756958 C-81.87940933 27.48519327 -77.06757957 27.50483091 -72.25567627 27.52697754 C-67.34226117 27.5474632 -62.42882639 27.55657711 -57.51538086 27.56665039 C-47.880562 27.58807798 -38.2458331 27.62219868 -28.61108398 27.66430664 C-28.76254883 27.1003418 -28.91401367 26.53637695 -29.07006836 25.95532227 C-29.76063469 23.3609177 -30.43592376 20.76276112 -31.11108398 18.16430664 C-31.46879883 16.83399414 -31.46879883 16.83399414 -31.83374023 15.47680664 C-33.23057403 10.04910962 -34.04970119 5.27234094 -33.61108398 -0.33569336 C-26.15269303 -10.0316016 -9.96821729 -2.48144807 0 0 Z M-13.61108398 15.66430664 C-12.77524944 19.53172115 -11.90534205 23.38978141 -11.00488281 27.24267578 C-10.55709858 29.1897825 -10.13558089 31.14287019 -9.71459961 33.09594727 C-7.87488302 40.87936359 -6.03450266 45.77599701 0.38891602 50.66430664 C1.07598633 51.29079102 1.76305664 51.91727539 2.47094727 52.56274414 C3.04200195 53.05000977 3.61305664 53.53727539 4.20141602 54.03930664 C7.29850732 56.71107206 10.35390902 59.42211043 13.38891602 62.16430664 C16.36954322 64.85414095 19.36136834 67.52741028 22.38891602 70.16430664 C26.28404412 73.55683757 30.11674364 77.01624865 33.95141602 80.47680664 C36.08309082 82.38984813 38.22910712 84.28318276 40.38891602 86.16430664 C44.28404412 89.55683757 48.11674364 93.01624865 51.95141602 96.47680664 C54.08309082 98.38984813 56.22910712 100.28318276 58.38891602 102.16430664 C61.41646369 104.801203 64.40828881 107.47447233 67.38891602 110.16430664 C73.62271361 115.78619773 79.91344694 121.32204466 86.38891602 126.66430664 C89.84093241 125.18709242 92.03853538 123.22636663 94.63891602 120.53930664 C95.69852539 119.45262695 95.69852539 119.45262695 96.77954102 118.34399414 C97.31063477 117.78969727 97.84172852 117.23540039 98.38891602 116.66430664 C95.39293563 111.86782222 91.97345095 107.87501647 88.07641602 103.78930664 C86.90761548 102.54790175 85.73963902 101.30572045 84.57250977 100.06274414 C84.01805176 99.47332031 83.46359375 98.88389648 82.89233398 98.27661133 C80.55203779 95.76681657 78.30285048 93.18341885 76.06079102 90.58618164 C74.03133529 88.2532559 71.96126901 85.95919419 69.88891602 83.66430664 C66.62500753 80.04754319 63.40100652 76.40041056 60.20141602 72.72680664 C58.11680437 70.35466236 56.00462957 68.00874599 53.88891602 65.66430664 C50.62500753 62.04754319 47.40100652 58.40041056 44.20141602 54.72680664 C42.11680437 52.35466236 40.00462957 50.00874599 37.88891602 47.66430664 C35.19908171 44.68367943 32.52581238 41.69185431 29.88891602 38.66430664 C25.77796325 33.94823699 21.61611583 29.2765421 17.38891602 24.66430664 C16.96376709 24.15706055 16.53861816 23.64981445 16.10058594 23.12719727 C13.84428573 21.19883457 11.86320215 20.7618325 8.98657227 20.05883789 C7.40392578 19.66728516 7.40392578 19.66728516 5.78930664 19.26782227 C4.68780273 19.00678711 3.58629883 18.74575195 2.45141602 18.47680664 C1.3537793 18.20416992 0.25614258 17.9315332 -0.87475586 17.65063477 C-5.26349716 16.58223466 -9.07384704 15.66430664 -13.61108398 15.66430664 Z M110.45141602 18.35180664 C109.36666992 18.59608398 108.28192383 18.84036133 107.16430664 19.09204102 C101.16173514 20.54933403 97.33828653 21.6574544 93.38891602 26.66430664 C92.3687023 27.76204779 91.33937669 28.85136365 90.30297852 29.93383789 C89.20525762 31.11355722 88.10894372 32.29458704 87.01391602 33.47680664 C86.4402832 34.09555664 85.86665039 34.71430664 85.27563477 35.35180664 C79.46264215 41.63932927 73.83813816 48.05918888 68.38891602 54.66430664 C69.92505154 58.2294554 72.07276122 60.7030102 74.70141602 63.53930664 C78.03565879 67.17470683 81.27120841 70.84260055 84.38891602 74.66430664 C91.99485213 68.16756954 99.51094248 61.58379576 106.92407227 54.86743164 C109.79453705 52.30175472 112.73036457 49.82043685 115.69750977 47.36743164 C119.34459788 43.69507502 120.84724724 39.67820466 121.99438477 34.70727539 C122.25541992 33.59545898 122.51645508 32.48364258 122.78540039 31.33813477 C123.04643555 30.18764648 123.3074707 29.0371582 123.57641602 27.85180664 C123.98537109 26.09707031 123.98537109 26.09707031 124.40258789 24.30688477 C125.07243416 21.42772097 125.73424578 18.54695216 126.38891602 15.66430664 C120.84247078 15.66430664 115.82302449 17.05104414 110.45141602 18.35180664 Z M-109.61108398 46.66430664 C-131.02937745 100.21004031 -111.61108398 161.99378654 -111.61108398 219.66430664 C-0.73108398 219.66430664 110.14891602 219.66430664 224.38891602 219.66430664 C235.86003779 129.60224016 235.86003779 129.60224016 221.38891602 45.66430664 C217.36859063 43.16964219 213.07576963 43.39196809 208.47753906 43.43725586 C207.69652328 43.43696381 206.91550751 43.43667175 206.11082458 43.43637085 C203.54064656 43.43775928 200.97076187 43.45329743 198.40063477 43.46899414 C196.61416278 43.472726 194.82768875 43.47557216 193.04121399 43.47756958 C188.34762892 43.4851924 183.65416834 43.50482928 178.96063232 43.52697754 C174.16786381 43.54746509 169.37507511 43.55657752 164.58227539 43.56665039 C155.18443434 43.58807644 145.78668555 43.62219608 136.38891602 43.66430664 C136.20801926 44.34471512 136.0271225 45.0251236 135.84074402 45.72615051 C135.59004654 46.62202377 135.33934906 47.51789703 135.08105469 48.44091797 C134.83828293 49.32757645 134.59551117 50.21423492 134.34538269 51.12776184 C132.79330239 55.24387099 130.01821918 57.59100949 126.70141602 60.35180664 C126.07074219 60.90578125 125.44006836 61.45975586 124.7902832 62.03051758 C123.00479461 63.59362416 121.19956022 65.13050307 119.38891602 66.66430664 C117.97073541 67.91258874 116.55371594 69.16219418 115.13891602 70.41430664 C114.53950195 70.9312207 113.94008789 71.44813477 113.32250977 71.98071289 C110.09842915 74.78794268 106.94586239 77.67470921 103.78344727 80.55102539 C101.37902992 82.67303156 98.90880505 84.68151652 96.38891602 86.66430664 C97.68495013 89.49299521 99.08081199 91.63440874 101.20922852 93.89868164 C101.74418945 94.47231445 102.27915039 95.04594727 102.83032227 95.63696289 C103.3859082 96.22348633 103.94149414 96.81000977 104.51391602 97.41430664 C105.07723633 98.01629883 105.64055664 98.61829102 106.22094727 99.23852539 C107.60615747 100.71764815 108.99698892 102.19150305 110.38891602 103.66430664 C110.89680664 103.23118164 111.40469727 102.79805664 111.92797852 102.35180664 C117.50330716 97.84142841 117.50330716 97.84142841 121.51391602 97.03930664 C127.22588039 98.28103803 131.28945065 102.31370113 135.31469727 106.35961914 C136.19319336 107.24004883 137.07168945 108.12047852 137.97680664 109.02758789 C138.87592773 109.93895508 139.77504883 110.85032227 140.70141602 111.78930664 C142.07910156 113.16795898 142.07910156 113.16795898 143.48461914 114.57446289 C151.83083017 122.97619195 151.83083017 122.97619195 151.82421875 129.4362793 C151.27698786 132.23719299 150.13277421 133.71734118 148.36157227 135.93774414 C147.5321814 136.99227783 147.5321814 136.99227783 146.68603516 138.06811523 C146.25798584 138.5948584 145.82993652 139.12160156 145.38891602 139.66430664 C146.65336548 140.92090088 146.65336548 140.92090088 147.94335938 142.20288086 C151.06371997 145.30517112 154.18079424 148.41074537 157.296875 151.51733398 C158.64721377 152.8626372 159.99844777 154.20704245 161.35058594 155.55053711 C163.29149428 157.47934592 165.22918336 159.41133795 167.16625977 161.34399414 C167.7735643 161.94613739 168.38086884 162.54828064 169.00657654 163.16867065 C174.17672683 168.33812424 174.17672683 168.33812424 174.88891602 172.78930664 C174.36340687 176.86200253 174.02509117 177.48770876 171.40844727 180.34790039 C170.77310059 181.04399414 170.13775391 181.74008789 169.4831543 182.45727539 C165.90350666 186.22971822 162.26323322 189.93417495 158.57641602 193.60180664 C157.81393555 194.3681543 157.05145508 195.13450195 156.26586914 195.92407227 C155.5369043 196.65174805 154.80793945 197.37942383 154.05688477 198.12915039 C153.39970459 198.78520264 152.74252441 199.44125488 152.06542969 200.1171875 C149.16025613 202.79813767 146.51781874 203.19696013 142.57397461 203.12353516 C139.90560637 202.56273061 138.80250035 201.65656938 136.80297852 199.81665039 C136.11155762 199.18162598 135.42013672 198.54660156 134.70776367 197.89233398 C130.20513328 193.56605425 125.78404936 189.16186834 121.38891602 184.72680664 C120.41389215 183.74675354 119.43863322 182.76693424 118.46313477 181.78735352 C116.10274984 179.41528351 113.74474697 177.04089804 111.38891602 174.66430664 C108.43383646 176.00732362 108.43383646 176.00732362 106.13891602 178.22680664 C103.80748422 180.14191133 101.5222968 180.71699338 98.54248047 180.97949219 C95.78476857 180.57588647 94.77066446 179.64087552 92.74438477 177.74633789 C92.0523999 177.10664063 91.36041504 176.46694336 90.64746094 175.80786133 C89.90214111 175.10048828 89.15682129 174.39311523 88.38891602 173.66430664 C87.58881104 172.92857422 86.78870605 172.1928418 85.96435547 171.43481445 C83.4066579 169.06422912 80.89584181 166.65093842 78.38891602 164.22680664 C77.51879883 163.41920898 76.64868164 162.61161133 75.75219727 161.77954102 C68.83199537 155.03859081 68.83199537 155.03859081 68.67016602 150.28540039 C69.63049332 145.44722968 70.98336291 144.06985975 74.38891602 140.66430664 C72.32948565 136.08398904 69.18917485 133.24965264 65.57641602 129.85180664 C64.95959961 129.24143555 64.3427832 128.63106445 63.70727539 128.00219727 C62.79751953 127.14464844 62.79751953 127.14464844 61.86938477 126.26977539 C61.3217749 125.74536865 60.77416504 125.22096191 60.20996094 124.68066406 C58.37416775 123.44286609 58.37416775 123.44286609 55.90698242 123.80395508 C53.12639885 124.75400128 51.72312459 125.79389662 49.61938477 127.82446289 C48.62841797 128.76708984 48.62841797 128.76708984 47.61743164 129.72875977 C46.94389648 130.38811523 46.27036133 131.0474707 45.57641602 131.72680664 C44.53710938 132.72164062 44.53710938 132.72164062 43.47680664 133.73657227 C41.77223922 135.37060587 40.07689352 137.01316929 38.38891602 138.66430664 C39.44766662 140.89228617 40.32451383 142.59495044 42.01391602 144.41430664 C44.03831453 147.72695875 44.04737298 150.93166885 43.38891602 154.66430664 C41.69167474 157.14138711 40.28710303 158.84909083 38.16625977 160.87915039 C37.62796036 161.42036026 37.08966095 161.96157013 36.53504944 162.5191803 C35.39706994 163.65385342 34.24922297 164.77870654 33.09228516 165.89404297 C31.33105177 167.59732342 29.61023362 169.33489564 27.89086914 171.08032227 C26.77654331 172.1821718 25.66007366 173.28185831 24.54125977 174.37915039 C24.03054428 174.89573715 23.5198288 175.41232391 22.99363708 175.94456482 C19.29512892 179.45541918 16.46585419 180.52291401 11.38891602 180.66430664 C8.12676561 179.181511 5.78440024 177.3119471 3.38891602 174.66430664 C-0.69398495 176.27982111 -3.39542234 179.2107036 -6.40014648 182.29321289 C-6.94464447 182.84291245 -7.48914246 183.392612 -8.05014038 183.95896912 C-9.78362177 185.71021841 -11.51024949 187.46802353 -13.23608398 189.22680664 C-14.96992551 190.98826475 -16.70520581 192.74824287 -18.44345093 194.50535583 C-19.52355766 195.59772169 -20.60098001 196.6927496 -21.67544556 197.79066467 C-24.99352338 201.15319787 -26.49216162 202.50997252 -31.23608398 203.16430664 C-34.96420866 203.10882487 -36.60706737 202.19479595 -39.32592773 199.68383789 C-40.01750977 199.04849121 -40.7090918 198.41314453 -41.42163086 197.75854492 C-45.17642218 194.1670418 -48.88410878 190.53545085 -52.54858398 186.85180664 C-53.69810547 185.70808594 -53.69810547 185.70808594 -54.87084961 184.54125977 C-55.59852539 183.81229492 -56.32620117 183.08333008 -57.07592773 182.33227539 C-57.73197998 181.67509521 -58.38803223 181.01791504 -59.06396484 180.34082031 C-61.22255859 178.00169088 -61.59945716 176.73697427 -62.11108398 173.53930664 C-60.91533284 164.27223526 -49.67330774 156.60833349 -43.17358398 150.16430664 C-42.14535418 149.14110525 -41.11735773 148.11766932 -40.08959961 147.09399414 C-37.5994406 144.61472665 -35.10615565 142.13863126 -32.61108398 139.66430664 C-33.03478271 139.13321289 -33.45848145 138.60211914 -33.89501953 138.05493164 C-34.71933472 136.99532227 -34.71933472 136.99532227 -35.56030273 135.91430664 C-36.10775146 135.21821289 -36.6552002 134.52211914 -37.21923828 133.80493164 C-39.06125366 130.97195658 -39.53277291 128.99486555 -39.25805664 125.6472168 C-38.45588617 123.18863997 -37.31377853 121.84599631 -35.57202148 119.93774414 C-34.93917236 119.24261719 -34.30632324 118.54749023 -33.65429688 117.83129883 C-30.29309787 114.26647598 -26.88645684 110.75543102 -23.42358398 107.28930664 C-22.72555664 106.5790332 -22.0275293 105.86875977 -21.30834961 105.13696289 C-20.29224609 104.11795898 -20.29224609 104.11795898 -19.25561523 103.07836914 C-18.65080322 102.46944824 -18.04599121 101.86052734 -17.42285156 101.2331543 C-14.71094834 98.88486026 -12.38223116 97.80451522 -8.86108398 97.16430664 C-5.61108398 97.66430664 -5.61108398 97.66430664 2.38891602 103.66430664 C9.31891602 96.23930664 9.31891602 96.23930664 16.38891602 88.66430664 C14.42705553 84.74058568 12.99435215 83.16718674 9.76391602 80.35180664 C8.86415039 79.56161133 7.96438477 78.77141602 7.03735352 77.95727539 C6.16336914 77.2005957 5.28938477 76.44391602 4.38891602 75.66430664 C3.05527331 74.49799364 1.72191225 73.33135845 0.38891602 72.16430664 C-0.24916992 71.6087207 -0.88725586 71.05313477 -1.54467773 70.48071289 C-4.80112417 67.61824107 -8.01212809 64.70627556 -11.21264648 61.78149414 C-13.50862767 59.69599954 -13.50862767 59.69599954 -15.69702148 58.10961914 C-19.51157881 55.26077253 -21.03638873 53.125351 -22.30249023 48.47290039 C-22.55329346 47.57240967 -22.80409668 46.67191895 -23.0625 45.74414062 C-23.24353271 45.05779541 -23.42456543 44.3714502 -23.61108398 43.66430664 C-33.93812078 43.59473899 -44.26510165 43.54146096 -54.59232521 43.50887012 C-59.38788771 43.49322667 -64.18328966 43.47201248 -68.97875977 43.43798828 C-73.60827585 43.40534779 -78.23763769 43.38744369 -82.86725998 43.37967491 C-84.63187462 43.37413983 -86.39648099 43.3633311 -88.16102982 43.34711647 C-90.63626476 43.32527969 -93.11086558 43.3223423 -95.58618164 43.32373047 C-96.67591278 43.30755173 -96.67591278 43.30755173 -97.78765869 43.29104614 C-102.45471452 43.31929308 -105.73746098 44.01950509 -109.61108398 46.66430664 Z M240.38891602 75.66430664 C240.38891602 113.94430664 240.38891602 152.22430664 240.38891602 191.66430664 C243.02891602 190.67430664 245.66891602 189.68430664 248.38891602 188.66430664 C257.33953569 187.6854704 265.57816701 187.84347876 273.38891602 192.66430664 C274.44079102 193.22118164 275.49266602 193.77805664 276.57641602 194.35180664 C282.32680709 199.07990596 285.05948084 204.67600111 287.38891602 211.66430664 C303.55891602 211.66430664 319.72891602 211.66430664 336.38891602 211.66430664 C336.38891602 166.78430664 336.38891602 121.90430664 336.38891602 75.66430664 C304.70891602 75.66430664 273.02891602 75.66430664 240.38891602 75.66430664 Z M25.54125977 102.36743164 C24.46121653 103.5420286 23.3899183 104.72471247 22.32641602 105.91430664 C21.51333984 106.7940918 21.51333984 106.7940918 20.68383789 107.69165039 C17.97077463 110.67635534 16.23263171 112.97687526 14.38891602 116.66430664 C17.68891602 119.96430664 20.98891602 123.26430664 24.38891602 126.66430664 C28.75384214 124.48184358 31.95730676 121.87338528 35.63891602 118.72680664 C36.28860352 118.18862305 36.93829102 117.65043945 37.60766602 117.09594727 C38.22125977 116.57323242 38.83485352 116.05051758 39.46704102 115.51196289 C40.02810547 115.03766846 40.58916992 114.56337402 41.16723633 114.07470703 C42.71627916 112.59736354 42.71627916 112.59736354 42.38891602 109.66430664 C40.6629141 107.80350662 38.96876958 106.14961855 37.07641602 104.47680664 C36.5769043 104.01338867 36.07739258 103.5499707 35.56274414 103.07250977 C31.45218261 99.37572661 29.86266394 98.26535799 25.54125977 102.36743164 Z M-11.67749023 119.63305664 C-12.50120117 120.46836914 -13.32491211 121.30368164 -14.17358398 122.16430664 C-14.99987305 122.99961914 -15.82616211 123.83493164 -16.67749023 124.69555664 C-17.63461914 125.67008789 -17.63461914 125.67008789 -18.61108398 126.66430664 C-17.29731482 129.56974536 -15.89051907 131.63091723 -13.63012695 133.87231445 C-13.02965546 134.47263489 -12.42918396 135.07295532 -11.81051636 135.69146729 C-11.16462555 136.32703552 -10.51873474 136.96260376 -9.85327148 137.61743164 C-8.85869431 138.60776398 -8.85869431 138.60776398 -7.84402466 139.61810303 C-5.72936567 141.72158488 -3.60785186 143.81799806 -1.48608398 145.91430664 C-0.04942841 147.34092925 1.38677499 148.76800736 2.82250977 150.19555664 C6.33942406 153.69044325 9.86250149 157.17900726 13.38891602 160.66430664 C14.49443491 159.7284016 15.59827055 158.79050806 16.70141602 157.85180664 C17.62374023 157.06870117 17.62374023 157.06870117 18.56469727 156.26977539 C20.24316281 154.79258195 21.82773636 153.26391533 23.38891602 151.66430664 C22.07700988 148.76652023 20.67241882 146.69879181 18.42382812 144.45629883 C17.82658432 143.85597839 17.22934052 143.25565796 16.61399841 142.637146 C15.97124466 142.00157776 15.32849091 141.36600952 14.66625977 140.71118164 C14.00557999 140.05096008 13.34490021 139.39073853 12.66419983 138.71051025 C11.27036097 137.31968723 9.87409772 135.9312902 8.47558594 134.54516602 C6.32565027 132.41354742 4.18388486 130.27397412 2.04321289 128.13305664 C0.68886741 126.78362419 -0.6659345 125.43464965 -2.02124023 124.08618164 C-2.66601822 123.44251648 -3.3107962 122.79885132 -3.97511292 122.13568115 C-7.57749152 117.50384116 -7.57749152 117.50384116 -11.67749023 119.63305664 Z M120.05381775 118.87915039 C119.4875618 119.44762695 118.92130585 120.01610352 118.33789062 120.60180664 C117.69730209 121.2424707 117.05671356 121.88313477 116.39671326 122.54321289 C115.7019136 123.24317383 115.00711395 123.94313477 114.29125977 124.66430664 C113.22797203 125.7297168 113.22797203 125.7297168 112.14320374 126.81665039 C109.8685958 129.09687812 107.59748005 131.38054975 105.32641602 133.66430664 C103.78953457 135.20620053 102.2524282 136.74787026 100.71508789 138.28930664 C96.93707857 142.07837122 93.16193449 145.87027268 89.38891602 149.66430664 C90.89838113 152.84517182 92.46833427 154.9630057 95.01391602 157.41430664 C95.64555664 158.02790039 96.27719727 158.64149414 96.92797852 159.27368164 C97.41008789 159.73258789 97.89219727 160.19149414 98.38891602 160.66430664 C103.05766139 156.76453943 107.4801941 152.7121602 111.76000977 148.39086914 C112.3272023 147.82226166 112.89439484 147.25365417 113.47877502 146.66781616 C115.26371514 144.87734428 117.04511858 143.0834018 118.82641602 141.28930664 C120.04688541 140.06381341 121.26758655 138.83855092 122.48852539 137.61352539 C125.45800358 134.6331089 128.42431858 131.6495777 131.38891602 128.66430664 C129.88878614 125.51088047 128.33372424 123.36403576 125.82641602 120.91430664 C124.89635742 119.99391602 124.89635742 119.99391602 123.94750977 119.05493164 C121.97985028 117.2204385 121.97985028 117.2204385 120.05381775 118.87915039 Z M-25.41967773 155.20727539 C-26.54019531 156.32392578 -26.54019531 156.32392578 -27.68334961 157.46313477 C-28.46387695 158.25139648 -29.2444043 159.0396582 -30.04858398 159.85180664 C-31.21357422 161.00519531 -31.21357422 161.00519531 -32.40209961 162.18188477 C-33.52455078 163.30820313 -33.52455078 163.30820313 -34.66967773 164.45727539 C-35.35344482 165.14329834 -36.03721191 165.82932129 -36.74169922 166.53613281 C-39.00954469 168.9896237 -39.00954469 168.9896237 -41.61108398 173.66430664 C-38.64108398 176.63430664 -35.67108398 179.60430664 -32.61108398 182.66430664 C-28.92354555 180.82053742 -27.11039475 179.39932184 -24.28295898 176.53149414 C-23.48374023 175.72583008 -22.68452148 174.92016602 -21.86108398 174.09008789 C-21.03608398 173.24833008 -20.21108398 172.40657227 -19.36108398 171.53930664 C-18.52061523 170.68981445 -17.68014648 169.84032227 -16.81420898 168.96508789 C-14.74192716 166.86925741 -12.67446006 164.76889951 -10.61108398 162.66430664 C-12.10187172 159.53819946 -13.64211348 157.36235367 -16.11108398 154.91430664 C-16.71952148 154.30071289 -17.32795898 153.68711914 -17.95483398 153.05493164 C-21.32875873 150.22210804 -22.76386235 152.56023645 -25.41967773 155.20727539 Z M130.22485352 153.63305664 C129.41274414 154.46836914 128.60063477 155.30368164 127.76391602 156.16430664 C126.53801758 157.41727539 126.53801758 157.41727539 125.28735352 158.69555664 C124.66086914 159.34524414 124.03438477 159.99493164 123.38891602 160.66430664 C124.87545108 164.13060499 126.84613953 166.354527 129.52172852 168.99243164 C130.32739258 169.79165039 131.13305664 170.59086914 131.96313477 171.41430664 C132.80489258 172.23930664 133.64665039 173.06430664 134.51391602 173.91430664 C135.7881543 175.17500977 135.7881543 175.17500977 137.08813477 176.46118164 C139.18396525 178.53346347 141.28432315 180.60093057 143.38891602 182.66430664 C146.5697812 181.15484153 148.68761507 179.58488839 151.13891602 177.03930664 C151.75250977 176.40766602 152.36610352 175.77602539 152.99829102 175.12524414 C153.45719727 174.64313477 153.91610352 174.16102539 154.38891602 173.66430664 C150.49466999 167.93747426 146.00728812 163.06241682 141.13891602 158.16430664 C140.51227051 157.5286377 139.885625 156.89296875 139.23999023 156.23803711 C138.64460449 155.64651855 138.04921875 155.055 137.43579102 154.44555664 C136.89792969 153.90995117 136.36006836 153.3743457 135.8059082 152.82250977 C133.29164191 150.76743063 132.55115171 151.51671316 130.22485352 153.63305664 Z M243.01391602 211.28930664 C240.80983709 215.86700903 240.59175211 219.66983075 241.38891602 224.66430664 C243.71860532 229.50289212 246.55033053 232.33461733 251.38891602 234.66430664 C256.38339191 235.46147055 260.18621362 235.24338557 264.76391602 233.03930664 C268.34799315 229.79657019 270.98426842 227.19954768 271.77172852 222.26586914 C272.0277552 216.5820767 271.32518533 213.01492009 267.38891602 208.66430664 C263.03830256 204.72803733 259.47114596 204.02546745 253.78735352 204.28149414 C248.85367498 205.06895423 246.25665247 207.70522951 243.01391602 211.28930664 Z M287.38891602 227.66430664 C286.06891602 230.63430664 284.74891602 233.60430664 283.38891602 236.66430664 C279.89397706 243.265858 274.39890696 247.01214557 267.59204102 249.81665039 C263.85955286 250.80439421 260.34597804 250.99505456 256.51391602 250.97680664 C255.84489258 250.99291992 255.17586914 251.0090332 254.48657227 251.02563477 C248.80783931 251.03110561 246.15036868 249.82485139 240.38891602 247.66430664 C240.05891602 254.26430664 239.72891602 260.86430664 239.38891602 267.66430664 C271.39891602 267.66430664 303.40891602 267.66430664 336.38891602 267.66430664 C336.38891602 254.46430664 336.38891602 241.26430664 336.38891602 227.66430664 C320.21891602 227.66430664 304.04891602 227.66430664 287.38891602 227.66430664 Z M-111.61108398 235.66430664 C-113.39993837 257.20463187 -113.39993837 257.20463187 -108.61108398 265.66430664 C-105.10685761 267.70155713 -102.01772943 267.91519415 -98.01504612 267.91878223 C-96.33363367 267.92753052 -96.33363367 267.92753052 -94.61825329 267.93645555 C-93.39180676 267.93267622 -92.16536023 267.9288969 -90.90174866 267.92500305 C-88.94158543 267.93074137 -88.94158543 267.93074137 -86.94182295 267.93659562 C-83.31616959 267.94689098 -79.69061495 267.94468991 -76.06495345 267.94041502 C-72.15417703 267.9379506 -68.24342455 267.94695841 -64.33265686 267.95445251 C-56.67178451 267.96720926 -49.0109472 267.96899201 -41.35006601 267.96665225 C-35.12406894 267.96487009 -28.89808251 267.96661654 -22.67208672 267.97087669 C-21.78638091 267.97147188 -20.9006751 267.97206707 -19.98812972 267.9726803 C-18.18889177 267.97389203 -16.38965383 267.97510617 -14.59041589 267.97632267 C2.2870377 267.98720189 19.16447132 267.98503386 36.04192603 267.97893783 C51.48611165 267.97376784 66.9302342 267.98502559 82.37440734 268.00403605 C98.22867457 268.02340185 114.08291194 268.03167269 129.93719107 268.0279128 C138.83970404 268.0259989 147.74216333 268.02850665 156.64466667 268.04262733 C164.22307528 268.05452606 171.80139716 268.05596298 179.37980693 268.04383717 C183.24687522 268.03793796 187.11378476 268.03687769 190.98084259 268.04883957 C195.17155395 268.06165205 199.36188556 268.05125881 203.55259705 268.03852844 C205.38892076 268.04958987 205.38892076 268.04958987 207.26234192 268.06087476 C215.31449525 268.13389588 215.31449525 268.13389588 222.38891602 264.66430664 C225.87447872 256.84792734 225.87447872 256.84792734 224.38891602 235.66430664 C113.50891602 235.66430664 2.62891602 235.66430664 -111.61108398 235.66430664 Z M24.38891602 283.66430664 C24.38891602 294.22430664 24.38891602 304.78430664 24.38891602 315.66430664 C45.50891602 315.66430664 66.62891602 315.66430664 88.38891602 315.66430664 C88.38891602 305.10430664 88.38891602 294.54430664 88.38891602 283.66430664 C67.26891602 283.66430664 46.14891602 283.66430664 24.38891602 283.66430664 Z M176.38891602 283.66430664 C176.38891602 304.78430664 176.38891602 325.90430664 176.38891602 347.66430664 C229.18891602 347.66430664 281.98891602 347.66430664 336.38891602 347.66430664 C336.38891602 326.54430664 336.38891602 305.42430664 336.38891602 283.66430664 C283.58891602 283.66430664 230.78891602 283.66430664 176.38891602 283.66430664 Z M-15.61108398 331.66430664 C-15.61108398 336.94430664 -15.61108398 342.22430664 -15.61108398 347.66430664 C31.90891602 347.66430664 79.42891602 347.66430664 128.38891602 347.66430664 C128.38891602 342.38430664 128.38891602 337.10430664 128.38891602 331.66430664 C80.86891602 331.66430664 33.34891602 331.66430664 -15.61108398 331.66430664 Z " fill="#00ff00" transform="translate(143.611083984375,20.335693359375)"/>
<path d="M0 0 C1.14413896 -0.00779995 2.28827791 -0.01559991 3.46708775 -0.02363622 C7.30968265 -0.04361618 11.15129382 -0.02776682 14.99389648 -0.01205444 C17.74512787 -0.01607676 20.49631718 -0.02754818 23.24752808 -0.03860474 C29.9496176 -0.06084595 36.65142726 -0.05603217 43.35352778 -0.04154153 C48.80009048 -0.0302527 54.24657471 -0.02871683 59.69314575 -0.03416061 C60.46812584 -0.03492678 61.24310592 -0.03569294 62.04157025 -0.03648233 C63.61589394 -0.03808094 65.19021762 -0.03970201 66.76454127 -0.04134528 C81.52938248 -0.05560536 96.2940685 -0.03920605 111.05888426 -0.01234345 C123.7296822 0.00999561 136.40025112 0.00611555 149.07104492 -0.01693726 C163.78279231 -0.04369074 178.49440367 -0.05423204 193.20617199 -0.03887594 C194.77472621 -0.03728318 196.34328045 -0.03571133 197.91183472 -0.03416061 C199.06949328 -0.03300355 199.06949328 -0.03300355 200.25053889 -0.03182311 C205.69099507 -0.02750474 211.13136503 -0.03479558 216.57180786 -0.04655838 C223.20134552 -0.06057695 229.83058716 -0.05679729 236.46009088 -0.03015466 C239.84322106 -0.01700696 243.22544844 -0.01456658 246.60863876 -0.02840042 C250.27458252 -0.04201108 253.93912654 -0.02499127 257.60498047 0 C258.67647119 -0.01115361 259.7479619 -0.02230722 260.85192204 -0.03379881 C268.06955761 0.06201333 268.06955761 0.06201333 271.86854553 3.03153419 C272.50674728 3.89065092 273.14494904 4.74976765 273.80249023 5.63491821 C274.86209961 6.76800415 274.86209961 6.76800415 275.94311523 7.92398071 C280.59287762 13.07316202 285.06112197 18.33048284 289.42358398 23.72476196 C291.08514816 25.75738152 292.757532 27.7686869 294.46264648 29.76382446 C294.92429199 30.30418335 295.3859375 30.84454224 295.86157227 31.40127563 C297.15068045 32.90569183 298.44325468 34.40713608 299.73608398 35.90835571 C300.18435547 36.46692261 300.63262695 37.0254895 301.09448242 37.60098267 C302.88095063 39.78236779 302.88095063 39.78236779 305.34643555 42.22158813 C312.8015346 50.21503582 314.07739937 57.02290125 313.87670898 67.80093384 C313.82716064 69.12991699 313.82716064 69.12991699 313.77661133 70.48574829 C313.67646574 73.22544541 313.65356213 75.95799596 313.64233398 78.69937134 C313.61420141 80.45009898 313.58180671 82.20076451 313.54467773 83.95132446 C313.53395233 84.76484879 313.52322693 85.57837311 313.51217651 86.41654968 C313.3698896 89.79215551 313.20070679 92.10290701 311.14564514 94.84843779 C308.13875203 97.14096897 306.45867098 97.13604275 302.69921875 97.13828278 C301.43969894 97.14871377 300.18017914 97.15914475 298.88249207 97.16989183 C297.48212457 97.16124332 296.08175938 97.15221668 294.68139648 97.14285278 C293.19586068 97.14746016 291.71032942 97.15381197 290.22480774 97.16176176 C286.13687748 97.17850094 282.04931945 97.17018808 277.96138763 97.15781689 C273.55504296 97.14878739 269.14876347 97.16272566 264.74243164 97.17373657 C256.10815562 97.1915489 247.47401846 97.18766976 238.83973694 97.17608601 C231.8242173 97.16706261 224.80873666 97.16582294 217.79321289 97.17018127 C216.7957797 97.17079421 215.7983465 97.17140714 214.77068806 97.17203864 C212.74459711 97.17331751 210.71850617 97.17461436 208.69241524 97.17592901 C189.68138375 97.18734276 170.67042933 97.17420865 151.65941048 97.15272754 C135.33727345 97.13485585 119.01525021 97.13795973 102.69311523 97.15640259 C83.7514 97.17779528 64.80975236 97.18624405 45.86802673 97.17395353 C43.84927369 97.1726793 41.83052064 97.17142182 39.81176758 97.17018127 C38.32176223 97.16925562 38.32176223 97.16925562 36.80165577 97.16831127 C29.79231459 97.16485356 22.78301619 97.17069577 15.77368164 97.18009949 C7.23483912 97.19130307 -1.30385628 97.18831406 -9.84268188 97.16697651 C-14.20166118 97.15644393 -18.56039493 97.15238166 -22.91937256 97.16557312 C-26.90663925 97.17745743 -30.89343186 97.17100059 -34.88065529 97.14966291 C-36.3260838 97.14517993 -37.77155204 97.14750099 -39.21695518 97.15716606 C-41.1760223 97.16926505 -43.13520099 97.15450697 -45.09423828 97.13828278 C-46.72909935 97.13730866 -46.72909935 97.13730866 -48.39698792 97.13631487 C-51.86405294 96.51558241 -53.04123947 95.36202653 -55.19750977 92.63491821 C-55.73236084 90.70263672 -55.73236084 90.70263672 -55.77856445 88.66763306 C-55.80408386 87.89938202 -55.82960327 87.13113098 -55.855896 86.33959961 C-55.86034729 85.51666412 -55.86479858 84.69372864 -55.86938477 83.84585571 C-55.88269836 82.98739044 -55.89601196 82.12892517 -55.909729 81.2444458 C-55.92996183 79.42726183 -55.93936365 77.60992955 -55.9387207 75.79263306 C-55.94742019 73.03827848 -56.0198945 70.29047093 -56.09594727 67.53726196 C-56.28650184 52.79189541 -56.28650184 52.79189541 -51.49047852 46.76382446 C-50.09232227 45.35417992 -48.6637296 43.9736258 -47.19750977 42.63491821 C-46.22233741 41.50580375 -45.26290583 40.36272337 -44.32641602 39.20132446 C-43.47950195 38.2100354 -42.63258789 37.21874634 -41.76000977 36.19741821 C-38.3643031 32.209109 -35.00371557 28.19818008 -31.69750977 24.13491821 C-28.31248023 19.98277767 -24.8965841 15.85888542 -21.44750977 11.75991821 C-20.99956055 11.22431274 -20.55161133 10.68870728 -20.09008789 10.13687134 C-18.81019229 8.62115545 -17.50414228 7.12764687 -16.19750977 5.63491821 C-15.55028458 4.76226633 -14.90305939 3.88961445 -14.23622131 2.99051857 C-9.68467458 -0.53782723 -5.61154591 -0.058413 0 0 Z M-14.19750977 29.63491821 C-15.73626338 31.63821206 -17.36106913 33.53093671 -19.01000977 35.44741821 C-22.55215623 39.75691556 -25.8390684 44.1569964 -29.19750977 48.63491821 C75.08249023 48.63491821 179.36249023 48.63491821 286.80249023 48.63491821 C282.78680096 43.28066585 278.78297135 38.18682682 274.36499023 33.19741821 C273.28054048 31.97168912 272.1985274 30.74380014 271.11889648 29.51382446 C270.60068683 28.93188092 270.08247717 28.34993737 269.5485642 27.75035918 C267.80249023 25.63491821 267.80249023 25.63491821 266.32671618 23.32849348 C263.22139123 18.57429344 263.22139123 18.57429344 258.44253778 15.79400563 C255.59941881 15.462046 252.87448651 15.41546118 250.01226807 15.46514893 C248.93599049 15.44828675 247.85971292 15.43142457 246.75082088 15.41405141 C243.14885652 15.36883054 239.55015336 15.38784568 235.94799805 15.40689087 C233.36383182 15.3881441 230.77969059 15.36562981 228.19558716 15.33963013 C221.90738462 15.28424472 215.62005868 15.27797319 209.33165935 15.29024382 C204.21788458 15.2996448 199.10437301 15.29292616 193.99062347 15.27482224 C193.26205249 15.27228825 192.5334815 15.26975426 191.78283261 15.26714348 C190.30257834 15.26197657 188.82232412 15.25679582 187.34206995 15.25160138 C173.46586586 15.20526442 159.59015929 15.21716542 145.71394071 15.24694113 C133.03391024 15.27236674 120.35535363 15.22570803 107.67559472 15.14471228 C94.64274316 15.06209912 81.61058475 15.02782749 68.57747149 15.04573476 C61.26560207 15.05495059 53.95494731 15.04538248 46.64328766 14.98534012 C39.76406754 14.9294568 32.88779263 14.94195323 26.00860214 14.99987793 C23.48794676 15.01065203 20.96708332 14.99937662 18.44665146 14.96412277 C2.54029896 14.75800914 -5.85704798 15.53484688 -14.19750977 29.63491821 Z M-39.19750977 64.63491821 C-39.19750977 69.91491821 -39.19750977 75.19491821 -39.19750977 80.63491821 C71.68249023 80.63491821 182.56249023 80.63491821 296.80249023 80.63491821 C296.80249023 75.35491821 296.80249023 70.07491821 296.80249023 64.63491821 C185.92249023 64.63491821 75.04249023 64.63491821 -39.19750977 64.63491821 Z " fill="#00ff00" transform="translate(71.197509765625,399.3650817871094)"/>
<path d="M0 0 C1.21508743 -0.0127597 2.43017487 -0.02551941 3.68208313 -0.03866577 C5.63999031 -0.04200424 5.63999031 -0.04200424 7.63745117 -0.04541016 C9.00119667 -0.0518443 10.36494081 -0.05857312 11.72868347 -0.06558228 C14.58412879 -0.07753628 17.43945331 -0.08126513 20.29492188 -0.08007812 C23.93645103 -0.07987523 27.57719721 -0.10715436 31.21854115 -0.14162254 C34.03516629 -0.1639699 36.85160548 -0.16791327 39.66831017 -0.16685867 C41.65790472 -0.17033666 43.64744123 -0.19195224 45.63691711 -0.21395874 C53.98291764 -0.17202059 59.65674408 0.60024607 66.11010742 6.25537109 C66.64893555 6.90634766 67.18776367 7.55732422 67.74291992 8.22802734 C68.2972168 8.87642578 68.85151367 9.52482422 69.42260742 10.19287109 C73.17010785 15.63181091 73.18807363 20.6461038 73.20385742 27.04443359 C73.21384262 28.45123634 73.21384262 28.45123634 73.22402954 29.88645935 C73.23413191 31.86414636 73.23884731 33.84186729 73.23852539 35.81958008 C73.24291013 38.84627046 73.27928674 41.87151549 73.31713867 44.89794922 C73.32300499 46.82177237 73.32697562 48.74560242 73.32885742 50.66943359 C73.34322845 51.57367569 73.35759949 52.47791779 73.37240601 53.40956116 C73.36625275 54.25401291 73.36009949 55.09846466 73.35375977 55.96850586 C73.3566098 56.70843277 73.35945984 57.44835968 73.36239624 58.21070862 C72.61435071 61.35706576 71.51003504 62.42733364 68.86791992 64.29052734 C65.92006722 64.68508521 63.34614709 64.83785049 60.39916992 64.80810547 C59.54669678 64.81511475 58.69422363 64.82212402 57.81591797 64.8293457 C54.99958673 64.84694303 52.18426129 64.83529694 49.36791992 64.82177734 C47.41023567 64.82447176 45.45255272 64.82835376 43.49487305 64.83337402 C39.39252986 64.83927142 35.29053511 64.83069827 31.18823242 64.81201172 C25.92871364 64.7892221 20.67001129 64.80234388 15.41052246 64.82630157 C11.36818282 64.84075297 7.32603687 64.83615657 3.28369141 64.82579041 C1.34440006 64.8231213 -0.59490885 64.82639932 -2.53417969 64.83570862 C-5.24437058 64.84586336 -7.95323783 64.83038862 -10.66333008 64.80810547 C-11.86662964 64.82025085 -11.86662964 64.82025085 -13.09423828 64.8326416 C-16.59853497 64.77923989 -18.73226312 64.57317477 -21.62902832 62.52532959 C-23.27122693 60.0836378 -23.63699761 58.92380221 -23.6496582 56.01611328 C-23.66226685 55.1813446 -23.67487549 54.34657593 -23.68786621 53.48651123 C-23.67976929 52.5916803 -23.67167236 51.69684937 -23.66333008 50.77490234 C-23.66715698 49.84510559 -23.67098389 48.91530884 -23.67492676 47.95733643 C-23.67764684 45.99042682 -23.6702789 44.0234811 -23.65356445 42.05664062 C-23.63225267 39.06475748 -23.65331243 36.0753022 -23.67895508 33.08349609 C-23.67630993 31.16812626 -23.67118108 29.25275792 -23.66333008 27.33740234 C-23.671427 26.45066833 -23.67952393 25.56393433 -23.68786621 24.65032959 C-23.5836139 17.64394171 -21.81948731 12.35727038 -17.16723633 7.04833984 C-16.51625977 6.50951172 -15.8652832 5.97068359 -15.19458008 5.41552734 C-14.54618164 4.86123047 -13.8977832 4.30693359 -13.22973633 3.73583984 C-8.92658485 0.77091238 -5.1799099 0.03703797 0 0 Z M-5.13208008 19.29052734 C-8.61764278 27.10690664 -8.61764278 27.10690664 -7.13208008 48.29052734 C13.98791992 48.29052734 35.10791992 48.29052734 56.86791992 48.29052734 C58.6567743 26.75020212 58.6567743 26.75020212 53.86791992 18.29052734 C50.57801325 16.41561028 47.73543408 16.03682821 43.98925781 16.01586914 C43.04800552 16.00633713 42.10675323 15.99680511 41.13697815 15.98698425 C40.1316655 15.98789566 39.12635284 15.98880707 38.09057617 15.98974609 C36.52441811 15.98331841 36.52441811 15.98331841 34.92662048 15.97676086 C32.72192102 15.97102651 30.51720264 15.9705107 28.3125 15.97485352 C24.9458783 15.97801284 21.58013614 15.95454465 18.21362305 15.92919922 C16.06844186 15.92692603 13.92325832 15.92622282 11.77807617 15.92724609 C10.77478775 15.91803635 9.77149933 15.9088266 8.73780823 15.89933777 C3.44658196 15.93423589 -0.70393947 16.04652826 -5.13208008 19.29052734 Z " fill="#00ff00" transform="translate(423.132080078125,431.70947265625)"/>
<path d="M0 0 C42.24 0 84.48 0 128 0 C128 5.28 128 10.56 128 16 C85.76 16 43.52 16 0 16 C0 10.72 0 5.44 0 0 Z " fill="#00ff00" transform="translate(136,424)"/>
<path d="M0 0 C5.28 0 10.56 0 16 0 C16 10.56 16 21.12 16 32 C10.72 32 5.44 32 0 32 C0 21.44 0 10.88 0 0 Z " fill="#00ff00" transform="translate(448,128)"/>
<path d="M0 0 C5.28 0 10.56 0 16 0 C16 10.56 16 21.12 16 32 C10.72 32 5.44 32 0 32 C0 21.44 0 10.88 0 0 Z " fill="#00ff00" transform="translate(416,128)"/>
<path d="M0 0 C5.28 0 10.56 0 16 0 C16 5.28 16 10.56 16 16 C10.72 16 5.44 16 0 16 C0 10.72 0 5.44 0 0 Z " fill="#00ff00" transform="translate(312,424)"/>
<path d="M0 0 C5.28 0 10.56 0 16 0 C16 5.28 16 10.56 16 16 C10.72 16 5.44 16 0 16 C0 10.72 0 5.44 0 0 Z " fill="#00ff00" transform="translate(280,424)"/>
<path d="M0 0 C5.28 0 10.56 0 16 0 C16 5.28 16 10.56 16 16 C10.72 16 5.44 16 0 16 C0 10.72 0 5.44 0 0 Z " fill="#00ff00" transform="translate(104,424)"/>
<path d="M0 0 C5.28 0 10.56 0 16 0 C16 5.28 16 10.56 16 16 C10.72 16 5.44 16 0 16 C0 10.72 0 5.44 0 0 Z " fill="#00ff00" transform="translate(72,424)"/>
<path d="M0 0 C5.28 0 10.56 0 16 0 C16 5.28 16 10.56 16 16 C10.72 16 5.44 16 0 16 C0 10.72 0 5.44 0 0 Z " fill="#00ff00" transform="translate(320,264)"/>
</svg>