<svg version="1.1" xmlns="http://www.w3.org/2000/svg" width="512px" height="512px" transform="rotate(0) scale(1, 1)">
<path d="M0 0 C0.96164063 0.49113281 1.92328125 0.98226563 2.9140625 1.48828125 C11.09013666 5.91434723 17.47207283 11.48157491 24 18 C24.66902344 18.65742187 25.33804688 19.31484375 26.02734375 19.9921875 C44.10986441 39.09979437 47.63276448 63.89060743 47 89 C47.98742187 88.6390625 48.97484375 88.278125 49.9921875 87.90625 C51.28639791 87.43733319 52.58067206 86.96859231 53.875 86.5 C54.85146484 86.14228516 54.85146484 86.14228516 55.84765625 85.77734375 C60.7734375 84 60.7734375 84 63 84 C63.12906738 83.27385498 63.25813477 82.54770996 63.39111328 81.79956055 C64.37432076 77.27893499 66.16680075 73.10136585 67.875 68.8125 C68.22691406 67.89791016 68.57882813 66.98332031 68.94140625 66.04101562 C69.28816406 65.16767578 69.63492188 64.29433594 69.9921875 63.39453125 C70.46180908 62.20114136 70.46180908 62.20114136 70.94091797 60.98364258 C72 59 72 59 75 57 C77.27000427 56.72584534 77.27000427 56.72584534 79.95874023 56.69360352 C80.96666122 56.67761612 81.97458221 56.66162872 83.01304626 56.64515686 C84.10057693 56.63979416 85.1881076 56.63443146 86.30859375 56.62890625 C87.4268605 56.61987778 88.54512726 56.6108493 89.69728088 56.60154724 C92.06354082 56.58703246 94.429841 56.57815497 96.79614258 56.57446289 C100.42011892 56.5625571 104.0423983 56.51337255 107.66601562 56.46289062 C109.96353334 56.45342783 112.26106153 56.44619211 114.55859375 56.44140625 C115.64410019 56.42187393 116.72960663 56.40234161 117.8480072 56.38221741 C125.33860391 56.42724463 125.33860391 56.42724463 128.58129883 59.23535156 C129.86710469 61.74102452 131.10997515 64.17221116 132.140625 66.79296875 C132.48867188 67.67017578 132.83671875 68.54738281 133.1953125 69.45117188 C133.54335938 70.35416016 133.89140625 71.25714844 134.25 72.1875 C134.79527344 73.55938477 134.79527344 73.55938477 135.3515625 74.95898438 C138 81.70453477 138 81.70453477 138 84 C138.6084375 84.13535156 139.216875 84.27070312 139.84375 84.41015625 C149.74973445 86.84294949 159.29354258 90.85661244 168.2265625 95.77734375 C170.81690908 97.17799056 170.81690908 97.17799056 173.09765625 96.84765625 C173.74605469 96.58855469 174.39445312 96.32945313 175.0625 96.0625 C175.82433594 95.76859375 176.58617187 95.4746875 177.37109375 95.171875 C181.56733133 93.30133819 185.69229059 91.28576366 189.7890625 89.20703125 C193.67559446 87.74603566 195.8805474 87.29853139 200 88 C203.03967763 89.93274052 205.45040532 92.4720645 208 95 C209.05201256 95.99080363 210.10691955 96.97853931 211.1640625 97.96386719 C214.19225319 100.79578626 217.17344513 103.67215138 220.13916016 106.56933594 C221.38533997 107.77856526 222.64036597 108.97874078 223.90380859 110.16992188 C225.74962728 111.91221441 227.56414447 113.68241867 229.375 115.4609375 C229.94049561 115.98311859 230.50599121 116.50529968 231.08862305 117.04330444 C234.14128193 120.11107372 235.36525978 122.21245923 235.4921875 126.60180664 C235.25345922 130.15485431 234.56765724 132.80624645 232.75 135.91015625 C227.65135936 144.59601233 227.65135936 144.59601233 226.26220703 154.25146484 C227.75549801 158.60817977 230.33283011 162.20922237 232.88671875 166.00244141 C234.09400937 168.16868084 234.60348599 170.02461182 235.09375 172.44921875 C236.46938959 179.19368426 236.46938959 179.19368426 240 185 C246.27880781 189.01000539 253.51285791 191.11880255 260.64331055 193.10302734 C263.16081913 194.0612089 264.34797252 194.89529557 266 197 C266.93726743 199.81180228 267.13613076 201.57122175 267.16113281 204.48388672 C267.17074036 205.38847626 267.1803479 206.2930658 267.19024658 207.22506714 C267.1966214 208.68760422 267.1966214 208.68760422 267.203125 210.1796875 C267.20882507 211.18460236 267.21452515 212.18951721 267.22039795 213.22488403 C267.22984577 215.35157214 267.23638107 217.47827487 267.24023438 219.60498047 C267.24994148 222.85540333 267.28096785 226.10519426 267.3125 229.35546875 C267.31903006 231.42187125 267.32428052 233.48827826 267.328125 235.5546875 C267.3404718 236.52566376 267.3528186 237.49664001 267.36553955 238.49703979 C267.33723796 247.08714188 267.33723796 247.08714188 264 251 C260.04863849 253.40180798 256.68102616 254.83771882 252.1640625 255.9140625 C244.33273392 257.81021089 244.33273392 257.81021089 238.60644531 263.09912109 C236.31539385 267.92111966 234.7907502 272.95196935 233.50219727 278.12402344 C233 280 233 280 232 282 C233.44246849 281.99333817 233.44246849 281.99333817 234.91407776 281.98654175 C243.9917433 281.94593845 253.06939033 281.91598815 262.1471262 281.89637566 C266.81369891 281.88595362 271.48019811 281.8718233 276.14672852 281.84912109 C280.65304725 281.82733634 285.15929542 281.81541949 289.66566277 281.81024551 C291.38198901 281.80655986 293.09831154 281.79936274 294.81460762 281.78853989 C297.22487762 281.77395003 299.63485872 281.77202517 302.04516602 281.77294922 C302.74935669 281.76575867 303.45354736 281.75856812 304.17907715 281.75115967 C311.14007107 281.77989866 316.54591615 282.97564454 321.62890625 287.828125 C322.47984863 288.63314453 323.33079102 289.43816406 324.20751953 290.26757812 C325.12903809 291.16927734 326.05055664 292.07097656 327 293 C327.50102234 293.48557373 328.00204468 293.97114746 328.51824951 294.47143555 C331.79652447 297.64896755 335.0427144 300.85693449 338.27075195 304.08544922 C339.95441822 305.76689592 341.64598576 307.44012932 343.33789062 309.11328125 C344.42236254 310.19482386 345.50636451 311.27683794 346.58984375 312.359375 C347.33982887 313.09858185 347.33982887 313.09858185 348.10496521 313.85272217 C352.93109549 318.71057837 355.37041 322.23475924 355.39440918 329.17955017 C355.40575897 330.42304733 355.41710876 331.66654449 355.42880249 332.94772339 C355.4261594 334.31793278 355.42318822 335.68814156 355.41992188 337.05834961 C355.42726467 338.5074682 355.43585151 339.95658094 355.44558716 341.40568542 C355.46778907 345.33547082 355.47073455 349.26504646 355.46883965 353.19488597 C355.46871989 356.47770883 355.47728594 359.76048732 355.48561716 363.04329783 C355.50484617 370.78890513 355.50773677 378.53440466 355.50097656 386.2800293 C355.49433459 394.26623481 355.51720727 402.25197859 355.55429029 410.23809046 C355.58499239 417.09940181 355.59634683 423.96056467 355.59245348 430.82194334 C355.59038663 434.9179202 355.59585506 439.01353767 355.62034607 443.10944939 C355.64261969 446.96168434 355.64073113 450.81316871 355.62041855 454.66540718 C355.61700959 456.07710987 355.6220929 457.48886315 355.63640213 458.90049744 C355.74948501 470.88560433 355.74948501 470.88560433 352.71154785 474.76173401 C348.42483945 478.3002272 345.73727158 479.24965873 340.16175842 479.26069641 C338.96867569 479.26778122 337.77559296 479.27486603 336.5463562 479.28216553 C335.24078766 479.27968811 333.93521912 479.27721069 332.59008789 479.2746582 C331.1986107 479.27900632 329.80713591 479.2841898 328.41566467 479.29014587 C324.63879978 479.30353641 320.86203496 479.3041145 317.08515096 479.30158257 C313.9315318 479.30051291 310.77793289 479.3053961 307.62431806 479.310188 C300.18418166 479.32128334 292.74409575 479.32172042 285.30395508 479.31567383 C277.62971658 479.30963287 269.95566137 479.32194801 262.28145415 479.3432439 C255.69110446 479.36085931 249.10081313 479.36686136 242.51044077 479.36360615 C238.57497991 479.36179307 234.63964981 479.36443191 230.70421028 479.37832069 C227.00316675 479.39089353 223.30240898 479.38896031 219.60136986 479.37590981 C217.59729646 479.37241556 215.59321436 479.38372597 213.58917236 479.39547729 C211.79531853 479.38495583 211.79531853 479.38495583 209.96522522 479.3742218 C208.92787263 479.37438954 207.89052004 479.37455729 206.82173252 479.37473011 C202.8648828 478.84925481 200.18506297 477.45661103 197.65268326 474.34395599 C194.70367131 468.540415 194.45330566 463.43147868 194.54589844 456.99414062 C194.54531433 455.92007965 194.54473022 454.84601868 194.54412842 453.7394104 C194.54690123 450.21135435 194.57795654 446.68415733 194.609375 443.15625 C194.61684021 440.7014614 194.62253182 438.24666682 194.62652588 435.79187012 C194.64175996 429.34736527 194.68102321 422.90322402 194.7253418 416.4588623 C194.76634218 409.87627073 194.78454711 403.2936201 194.8046875 396.7109375 C194.8475191 383.80713702 194.91496931 370.9035879 195 358 C194.39105392 357.80287918 193.78210785 357.60575836 193.15470886 357.40266418 C192.35108414 357.13934799 191.54745941 356.8760318 190.71948242 356.60473633 C189.52762581 356.2162426 189.52762581 356.2162426 188.31169128 355.81990051 C184.04859122 354.3078829 180.11252117 352.10655871 176.11328125 350.01171875 C169.7454317 347.94236739 163.63854315 352.51738129 157.96411133 355.36547852 C153.63217233 357.4643942 149.99508657 358.30522262 145.1875 358.9375 C141.36585017 359.94468358 139.56530375 361.04967245 137.53320312 364.46582031 C134.61015131 370.64673165 132.28908369 377.02503382 130.16577148 383.51977539 C128.80241382 386.42037235 127.71393143 387.33867739 125 389 C122.64770508 389.38768005 122.64770508 389.38768005 120.01953125 389.40405273 C118.53779419 389.42307899 118.53779419 389.42307899 117.02612305 389.44248962 C115.96562744 389.43955399 114.90513184 389.43661835 113.8125 389.43359375 C112.71784424 389.4388356 111.62318848 389.44407745 110.49536133 389.44947815 C108.18213753 389.4558985 105.86888109 389.45456121 103.55566406 389.44604492 C100.0130821 389.43753144 96.4721103 389.46630385 92.9296875 389.49804688 C90.68229215 389.49965885 88.43489394 389.49908143 86.1875 389.49609375 C85.12700439 389.50732773 84.06650879 389.51856171 82.97387695 389.53013611 C75.67959213 389.46086539 75.67959213 389.46086539 72.43457031 387.26025391 C70.98943643 384.98335645 69.84773579 382.84951987 68.859375 380.33984375 C68.33730469 379.0259668 68.33730469 379.0259668 67.8046875 377.68554688 C67.28261719 376.32526367 67.28261719 376.32526367 66.75 374.9375 C66.38648438 374.02677734 66.02296875 373.11605469 65.6484375 372.17773438 C63 365.42222744 63 365.42222744 63 362 C62.42636719 361.87625 61.85273438 361.7525 61.26171875 361.625 C52.1399257 359.41030062 43.71161741 355.65808944 35.13720703 351.91381836 C34.07928955 351.46147827 34.07928955 351.46147827 33 351 C32.18692383 350.59547607 31.37384766 350.19095215 30.53613281 349.77416992 C27.30743814 348.78859129 26.17204099 349.33265115 23.1640625 350.7734375 C22.26429688 351.1859375 21.36453125 351.5984375 20.4375 352.0234375 C19.509375 352.46945312 18.58125 352.91546875 17.625 353.375 C5.21690356 359.28361735 5.21690356 359.28361735 0 358 C-3.68040101 355.34596548 -6.80294012 352.20904885 -10 349 C-10.97222286 348.05339008 -11.94621966 347.10859908 -12.921875 346.16552734 C-15.45989777 343.70296237 -17.97083533 341.21487056 -20.47119141 338.71411133 C-22.02099573 337.16653444 -23.57870064 335.62719308 -25.13671875 334.08789062 C-26.13329931 333.09423801 -27.12941113 332.10011499 -28.125 331.10546875 C-29.01445313 330.22012451 -29.90390625 329.33478027 -30.8203125 328.42260742 C-34.03672358 324.84773655 -35.03734819 323.17148838 -34.8828125 318.32421875 C-33.97988796 312.57506646 -31.25901347 307.61524299 -28.70703125 302.44726562 C-26.59662606 298.09791411 -26.59662606 298.09791411 -26.0546875 293.37890625 C-27.58307534 289.53267404 -29.38153992 285.85099479 -31.23974609 282.15795898 C-32.88733958 278.77024265 -34.17404671 275.68503267 -34.8359375 271.96484375 C-35.96799975 266.04983742 -35.96799975 266.04983742 -39 261 C-44.68959728 257.39023999 -51.24726615 255.51110841 -57.69750977 253.72338867 C-61.77150679 252.44343393 -63.57742012 251.63386982 -66 248 C-66.26742554 245.76795959 -66.26742554 245.76795959 -66.29052734 243.13305664 C-66.30328705 242.1451564 -66.31604675 241.15725616 -66.32919312 240.13941956 C-66.33141876 239.07376266 -66.33364441 238.00810577 -66.3359375 236.91015625 C-66.3425943 235.81408554 -66.3492511 234.71801483 -66.35610962 233.58872986 C-66.36623957 231.26953817 -66.37092653 228.95031731 -66.37060547 226.63110352 C-66.37497875 223.07975346 -66.41129669 219.52964572 -66.44921875 215.97851562 C-66.45508672 213.72656676 -66.45905624 211.47461198 -66.4609375 209.22265625 C-66.47530853 208.15902359 -66.48967957 207.09539093 -66.50448608 205.99952698 C-66.45908059 198.68645541 -66.45908059 198.68645541 -64.29199219 195.44604492 C-61.85983642 193.91156914 -59.53800859 192.71166739 -56.8671875 191.640625 C-55.41119141 191.05087891 -55.41119141 191.05087891 -53.92578125 190.44921875 C-52.91902344 190.05347656 -51.91226563 189.65773437 -50.875 189.25 C-49.86050781 188.83878906 -48.84601563 188.42757812 -47.80078125 188.00390625 C-40.30598526 185 -40.30598526 185 -38 185 C-37.938125 184.113125 -37.87625 183.22625 -37.8125 182.3125 C-36.98613487 176.25248902 -34.29198883 170.62425304 -32 165 C-33.12535156 165.03480469 -34.25070313 165.06960937 -35.41015625 165.10546875 C-60.81905953 165.65692801 -83.06536928 157.81765434 -101.72973633 140.43432617 C-117.46696248 124.99387883 -126.93216535 103.41127484 -127.24145508 81.36108398 C-127.31398624 57.07557884 -120.25527671 36.355516 -104 18 C-103.44699219 17.36320312 -102.89398438 16.72640625 -102.32421875 16.0703125 C-76.99305071 -11.20940692 -32.36320887 -17.3478462 0 0 Z M-85 24 C-84.42636719 24.2578125 -83.85273437 24.515625 -83.26171875 24.78125 C-80.79490707 26.1105164 -78.90831904 27.64404017 -76.8125 29.5 C-76.11769531 30.1084375 -75.42289063 30.716875 -74.70703125 31.34375 C-72.16843729 33.80682515 -72.01327453 34.81747516 -71.75 38.4375 C-72 42 -72 42 -73.0625 43.875 C-76.11281713 45.64615188 -78.48181926 45.94036982 -82 46 C-86.87832497 43.60866423 -89.25303124 40.61098328 -92 36 C-92.66 35.01 -93.32 34.02 -94 33 C-101.09225155 41.55094158 -105.6901803 50.76469563 -108.4375 61.5 C-108.61361816 62.18255859 -108.78973633 62.86511719 -108.97119141 63.56835938 C-109.77878476 66.99658038 -110.30372443 69.65973871 -109 73 C-108.360625 72.505 -107.72125 72.01 -107.0625 71.5 C-102.10974025 69.07415849 -97.33875647 69.40287069 -92.0625 70.75 C-89.52514544 72.28779064 -88.79473162 73.13896618 -88 76 C-88.18230164 78.97759352 -88.44239769 81.14245998 -90.08203125 83.6640625 C-93.02509413 85.71401668 -96.04879716 85.3946715 -99.5 85.3125 C-100.51513672 85.31733398 -100.51513672 85.31733398 -101.55078125 85.32226562 C-105.23473014 85.28230168 -106.86207954 85.09194697 -110 83 C-109.35454302 97.5873277 -103.82125103 112.92120187 -93 123 C-92.78085938 122.48050781 -92.56171875 121.96101563 -92.3359375 121.42578125 C-89.98420781 116.25388791 -87.85682287 113.04741827 -83 110 C-78.98358156 109.37676266 -76.99936347 109.35938239 -73.5625 111.5625 C-71.32996206 115.04525918 -71.30935779 116.92521094 -72 121 C-75.16606956 126.44832465 -79.14852961 129.01050007 -85 131 C-81.44384938 134.85082223 -77.83745915 137.59981883 -73.1875 140.0625 C-72.22203247 140.57574829 -72.22203247 140.57574829 -71.23706055 141.09936523 C-64.30445039 144.60869109 -54.42740719 148.90600597 -46.54296875 147.58984375 C-46.03378906 147.39519531 -45.52460937 147.20054687 -45 147 C-45.99 146.01 -45.99 146.01 -47 145 C-47.19893799 142.47524284 -47.27847435 140.08485251 -47.25 137.5625 C-47.26160156 136.5405957 -47.26160156 136.5405957 -47.2734375 135.49804688 C-47.25889434 131.78590558 -47.10940418 130.16410628 -45 127 C-41.12139192 125.97546202 -38.86688019 125.64194079 -35.125 127.1875 C-32.28647704 129.60859312 -32.13931158 131.52651219 -31.796875 135.1484375 C-31.68983201 140.23297956 -32.2590288 143.5459218 -35 148 C-20.4126723 147.35454302 -5.07879813 141.82125103 5 131 C4.46890625 130.76925781 3.9378125 130.53851563 3.390625 130.30078125 C-1.14603801 128.20629997 -4.40867261 126.45708311 -7 122 C-7.86839308 118.4643996 -8.374884 116.09581478 -7.1875 112.625 C-5.34000115 110.09684368 -3.98212026 109.99713924 -0.875 109.5 C4.59338476 110.20559803 7.4786941 112.86844436 11 117 C12.5 120.4375 12.5 120.4375 13 123 C23.06322136 114.12068703 28.46677882 100.23935322 29.8125 87.0625 C29.89390972 85.70933849 29.96492542 84.35515438 30 83 C29.01 83.66 28.02 84.32 27 85 C24.45079762 85.2210457 22.04683588 85.32462779 19.5 85.3125 C18.82324219 85.32861328 18.14648438 85.34472656 17.44921875 85.36132812 C14.51820907 85.36421867 12.50938501 85.36414285 10.08203125 83.62890625 C8.58507252 81.37536187 8.19287522 79.70025307 8 77 C8.7397096 73.81924873 9.285954 72.45439291 12.0625 70.6875 C17.50237639 69.41433744 23.62895235 69.32154761 29 71 C29.33 71.66 29.66 72.32 30 73 C29.65954116 59.8459083 24.7448284 46.60365767 17 36 C14.9108047 34.20798603 14.9108047 34.20798603 13 33 C12.76925781 33.53109375 12.53851563 34.0621875 12.30078125 34.609375 C10.20629997 39.14603801 8.45708311 42.40867261 4 45 C-0.0827922 45.93116313 -3.01001876 46.14373642 -7 45 C-8.43930636 37.04046243 -8.43930636 37.04046243 -6.8125 33.1875 C-3.13244417 28.7460533 -0.69285135 26.55259582 5 25 C-3.74330805 15.09091754 -17.3743019 9.39219789 -30.375 8.1875 C-31.91574489 8.10535654 -33.4574556 8.03462855 -35 8 C-34.01 8.495 -34.01 8.495 -33 9 C-31.31853646 14.38068331 -31.30496062 20.61700783 -32.875 26 C-34 28 -34 28 -36 29 C-43.23858521 29.45959271 -43.23858521 29.45959271 -45.734375 27.953125 C-47.67094234 24.96459516 -47.3943777 21.93886348 -47.3125 18.5 C-47.31572266 17.82324219 -47.31894531 17.14648438 -47.32226562 16.44921875 C-47.28230168 12.76526986 -47.09194697 11.13792046 -45 8 C-59.82849476 7.48867259 -73.74899075 15.07449463 -85 24 Z M85 74 C82.04030166 79.91939669 79.55349907 85.54637982 77.55273438 91.79492188 C76.22631193 95.43236606 75.2617947 96.8526795 71.85546875 98.76953125 C70.57945275 99.20729592 69.29320343 99.61596925 68 100 C66.95670532 100.34720093 66.95670532 100.34720093 65.89233398 100.70141602 C64.41222843 101.19204329 62.92834963 101.67141413 61.44116211 102.14013672 C58.28964196 103.14003929 55.16382028 104.20846421 52.04052734 105.29296875 C50.41380753 105.85661802 48.78023222 106.40047095 47.14453125 106.9375 C40.10418282 109.92809048 37.6214619 116.48600908 34.24609375 122.91796875 C25.99159129 138.39918963 11.01553569 150.8801218 -5.3125 157 C-13.63403385 161.02567709 -16.60416518 171.95598539 -19.5 180.13671875 C-20.3448496 182.61353365 -21.12822741 185.09402817 -21.89453125 187.59765625 C-22.25933594 188.72042969 -22.62414062 189.84320313 -23 191 C-23.2990625 192.19625 -23.598125 193.3925 -23.90625 194.625 C-27.17740613 199.89790839 -32.00008948 200.96906633 -37.6875 202.9375 C-41.420625 204.278125 -45.15375 205.61875 -49 207 C-49 217.56 -49 228.12 -49 239 C-41.57430227 241.71532903 -41.57430227 241.71532903 -34.1315918 244.38330078 C-26.55717761 247.24865444 -26.55717761 247.24865444 -23.9375 250.78125 C-23.628125 251.8434375 -23.31875 252.905625 -23 254 C-22.55961319 255.32065288 -22.11813212 256.64094118 -21.67578125 257.9609375 C-21.22055733 259.43204533 -20.76616571 260.9034109 -20.3125 262.375 C-17.4274667 271.41845178 -13.46529375 279.64489188 -9 288 C-7.37901073 291.24197855 -7.54922366 294.48664022 -8 298 C-9.11198103 301.21852895 -10.5914921 304.2133507 -12.125 307.25 C-12.91289553 308.81049211 -13.6870318 310.37802965 -14.4453125 311.953125 C-14.79094238 312.63536133 -15.13657227 313.31759766 -15.49267578 314.02050781 C-16.19126813 316.01021026 -16.19126813 316.01021026 -15.3581543 317.96655273 C-12.39331673 322.40554826 -8.4258941 326.0296343 -4.6875 329.8125 C-3.83220703 330.70904297 -2.97691406 331.60558594 -2.09570312 332.52929688 C-0.84756836 333.79290039 -0.84756836 333.79290039 0.42578125 335.08203125 C1.18286377 335.85780518 1.93994629 336.6335791 2.7199707 337.43286133 C4.89087059 339.26901136 4.89087059 339.26901136 7.55200195 338.84667969 C9.68597815 338.10860953 11.7083356 337.34811882 13.7421875 336.37109375 C14.41636719 336.05849609 15.09054688 335.74589844 15.78515625 335.42382812 C17.17351777 334.76857339 18.55898311 334.10714521 19.94140625 333.43945312 C24.46278721 331.35961789 27.93245867 330.31181538 33 331 C35.7547056 332.1326436 38.25613167 333.60422971 40.8125 335.125 C48.29697088 339.34841561 55.77759596 342.20133751 63.9765625 344.7109375 C64.99194092 345.04134033 64.99194092 345.04134033 66.02783203 345.37841797 C67.90638657 345.9704952 69.8127123 346.47221917 71.71875 346.96875 C76.79706238 350.11246719 77.91268085 354.6595266 79.875 360.125 C80.64191215 362.14893703 81.41007278 364.17240159 82.1796875 366.1953125 C82.50694824 367.09266113 82.83420898 367.99000977 83.17138672 368.91455078 C83.82257117 370.95458288 83.82257117 370.95458288 85 372 C87.29151417 372.08790975 89.58572524 372.10694038 91.87890625 372.09765625 C92.5655687 372.0962413 93.25223114 372.09482635 93.95970154 372.09336853 C96.16067801 372.08775479 98.36155409 372.07520007 100.5625 372.0625 C102.05143083 372.05748676 103.54036324 372.05292355 105.02929688 372.04882812 C108.68623075 372.03778093 112.34310558 372.02050713 116 372 C116.25168945 371.34926514 116.50337891 370.69853027 116.76269531 370.02807617 C117.91258409 367.07615041 119.08102767 364.13191778 120.25 361.1875 C120.64574219 360.16333984 121.04148437 359.13917969 121.44921875 358.08398438 C122.03896484 356.60961914 122.03896484 356.60961914 122.640625 355.10546875 C122.99672852 354.19949951 123.35283203 353.29353027 123.71972656 352.36010742 C125.83581596 348.45922332 128.27176146 347.2519538 132.3984375 345.82421875 C133.7224171 345.43996175 135.04804031 345.06133608 136.375 344.6875 C146.72048927 341.60883775 156.75434367 337.81543883 165.83984375 331.8828125 C169.7286672 330.29352842 173.24605419 330.40009298 177.21704102 331.75830078 C179.61600119 332.77771455 181.96495173 333.86736057 184.3125 335 C185.91135134 335.7529992 187.51154944 336.50314753 189.11328125 337.25 C190.16189331 337.75273438 190.16189331 337.75273438 191.23168945 338.265625 C192.98871842 339.12784591 192.98871842 339.12784591 195 339 C195.00364563 338.43925278 195.00729126 337.87850555 195.01104736 337.30076599 C195.05298451 331.44382867 195.12240796 325.58766682 195.20751953 319.73120117 C195.23567719 317.54801199 195.25691752 315.36472185 195.27099609 313.18139648 C195.29249729 310.03577177 195.33918584 306.89135426 195.390625 303.74609375 C195.39185364 302.7760289 195.39308228 301.80596405 195.39434814 300.8065033 C195.52515583 294.70066375 196.42061565 290.99621526 200 286 C201.96484375 284.6953125 201.96484375 284.6953125 203.9375 284.125 C204.58589844 283.92132813 205.23429688 283.71765625 205.90234375 283.5078125 C208 283 208 283 210.53515625 282.87109375 C213.33184548 282.17516284 213.33184548 282.17516284 214.84375 278.96484375 C215.41722746 277.63139483 215.96799638 276.28803122 216.5 274.9375 C216.79769287 274.22883789 217.09538574 273.52017578 217.40209961 272.79003906 C219.73894368 267.07789341 221.60038984 261.22976866 223.05078125 255.23022461 C223.97696284 251.8136144 224.87380584 250.10912534 227.5703125 247.77734375 C231.7213762 245.62616609 235.92919423 243.92592209 240.3125 242.3125 C241.93442887 241.70665813 243.55556906 241.0986992 245.17578125 240.48828125 C246.24179565 240.09443237 246.24179565 240.09443237 247.3293457 239.69262695 C249.00459343 239.12287028 249.00459343 239.12287028 250 238 C250.08783542 235.78144736 250.10694609 233.56011504 250.09765625 231.33984375 C250.0962413 230.67537735 250.09482635 230.01091095 250.09336853 229.3263092 C250.08775518 227.19666101 250.07520054 225.06711661 250.0625 222.9375 C250.05748671 221.49674631 250.05292351 220.05599097 250.04882812 218.61523438 C250.03778145 215.07678898 250.02050792 211.53840461 250 208 C246.06652494 205.96544393 242.19976286 204.00620029 238.04296875 202.47265625 C237.40552734 202.23740234 236.76808594 202.00214844 236.11132812 201.75976562 C234.81272762 201.28910534 233.51048892 200.8283809 232.20507812 200.37695312 C229.28599233 199.28266867 227.27004426 198.32056479 225.24609375 195.91796875 C223.48050831 191.78351005 222.19025008 187.5453982 220.875 183.25 C218.31482416 175.14713174 215.17651967 167.82123357 210.84521484 160.50683594 C208.46814969 156.39789427 207.21169925 153.72405048 208 149 C209.31134969 145.28643347 210.88087756 141.7133254 212.5 138.125 C212.92925781 137.15046875 213.35851562 136.1759375 213.80078125 135.171875 C214.85746325 132.77672914 215.9240544 130.38653891 217 128 C214.14175658 124.96849509 211.26101477 121.96084401 208.35742188 118.97290039 C207.37340883 117.95372087 206.39577391 116.92834245 205.42480469 115.89672852 C204.02616678 114.41299965 202.60595039 112.95322589 201.1796875 111.49609375 C200.33132324 110.61107178 199.48295898 109.7260498 198.60888672 108.81420898 C196.1051001 106.68503561 196.1051001 106.68503561 192.90258789 107.1171875 C188.56944981 108.43509711 184.65151918 110.46988096 180.65429688 112.56054688 C176.27559732 114.73414594 172.98866574 115.63625195 168 115 C165.52628683 113.8810069 163.36718096 112.76268092 161.0625 111.375 C150.96483275 105.64691968 140.2278802 101.5222848 128.91796875 98.8359375 C125.72325107 97.44353509 124.37103513 94.7904405 122.92504883 91.70996094 C122.60560303 90.89301758 122.28615723 90.07607422 121.95703125 89.234375 C121.48100464 88.03119629 121.48100464 88.03119629 120.99536133 86.80371094 C120.40984497 85.29212402 120.40984497 85.29212402 119.8125 83.75 C118.554375 80.5325 117.29625 77.315 116 74 C105.77 74 95.54 74 85 74 Z M212 299 C212 352.79 212 406.58 212 462 C253.91 462 295.82 462 339 462 C339 420.09 339 378.18 339 335 C330.09 334.67 321.18 334.34 312 334 C310.02 333.34 308.04 332.68 306 332 C302.50715016 321.52145048 303.40880715 310.03779311 303 299 C272.97 299 242.94 299 212 299 Z M320 312 C320 313.98 320 315.96 320 318 C321.98 318 323.96 318 326 318 C324.35830472 315.97945196 322.69088222 313.97956942 321 312 C320.67 312 320.34 312 320 312 Z " fill="#00ff00" transform="translate(149,21)"/>
<path d="M0 0 C0.96873047 0.30550781 0.96873047 0.30550781 1.95703125 0.6171875 C27.03218377 8.89045574 47.1388258 27.0381692 59.30053711 50.26171875 C71.11544907 73.98306019 73.13747532 101.57666852 65.11328125 126.81640625 C64.74589844 127.86699219 64.37851562 128.91757812 64 130 C63.66355469 130.97839844 63.32710937 131.95679688 62.98046875 132.96484375 C53.88039612 156.92086534 35.72948056 175.54738802 13 187 C-11.97189227 198.12218988 -40.34148783 199.64535289 -66.125 190.3125 C-78.46083521 185.54958869 -89.15546306 178.86771467 -99 170 C-100.16982422 168.95392578 -100.16982422 168.95392578 -101.36328125 167.88671875 C-119.5155826 150.7376534 -130.24457047 125.73139896 -131.203125 100.87890625 C-131.69757711 73.55806499 -123.5818109 48.37165258 -105 28 C-104.31550781 27.23429687 -103.63101563 26.46859375 -102.92578125 25.6796875 C-77.13290276 -1.68650891 -35.60742768 -11.24445085 0 0 Z M-69 22 C-69.82757813 22.44085938 -70.65515625 22.88171875 -71.5078125 23.3359375 C-92.09273811 35.01578557 -105.09558664 52.69127332 -111.54223633 75.10229492 C-117.37425094 96.64408766 -113.50129957 118.6969102 -102.8125 138.0625 C-90.54167438 158.07500531 -72.54411304 171.67788273 -49.75 177.5 C-27.85617261 182.40591485 -5.4978247 178.33067566 13.625 166.75 C19.24832936 163.01190192 24.1908357 158.72887775 29 154 C29.69996094 153.31292969 30.39992188 152.62585938 31.12109375 151.91796875 C45.57965263 136.72661741 52.79092678 115.71915595 53 95 C52.22343541 74.36205878 44.79279104 55.47800047 31 40 C30.00226563 38.86111328 30.00226563 38.86111328 28.984375 37.69921875 C15.13979395 22.85475129 -5.02781888 13.69893636 -25.2109375 12.68359375 C-40.99623066 12.20074949 -54.89875177 14.4881201 -69 22 Z " fill="#00ff00" transform="translate(280,148)"/>
<path d="M0 0 C3.70923765 3.03358067 5.5337902 6.6689995 7.453125 10.9609375 C7.75820984 11.62912506 8.06329468 12.29731262 8.37762451 12.98574829 C9.01736684 14.39404 9.65248051 15.80444255 10.28320312 17.21679688 C11.24677933 19.36781043 12.23167013 21.50812587 13.21875 23.6484375 C13.83985562 25.02284447 14.45969034 26.39782662 15.078125 27.7734375 C15.51865204 28.72529434 15.51865204 28.72529434 15.96807861 29.69638062 C17.69301435 33.61409624 18.48792066 36.72725276 18 41 C15.39210172 44.63525215 13.9297642 45.83397068 9.5 46.625 C5.19350057 45.85598224 3.73942002 44.32050912 1 41 C-10.06425727 74.19277182 9.36361686 122.83643577 24.01171875 152.25390625 C27.56004225 159.19157213 31.46197969 165.66170473 36 172 C36.71542969 173.00546875 37.43085937 174.0109375 38.16796875 175.046875 C51.00857535 192.59191623 65.476072 208.08896597 83 221 C84.00160156 221.74636719 85.00320312 222.49273437 86.03515625 223.26171875 C114.45029923 243.68395699 147.28482247 256.6026097 182 261 C182.73259033 261.0942627 183.46518066 261.18852539 184.2199707 261.28564453 C208.21789985 264.04051513 233.00620434 262.35107646 256.39453125 256.51171875 C260.35061634 255.73473652 263.11024678 255.91951299 267 257 C269.31398901 258.80780391 269.82804804 260.04840225 270.34375 262.90234375 C270.63789861 266.85128888 270.63789861 266.85128888 270 269 C266.40469103 272.66964807 262.65572936 274.00364193 257.75 275.0625 C256.64906006 275.30564941 256.64906006 275.30564941 255.52587891 275.55371094 C217.57496838 283.48840531 179.21561951 281.23184051 142 271 C141.2167334 270.79068848 140.4334668 270.58137695 139.62646484 270.36572266 C119.23366675 264.7815992 98.11297232 254.33670094 81 242 C80.04996094 241.33742188 79.09992188 240.67484375 78.12109375 239.9921875 C29.02231662 205.16551666 -4.84445371 152.79226595 -15.15234375 93.35546875 C-18.20968501 74.59497269 -18.24847599 55.95107284 -18 37 C-19.1446875 37.97453125 -19.1446875 37.97453125 -20.3125 38.96875 C-23 41 -23 41 -26 41.5 C-29.91058019 40.84823663 -31.45528778 40.06862356 -34 37 C-35.14842032 33.72462369 -35.04683254 31.30154877 -34 28 C-31.04865498 23.9419006 -27.56238213 20.5205333 -24 17 C-22.77641903 15.63855075 -21.56603965 14.26500683 -20.375 12.875 C-19.83101562 12.25238281 -19.28703125 11.62976563 -18.7265625 10.98828125 C-17.44441967 9.51178645 -16.16949398 8.02901806 -14.8984375 6.54296875 C-14.18945312 5.72441406 -13.48046875 4.90585938 -12.75 4.0625 C-12.10546875 3.31097656 -11.4609375 2.55945313 -10.796875 1.78515625 C-7.37781932 -1.61160124 -4.40090171 -1.16758617 0 0 Z " fill="#00ff00" transform="translate(42,189)"/>
<path d="M0 0 C3.05231416 2.74789453 6.03904705 5.54911458 9 8.39453125 C9.59458008 8.96187988 10.18916016 9.52922852 10.80175781 10.11376953 C51.87609191 49.50403475 72.38252854 100.4943118 79 156.39453125 C79.58910156 155.75386719 80.17820312 155.11320313 80.78515625 154.453125 C83.80967398 151.64197713 85.91933431 151.46612188 90 151.39453125 C92.94755732 152.74015524 94.54277272 153.48007669 96 156.39453125 C96.61729662 162.34830912 95.05124573 165.80858293 91.73046875 170.5703125 C91.29366287 171.22154587 90.85685699 171.87277924 90.40681458 172.54374695 C89.48538926 173.91099573 88.55624611 175.27307156 87.61987305 176.63012695 C86.18701387 178.70773613 84.7783604 180.80016982 83.37304688 182.89648438 C82.47271878 184.2261854 81.57107075 185.55499388 80.66796875 186.8828125 C80.24597702 187.50674393 79.82398529 188.13067535 79.38920593 188.77351379 C77.41522152 191.6239746 75.92165698 193.44675993 73 195.39453125 C67.99388679 196.13313812 67.99388679 196.13313812 65 195.39453125 C60.02226674 191.23792487 56.71294695 185.02377734 53.4375 179.51953125 C52.75397461 178.39224609 52.75397461 178.39224609 52.05664062 177.2421875 C50.68651699 174.96969225 49.33903092 172.68547068 48 170.39453125 C47.28203247 169.17745483 47.28203247 169.17745483 46.54956055 167.93579102 C46.09234619 167.14229248 45.63513184 166.34879395 45.1640625 165.53125 C44.54265381 164.45943481 44.54265381 164.45943481 43.90869141 163.3659668 C43 161.39453125 43 161.39453125 42.9375 158.08203125 C44.22320298 154.82995902 45.07014463 153.34776816 48 151.39453125 C50.775541 150.83600349 53.25523194 150.66545223 56 151.39453125 C58.25 153.42578125 58.25 153.42578125 60 155.39453125 C55.08852631 101.30369598 31.11003393 50.67986335 -10.203125 14.6953125 C-40.73396252 -10.42013903 -75.11069725 -26.49058592 -114 -33.60546875 C-115.06420166 -33.80462891 -115.06420166 -33.80462891 -116.14990234 -34.0078125 C-126.50719669 -35.84910927 -136.95302987 -35.77919503 -147.4375 -35.79296875 C-148.47945023 -35.79473618 -148.47945023 -35.79473618 -149.54244995 -35.79653931 C-156.6904737 -35.79516584 -163.78301703 -35.69681102 -170.88964844 -34.85424805 C-180.65930253 -33.70255005 -180.65930253 -33.70255005 -185.0625 -36.66796875 C-187.48300948 -40.33777345 -187.62842752 -42.28502957 -187 -46.60546875 C-185.52707535 -49.13575938 -184.64164002 -50.36647256 -181.87109375 -51.3984375 C-181.06800781 -51.52863281 -180.26492187 -51.65882812 -179.4375 -51.79296875 C-178.65246094 -51.93089844 -177.86742187 -52.06882812 -177.05859375 -52.2109375 C-176.04925781 -52.34113281 -175.03992188 -52.47132812 -174 -52.60546875 C-173.0085498 -52.73574463 -173.0085498 -52.73574463 -171.99707031 -52.86865234 C-110.38670004 -60.06298699 -46.76167591 -40.61202843 0 0 Z " fill="#00ff00" transform="translate(396,72.60546875)"/>
<path d="M0 0 C8.02724163 6.90784647 12.56166627 14.55583019 13.875 25.0625 C14.6123805 36.40560862 11.23530522 44.49079217 5.0625 53.75 C5.8359375 54.24628906 6.609375 54.74257812 7.40625 55.25390625 C23.13288857 65.51125591 34.42593835 77.59460845 39.55859375 96.16015625 C40.57342379 101.37591065 41.52153447 107.28414642 38.7265625 112.0078125 C36.63611718 114.19640079 34.92197091 114.69598173 31.92694283 114.88422108 C31.0955271 114.88849456 30.26411137 114.89276804 29.40750122 114.89717102 C28.45138947 114.90432632 27.49527771 114.91148163 26.51019287 114.91885376 C25.46284973 114.92154266 24.41550659 114.92423157 23.33642578 114.92700195 C22.23211212 114.93357315 21.12779846 114.94014435 19.99002075 114.94691467 C16.32928401 114.96665406 12.66858826 114.97831036 9.0078125 114.98828125 C7.1347323 114.99439454 7.1347323 114.99439454 5.2238121 115.00063133 C-0.70127236 115.01934129 -6.62634377 115.03390818 -12.55145061 115.0422433 C-19.3874977 115.05201929 -26.2232213 115.07835159 -33.05915439 115.11874419 C-38.98315655 115.15254572 -44.90707941 115.16438839 -50.83118057 115.16844749 C-53.35021283 115.17332703 -55.86924129 115.1849796 -58.3882103 115.20348549 C-61.90995004 115.22775472 -65.43083949 115.22693407 -68.95263672 115.2199707 C-69.9959314 115.23278076 -71.03922607 115.24559082 -72.11413574 115.25878906 C-79.18661746 115.20772595 -79.18661746 115.20772595 -83.06155396 112.84562683 C-85.16789868 110.49262071 -85.91919568 109.5410082 -85.9921875 106.38671875 C-84.97444263 89.68242792 -76.9076819 75.20224134 -64.9375 63.75 C-60.21847366 59.9509029 -55.63787612 56.85226637 -49.9375 54.75 C-50.41960937 53.9765625 -50.90171875 53.203125 -51.3984375 52.40625 C-57.50113872 42.34302023 -60.16584343 34.62897977 -58.9375 22.75 C-56.21461703 11.95671648 -50.80074809 4.40098137 -41.9375 -2.25 C-28.62989055 -9.7773188 -12.50271571 -9.19812587 0 0 Z M-37.9375 16.75 C-41.54835898 22.04828654 -42.64308562 26.39972945 -41.9375 32.75 C-39.9175211 39.02256605 -36.81630374 42.51093042 -31.6875 46.5 C-26.52857249 48.84496705 -21.28600152 49.45986453 -15.8125 47.8125 C-10.20472085 45.32264606 -6.24777694 40.98409626 -3.953125 35.3203125 C-2.41715592 29.30755549 -2.74290376 24.14088116 -5.9375 18.75 C-10.58940304 13.49655778 -15.24434417 10.09195887 -22.3125 9.4375 C-28.49388055 9.97037763 -33.55516363 12.36766363 -37.9375 16.75 Z M-51.9375 75.75 C-52.80375 76.3275 -53.67 76.905 -54.5625 77.5 C-60.76684353 83.37779913 -63.94421421 89.76790456 -66.9375 97.75 C-37.8975 97.75 -8.8575 97.75 21.0625 97.75 C18.87353463 86.80517315 11.40950576 78.209367 2.3125 72 C-15.61567746 61.77018888 -35.58844771 63.42897509 -51.9375 75.75 Z " fill="#00ff00" transform="translate(271.9375,180.25)"/>
<path d="M0 0 C0.89948868 -0.0065712 1.79897736 -0.0131424 2.72572327 -0.01991272 C5.70468223 -0.03963662 8.68359085 -0.05130504 11.66259766 -0.0612793 C12.67963398 -0.06535482 13.6966703 -0.06943035 14.74452591 -0.07362938 C20.12541755 -0.09448417 25.50628372 -0.10878963 30.88720703 -0.11816406 C36.4481037 -0.12923972 42.00860146 -0.16365478 47.56935692 -0.20333576 C51.84329989 -0.22945943 56.11714708 -0.23785202 60.39116287 -0.24144554 C62.44129766 -0.24632087 64.49142791 -0.25796165 66.54148483 -0.27648354 C69.40949064 -0.30078904 72.27645433 -0.29992587 75.14453125 -0.29296875 C76.414925 -0.31218384 76.414925 -0.31218384 77.71098328 -0.33178711 C81.68130719 -0.29666953 83.73371843 -0.10569293 87.20523071 1.99153137 C89.97214596 5.02044476 90.20166016 7.11681462 90.20166016 11.17700195 C88.85603616 14.12455927 88.11611471 15.71977467 85.20166016 17.17700195 C82.2382634 17.29659694 79.29767664 17.35541219 76.33325195 17.36987305 C75.41440216 17.37805054 74.49555237 17.38622803 73.54885864 17.39465332 C70.49953875 17.41952343 67.45026543 17.43602693 64.40087891 17.45043945 C62.84085113 17.45842497 62.84085113 17.45842497 61.24930763 17.46657181 C55.74523276 17.49330962 50.24118063 17.51268306 44.73706055 17.52709961 C39.04713409 17.54375464 33.35778603 17.58853809 27.66807842 17.63947105 C23.2971987 17.67309811 18.92645707 17.68467205 14.55545998 17.69032669 C12.45785918 17.69705105 10.36026784 17.7123037 8.26279259 17.7362175 C5.32746365 17.76777591 2.39370543 17.76791978 -0.54174805 17.76049805 C-1.40894974 17.77690338 -2.27615143 17.79330872 -3.16963196 17.81021118 C-7.51465507 17.76521834 -9.27776744 17.57227382 -12.84562683 14.8631897 C-15.39001554 11.36308204 -15.41505791 9.41693868 -14.79833984 5.17700195 C-11.47034834 -0.84507791 -6.18192039 0.01953352 0 0 Z " fill="#00ff00" transform="translate(386.79833984375,429.822998046875)"/>
<path d="M0 0 C0.91114059 -0.00394272 1.82228119 -0.00788544 2.7610321 -0.01194763 C5.76695069 -0.01865 8.77134404 0.01048713 11.77709961 0.04077148 C13.86787115 0.04502241 15.95864741 0.04735025 18.04942322 0.0478363 C22.4283491 0.05399981 26.80676308 0.07669218 31.18554688 0.11230469 C36.80021186 0.15760477 42.41441357 0.17233225 48.02924442 0.1760416 C52.3452156 0.1804689 56.66108942 0.19577007 60.97701836 0.21491814 C63.04748165 0.22380067 65.11795534 0.23053051 67.18843269 0.23507881 C70.08022672 0.24411586 72.97160088 0.26650156 75.86328125 0.29296875 C76.72001434 0.29363342 77.57674744 0.2942981 78.45944214 0.29498291 C79.24864548 0.30495804 80.03784882 0.31493317 80.85096741 0.32521057 C81.875478 0.33218633 81.875478 0.33218633 82.92068577 0.33930302 C86.04494571 0.75677189 88.24080593 1.79433139 90.17944336 4.28686523 C91.19790601 7.71260323 90.72740318 10.15752597 89.86694336 13.59936523 C88.21801447 16.02402764 86.93774303 17.38762734 83.99795723 17.96893501 C81.58081387 18.12944771 79.19396677 18.15106573 76.77148438 18.1328125 C75.85234253 18.14142807 74.93320068 18.15004364 73.98620605 18.15892029 C70.94746754 18.18162545 67.9096479 18.1748327 64.87084961 18.16577148 C62.75861842 18.17100527 60.64638958 18.17728084 58.53416443 18.18455505 C54.10648606 18.19496785 49.6791289 18.19038537 45.25146484 18.17578125 C39.57718032 18.15859754 33.90390875 18.18207951 28.22973728 18.21727085 C23.86737862 18.23923165 19.50526279 18.23780643 15.14286613 18.22950554 C13.05088122 18.2286852 10.95887861 18.23556433 8.86694527 18.25027657 C5.9412627 18.26769656 3.01740596 18.25320059 0.09179688 18.23046875 C-0.77226273 18.24216095 -1.63632233 18.25385315 -2.52656555 18.26589966 C-6.85958277 18.19739981 -8.62034286 17.99108717 -12.17054749 15.27867126 C-14.13305664 12.59936523 -14.13305664 12.59936523 -14.75805664 9.09936523 C-13.23233299 0.55531278 -7.40484065 -0.12851809 0 0 Z " fill="#00ff00" transform="translate(386.133056640625,369.400634765625)"/>
<path d="M0 0 C0.89948868 -0.0065712 1.79897736 -0.0131424 2.72572327 -0.01991272 C5.70468223 -0.03963662 8.68359085 -0.05130504 11.66259766 -0.0612793 C12.67963398 -0.06535482 13.6966703 -0.06943035 14.74452591 -0.07362938 C20.12541755 -0.09448417 25.50628372 -0.10878963 30.88720703 -0.11816406 C36.4481037 -0.12923972 42.00860146 -0.16365478 47.56935692 -0.20333576 C51.84329989 -0.22945943 56.11714708 -0.23785202 60.39116287 -0.24144554 C62.44129766 -0.24632087 64.49142791 -0.25796165 66.54148483 -0.27648354 C69.40949064 -0.30078904 72.27645433 -0.29992587 75.14453125 -0.29296875 C76.414925 -0.31218384 76.414925 -0.31218384 77.71098328 -0.33178711 C81.68130719 -0.29666953 83.73371843 -0.10569293 87.20523071 1.99153137 C89.97214596 5.02044476 90.20166016 7.11681462 90.20166016 11.17700195 C88.85603616 14.12455927 88.11611471 15.71977467 85.20166016 17.17700195 C82.2382634 17.29659694 79.29767664 17.35541219 76.33325195 17.36987305 C75.41440216 17.37805054 74.49555237 17.38622803 73.54885864 17.39465332 C70.49953875 17.41952343 67.45026543 17.43602693 64.40087891 17.45043945 C62.84085113 17.45842497 62.84085113 17.45842497 61.24930763 17.46657181 C55.74523276 17.49330962 50.24118063 17.51268306 44.73706055 17.52709961 C39.04713409 17.54375464 33.35778603 17.58853809 27.66807842 17.63947105 C23.2971987 17.67309811 18.92645707 17.68467205 14.55545998 17.69032669 C12.45785918 17.69705105 10.36026784 17.7123037 8.26279259 17.7362175 C5.32746365 17.76777591 2.39370543 17.76791978 -0.54174805 17.76049805 C-1.40894974 17.77690338 -2.27615143 17.79330872 -3.16963196 17.81021118 C-7.51465507 17.76521834 -9.27776744 17.57227382 -12.84562683 14.8631897 C-15.39001554 11.36308204 -15.41505791 9.41693868 -14.79833984 5.17700195 C-11.47034834 -0.84507791 -6.18192039 0.01953352 0 0 Z " fill="#00ff00" transform="translate(386.79833984375,399.822998046875)"/>
<path d="M0 0 C2.9336317 0.60841232 4.19624742 2.00599639 5.90234375 4.39453125 C6.98610807 7.64582422 6.88814101 9.65912493 6.69140625 13.05859375 C5.76199961 24.76383065 5.76199961 24.76383065 9.36914062 35.44775391 C13.38288491 38.86928886 18.02587692 40.53759852 22.90234375 42.39453125 C25.19152483 44.05855444 25.76307796 44.76435357 26.37109375 47.515625 C26.45490598 53.72820621 26.45490598 53.72820621 23.77734375 56.95703125 C20.42708109 58.63216258 18.61137358 58.6845068 14.90234375 58.39453125 C12.35693359 57.35644531 12.35693359 57.35644531 9.86328125 55.91015625 C8.49816406 55.12511719 8.49816406 55.12511719 7.10546875 54.32421875 C6.1721875 53.76992187 5.23890625 53.215625 4.27734375 52.64453125 C3.33632812 52.10570312 2.3953125 51.566875 1.42578125 51.01171875 C-7.62308717 45.74178117 -7.62308717 45.74178117 -10.09765625 42.39453125 C-10.49538244 39.41383612 -10.65912684 36.81048822 -10.62890625 33.83203125 C-10.63273315 33.00372803 -10.63656006 32.1754248 -10.64050293 31.32202148 C-10.6432205 29.57371808 -10.63587006 27.82537391 -10.61914062 26.07714844 C-10.59772707 23.40337348 -10.61894569 20.73228529 -10.64453125 18.05859375 C-10.64188794 16.358067 -10.6367629 14.65754191 -10.62890625 12.95703125 C-10.64105164 11.76001587 -10.64105164 11.76001587 -10.65344238 10.53881836 C-10.59224404 6.91032341 -10.42210724 4.81993731 -8.18945312 1.89257812 C-5.28837543 -0.18503774 -3.46450983 -0.17419323 0 0 Z " fill="#00ff00" transform="translate(111.09765625,60.60546875)"/>
</svg>