<svg version="1.1" xmlns="http://www.w3.org/2000/svg" width="512px" height="512px" transform="rotate(0) scale(1, 1)">
<path d="M0 0 C0.680625 -0.03738281 1.36125 -0.07476562 2.0625 -0.11328125 C4 0.3125 4 0.3125 5.59767312 1.947896 C7.40763207 4.99984931 7.37490402 7.0306516 7.37473011 10.57194519 C7.38193665 11.86629895 7.3891432 13.16065271 7.39656812 14.49422932 C7.38939074 15.9338984 7.38193183 17.3735661 7.3742218 18.81323242 C7.37696135 20.34001283 7.38101253 21.86679135 7.38626546 23.39356518 C7.3968766 27.59546133 7.38870765 31.79714551 7.37751496 35.9990325 C7.36869001 40.52806122 7.37711152 45.05706169 7.38337708 49.58609009 C7.39287708 58.46098539 7.38625472 67.33579953 7.37411413 76.21068883 C7.36050949 86.53966578 7.36213063 96.86862329 7.36424746 107.19760692 C7.36743911 125.62361662 7.35575959 144.04958769 7.33618164 162.47558594 C7.31717674 180.36687395 7.31009388 198.25811668 7.31567383 216.14941406 C7.32172787 235.61849455 7.32156142 255.08755512 7.310188 274.55663395 C7.30898067 276.63155683 7.30777468 278.70647971 7.30657005 280.78140259 C7.30596651 281.80238059 7.30536298 282.82335859 7.30474115 283.87527531 C7.30085731 291.07996895 7.30125743 298.28465518 7.3031559 305.48934937 C7.30527524 314.26603989 7.30007364 323.04269071 7.28554235 331.81937003 C7.27828504 336.29980058 7.27423269 340.78017321 7.27878571 345.26060867 C7.28284904 349.3587743 7.27773407 353.45682011 7.26515963 357.55496752 C7.26222119 359.0407746 7.2626799 360.52659291 7.26680271 362.01239717 C7.27188436 364.0259475 7.26354833 366.03951851 7.25447559 368.05305481 C7.25360882 369.17333982 7.25274204 370.29362482 7.251849 371.44785786 C7.00148057 374.29565938 6.57066393 375.94568209 5 378.3125 C1.68541297 379.96979352 -1.43034537 379.9180273 -5 379.3125 C-12.86206697 375.89270135 -19.61967234 370.83808231 -26.3125 365.5625 C-28.16150002 364.12858161 -30.01176016 362.69628662 -31.86328125 361.265625 C-32.74838379 360.58048828 -33.63348633 359.89535156 -34.54541016 359.18945312 C-38.16725427 356.41993477 -41.88078644 353.79996011 -45.61254883 351.18066406 C-51.01204257 347.36033462 -56.25118064 343.3362699 -61.5 339.3125 C-67.9182208 334.39302234 -74.36704551 329.54965153 -80.97583008 324.88964844 C-85.27043248 321.85488888 -89.48809007 318.72749646 -93.6875 315.5625 C-99.53781035 311.15342612 -105.41223552 306.77953439 -111.3125 302.4375 C-112.10309814 301.85548828 -112.89369629 301.27347656 -113.70825195 300.67382812 C-117.79408744 297.66743374 -121.88263031 294.66475278 -125.97265625 291.6640625 C-127.20471802 290.75889893 -127.20471802 290.75889893 -128.46166992 289.83544922 C-129.99606229 288.70821023 -131.53128794 287.58210395 -133.06762695 286.45751953 C-139.79768274 281.51141588 -146.37377202 276.40959845 -153 271.3125 C-176.76 270.9825 -200.52 270.6525 -225 270.3125 C-225 217.5125 -225 164.7125 -225 110.3125 C-189.36 109.8175 -189.36 109.8175 -153 109.3125 C-147.06 104.6925 -141.12 100.0725 -135 95.3125 C-131.86467492 92.95925526 -128.73096739 90.61867719 -125.5625 88.3125 C-123.9674447 87.14323356 -122.37239271 85.97396259 -120.77734375 84.8046875 C-119.18497273 83.64051982 -117.59252522 82.47645674 -116 81.3125 C-106.09863282 74.0661905 -96.24556523 66.7675174 -86.5 59.3125 C-75.98837925 51.27147686 -65.34369567 43.42190059 -54.66601562 35.60351562 C-52.31784433 33.88309272 -49.97103751 32.16083136 -47.625 30.4375 C-46.852771 29.8707959 -46.08054199 29.3040918 -45.28491211 28.72021484 C-40.9848034 25.5524607 -36.72091229 22.34339992 -32.48828125 19.0859375 C-31.56257324 18.37421387 -30.63686523 17.66249023 -29.68310547 16.92919922 C-27.91141409 15.56333009 -26.14323586 14.19288604 -24.37939453 12.81689453 C-8.14284445 0.29301902 -8.14284445 0.29301902 0 0 Z " fill="#ffffff" transform="translate(225,65.6875)"/>
<path d="M0 0 C1.32810762 1.27561325 2.64055237 2.56771813 3.9375 3.875 C4.90816406 4.79152344 4.90816406 4.79152344 5.8984375 5.7265625 C10.53398675 10.17888846 14.60337503 14.98641748 18.61328125 20.00390625 C20.09465831 21.83384261 21.61007393 23.6370934 23.16796875 25.40234375 C32.22526705 35.73403578 39.53812311 47.32967644 46.9375 58.875 C47.42782715 59.63973633 47.9181543 60.40447266 48.42333984 61.19238281 C70.54337856 96.1448534 84.25695313 136.19655496 90.9375 176.875 C91.09976074 177.80231934 91.26202148 178.72963867 91.42919922 179.68505859 C96.75851875 211.17149233 96.3850505 246.4386476 90.9375 277.875 C90.76589355 278.92478027 90.59428711 279.97456055 90.41748047 281.05615234 C85.29832307 311.96781143 75.52173592 341.66414598 61.9375 369.875 C61.54788086 370.69226563 61.15826172 371.50953125 60.75683594 372.3515625 C50.52805136 393.5569713 37.16529775 413.90740417 21.9375 431.875 C21.17493896 432.78548096 21.17493896 432.78548096 20.39697266 433.71435547 C-0.8927373 459.06654834 -0.8927373 459.06654834 -9.89453125 460.24609375 C-16.91544612 460.40252305 -21.83279724 459.80298914 -27.0625 454.875 C-31.26712852 449.72433007 -31.70364783 445.31815154 -31.43359375 438.73046875 C-30.46150982 431.2505387 -25.66163004 427.31585388 -20.48828125 422.3203125 C-17.16552642 418.97080441 -14.24856709 415.35817734 -11.3046875 411.67578125 C-9.85349179 409.86305072 -8.38068225 408.067327 -6.8828125 406.29296875 C3.38059855 394.11201649 12.12372683 380.73856205 19.9375 366.875 C20.36530762 366.11654785 20.79311523 365.3580957 21.23388672 364.57666016 C57.73203558 299.11130925 65.26593352 221.56126853 45.49609375 149.67822266 C33.76695936 108.56708066 12.81654432 70.82347904 -15.9296875 39.22265625 C-19.02412921 35.81650338 -22.05296629 32.35617705 -25.0625 28.875 C-25.56007813 28.30652344 -26.05765625 27.73804688 -26.5703125 27.15234375 C-31.11523441 21.86724884 -31.47636949 17.75917462 -31.40234375 10.95703125 C-30.88936005 6.30479978 -29.28472449 3.23485719 -26.0625 -0.125 C-17.98535707 -6.56793029 -7.82448016 -6.73304973 0 0 Z " fill="#ffffff" transform="translate(418.0625,28.125)"/>
<path d="M0 0 C9.1432581 6.54722589 16.11916543 15.84255787 22.81689453 24.75146484 C24.16206405 26.53272423 25.53019526 28.29416713 26.90234375 30.0546875 C64.47208887 78.94728346 78.96120443 142.92723456 71.1875 203.56640625 C65.97259833 241.30815225 52.36828079 277.51494529 30.1875 308.56640625 C29.73149414 309.21174316 29.27548828 309.85708008 28.80566406 310.52197266 C6.2942891 342.18776743 6.2942891 342.18776743 -5.8125 345.56640625 C-12.74912668 346.38939586 -18.21721738 344.85644283 -23.8125 340.56640625 C-27.03577129 336.36245287 -29.02898887 331.75739548 -29.375 326.44140625 C-28.29980499 319.03450731 -25.15036682 314.57632018 -19.79296875 309.52734375 C-15.76015544 305.53430177 -12.32278064 301.01630747 -8.8125 296.56640625 C-8.06742187 295.62667969 -7.32234375 294.68695313 -6.5546875 293.71875 C9.86807156 272.46071868 20.58531187 248.18665406 28.1875 222.56640625 C28.49816406 221.52742187 28.80882812 220.4884375 29.12890625 219.41796875 C29.93254454 216.48111258 30.58617152 213.55157265 31.1875 210.56640625 C31.32285156 209.91768555 31.45820313 209.26896484 31.59765625 208.60058594 C36.78925063 182.6543068 35.90562197 154.30261915 30.1875 128.56640625 C30.00026367 127.70821289 29.81302734 126.85001953 29.62011719 125.96582031 C21.84001566 91.33832179 4.02296825 61.29537036 -19.05078125 34.7578125 C-29.37188944 22.8618065 -29.37188944 22.8618065 -29.125 14.68359375 C-28.35160583 9.44384822 -25.82411739 5.1711195 -21.875 1.69140625 C-14.83404666 -3.19415321 -7.60997519 -4.26574781 0 0 Z " fill="#ffffff" transform="translate(354.8125,84.43359375)"/>
<path d="M0 0 C1.37992738 1.32790631 2.73211817 2.68495911 4.0625 4.0625 C4.8565625 4.87074219 5.650625 5.67898437 6.46875 6.51171875 C33.31093894 34.88656354 47.28900893 74.23037493 47.0625 113.0625 C45.47837739 154.46184726 30.31775718 194.85916402 0.0625 224.0625 C-5.37927358 227.64804177 -9.38110933 228.50700106 -15.9375 228.0625 C-22.34259592 225.96427892 -26.00845553 222.92280731 -29.75 217.375 C-31.74555536 211.80845085 -31.96835486 206.52386421 -29.66796875 201.03125 C-27.96728876 198.11360487 -26.21939796 195.97922966 -23.875 193.5625 C-1.51092394 169.23793675 9.37557781 138.11316596 8.4453125 105.19140625 C7.11003326 78.35565265 -3.86191562 51.85673504 -22.25 32.25 C-27.63463381 26.45502862 -31.05073684 21.99603994 -31.375 13.9375 C-31.07597282 7.82613198 -29.16918987 4.00972143 -24.75 -0.1875 C-17.0133766 -6.35084778 -7.6624216 -6.41361647 0 0 Z " fill="#ffffff" transform="translate(307.9375,143.9375)"/>
</svg>