<svg version="1.1" xmlns="http://www.w3.org/2000/svg" width="512px" height="512px" transform="rotate(0) scale(1, 1)">
<path d="M0 0 C1.369778 -0.00417577 2.73955255 -0.00965462 4.1093207 -0.01631981 C7.86345209 -0.0307613 11.61736369 -0.02653382 15.37150705 -0.019153 C19.42408388 -0.01442042 23.47661322 -0.02693195 27.5291748 -0.03717041 C35.46451338 -0.0543618 43.39977278 -0.05519774 51.33512514 -0.04995751 C57.78512702 -0.04591532 64.23510551 -0.04735994 70.68510628 -0.05270576 C71.603268 -0.05345419 72.52142972 -0.05420261 73.46741452 -0.05497371 C75.33268193 -0.05650519 77.19794935 -0.05804354 79.06321675 -0.05958868 C96.55307937 -0.07331487 114.04289725 -0.06787512 131.53275884 -0.05640347 C147.53160676 -0.04647023 163.53033905 -0.0594131 179.52916913 -0.08333766 C195.95982172 -0.10772272 212.39042044 -0.11733803 228.82109076 -0.11068493 C238.04446721 -0.10719149 247.26775471 -0.10943309 256.49111748 -0.12693596 C264.34246302 -0.14165049 272.19365698 -0.14230316 280.04499953 -0.12486505 C284.05008622 -0.1163466 288.05490203 -0.11422596 292.05997467 -0.1295166 C295.72844652 -0.1433487 299.39641505 -0.13862008 303.06485767 -0.11927737 C305.01609863 -0.11373286 306.96736511 -0.12780124 308.91855758 -0.14263147 C316.90307003 -0.07554612 322.20354907 0.90907816 328.59632874 5.95799255 C335.59606573 14.17597287 336.04648304 23.55146318 335.90101624 33.95799255 C335.89677139 35.12023346 335.89252655 36.28247437 335.88815308 37.47993469 C335.87148675 41.15776158 335.83385643 44.83502141 335.79554749 48.51268005 C335.78048511 51.02048459 335.76679944 53.52829779 335.75453186 56.03611755 C335.72162275 62.15349545 335.67154464 68.27054722 335.60804749 74.38768005 C336.57226624 74.36447693 337.53648499 74.3412738 338.52992249 74.31736755 C339.79320374 74.29932068 341.05648499 74.2812738 342.35804749 74.26268005 C343.61101624 74.23947693 344.86398499 74.2162738 346.15492249 74.19236755 C349.35824751 74.3735511 350.99207484 74.62487834 353.60804749 76.38768005 C355.70484151 79.08355809 355.6031557 80.48062405 355.42054749 83.95018005 C354.60804749 87.38768005 354.60804749 87.38768005 351.60804749 90.38768005 C346.32804749 90.38768005 341.04804749 90.38768005 335.60804749 90.38768005 C335.60804749 165.95768005 335.60804749 241.52768005 335.60804749 319.38768005 C353.42804749 319.38768005 371.24804749 319.38768005 389.60804749 319.38768005 C389.54522464 290.91990585 389.47009406 262.45225186 389.37233257 233.98457813 C389.32733898 220.76698414 389.28793253 207.54941731 389.26161194 194.33177185 C389.23866074 182.81324326 389.20529496 171.29480037 389.15934592 159.77633971 C389.13537492 153.67562595 389.11667155 147.57499725 389.11043358 141.47423744 C389.1044003 135.73443706 389.08446402 129.99485446 389.05377197 124.25513458 C389.04496355 122.14641263 389.04127494 120.03766226 389.04303932 117.92892265 C389.04468593 115.05337485 389.02804498 112.1784958 389.0067749 109.30303955 C389.01162248 108.46548608 389.01647005 107.62793261 389.02146453 106.76499873 C388.95341261 101.20357731 387.94679583 97.81638026 383.98304749 93.70018005 C381.55916087 92.36066377 379.80961447 91.99541907 377.10804749 91.51268005 C373.80228696 90.84170886 372.66616947 90.43611504 369.98304749 88.20018005 C368.1502813 84.45134013 368.50317657 82.36521536 369.60804749 78.38768005 C371.18690714 76.32829789 372.29947171 75.54196794 374.60804749 74.38768005 C381.76428292 74.32744238 387.56973617 75.55141346 393.60804749 79.38768005 C394.47429749 79.92393005 395.34054749 80.46018005 396.23304749 81.01268005 C401.84889238 86.62852495 405.72510329 93.5724959 405.74506187 101.55465794 C405.75267369 103.16892102 405.75267369 103.16892102 405.76043928 104.81579548 C405.76093703 106.00253878 405.76143479 107.18928208 405.76194763 108.4119873 C405.76632989 109.6693126 405.77071214 110.9266379 405.77522719 112.22206396 C405.78719604 115.71906517 405.79284187 119.21605259 405.79740834 122.71307027 C405.80336336 126.48216938 405.81497356 130.25125199 405.82569885 134.02033997 C405.8502267 143.12710816 405.86485136 152.23388182 405.87775892 161.34067288 C405.88147083 163.91302385 405.88544407 166.48537428 405.88951159 169.05772471 C405.91475005 185.03239228 405.93680276 201.00706071 405.94923973 216.98174381 C405.95216942 220.68240423 405.95513109 224.38306462 405.95814514 228.08372498 C405.95889119 229.00350533 405.95963724 229.92328569 405.9604059 230.87093817 C405.9730557 245.76616045 406.0062733 260.66126325 406.04794697 275.55642969 C406.09038479 290.85016158 406.11393697 306.14383235 406.11916029 321.43762296 C406.12257251 330.02400855 406.13430516 338.61020751 406.16726303 347.19653511 C406.19529024 354.51030565 406.20625125 361.82385129 406.19506757 369.13767136 C406.18988751 372.86762663 406.19272435 376.59711115 406.21753311 380.32699776 C406.24424204 384.37648602 406.23194311 388.42494232 406.21604919 392.4744873 C406.22993128 393.64561555 406.24381337 394.8167438 406.25811613 396.02336079 C406.16740553 405.41391309 403.37609296 413.61963458 396.60804749 420.38768005 C386.71428116 428.11294965 375.62025391 427.67399648 363.62342834 427.61473083 C362.01620999 427.61416591 360.40899112 427.61448486 358.80177307 427.61561584 C354.46148955 427.61618719 350.12131767 427.6044683 345.78105998 427.59046793 C341.23670573 427.57792412 336.69234863 427.5767872 332.14797974 427.57441711 C323.55279965 427.56821305 314.95767073 427.5518168 306.36251312 427.53171813 C296.5728969 427.50932566 286.78327817 427.4983573 276.99364269 427.48832726 C256.86507609 427.46744958 236.7365796 427.43078681 216.60804749 427.38768005 C216.60804749 440.25768005 216.60804749 453.12768005 216.60804749 466.38768005 C220.56804749 467.04768005 224.52804749 467.70768005 228.60804749 468.38768005 C238.14310298 471.83340508 245.21926873 478.56826289 249.98304749 487.45018005 C252.88412667 493.93268 254.30596 500.29223611 253.60804749 507.38768005 C252.06855774 510.08627892 252.06855774 510.08627892 249.60804749 512.38768005 C246.82532431 512.89087836 244.64719637 513.06495337 241.86488342 513.02259827 C241.08024593 513.03039822 240.29560844 513.03819817 239.48719406 513.04623449 C236.85512744 513.0661958 234.2245001 513.05037461 231.59242249 513.03465271 C229.70671239 513.04142702 227.82100891 513.0503291 225.93531799 513.061203 C220.81131821 513.0840251 215.68782098 513.07514793 210.56381226 513.05930758 C205.20582203 513.04666369 199.84787531 513.05838448 194.48988342 513.0662384 C185.4914323 513.07533937 176.49318624 513.06333528 167.49476624 513.03953552 C157.08588095 513.01232347 146.67748532 513.02113731 136.26861191 513.04866755 C127.33771442 513.07134484 118.40696449 513.07456544 109.47604752 513.0614742 C104.13939129 513.05367212 98.80296535 513.05265896 93.46632385 513.06915665 C88.44944293 513.08358201 83.43319432 513.073615 78.41638184 513.04468536 C76.57330374 513.03806421 74.73017259 513.03998976 72.88711548 513.05099869 C70.37442499 513.06462566 67.86377153 513.04757522 65.35121155 513.02259827 C64.61852932 513.03375188 63.88584709 513.04490548 63.13096237 513.05639708 C59.42439499 512.98472529 57.89006242 512.6532232 55.15144348 510.07456017 C52.14861165 504.8469652 53.40154627 499.62801042 54.67054749 494.01268005 C57.75197744 483.58211199 64.91712227 475.44695383 74.29554749 470.13768005 C78.60804749 468.38768005 78.60804749 468.38768005 90.60804749 466.38768005 C90.60804749 453.51768005 90.60804749 440.64768005 90.60804749 427.38768005 C84.9632428 427.42248474 79.31843811 427.45728943 73.50257874 427.4931488 C69.92509442 427.50847859 66.34765064 427.52292053 62.77015686 427.53416443 C57.092581 427.55209337 51.41515038 427.57329668 45.73768616 427.61399841 C41.16004533 427.6466099 36.58256027 427.66453689 32.00481224 427.67231178 C30.25890844 427.67785207 28.51301311 427.68867094 26.76717567 427.70487022 C24.32047267 427.72666847 21.87441216 427.72964601 19.42762756 427.72825623 C18.34652962 427.74443497 18.34652962 427.74443497 17.24359131 427.76094055 C12.44913261 427.73149957 9.05570614 426.83533871 5.60804749 423.38768005 C5.01468053 416.14860317 5.01468053 416.14860317 7.24591941 413.28730255 C10.29184189 410.83777286 11.94695619 410.88787689 15.827878 410.8882513 C17.11341487 410.87865381 18.39895175 410.86905632 19.72344428 410.85916799 C21.15318684 410.86872393 22.582927 410.87864284 24.01266479 410.8888855 C25.52905988 410.88515984 27.04545149 410.87967163 28.56183451 410.87256867 C32.73519037 410.8580864 36.90817413 410.86850697 41.08151686 410.88285172 C45.57993854 410.89394559 50.07830379 410.88197992 54.57672119 410.87266541 C62.37421922 410.85956031 70.17161009 410.86074927 77.96911049 410.87125969 C89.25065676 410.88618359 100.53207704 410.87629624 111.81361612 410.8597405 C130.1263629 410.83326393 148.43908145 410.82242112 166.75184631 410.82347107 C167.84829437 410.82352939 168.94474243 410.82358771 170.07441618 410.8236478 C174.51700954 410.82391365 178.9596029 410.82423094 183.40219625 410.82461106 C195.62584301 410.82557697 207.84948891 410.8242501 220.07313538 410.82151794 C221.16734103 410.82127805 222.26154669 410.82103816 223.38891009 410.820791 C241.62861457 410.81638555 259.86829283 410.80015598 278.10798186 410.77629715 C289.36174275 410.76221722 300.61540409 410.75935487 311.86916842 410.77092005 C319.58015522 410.77823877 327.29109184 410.77518887 335.0020738 410.76396161 C339.45252917 410.75788369 343.90284423 410.75681284 348.35329056 410.76883888 C352.42759813 410.7797824 356.50165681 410.77698611 360.57595392 410.76329542 C362.04970467 410.76079965 363.52347463 410.76338427 364.99720476 410.7715693 C376.50513635 410.97551182 376.50513635 410.97551182 386.48304749 405.88768005 C400.59689264 387.06921985 389.25167816 358.9080557 389.60804749 335.38768005 C233.84804749 335.38768005 78.08804749 335.38768005 -82.39195251 335.38768005 C-86.31024989 372.57532764 -86.31024989 372.57532764 -78.39195251 406.38768005 C-74.30304273 410.08088889 -70.58797494 410.50684474 -65.21202087 410.5453949 C-64.18092697 410.55565704 -63.14983307 410.56591919 -62.0874939 410.57649231 C-60.42642357 410.58744431 -60.42642357 410.58744431 -58.73179626 410.59861755 C-56.38869014 410.62667128 -54.04559127 410.65533562 -51.70249939 410.68455505 C-48.0067809 410.72592228 -44.31119992 410.76280963 -40.61534119 410.78904724 C-37.0497092 410.81655727 -33.48469309 410.86241171 -29.91929626 410.91111755 C-28.80989182 410.91437042 -27.70048737 410.91762329 -26.5574646 410.92097473 C-25.52952286 410.9375412 -24.50158112 410.95410767 -23.44248962 410.97117615 C-22.08491798 410.98330643 -22.08491798 410.98330643 -20.69992065 410.99568176 C-17.91597589 411.4685226 -17.04487606 412.12759887 -15.39195251 414.38768005 C-14.58752853 417.79101231 -14.07336303 420.31606087 -15.07945251 423.70018005 C-16.69498338 425.77729116 -17.95788201 426.39619705 -20.39195251 427.38768005 C-22.78652954 427.64164734 -22.78652954 427.64164734 -25.47666931 427.64646912 C-26.48839706 427.65277344 -27.50012482 427.65907776 -28.54251099 427.66557312 C-29.63106888 427.66152466 -30.71962677 427.6574762 -31.84117126 427.65330505 C-33.53195549 427.65617523 -33.53195549 427.65617523 -35.25689697 427.65910339 C-37.64330773 427.66046445 -40.02972591 427.65677359 -42.41612244 427.64842224 C-46.04821181 427.63777166 -49.67980092 427.6482947 -53.31187439 427.66111755 C-55.6341411 427.65979497 -57.9564075 427.65723054 -60.27867126 427.65330505 C-61.357108 427.65735352 -62.43554474 427.66140198 -63.54666138 427.66557312 C-73.88303434 427.60215264 -82.44459836 426.43871607 -90.39195251 419.38768005 C-95.18549485 413.56987654 -98.63595962 407.63914254 -98.65201473 399.97460651 C-98.65908032 398.89444903 -98.66614591 397.81429154 -98.67342561 396.70140201 C-98.67101053 395.52048439 -98.66859545 394.33956677 -98.66610718 393.12286377 C-98.67134386 391.86382962 -98.67658054 390.60479548 -98.6819759 389.30760878 C-98.69614998 385.81510393 -98.69781931 382.32268809 -98.69737899 378.83015859 C-98.69902774 375.06244847 -98.71209541 371.29477497 -98.72357178 367.52708435 C-98.74641715 359.28936893 -98.75434199 351.05167928 -98.75939822 342.81393647 C-98.76265599 337.66876673 -98.76917899 332.52360446 -98.77639961 327.37843895 C-98.79596549 313.12874626 -98.81236959 298.87906051 -98.81527615 284.62935352 C-98.81546372 283.71755287 -98.81565129 282.80575222 -98.81584454 281.86632125 C-98.81621079 280.01792824 -98.81657449 278.16953524 -98.81693565 276.32114223 C-98.81711846 275.40361485 -98.81730127 274.48608747 -98.81748962 273.54075623 C-98.81776045 272.1627822 -98.81776045 272.1627822 -98.81803674 270.75697031 C-98.82157765 255.87480168 -98.84859483 240.99277783 -98.88598751 226.1106594 C-98.92408403 210.82589733 -98.94343372 195.54120707 -98.94373566 180.25639647 C-98.94431995 171.67675676 -98.95279366 163.0972897 -98.98173332 154.51769447 C-99.0062653 147.21128191 -99.01351796 139.90510498 -98.9984858 132.59866235 C-98.99132404 128.87275103 -98.99214185 125.14730481 -99.01489639 121.42144585 C-99.03936272 117.37642817 -99.02483021 113.33246537 -99.00668335 109.28741455 C-99.01988332 108.11765054 -99.03308329 106.94788653 -99.04668325 105.74267513 C-98.95063281 96.3579798 -96.15564742 88.15137496 -89.39195251 81.38768005 C-81.26304797 75.16824973 -73.18095453 74.0778505 -63.20445251 74.19236755 C-61.78978699 74.1966124 -61.78978699 74.1966124 -60.34654236 74.20094299 C-57.36154495 74.21205563 -54.37685783 74.23714333 -51.39195251 74.26268005 C-49.35680063 74.27272139 -47.32164399 74.28184521 -45.28648376 74.2900238 C-40.32152214 74.3119657 -35.35678977 74.34643332 -30.39195251 74.38768005 C-30.40194527 73.42500717 -30.40194527 73.42500717 -30.41213989 72.44288635 C-30.47882563 65.72629334 -30.52389046 59.00979533 -30.55674744 52.29295349 C-30.57177686 49.79063594 -30.59220601 47.28834448 -30.61827087 44.78611755 C-30.6549113 41.1766768 -30.67173798 37.56758622 -30.68492126 33.95799255 C-30.70040512 32.8502951 -30.71588898 31.74259766 -30.73184204 30.60133362 C-30.73362185 22.27269815 -30.0476645 13.36643256 -24.14195251 6.95018005 C-23.60054626 6.33271912 -23.05914001 5.71525818 -22.50132751 5.0790863 C-15.59735811 -0.45687435 -8.4970245 -0.04033934 0 0 Z M-13.39195251 20.38768005 C-13.76583993 23.44685807 -13.89858313 26.13972869 -13.84605408 29.19529724 C-13.84663818 30.08345627 -13.84722229 30.9716153 -13.8478241 31.88668823 C-13.84503938 34.81970933 -13.81392902 37.7517117 -13.78257751 40.68455505 C-13.77511651 42.71907496 -13.76942291 44.75360205 -13.76542664 46.78813171 C-13.75015933 52.141117 -13.71086779 57.49366767 -13.66661072 62.84648132 C-13.62568183 68.30937317 -13.60742069 73.7723353 -13.58726501 79.2353363 C-13.54437482 89.9529751 -13.47611 100.67029143 -13.39195251 111.38768005 C-11.68881897 111.40955383 -11.68881897 111.40955383 -9.95127869 111.43186951 C-5.74099643 111.48981681 -1.53125102 111.56704947 2.67860413 111.65013123 C4.50110668 111.68339746 6.32371268 111.71142412 8.14637756 111.7341156 C10.76555998 111.76763087 13.38379296 111.81994357 16.00257874 111.8759613 C16.81829849 111.88235123 17.63401825 111.88874115 18.47445679 111.89532471 C24.15869464 112.04326098 24.15869464 112.04326098 26.32000732 113.69985962 C28.48643284 116.53869755 28.02904506 118.95955694 27.60804749 122.38768005 C17.87265957 132.12306796 0.3709394 127.01571 -13.39195251 127.38768005 C-13.39195251 190.74768005 -13.39195251 254.10768005 -13.39195251 319.38768005 C96.16804749 319.38768005 205.72804749 319.38768005 318.60804749 319.38768005 C318.60804749 256.02768005 318.60804749 192.66768005 318.60804749 127.38768005 C299.81351624 127.35029724 281.01898499 127.31291443 261.65492249 127.2743988 C249.7786133 127.24413826 237.90231291 127.21314417 226.02601624 127.17869568 C219.78952599 127.16064489 213.55303525 127.14278083 207.31654358 127.12522888 C206.53487654 127.12302119 205.75320951 127.1208135 204.94785559 127.11853892 C192.32039652 127.08314712 179.69293751 127.05830108 167.06544718 127.03733303 C154.11092593 127.01558788 141.15646918 126.98254974 128.20200276 126.93897849 C120.20525677 126.91243955 112.20859116 126.89476073 104.21180329 126.88833401 C98.08488426 126.88246762 91.95811294 126.86090652 85.83125496 126.83340454 C83.31413352 126.82458404 80.79698819 126.82090997 78.27985191 126.82267189 C74.852232 126.82431413 71.42517752 126.80771476 67.99763489 126.78640747 C66.99374875 126.79125505 65.98986261 126.79610262 64.95555568 126.8010971 C64.03842524 126.79164055 63.1212948 126.78218401 62.17637253 126.77244091 C61.38503536 126.77054231 60.59369819 126.76864371 59.77838111 126.76668757 C57.02665992 126.28615176 55.63174025 125.2857868 53.60804749 123.38768005 C53.21742249 120.9072113 53.21742249 120.9072113 53.35804749 118.20018005 C53.39414124 117.29912537 53.43023499 116.39807068 53.46742249 115.4697113 C53.51382874 114.78264099 53.56023499 114.09557068 53.60804749 113.38768005 C56.42724919 112.44794615 58.1508888 112.25877423 61.06894207 112.24901485 C61.98756486 112.24354041 62.90618764 112.23806597 63.85264748 112.23242563 C65.36868238 112.23095847 65.36868238 112.23095847 66.91534424 112.22946167 C67.98779823 112.22452369 69.06025222 112.21958572 70.16520482 112.2144981 C73.77660324 112.19907947 77.38798382 112.19075066 80.99940491 112.18235779 C83.58109699 112.1727827 86.16278749 112.16277284 88.74447632 112.15235901 C94.31183312 112.13059076 99.87919233 112.11244755 105.44656944 112.09675407 C113.49609921 112.07405862 121.54560265 112.04591534 129.5951101 112.0164348 C142.65434258 111.96875491 155.71358582 111.9254918 168.77284241 111.88499451 C181.46002541 111.8456416 194.14719884 111.80421587 206.83436584 111.75999451 C208.00707285 111.7559081 208.00707285 111.7559081 209.20347091 111.75173914 C213.12548579 111.73805969 217.04750053 111.72433941 220.9695152 111.71059883 C253.51567291 111.59662781 286.06185047 111.48981984 318.60804749 111.38768005 C318.70067292 99.59190399 318.77177472 87.79621426 318.81529617 76.00014877 C318.83618291 70.52291277 318.86452068 65.04592533 318.9098053 59.5688324 C318.95322385 54.28444725 318.9771764 49.00030138 318.98755646 43.71575165 C318.99495497 41.69827252 319.00940235 39.68080669 319.03096771 37.66342926 C319.05994849 34.84042929 319.0640057 32.01842171 319.06214905 29.19529724 C319.0837207 27.94049309 319.0837207 27.94049309 319.10572815 26.66033936 C319.08120805 23.22139486 319.04398378 20.96103826 316.92429924 18.17315722 C314.07078615 15.97353343 312.64073377 15.88668235 309.06700134 15.88431549 C307.93288378 15.8738845 306.79876621 15.86345351 305.63028145 15.85270643 C303.76085034 15.86609076 303.76085034 15.86609076 301.85365295 15.87974548 C300.51660927 15.87513751 299.17957065 15.86878529 297.84254265 15.86083651 C294.16505514 15.84410537 290.4879817 15.85240641 286.81049252 15.86478138 C282.84586692 15.87381421 278.88131361 15.85987096 274.91670227 15.84886169 C267.14870613 15.83105291 259.38086437 15.83492691 251.61286211 15.84651226 C245.30100262 15.85553705 238.98918647 15.85677472 232.67732239 15.85241699 C231.7798022 15.85180406 230.88228201 15.85119113 229.95756423 15.85055962 C228.13440528 15.84928075 226.31124634 15.8479839 224.48808742 15.84666926 C207.38271703 15.83525655 190.27743232 15.84838798 173.17207599 15.86987072 C158.48727878 15.88774233 143.80260804 15.88463842 129.11781311 15.86619568 C112.07465341 15.84480114 95.03156885 15.83635525 77.9883976 15.84864473 C76.17185594 15.84991896 74.35531427 15.85117644 72.53877258 15.85241699 C71.19802919 15.85334265 71.19802919 15.85334265 69.83020008 15.854287 C63.52417696 15.85774416 57.21820142 15.85190369 50.91218567 15.84249878 C43.22972562 15.83129314 35.5474291 15.8342885 27.86498785 15.85562176 C23.94345694 15.86615163 20.0221989 15.87022132 16.10066986 15.85702515 C12.5130754 15.84513505 8.92600761 15.85160698 5.33846116 15.87293535 C3.42091148 15.87954397 1.50332545 15.866435 -0.41418648 15.85270643 C-2.11536283 15.86835292 -2.11536283 15.86835292 -3.85090637 15.88431549 C-4.8314543 15.8849649 -5.81200222 15.88561431 -6.82226372 15.8862834 C-10.16439668 16.53839905 -11.3503295 17.70246817 -13.39195251 20.38768005 Z M-79.76695251 95.38768005 C-83.11115727 99.50362437 -82.52958663 104.03047101 -82.51220703 109.06253052 C-82.51306146 109.95939176 -82.51391588 110.856253 -82.5147962 111.78029186 C-82.51644853 114.79747192 -82.51093362 117.81459687 -82.50547791 120.83177185 C-82.50519595 122.98982237 -82.50535392 125.14787299 -82.50592041 127.30592346 C-82.50620808 133.17540169 -82.50031629 139.04485961 -82.49334645 144.91433311 C-82.48710782 151.04426709 -82.48650871 157.17420151 -82.48532104 163.30413818 C-82.48220924 174.91693846 -82.47399786 186.52972935 -82.46397156 198.14252549 C-82.45280576 211.36120568 -82.44729879 224.57988631 -82.44227612 237.79857004 C-82.43181514 264.99494645 -82.41347151 292.19130999 -82.39195251 319.38768005 C-65.23195251 319.38768005 -48.07195251 319.38768005 -30.39195251 319.38768005 C-30.39195251 243.81768005 -30.39195251 168.24768005 -30.39195251 90.38768005 C-55.87728933 87.28232891 -55.87728933 87.28232891 -79.76695251 95.38768005 Z M106.60804749 427.38768005 C106.60804749 440.25768005 106.60804749 453.12768005 106.60804749 466.38768005 C137.62804749 466.38768005 168.64804749 466.38768005 200.60804749 466.38768005 C200.60804749 453.51768005 200.60804749 440.64768005 200.60804749 427.38768005 C169.58804749 427.38768005 138.56804749 427.38768005 106.60804749 427.38768005 Z M74.60804749 490.38768005 C73.61804749 492.36768005 72.62804749 494.34768005 71.60804749 496.38768005 C125.72804749 496.38768005 179.84804749 496.38768005 235.60804749 496.38768005 C232.60632191 490.48659818 232.60632191 490.48659818 228.35804749 486.57518005 C227.57687561 486.00863708 227.57687561 486.00863708 226.77992249 485.4306488 C219.56137554 481.96418831 212.1278627 482.09589913 204.29212952 482.11302185 C202.47104675 482.10535545 202.47104675 482.10535545 200.61317444 482.09753418 C197.30308186 482.08606249 193.99324072 482.0835571 190.683146 482.08609748 C187.91005164 482.08717239 185.13697999 482.08227055 182.36389053 482.07749206 C175.81618965 482.06642261 169.26854615 482.06594487 162.72084045 482.07200623 C155.98841363 482.0780432 149.25619594 482.06573624 142.52380478 482.04443616 C136.72309711 482.02676531 130.92245567 482.02082744 125.1217221 482.0240739 C121.66626088 482.02587832 118.21094884 482.02333546 114.75551224 482.00935936 C110.89784429 481.99433823 107.04043847 482.00379893 103.18275452 482.0153656 C102.05308258 482.00772186 100.92341064 482.00007813 99.75950623 481.99220276 C90.15555678 482.05561304 81.45727459 483.20434431 74.60804749 490.38768005 Z " fill="#00ff00" transform="translate(102.39195251464844,-0.3876800537109375)"/>
<path d="M0 0 C1.24501282 -0.0112793 2.49002563 -0.02255859 3.77276611 -0.03417969 C5.1497826 -0.02640271 6.52679679 -0.01821005 7.90380859 -0.00964355 C9.35602521 -0.01506452 10.80823632 -0.02218704 12.26043701 -0.03088379 C16.20262884 -0.04912342 20.14440208 -0.04204721 24.08660126 -0.02936745 C28.21139151 -0.019243 32.33614584 -0.02863158 36.4609375 -0.03491211 C43.38792356 -0.04219015 50.31473905 -0.03259677 57.24169922 -0.0135498 C65.25116711 0.00821934 73.26022773 0.00116807 81.26968575 -0.02085543 C88.14539133 -0.03900503 95.02097429 -0.04156993 101.89669609 -0.03110075 C106.00372875 -0.02486336 110.11056996 -0.02403681 114.21759033 -0.0372467 C118.07877932 -0.04879831 121.93944304 -0.04079271 125.80057526 -0.01766968 C127.21794004 -0.01237881 128.635349 -0.01390291 130.05269623 -0.02272034 C131.9866122 -0.03364251 133.92062473 -0.01752003 135.85449219 0 C137.47827286 0.00226215 137.47827286 0.00226215 139.13485718 0.00457001 C142.69260781 0.64590101 143.85337704 1.5651884 145.92724609 4.50793457 C146.43340397 7.2819128 146.43340397 7.2819128 146.44190979 10.53599548 C146.45463425 11.77114899 146.4673587 13.00630249 146.48046875 14.27888489 C146.4742865 15.64486886 146.46768048 17.01085096 146.46069336 18.37683105 C146.46775184 19.81757491 146.47649656 21.25831135 146.48680115 22.69903564 C146.50931404 26.61028817 146.50635106 30.52113641 146.49747968 34.43242908 C146.49237133 37.69790778 146.49966113 40.96331041 146.50695175 44.22878128 C146.52395697 51.93265841 146.52037895 59.6363375 146.50366211 67.34020996 C146.48674058 75.2872379 146.50257399 83.23371657 146.53488499 91.18068451 C146.5615785 98.00460736 146.56885756 104.82835921 146.56036991 111.65232903 C146.55543986 115.72759156 146.55766013 119.8025236 146.57815742 123.87774467 C146.59651105 127.71029314 146.59056085 131.54205151 146.56595802 135.3745575 C146.56094892 136.7802192 146.56444268 138.18594106 146.57710648 139.59155464 C146.66372136 150.03217553 146.66372136 150.03217553 144.26269531 154.84338379 C138.71643786 157.61123501 133.01656963 157.19388412 126.92895508 157.13903809 C125.48644125 157.14417851 124.0439337 157.15146072 122.60144043 157.16072083 C118.69019878 157.17922629 114.77963929 157.16630291 110.86842608 157.14663053 C106.77434169 157.13023851 102.6803003 157.13905753 98.5861969 157.14414978 C91.71222033 157.14866963 84.83851598 157.13280656 77.96459961 157.1048584 C70.01701406 157.07279408 62.0699191 157.07282741 54.12229866 157.09007317 C46.47574233 157.10593446 38.82936591 157.09920814 31.18281746 157.08213615 C27.92887649 157.07526302 24.67507962 157.0763007 21.42114067 157.08368111 C17.59028315 157.09134011 13.75998433 157.07923121 9.92922211 157.0518322 C8.52315238 157.0449436 7.11703051 157.04485556 5.7109623 157.05204773 C3.79240507 157.06073085 1.87378208 157.04236225 -0.04469299 157.02259827 C-1.65546392 157.01838789 -1.65546392 157.01838789 -3.29877567 157.01409245 C-6.84365073 156.36727179 -8.00475219 155.44111303 -10.07275391 152.50793457 C-10.57611847 149.71554565 -10.57611847 149.71554565 -10.58068848 146.43518066 C-10.59196777 145.19016785 -10.60324707 143.94515503 -10.61486816 142.66241455 C-10.60709119 141.28539806 -10.59889853 139.90838387 -10.59033203 138.53137207 C-10.595753 137.07915546 -10.60287552 135.62694434 -10.61157227 134.17474365 C-10.6298119 130.23255182 -10.62273568 126.29077858 -10.61005592 122.34857941 C-10.59993147 118.22378915 -10.60932005 114.09903482 -10.61560059 109.97424316 C-10.62287863 103.0472571 -10.61328525 96.12044161 -10.59423828 89.19348145 C-10.57246914 81.18401356 -10.57952041 73.17495294 -10.6015439 65.16549492 C-10.61969351 58.28978933 -10.62225841 51.41420638 -10.61178923 44.53848457 C-10.60555184 40.43145191 -10.60472529 36.32461071 -10.61793518 32.21759033 C-10.62948679 28.35640134 -10.62148118 24.49573763 -10.59835815 20.63460541 C-10.59306728 19.21724063 -10.59459139 17.79983167 -10.60340881 16.38248444 C-10.61433099 14.44856846 -10.59820851 12.51455593 -10.58068848 10.58068848 C-10.57918037 9.49816803 -10.57767227 8.41564758 -10.57611847 7.30032349 C-9.46363977 1.12890536 -5.7704313 0.00803902 0 0 Z M5.92724609 16.50793457 C5.92724609 38.94793457 5.92724609 61.38793457 5.92724609 84.50793457 C10.54724609 83.51793457 15.16724609 82.52793457 19.92724609 81.50793457 C37.45387558 81.50793457 47.66345922 88.25199274 60.96240234 98.94934082 C68.51896204 104.86783339 75.90645578 109.96543606 85.86474609 109.69543457 C91.24500851 108.86835778 95.40037927 106.21419395 99.95849609 103.35949707 C102.72806339 101.63216168 105.51255219 100.09885415 108.42724609 98.63293457 C109.58740234 98.04898926 109.58740234 98.04898926 110.77099609 97.45324707 C117.09062517 94.68268505 122.70962332 95.06313632 129.92724609 94.50793457 C129.92724609 68.76793457 129.92724609 43.02793457 129.92724609 16.50793457 C89.00724609 16.50793457 48.08724609 16.50793457 5.92724609 16.50793457 Z M5.92724609 102.50793457 C5.92724609 115.04793457 5.92724609 127.58793457 5.92724609 140.50793457 C46.84724609 140.50793457 87.76724609 140.50793457 129.92724609 140.50793457 C129.92724609 130.93793457 129.92724609 121.36793457 129.92724609 111.50793457 C126.65274839 109.87068572 123.46526819 109.98728918 119.92724609 110.50793457 C114.56900011 112.53254869 109.80833088 115.57836418 104.98974609 118.63293457 C95.62863026 124.30811105 85.48869668 125.99405403 74.76708984 123.88684082 C64.07954451 121.02069338 56.05828785 115.05652562 47.56152344 108.22033691 C38.59429683 101.02204056 32.11411754 96.75457466 20.16552734 97.10559082 C15.44628452 97.69193824 9.42648238 99.00869828 5.92724609 102.50793457 Z " fill="#00ff00" transform="translate(117.07275390625,147.4920654296875)"/>
<path d="M0 0 C1.11598068 -0.00571014 2.23196136 -0.01142029 3.38175964 -0.01730347 C5.2192704 -0.01898026 5.2192704 -0.01898026 7.09390259 -0.02069092 C9.02834984 -0.02813828 9.02834984 -0.02813828 11.00187683 -0.03573608 C14.54117771 -0.04885211 18.08045963 -0.05530336 21.61978102 -0.05974674 C23.83113453 -0.06267848 26.04248287 -0.06678346 28.25383377 -0.07125092 C35.17310988 -0.08492313 42.09237416 -0.0945914 49.01166284 -0.09845281 C56.99828881 -0.10293442 64.9847437 -0.12048815 72.97131765 -0.1494534 C79.14550641 -0.17106826 85.31964704 -0.18115696 91.49387324 -0.18249393 C95.18120756 -0.18354201 98.86838102 -0.18945047 102.55567551 -0.20731354 C106.66878396 -0.22685216 110.78153413 -0.22250607 114.89468384 -0.21600342 C116.11564255 -0.2252182 117.33660126 -0.23443298 118.59455872 -0.243927 C119.71617905 -0.23835785 120.83779938 -0.2327887 121.9934082 -0.22705078 C122.96569052 -0.22851734 123.93797283 -0.2299839 124.93971825 -0.2314949 C128.16134593 0.21494902 130.01092406 1.22718969 132.62368774 3.14044189 C134.62368774 6.14044189 134.62368774 6.14044189 134.43618774 9.64044189 C133.3683686 14.24027823 133.3683686 14.24027823 130.62368774 16.14044189 C127.5557496 17.16308794 125.46073706 17.27104499 122.24737549 17.28088379 C121.13139481 17.28659393 120.01541412 17.29230408 118.86561584 17.29818726 C117.64060867 17.29930511 116.4156015 17.30042297 115.1534729 17.30157471 C113.21902565 17.30902206 113.21902565 17.30902206 111.24549866 17.31661987 C107.70619778 17.3297359 104.16691586 17.33618715 100.62759447 17.34063053 C98.41624096 17.34356227 96.20489262 17.34766725 93.99354172 17.3521347 C87.07426561 17.36580692 80.15500133 17.37547519 73.23571265 17.3793366 C65.24908668 17.38381821 57.26263179 17.40137193 49.27605784 17.43033719 C43.10186907 17.45195205 36.92772845 17.46204075 30.75350225 17.46337771 C27.06616792 17.4644258 23.37899447 17.47033426 19.69169998 17.48819733 C15.57859153 17.50773595 11.46584136 17.50338986 7.35269165 17.49688721 C5.52125359 17.51070938 5.52125359 17.51070938 3.65281677 17.52481079 C2.53119644 17.51924164 1.40957611 17.51367249 0.25396729 17.50793457 C-1.20445619 17.51013441 -1.20445619 17.51013441 -2.69234276 17.51237869 C-5.91397044 17.06593476 -7.76354858 16.0536941 -10.37631226 14.14044189 C-12.37631226 11.14044189 -12.37631226 11.14044189 -12.18881226 7.64044189 C-11.12099311 3.04060556 -11.12099311 3.04060556 -8.37631226 1.14044189 C-5.30837412 0.11779585 -3.21336157 0.00983879 0 0 Z " fill="#00ff00" transform="translate(214.37631225585938,39.85955810546875)"/>
<path d="M0 0 C3.7639277 3.29175708 6.23431184 6.71008497 8.671875 11.05078125 C8.9960994 11.6223999 9.32032379 12.19401855 9.65437317 12.78295898 C10.69464104 14.62155893 11.72294781 16.46648998 12.75 18.3125 C13.46164485 19.58191228 14.17380539 20.85103559 14.88647461 22.11987305 C15.9454914 24.00576535 17.00377568 25.89202857 18.05845642 27.78034973 C20.01265962 31.27318754 22.01231262 34.73070151 24.08203125 38.15625 C24.5109668 38.87643311 24.93990234 39.59661621 25.38183594 40.33862305 C26.1402681 41.60659741 26.91204039 42.86673905 27.70019531 44.11645508 C30.21707823 48.39329627 30.19173558 51.23887101 29 56 C27.10466125 58.58455285 26.11173483 58.96275506 23 60 C21.29340751 60.10246101 19.58315357 60.14844166 17.87353516 60.16113281 C16.82880035 60.17074036 15.78406555 60.1803479 14.70767212 60.19024658 C13.57953094 60.19449646 12.45138977 60.19874634 11.2890625 60.203125 C9.54863174 60.21167511 9.54863174 60.21167511 7.77304077 60.22039795 C5.31680209 60.22984923 2.86055072 60.23638243 0.40429688 60.24023438 C-3.35308941 60.24994338 -7.10992955 60.28096781 -10.8671875 60.3125 C-13.25260092 60.31902973 -15.63801825 60.32428032 -18.0234375 60.328125 C-19.70957657 60.3466452 -19.70957657 60.3466452 -21.42977905 60.36553955 C-22.48081818 60.36253845 -23.5318573 60.35953735 -24.61474609 60.35644531 C-25.99682755 60.36191376 -25.99682755 60.36191376 -27.40682983 60.36749268 C-30.83856277 59.88116257 -33.53470644 58.46529356 -36 56 C-37.23506961 47.75961558 -33.23714596 42.0405585 -29.1875 35.125 C-28.50043926 33.92576373 -27.81449361 32.72588794 -27.12963867 31.52539062 C-25.11111612 28.0021837 -23.05789522 24.50035465 -21 21 C-20.14583496 19.53385254 -20.14583496 19.53385254 -19.27441406 18.03808594 C-17.80099557 15.5167817 -16.3127516 13.00541228 -14.8125 10.5 C-14.38026123 9.77184082 -13.94802246 9.04368164 -13.50268555 8.29345703 C-9.9392347 2.47877442 -7.19550095 -1.17477567 0 0 Z M-4 25 C-5.67017764 27.81042924 -7.33554809 30.62367657 -9 33.4375 C-9.47695312 34.23994141 -9.95390625 35.04238281 -10.4453125 35.86914062 C-10.89648438 36.63291016 -11.34765625 37.39667969 -11.8125 38.18359375 C-12.23144531 38.89056396 -12.65039062 39.59753418 -13.08203125 40.32592773 C-14.08013401 41.8279319 -14.08013401 41.8279319 -14 43 C-7.07 43 -0.14 43 7 43 C5.9275 40.7725 4.855 38.545 3.75 36.25 C3.4209668 35.55551758 3.09193359 34.86103516 2.75292969 34.14550781 C0.94462151 30.46301889 -0.91346798 27.70412982 -4 25 Z " fill="#00ff00" transform="translate(143,31)"/>
<path d="M0 0 C1.39836594 -0.00639748 1.39836594 -0.00639748 2.82498169 -0.01292419 C3.84067734 -0.01247101 4.85637299 -0.01201782 5.90284729 -0.0115509 C6.97804626 -0.01490952 8.05324524 -0.01826813 9.161026 -0.02172852 C12.71893974 -0.0312356 16.27680641 -0.03318143 19.83473206 -0.03425598 C22.30568461 -0.03746844 24.77663696 -0.04083251 27.24758911 -0.04434204 C32.42841534 -0.0503325 37.60922488 -0.052182 42.79005432 -0.05158997 C49.43255408 -0.05148828 56.07494709 -0.06514723 62.71742153 -0.08236217 C67.82088717 -0.09347306 72.92432692 -0.09550946 78.02780342 -0.09498024 C80.47703991 -0.09616147 82.92627703 -0.10059123 85.37550163 -0.10831261 C88.79875578 -0.11809507 92.221777 -0.11524134 95.64503479 -0.10920715 C97.16554192 -0.11763641 97.16554192 -0.11763641 98.71676636 -0.12623596 C109.12538031 -0.07954523 109.12538031 -0.07954523 113.33863831 4.13371277 C114.28014344 7.03668693 114.42367894 8.77654211 113.71363831 11.75871277 C111.89101362 14.90688268 110.69385046 15.64120153 107.33863831 17.13371277 C103.71879388 17.57839124 100.12055176 17.54335954 96.47731018 17.52189636 C95.38245804 17.52715332 94.2876059 17.53241028 93.15957642 17.53782654 C89.54203508 17.55102572 85.92493409 17.54228837 82.30738831 17.53215027 C79.79302384 17.53417102 77.27865994 17.53708246 74.76429749 17.54084778 C69.49524953 17.54527103 64.22631602 17.53912628 58.95729065 17.52482605 C52.87179999 17.50850031 46.78661089 17.51378916 40.70112753 17.53030527 C34.83901626 17.54557633 28.97701932 17.54393873 23.11489868 17.53516006 C20.62379921 17.53315801 18.13269205 17.53561749 15.64160156 17.54259872 C12.16084877 17.55021257 8.680676 17.53860907 5.19996643 17.52189636 C3.65376366 17.5310054 3.65376366 17.5310054 2.07632446 17.54029846 C-6.76739549 17.46158475 -6.76739549 17.46158475 -10.66136169 14.13371277 C-12.66136169 11.13371277 -12.66136169 11.13371277 -12.47386169 7.63371277 C-11.38671381 2.95061418 -11.38671381 2.95061418 -8.66136169 1.13371277 C-5.72271844 0.22342339 -3.06762847 0.00635954 0 0 Z " fill="#00ff00" transform="translate(293.66136169433594,253.8662872314453)"/>
<path d="M0 0 C1.3961982 -0.00856522 1.3961982 -0.00856522 2.82060242 -0.01730347 C4.34178932 -0.01898026 4.34178932 -0.01898026 5.89370728 -0.02069092 C6.96729996 -0.02565582 8.04089264 -0.03062073 9.14701843 -0.03573608 C12.70012044 -0.05034649 16.25317782 -0.0571574 19.80630493 -0.06268311 C22.27486167 -0.06843489 24.74341839 -0.07419262 27.2119751 -0.07995605 C32.38860279 -0.09046244 37.56521496 -0.09630768 42.74185181 -0.09979248 C49.37533071 -0.10528049 56.00860469 -0.12931683 62.64201927 -0.15776443 C67.74123739 -0.17638509 72.84040606 -0.18159609 77.9396553 -0.18312836 C80.38528185 -0.18615602 82.8309075 -0.19418832 85.2765007 -0.20731354 C88.69723892 -0.22436374 92.11747508 -0.22249616 95.53823853 -0.21600342 C97.05335274 -0.22982559 97.05335274 -0.22982559 98.59907532 -0.243927 C103.88852726 -0.21246976 107.85250213 0.00821213 112.34536743 3.14044189 C113.90786743 6.51544189 113.90786743 6.51544189 114.34536743 10.14044189 C113.16672418 13.08705002 112.23214114 14.59485963 109.52426052 16.26086712 C107.05696312 17.25686484 105.26373435 17.39451507 102.608078 17.40113831 C101.65900574 17.40822311 100.70993347 17.41530792 99.73210144 17.42260742 C98.69770432 17.42013 97.66330719 17.41765259 96.5975647 17.4151001 C95.50285858 17.42021103 94.40815247 17.42532196 93.28027344 17.43058777 C89.65738475 17.44450117 86.03468593 17.44352569 82.41177368 17.44122314 C79.89598011 17.44510902 77.3801872 17.44944346 74.86439514 17.45420837 C69.58940004 17.46167428 64.31445419 17.46151463 59.03945923 17.45611572 C52.9466178 17.45007554 46.85400729 17.462389 40.76120526 17.48368579 C34.89430487 17.50343711 29.02749487 17.50647423 23.16056633 17.50295067 C20.66667069 17.50346456 18.17277141 17.50871498 15.67889595 17.51876259 C12.1932706 17.53108228 8.7081813 17.52436173 5.2225647 17.51275635 C3.67400536 17.52422195 3.67400536 17.52422195 2.09416199 17.53591919 C-6.76223035 17.47065811 -6.76223035 17.47065811 -10.65463257 14.14044189 C-12.65463257 11.14044189 -12.65463257 11.14044189 -12.46713257 7.64044189 C-11.37998468 2.9573433 -11.37998468 2.9573433 -8.65463257 1.14044189 C-5.71959599 0.23216073 -3.06367081 0.01129191 0 0 Z " fill="#00ff00" transform="translate(293.6546325683594,186.85955810546875)"/>
<path d="M0 0 C1.46157784 -0.00845947 1.46157784 -0.00845947 2.9526825 -0.01708984 C4.55410599 -0.01101715 4.55410599 -0.01101715 6.18788147 -0.00482178 C7.31330856 -0.00832642 8.43873566 -0.01183105 9.5982666 -0.01544189 C13.32880268 -0.02426428 17.05915001 -0.01840776 20.78968811 -0.01165771 C23.37656694 -0.01300431 25.96344552 -0.0149448 28.55032349 -0.01745605 C33.97673683 -0.02040809 39.40307892 -0.01629757 44.82948303 -0.0067749 C51.10120953 0.00410418 57.37280595 0.00058805 63.64452928 -0.01042771 C69.67855051 -0.02060148 75.71250816 -0.01951905 81.74653816 -0.01366425 C84.31382325 -0.0123282 86.88111164 -0.0139739 89.44839287 -0.01862335 C93.03482273 -0.02369222 96.62100159 -0.01597269 100.20741272 -0.00482178 C101.27300415 -0.00887024 102.33859558 -0.0129187 103.43647766 -0.01708984 C104.90228523 -0.00863037 104.90228523 -0.00863037 106.39770508 0 C107.66946547 0.00113108 107.66946547 0.00113108 108.96691799 0.002285 C111.53913324 0.28431583 113.11235676 0.8167491 115.26234436 2.25396729 C116.77377424 5.89513926 117.52032423 8.1985951 116.57484436 12.06646729 C115.26234436 14.25396729 115.26234436 14.25396729 112.26234436 16.25396729 C110.07714176 16.50844288 110.07714176 16.50844288 107.48672485 16.5146637 C106.01252579 16.52529091 106.01252579 16.52529091 104.50854492 16.53613281 C103.43157852 16.5336554 102.35461212 16.53117798 101.24501038 16.52862549 C100.10982971 16.53373642 98.97464905 16.53884735 97.80506897 16.54411316 C94.04207631 16.55804529 90.27926604 16.55704966 86.51625061 16.55474854 C83.90695121 16.55863342 81.29765244 16.56296765 78.68835449 16.56773376 C73.214873 16.57594956 67.74144311 16.57503682 62.26795959 16.56964111 C55.94165917 16.56360059 49.61558111 16.57591359 43.28931862 16.59721118 C37.20296496 16.61694757 31.11671533 16.62000138 25.03033257 16.61647606 C22.44071366 16.61699043 19.85109128 16.62224969 17.26149178 16.63228798 C13.64384329 16.64458979 10.02671273 16.6378979 6.40907288 16.62628174 C5.33413071 16.63392548 4.25918854 16.64156921 3.15167236 16.64944458 C2.16605316 16.64243027 1.18043396 16.63541595 0.16494751 16.62818909 C-1.1178744 16.6284407 -1.1178744 16.6284407 -2.4266119 16.6286974 C-5.29919246 16.16291546 -6.65608837 15.26788245 -8.73765564 13.25396729 C-9.6164596 9.80152314 -10.09751795 7.36354275 -8.98765564 3.94146729 C-6.41848518 0.47308716 -4.05710066 0.0036099 0 0 Z " fill="#00ff00" transform="translate(290.73765563964844,220.74603271484375)"/>
<path d="M0 0 C0.97294006 -0.00852997 1.94588013 -0.01705994 2.94830322 -0.02584839 C4.01434784 -0.02494202 5.08039246 -0.02403564 6.17874146 -0.02310181 C7.86447266 -0.03317764 7.86447266 -0.03317764 9.58425903 -0.04345703 C13.30997097 -0.06249961 17.03550337 -0.06636441 20.76126099 -0.06851196 C23.34574458 -0.07493553 25.93022743 -0.08166355 28.51470947 -0.08868408 C33.93692011 -0.10067254 39.35905924 -0.1044488 44.78128052 -0.10317993 C51.04513414 -0.10197869 57.3086431 -0.12307608 63.57240951 -0.15466726 C69.60110504 -0.18398772 75.62961368 -0.1911556 81.65839005 -0.18996048 C84.22207166 -0.19232362 86.78575572 -0.20118698 89.34939194 -0.21662521 C92.93342556 -0.23618683 96.51656897 -0.23048493 100.10061646 -0.21841431 C101.16261261 -0.22965332 102.22460876 -0.24089233 103.31878662 -0.25247192 C110.50550696 -0.19086301 110.50550696 -0.19086301 114.40460205 2.14935303 C116.63237483 4.68014228 117.26907349 5.89057526 117.26907349 9.26742554 C114.99196505 14.90597975 114.99196505 14.90597975 112.26907349 16.26742554 C110.71972266 16.36617065 109.16619342 16.40247092 107.6137085 16.40786743 C106.63228378 16.41357758 105.65085907 16.41928772 104.63969421 16.4251709 C103.0188517 16.42684769 103.0188517 16.42684769 101.36526489 16.42855835 C100.23023026 16.43352325 99.09519562 16.43848816 97.92576599 16.44360352 C94.15738324 16.45825208 90.38904257 16.46503139 86.62063599 16.47055054 C84.00990802 16.47629945 81.39918008 16.48205722 78.78845215 16.48782349 C74.0100164 16.49739762 69.23158978 16.50329281 64.45314562 16.50632024 C57.41847809 16.51080149 50.38400481 16.52835194 43.34939635 16.55732083 C37.25825281 16.58153453 31.16718953 16.58926418 25.07600021 16.59099579 C22.48358477 16.59402898 19.89117028 16.60207978 17.29878616 16.61518097 C13.67626362 16.63218224 10.05421708 16.63037553 6.43167114 16.62387085 C4.81690132 16.63769302 4.81690132 16.63769302 3.16950989 16.65179443 C2.18244553 16.64622528 1.19538116 16.64065613 0.17840576 16.63491821 C-1.10636437 16.63711805 -1.10636437 16.63711805 -2.41708946 16.63936234 C-5.2930947 16.17706004 -6.64790604 15.28373282 -8.73092651 13.26742554 C-9.60973048 9.81498139 -10.09078883 7.377001 -8.98092651 3.95492554 C-6.41618605 0.49252591 -4.05106915 0.01604643 0 0 Z " fill="#00ff00" transform="translate(290.7309265136719,153.73257446289063)"/>
<path d="M0 0 C5.71897778 3.38639264 10.10296307 8.08490403 12.5625 14.3125 C14.32377083 21.42947194 13.51210171 27.6383032 10.5625 34.3125 C6.9378559 40.1338981 1.99792452 43.2267807 -4.4375 45.3125 C-13.20375879 46.49471811 -19.99472657 45.06009815 -27.125 39.75 C-31.70491938 35.59300111 -33.79589007 30.24236085 -34.78125 24.20703125 C-35.10175845 17.51641729 -32.89852938 11.61472812 -29.375 6.0625 C-21.85890518 -1.94572008 -10.05510565 -4.62042519 0 0 Z M-17.4375 18.3125 C-18.73529083 20.99460104 -18.51095798 22.05539708 -17.6875 24.9375 C-16.52980617 27.59614637 -16.52980617 27.59614637 -13.4375 29.3125 C-9.8602467 29.76917063 -8.10291695 29.75027431 -5.0625 27.75 C-2.79836105 24.35379157 -2.79480245 22.31150698 -3.4375 18.3125 C-5.56435929 15.7607714 -5.56435929 15.7607714 -8.4375 14.3125 C-13.14531138 14.3125 -14.14684836 15.11078489 -17.4375 18.3125 Z " fill="#00ff00" transform="translate(215.4375,181.6875)"/>
<path d="M0 0 C5.37800084 3.25449836 9.85698862 8.31354849 11.5 14.4375 C12.87578341 21.31641704 12.79956198 27.41504638 9.23828125 33.64453125 C5.11552052 39.47699328 0.76897855 43.05775536 -6.25 44.8125 C-13.44850857 46.00144286 -19.71746592 44.98028562 -25.8125 40.875 C-30.94024591 36.54813936 -34.05745478 31.94807508 -34.90625 25.21484375 C-35.12328545 17.33826541 -33.99161807 12.4624215 -29.875 5.8125 C-21.9071865 -2.1553135 -10.60084753 -4.67983672 0 0 Z M-16.875 16.0625 C-18.98706506 19.14936432 -19.11195145 20.7657913 -18.5 24.4375 C-17 26.9375 -17 26.9375 -14.5 28.4375 C-10.8282913 29.04945145 -9.21186432 28.92456506 -6.125 26.8125 C-4.01293494 23.72563568 -3.88804855 22.1092087 -4.5 18.4375 C-6 15.9375 -6 15.9375 -8.5 14.4375 C-12.1717087 13.82554855 -13.78813568 13.95043494 -16.875 16.0625 Z " fill="#00ff00" transform="translate(271.5,351.5625)"/>
<path d="M0 0 C1.93209068 -0.01879967 1.93209068 -0.01879967 3.9032135 -0.03797913 C5.30063899 -0.02571173 6.69805477 -0.01229185 8.09545898 0.00219727 C9.53604817 0.00136811 10.97663725 -0.00109306 12.41722107 -0.00511169 C15.43094484 -0.00796549 18.44392366 0.00669069 21.45751953 0.03417969 C25.31701637 0.06829397 29.17518438 0.06223098 33.03474522 0.04351711 C36.00741115 0.0329411 38.97976866 0.04188957 41.95240593 0.05690193 C43.37533591 0.06207783 44.79829817 0.0616091 46.22122383 0.05535698 C48.21002504 0.04989744 50.19884233 0.07314629 52.1875 0.09765625 C53.31825455 0.10385483 54.44900909 0.11005341 55.61402893 0.11643982 C59.15932563 0.74238171 60.33662094 1.83325627 62.52905273 4.63110352 C63.09545898 6.63110352 63.09545898 6.63110352 63.09155273 8.63110352 C63.1134668 9.29110352 63.13538086 9.95110352 63.15795898 10.63110352 C62.16889515 13.77644936 60.2267739 14.83253156 57.52905273 16.63110352 C54.52500916 17.13230896 54.52500916 17.13230896 51.14990234 17.1328125 C49.88186264 17.14219345 48.61382294 17.1515744 47.30735779 17.16123962 C45.93203045 17.15076208 44.55670966 17.13939316 43.18139648 17.12719727 C41.76322862 17.12735234 40.34506032 17.12884267 38.92689514 17.13160706 C35.96034929 17.13298904 32.99428811 17.12046598 30.02783203 17.09765625 C26.2290431 17.06924552 22.43105745 17.07201829 18.63220882 17.08474636 C15.70590881 17.09170663 12.77979391 17.08391086 9.85351753 17.07148933 C8.45291415 17.06698 7.05229087 17.06663352 5.65168571 17.07055473 C3.69402662 17.07347066 1.73637144 17.05478651 -0.22119141 17.03515625 C-1.89067589 17.02705177 -1.89067589 17.02705177 -3.59388733 17.01878357 C-6.7939805 16.58757521 -8.16264887 15.84612618 -10.47094727 13.63110352 C-11.25610352 11.76391602 -11.25610352 11.76391602 -11.53344727 9.75610352 C-11.64817383 9.09868164 -11.76290039 8.44125977 -11.88110352 7.76391602 C-10.6963775 1.60334075 -5.55158263 0.00471857 0 0 Z " fill="#00ff00" transform="translate(213.470947265625,72.368896484375)"/>
<path d="M0 0 C1.72221268 -0.01441132 1.72221268 -0.01441132 3.47921753 -0.02911377 C4.72502594 -0.03336365 5.97083435 -0.03761353 7.25439453 -0.04199219 C8.52944855 -0.04769226 9.80450256 -0.05339233 11.11819458 -0.05926514 C13.82004366 -0.06872581 16.52178137 -0.07561718 19.22363281 -0.07910156 C22.68276871 -0.08458452 26.14151062 -0.10860828 29.60052299 -0.13707352 C32.9017837 -0.16019777 36.20306416 -0.1621495 39.50439453 -0.16699219 C40.74615448 -0.17933899 41.98791443 -0.19168579 43.26730347 -0.20440674 C44.42174957 -0.20140564 45.57619568 -0.19840454 46.765625 -0.1953125 C47.78107391 -0.19895813 48.79652283 -0.20260376 49.84274292 -0.20635986 C52.95025729 0.22143715 54.29895122 0.96190683 56.51220703 3.16113281 C57.61594081 7.13457443 57.92764286 9.25113053 56.19970703 13.03613281 C54.51220703 15.16113281 54.51220703 15.16113281 52.51220703 16.16113281 C50.6853791 16.27243751 48.85454337 16.32036484 47.02441406 16.33813477 C45.87627228 16.35097 44.72813049 16.36380524 43.54519653 16.37702942 C42.29938812 16.38441635 41.05357971 16.39180328 39.77001953 16.39941406 C38.49496552 16.40748581 37.2199115 16.41555756 35.90621948 16.4238739 C33.20436967 16.43772409 30.50264228 16.44873808 27.80078125 16.45629883 C24.34152786 16.46736665 20.88291717 16.50177114 17.42389107 16.54147053 C14.12266417 16.57391173 10.82138156 16.57841325 7.52001953 16.58691406 C6.27825958 16.60442215 5.03649963 16.62193024 3.7571106 16.63996887 C2.02544144 16.63558052 2.02544144 16.63558052 0.25878906 16.63110352 C-0.75665985 16.63696976 -1.77210876 16.642836 -2.81832886 16.64888 C-6.21797463 16.02771875 -7.37297673 14.8418989 -9.48779297 12.16113281 C-10.66370271 8.47661563 -10.82260635 6.87859006 -9.17529297 3.34863281 C-6.41406545 -0.23073619 -4.33716916 0.02920943 0 0 Z " fill="#00ff00" transform="translate(291.48779296875,287.8388671875)"/>
</svg>